%TF.GenerationSoftware,KiCad,Pcbnew,7.0.10*%
%TF.CreationDate,2024-01-13T17:41:25+09:00*%
%TF.ProjectId,md2,6d64322e-6b69-4636-9164-5f7063625858,rev?*%
%TF.SameCoordinates,Original*%
%TF.FileFunction,Profile,NP*%
%FSLAX46Y46*%
G04 Gerber Fmt 4.6, Leading zero omitted, Abs format (unit mm)*
G04 Created by KiCad (PCBNEW 7.0.10) date 2024-01-13 17:41:25*
%MOMM*%
%LPD*%
G01*
G04 APERTURE LIST*
%TA.AperFunction,Profile*%
%ADD10C,0.100000*%
%TD*%
G04 APERTURE END LIST*
D10*
X115500000Y-118000000D02*
G75*
G03*
X120500000Y-113000000I0J5000000D01*
G01*
X20500000Y-113000000D02*
G75*
G03*
X25500000Y-118000000I5000000J0D01*
G01*
X120500000Y-23000000D02*
G75*
G03*
X115500000Y-18000000I-5000000J0D01*
G01*
X25500000Y-18000000D02*
G75*
G03*
X20500000Y-23000000I0J-5000000D01*
G01*
X100500000Y-18000000D02*
G75*
G03*
X100000000Y-18500000I0J-500000D01*
G01*
X99500000Y-28000000D02*
G75*
G03*
X100000000Y-27500000I0J500000D01*
G01*
X40500000Y-27000000D02*
G75*
G03*
X41500000Y-28000000I1000000J0D01*
G01*
X40500000Y-19000000D02*
G75*
G03*
X39500000Y-18000000I-1000000J0D01*
G01*
X20500000Y-113000000D02*
X20500000Y-23000000D01*
X25500000Y-118000000D02*
X115500000Y-118000000D01*
X120500000Y-23000000D02*
X120500000Y-113000000D01*
X100500000Y-18000000D02*
X115500000Y-18000000D01*
X100000000Y-27500000D02*
X100000000Y-18500000D01*
X41500000Y-28000000D02*
X99500000Y-28000000D01*
X40500000Y-19000000D02*
X40500000Y-27000000D01*
X25500000Y-18000000D02*
X39500000Y-18000000D01*
X27500000Y-113000000D02*
G75*
G03*
X23500000Y-113000000I-2000000J0D01*
G01*
X23500000Y-113000000D02*
G75*
G03*
X27500000Y-113000000I2000000J0D01*
G01*
X117500000Y-113000000D02*
G75*
G03*
X113500000Y-113000000I-2000000J0D01*
G01*
X113500000Y-113000000D02*
G75*
G03*
X117500000Y-113000000I2000000J0D01*
G01*
X117500000Y-23000000D02*
G75*
G03*
X113500000Y-23000000I-2000000J0D01*
G01*
X113500000Y-23000000D02*
G75*
G03*
X117500000Y-23000000I2000000J0D01*
G01*
X27500000Y-23000000D02*
G75*
G03*
X23500000Y-23000000I-2000000J0D01*
G01*
X23500000Y-23000000D02*
G75*
G03*
X27500000Y-23000000I2000000J0D01*
G01*
M02*
