%TF.GenerationSoftware,KiCad,Pcbnew,8.0.3*%
%TF.CreationDate,2024-06-19T10:23:01+09:00*%
%TF.ProjectId,md2,6d64322e-6b69-4636-9164-5f7063625858,rev?*%
%TF.SameCoordinates,Original*%
%TF.FileFunction,Legend,Bot*%
%TF.FilePolarity,Positive*%
%FSLAX46Y46*%
G04 Gerber Fmt 4.6, Leading zero omitted, Abs format (unit mm)*
G04 Created by KiCad (PCBNEW 8.0.3) date 2024-06-19 10:23:01*
%MOMM*%
%LPD*%
G01*
G04 APERTURE LIST*
%ADD10C,0.150000*%
%ADD11C,0.120000*%
G04 APERTURE END LIST*
D10*
X128649931Y-99163220D02*
X127649931Y-99163220D01*
X128649931Y-98687030D02*
X127649931Y-98687030D01*
X127649931Y-98687030D02*
X128364216Y-98353697D01*
X128364216Y-98353697D02*
X127649931Y-98020364D01*
X127649931Y-98020364D02*
X128649931Y-98020364D01*
X128649931Y-97496554D02*
X128649931Y-97306078D01*
X128649931Y-97306078D02*
X128602312Y-97210840D01*
X128602312Y-97210840D02*
X128554692Y-97163221D01*
X128554692Y-97163221D02*
X128411835Y-97067983D01*
X128411835Y-97067983D02*
X128221359Y-97020364D01*
X128221359Y-97020364D02*
X127840407Y-97020364D01*
X127840407Y-97020364D02*
X127745169Y-97067983D01*
X127745169Y-97067983D02*
X127697550Y-97115602D01*
X127697550Y-97115602D02*
X127649931Y-97210840D01*
X127649931Y-97210840D02*
X127649931Y-97401316D01*
X127649931Y-97401316D02*
X127697550Y-97496554D01*
X127697550Y-97496554D02*
X127745169Y-97544173D01*
X127745169Y-97544173D02*
X127840407Y-97591792D01*
X127840407Y-97591792D02*
X128078502Y-97591792D01*
X128078502Y-97591792D02*
X128173740Y-97544173D01*
X128173740Y-97544173D02*
X128221359Y-97496554D01*
X128221359Y-97496554D02*
X128268978Y-97401316D01*
X128268978Y-97401316D02*
X128268978Y-97210840D01*
X128268978Y-97210840D02*
X128221359Y-97115602D01*
X128221359Y-97115602D02*
X128173740Y-97067983D01*
X128173740Y-97067983D02*
X128078502Y-97020364D01*
X127745169Y-96639411D02*
X127697550Y-96591792D01*
X127697550Y-96591792D02*
X127649931Y-96496554D01*
X127649931Y-96496554D02*
X127649931Y-96258459D01*
X127649931Y-96258459D02*
X127697550Y-96163221D01*
X127697550Y-96163221D02*
X127745169Y-96115602D01*
X127745169Y-96115602D02*
X127840407Y-96067983D01*
X127840407Y-96067983D02*
X127935645Y-96067983D01*
X127935645Y-96067983D02*
X128078502Y-96115602D01*
X128078502Y-96115602D02*
X128649931Y-96687030D01*
X128649931Y-96687030D02*
X128649931Y-96067983D01*
X127649931Y-95448935D02*
X127649931Y-95353697D01*
X127649931Y-95353697D02*
X127697550Y-95258459D01*
X127697550Y-95258459D02*
X127745169Y-95210840D01*
X127745169Y-95210840D02*
X127840407Y-95163221D01*
X127840407Y-95163221D02*
X128030883Y-95115602D01*
X128030883Y-95115602D02*
X128268978Y-95115602D01*
X128268978Y-95115602D02*
X128459454Y-95163221D01*
X128459454Y-95163221D02*
X128554692Y-95210840D01*
X128554692Y-95210840D02*
X128602312Y-95258459D01*
X128602312Y-95258459D02*
X128649931Y-95353697D01*
X128649931Y-95353697D02*
X128649931Y-95448935D01*
X128649931Y-95448935D02*
X128602312Y-95544173D01*
X128602312Y-95544173D02*
X128554692Y-95591792D01*
X128554692Y-95591792D02*
X128459454Y-95639411D01*
X128459454Y-95639411D02*
X128268978Y-95687030D01*
X128268978Y-95687030D02*
X128030883Y-95687030D01*
X128030883Y-95687030D02*
X127840407Y-95639411D01*
X127840407Y-95639411D02*
X127745169Y-95591792D01*
X127745169Y-95591792D02*
X127697550Y-95544173D01*
X127697550Y-95544173D02*
X127649931Y-95448935D01*
X128268978Y-94687030D02*
X128268978Y-93925126D01*
X128649931Y-92877507D02*
X128173740Y-93210840D01*
X128649931Y-93448935D02*
X127649931Y-93448935D01*
X127649931Y-93448935D02*
X127649931Y-93067983D01*
X127649931Y-93067983D02*
X127697550Y-92972745D01*
X127697550Y-92972745D02*
X127745169Y-92925126D01*
X127745169Y-92925126D02*
X127840407Y-92877507D01*
X127840407Y-92877507D02*
X127983264Y-92877507D01*
X127983264Y-92877507D02*
X128078502Y-92925126D01*
X128078502Y-92925126D02*
X128126121Y-92972745D01*
X128126121Y-92972745D02*
X128173740Y-93067983D01*
X128173740Y-93067983D02*
X128173740Y-93448935D01*
X127649931Y-92544173D02*
X128649931Y-91877507D01*
X127649931Y-91877507D02*
X128649931Y-92544173D01*
X129259875Y-99258458D02*
X130259875Y-98591792D01*
X129259875Y-98591792D02*
X130259875Y-99258458D01*
X130259875Y-98210839D02*
X129259875Y-98210839D01*
X129974160Y-97782268D02*
X129974160Y-97306078D01*
X130259875Y-97877506D02*
X129259875Y-97544173D01*
X129259875Y-97544173D02*
X130259875Y-97210840D01*
X129259875Y-96687030D02*
X129259875Y-96496554D01*
X129259875Y-96496554D02*
X129307494Y-96401316D01*
X129307494Y-96401316D02*
X129402732Y-96306078D01*
X129402732Y-96306078D02*
X129593208Y-96258459D01*
X129593208Y-96258459D02*
X129926541Y-96258459D01*
X129926541Y-96258459D02*
X130117017Y-96306078D01*
X130117017Y-96306078D02*
X130212256Y-96401316D01*
X130212256Y-96401316D02*
X130259875Y-96496554D01*
X130259875Y-96496554D02*
X130259875Y-96687030D01*
X130259875Y-96687030D02*
X130212256Y-96782268D01*
X130212256Y-96782268D02*
X130117017Y-96877506D01*
X130117017Y-96877506D02*
X129926541Y-96925125D01*
X129926541Y-96925125D02*
X129593208Y-96925125D01*
X129593208Y-96925125D02*
X129402732Y-96877506D01*
X129402732Y-96877506D02*
X129307494Y-96782268D01*
X129307494Y-96782268D02*
X129259875Y-96687030D01*
X129878922Y-95829887D02*
X129878922Y-95067983D01*
X130259875Y-94020364D02*
X129783684Y-94353697D01*
X130259875Y-94591792D02*
X129259875Y-94591792D01*
X129259875Y-94591792D02*
X129259875Y-94210840D01*
X129259875Y-94210840D02*
X129307494Y-94115602D01*
X129307494Y-94115602D02*
X129355113Y-94067983D01*
X129355113Y-94067983D02*
X129450351Y-94020364D01*
X129450351Y-94020364D02*
X129593208Y-94020364D01*
X129593208Y-94020364D02*
X129688446Y-94067983D01*
X129688446Y-94067983D02*
X129736065Y-94115602D01*
X129736065Y-94115602D02*
X129783684Y-94210840D01*
X129783684Y-94210840D02*
X129783684Y-94591792D01*
X129259875Y-93687030D02*
X130259875Y-93020364D01*
X129259875Y-93020364D02*
X130259875Y-93687030D01*
X131869819Y-99163220D02*
X130869819Y-99163220D01*
X131869819Y-98687030D02*
X130869819Y-98687030D01*
X130869819Y-98687030D02*
X131584104Y-98353697D01*
X131584104Y-98353697D02*
X130869819Y-98020364D01*
X130869819Y-98020364D02*
X131869819Y-98020364D01*
X131869819Y-97496554D02*
X131869819Y-97306078D01*
X131869819Y-97306078D02*
X131822200Y-97210840D01*
X131822200Y-97210840D02*
X131774580Y-97163221D01*
X131774580Y-97163221D02*
X131631723Y-97067983D01*
X131631723Y-97067983D02*
X131441247Y-97020364D01*
X131441247Y-97020364D02*
X131060295Y-97020364D01*
X131060295Y-97020364D02*
X130965057Y-97067983D01*
X130965057Y-97067983D02*
X130917438Y-97115602D01*
X130917438Y-97115602D02*
X130869819Y-97210840D01*
X130869819Y-97210840D02*
X130869819Y-97401316D01*
X130869819Y-97401316D02*
X130917438Y-97496554D01*
X130917438Y-97496554D02*
X130965057Y-97544173D01*
X130965057Y-97544173D02*
X131060295Y-97591792D01*
X131060295Y-97591792D02*
X131298390Y-97591792D01*
X131298390Y-97591792D02*
X131393628Y-97544173D01*
X131393628Y-97544173D02*
X131441247Y-97496554D01*
X131441247Y-97496554D02*
X131488866Y-97401316D01*
X131488866Y-97401316D02*
X131488866Y-97210840D01*
X131488866Y-97210840D02*
X131441247Y-97115602D01*
X131441247Y-97115602D02*
X131393628Y-97067983D01*
X131393628Y-97067983D02*
X131298390Y-97020364D01*
X130965057Y-96639411D02*
X130917438Y-96591792D01*
X130917438Y-96591792D02*
X130869819Y-96496554D01*
X130869819Y-96496554D02*
X130869819Y-96258459D01*
X130869819Y-96258459D02*
X130917438Y-96163221D01*
X130917438Y-96163221D02*
X130965057Y-96115602D01*
X130965057Y-96115602D02*
X131060295Y-96067983D01*
X131060295Y-96067983D02*
X131155533Y-96067983D01*
X131155533Y-96067983D02*
X131298390Y-96115602D01*
X131298390Y-96115602D02*
X131869819Y-96687030D01*
X131869819Y-96687030D02*
X131869819Y-96067983D01*
X130869819Y-95448935D02*
X130869819Y-95353697D01*
X130869819Y-95353697D02*
X130917438Y-95258459D01*
X130917438Y-95258459D02*
X130965057Y-95210840D01*
X130965057Y-95210840D02*
X131060295Y-95163221D01*
X131060295Y-95163221D02*
X131250771Y-95115602D01*
X131250771Y-95115602D02*
X131488866Y-95115602D01*
X131488866Y-95115602D02*
X131679342Y-95163221D01*
X131679342Y-95163221D02*
X131774580Y-95210840D01*
X131774580Y-95210840D02*
X131822200Y-95258459D01*
X131822200Y-95258459D02*
X131869819Y-95353697D01*
X131869819Y-95353697D02*
X131869819Y-95448935D01*
X131869819Y-95448935D02*
X131822200Y-95544173D01*
X131822200Y-95544173D02*
X131774580Y-95591792D01*
X131774580Y-95591792D02*
X131679342Y-95639411D01*
X131679342Y-95639411D02*
X131488866Y-95687030D01*
X131488866Y-95687030D02*
X131250771Y-95687030D01*
X131250771Y-95687030D02*
X131060295Y-95639411D01*
X131060295Y-95639411D02*
X130965057Y-95591792D01*
X130965057Y-95591792D02*
X130917438Y-95544173D01*
X130917438Y-95544173D02*
X130869819Y-95448935D01*
X131488866Y-94687030D02*
X131488866Y-93925126D01*
X130869819Y-93591792D02*
X130869819Y-93020364D01*
X131869819Y-93306078D02*
X130869819Y-93306078D01*
X130869819Y-92782268D02*
X131869819Y-92115602D01*
X130869819Y-92115602D02*
X131869819Y-92782268D01*
X128649931Y-108136779D02*
X127649931Y-108136779D01*
X128649931Y-108612969D02*
X127649931Y-108612969D01*
X127649931Y-108612969D02*
X128364216Y-108946302D01*
X128364216Y-108946302D02*
X127649931Y-109279635D01*
X127649931Y-109279635D02*
X128649931Y-109279635D01*
X128649931Y-109803445D02*
X128649931Y-109993921D01*
X128649931Y-109993921D02*
X128602312Y-110089159D01*
X128602312Y-110089159D02*
X128554692Y-110136778D01*
X128554692Y-110136778D02*
X128411835Y-110232016D01*
X128411835Y-110232016D02*
X128221359Y-110279635D01*
X128221359Y-110279635D02*
X127840407Y-110279635D01*
X127840407Y-110279635D02*
X127745169Y-110232016D01*
X127745169Y-110232016D02*
X127697550Y-110184397D01*
X127697550Y-110184397D02*
X127649931Y-110089159D01*
X127649931Y-110089159D02*
X127649931Y-109898683D01*
X127649931Y-109898683D02*
X127697550Y-109803445D01*
X127697550Y-109803445D02*
X127745169Y-109755826D01*
X127745169Y-109755826D02*
X127840407Y-109708207D01*
X127840407Y-109708207D02*
X128078502Y-109708207D01*
X128078502Y-109708207D02*
X128173740Y-109755826D01*
X128173740Y-109755826D02*
X128221359Y-109803445D01*
X128221359Y-109803445D02*
X128268978Y-109898683D01*
X128268978Y-109898683D02*
X128268978Y-110089159D01*
X128268978Y-110089159D02*
X128221359Y-110184397D01*
X128221359Y-110184397D02*
X128173740Y-110232016D01*
X128173740Y-110232016D02*
X128078502Y-110279635D01*
X127745169Y-110660588D02*
X127697550Y-110708207D01*
X127697550Y-110708207D02*
X127649931Y-110803445D01*
X127649931Y-110803445D02*
X127649931Y-111041540D01*
X127649931Y-111041540D02*
X127697550Y-111136778D01*
X127697550Y-111136778D02*
X127745169Y-111184397D01*
X127745169Y-111184397D02*
X127840407Y-111232016D01*
X127840407Y-111232016D02*
X127935645Y-111232016D01*
X127935645Y-111232016D02*
X128078502Y-111184397D01*
X128078502Y-111184397D02*
X128649931Y-110612969D01*
X128649931Y-110612969D02*
X128649931Y-111232016D01*
X127649931Y-111851064D02*
X127649931Y-111946302D01*
X127649931Y-111946302D02*
X127697550Y-112041540D01*
X127697550Y-112041540D02*
X127745169Y-112089159D01*
X127745169Y-112089159D02*
X127840407Y-112136778D01*
X127840407Y-112136778D02*
X128030883Y-112184397D01*
X128030883Y-112184397D02*
X128268978Y-112184397D01*
X128268978Y-112184397D02*
X128459454Y-112136778D01*
X128459454Y-112136778D02*
X128554692Y-112089159D01*
X128554692Y-112089159D02*
X128602312Y-112041540D01*
X128602312Y-112041540D02*
X128649931Y-111946302D01*
X128649931Y-111946302D02*
X128649931Y-111851064D01*
X128649931Y-111851064D02*
X128602312Y-111755826D01*
X128602312Y-111755826D02*
X128554692Y-111708207D01*
X128554692Y-111708207D02*
X128459454Y-111660588D01*
X128459454Y-111660588D02*
X128268978Y-111612969D01*
X128268978Y-111612969D02*
X128030883Y-111612969D01*
X128030883Y-111612969D02*
X127840407Y-111660588D01*
X127840407Y-111660588D02*
X127745169Y-111708207D01*
X127745169Y-111708207D02*
X127697550Y-111755826D01*
X127697550Y-111755826D02*
X127649931Y-111851064D01*
X128268978Y-112612969D02*
X128268978Y-113374874D01*
X128649931Y-114422492D02*
X128173740Y-114089159D01*
X128649931Y-113851064D02*
X127649931Y-113851064D01*
X127649931Y-113851064D02*
X127649931Y-114232016D01*
X127649931Y-114232016D02*
X127697550Y-114327254D01*
X127697550Y-114327254D02*
X127745169Y-114374873D01*
X127745169Y-114374873D02*
X127840407Y-114422492D01*
X127840407Y-114422492D02*
X127983264Y-114422492D01*
X127983264Y-114422492D02*
X128078502Y-114374873D01*
X128078502Y-114374873D02*
X128126121Y-114327254D01*
X128126121Y-114327254D02*
X128173740Y-114232016D01*
X128173740Y-114232016D02*
X128173740Y-113851064D01*
X127649931Y-114755826D02*
X128649931Y-115422492D01*
X127649931Y-115422492D02*
X128649931Y-114755826D01*
X129259875Y-108041541D02*
X130259875Y-108708207D01*
X129259875Y-108708207D02*
X130259875Y-108041541D01*
X130259875Y-109089160D02*
X129259875Y-109089160D01*
X129974160Y-109517731D02*
X129974160Y-109993921D01*
X130259875Y-109422493D02*
X129259875Y-109755826D01*
X129259875Y-109755826D02*
X130259875Y-110089159D01*
X129259875Y-110612969D02*
X129259875Y-110803445D01*
X129259875Y-110803445D02*
X129307494Y-110898683D01*
X129307494Y-110898683D02*
X129402732Y-110993921D01*
X129402732Y-110993921D02*
X129593208Y-111041540D01*
X129593208Y-111041540D02*
X129926541Y-111041540D01*
X129926541Y-111041540D02*
X130117017Y-110993921D01*
X130117017Y-110993921D02*
X130212256Y-110898683D01*
X130212256Y-110898683D02*
X130259875Y-110803445D01*
X130259875Y-110803445D02*
X130259875Y-110612969D01*
X130259875Y-110612969D02*
X130212256Y-110517731D01*
X130212256Y-110517731D02*
X130117017Y-110422493D01*
X130117017Y-110422493D02*
X129926541Y-110374874D01*
X129926541Y-110374874D02*
X129593208Y-110374874D01*
X129593208Y-110374874D02*
X129402732Y-110422493D01*
X129402732Y-110422493D02*
X129307494Y-110517731D01*
X129307494Y-110517731D02*
X129259875Y-110612969D01*
X129878922Y-111470112D02*
X129878922Y-112232017D01*
X129259875Y-112565350D02*
X129259875Y-113136778D01*
X130259875Y-112851064D02*
X129259875Y-112851064D01*
X129259875Y-113374874D02*
X130259875Y-114041540D01*
X129259875Y-114041540D02*
X130259875Y-113374874D01*
X131869819Y-108136779D02*
X130869819Y-108136779D01*
X131869819Y-108612969D02*
X130869819Y-108612969D01*
X130869819Y-108612969D02*
X131584104Y-108946302D01*
X131584104Y-108946302D02*
X130869819Y-109279635D01*
X130869819Y-109279635D02*
X131869819Y-109279635D01*
X131869819Y-109803445D02*
X131869819Y-109993921D01*
X131869819Y-109993921D02*
X131822200Y-110089159D01*
X131822200Y-110089159D02*
X131774580Y-110136778D01*
X131774580Y-110136778D02*
X131631723Y-110232016D01*
X131631723Y-110232016D02*
X131441247Y-110279635D01*
X131441247Y-110279635D02*
X131060295Y-110279635D01*
X131060295Y-110279635D02*
X130965057Y-110232016D01*
X130965057Y-110232016D02*
X130917438Y-110184397D01*
X130917438Y-110184397D02*
X130869819Y-110089159D01*
X130869819Y-110089159D02*
X130869819Y-109898683D01*
X130869819Y-109898683D02*
X130917438Y-109803445D01*
X130917438Y-109803445D02*
X130965057Y-109755826D01*
X130965057Y-109755826D02*
X131060295Y-109708207D01*
X131060295Y-109708207D02*
X131298390Y-109708207D01*
X131298390Y-109708207D02*
X131393628Y-109755826D01*
X131393628Y-109755826D02*
X131441247Y-109803445D01*
X131441247Y-109803445D02*
X131488866Y-109898683D01*
X131488866Y-109898683D02*
X131488866Y-110089159D01*
X131488866Y-110089159D02*
X131441247Y-110184397D01*
X131441247Y-110184397D02*
X131393628Y-110232016D01*
X131393628Y-110232016D02*
X131298390Y-110279635D01*
X130965057Y-110660588D02*
X130917438Y-110708207D01*
X130917438Y-110708207D02*
X130869819Y-110803445D01*
X130869819Y-110803445D02*
X130869819Y-111041540D01*
X130869819Y-111041540D02*
X130917438Y-111136778D01*
X130917438Y-111136778D02*
X130965057Y-111184397D01*
X130965057Y-111184397D02*
X131060295Y-111232016D01*
X131060295Y-111232016D02*
X131155533Y-111232016D01*
X131155533Y-111232016D02*
X131298390Y-111184397D01*
X131298390Y-111184397D02*
X131869819Y-110612969D01*
X131869819Y-110612969D02*
X131869819Y-111232016D01*
X130869819Y-111851064D02*
X130869819Y-111946302D01*
X130869819Y-111946302D02*
X130917438Y-112041540D01*
X130917438Y-112041540D02*
X130965057Y-112089159D01*
X130965057Y-112089159D02*
X131060295Y-112136778D01*
X131060295Y-112136778D02*
X131250771Y-112184397D01*
X131250771Y-112184397D02*
X131488866Y-112184397D01*
X131488866Y-112184397D02*
X131679342Y-112136778D01*
X131679342Y-112136778D02*
X131774580Y-112089159D01*
X131774580Y-112089159D02*
X131822200Y-112041540D01*
X131822200Y-112041540D02*
X131869819Y-111946302D01*
X131869819Y-111946302D02*
X131869819Y-111851064D01*
X131869819Y-111851064D02*
X131822200Y-111755826D01*
X131822200Y-111755826D02*
X131774580Y-111708207D01*
X131774580Y-111708207D02*
X131679342Y-111660588D01*
X131679342Y-111660588D02*
X131488866Y-111612969D01*
X131488866Y-111612969D02*
X131250771Y-111612969D01*
X131250771Y-111612969D02*
X131060295Y-111660588D01*
X131060295Y-111660588D02*
X130965057Y-111708207D01*
X130965057Y-111708207D02*
X130917438Y-111755826D01*
X130917438Y-111755826D02*
X130869819Y-111851064D01*
X131488866Y-112612969D02*
X131488866Y-113374874D01*
X130869819Y-113708207D02*
X130869819Y-114279635D01*
X131869819Y-113993921D02*
X130869819Y-113993921D01*
X130869819Y-114517731D02*
X131869819Y-115184397D01*
X130869819Y-115184397D02*
X131869819Y-114517731D01*
D11*
%TO.C,JP1*%
X113500000Y-99600000D02*
X115500000Y-99600000D01*
X113500000Y-102400000D02*
X113500000Y-99600000D01*
X115500000Y-99600000D02*
X115500000Y-102400000D01*
X115500000Y-102400000D02*
X113500000Y-102400000D01*
%TO.C,JP2*%
X127700000Y-103750000D02*
X131800000Y-103750000D01*
X127700000Y-105750000D02*
X127700000Y-103750000D01*
X130750000Y-106250000D02*
X131050000Y-105950000D01*
X130750000Y-106250000D02*
X131350000Y-106250000D01*
X131350000Y-106250000D02*
X131050000Y-105950000D01*
X131800000Y-103750000D02*
X131800000Y-105750000D01*
X131800000Y-105750000D02*
X127700000Y-105750000D01*
%TO.C,JP*%
X127700000Y-100250000D02*
X131800000Y-100250000D01*
X127700000Y-102250000D02*
X127700000Y-100250000D01*
X130750000Y-102750000D02*
X131050000Y-102450000D01*
X130750000Y-102750000D02*
X131350000Y-102750000D01*
X131350000Y-102750000D02*
X131050000Y-102450000D01*
X131800000Y-100250000D02*
X131800000Y-102250000D01*
X131800000Y-102250000D02*
X127700000Y-102250000D01*
%TD*%
M02*
