%TF.GenerationSoftware,KiCad,Pcbnew,7.0.10*%
%TF.CreationDate,2024-01-13T17:41:30+09:00*%
%TF.ProjectId,md2,6d64322e-6b69-4636-9164-5f7063625858,rev?*%
%TF.SameCoordinates,Original*%
%TF.FileFunction,Drillmap*%
%TF.FilePolarity,Positive*%
%FSLAX45Y45*%
G04 Gerber Fmt 4.5, Leading zero omitted, Abs format (unit mm)*
G04 Created by KiCad (PCBNEW 7.0.10) date 2024-01-13 17:41:30*
%MOMM*%
%LPD*%
G01*
G04 APERTURE LIST*
%ADD10C,0.100000*%
%ADD11C,0.200000*%
%ADD12C,0.350000*%
G04 APERTURE END LIST*
D10*
X11550000Y-11800000D02*
G75*
G03*
X12050000Y-11300000I0J500000D01*
G01*
X2050000Y-11300000D02*
G75*
G03*
X2550000Y-11800000I500000J0D01*
G01*
X12050000Y-2300000D02*
G75*
G03*
X11550000Y-1800000I-500000J0D01*
G01*
X2550000Y-1800000D02*
G75*
G03*
X2050000Y-2300000I0J-500000D01*
G01*
X10050000Y-1800000D02*
G75*
G03*
X10000000Y-1850000I0J-50000D01*
G01*
X9950000Y-2800000D02*
G75*
G03*
X10000000Y-2750000I0J50000D01*
G01*
X4050000Y-2700000D02*
G75*
G03*
X4150000Y-2800000I100000J0D01*
G01*
X4050000Y-1900000D02*
G75*
G03*
X3950000Y-1800000I-100000J0D01*
G01*
X2050000Y-11300000D02*
X2050000Y-2300000D01*
X2550000Y-11800000D02*
X11550000Y-11800000D01*
X12050000Y-2300000D02*
X12050000Y-11300000D01*
X10050000Y-1800000D02*
X11550000Y-1800000D01*
X10000000Y-2750000D02*
X10000000Y-1850000D01*
X4150000Y-2800000D02*
X9950000Y-2800000D01*
X4050000Y-1900000D02*
X4050000Y-2700000D01*
X2550000Y-1800000D02*
X3950000Y-1800000D01*
X2750000Y-11300000D02*
G75*
G03*
X2350000Y-11300000I-200000J0D01*
G01*
X2350000Y-11300000D02*
G75*
G03*
X2750000Y-11300000I200000J0D01*
G01*
X11750000Y-11300000D02*
G75*
G03*
X11350000Y-11300000I-200000J0D01*
G01*
X11350000Y-11300000D02*
G75*
G03*
X11750000Y-11300000I200000J0D01*
G01*
X11750000Y-2300000D02*
G75*
G03*
X11350000Y-2300000I-200000J0D01*
G01*
X11350000Y-2300000D02*
G75*
G03*
X11750000Y-2300000I200000J0D01*
G01*
X2750000Y-2300000D02*
G75*
G03*
X2350000Y-2300000I-200000J0D01*
G01*
X2350000Y-2300000D02*
G75*
G03*
X2750000Y-2300000I200000J0D01*
G01*
D11*
D12*
X10429500Y-7929500D02*
X10779500Y-8279500D01*
X10779500Y-7929500D02*
X10429500Y-8279500D01*
D11*
X2305777Y-12116484D02*
X2305777Y-11916484D01*
X2305777Y-11916484D02*
X2353396Y-11916484D01*
X2353396Y-11916484D02*
X2381967Y-11926008D01*
X2381967Y-11926008D02*
X2401015Y-11945055D01*
X2401015Y-11945055D02*
X2410539Y-11964103D01*
X2410539Y-11964103D02*
X2420063Y-12002198D01*
X2420063Y-12002198D02*
X2420063Y-12030769D01*
X2420063Y-12030769D02*
X2410539Y-12068865D01*
X2410539Y-12068865D02*
X2401015Y-12087912D01*
X2401015Y-12087912D02*
X2381967Y-12106960D01*
X2381967Y-12106960D02*
X2353396Y-12116484D01*
X2353396Y-12116484D02*
X2305777Y-12116484D01*
X2505777Y-12116484D02*
X2505777Y-11983150D01*
X2505777Y-12021246D02*
X2515301Y-12002198D01*
X2515301Y-12002198D02*
X2524824Y-11992674D01*
X2524824Y-11992674D02*
X2543872Y-11983150D01*
X2543872Y-11983150D02*
X2562920Y-11983150D01*
X2629586Y-12116484D02*
X2629586Y-11983150D01*
X2629586Y-11916484D02*
X2620063Y-11926008D01*
X2620063Y-11926008D02*
X2629586Y-11935531D01*
X2629586Y-11935531D02*
X2639110Y-11926008D01*
X2639110Y-11926008D02*
X2629586Y-11916484D01*
X2629586Y-11916484D02*
X2629586Y-11935531D01*
X2753396Y-12116484D02*
X2734348Y-12106960D01*
X2734348Y-12106960D02*
X2724824Y-12087912D01*
X2724824Y-12087912D02*
X2724824Y-11916484D01*
X2858158Y-12116484D02*
X2839110Y-12106960D01*
X2839110Y-12106960D02*
X2829586Y-12087912D01*
X2829586Y-12087912D02*
X2829586Y-11916484D01*
X3086729Y-12116484D02*
X3086729Y-11916484D01*
X3086729Y-11916484D02*
X3153396Y-12059341D01*
X3153396Y-12059341D02*
X3220062Y-11916484D01*
X3220062Y-11916484D02*
X3220062Y-12116484D01*
X3401015Y-12116484D02*
X3401015Y-12011722D01*
X3401015Y-12011722D02*
X3391491Y-11992674D01*
X3391491Y-11992674D02*
X3372443Y-11983150D01*
X3372443Y-11983150D02*
X3334348Y-11983150D01*
X3334348Y-11983150D02*
X3315301Y-11992674D01*
X3401015Y-12106960D02*
X3381967Y-12116484D01*
X3381967Y-12116484D02*
X3334348Y-12116484D01*
X3334348Y-12116484D02*
X3315301Y-12106960D01*
X3315301Y-12106960D02*
X3305777Y-12087912D01*
X3305777Y-12087912D02*
X3305777Y-12068865D01*
X3305777Y-12068865D02*
X3315301Y-12049817D01*
X3315301Y-12049817D02*
X3334348Y-12040293D01*
X3334348Y-12040293D02*
X3381967Y-12040293D01*
X3381967Y-12040293D02*
X3401015Y-12030769D01*
X3496253Y-11983150D02*
X3496253Y-12183150D01*
X3496253Y-11992674D02*
X3515301Y-11983150D01*
X3515301Y-11983150D02*
X3553396Y-11983150D01*
X3553396Y-11983150D02*
X3572443Y-11992674D01*
X3572443Y-11992674D02*
X3581967Y-12002198D01*
X3581967Y-12002198D02*
X3591491Y-12021246D01*
X3591491Y-12021246D02*
X3591491Y-12078388D01*
X3591491Y-12078388D02*
X3581967Y-12097436D01*
X3581967Y-12097436D02*
X3572443Y-12106960D01*
X3572443Y-12106960D02*
X3553396Y-12116484D01*
X3553396Y-12116484D02*
X3515301Y-12116484D01*
X3515301Y-12116484D02*
X3496253Y-12106960D01*
X3677205Y-12097436D02*
X3686729Y-12106960D01*
X3686729Y-12106960D02*
X3677205Y-12116484D01*
X3677205Y-12116484D02*
X3667682Y-12106960D01*
X3667682Y-12106960D02*
X3677205Y-12097436D01*
X3677205Y-12097436D02*
X3677205Y-12116484D01*
X3677205Y-11992674D02*
X3686729Y-12002198D01*
X3686729Y-12002198D02*
X3677205Y-12011722D01*
X3677205Y-12011722D02*
X3667682Y-12002198D01*
X3667682Y-12002198D02*
X3677205Y-11992674D01*
X3677205Y-11992674D02*
X3677205Y-12011722D01*
X1845000Y-12345000D02*
X2045000Y-12545000D01*
X2045000Y-12345000D02*
X1845000Y-12545000D01*
X2286729Y-12336484D02*
X2410539Y-12336484D01*
X2410539Y-12336484D02*
X2343872Y-12412674D01*
X2343872Y-12412674D02*
X2372444Y-12412674D01*
X2372444Y-12412674D02*
X2391491Y-12422198D01*
X2391491Y-12422198D02*
X2401015Y-12431722D01*
X2401015Y-12431722D02*
X2410539Y-12450769D01*
X2410539Y-12450769D02*
X2410539Y-12498388D01*
X2410539Y-12498388D02*
X2401015Y-12517436D01*
X2401015Y-12517436D02*
X2391491Y-12526960D01*
X2391491Y-12526960D02*
X2372444Y-12536484D01*
X2372444Y-12536484D02*
X2315301Y-12536484D01*
X2315301Y-12536484D02*
X2296253Y-12526960D01*
X2296253Y-12526960D02*
X2286729Y-12517436D01*
X2496253Y-12517436D02*
X2505777Y-12526960D01*
X2505777Y-12526960D02*
X2496253Y-12536484D01*
X2496253Y-12536484D02*
X2486729Y-12526960D01*
X2486729Y-12526960D02*
X2496253Y-12517436D01*
X2496253Y-12517436D02*
X2496253Y-12536484D01*
X2686729Y-12336484D02*
X2591491Y-12336484D01*
X2591491Y-12336484D02*
X2581967Y-12431722D01*
X2581967Y-12431722D02*
X2591491Y-12422198D01*
X2591491Y-12422198D02*
X2610539Y-12412674D01*
X2610539Y-12412674D02*
X2658158Y-12412674D01*
X2658158Y-12412674D02*
X2677205Y-12422198D01*
X2677205Y-12422198D02*
X2686729Y-12431722D01*
X2686729Y-12431722D02*
X2696253Y-12450769D01*
X2696253Y-12450769D02*
X2696253Y-12498388D01*
X2696253Y-12498388D02*
X2686729Y-12517436D01*
X2686729Y-12517436D02*
X2677205Y-12526960D01*
X2677205Y-12526960D02*
X2658158Y-12536484D01*
X2658158Y-12536484D02*
X2610539Y-12536484D01*
X2610539Y-12536484D02*
X2591491Y-12526960D01*
X2591491Y-12526960D02*
X2581967Y-12517436D01*
X2820062Y-12336484D02*
X2839110Y-12336484D01*
X2839110Y-12336484D02*
X2858158Y-12346008D01*
X2858158Y-12346008D02*
X2867682Y-12355531D01*
X2867682Y-12355531D02*
X2877205Y-12374579D01*
X2877205Y-12374579D02*
X2886729Y-12412674D01*
X2886729Y-12412674D02*
X2886729Y-12460293D01*
X2886729Y-12460293D02*
X2877205Y-12498388D01*
X2877205Y-12498388D02*
X2867682Y-12517436D01*
X2867682Y-12517436D02*
X2858158Y-12526960D01*
X2858158Y-12526960D02*
X2839110Y-12536484D01*
X2839110Y-12536484D02*
X2820062Y-12536484D01*
X2820062Y-12536484D02*
X2801015Y-12526960D01*
X2801015Y-12526960D02*
X2791491Y-12517436D01*
X2791491Y-12517436D02*
X2781967Y-12498388D01*
X2781967Y-12498388D02*
X2772444Y-12460293D01*
X2772444Y-12460293D02*
X2772444Y-12412674D01*
X2772444Y-12412674D02*
X2781967Y-12374579D01*
X2781967Y-12374579D02*
X2791491Y-12355531D01*
X2791491Y-12355531D02*
X2801015Y-12346008D01*
X2801015Y-12346008D02*
X2820062Y-12336484D01*
X3010539Y-12336484D02*
X3029586Y-12336484D01*
X3029586Y-12336484D02*
X3048634Y-12346008D01*
X3048634Y-12346008D02*
X3058158Y-12355531D01*
X3058158Y-12355531D02*
X3067682Y-12374579D01*
X3067682Y-12374579D02*
X3077205Y-12412674D01*
X3077205Y-12412674D02*
X3077205Y-12460293D01*
X3077205Y-12460293D02*
X3067682Y-12498388D01*
X3067682Y-12498388D02*
X3058158Y-12517436D01*
X3058158Y-12517436D02*
X3048634Y-12526960D01*
X3048634Y-12526960D02*
X3029586Y-12536484D01*
X3029586Y-12536484D02*
X3010539Y-12536484D01*
X3010539Y-12536484D02*
X2991491Y-12526960D01*
X2991491Y-12526960D02*
X2981967Y-12517436D01*
X2981967Y-12517436D02*
X2972443Y-12498388D01*
X2972443Y-12498388D02*
X2962920Y-12460293D01*
X2962920Y-12460293D02*
X2962920Y-12412674D01*
X2962920Y-12412674D02*
X2972443Y-12374579D01*
X2972443Y-12374579D02*
X2981967Y-12355531D01*
X2981967Y-12355531D02*
X2991491Y-12346008D01*
X2991491Y-12346008D02*
X3010539Y-12336484D01*
X3162920Y-12536484D02*
X3162920Y-12403150D01*
X3162920Y-12422198D02*
X3172443Y-12412674D01*
X3172443Y-12412674D02*
X3191491Y-12403150D01*
X3191491Y-12403150D02*
X3220063Y-12403150D01*
X3220063Y-12403150D02*
X3239110Y-12412674D01*
X3239110Y-12412674D02*
X3248634Y-12431722D01*
X3248634Y-12431722D02*
X3248634Y-12536484D01*
X3248634Y-12431722D02*
X3258158Y-12412674D01*
X3258158Y-12412674D02*
X3277205Y-12403150D01*
X3277205Y-12403150D02*
X3305777Y-12403150D01*
X3305777Y-12403150D02*
X3324824Y-12412674D01*
X3324824Y-12412674D02*
X3334348Y-12431722D01*
X3334348Y-12431722D02*
X3334348Y-12536484D01*
X3429586Y-12536484D02*
X3429586Y-12403150D01*
X3429586Y-12422198D02*
X3439110Y-12412674D01*
X3439110Y-12412674D02*
X3458158Y-12403150D01*
X3458158Y-12403150D02*
X3486729Y-12403150D01*
X3486729Y-12403150D02*
X3505777Y-12412674D01*
X3505777Y-12412674D02*
X3515301Y-12431722D01*
X3515301Y-12431722D02*
X3515301Y-12536484D01*
X3515301Y-12431722D02*
X3524824Y-12412674D01*
X3524824Y-12412674D02*
X3543872Y-12403150D01*
X3543872Y-12403150D02*
X3572443Y-12403150D01*
X3572443Y-12403150D02*
X3591491Y-12412674D01*
X3591491Y-12412674D02*
X3601015Y-12431722D01*
X3601015Y-12431722D02*
X3601015Y-12536484D01*
X3991491Y-12326960D02*
X3820063Y-12584103D01*
X4248634Y-12336484D02*
X4267682Y-12336484D01*
X4267682Y-12336484D02*
X4286729Y-12346008D01*
X4286729Y-12346008D02*
X4296253Y-12355531D01*
X4296253Y-12355531D02*
X4305777Y-12374579D01*
X4305777Y-12374579D02*
X4315301Y-12412674D01*
X4315301Y-12412674D02*
X4315301Y-12460293D01*
X4315301Y-12460293D02*
X4305777Y-12498388D01*
X4305777Y-12498388D02*
X4296253Y-12517436D01*
X4296253Y-12517436D02*
X4286729Y-12526960D01*
X4286729Y-12526960D02*
X4267682Y-12536484D01*
X4267682Y-12536484D02*
X4248634Y-12536484D01*
X4248634Y-12536484D02*
X4229587Y-12526960D01*
X4229587Y-12526960D02*
X4220063Y-12517436D01*
X4220063Y-12517436D02*
X4210539Y-12498388D01*
X4210539Y-12498388D02*
X4201015Y-12460293D01*
X4201015Y-12460293D02*
X4201015Y-12412674D01*
X4201015Y-12412674D02*
X4210539Y-12374579D01*
X4210539Y-12374579D02*
X4220063Y-12355531D01*
X4220063Y-12355531D02*
X4229587Y-12346008D01*
X4229587Y-12346008D02*
X4248634Y-12336484D01*
X4401015Y-12517436D02*
X4410539Y-12526960D01*
X4410539Y-12526960D02*
X4401015Y-12536484D01*
X4401015Y-12536484D02*
X4391491Y-12526960D01*
X4391491Y-12526960D02*
X4401015Y-12517436D01*
X4401015Y-12517436D02*
X4401015Y-12536484D01*
X4601015Y-12536484D02*
X4486729Y-12536484D01*
X4543872Y-12536484D02*
X4543872Y-12336484D01*
X4543872Y-12336484D02*
X4524825Y-12365055D01*
X4524825Y-12365055D02*
X4505777Y-12384103D01*
X4505777Y-12384103D02*
X4486729Y-12393627D01*
X4667682Y-12336484D02*
X4791491Y-12336484D01*
X4791491Y-12336484D02*
X4724825Y-12412674D01*
X4724825Y-12412674D02*
X4753396Y-12412674D01*
X4753396Y-12412674D02*
X4772444Y-12422198D01*
X4772444Y-12422198D02*
X4781968Y-12431722D01*
X4781968Y-12431722D02*
X4791491Y-12450769D01*
X4791491Y-12450769D02*
X4791491Y-12498388D01*
X4791491Y-12498388D02*
X4781968Y-12517436D01*
X4781968Y-12517436D02*
X4772444Y-12526960D01*
X4772444Y-12526960D02*
X4753396Y-12536484D01*
X4753396Y-12536484D02*
X4696253Y-12536484D01*
X4696253Y-12536484D02*
X4677206Y-12526960D01*
X4677206Y-12526960D02*
X4667682Y-12517436D01*
X4858158Y-12336484D02*
X4991491Y-12336484D01*
X4991491Y-12336484D02*
X4905777Y-12536484D01*
X5096253Y-12422198D02*
X5077206Y-12412674D01*
X5077206Y-12412674D02*
X5067682Y-12403150D01*
X5067682Y-12403150D02*
X5058158Y-12384103D01*
X5058158Y-12384103D02*
X5058158Y-12374579D01*
X5058158Y-12374579D02*
X5067682Y-12355531D01*
X5067682Y-12355531D02*
X5077206Y-12346008D01*
X5077206Y-12346008D02*
X5096253Y-12336484D01*
X5096253Y-12336484D02*
X5134349Y-12336484D01*
X5134349Y-12336484D02*
X5153396Y-12346008D01*
X5153396Y-12346008D02*
X5162920Y-12355531D01*
X5162920Y-12355531D02*
X5172444Y-12374579D01*
X5172444Y-12374579D02*
X5172444Y-12384103D01*
X5172444Y-12384103D02*
X5162920Y-12403150D01*
X5162920Y-12403150D02*
X5153396Y-12412674D01*
X5153396Y-12412674D02*
X5134349Y-12422198D01*
X5134349Y-12422198D02*
X5096253Y-12422198D01*
X5096253Y-12422198D02*
X5077206Y-12431722D01*
X5077206Y-12431722D02*
X5067682Y-12441246D01*
X5067682Y-12441246D02*
X5058158Y-12460293D01*
X5058158Y-12460293D02*
X5058158Y-12498388D01*
X5058158Y-12498388D02*
X5067682Y-12517436D01*
X5067682Y-12517436D02*
X5077206Y-12526960D01*
X5077206Y-12526960D02*
X5096253Y-12536484D01*
X5096253Y-12536484D02*
X5134349Y-12536484D01*
X5134349Y-12536484D02*
X5153396Y-12526960D01*
X5153396Y-12526960D02*
X5162920Y-12517436D01*
X5162920Y-12517436D02*
X5172444Y-12498388D01*
X5172444Y-12498388D02*
X5172444Y-12460293D01*
X5172444Y-12460293D02*
X5162920Y-12441246D01*
X5162920Y-12441246D02*
X5153396Y-12431722D01*
X5153396Y-12431722D02*
X5134349Y-12422198D01*
X5248634Y-12336484D02*
X5248634Y-12374579D01*
X5324825Y-12336484D02*
X5324825Y-12374579D01*
X5620063Y-12612674D02*
X5610539Y-12603150D01*
X5610539Y-12603150D02*
X5591491Y-12574579D01*
X5591491Y-12574579D02*
X5581968Y-12555531D01*
X5581968Y-12555531D02*
X5572444Y-12526960D01*
X5572444Y-12526960D02*
X5562920Y-12479341D01*
X5562920Y-12479341D02*
X5562920Y-12441246D01*
X5562920Y-12441246D02*
X5572444Y-12393627D01*
X5572444Y-12393627D02*
X5581968Y-12365055D01*
X5581968Y-12365055D02*
X5591491Y-12346008D01*
X5591491Y-12346008D02*
X5610539Y-12317436D01*
X5610539Y-12317436D02*
X5620063Y-12307912D01*
X5801015Y-12536484D02*
X5686729Y-12536484D01*
X5743872Y-12536484D02*
X5743872Y-12336484D01*
X5743872Y-12336484D02*
X5724825Y-12365055D01*
X5724825Y-12365055D02*
X5705777Y-12384103D01*
X5705777Y-12384103D02*
X5686729Y-12393627D01*
X6039110Y-12536484D02*
X6039110Y-12336484D01*
X6124825Y-12536484D02*
X6124825Y-12431722D01*
X6124825Y-12431722D02*
X6115301Y-12412674D01*
X6115301Y-12412674D02*
X6096253Y-12403150D01*
X6096253Y-12403150D02*
X6067682Y-12403150D01*
X6067682Y-12403150D02*
X6048634Y-12412674D01*
X6048634Y-12412674D02*
X6039110Y-12422198D01*
X6248634Y-12536484D02*
X6229587Y-12526960D01*
X6229587Y-12526960D02*
X6220063Y-12517436D01*
X6220063Y-12517436D02*
X6210539Y-12498388D01*
X6210539Y-12498388D02*
X6210539Y-12441246D01*
X6210539Y-12441246D02*
X6220063Y-12422198D01*
X6220063Y-12422198D02*
X6229587Y-12412674D01*
X6229587Y-12412674D02*
X6248634Y-12403150D01*
X6248634Y-12403150D02*
X6277206Y-12403150D01*
X6277206Y-12403150D02*
X6296253Y-12412674D01*
X6296253Y-12412674D02*
X6305777Y-12422198D01*
X6305777Y-12422198D02*
X6315301Y-12441246D01*
X6315301Y-12441246D02*
X6315301Y-12498388D01*
X6315301Y-12498388D02*
X6305777Y-12517436D01*
X6305777Y-12517436D02*
X6296253Y-12526960D01*
X6296253Y-12526960D02*
X6277206Y-12536484D01*
X6277206Y-12536484D02*
X6248634Y-12536484D01*
X6429587Y-12536484D02*
X6410539Y-12526960D01*
X6410539Y-12526960D02*
X6401015Y-12507912D01*
X6401015Y-12507912D02*
X6401015Y-12336484D01*
X6581968Y-12526960D02*
X6562920Y-12536484D01*
X6562920Y-12536484D02*
X6524825Y-12536484D01*
X6524825Y-12536484D02*
X6505777Y-12526960D01*
X6505777Y-12526960D02*
X6496253Y-12507912D01*
X6496253Y-12507912D02*
X6496253Y-12431722D01*
X6496253Y-12431722D02*
X6505777Y-12412674D01*
X6505777Y-12412674D02*
X6524825Y-12403150D01*
X6524825Y-12403150D02*
X6562920Y-12403150D01*
X6562920Y-12403150D02*
X6581968Y-12412674D01*
X6581968Y-12412674D02*
X6591491Y-12431722D01*
X6591491Y-12431722D02*
X6591491Y-12450769D01*
X6591491Y-12450769D02*
X6496253Y-12469817D01*
X6658158Y-12612674D02*
X6667682Y-12603150D01*
X6667682Y-12603150D02*
X6686730Y-12574579D01*
X6686730Y-12574579D02*
X6696253Y-12555531D01*
X6696253Y-12555531D02*
X6705777Y-12526960D01*
X6705777Y-12526960D02*
X6715301Y-12479341D01*
X6715301Y-12479341D02*
X6715301Y-12441246D01*
X6715301Y-12441246D02*
X6705777Y-12393627D01*
X6705777Y-12393627D02*
X6696253Y-12365055D01*
X6696253Y-12365055D02*
X6686730Y-12346008D01*
X6686730Y-12346008D02*
X6667682Y-12317436D01*
X6667682Y-12317436D02*
X6658158Y-12307912D01*
X7020063Y-12612674D02*
X7010539Y-12603150D01*
X7010539Y-12603150D02*
X6991491Y-12574579D01*
X6991491Y-12574579D02*
X6981968Y-12555531D01*
X6981968Y-12555531D02*
X6972444Y-12526960D01*
X6972444Y-12526960D02*
X6962920Y-12479341D01*
X6962920Y-12479341D02*
X6962920Y-12441246D01*
X6962920Y-12441246D02*
X6972444Y-12393627D01*
X6972444Y-12393627D02*
X6981968Y-12365055D01*
X6981968Y-12365055D02*
X6991491Y-12346008D01*
X6991491Y-12346008D02*
X7010539Y-12317436D01*
X7010539Y-12317436D02*
X7020063Y-12307912D01*
X7096253Y-12403150D02*
X7096253Y-12536484D01*
X7096253Y-12422198D02*
X7105777Y-12412674D01*
X7105777Y-12412674D02*
X7124825Y-12403150D01*
X7124825Y-12403150D02*
X7153396Y-12403150D01*
X7153396Y-12403150D02*
X7172444Y-12412674D01*
X7172444Y-12412674D02*
X7181968Y-12431722D01*
X7181968Y-12431722D02*
X7181968Y-12536484D01*
X7305777Y-12536484D02*
X7286730Y-12526960D01*
X7286730Y-12526960D02*
X7277206Y-12517436D01*
X7277206Y-12517436D02*
X7267682Y-12498388D01*
X7267682Y-12498388D02*
X7267682Y-12441246D01*
X7267682Y-12441246D02*
X7277206Y-12422198D01*
X7277206Y-12422198D02*
X7286730Y-12412674D01*
X7286730Y-12412674D02*
X7305777Y-12403150D01*
X7305777Y-12403150D02*
X7334349Y-12403150D01*
X7334349Y-12403150D02*
X7353396Y-12412674D01*
X7353396Y-12412674D02*
X7362920Y-12422198D01*
X7362920Y-12422198D02*
X7372444Y-12441246D01*
X7372444Y-12441246D02*
X7372444Y-12498388D01*
X7372444Y-12498388D02*
X7362920Y-12517436D01*
X7362920Y-12517436D02*
X7353396Y-12526960D01*
X7353396Y-12526960D02*
X7334349Y-12536484D01*
X7334349Y-12536484D02*
X7305777Y-12536484D01*
X7429587Y-12403150D02*
X7505777Y-12403150D01*
X7458158Y-12336484D02*
X7458158Y-12507912D01*
X7458158Y-12507912D02*
X7467682Y-12526960D01*
X7467682Y-12526960D02*
X7486730Y-12536484D01*
X7486730Y-12536484D02*
X7505777Y-12536484D01*
X7724825Y-12403150D02*
X7724825Y-12603150D01*
X7724825Y-12412674D02*
X7743872Y-12403150D01*
X7743872Y-12403150D02*
X7781968Y-12403150D01*
X7781968Y-12403150D02*
X7801015Y-12412674D01*
X7801015Y-12412674D02*
X7810539Y-12422198D01*
X7810539Y-12422198D02*
X7820063Y-12441246D01*
X7820063Y-12441246D02*
X7820063Y-12498388D01*
X7820063Y-12498388D02*
X7810539Y-12517436D01*
X7810539Y-12517436D02*
X7801015Y-12526960D01*
X7801015Y-12526960D02*
X7781968Y-12536484D01*
X7781968Y-12536484D02*
X7743872Y-12536484D01*
X7743872Y-12536484D02*
X7724825Y-12526960D01*
X7934349Y-12536484D02*
X7915301Y-12526960D01*
X7915301Y-12526960D02*
X7905777Y-12507912D01*
X7905777Y-12507912D02*
X7905777Y-12336484D01*
X8096253Y-12536484D02*
X8096253Y-12431722D01*
X8096253Y-12431722D02*
X8086730Y-12412674D01*
X8086730Y-12412674D02*
X8067682Y-12403150D01*
X8067682Y-12403150D02*
X8029587Y-12403150D01*
X8029587Y-12403150D02*
X8010539Y-12412674D01*
X8096253Y-12526960D02*
X8077206Y-12536484D01*
X8077206Y-12536484D02*
X8029587Y-12536484D01*
X8029587Y-12536484D02*
X8010539Y-12526960D01*
X8010539Y-12526960D02*
X8001015Y-12507912D01*
X8001015Y-12507912D02*
X8001015Y-12488865D01*
X8001015Y-12488865D02*
X8010539Y-12469817D01*
X8010539Y-12469817D02*
X8029587Y-12460293D01*
X8029587Y-12460293D02*
X8077206Y-12460293D01*
X8077206Y-12460293D02*
X8096253Y-12450769D01*
X8162920Y-12403150D02*
X8239111Y-12403150D01*
X8191492Y-12336484D02*
X8191492Y-12507912D01*
X8191492Y-12507912D02*
X8201015Y-12526960D01*
X8201015Y-12526960D02*
X8220063Y-12536484D01*
X8220063Y-12536484D02*
X8239111Y-12536484D01*
X8381968Y-12526960D02*
X8362920Y-12536484D01*
X8362920Y-12536484D02*
X8324825Y-12536484D01*
X8324825Y-12536484D02*
X8305777Y-12526960D01*
X8305777Y-12526960D02*
X8296253Y-12507912D01*
X8296253Y-12507912D02*
X8296253Y-12431722D01*
X8296253Y-12431722D02*
X8305777Y-12412674D01*
X8305777Y-12412674D02*
X8324825Y-12403150D01*
X8324825Y-12403150D02*
X8362920Y-12403150D01*
X8362920Y-12403150D02*
X8381968Y-12412674D01*
X8381968Y-12412674D02*
X8391492Y-12431722D01*
X8391492Y-12431722D02*
X8391492Y-12450769D01*
X8391492Y-12450769D02*
X8296253Y-12469817D01*
X8562920Y-12536484D02*
X8562920Y-12336484D01*
X8562920Y-12526960D02*
X8543873Y-12536484D01*
X8543873Y-12536484D02*
X8505777Y-12536484D01*
X8505777Y-12536484D02*
X8486730Y-12526960D01*
X8486730Y-12526960D02*
X8477206Y-12517436D01*
X8477206Y-12517436D02*
X8467682Y-12498388D01*
X8467682Y-12498388D02*
X8467682Y-12441246D01*
X8467682Y-12441246D02*
X8477206Y-12422198D01*
X8477206Y-12422198D02*
X8486730Y-12412674D01*
X8486730Y-12412674D02*
X8505777Y-12403150D01*
X8505777Y-12403150D02*
X8543873Y-12403150D01*
X8543873Y-12403150D02*
X8562920Y-12412674D01*
X8639111Y-12612674D02*
X8648635Y-12603150D01*
X8648635Y-12603150D02*
X8667682Y-12574579D01*
X8667682Y-12574579D02*
X8677206Y-12555531D01*
X8677206Y-12555531D02*
X8686730Y-12526960D01*
X8686730Y-12526960D02*
X8696254Y-12479341D01*
X8696254Y-12479341D02*
X8696254Y-12441246D01*
X8696254Y-12441246D02*
X8686730Y-12393627D01*
X8686730Y-12393627D02*
X8677206Y-12365055D01*
X8677206Y-12365055D02*
X8667682Y-12346008D01*
X8667682Y-12346008D02*
X8648635Y-12317436D01*
X8648635Y-12317436D02*
X8639111Y-12307912D01*
M02*
