%TF.GenerationSoftware,KiCad,Pcbnew,7.0.10*%
%TF.CreationDate,2024-02-15T17:37:22+09:00*%
%TF.ProjectId,md2,6d64322e-6b69-4636-9164-5f7063625858,rev?*%
%TF.SameCoordinates,Original*%
%TF.FileFunction,Legend,Top*%
%TF.FilePolarity,Positive*%
%FSLAX46Y46*%
G04 Gerber Fmt 4.6, Leading zero omitted, Abs format (unit mm)*
G04 Created by KiCad (PCBNEW 7.0.10) date 2024-02-15 17:37:22*
%MOMM*%
%LPD*%
G01*
G04 APERTURE LIST*
%ADD10C,0.150000*%
%ADD11C,0.254000*%
%ADD12C,0.101600*%
%ADD13C,0.076200*%
%ADD14C,0.120000*%
%ADD15C,0.200000*%
%ADD16C,0.100000*%
%ADD17C,0.127000*%
%ADD18C,0.066040*%
G04 APERTURE END LIST*
D10*
X117475000Y-31115000D02*
X118745000Y-31115000D01*
X118745000Y-61595000D02*
X117475000Y-61595000D01*
X29500000Y-113000000D02*
G75*
G03*
X21500000Y-113000000I-4000000J0D01*
G01*
X21500000Y-113000000D02*
G75*
G03*
X29500000Y-113000000I4000000J0D01*
G01*
X118745000Y-41910000D02*
X117475000Y-41910000D01*
X118745000Y-36195000D02*
X118745000Y-41910000D01*
X119500000Y-23000000D02*
G75*
G03*
X111500000Y-23000000I-4000000J0D01*
G01*
X111500000Y-23000000D02*
G75*
G03*
X119500000Y-23000000I4000000J0D01*
G01*
X118745000Y-57785000D02*
X118745000Y-61595000D01*
X117475000Y-36195000D02*
X118745000Y-36195000D01*
X117475000Y-57785000D02*
X118745000Y-57785000D01*
X35665000Y-105430000D02*
G75*
G03*
X34395000Y-105430000I-635000J0D01*
G01*
X34395000Y-105430000D02*
G75*
G03*
X35665000Y-105430000I635000J0D01*
G01*
X35665000Y-112415000D02*
G75*
G03*
X34395000Y-112415000I-635000J0D01*
G01*
X34395000Y-112415000D02*
G75*
G03*
X35665000Y-112415000I635000J0D01*
G01*
X118745000Y-27940000D02*
X118745000Y-27305000D01*
X118745000Y-46990000D02*
X118745000Y-52705000D01*
X119500000Y-113000000D02*
G75*
G03*
X111500000Y-113000000I-4000000J0D01*
G01*
X111500000Y-113000000D02*
G75*
G03*
X119500000Y-113000000I4000000J0D01*
G01*
X118745000Y-31115000D02*
X118745000Y-27940000D01*
X33506000Y-104160000D02*
X43412000Y-104160000D01*
X43412000Y-114066000D01*
X33506000Y-114066000D01*
X33506000Y-104160000D01*
X42650000Y-105430000D02*
G75*
G03*
X41380000Y-105430000I-635000J0D01*
G01*
X41380000Y-105430000D02*
G75*
G03*
X42650000Y-105430000I635000J0D01*
G01*
X42650000Y-112415000D02*
G75*
G03*
X41380000Y-112415000I-635000J0D01*
G01*
X41380000Y-112415000D02*
G75*
G03*
X42650000Y-112415000I635000J0D01*
G01*
X118745000Y-27305000D02*
X118110000Y-27305000D01*
X118745000Y-52705000D02*
X117475000Y-52705000D01*
X29500000Y-23000000D02*
G75*
G03*
X21500000Y-23000000I-4000000J0D01*
G01*
X21500000Y-23000000D02*
G75*
G03*
X29500000Y-23000000I4000000J0D01*
G01*
X117475000Y-46990000D02*
X118745000Y-46990000D01*
X60414819Y-58157856D02*
X60414819Y-58062618D01*
X60414819Y-58062618D02*
X60462438Y-57967380D01*
X60462438Y-57967380D02*
X60510057Y-57919761D01*
X60510057Y-57919761D02*
X60605295Y-57872142D01*
X60605295Y-57872142D02*
X60795771Y-57824523D01*
X60795771Y-57824523D02*
X61033866Y-57824523D01*
X61033866Y-57824523D02*
X61224342Y-57872142D01*
X61224342Y-57872142D02*
X61319580Y-57919761D01*
X61319580Y-57919761D02*
X61367200Y-57967380D01*
X61367200Y-57967380D02*
X61414819Y-58062618D01*
X61414819Y-58062618D02*
X61414819Y-58157856D01*
X61414819Y-58157856D02*
X61367200Y-58253094D01*
X61367200Y-58253094D02*
X61319580Y-58300713D01*
X61319580Y-58300713D02*
X61224342Y-58348332D01*
X61224342Y-58348332D02*
X61033866Y-58395951D01*
X61033866Y-58395951D02*
X60795771Y-58395951D01*
X60795771Y-58395951D02*
X60605295Y-58348332D01*
X60605295Y-58348332D02*
X60510057Y-58300713D01*
X60510057Y-58300713D02*
X60462438Y-58253094D01*
X60462438Y-58253094D02*
X60414819Y-58157856D01*
X61319580Y-57395951D02*
X61367200Y-57348332D01*
X61367200Y-57348332D02*
X61414819Y-57395951D01*
X61414819Y-57395951D02*
X61367200Y-57443570D01*
X61367200Y-57443570D02*
X61319580Y-57395951D01*
X61319580Y-57395951D02*
X61414819Y-57395951D01*
X61414819Y-56395952D02*
X61414819Y-56967380D01*
X61414819Y-56681666D02*
X60414819Y-56681666D01*
X60414819Y-56681666D02*
X60557676Y-56776904D01*
X60557676Y-56776904D02*
X60652914Y-56872142D01*
X60652914Y-56872142D02*
X60700533Y-56967380D01*
X60748152Y-55538809D02*
X61414819Y-55538809D01*
X60748152Y-55967380D02*
X61271961Y-55967380D01*
X61271961Y-55967380D02*
X61367200Y-55919761D01*
X61367200Y-55919761D02*
X61414819Y-55824523D01*
X61414819Y-55824523D02*
X61414819Y-55681666D01*
X61414819Y-55681666D02*
X61367200Y-55586428D01*
X61367200Y-55586428D02*
X61319580Y-55538809D01*
X60891009Y-54729285D02*
X60891009Y-55062618D01*
X61414819Y-55062618D02*
X60414819Y-55062618D01*
X60414819Y-55062618D02*
X60414819Y-54586428D01*
X108286779Y-47113866D02*
X109048684Y-47113866D01*
X108667731Y-47494819D02*
X108667731Y-46732914D01*
X109858207Y-46971009D02*
X110001064Y-47018628D01*
X110001064Y-47018628D02*
X110048683Y-47066247D01*
X110048683Y-47066247D02*
X110096302Y-47161485D01*
X110096302Y-47161485D02*
X110096302Y-47304342D01*
X110096302Y-47304342D02*
X110048683Y-47399580D01*
X110048683Y-47399580D02*
X110001064Y-47447200D01*
X110001064Y-47447200D02*
X109905826Y-47494819D01*
X109905826Y-47494819D02*
X109524874Y-47494819D01*
X109524874Y-47494819D02*
X109524874Y-46494819D01*
X109524874Y-46494819D02*
X109858207Y-46494819D01*
X109858207Y-46494819D02*
X109953445Y-46542438D01*
X109953445Y-46542438D02*
X110001064Y-46590057D01*
X110001064Y-46590057D02*
X110048683Y-46685295D01*
X110048683Y-46685295D02*
X110048683Y-46780533D01*
X110048683Y-46780533D02*
X110001064Y-46875771D01*
X110001064Y-46875771D02*
X109953445Y-46923390D01*
X109953445Y-46923390D02*
X109858207Y-46971009D01*
X109858207Y-46971009D02*
X109524874Y-46971009D01*
X110477255Y-47209104D02*
X110953445Y-47209104D01*
X110382017Y-47494819D02*
X110715350Y-46494819D01*
X110715350Y-46494819D02*
X111048683Y-47494819D01*
X111239160Y-46494819D02*
X111810588Y-46494819D01*
X111524874Y-47494819D02*
X111524874Y-46494819D01*
X112001065Y-46494819D02*
X112572493Y-46494819D01*
X112286779Y-47494819D02*
X112286779Y-46494819D01*
X87465350Y-91803152D02*
X87465350Y-92469819D01*
X87227255Y-91422200D02*
X86989160Y-92136485D01*
X86989160Y-92136485D02*
X87608207Y-92136485D01*
X41364819Y-58157856D02*
X41364819Y-58062618D01*
X41364819Y-58062618D02*
X41412438Y-57967380D01*
X41412438Y-57967380D02*
X41460057Y-57919761D01*
X41460057Y-57919761D02*
X41555295Y-57872142D01*
X41555295Y-57872142D02*
X41745771Y-57824523D01*
X41745771Y-57824523D02*
X41983866Y-57824523D01*
X41983866Y-57824523D02*
X42174342Y-57872142D01*
X42174342Y-57872142D02*
X42269580Y-57919761D01*
X42269580Y-57919761D02*
X42317200Y-57967380D01*
X42317200Y-57967380D02*
X42364819Y-58062618D01*
X42364819Y-58062618D02*
X42364819Y-58157856D01*
X42364819Y-58157856D02*
X42317200Y-58253094D01*
X42317200Y-58253094D02*
X42269580Y-58300713D01*
X42269580Y-58300713D02*
X42174342Y-58348332D01*
X42174342Y-58348332D02*
X41983866Y-58395951D01*
X41983866Y-58395951D02*
X41745771Y-58395951D01*
X41745771Y-58395951D02*
X41555295Y-58348332D01*
X41555295Y-58348332D02*
X41460057Y-58300713D01*
X41460057Y-58300713D02*
X41412438Y-58253094D01*
X41412438Y-58253094D02*
X41364819Y-58157856D01*
X42269580Y-57395951D02*
X42317200Y-57348332D01*
X42317200Y-57348332D02*
X42364819Y-57395951D01*
X42364819Y-57395951D02*
X42317200Y-57443570D01*
X42317200Y-57443570D02*
X42269580Y-57395951D01*
X42269580Y-57395951D02*
X42364819Y-57395951D01*
X42364819Y-56395952D02*
X42364819Y-56967380D01*
X42364819Y-56681666D02*
X41364819Y-56681666D01*
X41364819Y-56681666D02*
X41507676Y-56776904D01*
X41507676Y-56776904D02*
X41602914Y-56872142D01*
X41602914Y-56872142D02*
X41650533Y-56967380D01*
X41698152Y-55538809D02*
X42364819Y-55538809D01*
X41698152Y-55967380D02*
X42221961Y-55967380D01*
X42221961Y-55967380D02*
X42317200Y-55919761D01*
X42317200Y-55919761D02*
X42364819Y-55824523D01*
X42364819Y-55824523D02*
X42364819Y-55681666D01*
X42364819Y-55681666D02*
X42317200Y-55586428D01*
X42317200Y-55586428D02*
X42269580Y-55538809D01*
X41841009Y-54729285D02*
X41841009Y-55062618D01*
X42364819Y-55062618D02*
X41364819Y-55062618D01*
X41364819Y-55062618D02*
X41364819Y-54586428D01*
X44024779Y-46097819D02*
X44024779Y-45097819D01*
X44024779Y-45097819D02*
X44358112Y-45812104D01*
X44358112Y-45812104D02*
X44691445Y-45097819D01*
X44691445Y-45097819D02*
X44691445Y-46097819D01*
X45310493Y-46097819D02*
X45215255Y-46050200D01*
X45215255Y-46050200D02*
X45167636Y-46002580D01*
X45167636Y-46002580D02*
X45120017Y-45907342D01*
X45120017Y-45907342D02*
X45120017Y-45621628D01*
X45120017Y-45621628D02*
X45167636Y-45526390D01*
X45167636Y-45526390D02*
X45215255Y-45478771D01*
X45215255Y-45478771D02*
X45310493Y-45431152D01*
X45310493Y-45431152D02*
X45453350Y-45431152D01*
X45453350Y-45431152D02*
X45548588Y-45478771D01*
X45548588Y-45478771D02*
X45596207Y-45526390D01*
X45596207Y-45526390D02*
X45643826Y-45621628D01*
X45643826Y-45621628D02*
X45643826Y-45907342D01*
X45643826Y-45907342D02*
X45596207Y-46002580D01*
X45596207Y-46002580D02*
X45548588Y-46050200D01*
X45548588Y-46050200D02*
X45453350Y-46097819D01*
X45453350Y-46097819D02*
X45310493Y-46097819D01*
X45929541Y-45431152D02*
X46310493Y-45431152D01*
X46072398Y-45097819D02*
X46072398Y-45954961D01*
X46072398Y-45954961D02*
X46120017Y-46050200D01*
X46120017Y-46050200D02*
X46215255Y-46097819D01*
X46215255Y-46097819D02*
X46310493Y-46097819D01*
X46786684Y-46097819D02*
X46691446Y-46050200D01*
X46691446Y-46050200D02*
X46643827Y-46002580D01*
X46643827Y-46002580D02*
X46596208Y-45907342D01*
X46596208Y-45907342D02*
X46596208Y-45621628D01*
X46596208Y-45621628D02*
X46643827Y-45526390D01*
X46643827Y-45526390D02*
X46691446Y-45478771D01*
X46691446Y-45478771D02*
X46786684Y-45431152D01*
X46786684Y-45431152D02*
X46929541Y-45431152D01*
X46929541Y-45431152D02*
X47024779Y-45478771D01*
X47024779Y-45478771D02*
X47072398Y-45526390D01*
X47072398Y-45526390D02*
X47120017Y-45621628D01*
X47120017Y-45621628D02*
X47120017Y-45907342D01*
X47120017Y-45907342D02*
X47072398Y-46002580D01*
X47072398Y-46002580D02*
X47024779Y-46050200D01*
X47024779Y-46050200D02*
X46929541Y-46097819D01*
X46929541Y-46097819D02*
X46786684Y-46097819D01*
X47548589Y-46097819D02*
X47548589Y-45431152D01*
X47548589Y-45621628D02*
X47596208Y-45526390D01*
X47596208Y-45526390D02*
X47643827Y-45478771D01*
X47643827Y-45478771D02*
X47739065Y-45431152D01*
X47739065Y-45431152D02*
X47834303Y-45431152D01*
X48167637Y-45716866D02*
X48929542Y-45716866D01*
X49929541Y-46097819D02*
X49358113Y-46097819D01*
X49643827Y-46097819D02*
X49643827Y-45097819D01*
X49643827Y-45097819D02*
X49548589Y-45240676D01*
X49548589Y-45240676D02*
X49453351Y-45335914D01*
X49453351Y-45335914D02*
X49358113Y-45383533D01*
X107651779Y-36318866D02*
X108413684Y-36318866D01*
X108032731Y-36699819D02*
X108032731Y-35937914D01*
X109223207Y-36176009D02*
X109366064Y-36223628D01*
X109366064Y-36223628D02*
X109413683Y-36271247D01*
X109413683Y-36271247D02*
X109461302Y-36366485D01*
X109461302Y-36366485D02*
X109461302Y-36509342D01*
X109461302Y-36509342D02*
X109413683Y-36604580D01*
X109413683Y-36604580D02*
X109366064Y-36652200D01*
X109366064Y-36652200D02*
X109270826Y-36699819D01*
X109270826Y-36699819D02*
X108889874Y-36699819D01*
X108889874Y-36699819D02*
X108889874Y-35699819D01*
X108889874Y-35699819D02*
X109223207Y-35699819D01*
X109223207Y-35699819D02*
X109318445Y-35747438D01*
X109318445Y-35747438D02*
X109366064Y-35795057D01*
X109366064Y-35795057D02*
X109413683Y-35890295D01*
X109413683Y-35890295D02*
X109413683Y-35985533D01*
X109413683Y-35985533D02*
X109366064Y-36080771D01*
X109366064Y-36080771D02*
X109318445Y-36128390D01*
X109318445Y-36128390D02*
X109223207Y-36176009D01*
X109223207Y-36176009D02*
X108889874Y-36176009D01*
X109842255Y-36414104D02*
X110318445Y-36414104D01*
X109747017Y-36699819D02*
X110080350Y-35699819D01*
X110080350Y-35699819D02*
X110413683Y-36699819D01*
X110604160Y-35699819D02*
X111175588Y-35699819D01*
X110889874Y-36699819D02*
X110889874Y-35699819D01*
X111366065Y-35699819D02*
X111937493Y-35699819D01*
X111651779Y-36699819D02*
X111651779Y-35699819D01*
X114493922Y-61099819D02*
X114827255Y-62099819D01*
X114827255Y-62099819D02*
X115160588Y-61099819D01*
X115493922Y-62099819D02*
X115493922Y-61099819D01*
X115493922Y-61099819D02*
X115732017Y-61099819D01*
X115732017Y-61099819D02*
X115874874Y-61147438D01*
X115874874Y-61147438D02*
X115970112Y-61242676D01*
X115970112Y-61242676D02*
X116017731Y-61337914D01*
X116017731Y-61337914D02*
X116065350Y-61528390D01*
X116065350Y-61528390D02*
X116065350Y-61671247D01*
X116065350Y-61671247D02*
X116017731Y-61861723D01*
X116017731Y-61861723D02*
X115970112Y-61956961D01*
X115970112Y-61956961D02*
X115874874Y-62052200D01*
X115874874Y-62052200D02*
X115732017Y-62099819D01*
X115732017Y-62099819D02*
X115493922Y-62099819D01*
X116493922Y-62099819D02*
X116493922Y-61099819D01*
X116493922Y-61099819D02*
X116732017Y-61099819D01*
X116732017Y-61099819D02*
X116874874Y-61147438D01*
X116874874Y-61147438D02*
X116970112Y-61242676D01*
X116970112Y-61242676D02*
X117017731Y-61337914D01*
X117017731Y-61337914D02*
X117065350Y-61528390D01*
X117065350Y-61528390D02*
X117065350Y-61671247D01*
X117065350Y-61671247D02*
X117017731Y-61861723D01*
X117017731Y-61861723D02*
X116970112Y-61956961D01*
X116970112Y-61956961D02*
X116874874Y-62052200D01*
X116874874Y-62052200D02*
X116732017Y-62099819D01*
X116732017Y-62099819D02*
X116493922Y-62099819D01*
X50889819Y-76080237D02*
X50889819Y-75508809D01*
X51889819Y-75794523D02*
X50889819Y-75794523D01*
X51794580Y-74604047D02*
X51842200Y-74651666D01*
X51842200Y-74651666D02*
X51889819Y-74794523D01*
X51889819Y-74794523D02*
X51889819Y-74889761D01*
X51889819Y-74889761D02*
X51842200Y-75032618D01*
X51842200Y-75032618D02*
X51746961Y-75127856D01*
X51746961Y-75127856D02*
X51651723Y-75175475D01*
X51651723Y-75175475D02*
X51461247Y-75223094D01*
X51461247Y-75223094D02*
X51318390Y-75223094D01*
X51318390Y-75223094D02*
X51127914Y-75175475D01*
X51127914Y-75175475D02*
X51032676Y-75127856D01*
X51032676Y-75127856D02*
X50937438Y-75032618D01*
X50937438Y-75032618D02*
X50889819Y-74889761D01*
X50889819Y-74889761D02*
X50889819Y-74794523D01*
X50889819Y-74794523D02*
X50937438Y-74651666D01*
X50937438Y-74651666D02*
X50985057Y-74604047D01*
X50889819Y-74270713D02*
X50889819Y-73604047D01*
X50889819Y-73604047D02*
X51889819Y-74032618D01*
X51223152Y-72794523D02*
X51889819Y-72794523D01*
X50842200Y-73032618D02*
X51556485Y-73270713D01*
X51556485Y-73270713D02*
X51556485Y-72651666D01*
X51889819Y-72270713D02*
X50889819Y-72270713D01*
X51366009Y-72270713D02*
X51366009Y-71699285D01*
X51889819Y-71699285D02*
X50889819Y-71699285D01*
X51794580Y-70651666D02*
X51842200Y-70699285D01*
X51842200Y-70699285D02*
X51889819Y-70842142D01*
X51889819Y-70842142D02*
X51889819Y-70937380D01*
X51889819Y-70937380D02*
X51842200Y-71080237D01*
X51842200Y-71080237D02*
X51746961Y-71175475D01*
X51746961Y-71175475D02*
X51651723Y-71223094D01*
X51651723Y-71223094D02*
X51461247Y-71270713D01*
X51461247Y-71270713D02*
X51318390Y-71270713D01*
X51318390Y-71270713D02*
X51127914Y-71223094D01*
X51127914Y-71223094D02*
X51032676Y-71175475D01*
X51032676Y-71175475D02*
X50937438Y-71080237D01*
X50937438Y-71080237D02*
X50889819Y-70937380D01*
X50889819Y-70937380D02*
X50889819Y-70842142D01*
X50889819Y-70842142D02*
X50937438Y-70699285D01*
X50937438Y-70699285D02*
X50985057Y-70651666D01*
X51223152Y-69794523D02*
X51889819Y-69794523D01*
X50842200Y-70032618D02*
X51556485Y-70270713D01*
X51556485Y-70270713D02*
X51556485Y-69651666D01*
X50889819Y-69080237D02*
X50889819Y-68984999D01*
X50889819Y-68984999D02*
X50937438Y-68889761D01*
X50937438Y-68889761D02*
X50985057Y-68842142D01*
X50985057Y-68842142D02*
X51080295Y-68794523D01*
X51080295Y-68794523D02*
X51270771Y-68746904D01*
X51270771Y-68746904D02*
X51508866Y-68746904D01*
X51508866Y-68746904D02*
X51699342Y-68794523D01*
X51699342Y-68794523D02*
X51794580Y-68842142D01*
X51794580Y-68842142D02*
X51842200Y-68889761D01*
X51842200Y-68889761D02*
X51889819Y-68984999D01*
X51889819Y-68984999D02*
X51889819Y-69080237D01*
X51889819Y-69080237D02*
X51842200Y-69175475D01*
X51842200Y-69175475D02*
X51794580Y-69223094D01*
X51794580Y-69223094D02*
X51699342Y-69270713D01*
X51699342Y-69270713D02*
X51508866Y-69318332D01*
X51508866Y-69318332D02*
X51270771Y-69318332D01*
X51270771Y-69318332D02*
X51080295Y-69270713D01*
X51080295Y-69270713D02*
X50985057Y-69223094D01*
X50985057Y-69223094D02*
X50937438Y-69175475D01*
X50937438Y-69175475D02*
X50889819Y-69080237D01*
X50889819Y-67889761D02*
X50889819Y-68080237D01*
X50889819Y-68080237D02*
X50937438Y-68175475D01*
X50937438Y-68175475D02*
X50985057Y-68223094D01*
X50985057Y-68223094D02*
X51127914Y-68318332D01*
X51127914Y-68318332D02*
X51318390Y-68365951D01*
X51318390Y-68365951D02*
X51699342Y-68365951D01*
X51699342Y-68365951D02*
X51794580Y-68318332D01*
X51794580Y-68318332D02*
X51842200Y-68270713D01*
X51842200Y-68270713D02*
X51889819Y-68175475D01*
X51889819Y-68175475D02*
X51889819Y-67984999D01*
X51889819Y-67984999D02*
X51842200Y-67889761D01*
X51842200Y-67889761D02*
X51794580Y-67842142D01*
X51794580Y-67842142D02*
X51699342Y-67794523D01*
X51699342Y-67794523D02*
X51461247Y-67794523D01*
X51461247Y-67794523D02*
X51366009Y-67842142D01*
X51366009Y-67842142D02*
X51318390Y-67889761D01*
X51318390Y-67889761D02*
X51270771Y-67984999D01*
X51270771Y-67984999D02*
X51270771Y-68175475D01*
X51270771Y-68175475D02*
X51318390Y-68270713D01*
X51318390Y-68270713D02*
X51366009Y-68318332D01*
X51366009Y-68318332D02*
X51461247Y-68365951D01*
X50889819Y-66937380D02*
X50889819Y-67127856D01*
X50889819Y-67127856D02*
X50937438Y-67223094D01*
X50937438Y-67223094D02*
X50985057Y-67270713D01*
X50985057Y-67270713D02*
X51127914Y-67365951D01*
X51127914Y-67365951D02*
X51318390Y-67413570D01*
X51318390Y-67413570D02*
X51699342Y-67413570D01*
X51699342Y-67413570D02*
X51794580Y-67365951D01*
X51794580Y-67365951D02*
X51842200Y-67318332D01*
X51842200Y-67318332D02*
X51889819Y-67223094D01*
X51889819Y-67223094D02*
X51889819Y-67032618D01*
X51889819Y-67032618D02*
X51842200Y-66937380D01*
X51842200Y-66937380D02*
X51794580Y-66889761D01*
X51794580Y-66889761D02*
X51699342Y-66842142D01*
X51699342Y-66842142D02*
X51461247Y-66842142D01*
X51461247Y-66842142D02*
X51366009Y-66889761D01*
X51366009Y-66889761D02*
X51318390Y-66937380D01*
X51318390Y-66937380D02*
X51270771Y-67032618D01*
X51270771Y-67032618D02*
X51270771Y-67223094D01*
X51270771Y-67223094D02*
X51318390Y-67318332D01*
X51318390Y-67318332D02*
X51366009Y-67365951D01*
X51366009Y-67365951D02*
X51461247Y-67413570D01*
X51604104Y-66461189D02*
X51604104Y-65984999D01*
X51889819Y-66556427D02*
X50889819Y-66223094D01*
X50889819Y-66223094D02*
X51889819Y-65889761D01*
X51889819Y-65556427D02*
X50889819Y-65556427D01*
X50889819Y-65556427D02*
X50889819Y-65175475D01*
X50889819Y-65175475D02*
X50937438Y-65080237D01*
X50937438Y-65080237D02*
X50985057Y-65032618D01*
X50985057Y-65032618D02*
X51080295Y-64984999D01*
X51080295Y-64984999D02*
X51223152Y-64984999D01*
X51223152Y-64984999D02*
X51318390Y-65032618D01*
X51318390Y-65032618D02*
X51366009Y-65080237D01*
X51366009Y-65080237D02*
X51413628Y-65175475D01*
X51413628Y-65175475D02*
X51413628Y-65556427D01*
X36652588Y-103267819D02*
X36081160Y-103267819D01*
X36366874Y-103267819D02*
X36366874Y-102267819D01*
X36366874Y-102267819D02*
X36271636Y-102410676D01*
X36271636Y-102410676D02*
X36176398Y-102505914D01*
X36176398Y-102505914D02*
X36081160Y-102553533D01*
X37271636Y-102267819D02*
X37366874Y-102267819D01*
X37366874Y-102267819D02*
X37462112Y-102315438D01*
X37462112Y-102315438D02*
X37509731Y-102363057D01*
X37509731Y-102363057D02*
X37557350Y-102458295D01*
X37557350Y-102458295D02*
X37604969Y-102648771D01*
X37604969Y-102648771D02*
X37604969Y-102886866D01*
X37604969Y-102886866D02*
X37557350Y-103077342D01*
X37557350Y-103077342D02*
X37509731Y-103172580D01*
X37509731Y-103172580D02*
X37462112Y-103220200D01*
X37462112Y-103220200D02*
X37366874Y-103267819D01*
X37366874Y-103267819D02*
X37271636Y-103267819D01*
X37271636Y-103267819D02*
X37176398Y-103220200D01*
X37176398Y-103220200D02*
X37128779Y-103172580D01*
X37128779Y-103172580D02*
X37081160Y-103077342D01*
X37081160Y-103077342D02*
X37033541Y-102886866D01*
X37033541Y-102886866D02*
X37033541Y-102648771D01*
X37033541Y-102648771D02*
X37081160Y-102458295D01*
X37081160Y-102458295D02*
X37128779Y-102363057D01*
X37128779Y-102363057D02*
X37176398Y-102315438D01*
X37176398Y-102315438D02*
X37271636Y-102267819D01*
X38224017Y-102267819D02*
X38319255Y-102267819D01*
X38319255Y-102267819D02*
X38414493Y-102315438D01*
X38414493Y-102315438D02*
X38462112Y-102363057D01*
X38462112Y-102363057D02*
X38509731Y-102458295D01*
X38509731Y-102458295D02*
X38557350Y-102648771D01*
X38557350Y-102648771D02*
X38557350Y-102886866D01*
X38557350Y-102886866D02*
X38509731Y-103077342D01*
X38509731Y-103077342D02*
X38462112Y-103172580D01*
X38462112Y-103172580D02*
X38414493Y-103220200D01*
X38414493Y-103220200D02*
X38319255Y-103267819D01*
X38319255Y-103267819D02*
X38224017Y-103267819D01*
X38224017Y-103267819D02*
X38128779Y-103220200D01*
X38128779Y-103220200D02*
X38081160Y-103172580D01*
X38081160Y-103172580D02*
X38033541Y-103077342D01*
X38033541Y-103077342D02*
X37985922Y-102886866D01*
X37985922Y-102886866D02*
X37985922Y-102648771D01*
X37985922Y-102648771D02*
X38033541Y-102458295D01*
X38033541Y-102458295D02*
X38081160Y-102363057D01*
X38081160Y-102363057D02*
X38128779Y-102315438D01*
X38128779Y-102315438D02*
X38224017Y-102267819D01*
X38985922Y-103267819D02*
X38985922Y-102601152D01*
X38985922Y-102696390D02*
X39033541Y-102648771D01*
X39033541Y-102648771D02*
X39128779Y-102601152D01*
X39128779Y-102601152D02*
X39271636Y-102601152D01*
X39271636Y-102601152D02*
X39366874Y-102648771D01*
X39366874Y-102648771D02*
X39414493Y-102744009D01*
X39414493Y-102744009D02*
X39414493Y-103267819D01*
X39414493Y-102744009D02*
X39462112Y-102648771D01*
X39462112Y-102648771D02*
X39557350Y-102601152D01*
X39557350Y-102601152D02*
X39700207Y-102601152D01*
X39700207Y-102601152D02*
X39795446Y-102648771D01*
X39795446Y-102648771D02*
X39843065Y-102744009D01*
X39843065Y-102744009D02*
X39843065Y-103267819D01*
X40319255Y-103267819D02*
X40319255Y-102601152D01*
X40319255Y-102696390D02*
X40366874Y-102648771D01*
X40366874Y-102648771D02*
X40462112Y-102601152D01*
X40462112Y-102601152D02*
X40604969Y-102601152D01*
X40604969Y-102601152D02*
X40700207Y-102648771D01*
X40700207Y-102648771D02*
X40747826Y-102744009D01*
X40747826Y-102744009D02*
X40747826Y-103267819D01*
X40747826Y-102744009D02*
X40795445Y-102648771D01*
X40795445Y-102648771D02*
X40890683Y-102601152D01*
X40890683Y-102601152D02*
X41033540Y-102601152D01*
X41033540Y-102601152D02*
X41128779Y-102648771D01*
X41128779Y-102648771D02*
X41176398Y-102744009D01*
X41176398Y-102744009D02*
X41176398Y-103267819D01*
X76829160Y-91565057D02*
X76876779Y-91517438D01*
X76876779Y-91517438D02*
X76972017Y-91469819D01*
X76972017Y-91469819D02*
X77210112Y-91469819D01*
X77210112Y-91469819D02*
X77305350Y-91517438D01*
X77305350Y-91517438D02*
X77352969Y-91565057D01*
X77352969Y-91565057D02*
X77400588Y-91660295D01*
X77400588Y-91660295D02*
X77400588Y-91755533D01*
X77400588Y-91755533D02*
X77352969Y-91898390D01*
X77352969Y-91898390D02*
X76781541Y-92469819D01*
X76781541Y-92469819D02*
X77400588Y-92469819D01*
X108286779Y-42033866D02*
X109048684Y-42033866D01*
X109858207Y-41891009D02*
X110001064Y-41938628D01*
X110001064Y-41938628D02*
X110048683Y-41986247D01*
X110048683Y-41986247D02*
X110096302Y-42081485D01*
X110096302Y-42081485D02*
X110096302Y-42224342D01*
X110096302Y-42224342D02*
X110048683Y-42319580D01*
X110048683Y-42319580D02*
X110001064Y-42367200D01*
X110001064Y-42367200D02*
X109905826Y-42414819D01*
X109905826Y-42414819D02*
X109524874Y-42414819D01*
X109524874Y-42414819D02*
X109524874Y-41414819D01*
X109524874Y-41414819D02*
X109858207Y-41414819D01*
X109858207Y-41414819D02*
X109953445Y-41462438D01*
X109953445Y-41462438D02*
X110001064Y-41510057D01*
X110001064Y-41510057D02*
X110048683Y-41605295D01*
X110048683Y-41605295D02*
X110048683Y-41700533D01*
X110048683Y-41700533D02*
X110001064Y-41795771D01*
X110001064Y-41795771D02*
X109953445Y-41843390D01*
X109953445Y-41843390D02*
X109858207Y-41891009D01*
X109858207Y-41891009D02*
X109524874Y-41891009D01*
X110477255Y-42129104D02*
X110953445Y-42129104D01*
X110382017Y-42414819D02*
X110715350Y-41414819D01*
X110715350Y-41414819D02*
X111048683Y-42414819D01*
X111239160Y-41414819D02*
X111810588Y-41414819D01*
X111524874Y-42414819D02*
X111524874Y-41414819D01*
X112001065Y-41414819D02*
X112572493Y-41414819D01*
X112286779Y-42414819D02*
X112286779Y-41414819D01*
X36684398Y-106569819D02*
X36874874Y-106569819D01*
X36874874Y-106569819D02*
X36970112Y-106522200D01*
X36970112Y-106522200D02*
X37017731Y-106474580D01*
X37017731Y-106474580D02*
X37112969Y-106331723D01*
X37112969Y-106331723D02*
X37160588Y-106141247D01*
X37160588Y-106141247D02*
X37160588Y-105760295D01*
X37160588Y-105760295D02*
X37112969Y-105665057D01*
X37112969Y-105665057D02*
X37065350Y-105617438D01*
X37065350Y-105617438D02*
X36970112Y-105569819D01*
X36970112Y-105569819D02*
X36779636Y-105569819D01*
X36779636Y-105569819D02*
X36684398Y-105617438D01*
X36684398Y-105617438D02*
X36636779Y-105665057D01*
X36636779Y-105665057D02*
X36589160Y-105760295D01*
X36589160Y-105760295D02*
X36589160Y-105998390D01*
X36589160Y-105998390D02*
X36636779Y-106093628D01*
X36636779Y-106093628D02*
X36684398Y-106141247D01*
X36684398Y-106141247D02*
X36779636Y-106188866D01*
X36779636Y-106188866D02*
X36970112Y-106188866D01*
X36970112Y-106188866D02*
X37065350Y-106141247D01*
X37065350Y-106141247D02*
X37112969Y-106093628D01*
X37112969Y-106093628D02*
X37160588Y-105998390D01*
X37779636Y-105569819D02*
X37874874Y-105569819D01*
X37874874Y-105569819D02*
X37970112Y-105617438D01*
X37970112Y-105617438D02*
X38017731Y-105665057D01*
X38017731Y-105665057D02*
X38065350Y-105760295D01*
X38065350Y-105760295D02*
X38112969Y-105950771D01*
X38112969Y-105950771D02*
X38112969Y-106188866D01*
X38112969Y-106188866D02*
X38065350Y-106379342D01*
X38065350Y-106379342D02*
X38017731Y-106474580D01*
X38017731Y-106474580D02*
X37970112Y-106522200D01*
X37970112Y-106522200D02*
X37874874Y-106569819D01*
X37874874Y-106569819D02*
X37779636Y-106569819D01*
X37779636Y-106569819D02*
X37684398Y-106522200D01*
X37684398Y-106522200D02*
X37636779Y-106474580D01*
X37636779Y-106474580D02*
X37589160Y-106379342D01*
X37589160Y-106379342D02*
X37541541Y-106188866D01*
X37541541Y-106188866D02*
X37541541Y-105950771D01*
X37541541Y-105950771D02*
X37589160Y-105760295D01*
X37589160Y-105760295D02*
X37636779Y-105665057D01*
X37636779Y-105665057D02*
X37684398Y-105617438D01*
X37684398Y-105617438D02*
X37779636Y-105569819D01*
X38541541Y-106569819D02*
X38541541Y-105903152D01*
X38541541Y-105998390D02*
X38589160Y-105950771D01*
X38589160Y-105950771D02*
X38684398Y-105903152D01*
X38684398Y-105903152D02*
X38827255Y-105903152D01*
X38827255Y-105903152D02*
X38922493Y-105950771D01*
X38922493Y-105950771D02*
X38970112Y-106046009D01*
X38970112Y-106046009D02*
X38970112Y-106569819D01*
X38970112Y-106046009D02*
X39017731Y-105950771D01*
X39017731Y-105950771D02*
X39112969Y-105903152D01*
X39112969Y-105903152D02*
X39255826Y-105903152D01*
X39255826Y-105903152D02*
X39351065Y-105950771D01*
X39351065Y-105950771D02*
X39398684Y-106046009D01*
X39398684Y-106046009D02*
X39398684Y-106569819D01*
X39874874Y-106569819D02*
X39874874Y-105903152D01*
X39874874Y-105998390D02*
X39922493Y-105950771D01*
X39922493Y-105950771D02*
X40017731Y-105903152D01*
X40017731Y-105903152D02*
X40160588Y-105903152D01*
X40160588Y-105903152D02*
X40255826Y-105950771D01*
X40255826Y-105950771D02*
X40303445Y-106046009D01*
X40303445Y-106046009D02*
X40303445Y-106569819D01*
X40303445Y-106046009D02*
X40351064Y-105950771D01*
X40351064Y-105950771D02*
X40446302Y-105903152D01*
X40446302Y-105903152D02*
X40589159Y-105903152D01*
X40589159Y-105903152D02*
X40684398Y-105950771D01*
X40684398Y-105950771D02*
X40732017Y-106046009D01*
X40732017Y-106046009D02*
X40732017Y-106569819D01*
X36169819Y-110760601D02*
X36169819Y-110570125D01*
X36169819Y-110570125D02*
X36122200Y-110474887D01*
X36122200Y-110474887D02*
X36074580Y-110427268D01*
X36074580Y-110427268D02*
X35931723Y-110332030D01*
X35931723Y-110332030D02*
X35741247Y-110284411D01*
X35741247Y-110284411D02*
X35360295Y-110284411D01*
X35360295Y-110284411D02*
X35265057Y-110332030D01*
X35265057Y-110332030D02*
X35217438Y-110379649D01*
X35217438Y-110379649D02*
X35169819Y-110474887D01*
X35169819Y-110474887D02*
X35169819Y-110665363D01*
X35169819Y-110665363D02*
X35217438Y-110760601D01*
X35217438Y-110760601D02*
X35265057Y-110808220D01*
X35265057Y-110808220D02*
X35360295Y-110855839D01*
X35360295Y-110855839D02*
X35598390Y-110855839D01*
X35598390Y-110855839D02*
X35693628Y-110808220D01*
X35693628Y-110808220D02*
X35741247Y-110760601D01*
X35741247Y-110760601D02*
X35788866Y-110665363D01*
X35788866Y-110665363D02*
X35788866Y-110474887D01*
X35788866Y-110474887D02*
X35741247Y-110379649D01*
X35741247Y-110379649D02*
X35693628Y-110332030D01*
X35693628Y-110332030D02*
X35598390Y-110284411D01*
X35169819Y-109665363D02*
X35169819Y-109570125D01*
X35169819Y-109570125D02*
X35217438Y-109474887D01*
X35217438Y-109474887D02*
X35265057Y-109427268D01*
X35265057Y-109427268D02*
X35360295Y-109379649D01*
X35360295Y-109379649D02*
X35550771Y-109332030D01*
X35550771Y-109332030D02*
X35788866Y-109332030D01*
X35788866Y-109332030D02*
X35979342Y-109379649D01*
X35979342Y-109379649D02*
X36074580Y-109427268D01*
X36074580Y-109427268D02*
X36122200Y-109474887D01*
X36122200Y-109474887D02*
X36169819Y-109570125D01*
X36169819Y-109570125D02*
X36169819Y-109665363D01*
X36169819Y-109665363D02*
X36122200Y-109760601D01*
X36122200Y-109760601D02*
X36074580Y-109808220D01*
X36074580Y-109808220D02*
X35979342Y-109855839D01*
X35979342Y-109855839D02*
X35788866Y-109903458D01*
X35788866Y-109903458D02*
X35550771Y-109903458D01*
X35550771Y-109903458D02*
X35360295Y-109855839D01*
X35360295Y-109855839D02*
X35265057Y-109808220D01*
X35265057Y-109808220D02*
X35217438Y-109760601D01*
X35217438Y-109760601D02*
X35169819Y-109665363D01*
X36169819Y-108903458D02*
X35503152Y-108903458D01*
X35598390Y-108903458D02*
X35550771Y-108855839D01*
X35550771Y-108855839D02*
X35503152Y-108760601D01*
X35503152Y-108760601D02*
X35503152Y-108617744D01*
X35503152Y-108617744D02*
X35550771Y-108522506D01*
X35550771Y-108522506D02*
X35646009Y-108474887D01*
X35646009Y-108474887D02*
X36169819Y-108474887D01*
X35646009Y-108474887D02*
X35550771Y-108427268D01*
X35550771Y-108427268D02*
X35503152Y-108332030D01*
X35503152Y-108332030D02*
X35503152Y-108189173D01*
X35503152Y-108189173D02*
X35550771Y-108093934D01*
X35550771Y-108093934D02*
X35646009Y-108046315D01*
X35646009Y-108046315D02*
X36169819Y-108046315D01*
X36169819Y-107570125D02*
X35503152Y-107570125D01*
X35598390Y-107570125D02*
X35550771Y-107522506D01*
X35550771Y-107522506D02*
X35503152Y-107427268D01*
X35503152Y-107427268D02*
X35503152Y-107284411D01*
X35503152Y-107284411D02*
X35550771Y-107189173D01*
X35550771Y-107189173D02*
X35646009Y-107141554D01*
X35646009Y-107141554D02*
X36169819Y-107141554D01*
X35646009Y-107141554D02*
X35550771Y-107093935D01*
X35550771Y-107093935D02*
X35503152Y-106998697D01*
X35503152Y-106998697D02*
X35503152Y-106855840D01*
X35503152Y-106855840D02*
X35550771Y-106760601D01*
X35550771Y-106760601D02*
X35646009Y-106712982D01*
X35646009Y-106712982D02*
X36169819Y-106712982D01*
X90506779Y-46224819D02*
X90506779Y-45224819D01*
X90506779Y-45224819D02*
X90840112Y-45939104D01*
X90840112Y-45939104D02*
X91173445Y-45224819D01*
X91173445Y-45224819D02*
X91173445Y-46224819D01*
X91792493Y-46224819D02*
X91697255Y-46177200D01*
X91697255Y-46177200D02*
X91649636Y-46129580D01*
X91649636Y-46129580D02*
X91602017Y-46034342D01*
X91602017Y-46034342D02*
X91602017Y-45748628D01*
X91602017Y-45748628D02*
X91649636Y-45653390D01*
X91649636Y-45653390D02*
X91697255Y-45605771D01*
X91697255Y-45605771D02*
X91792493Y-45558152D01*
X91792493Y-45558152D02*
X91935350Y-45558152D01*
X91935350Y-45558152D02*
X92030588Y-45605771D01*
X92030588Y-45605771D02*
X92078207Y-45653390D01*
X92078207Y-45653390D02*
X92125826Y-45748628D01*
X92125826Y-45748628D02*
X92125826Y-46034342D01*
X92125826Y-46034342D02*
X92078207Y-46129580D01*
X92078207Y-46129580D02*
X92030588Y-46177200D01*
X92030588Y-46177200D02*
X91935350Y-46224819D01*
X91935350Y-46224819D02*
X91792493Y-46224819D01*
X92411541Y-45558152D02*
X92792493Y-45558152D01*
X92554398Y-45224819D02*
X92554398Y-46081961D01*
X92554398Y-46081961D02*
X92602017Y-46177200D01*
X92602017Y-46177200D02*
X92697255Y-46224819D01*
X92697255Y-46224819D02*
X92792493Y-46224819D01*
X93268684Y-46224819D02*
X93173446Y-46177200D01*
X93173446Y-46177200D02*
X93125827Y-46129580D01*
X93125827Y-46129580D02*
X93078208Y-46034342D01*
X93078208Y-46034342D02*
X93078208Y-45748628D01*
X93078208Y-45748628D02*
X93125827Y-45653390D01*
X93125827Y-45653390D02*
X93173446Y-45605771D01*
X93173446Y-45605771D02*
X93268684Y-45558152D01*
X93268684Y-45558152D02*
X93411541Y-45558152D01*
X93411541Y-45558152D02*
X93506779Y-45605771D01*
X93506779Y-45605771D02*
X93554398Y-45653390D01*
X93554398Y-45653390D02*
X93602017Y-45748628D01*
X93602017Y-45748628D02*
X93602017Y-46034342D01*
X93602017Y-46034342D02*
X93554398Y-46129580D01*
X93554398Y-46129580D02*
X93506779Y-46177200D01*
X93506779Y-46177200D02*
X93411541Y-46224819D01*
X93411541Y-46224819D02*
X93268684Y-46224819D01*
X94030589Y-46224819D02*
X94030589Y-45558152D01*
X94030589Y-45748628D02*
X94078208Y-45653390D01*
X94078208Y-45653390D02*
X94125827Y-45605771D01*
X94125827Y-45605771D02*
X94221065Y-45558152D01*
X94221065Y-45558152D02*
X94316303Y-45558152D01*
X94649637Y-45843866D02*
X95411542Y-45843866D01*
X96316303Y-45558152D02*
X96316303Y-46224819D01*
X96078208Y-45177200D02*
X95840113Y-45891485D01*
X95840113Y-45891485D02*
X96459160Y-45891485D01*
X67560588Y-89057438D02*
X67465350Y-89009819D01*
X67465350Y-89009819D02*
X67322493Y-89009819D01*
X67322493Y-89009819D02*
X67179636Y-89057438D01*
X67179636Y-89057438D02*
X67084398Y-89152676D01*
X67084398Y-89152676D02*
X67036779Y-89247914D01*
X67036779Y-89247914D02*
X66989160Y-89438390D01*
X66989160Y-89438390D02*
X66989160Y-89581247D01*
X66989160Y-89581247D02*
X67036779Y-89771723D01*
X67036779Y-89771723D02*
X67084398Y-89866961D01*
X67084398Y-89866961D02*
X67179636Y-89962200D01*
X67179636Y-89962200D02*
X67322493Y-90009819D01*
X67322493Y-90009819D02*
X67417731Y-90009819D01*
X67417731Y-90009819D02*
X67560588Y-89962200D01*
X67560588Y-89962200D02*
X67608207Y-89914580D01*
X67608207Y-89914580D02*
X67608207Y-89581247D01*
X67608207Y-89581247D02*
X67417731Y-89581247D01*
X68036779Y-90009819D02*
X68036779Y-89009819D01*
X68036779Y-89009819D02*
X68608207Y-90009819D01*
X68608207Y-90009819D02*
X68608207Y-89009819D01*
X69084398Y-90009819D02*
X69084398Y-89009819D01*
X69084398Y-89009819D02*
X69322493Y-89009819D01*
X69322493Y-89009819D02*
X69465350Y-89057438D01*
X69465350Y-89057438D02*
X69560588Y-89152676D01*
X69560588Y-89152676D02*
X69608207Y-89247914D01*
X69608207Y-89247914D02*
X69655826Y-89438390D01*
X69655826Y-89438390D02*
X69655826Y-89581247D01*
X69655826Y-89581247D02*
X69608207Y-89771723D01*
X69608207Y-89771723D02*
X69560588Y-89866961D01*
X69560588Y-89866961D02*
X69465350Y-89962200D01*
X69465350Y-89962200D02*
X69322493Y-90009819D01*
X69322493Y-90009819D02*
X69084398Y-90009819D01*
X64433207Y-84834580D02*
X64385588Y-84882200D01*
X64385588Y-84882200D02*
X64242731Y-84929819D01*
X64242731Y-84929819D02*
X64147493Y-84929819D01*
X64147493Y-84929819D02*
X64004636Y-84882200D01*
X64004636Y-84882200D02*
X63909398Y-84786961D01*
X63909398Y-84786961D02*
X63861779Y-84691723D01*
X63861779Y-84691723D02*
X63814160Y-84501247D01*
X63814160Y-84501247D02*
X63814160Y-84358390D01*
X63814160Y-84358390D02*
X63861779Y-84167914D01*
X63861779Y-84167914D02*
X63909398Y-84072676D01*
X63909398Y-84072676D02*
X64004636Y-83977438D01*
X64004636Y-83977438D02*
X64147493Y-83929819D01*
X64147493Y-83929819D02*
X64242731Y-83929819D01*
X64242731Y-83929819D02*
X64385588Y-83977438D01*
X64385588Y-83977438D02*
X64433207Y-84025057D01*
X64766541Y-83929819D02*
X65004636Y-84929819D01*
X65004636Y-84929819D02*
X65195112Y-84215533D01*
X65195112Y-84215533D02*
X65385588Y-84929819D01*
X65385588Y-84929819D02*
X65623684Y-83929819D01*
X66718921Y-83882200D02*
X65861779Y-85167914D01*
X67623683Y-84834580D02*
X67576064Y-84882200D01*
X67576064Y-84882200D02*
X67433207Y-84929819D01*
X67433207Y-84929819D02*
X67337969Y-84929819D01*
X67337969Y-84929819D02*
X67195112Y-84882200D01*
X67195112Y-84882200D02*
X67099874Y-84786961D01*
X67099874Y-84786961D02*
X67052255Y-84691723D01*
X67052255Y-84691723D02*
X67004636Y-84501247D01*
X67004636Y-84501247D02*
X67004636Y-84358390D01*
X67004636Y-84358390D02*
X67052255Y-84167914D01*
X67052255Y-84167914D02*
X67099874Y-84072676D01*
X67099874Y-84072676D02*
X67195112Y-83977438D01*
X67195112Y-83977438D02*
X67337969Y-83929819D01*
X67337969Y-83929819D02*
X67433207Y-83929819D01*
X67433207Y-83929819D02*
X67576064Y-83977438D01*
X67576064Y-83977438D02*
X67623683Y-84025057D01*
X68623683Y-84834580D02*
X68576064Y-84882200D01*
X68576064Y-84882200D02*
X68433207Y-84929819D01*
X68433207Y-84929819D02*
X68337969Y-84929819D01*
X68337969Y-84929819D02*
X68195112Y-84882200D01*
X68195112Y-84882200D02*
X68099874Y-84786961D01*
X68099874Y-84786961D02*
X68052255Y-84691723D01*
X68052255Y-84691723D02*
X68004636Y-84501247D01*
X68004636Y-84501247D02*
X68004636Y-84358390D01*
X68004636Y-84358390D02*
X68052255Y-84167914D01*
X68052255Y-84167914D02*
X68099874Y-84072676D01*
X68099874Y-84072676D02*
X68195112Y-83977438D01*
X68195112Y-83977438D02*
X68337969Y-83929819D01*
X68337969Y-83929819D02*
X68433207Y-83929819D01*
X68433207Y-83929819D02*
X68576064Y-83977438D01*
X68576064Y-83977438D02*
X68623683Y-84025057D01*
X68957017Y-83929819D02*
X69195112Y-84929819D01*
X69195112Y-84929819D02*
X69385588Y-84215533D01*
X69385588Y-84215533D02*
X69576064Y-84929819D01*
X69576064Y-84929819D02*
X69814160Y-83929819D01*
X118567200Y-69560839D02*
X118614819Y-69417982D01*
X118614819Y-69417982D02*
X118614819Y-69179887D01*
X118614819Y-69179887D02*
X118567200Y-69084649D01*
X118567200Y-69084649D02*
X118519580Y-69037030D01*
X118519580Y-69037030D02*
X118424342Y-68989411D01*
X118424342Y-68989411D02*
X118329104Y-68989411D01*
X118329104Y-68989411D02*
X118233866Y-69037030D01*
X118233866Y-69037030D02*
X118186247Y-69084649D01*
X118186247Y-69084649D02*
X118138628Y-69179887D01*
X118138628Y-69179887D02*
X118091009Y-69370363D01*
X118091009Y-69370363D02*
X118043390Y-69465601D01*
X118043390Y-69465601D02*
X117995771Y-69513220D01*
X117995771Y-69513220D02*
X117900533Y-69560839D01*
X117900533Y-69560839D02*
X117805295Y-69560839D01*
X117805295Y-69560839D02*
X117710057Y-69513220D01*
X117710057Y-69513220D02*
X117662438Y-69465601D01*
X117662438Y-69465601D02*
X117614819Y-69370363D01*
X117614819Y-69370363D02*
X117614819Y-69132268D01*
X117614819Y-69132268D02*
X117662438Y-68989411D01*
X117614819Y-68656077D02*
X118614819Y-68417982D01*
X118614819Y-68417982D02*
X117900533Y-68227506D01*
X117900533Y-68227506D02*
X118614819Y-68037030D01*
X118614819Y-68037030D02*
X117614819Y-67798935D01*
X118233866Y-67417982D02*
X118233866Y-66656078D01*
X118614819Y-65703697D02*
X118614819Y-66179887D01*
X118614819Y-66179887D02*
X117614819Y-66179887D01*
X118091009Y-65370363D02*
X118091009Y-65037030D01*
X118614819Y-64894173D02*
X118614819Y-65370363D01*
X118614819Y-65370363D02*
X117614819Y-65370363D01*
X117614819Y-65370363D02*
X117614819Y-64894173D01*
X118614819Y-64465601D02*
X117614819Y-64465601D01*
X117614819Y-64465601D02*
X117614819Y-64227506D01*
X117614819Y-64227506D02*
X117662438Y-64084649D01*
X117662438Y-64084649D02*
X117757676Y-63989411D01*
X117757676Y-63989411D02*
X117852914Y-63941792D01*
X117852914Y-63941792D02*
X118043390Y-63894173D01*
X118043390Y-63894173D02*
X118186247Y-63894173D01*
X118186247Y-63894173D02*
X118376723Y-63941792D01*
X118376723Y-63941792D02*
X118471961Y-63989411D01*
X118471961Y-63989411D02*
X118567200Y-64084649D01*
X118567200Y-64084649D02*
X118614819Y-64227506D01*
X118614819Y-64227506D02*
X118614819Y-64465601D01*
X79464819Y-58157856D02*
X79464819Y-58062618D01*
X79464819Y-58062618D02*
X79512438Y-57967380D01*
X79512438Y-57967380D02*
X79560057Y-57919761D01*
X79560057Y-57919761D02*
X79655295Y-57872142D01*
X79655295Y-57872142D02*
X79845771Y-57824523D01*
X79845771Y-57824523D02*
X80083866Y-57824523D01*
X80083866Y-57824523D02*
X80274342Y-57872142D01*
X80274342Y-57872142D02*
X80369580Y-57919761D01*
X80369580Y-57919761D02*
X80417200Y-57967380D01*
X80417200Y-57967380D02*
X80464819Y-58062618D01*
X80464819Y-58062618D02*
X80464819Y-58157856D01*
X80464819Y-58157856D02*
X80417200Y-58253094D01*
X80417200Y-58253094D02*
X80369580Y-58300713D01*
X80369580Y-58300713D02*
X80274342Y-58348332D01*
X80274342Y-58348332D02*
X80083866Y-58395951D01*
X80083866Y-58395951D02*
X79845771Y-58395951D01*
X79845771Y-58395951D02*
X79655295Y-58348332D01*
X79655295Y-58348332D02*
X79560057Y-58300713D01*
X79560057Y-58300713D02*
X79512438Y-58253094D01*
X79512438Y-58253094D02*
X79464819Y-58157856D01*
X80369580Y-57395951D02*
X80417200Y-57348332D01*
X80417200Y-57348332D02*
X80464819Y-57395951D01*
X80464819Y-57395951D02*
X80417200Y-57443570D01*
X80417200Y-57443570D02*
X80369580Y-57395951D01*
X80369580Y-57395951D02*
X80464819Y-57395951D01*
X80464819Y-56395952D02*
X80464819Y-56967380D01*
X80464819Y-56681666D02*
X79464819Y-56681666D01*
X79464819Y-56681666D02*
X79607676Y-56776904D01*
X79607676Y-56776904D02*
X79702914Y-56872142D01*
X79702914Y-56872142D02*
X79750533Y-56967380D01*
X79798152Y-55538809D02*
X80464819Y-55538809D01*
X79798152Y-55967380D02*
X80321961Y-55967380D01*
X80321961Y-55967380D02*
X80417200Y-55919761D01*
X80417200Y-55919761D02*
X80464819Y-55824523D01*
X80464819Y-55824523D02*
X80464819Y-55681666D01*
X80464819Y-55681666D02*
X80417200Y-55586428D01*
X80417200Y-55586428D02*
X80369580Y-55538809D01*
X79941009Y-54729285D02*
X79941009Y-55062618D01*
X80464819Y-55062618D02*
X79464819Y-55062618D01*
X79464819Y-55062618D02*
X79464819Y-54586428D01*
X67036779Y-87469819D02*
X67036779Y-86469819D01*
X67036779Y-86469819D02*
X67417731Y-86469819D01*
X67417731Y-86469819D02*
X67512969Y-86517438D01*
X67512969Y-86517438D02*
X67560588Y-86565057D01*
X67560588Y-86565057D02*
X67608207Y-86660295D01*
X67608207Y-86660295D02*
X67608207Y-86803152D01*
X67608207Y-86803152D02*
X67560588Y-86898390D01*
X67560588Y-86898390D02*
X67512969Y-86946009D01*
X67512969Y-86946009D02*
X67417731Y-86993628D01*
X67417731Y-86993628D02*
X67036779Y-86993628D01*
X67941541Y-86469819D02*
X68179636Y-87469819D01*
X68179636Y-87469819D02*
X68370112Y-86755533D01*
X68370112Y-86755533D02*
X68560588Y-87469819D01*
X68560588Y-87469819D02*
X68798684Y-86469819D01*
X69179636Y-87469819D02*
X69179636Y-86469819D01*
X69179636Y-86469819D02*
X69512969Y-87184104D01*
X69512969Y-87184104D02*
X69846302Y-86469819D01*
X69846302Y-86469819D02*
X69846302Y-87469819D01*
X32613819Y-110411411D02*
X32613819Y-110982839D01*
X32613819Y-110697125D02*
X31613819Y-110697125D01*
X31613819Y-110697125D02*
X31756676Y-110792363D01*
X31756676Y-110792363D02*
X31851914Y-110887601D01*
X31851914Y-110887601D02*
X31899533Y-110982839D01*
X31613819Y-109792363D02*
X31613819Y-109697125D01*
X31613819Y-109697125D02*
X31661438Y-109601887D01*
X31661438Y-109601887D02*
X31709057Y-109554268D01*
X31709057Y-109554268D02*
X31804295Y-109506649D01*
X31804295Y-109506649D02*
X31994771Y-109459030D01*
X31994771Y-109459030D02*
X32232866Y-109459030D01*
X32232866Y-109459030D02*
X32423342Y-109506649D01*
X32423342Y-109506649D02*
X32518580Y-109554268D01*
X32518580Y-109554268D02*
X32566200Y-109601887D01*
X32566200Y-109601887D02*
X32613819Y-109697125D01*
X32613819Y-109697125D02*
X32613819Y-109792363D01*
X32613819Y-109792363D02*
X32566200Y-109887601D01*
X32566200Y-109887601D02*
X32518580Y-109935220D01*
X32518580Y-109935220D02*
X32423342Y-109982839D01*
X32423342Y-109982839D02*
X32232866Y-110030458D01*
X32232866Y-110030458D02*
X31994771Y-110030458D01*
X31994771Y-110030458D02*
X31804295Y-109982839D01*
X31804295Y-109982839D02*
X31709057Y-109935220D01*
X31709057Y-109935220D02*
X31661438Y-109887601D01*
X31661438Y-109887601D02*
X31613819Y-109792363D01*
X31613819Y-108839982D02*
X31613819Y-108744744D01*
X31613819Y-108744744D02*
X31661438Y-108649506D01*
X31661438Y-108649506D02*
X31709057Y-108601887D01*
X31709057Y-108601887D02*
X31804295Y-108554268D01*
X31804295Y-108554268D02*
X31994771Y-108506649D01*
X31994771Y-108506649D02*
X32232866Y-108506649D01*
X32232866Y-108506649D02*
X32423342Y-108554268D01*
X32423342Y-108554268D02*
X32518580Y-108601887D01*
X32518580Y-108601887D02*
X32566200Y-108649506D01*
X32566200Y-108649506D02*
X32613819Y-108744744D01*
X32613819Y-108744744D02*
X32613819Y-108839982D01*
X32613819Y-108839982D02*
X32566200Y-108935220D01*
X32566200Y-108935220D02*
X32518580Y-108982839D01*
X32518580Y-108982839D02*
X32423342Y-109030458D01*
X32423342Y-109030458D02*
X32232866Y-109078077D01*
X32232866Y-109078077D02*
X31994771Y-109078077D01*
X31994771Y-109078077D02*
X31804295Y-109030458D01*
X31804295Y-109030458D02*
X31709057Y-108982839D01*
X31709057Y-108982839D02*
X31661438Y-108935220D01*
X31661438Y-108935220D02*
X31613819Y-108839982D01*
X32613819Y-108078077D02*
X31947152Y-108078077D01*
X32042390Y-108078077D02*
X31994771Y-108030458D01*
X31994771Y-108030458D02*
X31947152Y-107935220D01*
X31947152Y-107935220D02*
X31947152Y-107792363D01*
X31947152Y-107792363D02*
X31994771Y-107697125D01*
X31994771Y-107697125D02*
X32090009Y-107649506D01*
X32090009Y-107649506D02*
X32613819Y-107649506D01*
X32090009Y-107649506D02*
X31994771Y-107601887D01*
X31994771Y-107601887D02*
X31947152Y-107506649D01*
X31947152Y-107506649D02*
X31947152Y-107363792D01*
X31947152Y-107363792D02*
X31994771Y-107268553D01*
X31994771Y-107268553D02*
X32090009Y-107220934D01*
X32090009Y-107220934D02*
X32613819Y-107220934D01*
X32613819Y-106744744D02*
X31947152Y-106744744D01*
X32042390Y-106744744D02*
X31994771Y-106697125D01*
X31994771Y-106697125D02*
X31947152Y-106601887D01*
X31947152Y-106601887D02*
X31947152Y-106459030D01*
X31947152Y-106459030D02*
X31994771Y-106363792D01*
X31994771Y-106363792D02*
X32090009Y-106316173D01*
X32090009Y-106316173D02*
X32613819Y-106316173D01*
X32090009Y-106316173D02*
X31994771Y-106268554D01*
X31994771Y-106268554D02*
X31947152Y-106173316D01*
X31947152Y-106173316D02*
X31947152Y-106030459D01*
X31947152Y-106030459D02*
X31994771Y-105935220D01*
X31994771Y-105935220D02*
X32090009Y-105887601D01*
X32090009Y-105887601D02*
X32613819Y-105887601D01*
X88989819Y-76715237D02*
X88989819Y-76143809D01*
X89989819Y-76429523D02*
X88989819Y-76429523D01*
X89894580Y-75239047D02*
X89942200Y-75286666D01*
X89942200Y-75286666D02*
X89989819Y-75429523D01*
X89989819Y-75429523D02*
X89989819Y-75524761D01*
X89989819Y-75524761D02*
X89942200Y-75667618D01*
X89942200Y-75667618D02*
X89846961Y-75762856D01*
X89846961Y-75762856D02*
X89751723Y-75810475D01*
X89751723Y-75810475D02*
X89561247Y-75858094D01*
X89561247Y-75858094D02*
X89418390Y-75858094D01*
X89418390Y-75858094D02*
X89227914Y-75810475D01*
X89227914Y-75810475D02*
X89132676Y-75762856D01*
X89132676Y-75762856D02*
X89037438Y-75667618D01*
X89037438Y-75667618D02*
X88989819Y-75524761D01*
X88989819Y-75524761D02*
X88989819Y-75429523D01*
X88989819Y-75429523D02*
X89037438Y-75286666D01*
X89037438Y-75286666D02*
X89085057Y-75239047D01*
X88989819Y-74905713D02*
X88989819Y-74239047D01*
X88989819Y-74239047D02*
X89989819Y-74667618D01*
X89323152Y-73429523D02*
X89989819Y-73429523D01*
X88942200Y-73667618D02*
X89656485Y-73905713D01*
X89656485Y-73905713D02*
X89656485Y-73286666D01*
X89989819Y-72905713D02*
X88989819Y-72905713D01*
X89466009Y-72905713D02*
X89466009Y-72334285D01*
X89989819Y-72334285D02*
X88989819Y-72334285D01*
X89894580Y-71286666D02*
X89942200Y-71334285D01*
X89942200Y-71334285D02*
X89989819Y-71477142D01*
X89989819Y-71477142D02*
X89989819Y-71572380D01*
X89989819Y-71572380D02*
X89942200Y-71715237D01*
X89942200Y-71715237D02*
X89846961Y-71810475D01*
X89846961Y-71810475D02*
X89751723Y-71858094D01*
X89751723Y-71858094D02*
X89561247Y-71905713D01*
X89561247Y-71905713D02*
X89418390Y-71905713D01*
X89418390Y-71905713D02*
X89227914Y-71858094D01*
X89227914Y-71858094D02*
X89132676Y-71810475D01*
X89132676Y-71810475D02*
X89037438Y-71715237D01*
X89037438Y-71715237D02*
X88989819Y-71572380D01*
X88989819Y-71572380D02*
X88989819Y-71477142D01*
X88989819Y-71477142D02*
X89037438Y-71334285D01*
X89037438Y-71334285D02*
X89085057Y-71286666D01*
X89323152Y-70429523D02*
X89989819Y-70429523D01*
X88942200Y-70667618D02*
X89656485Y-70905713D01*
X89656485Y-70905713D02*
X89656485Y-70286666D01*
X88989819Y-69715237D02*
X88989819Y-69619999D01*
X88989819Y-69619999D02*
X89037438Y-69524761D01*
X89037438Y-69524761D02*
X89085057Y-69477142D01*
X89085057Y-69477142D02*
X89180295Y-69429523D01*
X89180295Y-69429523D02*
X89370771Y-69381904D01*
X89370771Y-69381904D02*
X89608866Y-69381904D01*
X89608866Y-69381904D02*
X89799342Y-69429523D01*
X89799342Y-69429523D02*
X89894580Y-69477142D01*
X89894580Y-69477142D02*
X89942200Y-69524761D01*
X89942200Y-69524761D02*
X89989819Y-69619999D01*
X89989819Y-69619999D02*
X89989819Y-69715237D01*
X89989819Y-69715237D02*
X89942200Y-69810475D01*
X89942200Y-69810475D02*
X89894580Y-69858094D01*
X89894580Y-69858094D02*
X89799342Y-69905713D01*
X89799342Y-69905713D02*
X89608866Y-69953332D01*
X89608866Y-69953332D02*
X89370771Y-69953332D01*
X89370771Y-69953332D02*
X89180295Y-69905713D01*
X89180295Y-69905713D02*
X89085057Y-69858094D01*
X89085057Y-69858094D02*
X89037438Y-69810475D01*
X89037438Y-69810475D02*
X88989819Y-69715237D01*
X88989819Y-68524761D02*
X88989819Y-68715237D01*
X88989819Y-68715237D02*
X89037438Y-68810475D01*
X89037438Y-68810475D02*
X89085057Y-68858094D01*
X89085057Y-68858094D02*
X89227914Y-68953332D01*
X89227914Y-68953332D02*
X89418390Y-69000951D01*
X89418390Y-69000951D02*
X89799342Y-69000951D01*
X89799342Y-69000951D02*
X89894580Y-68953332D01*
X89894580Y-68953332D02*
X89942200Y-68905713D01*
X89942200Y-68905713D02*
X89989819Y-68810475D01*
X89989819Y-68810475D02*
X89989819Y-68619999D01*
X89989819Y-68619999D02*
X89942200Y-68524761D01*
X89942200Y-68524761D02*
X89894580Y-68477142D01*
X89894580Y-68477142D02*
X89799342Y-68429523D01*
X89799342Y-68429523D02*
X89561247Y-68429523D01*
X89561247Y-68429523D02*
X89466009Y-68477142D01*
X89466009Y-68477142D02*
X89418390Y-68524761D01*
X89418390Y-68524761D02*
X89370771Y-68619999D01*
X89370771Y-68619999D02*
X89370771Y-68810475D01*
X89370771Y-68810475D02*
X89418390Y-68905713D01*
X89418390Y-68905713D02*
X89466009Y-68953332D01*
X89466009Y-68953332D02*
X89561247Y-69000951D01*
X88989819Y-67572380D02*
X88989819Y-67762856D01*
X88989819Y-67762856D02*
X89037438Y-67858094D01*
X89037438Y-67858094D02*
X89085057Y-67905713D01*
X89085057Y-67905713D02*
X89227914Y-68000951D01*
X89227914Y-68000951D02*
X89418390Y-68048570D01*
X89418390Y-68048570D02*
X89799342Y-68048570D01*
X89799342Y-68048570D02*
X89894580Y-68000951D01*
X89894580Y-68000951D02*
X89942200Y-67953332D01*
X89942200Y-67953332D02*
X89989819Y-67858094D01*
X89989819Y-67858094D02*
X89989819Y-67667618D01*
X89989819Y-67667618D02*
X89942200Y-67572380D01*
X89942200Y-67572380D02*
X89894580Y-67524761D01*
X89894580Y-67524761D02*
X89799342Y-67477142D01*
X89799342Y-67477142D02*
X89561247Y-67477142D01*
X89561247Y-67477142D02*
X89466009Y-67524761D01*
X89466009Y-67524761D02*
X89418390Y-67572380D01*
X89418390Y-67572380D02*
X89370771Y-67667618D01*
X89370771Y-67667618D02*
X89370771Y-67858094D01*
X89370771Y-67858094D02*
X89418390Y-67953332D01*
X89418390Y-67953332D02*
X89466009Y-68000951D01*
X89466009Y-68000951D02*
X89561247Y-68048570D01*
X89704104Y-67096189D02*
X89704104Y-66619999D01*
X89989819Y-67191427D02*
X88989819Y-66858094D01*
X88989819Y-66858094D02*
X89989819Y-66524761D01*
X89989819Y-66191427D02*
X88989819Y-66191427D01*
X88989819Y-66191427D02*
X88989819Y-65810475D01*
X88989819Y-65810475D02*
X89037438Y-65715237D01*
X89037438Y-65715237D02*
X89085057Y-65667618D01*
X89085057Y-65667618D02*
X89180295Y-65619999D01*
X89180295Y-65619999D02*
X89323152Y-65619999D01*
X89323152Y-65619999D02*
X89418390Y-65667618D01*
X89418390Y-65667618D02*
X89466009Y-65715237D01*
X89466009Y-65715237D02*
X89513628Y-65810475D01*
X89513628Y-65810475D02*
X89513628Y-66191427D01*
X81861541Y-91469819D02*
X82480588Y-91469819D01*
X82480588Y-91469819D02*
X82147255Y-91850771D01*
X82147255Y-91850771D02*
X82290112Y-91850771D01*
X82290112Y-91850771D02*
X82385350Y-91898390D01*
X82385350Y-91898390D02*
X82432969Y-91946009D01*
X82432969Y-91946009D02*
X82480588Y-92041247D01*
X82480588Y-92041247D02*
X82480588Y-92279342D01*
X82480588Y-92279342D02*
X82432969Y-92374580D01*
X82432969Y-92374580D02*
X82385350Y-92422200D01*
X82385350Y-92422200D02*
X82290112Y-92469819D01*
X82290112Y-92469819D02*
X82004398Y-92469819D01*
X82004398Y-92469819D02*
X81909160Y-92422200D01*
X81909160Y-92422200D02*
X81861541Y-92374580D01*
X108239160Y-53162200D02*
X108382017Y-53209819D01*
X108382017Y-53209819D02*
X108620112Y-53209819D01*
X108620112Y-53209819D02*
X108715350Y-53162200D01*
X108715350Y-53162200D02*
X108762969Y-53114580D01*
X108762969Y-53114580D02*
X108810588Y-53019342D01*
X108810588Y-53019342D02*
X108810588Y-52924104D01*
X108810588Y-52924104D02*
X108762969Y-52828866D01*
X108762969Y-52828866D02*
X108715350Y-52781247D01*
X108715350Y-52781247D02*
X108620112Y-52733628D01*
X108620112Y-52733628D02*
X108429636Y-52686009D01*
X108429636Y-52686009D02*
X108334398Y-52638390D01*
X108334398Y-52638390D02*
X108286779Y-52590771D01*
X108286779Y-52590771D02*
X108239160Y-52495533D01*
X108239160Y-52495533D02*
X108239160Y-52400295D01*
X108239160Y-52400295D02*
X108286779Y-52305057D01*
X108286779Y-52305057D02*
X108334398Y-52257438D01*
X108334398Y-52257438D02*
X108429636Y-52209819D01*
X108429636Y-52209819D02*
X108667731Y-52209819D01*
X108667731Y-52209819D02*
X108810588Y-52257438D01*
X109143922Y-52209819D02*
X109382017Y-53209819D01*
X109382017Y-53209819D02*
X109572493Y-52495533D01*
X109572493Y-52495533D02*
X109762969Y-53209819D01*
X109762969Y-53209819D02*
X110001065Y-52209819D01*
X110382017Y-52828866D02*
X111143922Y-52828866D01*
X111620112Y-53209819D02*
X111620112Y-52209819D01*
X112096302Y-53209819D02*
X112096302Y-52209819D01*
X112096302Y-52209819D02*
X112667730Y-53209819D01*
X112667730Y-53209819D02*
X112667730Y-52209819D01*
X72320588Y-92469819D02*
X71749160Y-92469819D01*
X72034874Y-92469819D02*
X72034874Y-91469819D01*
X72034874Y-91469819D02*
X71939636Y-91612676D01*
X71939636Y-91612676D02*
X71844398Y-91707914D01*
X71844398Y-91707914D02*
X71749160Y-91755533D01*
X107016779Y-31238866D02*
X107778684Y-31238866D01*
X108588207Y-31096009D02*
X108731064Y-31143628D01*
X108731064Y-31143628D02*
X108778683Y-31191247D01*
X108778683Y-31191247D02*
X108826302Y-31286485D01*
X108826302Y-31286485D02*
X108826302Y-31429342D01*
X108826302Y-31429342D02*
X108778683Y-31524580D01*
X108778683Y-31524580D02*
X108731064Y-31572200D01*
X108731064Y-31572200D02*
X108635826Y-31619819D01*
X108635826Y-31619819D02*
X108254874Y-31619819D01*
X108254874Y-31619819D02*
X108254874Y-30619819D01*
X108254874Y-30619819D02*
X108588207Y-30619819D01*
X108588207Y-30619819D02*
X108683445Y-30667438D01*
X108683445Y-30667438D02*
X108731064Y-30715057D01*
X108731064Y-30715057D02*
X108778683Y-30810295D01*
X108778683Y-30810295D02*
X108778683Y-30905533D01*
X108778683Y-30905533D02*
X108731064Y-31000771D01*
X108731064Y-31000771D02*
X108683445Y-31048390D01*
X108683445Y-31048390D02*
X108588207Y-31096009D01*
X108588207Y-31096009D02*
X108254874Y-31096009D01*
X109207255Y-31334104D02*
X109683445Y-31334104D01*
X109112017Y-31619819D02*
X109445350Y-30619819D01*
X109445350Y-30619819D02*
X109778683Y-31619819D01*
X109969160Y-30619819D02*
X110540588Y-30619819D01*
X110254874Y-31619819D02*
X110254874Y-30619819D01*
X110731065Y-30619819D02*
X111302493Y-30619819D01*
X111016779Y-31619819D02*
X111016779Y-30619819D01*
X115160588Y-26857438D02*
X115065350Y-26809819D01*
X115065350Y-26809819D02*
X114922493Y-26809819D01*
X114922493Y-26809819D02*
X114779636Y-26857438D01*
X114779636Y-26857438D02*
X114684398Y-26952676D01*
X114684398Y-26952676D02*
X114636779Y-27047914D01*
X114636779Y-27047914D02*
X114589160Y-27238390D01*
X114589160Y-27238390D02*
X114589160Y-27381247D01*
X114589160Y-27381247D02*
X114636779Y-27571723D01*
X114636779Y-27571723D02*
X114684398Y-27666961D01*
X114684398Y-27666961D02*
X114779636Y-27762200D01*
X114779636Y-27762200D02*
X114922493Y-27809819D01*
X114922493Y-27809819D02*
X115017731Y-27809819D01*
X115017731Y-27809819D02*
X115160588Y-27762200D01*
X115160588Y-27762200D02*
X115208207Y-27714580D01*
X115208207Y-27714580D02*
X115208207Y-27381247D01*
X115208207Y-27381247D02*
X115017731Y-27381247D01*
X115636779Y-27809819D02*
X115636779Y-26809819D01*
X115636779Y-26809819D02*
X116208207Y-27809819D01*
X116208207Y-27809819D02*
X116208207Y-26809819D01*
X116684398Y-27809819D02*
X116684398Y-26809819D01*
X116684398Y-26809819D02*
X116922493Y-26809819D01*
X116922493Y-26809819D02*
X117065350Y-26857438D01*
X117065350Y-26857438D02*
X117160588Y-26952676D01*
X117160588Y-26952676D02*
X117208207Y-27047914D01*
X117208207Y-27047914D02*
X117255826Y-27238390D01*
X117255826Y-27238390D02*
X117255826Y-27381247D01*
X117255826Y-27381247D02*
X117208207Y-27571723D01*
X117208207Y-27571723D02*
X117160588Y-27666961D01*
X117160588Y-27666961D02*
X117065350Y-27762200D01*
X117065350Y-27762200D02*
X116922493Y-27809819D01*
X116922493Y-27809819D02*
X116684398Y-27809819D01*
X74631779Y-46224819D02*
X74631779Y-45224819D01*
X74631779Y-45224819D02*
X74965112Y-45939104D01*
X74965112Y-45939104D02*
X75298445Y-45224819D01*
X75298445Y-45224819D02*
X75298445Y-46224819D01*
X75917493Y-46224819D02*
X75822255Y-46177200D01*
X75822255Y-46177200D02*
X75774636Y-46129580D01*
X75774636Y-46129580D02*
X75727017Y-46034342D01*
X75727017Y-46034342D02*
X75727017Y-45748628D01*
X75727017Y-45748628D02*
X75774636Y-45653390D01*
X75774636Y-45653390D02*
X75822255Y-45605771D01*
X75822255Y-45605771D02*
X75917493Y-45558152D01*
X75917493Y-45558152D02*
X76060350Y-45558152D01*
X76060350Y-45558152D02*
X76155588Y-45605771D01*
X76155588Y-45605771D02*
X76203207Y-45653390D01*
X76203207Y-45653390D02*
X76250826Y-45748628D01*
X76250826Y-45748628D02*
X76250826Y-46034342D01*
X76250826Y-46034342D02*
X76203207Y-46129580D01*
X76203207Y-46129580D02*
X76155588Y-46177200D01*
X76155588Y-46177200D02*
X76060350Y-46224819D01*
X76060350Y-46224819D02*
X75917493Y-46224819D01*
X76536541Y-45558152D02*
X76917493Y-45558152D01*
X76679398Y-45224819D02*
X76679398Y-46081961D01*
X76679398Y-46081961D02*
X76727017Y-46177200D01*
X76727017Y-46177200D02*
X76822255Y-46224819D01*
X76822255Y-46224819D02*
X76917493Y-46224819D01*
X77393684Y-46224819D02*
X77298446Y-46177200D01*
X77298446Y-46177200D02*
X77250827Y-46129580D01*
X77250827Y-46129580D02*
X77203208Y-46034342D01*
X77203208Y-46034342D02*
X77203208Y-45748628D01*
X77203208Y-45748628D02*
X77250827Y-45653390D01*
X77250827Y-45653390D02*
X77298446Y-45605771D01*
X77298446Y-45605771D02*
X77393684Y-45558152D01*
X77393684Y-45558152D02*
X77536541Y-45558152D01*
X77536541Y-45558152D02*
X77631779Y-45605771D01*
X77631779Y-45605771D02*
X77679398Y-45653390D01*
X77679398Y-45653390D02*
X77727017Y-45748628D01*
X77727017Y-45748628D02*
X77727017Y-46034342D01*
X77727017Y-46034342D02*
X77679398Y-46129580D01*
X77679398Y-46129580D02*
X77631779Y-46177200D01*
X77631779Y-46177200D02*
X77536541Y-46224819D01*
X77536541Y-46224819D02*
X77393684Y-46224819D01*
X78155589Y-46224819D02*
X78155589Y-45558152D01*
X78155589Y-45748628D02*
X78203208Y-45653390D01*
X78203208Y-45653390D02*
X78250827Y-45605771D01*
X78250827Y-45605771D02*
X78346065Y-45558152D01*
X78346065Y-45558152D02*
X78441303Y-45558152D01*
X78774637Y-45843866D02*
X79536542Y-45843866D01*
X79917494Y-45224819D02*
X80536541Y-45224819D01*
X80536541Y-45224819D02*
X80203208Y-45605771D01*
X80203208Y-45605771D02*
X80346065Y-45605771D01*
X80346065Y-45605771D02*
X80441303Y-45653390D01*
X80441303Y-45653390D02*
X80488922Y-45701009D01*
X80488922Y-45701009D02*
X80536541Y-45796247D01*
X80536541Y-45796247D02*
X80536541Y-46034342D01*
X80536541Y-46034342D02*
X80488922Y-46129580D01*
X80488922Y-46129580D02*
X80441303Y-46177200D01*
X80441303Y-46177200D02*
X80346065Y-46224819D01*
X80346065Y-46224819D02*
X80060351Y-46224819D01*
X80060351Y-46224819D02*
X79965113Y-46177200D01*
X79965113Y-46177200D02*
X79917494Y-46129580D01*
X104234819Y-72212030D02*
X104234819Y-72688220D01*
X104234819Y-72688220D02*
X104711009Y-72735839D01*
X104711009Y-72735839D02*
X104663390Y-72688220D01*
X104663390Y-72688220D02*
X104615771Y-72592982D01*
X104615771Y-72592982D02*
X104615771Y-72354887D01*
X104615771Y-72354887D02*
X104663390Y-72259649D01*
X104663390Y-72259649D02*
X104711009Y-72212030D01*
X104711009Y-72212030D02*
X104806247Y-72164411D01*
X104806247Y-72164411D02*
X105044342Y-72164411D01*
X105044342Y-72164411D02*
X105139580Y-72212030D01*
X105139580Y-72212030D02*
X105187200Y-72259649D01*
X105187200Y-72259649D02*
X105234819Y-72354887D01*
X105234819Y-72354887D02*
X105234819Y-72592982D01*
X105234819Y-72592982D02*
X105187200Y-72688220D01*
X105187200Y-72688220D02*
X105139580Y-72735839D01*
X104234819Y-71878696D02*
X105234819Y-71545363D01*
X105234819Y-71545363D02*
X104234819Y-71212030D01*
X105892438Y-72164411D02*
X105844819Y-72259649D01*
X105844819Y-72259649D02*
X105844819Y-72402506D01*
X105844819Y-72402506D02*
X105892438Y-72545363D01*
X105892438Y-72545363D02*
X105987676Y-72640601D01*
X105987676Y-72640601D02*
X106082914Y-72688220D01*
X106082914Y-72688220D02*
X106273390Y-72735839D01*
X106273390Y-72735839D02*
X106416247Y-72735839D01*
X106416247Y-72735839D02*
X106606723Y-72688220D01*
X106606723Y-72688220D02*
X106701961Y-72640601D01*
X106701961Y-72640601D02*
X106797200Y-72545363D01*
X106797200Y-72545363D02*
X106844819Y-72402506D01*
X106844819Y-72402506D02*
X106844819Y-72307268D01*
X106844819Y-72307268D02*
X106797200Y-72164411D01*
X106797200Y-72164411D02*
X106749580Y-72116792D01*
X106749580Y-72116792D02*
X106416247Y-72116792D01*
X106416247Y-72116792D02*
X106416247Y-72307268D01*
X106844819Y-71688220D02*
X105844819Y-71688220D01*
X105844819Y-71688220D02*
X106844819Y-71116792D01*
X106844819Y-71116792D02*
X105844819Y-71116792D01*
X106844819Y-70640601D02*
X105844819Y-70640601D01*
X105844819Y-70640601D02*
X105844819Y-70402506D01*
X105844819Y-70402506D02*
X105892438Y-70259649D01*
X105892438Y-70259649D02*
X105987676Y-70164411D01*
X105987676Y-70164411D02*
X106082914Y-70116792D01*
X106082914Y-70116792D02*
X106273390Y-70069173D01*
X106273390Y-70069173D02*
X106416247Y-70069173D01*
X106416247Y-70069173D02*
X106606723Y-70116792D01*
X106606723Y-70116792D02*
X106701961Y-70164411D01*
X106701961Y-70164411D02*
X106797200Y-70259649D01*
X106797200Y-70259649D02*
X106844819Y-70402506D01*
X106844819Y-70402506D02*
X106844819Y-70640601D01*
X107454819Y-72831077D02*
X108454819Y-72497744D01*
X108454819Y-72497744D02*
X107454819Y-72164411D01*
X108454819Y-71831077D02*
X107454819Y-71831077D01*
X107454819Y-71831077D02*
X107454819Y-71592982D01*
X107454819Y-71592982D02*
X107502438Y-71450125D01*
X107502438Y-71450125D02*
X107597676Y-71354887D01*
X107597676Y-71354887D02*
X107692914Y-71307268D01*
X107692914Y-71307268D02*
X107883390Y-71259649D01*
X107883390Y-71259649D02*
X108026247Y-71259649D01*
X108026247Y-71259649D02*
X108216723Y-71307268D01*
X108216723Y-71307268D02*
X108311961Y-71354887D01*
X108311961Y-71354887D02*
X108407200Y-71450125D01*
X108407200Y-71450125D02*
X108454819Y-71592982D01*
X108454819Y-71592982D02*
X108454819Y-71831077D01*
X108454819Y-70831077D02*
X107454819Y-70831077D01*
X107454819Y-70831077D02*
X107454819Y-70592982D01*
X107454819Y-70592982D02*
X107502438Y-70450125D01*
X107502438Y-70450125D02*
X107597676Y-70354887D01*
X107597676Y-70354887D02*
X107692914Y-70307268D01*
X107692914Y-70307268D02*
X107883390Y-70259649D01*
X107883390Y-70259649D02*
X108026247Y-70259649D01*
X108026247Y-70259649D02*
X108216723Y-70307268D01*
X108216723Y-70307268D02*
X108311961Y-70354887D01*
X108311961Y-70354887D02*
X108407200Y-70450125D01*
X108407200Y-70450125D02*
X108454819Y-70592982D01*
X108454819Y-70592982D02*
X108454819Y-70831077D01*
X73114819Y-75127856D02*
X73114819Y-74556428D01*
X74114819Y-74842142D02*
X73114819Y-74842142D01*
X74019580Y-73651666D02*
X74067200Y-73699285D01*
X74067200Y-73699285D02*
X74114819Y-73842142D01*
X74114819Y-73842142D02*
X74114819Y-73937380D01*
X74114819Y-73937380D02*
X74067200Y-74080237D01*
X74067200Y-74080237D02*
X73971961Y-74175475D01*
X73971961Y-74175475D02*
X73876723Y-74223094D01*
X73876723Y-74223094D02*
X73686247Y-74270713D01*
X73686247Y-74270713D02*
X73543390Y-74270713D01*
X73543390Y-74270713D02*
X73352914Y-74223094D01*
X73352914Y-74223094D02*
X73257676Y-74175475D01*
X73257676Y-74175475D02*
X73162438Y-74080237D01*
X73162438Y-74080237D02*
X73114819Y-73937380D01*
X73114819Y-73937380D02*
X73114819Y-73842142D01*
X73114819Y-73842142D02*
X73162438Y-73699285D01*
X73162438Y-73699285D02*
X73210057Y-73651666D01*
X73114819Y-73318332D02*
X73114819Y-72651666D01*
X73114819Y-72651666D02*
X74114819Y-73080237D01*
X73448152Y-71842142D02*
X74114819Y-71842142D01*
X73067200Y-72080237D02*
X73781485Y-72318332D01*
X73781485Y-72318332D02*
X73781485Y-71699285D01*
X74114819Y-71318332D02*
X73114819Y-71318332D01*
X73591009Y-71318332D02*
X73591009Y-70746904D01*
X74114819Y-70746904D02*
X73114819Y-70746904D01*
X74019580Y-69699285D02*
X74067200Y-69746904D01*
X74067200Y-69746904D02*
X74114819Y-69889761D01*
X74114819Y-69889761D02*
X74114819Y-69984999D01*
X74114819Y-69984999D02*
X74067200Y-70127856D01*
X74067200Y-70127856D02*
X73971961Y-70223094D01*
X73971961Y-70223094D02*
X73876723Y-70270713D01*
X73876723Y-70270713D02*
X73686247Y-70318332D01*
X73686247Y-70318332D02*
X73543390Y-70318332D01*
X73543390Y-70318332D02*
X73352914Y-70270713D01*
X73352914Y-70270713D02*
X73257676Y-70223094D01*
X73257676Y-70223094D02*
X73162438Y-70127856D01*
X73162438Y-70127856D02*
X73114819Y-69984999D01*
X73114819Y-69984999D02*
X73114819Y-69889761D01*
X73114819Y-69889761D02*
X73162438Y-69746904D01*
X73162438Y-69746904D02*
X73210057Y-69699285D01*
X73114819Y-69080237D02*
X73114819Y-68984999D01*
X73114819Y-68984999D02*
X73162438Y-68889761D01*
X73162438Y-68889761D02*
X73210057Y-68842142D01*
X73210057Y-68842142D02*
X73305295Y-68794523D01*
X73305295Y-68794523D02*
X73495771Y-68746904D01*
X73495771Y-68746904D02*
X73733866Y-68746904D01*
X73733866Y-68746904D02*
X73924342Y-68794523D01*
X73924342Y-68794523D02*
X74019580Y-68842142D01*
X74019580Y-68842142D02*
X74067200Y-68889761D01*
X74067200Y-68889761D02*
X74114819Y-68984999D01*
X74114819Y-68984999D02*
X74114819Y-69080237D01*
X74114819Y-69080237D02*
X74067200Y-69175475D01*
X74067200Y-69175475D02*
X74019580Y-69223094D01*
X74019580Y-69223094D02*
X73924342Y-69270713D01*
X73924342Y-69270713D02*
X73733866Y-69318332D01*
X73733866Y-69318332D02*
X73495771Y-69318332D01*
X73495771Y-69318332D02*
X73305295Y-69270713D01*
X73305295Y-69270713D02*
X73210057Y-69223094D01*
X73210057Y-69223094D02*
X73162438Y-69175475D01*
X73162438Y-69175475D02*
X73114819Y-69080237D01*
X73448152Y-67889761D02*
X74114819Y-67889761D01*
X73067200Y-68127856D02*
X73781485Y-68365951D01*
X73781485Y-68365951D02*
X73781485Y-67746904D01*
X73829104Y-67413570D02*
X73829104Y-66937380D01*
X74114819Y-67508808D02*
X73114819Y-67175475D01*
X73114819Y-67175475D02*
X74114819Y-66842142D01*
X74114819Y-66508808D02*
X73114819Y-66508808D01*
X73114819Y-66508808D02*
X73114819Y-66127856D01*
X73114819Y-66127856D02*
X73162438Y-66032618D01*
X73162438Y-66032618D02*
X73210057Y-65984999D01*
X73210057Y-65984999D02*
X73305295Y-65937380D01*
X73305295Y-65937380D02*
X73448152Y-65937380D01*
X73448152Y-65937380D02*
X73543390Y-65984999D01*
X73543390Y-65984999D02*
X73591009Y-66032618D01*
X73591009Y-66032618D02*
X73638628Y-66127856D01*
X73638628Y-66127856D02*
X73638628Y-66508808D01*
X76139922Y-52717819D02*
X76711350Y-52717819D01*
X76425636Y-53717819D02*
X76425636Y-52717819D01*
X77378017Y-53194009D02*
X77520874Y-53241628D01*
X77520874Y-53241628D02*
X77568493Y-53289247D01*
X77568493Y-53289247D02*
X77616112Y-53384485D01*
X77616112Y-53384485D02*
X77616112Y-53527342D01*
X77616112Y-53527342D02*
X77568493Y-53622580D01*
X77568493Y-53622580D02*
X77520874Y-53670200D01*
X77520874Y-53670200D02*
X77425636Y-53717819D01*
X77425636Y-53717819D02*
X77044684Y-53717819D01*
X77044684Y-53717819D02*
X77044684Y-52717819D01*
X77044684Y-52717819D02*
X77378017Y-52717819D01*
X77378017Y-52717819D02*
X77473255Y-52765438D01*
X77473255Y-52765438D02*
X77520874Y-52813057D01*
X77520874Y-52813057D02*
X77568493Y-52908295D01*
X77568493Y-52908295D02*
X77568493Y-53003533D01*
X77568493Y-53003533D02*
X77520874Y-53098771D01*
X77520874Y-53098771D02*
X77473255Y-53146390D01*
X77473255Y-53146390D02*
X77378017Y-53194009D01*
X77378017Y-53194009D02*
X77044684Y-53194009D01*
X78473255Y-52717819D02*
X78282779Y-52717819D01*
X78282779Y-52717819D02*
X78187541Y-52765438D01*
X78187541Y-52765438D02*
X78139922Y-52813057D01*
X78139922Y-52813057D02*
X78044684Y-52955914D01*
X78044684Y-52955914D02*
X77997065Y-53146390D01*
X77997065Y-53146390D02*
X77997065Y-53527342D01*
X77997065Y-53527342D02*
X78044684Y-53622580D01*
X78044684Y-53622580D02*
X78092303Y-53670200D01*
X78092303Y-53670200D02*
X78187541Y-53717819D01*
X78187541Y-53717819D02*
X78378017Y-53717819D01*
X78378017Y-53717819D02*
X78473255Y-53670200D01*
X78473255Y-53670200D02*
X78520874Y-53622580D01*
X78520874Y-53622580D02*
X78568493Y-53527342D01*
X78568493Y-53527342D02*
X78568493Y-53289247D01*
X78568493Y-53289247D02*
X78520874Y-53194009D01*
X78520874Y-53194009D02*
X78473255Y-53146390D01*
X78473255Y-53146390D02*
X78378017Y-53098771D01*
X78378017Y-53098771D02*
X78187541Y-53098771D01*
X78187541Y-53098771D02*
X78092303Y-53146390D01*
X78092303Y-53146390D02*
X78044684Y-53194009D01*
X78044684Y-53194009D02*
X77997065Y-53289247D01*
X79425636Y-52717819D02*
X79235160Y-52717819D01*
X79235160Y-52717819D02*
X79139922Y-52765438D01*
X79139922Y-52765438D02*
X79092303Y-52813057D01*
X79092303Y-52813057D02*
X78997065Y-52955914D01*
X78997065Y-52955914D02*
X78949446Y-53146390D01*
X78949446Y-53146390D02*
X78949446Y-53527342D01*
X78949446Y-53527342D02*
X78997065Y-53622580D01*
X78997065Y-53622580D02*
X79044684Y-53670200D01*
X79044684Y-53670200D02*
X79139922Y-53717819D01*
X79139922Y-53717819D02*
X79330398Y-53717819D01*
X79330398Y-53717819D02*
X79425636Y-53670200D01*
X79425636Y-53670200D02*
X79473255Y-53622580D01*
X79473255Y-53622580D02*
X79520874Y-53527342D01*
X79520874Y-53527342D02*
X79520874Y-53289247D01*
X79520874Y-53289247D02*
X79473255Y-53194009D01*
X79473255Y-53194009D02*
X79425636Y-53146390D01*
X79425636Y-53146390D02*
X79330398Y-53098771D01*
X79330398Y-53098771D02*
X79139922Y-53098771D01*
X79139922Y-53098771D02*
X79044684Y-53146390D01*
X79044684Y-53146390D02*
X78997065Y-53194009D01*
X78997065Y-53194009D02*
X78949446Y-53289247D01*
X80378017Y-53051152D02*
X80378017Y-53717819D01*
X80139922Y-52670200D02*
X79901827Y-53384485D01*
X79901827Y-53384485D02*
X80520874Y-53384485D01*
X80806589Y-52717819D02*
X81425636Y-52717819D01*
X81425636Y-52717819D02*
X81092303Y-53098771D01*
X81092303Y-53098771D02*
X81235160Y-53098771D01*
X81235160Y-53098771D02*
X81330398Y-53146390D01*
X81330398Y-53146390D02*
X81378017Y-53194009D01*
X81378017Y-53194009D02*
X81425636Y-53289247D01*
X81425636Y-53289247D02*
X81425636Y-53527342D01*
X81425636Y-53527342D02*
X81378017Y-53622580D01*
X81378017Y-53622580D02*
X81330398Y-53670200D01*
X81330398Y-53670200D02*
X81235160Y-53717819D01*
X81235160Y-53717819D02*
X80949446Y-53717819D01*
X80949446Y-53717819D02*
X80854208Y-53670200D01*
X80854208Y-53670200D02*
X80806589Y-53622580D01*
X81854208Y-53717819D02*
X81854208Y-52717819D01*
X82425636Y-53717819D02*
X81997065Y-53146390D01*
X82425636Y-52717819D02*
X81854208Y-53289247D01*
X83520874Y-53813057D02*
X83425636Y-53765438D01*
X83425636Y-53765438D02*
X83330398Y-53670200D01*
X83330398Y-53670200D02*
X83187541Y-53527342D01*
X83187541Y-53527342D02*
X83092303Y-53479723D01*
X83092303Y-53479723D02*
X82997065Y-53479723D01*
X83044684Y-53717819D02*
X82949446Y-53670200D01*
X82949446Y-53670200D02*
X82854208Y-53574961D01*
X82854208Y-53574961D02*
X82806589Y-53384485D01*
X82806589Y-53384485D02*
X82806589Y-53051152D01*
X82806589Y-53051152D02*
X82854208Y-52860676D01*
X82854208Y-52860676D02*
X82949446Y-52765438D01*
X82949446Y-52765438D02*
X83044684Y-52717819D01*
X83044684Y-52717819D02*
X83235160Y-52717819D01*
X83235160Y-52717819D02*
X83330398Y-52765438D01*
X83330398Y-52765438D02*
X83425636Y-52860676D01*
X83425636Y-52860676D02*
X83473255Y-53051152D01*
X83473255Y-53051152D02*
X83473255Y-53384485D01*
X83473255Y-53384485D02*
X83425636Y-53574961D01*
X83425636Y-53574961D02*
X83330398Y-53670200D01*
X83330398Y-53670200D02*
X83235160Y-53717819D01*
X83235160Y-53717819D02*
X83044684Y-53717819D01*
X95443922Y-52717819D02*
X96015350Y-52717819D01*
X95729636Y-53717819D02*
X95729636Y-52717819D01*
X96682017Y-53194009D02*
X96824874Y-53241628D01*
X96824874Y-53241628D02*
X96872493Y-53289247D01*
X96872493Y-53289247D02*
X96920112Y-53384485D01*
X96920112Y-53384485D02*
X96920112Y-53527342D01*
X96920112Y-53527342D02*
X96872493Y-53622580D01*
X96872493Y-53622580D02*
X96824874Y-53670200D01*
X96824874Y-53670200D02*
X96729636Y-53717819D01*
X96729636Y-53717819D02*
X96348684Y-53717819D01*
X96348684Y-53717819D02*
X96348684Y-52717819D01*
X96348684Y-52717819D02*
X96682017Y-52717819D01*
X96682017Y-52717819D02*
X96777255Y-52765438D01*
X96777255Y-52765438D02*
X96824874Y-52813057D01*
X96824874Y-52813057D02*
X96872493Y-52908295D01*
X96872493Y-52908295D02*
X96872493Y-53003533D01*
X96872493Y-53003533D02*
X96824874Y-53098771D01*
X96824874Y-53098771D02*
X96777255Y-53146390D01*
X96777255Y-53146390D02*
X96682017Y-53194009D01*
X96682017Y-53194009D02*
X96348684Y-53194009D01*
X97777255Y-52717819D02*
X97586779Y-52717819D01*
X97586779Y-52717819D02*
X97491541Y-52765438D01*
X97491541Y-52765438D02*
X97443922Y-52813057D01*
X97443922Y-52813057D02*
X97348684Y-52955914D01*
X97348684Y-52955914D02*
X97301065Y-53146390D01*
X97301065Y-53146390D02*
X97301065Y-53527342D01*
X97301065Y-53527342D02*
X97348684Y-53622580D01*
X97348684Y-53622580D02*
X97396303Y-53670200D01*
X97396303Y-53670200D02*
X97491541Y-53717819D01*
X97491541Y-53717819D02*
X97682017Y-53717819D01*
X97682017Y-53717819D02*
X97777255Y-53670200D01*
X97777255Y-53670200D02*
X97824874Y-53622580D01*
X97824874Y-53622580D02*
X97872493Y-53527342D01*
X97872493Y-53527342D02*
X97872493Y-53289247D01*
X97872493Y-53289247D02*
X97824874Y-53194009D01*
X97824874Y-53194009D02*
X97777255Y-53146390D01*
X97777255Y-53146390D02*
X97682017Y-53098771D01*
X97682017Y-53098771D02*
X97491541Y-53098771D01*
X97491541Y-53098771D02*
X97396303Y-53146390D01*
X97396303Y-53146390D02*
X97348684Y-53194009D01*
X97348684Y-53194009D02*
X97301065Y-53289247D01*
X98729636Y-52717819D02*
X98539160Y-52717819D01*
X98539160Y-52717819D02*
X98443922Y-52765438D01*
X98443922Y-52765438D02*
X98396303Y-52813057D01*
X98396303Y-52813057D02*
X98301065Y-52955914D01*
X98301065Y-52955914D02*
X98253446Y-53146390D01*
X98253446Y-53146390D02*
X98253446Y-53527342D01*
X98253446Y-53527342D02*
X98301065Y-53622580D01*
X98301065Y-53622580D02*
X98348684Y-53670200D01*
X98348684Y-53670200D02*
X98443922Y-53717819D01*
X98443922Y-53717819D02*
X98634398Y-53717819D01*
X98634398Y-53717819D02*
X98729636Y-53670200D01*
X98729636Y-53670200D02*
X98777255Y-53622580D01*
X98777255Y-53622580D02*
X98824874Y-53527342D01*
X98824874Y-53527342D02*
X98824874Y-53289247D01*
X98824874Y-53289247D02*
X98777255Y-53194009D01*
X98777255Y-53194009D02*
X98729636Y-53146390D01*
X98729636Y-53146390D02*
X98634398Y-53098771D01*
X98634398Y-53098771D02*
X98443922Y-53098771D01*
X98443922Y-53098771D02*
X98348684Y-53146390D01*
X98348684Y-53146390D02*
X98301065Y-53194009D01*
X98301065Y-53194009D02*
X98253446Y-53289247D01*
X99682017Y-53051152D02*
X99682017Y-53717819D01*
X99443922Y-52670200D02*
X99205827Y-53384485D01*
X99205827Y-53384485D02*
X99824874Y-53384485D01*
X100110589Y-52717819D02*
X100729636Y-52717819D01*
X100729636Y-52717819D02*
X100396303Y-53098771D01*
X100396303Y-53098771D02*
X100539160Y-53098771D01*
X100539160Y-53098771D02*
X100634398Y-53146390D01*
X100634398Y-53146390D02*
X100682017Y-53194009D01*
X100682017Y-53194009D02*
X100729636Y-53289247D01*
X100729636Y-53289247D02*
X100729636Y-53527342D01*
X100729636Y-53527342D02*
X100682017Y-53622580D01*
X100682017Y-53622580D02*
X100634398Y-53670200D01*
X100634398Y-53670200D02*
X100539160Y-53717819D01*
X100539160Y-53717819D02*
X100253446Y-53717819D01*
X100253446Y-53717819D02*
X100158208Y-53670200D01*
X100158208Y-53670200D02*
X100110589Y-53622580D01*
X101158208Y-53717819D02*
X101158208Y-52717819D01*
X101729636Y-53717819D02*
X101301065Y-53146390D01*
X101729636Y-52717819D02*
X101158208Y-53289247D01*
X102824874Y-53813057D02*
X102729636Y-53765438D01*
X102729636Y-53765438D02*
X102634398Y-53670200D01*
X102634398Y-53670200D02*
X102491541Y-53527342D01*
X102491541Y-53527342D02*
X102396303Y-53479723D01*
X102396303Y-53479723D02*
X102301065Y-53479723D01*
X102348684Y-53717819D02*
X102253446Y-53670200D01*
X102253446Y-53670200D02*
X102158208Y-53574961D01*
X102158208Y-53574961D02*
X102110589Y-53384485D01*
X102110589Y-53384485D02*
X102110589Y-53051152D01*
X102110589Y-53051152D02*
X102158208Y-52860676D01*
X102158208Y-52860676D02*
X102253446Y-52765438D01*
X102253446Y-52765438D02*
X102348684Y-52717819D01*
X102348684Y-52717819D02*
X102539160Y-52717819D01*
X102539160Y-52717819D02*
X102634398Y-52765438D01*
X102634398Y-52765438D02*
X102729636Y-52860676D01*
X102729636Y-52860676D02*
X102777255Y-53051152D01*
X102777255Y-53051152D02*
X102777255Y-53384485D01*
X102777255Y-53384485D02*
X102729636Y-53574961D01*
X102729636Y-53574961D02*
X102634398Y-53670200D01*
X102634398Y-53670200D02*
X102539160Y-53717819D01*
X102539160Y-53717819D02*
X102348684Y-53717819D01*
X38039922Y-52717819D02*
X38611350Y-52717819D01*
X38325636Y-53717819D02*
X38325636Y-52717819D01*
X39278017Y-53194009D02*
X39420874Y-53241628D01*
X39420874Y-53241628D02*
X39468493Y-53289247D01*
X39468493Y-53289247D02*
X39516112Y-53384485D01*
X39516112Y-53384485D02*
X39516112Y-53527342D01*
X39516112Y-53527342D02*
X39468493Y-53622580D01*
X39468493Y-53622580D02*
X39420874Y-53670200D01*
X39420874Y-53670200D02*
X39325636Y-53717819D01*
X39325636Y-53717819D02*
X38944684Y-53717819D01*
X38944684Y-53717819D02*
X38944684Y-52717819D01*
X38944684Y-52717819D02*
X39278017Y-52717819D01*
X39278017Y-52717819D02*
X39373255Y-52765438D01*
X39373255Y-52765438D02*
X39420874Y-52813057D01*
X39420874Y-52813057D02*
X39468493Y-52908295D01*
X39468493Y-52908295D02*
X39468493Y-53003533D01*
X39468493Y-53003533D02*
X39420874Y-53098771D01*
X39420874Y-53098771D02*
X39373255Y-53146390D01*
X39373255Y-53146390D02*
X39278017Y-53194009D01*
X39278017Y-53194009D02*
X38944684Y-53194009D01*
X40373255Y-52717819D02*
X40182779Y-52717819D01*
X40182779Y-52717819D02*
X40087541Y-52765438D01*
X40087541Y-52765438D02*
X40039922Y-52813057D01*
X40039922Y-52813057D02*
X39944684Y-52955914D01*
X39944684Y-52955914D02*
X39897065Y-53146390D01*
X39897065Y-53146390D02*
X39897065Y-53527342D01*
X39897065Y-53527342D02*
X39944684Y-53622580D01*
X39944684Y-53622580D02*
X39992303Y-53670200D01*
X39992303Y-53670200D02*
X40087541Y-53717819D01*
X40087541Y-53717819D02*
X40278017Y-53717819D01*
X40278017Y-53717819D02*
X40373255Y-53670200D01*
X40373255Y-53670200D02*
X40420874Y-53622580D01*
X40420874Y-53622580D02*
X40468493Y-53527342D01*
X40468493Y-53527342D02*
X40468493Y-53289247D01*
X40468493Y-53289247D02*
X40420874Y-53194009D01*
X40420874Y-53194009D02*
X40373255Y-53146390D01*
X40373255Y-53146390D02*
X40278017Y-53098771D01*
X40278017Y-53098771D02*
X40087541Y-53098771D01*
X40087541Y-53098771D02*
X39992303Y-53146390D01*
X39992303Y-53146390D02*
X39944684Y-53194009D01*
X39944684Y-53194009D02*
X39897065Y-53289247D01*
X41325636Y-52717819D02*
X41135160Y-52717819D01*
X41135160Y-52717819D02*
X41039922Y-52765438D01*
X41039922Y-52765438D02*
X40992303Y-52813057D01*
X40992303Y-52813057D02*
X40897065Y-52955914D01*
X40897065Y-52955914D02*
X40849446Y-53146390D01*
X40849446Y-53146390D02*
X40849446Y-53527342D01*
X40849446Y-53527342D02*
X40897065Y-53622580D01*
X40897065Y-53622580D02*
X40944684Y-53670200D01*
X40944684Y-53670200D02*
X41039922Y-53717819D01*
X41039922Y-53717819D02*
X41230398Y-53717819D01*
X41230398Y-53717819D02*
X41325636Y-53670200D01*
X41325636Y-53670200D02*
X41373255Y-53622580D01*
X41373255Y-53622580D02*
X41420874Y-53527342D01*
X41420874Y-53527342D02*
X41420874Y-53289247D01*
X41420874Y-53289247D02*
X41373255Y-53194009D01*
X41373255Y-53194009D02*
X41325636Y-53146390D01*
X41325636Y-53146390D02*
X41230398Y-53098771D01*
X41230398Y-53098771D02*
X41039922Y-53098771D01*
X41039922Y-53098771D02*
X40944684Y-53146390D01*
X40944684Y-53146390D02*
X40897065Y-53194009D01*
X40897065Y-53194009D02*
X40849446Y-53289247D01*
X42278017Y-53051152D02*
X42278017Y-53717819D01*
X42039922Y-52670200D02*
X41801827Y-53384485D01*
X41801827Y-53384485D02*
X42420874Y-53384485D01*
X42706589Y-52717819D02*
X43325636Y-52717819D01*
X43325636Y-52717819D02*
X42992303Y-53098771D01*
X42992303Y-53098771D02*
X43135160Y-53098771D01*
X43135160Y-53098771D02*
X43230398Y-53146390D01*
X43230398Y-53146390D02*
X43278017Y-53194009D01*
X43278017Y-53194009D02*
X43325636Y-53289247D01*
X43325636Y-53289247D02*
X43325636Y-53527342D01*
X43325636Y-53527342D02*
X43278017Y-53622580D01*
X43278017Y-53622580D02*
X43230398Y-53670200D01*
X43230398Y-53670200D02*
X43135160Y-53717819D01*
X43135160Y-53717819D02*
X42849446Y-53717819D01*
X42849446Y-53717819D02*
X42754208Y-53670200D01*
X42754208Y-53670200D02*
X42706589Y-53622580D01*
X43754208Y-53717819D02*
X43754208Y-52717819D01*
X44325636Y-53717819D02*
X43897065Y-53146390D01*
X44325636Y-52717819D02*
X43754208Y-53289247D01*
X45420874Y-53813057D02*
X45325636Y-53765438D01*
X45325636Y-53765438D02*
X45230398Y-53670200D01*
X45230398Y-53670200D02*
X45087541Y-53527342D01*
X45087541Y-53527342D02*
X44992303Y-53479723D01*
X44992303Y-53479723D02*
X44897065Y-53479723D01*
X44944684Y-53717819D02*
X44849446Y-53670200D01*
X44849446Y-53670200D02*
X44754208Y-53574961D01*
X44754208Y-53574961D02*
X44706589Y-53384485D01*
X44706589Y-53384485D02*
X44706589Y-53051152D01*
X44706589Y-53051152D02*
X44754208Y-52860676D01*
X44754208Y-52860676D02*
X44849446Y-52765438D01*
X44849446Y-52765438D02*
X44944684Y-52717819D01*
X44944684Y-52717819D02*
X45135160Y-52717819D01*
X45135160Y-52717819D02*
X45230398Y-52765438D01*
X45230398Y-52765438D02*
X45325636Y-52860676D01*
X45325636Y-52860676D02*
X45373255Y-53051152D01*
X45373255Y-53051152D02*
X45373255Y-53384485D01*
X45373255Y-53384485D02*
X45325636Y-53574961D01*
X45325636Y-53574961D02*
X45230398Y-53670200D01*
X45230398Y-53670200D02*
X45135160Y-53717819D01*
X45135160Y-53717819D02*
X44944684Y-53717819D01*
X98514819Y-58157856D02*
X98514819Y-58062618D01*
X98514819Y-58062618D02*
X98562438Y-57967380D01*
X98562438Y-57967380D02*
X98610057Y-57919761D01*
X98610057Y-57919761D02*
X98705295Y-57872142D01*
X98705295Y-57872142D02*
X98895771Y-57824523D01*
X98895771Y-57824523D02*
X99133866Y-57824523D01*
X99133866Y-57824523D02*
X99324342Y-57872142D01*
X99324342Y-57872142D02*
X99419580Y-57919761D01*
X99419580Y-57919761D02*
X99467200Y-57967380D01*
X99467200Y-57967380D02*
X99514819Y-58062618D01*
X99514819Y-58062618D02*
X99514819Y-58157856D01*
X99514819Y-58157856D02*
X99467200Y-58253094D01*
X99467200Y-58253094D02*
X99419580Y-58300713D01*
X99419580Y-58300713D02*
X99324342Y-58348332D01*
X99324342Y-58348332D02*
X99133866Y-58395951D01*
X99133866Y-58395951D02*
X98895771Y-58395951D01*
X98895771Y-58395951D02*
X98705295Y-58348332D01*
X98705295Y-58348332D02*
X98610057Y-58300713D01*
X98610057Y-58300713D02*
X98562438Y-58253094D01*
X98562438Y-58253094D02*
X98514819Y-58157856D01*
X99419580Y-57395951D02*
X99467200Y-57348332D01*
X99467200Y-57348332D02*
X99514819Y-57395951D01*
X99514819Y-57395951D02*
X99467200Y-57443570D01*
X99467200Y-57443570D02*
X99419580Y-57395951D01*
X99419580Y-57395951D02*
X99514819Y-57395951D01*
X99514819Y-56395952D02*
X99514819Y-56967380D01*
X99514819Y-56681666D02*
X98514819Y-56681666D01*
X98514819Y-56681666D02*
X98657676Y-56776904D01*
X98657676Y-56776904D02*
X98752914Y-56872142D01*
X98752914Y-56872142D02*
X98800533Y-56967380D01*
X98848152Y-55538809D02*
X99514819Y-55538809D01*
X98848152Y-55967380D02*
X99371961Y-55967380D01*
X99371961Y-55967380D02*
X99467200Y-55919761D01*
X99467200Y-55919761D02*
X99514819Y-55824523D01*
X99514819Y-55824523D02*
X99514819Y-55681666D01*
X99514819Y-55681666D02*
X99467200Y-55586428D01*
X99467200Y-55586428D02*
X99419580Y-55538809D01*
X98991009Y-54729285D02*
X98991009Y-55062618D01*
X99514819Y-55062618D02*
X98514819Y-55062618D01*
X98514819Y-55062618D02*
X98514819Y-54586428D01*
X106969160Y-58242200D02*
X107112017Y-58289819D01*
X107112017Y-58289819D02*
X107350112Y-58289819D01*
X107350112Y-58289819D02*
X107445350Y-58242200D01*
X107445350Y-58242200D02*
X107492969Y-58194580D01*
X107492969Y-58194580D02*
X107540588Y-58099342D01*
X107540588Y-58099342D02*
X107540588Y-58004104D01*
X107540588Y-58004104D02*
X107492969Y-57908866D01*
X107492969Y-57908866D02*
X107445350Y-57861247D01*
X107445350Y-57861247D02*
X107350112Y-57813628D01*
X107350112Y-57813628D02*
X107159636Y-57766009D01*
X107159636Y-57766009D02*
X107064398Y-57718390D01*
X107064398Y-57718390D02*
X107016779Y-57670771D01*
X107016779Y-57670771D02*
X106969160Y-57575533D01*
X106969160Y-57575533D02*
X106969160Y-57480295D01*
X106969160Y-57480295D02*
X107016779Y-57385057D01*
X107016779Y-57385057D02*
X107064398Y-57337438D01*
X107064398Y-57337438D02*
X107159636Y-57289819D01*
X107159636Y-57289819D02*
X107397731Y-57289819D01*
X107397731Y-57289819D02*
X107540588Y-57337438D01*
X107873922Y-57289819D02*
X108112017Y-58289819D01*
X108112017Y-58289819D02*
X108302493Y-57575533D01*
X108302493Y-57575533D02*
X108492969Y-58289819D01*
X108492969Y-58289819D02*
X108731065Y-57289819D01*
X109112017Y-57908866D02*
X109873922Y-57908866D01*
X110540588Y-57289819D02*
X110731064Y-57289819D01*
X110731064Y-57289819D02*
X110826302Y-57337438D01*
X110826302Y-57337438D02*
X110921540Y-57432676D01*
X110921540Y-57432676D02*
X110969159Y-57623152D01*
X110969159Y-57623152D02*
X110969159Y-57956485D01*
X110969159Y-57956485D02*
X110921540Y-58146961D01*
X110921540Y-58146961D02*
X110826302Y-58242200D01*
X110826302Y-58242200D02*
X110731064Y-58289819D01*
X110731064Y-58289819D02*
X110540588Y-58289819D01*
X110540588Y-58289819D02*
X110445350Y-58242200D01*
X110445350Y-58242200D02*
X110350112Y-58146961D01*
X110350112Y-58146961D02*
X110302493Y-57956485D01*
X110302493Y-57956485D02*
X110302493Y-57623152D01*
X110302493Y-57623152D02*
X110350112Y-57432676D01*
X110350112Y-57432676D02*
X110445350Y-57337438D01*
X110445350Y-57337438D02*
X110540588Y-57289819D01*
X111397731Y-57289819D02*
X111397731Y-58099342D01*
X111397731Y-58099342D02*
X111445350Y-58194580D01*
X111445350Y-58194580D02*
X111492969Y-58242200D01*
X111492969Y-58242200D02*
X111588207Y-58289819D01*
X111588207Y-58289819D02*
X111778683Y-58289819D01*
X111778683Y-58289819D02*
X111873921Y-58242200D01*
X111873921Y-58242200D02*
X111921540Y-58194580D01*
X111921540Y-58194580D02*
X111969159Y-58099342D01*
X111969159Y-58099342D02*
X111969159Y-57289819D01*
X112302493Y-57289819D02*
X112873921Y-57289819D01*
X112588207Y-58289819D02*
X112588207Y-57289819D01*
X60026779Y-46224819D02*
X60026779Y-45224819D01*
X60026779Y-45224819D02*
X60360112Y-45939104D01*
X60360112Y-45939104D02*
X60693445Y-45224819D01*
X60693445Y-45224819D02*
X60693445Y-46224819D01*
X61312493Y-46224819D02*
X61217255Y-46177200D01*
X61217255Y-46177200D02*
X61169636Y-46129580D01*
X61169636Y-46129580D02*
X61122017Y-46034342D01*
X61122017Y-46034342D02*
X61122017Y-45748628D01*
X61122017Y-45748628D02*
X61169636Y-45653390D01*
X61169636Y-45653390D02*
X61217255Y-45605771D01*
X61217255Y-45605771D02*
X61312493Y-45558152D01*
X61312493Y-45558152D02*
X61455350Y-45558152D01*
X61455350Y-45558152D02*
X61550588Y-45605771D01*
X61550588Y-45605771D02*
X61598207Y-45653390D01*
X61598207Y-45653390D02*
X61645826Y-45748628D01*
X61645826Y-45748628D02*
X61645826Y-46034342D01*
X61645826Y-46034342D02*
X61598207Y-46129580D01*
X61598207Y-46129580D02*
X61550588Y-46177200D01*
X61550588Y-46177200D02*
X61455350Y-46224819D01*
X61455350Y-46224819D02*
X61312493Y-46224819D01*
X61931541Y-45558152D02*
X62312493Y-45558152D01*
X62074398Y-45224819D02*
X62074398Y-46081961D01*
X62074398Y-46081961D02*
X62122017Y-46177200D01*
X62122017Y-46177200D02*
X62217255Y-46224819D01*
X62217255Y-46224819D02*
X62312493Y-46224819D01*
X62788684Y-46224819D02*
X62693446Y-46177200D01*
X62693446Y-46177200D02*
X62645827Y-46129580D01*
X62645827Y-46129580D02*
X62598208Y-46034342D01*
X62598208Y-46034342D02*
X62598208Y-45748628D01*
X62598208Y-45748628D02*
X62645827Y-45653390D01*
X62645827Y-45653390D02*
X62693446Y-45605771D01*
X62693446Y-45605771D02*
X62788684Y-45558152D01*
X62788684Y-45558152D02*
X62931541Y-45558152D01*
X62931541Y-45558152D02*
X63026779Y-45605771D01*
X63026779Y-45605771D02*
X63074398Y-45653390D01*
X63074398Y-45653390D02*
X63122017Y-45748628D01*
X63122017Y-45748628D02*
X63122017Y-46034342D01*
X63122017Y-46034342D02*
X63074398Y-46129580D01*
X63074398Y-46129580D02*
X63026779Y-46177200D01*
X63026779Y-46177200D02*
X62931541Y-46224819D01*
X62931541Y-46224819D02*
X62788684Y-46224819D01*
X63550589Y-46224819D02*
X63550589Y-45558152D01*
X63550589Y-45748628D02*
X63598208Y-45653390D01*
X63598208Y-45653390D02*
X63645827Y-45605771D01*
X63645827Y-45605771D02*
X63741065Y-45558152D01*
X63741065Y-45558152D02*
X63836303Y-45558152D01*
X64169637Y-45843866D02*
X64931542Y-45843866D01*
X65360113Y-45320057D02*
X65407732Y-45272438D01*
X65407732Y-45272438D02*
X65502970Y-45224819D01*
X65502970Y-45224819D02*
X65741065Y-45224819D01*
X65741065Y-45224819D02*
X65836303Y-45272438D01*
X65836303Y-45272438D02*
X65883922Y-45320057D01*
X65883922Y-45320057D02*
X65931541Y-45415295D01*
X65931541Y-45415295D02*
X65931541Y-45510533D01*
X65931541Y-45510533D02*
X65883922Y-45653390D01*
X65883922Y-45653390D02*
X65312494Y-46224819D01*
X65312494Y-46224819D02*
X65931541Y-46224819D01*
X57343922Y-52717819D02*
X57915350Y-52717819D01*
X57629636Y-53717819D02*
X57629636Y-52717819D01*
X58582017Y-53194009D02*
X58724874Y-53241628D01*
X58724874Y-53241628D02*
X58772493Y-53289247D01*
X58772493Y-53289247D02*
X58820112Y-53384485D01*
X58820112Y-53384485D02*
X58820112Y-53527342D01*
X58820112Y-53527342D02*
X58772493Y-53622580D01*
X58772493Y-53622580D02*
X58724874Y-53670200D01*
X58724874Y-53670200D02*
X58629636Y-53717819D01*
X58629636Y-53717819D02*
X58248684Y-53717819D01*
X58248684Y-53717819D02*
X58248684Y-52717819D01*
X58248684Y-52717819D02*
X58582017Y-52717819D01*
X58582017Y-52717819D02*
X58677255Y-52765438D01*
X58677255Y-52765438D02*
X58724874Y-52813057D01*
X58724874Y-52813057D02*
X58772493Y-52908295D01*
X58772493Y-52908295D02*
X58772493Y-53003533D01*
X58772493Y-53003533D02*
X58724874Y-53098771D01*
X58724874Y-53098771D02*
X58677255Y-53146390D01*
X58677255Y-53146390D02*
X58582017Y-53194009D01*
X58582017Y-53194009D02*
X58248684Y-53194009D01*
X59677255Y-52717819D02*
X59486779Y-52717819D01*
X59486779Y-52717819D02*
X59391541Y-52765438D01*
X59391541Y-52765438D02*
X59343922Y-52813057D01*
X59343922Y-52813057D02*
X59248684Y-52955914D01*
X59248684Y-52955914D02*
X59201065Y-53146390D01*
X59201065Y-53146390D02*
X59201065Y-53527342D01*
X59201065Y-53527342D02*
X59248684Y-53622580D01*
X59248684Y-53622580D02*
X59296303Y-53670200D01*
X59296303Y-53670200D02*
X59391541Y-53717819D01*
X59391541Y-53717819D02*
X59582017Y-53717819D01*
X59582017Y-53717819D02*
X59677255Y-53670200D01*
X59677255Y-53670200D02*
X59724874Y-53622580D01*
X59724874Y-53622580D02*
X59772493Y-53527342D01*
X59772493Y-53527342D02*
X59772493Y-53289247D01*
X59772493Y-53289247D02*
X59724874Y-53194009D01*
X59724874Y-53194009D02*
X59677255Y-53146390D01*
X59677255Y-53146390D02*
X59582017Y-53098771D01*
X59582017Y-53098771D02*
X59391541Y-53098771D01*
X59391541Y-53098771D02*
X59296303Y-53146390D01*
X59296303Y-53146390D02*
X59248684Y-53194009D01*
X59248684Y-53194009D02*
X59201065Y-53289247D01*
X60629636Y-52717819D02*
X60439160Y-52717819D01*
X60439160Y-52717819D02*
X60343922Y-52765438D01*
X60343922Y-52765438D02*
X60296303Y-52813057D01*
X60296303Y-52813057D02*
X60201065Y-52955914D01*
X60201065Y-52955914D02*
X60153446Y-53146390D01*
X60153446Y-53146390D02*
X60153446Y-53527342D01*
X60153446Y-53527342D02*
X60201065Y-53622580D01*
X60201065Y-53622580D02*
X60248684Y-53670200D01*
X60248684Y-53670200D02*
X60343922Y-53717819D01*
X60343922Y-53717819D02*
X60534398Y-53717819D01*
X60534398Y-53717819D02*
X60629636Y-53670200D01*
X60629636Y-53670200D02*
X60677255Y-53622580D01*
X60677255Y-53622580D02*
X60724874Y-53527342D01*
X60724874Y-53527342D02*
X60724874Y-53289247D01*
X60724874Y-53289247D02*
X60677255Y-53194009D01*
X60677255Y-53194009D02*
X60629636Y-53146390D01*
X60629636Y-53146390D02*
X60534398Y-53098771D01*
X60534398Y-53098771D02*
X60343922Y-53098771D01*
X60343922Y-53098771D02*
X60248684Y-53146390D01*
X60248684Y-53146390D02*
X60201065Y-53194009D01*
X60201065Y-53194009D02*
X60153446Y-53289247D01*
X61582017Y-53051152D02*
X61582017Y-53717819D01*
X61343922Y-52670200D02*
X61105827Y-53384485D01*
X61105827Y-53384485D02*
X61724874Y-53384485D01*
X62010589Y-52717819D02*
X62629636Y-52717819D01*
X62629636Y-52717819D02*
X62296303Y-53098771D01*
X62296303Y-53098771D02*
X62439160Y-53098771D01*
X62439160Y-53098771D02*
X62534398Y-53146390D01*
X62534398Y-53146390D02*
X62582017Y-53194009D01*
X62582017Y-53194009D02*
X62629636Y-53289247D01*
X62629636Y-53289247D02*
X62629636Y-53527342D01*
X62629636Y-53527342D02*
X62582017Y-53622580D01*
X62582017Y-53622580D02*
X62534398Y-53670200D01*
X62534398Y-53670200D02*
X62439160Y-53717819D01*
X62439160Y-53717819D02*
X62153446Y-53717819D01*
X62153446Y-53717819D02*
X62058208Y-53670200D01*
X62058208Y-53670200D02*
X62010589Y-53622580D01*
X63058208Y-53717819D02*
X63058208Y-52717819D01*
X63629636Y-53717819D02*
X63201065Y-53146390D01*
X63629636Y-52717819D02*
X63058208Y-53289247D01*
X64724874Y-53813057D02*
X64629636Y-53765438D01*
X64629636Y-53765438D02*
X64534398Y-53670200D01*
X64534398Y-53670200D02*
X64391541Y-53527342D01*
X64391541Y-53527342D02*
X64296303Y-53479723D01*
X64296303Y-53479723D02*
X64201065Y-53479723D01*
X64248684Y-53717819D02*
X64153446Y-53670200D01*
X64153446Y-53670200D02*
X64058208Y-53574961D01*
X64058208Y-53574961D02*
X64010589Y-53384485D01*
X64010589Y-53384485D02*
X64010589Y-53051152D01*
X64010589Y-53051152D02*
X64058208Y-52860676D01*
X64058208Y-52860676D02*
X64153446Y-52765438D01*
X64153446Y-52765438D02*
X64248684Y-52717819D01*
X64248684Y-52717819D02*
X64439160Y-52717819D01*
X64439160Y-52717819D02*
X64534398Y-52765438D01*
X64534398Y-52765438D02*
X64629636Y-52860676D01*
X64629636Y-52860676D02*
X64677255Y-53051152D01*
X64677255Y-53051152D02*
X64677255Y-53384485D01*
X64677255Y-53384485D02*
X64629636Y-53574961D01*
X64629636Y-53574961D02*
X64534398Y-53670200D01*
X64534398Y-53670200D02*
X64439160Y-53717819D01*
X64439160Y-53717819D02*
X64248684Y-53717819D01*
X109648333Y-91799580D02*
X109600714Y-91847200D01*
X109600714Y-91847200D02*
X109457857Y-91894819D01*
X109457857Y-91894819D02*
X109362619Y-91894819D01*
X109362619Y-91894819D02*
X109219762Y-91847200D01*
X109219762Y-91847200D02*
X109124524Y-91751961D01*
X109124524Y-91751961D02*
X109076905Y-91656723D01*
X109076905Y-91656723D02*
X109029286Y-91466247D01*
X109029286Y-91466247D02*
X109029286Y-91323390D01*
X109029286Y-91323390D02*
X109076905Y-91132914D01*
X109076905Y-91132914D02*
X109124524Y-91037676D01*
X109124524Y-91037676D02*
X109219762Y-90942438D01*
X109219762Y-90942438D02*
X109362619Y-90894819D01*
X109362619Y-90894819D02*
X109457857Y-90894819D01*
X109457857Y-90894819D02*
X109600714Y-90942438D01*
X109600714Y-90942438D02*
X109648333Y-90990057D01*
X110029286Y-90990057D02*
X110076905Y-90942438D01*
X110076905Y-90942438D02*
X110172143Y-90894819D01*
X110172143Y-90894819D02*
X110410238Y-90894819D01*
X110410238Y-90894819D02*
X110505476Y-90942438D01*
X110505476Y-90942438D02*
X110553095Y-90990057D01*
X110553095Y-90990057D02*
X110600714Y-91085295D01*
X110600714Y-91085295D02*
X110600714Y-91180533D01*
X110600714Y-91180533D02*
X110553095Y-91323390D01*
X110553095Y-91323390D02*
X109981667Y-91894819D01*
X109981667Y-91894819D02*
X110600714Y-91894819D01*
X114994819Y-102408094D02*
X113994819Y-102408094D01*
X113994819Y-102408094D02*
X113994819Y-102169999D01*
X113994819Y-102169999D02*
X114042438Y-102027142D01*
X114042438Y-102027142D02*
X114137676Y-101931904D01*
X114137676Y-101931904D02*
X114232914Y-101884285D01*
X114232914Y-101884285D02*
X114423390Y-101836666D01*
X114423390Y-101836666D02*
X114566247Y-101836666D01*
X114566247Y-101836666D02*
X114756723Y-101884285D01*
X114756723Y-101884285D02*
X114851961Y-101931904D01*
X114851961Y-101931904D02*
X114947200Y-102027142D01*
X114947200Y-102027142D02*
X114994819Y-102169999D01*
X114994819Y-102169999D02*
X114994819Y-102408094D01*
X114994819Y-100884285D02*
X114994819Y-101455713D01*
X114994819Y-101169999D02*
X113994819Y-101169999D01*
X113994819Y-101169999D02*
X114137676Y-101265237D01*
X114137676Y-101265237D02*
X114232914Y-101360475D01*
X114232914Y-101360475D02*
X114280533Y-101455713D01*
X74859819Y-100766666D02*
X74383628Y-101099999D01*
X74859819Y-101338094D02*
X73859819Y-101338094D01*
X73859819Y-101338094D02*
X73859819Y-100957142D01*
X73859819Y-100957142D02*
X73907438Y-100861904D01*
X73907438Y-100861904D02*
X73955057Y-100814285D01*
X73955057Y-100814285D02*
X74050295Y-100766666D01*
X74050295Y-100766666D02*
X74193152Y-100766666D01*
X74193152Y-100766666D02*
X74288390Y-100814285D01*
X74288390Y-100814285D02*
X74336009Y-100861904D01*
X74336009Y-100861904D02*
X74383628Y-100957142D01*
X74383628Y-100957142D02*
X74383628Y-101338094D01*
X74859819Y-100290475D02*
X74859819Y-100099999D01*
X74859819Y-100099999D02*
X74812200Y-100004761D01*
X74812200Y-100004761D02*
X74764580Y-99957142D01*
X74764580Y-99957142D02*
X74621723Y-99861904D01*
X74621723Y-99861904D02*
X74431247Y-99814285D01*
X74431247Y-99814285D02*
X74050295Y-99814285D01*
X74050295Y-99814285D02*
X73955057Y-99861904D01*
X73955057Y-99861904D02*
X73907438Y-99909523D01*
X73907438Y-99909523D02*
X73859819Y-100004761D01*
X73859819Y-100004761D02*
X73859819Y-100195237D01*
X73859819Y-100195237D02*
X73907438Y-100290475D01*
X73907438Y-100290475D02*
X73955057Y-100338094D01*
X73955057Y-100338094D02*
X74050295Y-100385713D01*
X74050295Y-100385713D02*
X74288390Y-100385713D01*
X74288390Y-100385713D02*
X74383628Y-100338094D01*
X74383628Y-100338094D02*
X74431247Y-100290475D01*
X74431247Y-100290475D02*
X74478866Y-100195237D01*
X74478866Y-100195237D02*
X74478866Y-100004761D01*
X74478866Y-100004761D02*
X74431247Y-99909523D01*
X74431247Y-99909523D02*
X74383628Y-99861904D01*
X74383628Y-99861904D02*
X74288390Y-99814285D01*
X105283095Y-84919819D02*
X105283095Y-85729342D01*
X105283095Y-85729342D02*
X105330714Y-85824580D01*
X105330714Y-85824580D02*
X105378333Y-85872200D01*
X105378333Y-85872200D02*
X105473571Y-85919819D01*
X105473571Y-85919819D02*
X105664047Y-85919819D01*
X105664047Y-85919819D02*
X105759285Y-85872200D01*
X105759285Y-85872200D02*
X105806904Y-85824580D01*
X105806904Y-85824580D02*
X105854523Y-85729342D01*
X105854523Y-85729342D02*
X105854523Y-84919819D01*
X106854523Y-85919819D02*
X106283095Y-85919819D01*
X106568809Y-85919819D02*
X106568809Y-84919819D01*
X106568809Y-84919819D02*
X106473571Y-85062676D01*
X106473571Y-85062676D02*
X106378333Y-85157914D01*
X106378333Y-85157914D02*
X106283095Y-85205533D01*
X115403333Y-81999580D02*
X115355714Y-82047200D01*
X115355714Y-82047200D02*
X115212857Y-82094819D01*
X115212857Y-82094819D02*
X115117619Y-82094819D01*
X115117619Y-82094819D02*
X114974762Y-82047200D01*
X114974762Y-82047200D02*
X114879524Y-81951961D01*
X114879524Y-81951961D02*
X114831905Y-81856723D01*
X114831905Y-81856723D02*
X114784286Y-81666247D01*
X114784286Y-81666247D02*
X114784286Y-81523390D01*
X114784286Y-81523390D02*
X114831905Y-81332914D01*
X114831905Y-81332914D02*
X114879524Y-81237676D01*
X114879524Y-81237676D02*
X114974762Y-81142438D01*
X114974762Y-81142438D02*
X115117619Y-81094819D01*
X115117619Y-81094819D02*
X115212857Y-81094819D01*
X115212857Y-81094819D02*
X115355714Y-81142438D01*
X115355714Y-81142438D02*
X115403333Y-81190057D01*
X116355714Y-82094819D02*
X115784286Y-82094819D01*
X116070000Y-82094819D02*
X116070000Y-81094819D01*
X116070000Y-81094819D02*
X115974762Y-81237676D01*
X115974762Y-81237676D02*
X115879524Y-81332914D01*
X115879524Y-81332914D02*
X115784286Y-81380533D01*
X60633333Y-101159819D02*
X60300000Y-100683628D01*
X60061905Y-101159819D02*
X60061905Y-100159819D01*
X60061905Y-100159819D02*
X60442857Y-100159819D01*
X60442857Y-100159819D02*
X60538095Y-100207438D01*
X60538095Y-100207438D02*
X60585714Y-100255057D01*
X60585714Y-100255057D02*
X60633333Y-100350295D01*
X60633333Y-100350295D02*
X60633333Y-100493152D01*
X60633333Y-100493152D02*
X60585714Y-100588390D01*
X60585714Y-100588390D02*
X60538095Y-100636009D01*
X60538095Y-100636009D02*
X60442857Y-100683628D01*
X60442857Y-100683628D02*
X60061905Y-100683628D01*
X61538095Y-100159819D02*
X61061905Y-100159819D01*
X61061905Y-100159819D02*
X61014286Y-100636009D01*
X61014286Y-100636009D02*
X61061905Y-100588390D01*
X61061905Y-100588390D02*
X61157143Y-100540771D01*
X61157143Y-100540771D02*
X61395238Y-100540771D01*
X61395238Y-100540771D02*
X61490476Y-100588390D01*
X61490476Y-100588390D02*
X61538095Y-100636009D01*
X61538095Y-100636009D02*
X61585714Y-100731247D01*
X61585714Y-100731247D02*
X61585714Y-100969342D01*
X61585714Y-100969342D02*
X61538095Y-101064580D01*
X61538095Y-101064580D02*
X61490476Y-101112200D01*
X61490476Y-101112200D02*
X61395238Y-101159819D01*
X61395238Y-101159819D02*
X61157143Y-101159819D01*
X61157143Y-101159819D02*
X61061905Y-101112200D01*
X61061905Y-101112200D02*
X61014286Y-101064580D01*
X50458810Y-61624819D02*
X50458810Y-60624819D01*
X51506428Y-61529580D02*
X51458809Y-61577200D01*
X51458809Y-61577200D02*
X51315952Y-61624819D01*
X51315952Y-61624819D02*
X51220714Y-61624819D01*
X51220714Y-61624819D02*
X51077857Y-61577200D01*
X51077857Y-61577200D02*
X50982619Y-61481961D01*
X50982619Y-61481961D02*
X50935000Y-61386723D01*
X50935000Y-61386723D02*
X50887381Y-61196247D01*
X50887381Y-61196247D02*
X50887381Y-61053390D01*
X50887381Y-61053390D02*
X50935000Y-60862914D01*
X50935000Y-60862914D02*
X50982619Y-60767676D01*
X50982619Y-60767676D02*
X51077857Y-60672438D01*
X51077857Y-60672438D02*
X51220714Y-60624819D01*
X51220714Y-60624819D02*
X51315952Y-60624819D01*
X51315952Y-60624819D02*
X51458809Y-60672438D01*
X51458809Y-60672438D02*
X51506428Y-60720057D01*
X52458809Y-61624819D02*
X51887381Y-61624819D01*
X52173095Y-61624819D02*
X52173095Y-60624819D01*
X52173095Y-60624819D02*
X52077857Y-60767676D01*
X52077857Y-60767676D02*
X51982619Y-60862914D01*
X51982619Y-60862914D02*
X51887381Y-60910533D01*
X115624819Y-102542857D02*
X115148628Y-102876190D01*
X115624819Y-103114285D02*
X114624819Y-103114285D01*
X114624819Y-103114285D02*
X114624819Y-102733333D01*
X114624819Y-102733333D02*
X114672438Y-102638095D01*
X114672438Y-102638095D02*
X114720057Y-102590476D01*
X114720057Y-102590476D02*
X114815295Y-102542857D01*
X114815295Y-102542857D02*
X114958152Y-102542857D01*
X114958152Y-102542857D02*
X115053390Y-102590476D01*
X115053390Y-102590476D02*
X115101009Y-102638095D01*
X115101009Y-102638095D02*
X115148628Y-102733333D01*
X115148628Y-102733333D02*
X115148628Y-103114285D01*
X115624819Y-101590476D02*
X115624819Y-102161904D01*
X115624819Y-101876190D02*
X114624819Y-101876190D01*
X114624819Y-101876190D02*
X114767676Y-101971428D01*
X114767676Y-101971428D02*
X114862914Y-102066666D01*
X114862914Y-102066666D02*
X114910533Y-102161904D01*
X114720057Y-101209523D02*
X114672438Y-101161904D01*
X114672438Y-101161904D02*
X114624819Y-101066666D01*
X114624819Y-101066666D02*
X114624819Y-100828571D01*
X114624819Y-100828571D02*
X114672438Y-100733333D01*
X114672438Y-100733333D02*
X114720057Y-100685714D01*
X114720057Y-100685714D02*
X114815295Y-100638095D01*
X114815295Y-100638095D02*
X114910533Y-100638095D01*
X114910533Y-100638095D02*
X115053390Y-100685714D01*
X115053390Y-100685714D02*
X115624819Y-101257142D01*
X115624819Y-101257142D02*
X115624819Y-100638095D01*
X36206667Y-72647200D02*
X36349524Y-72694819D01*
X36349524Y-72694819D02*
X36587619Y-72694819D01*
X36587619Y-72694819D02*
X36682857Y-72647200D01*
X36682857Y-72647200D02*
X36730476Y-72599580D01*
X36730476Y-72599580D02*
X36778095Y-72504342D01*
X36778095Y-72504342D02*
X36778095Y-72409104D01*
X36778095Y-72409104D02*
X36730476Y-72313866D01*
X36730476Y-72313866D02*
X36682857Y-72266247D01*
X36682857Y-72266247D02*
X36587619Y-72218628D01*
X36587619Y-72218628D02*
X36397143Y-72171009D01*
X36397143Y-72171009D02*
X36301905Y-72123390D01*
X36301905Y-72123390D02*
X36254286Y-72075771D01*
X36254286Y-72075771D02*
X36206667Y-71980533D01*
X36206667Y-71980533D02*
X36206667Y-71885295D01*
X36206667Y-71885295D02*
X36254286Y-71790057D01*
X36254286Y-71790057D02*
X36301905Y-71742438D01*
X36301905Y-71742438D02*
X36397143Y-71694819D01*
X36397143Y-71694819D02*
X36635238Y-71694819D01*
X36635238Y-71694819D02*
X36778095Y-71742438D01*
X37111429Y-71694819D02*
X37349524Y-72694819D01*
X37349524Y-72694819D02*
X37540000Y-71980533D01*
X37540000Y-71980533D02*
X37730476Y-72694819D01*
X37730476Y-72694819D02*
X37968572Y-71694819D01*
X38778095Y-72028152D02*
X38778095Y-72694819D01*
X38540000Y-71647200D02*
X38301905Y-72361485D01*
X38301905Y-72361485D02*
X38920952Y-72361485D01*
X25261667Y-63177200D02*
X25404524Y-63224819D01*
X25404524Y-63224819D02*
X25642619Y-63224819D01*
X25642619Y-63224819D02*
X25737857Y-63177200D01*
X25737857Y-63177200D02*
X25785476Y-63129580D01*
X25785476Y-63129580D02*
X25833095Y-63034342D01*
X25833095Y-63034342D02*
X25833095Y-62939104D01*
X25833095Y-62939104D02*
X25785476Y-62843866D01*
X25785476Y-62843866D02*
X25737857Y-62796247D01*
X25737857Y-62796247D02*
X25642619Y-62748628D01*
X25642619Y-62748628D02*
X25452143Y-62701009D01*
X25452143Y-62701009D02*
X25356905Y-62653390D01*
X25356905Y-62653390D02*
X25309286Y-62605771D01*
X25309286Y-62605771D02*
X25261667Y-62510533D01*
X25261667Y-62510533D02*
X25261667Y-62415295D01*
X25261667Y-62415295D02*
X25309286Y-62320057D01*
X25309286Y-62320057D02*
X25356905Y-62272438D01*
X25356905Y-62272438D02*
X25452143Y-62224819D01*
X25452143Y-62224819D02*
X25690238Y-62224819D01*
X25690238Y-62224819D02*
X25833095Y-62272438D01*
X26166429Y-62224819D02*
X26404524Y-63224819D01*
X26404524Y-63224819D02*
X26595000Y-62510533D01*
X26595000Y-62510533D02*
X26785476Y-63224819D01*
X26785476Y-63224819D02*
X27023572Y-62224819D01*
X27928333Y-63224819D02*
X27356905Y-63224819D01*
X27642619Y-63224819D02*
X27642619Y-62224819D01*
X27642619Y-62224819D02*
X27547381Y-62367676D01*
X27547381Y-62367676D02*
X27452143Y-62462914D01*
X27452143Y-62462914D02*
X27356905Y-62510533D01*
X71684819Y-101242857D02*
X71208628Y-101576190D01*
X71684819Y-101814285D02*
X70684819Y-101814285D01*
X70684819Y-101814285D02*
X70684819Y-101433333D01*
X70684819Y-101433333D02*
X70732438Y-101338095D01*
X70732438Y-101338095D02*
X70780057Y-101290476D01*
X70780057Y-101290476D02*
X70875295Y-101242857D01*
X70875295Y-101242857D02*
X71018152Y-101242857D01*
X71018152Y-101242857D02*
X71113390Y-101290476D01*
X71113390Y-101290476D02*
X71161009Y-101338095D01*
X71161009Y-101338095D02*
X71208628Y-101433333D01*
X71208628Y-101433333D02*
X71208628Y-101814285D01*
X71684819Y-100290476D02*
X71684819Y-100861904D01*
X71684819Y-100576190D02*
X70684819Y-100576190D01*
X70684819Y-100576190D02*
X70827676Y-100671428D01*
X70827676Y-100671428D02*
X70922914Y-100766666D01*
X70922914Y-100766666D02*
X70970533Y-100861904D01*
X70684819Y-99671428D02*
X70684819Y-99576190D01*
X70684819Y-99576190D02*
X70732438Y-99480952D01*
X70732438Y-99480952D02*
X70780057Y-99433333D01*
X70780057Y-99433333D02*
X70875295Y-99385714D01*
X70875295Y-99385714D02*
X71065771Y-99338095D01*
X71065771Y-99338095D02*
X71303866Y-99338095D01*
X71303866Y-99338095D02*
X71494342Y-99385714D01*
X71494342Y-99385714D02*
X71589580Y-99433333D01*
X71589580Y-99433333D02*
X71637200Y-99480952D01*
X71637200Y-99480952D02*
X71684819Y-99576190D01*
X71684819Y-99576190D02*
X71684819Y-99671428D01*
X71684819Y-99671428D02*
X71637200Y-99766666D01*
X71637200Y-99766666D02*
X71589580Y-99814285D01*
X71589580Y-99814285D02*
X71494342Y-99861904D01*
X71494342Y-99861904D02*
X71303866Y-99909523D01*
X71303866Y-99909523D02*
X71065771Y-99909523D01*
X71065771Y-99909523D02*
X70875295Y-99861904D01*
X70875295Y-99861904D02*
X70780057Y-99814285D01*
X70780057Y-99814285D02*
X70732438Y-99766666D01*
X70732438Y-99766666D02*
X70684819Y-99671428D01*
X80644580Y-111767857D02*
X80692200Y-111815476D01*
X80692200Y-111815476D02*
X80739819Y-111958333D01*
X80739819Y-111958333D02*
X80739819Y-112053571D01*
X80739819Y-112053571D02*
X80692200Y-112196428D01*
X80692200Y-112196428D02*
X80596961Y-112291666D01*
X80596961Y-112291666D02*
X80501723Y-112339285D01*
X80501723Y-112339285D02*
X80311247Y-112386904D01*
X80311247Y-112386904D02*
X80168390Y-112386904D01*
X80168390Y-112386904D02*
X79977914Y-112339285D01*
X79977914Y-112339285D02*
X79882676Y-112291666D01*
X79882676Y-112291666D02*
X79787438Y-112196428D01*
X79787438Y-112196428D02*
X79739819Y-112053571D01*
X79739819Y-112053571D02*
X79739819Y-111958333D01*
X79739819Y-111958333D02*
X79787438Y-111815476D01*
X79787438Y-111815476D02*
X79835057Y-111767857D01*
X80739819Y-110815476D02*
X80739819Y-111386904D01*
X80739819Y-111101190D02*
X79739819Y-111101190D01*
X79739819Y-111101190D02*
X79882676Y-111196428D01*
X79882676Y-111196428D02*
X79977914Y-111291666D01*
X79977914Y-111291666D02*
X80025533Y-111386904D01*
X79739819Y-109958333D02*
X79739819Y-110148809D01*
X79739819Y-110148809D02*
X79787438Y-110244047D01*
X79787438Y-110244047D02*
X79835057Y-110291666D01*
X79835057Y-110291666D02*
X79977914Y-110386904D01*
X79977914Y-110386904D02*
X80168390Y-110434523D01*
X80168390Y-110434523D02*
X80549342Y-110434523D01*
X80549342Y-110434523D02*
X80644580Y-110386904D01*
X80644580Y-110386904D02*
X80692200Y-110339285D01*
X80692200Y-110339285D02*
X80739819Y-110244047D01*
X80739819Y-110244047D02*
X80739819Y-110053571D01*
X80739819Y-110053571D02*
X80692200Y-109958333D01*
X80692200Y-109958333D02*
X80644580Y-109910714D01*
X80644580Y-109910714D02*
X80549342Y-109863095D01*
X80549342Y-109863095D02*
X80311247Y-109863095D01*
X80311247Y-109863095D02*
X80216009Y-109910714D01*
X80216009Y-109910714D02*
X80168390Y-109958333D01*
X80168390Y-109958333D02*
X80120771Y-110053571D01*
X80120771Y-110053571D02*
X80120771Y-110244047D01*
X80120771Y-110244047D02*
X80168390Y-110339285D01*
X80168390Y-110339285D02*
X80216009Y-110386904D01*
X80216009Y-110386904D02*
X80311247Y-110434523D01*
X88207582Y-61555708D02*
X88207582Y-60555708D01*
X89255200Y-61460469D02*
X89207581Y-61508089D01*
X89207581Y-61508089D02*
X89064724Y-61555708D01*
X89064724Y-61555708D02*
X88969486Y-61555708D01*
X88969486Y-61555708D02*
X88826629Y-61508089D01*
X88826629Y-61508089D02*
X88731391Y-61412850D01*
X88731391Y-61412850D02*
X88683772Y-61317612D01*
X88683772Y-61317612D02*
X88636153Y-61127136D01*
X88636153Y-61127136D02*
X88636153Y-60984279D01*
X88636153Y-60984279D02*
X88683772Y-60793803D01*
X88683772Y-60793803D02*
X88731391Y-60698565D01*
X88731391Y-60698565D02*
X88826629Y-60603327D01*
X88826629Y-60603327D02*
X88969486Y-60555708D01*
X88969486Y-60555708D02*
X89064724Y-60555708D01*
X89064724Y-60555708D02*
X89207581Y-60603327D01*
X89207581Y-60603327D02*
X89255200Y-60650946D01*
X89636153Y-60650946D02*
X89683772Y-60603327D01*
X89683772Y-60603327D02*
X89779010Y-60555708D01*
X89779010Y-60555708D02*
X90017105Y-60555708D01*
X90017105Y-60555708D02*
X90112343Y-60603327D01*
X90112343Y-60603327D02*
X90159962Y-60650946D01*
X90159962Y-60650946D02*
X90207581Y-60746184D01*
X90207581Y-60746184D02*
X90207581Y-60841422D01*
X90207581Y-60841422D02*
X90159962Y-60984279D01*
X90159962Y-60984279D02*
X89588534Y-61555708D01*
X89588534Y-61555708D02*
X90207581Y-61555708D01*
X70484580Y-111767857D02*
X70532200Y-111815476D01*
X70532200Y-111815476D02*
X70579819Y-111958333D01*
X70579819Y-111958333D02*
X70579819Y-112053571D01*
X70579819Y-112053571D02*
X70532200Y-112196428D01*
X70532200Y-112196428D02*
X70436961Y-112291666D01*
X70436961Y-112291666D02*
X70341723Y-112339285D01*
X70341723Y-112339285D02*
X70151247Y-112386904D01*
X70151247Y-112386904D02*
X70008390Y-112386904D01*
X70008390Y-112386904D02*
X69817914Y-112339285D01*
X69817914Y-112339285D02*
X69722676Y-112291666D01*
X69722676Y-112291666D02*
X69627438Y-112196428D01*
X69627438Y-112196428D02*
X69579819Y-112053571D01*
X69579819Y-112053571D02*
X69579819Y-111958333D01*
X69579819Y-111958333D02*
X69627438Y-111815476D01*
X69627438Y-111815476D02*
X69675057Y-111767857D01*
X70579819Y-110815476D02*
X70579819Y-111386904D01*
X70579819Y-111101190D02*
X69579819Y-111101190D01*
X69579819Y-111101190D02*
X69722676Y-111196428D01*
X69722676Y-111196428D02*
X69817914Y-111291666D01*
X69817914Y-111291666D02*
X69865533Y-111386904D01*
X69579819Y-109910714D02*
X69579819Y-110386904D01*
X69579819Y-110386904D02*
X70056009Y-110434523D01*
X70056009Y-110434523D02*
X70008390Y-110386904D01*
X70008390Y-110386904D02*
X69960771Y-110291666D01*
X69960771Y-110291666D02*
X69960771Y-110053571D01*
X69960771Y-110053571D02*
X70008390Y-109958333D01*
X70008390Y-109958333D02*
X70056009Y-109910714D01*
X70056009Y-109910714D02*
X70151247Y-109863095D01*
X70151247Y-109863095D02*
X70389342Y-109863095D01*
X70389342Y-109863095D02*
X70484580Y-109910714D01*
X70484580Y-109910714D02*
X70532200Y-109958333D01*
X70532200Y-109958333D02*
X70579819Y-110053571D01*
X70579819Y-110053571D02*
X70579819Y-110291666D01*
X70579819Y-110291666D02*
X70532200Y-110386904D01*
X70532200Y-110386904D02*
X70484580Y-110434523D01*
X78034819Y-100766666D02*
X77558628Y-101099999D01*
X78034819Y-101338094D02*
X77034819Y-101338094D01*
X77034819Y-101338094D02*
X77034819Y-100957142D01*
X77034819Y-100957142D02*
X77082438Y-100861904D01*
X77082438Y-100861904D02*
X77130057Y-100814285D01*
X77130057Y-100814285D02*
X77225295Y-100766666D01*
X77225295Y-100766666D02*
X77368152Y-100766666D01*
X77368152Y-100766666D02*
X77463390Y-100814285D01*
X77463390Y-100814285D02*
X77511009Y-100861904D01*
X77511009Y-100861904D02*
X77558628Y-100957142D01*
X77558628Y-100957142D02*
X77558628Y-101338094D01*
X77034819Y-99909523D02*
X77034819Y-100099999D01*
X77034819Y-100099999D02*
X77082438Y-100195237D01*
X77082438Y-100195237D02*
X77130057Y-100242856D01*
X77130057Y-100242856D02*
X77272914Y-100338094D01*
X77272914Y-100338094D02*
X77463390Y-100385713D01*
X77463390Y-100385713D02*
X77844342Y-100385713D01*
X77844342Y-100385713D02*
X77939580Y-100338094D01*
X77939580Y-100338094D02*
X77987200Y-100290475D01*
X77987200Y-100290475D02*
X78034819Y-100195237D01*
X78034819Y-100195237D02*
X78034819Y-100004761D01*
X78034819Y-100004761D02*
X77987200Y-99909523D01*
X77987200Y-99909523D02*
X77939580Y-99861904D01*
X77939580Y-99861904D02*
X77844342Y-99814285D01*
X77844342Y-99814285D02*
X77606247Y-99814285D01*
X77606247Y-99814285D02*
X77511009Y-99861904D01*
X77511009Y-99861904D02*
X77463390Y-99909523D01*
X77463390Y-99909523D02*
X77415771Y-100004761D01*
X77415771Y-100004761D02*
X77415771Y-100195237D01*
X77415771Y-100195237D02*
X77463390Y-100290475D01*
X77463390Y-100290475D02*
X77511009Y-100338094D01*
X77511009Y-100338094D02*
X77606247Y-100385713D01*
X48927142Y-100964580D02*
X48879523Y-101012200D01*
X48879523Y-101012200D02*
X48736666Y-101059819D01*
X48736666Y-101059819D02*
X48641428Y-101059819D01*
X48641428Y-101059819D02*
X48498571Y-101012200D01*
X48498571Y-101012200D02*
X48403333Y-100916961D01*
X48403333Y-100916961D02*
X48355714Y-100821723D01*
X48355714Y-100821723D02*
X48308095Y-100631247D01*
X48308095Y-100631247D02*
X48308095Y-100488390D01*
X48308095Y-100488390D02*
X48355714Y-100297914D01*
X48355714Y-100297914D02*
X48403333Y-100202676D01*
X48403333Y-100202676D02*
X48498571Y-100107438D01*
X48498571Y-100107438D02*
X48641428Y-100059819D01*
X48641428Y-100059819D02*
X48736666Y-100059819D01*
X48736666Y-100059819D02*
X48879523Y-100107438D01*
X48879523Y-100107438D02*
X48927142Y-100155057D01*
X49879523Y-101059819D02*
X49308095Y-101059819D01*
X49593809Y-101059819D02*
X49593809Y-100059819D01*
X49593809Y-100059819D02*
X49498571Y-100202676D01*
X49498571Y-100202676D02*
X49403333Y-100297914D01*
X49403333Y-100297914D02*
X49308095Y-100345533D01*
X50212857Y-100059819D02*
X50831904Y-100059819D01*
X50831904Y-100059819D02*
X50498571Y-100440771D01*
X50498571Y-100440771D02*
X50641428Y-100440771D01*
X50641428Y-100440771D02*
X50736666Y-100488390D01*
X50736666Y-100488390D02*
X50784285Y-100536009D01*
X50784285Y-100536009D02*
X50831904Y-100631247D01*
X50831904Y-100631247D02*
X50831904Y-100869342D01*
X50831904Y-100869342D02*
X50784285Y-100964580D01*
X50784285Y-100964580D02*
X50736666Y-101012200D01*
X50736666Y-101012200D02*
X50641428Y-101059819D01*
X50641428Y-101059819D02*
X50355714Y-101059819D01*
X50355714Y-101059819D02*
X50260476Y-101012200D01*
X50260476Y-101012200D02*
X50212857Y-100964580D01*
X68509819Y-100766666D02*
X68033628Y-101099999D01*
X68509819Y-101338094D02*
X67509819Y-101338094D01*
X67509819Y-101338094D02*
X67509819Y-100957142D01*
X67509819Y-100957142D02*
X67557438Y-100861904D01*
X67557438Y-100861904D02*
X67605057Y-100814285D01*
X67605057Y-100814285D02*
X67700295Y-100766666D01*
X67700295Y-100766666D02*
X67843152Y-100766666D01*
X67843152Y-100766666D02*
X67938390Y-100814285D01*
X67938390Y-100814285D02*
X67986009Y-100861904D01*
X67986009Y-100861904D02*
X68033628Y-100957142D01*
X68033628Y-100957142D02*
X68033628Y-101338094D01*
X67938390Y-100195237D02*
X67890771Y-100290475D01*
X67890771Y-100290475D02*
X67843152Y-100338094D01*
X67843152Y-100338094D02*
X67747914Y-100385713D01*
X67747914Y-100385713D02*
X67700295Y-100385713D01*
X67700295Y-100385713D02*
X67605057Y-100338094D01*
X67605057Y-100338094D02*
X67557438Y-100290475D01*
X67557438Y-100290475D02*
X67509819Y-100195237D01*
X67509819Y-100195237D02*
X67509819Y-100004761D01*
X67509819Y-100004761D02*
X67557438Y-99909523D01*
X67557438Y-99909523D02*
X67605057Y-99861904D01*
X67605057Y-99861904D02*
X67700295Y-99814285D01*
X67700295Y-99814285D02*
X67747914Y-99814285D01*
X67747914Y-99814285D02*
X67843152Y-99861904D01*
X67843152Y-99861904D02*
X67890771Y-99909523D01*
X67890771Y-99909523D02*
X67938390Y-100004761D01*
X67938390Y-100004761D02*
X67938390Y-100195237D01*
X67938390Y-100195237D02*
X67986009Y-100290475D01*
X67986009Y-100290475D02*
X68033628Y-100338094D01*
X68033628Y-100338094D02*
X68128866Y-100385713D01*
X68128866Y-100385713D02*
X68319342Y-100385713D01*
X68319342Y-100385713D02*
X68414580Y-100338094D01*
X68414580Y-100338094D02*
X68462200Y-100290475D01*
X68462200Y-100290475D02*
X68509819Y-100195237D01*
X68509819Y-100195237D02*
X68509819Y-100004761D01*
X68509819Y-100004761D02*
X68462200Y-99909523D01*
X68462200Y-99909523D02*
X68414580Y-99861904D01*
X68414580Y-99861904D02*
X68319342Y-99814285D01*
X68319342Y-99814285D02*
X68128866Y-99814285D01*
X68128866Y-99814285D02*
X68033628Y-99861904D01*
X68033628Y-99861904D02*
X67986009Y-99909523D01*
X67986009Y-99909523D02*
X67938390Y-100004761D01*
X81209819Y-100766666D02*
X80733628Y-101099999D01*
X81209819Y-101338094D02*
X80209819Y-101338094D01*
X80209819Y-101338094D02*
X80209819Y-100957142D01*
X80209819Y-100957142D02*
X80257438Y-100861904D01*
X80257438Y-100861904D02*
X80305057Y-100814285D01*
X80305057Y-100814285D02*
X80400295Y-100766666D01*
X80400295Y-100766666D02*
X80543152Y-100766666D01*
X80543152Y-100766666D02*
X80638390Y-100814285D01*
X80638390Y-100814285D02*
X80686009Y-100861904D01*
X80686009Y-100861904D02*
X80733628Y-100957142D01*
X80733628Y-100957142D02*
X80733628Y-101338094D01*
X80209819Y-100433332D02*
X80209819Y-99766666D01*
X80209819Y-99766666D02*
X81209819Y-100195237D01*
X32853333Y-53699580D02*
X32805714Y-53747200D01*
X32805714Y-53747200D02*
X32662857Y-53794819D01*
X32662857Y-53794819D02*
X32567619Y-53794819D01*
X32567619Y-53794819D02*
X32424762Y-53747200D01*
X32424762Y-53747200D02*
X32329524Y-53651961D01*
X32329524Y-53651961D02*
X32281905Y-53556723D01*
X32281905Y-53556723D02*
X32234286Y-53366247D01*
X32234286Y-53366247D02*
X32234286Y-53223390D01*
X32234286Y-53223390D02*
X32281905Y-53032914D01*
X32281905Y-53032914D02*
X32329524Y-52937676D01*
X32329524Y-52937676D02*
X32424762Y-52842438D01*
X32424762Y-52842438D02*
X32567619Y-52794819D01*
X32567619Y-52794819D02*
X32662857Y-52794819D01*
X32662857Y-52794819D02*
X32805714Y-52842438D01*
X32805714Y-52842438D02*
X32853333Y-52890057D01*
X33710476Y-52794819D02*
X33520000Y-52794819D01*
X33520000Y-52794819D02*
X33424762Y-52842438D01*
X33424762Y-52842438D02*
X33377143Y-52890057D01*
X33377143Y-52890057D02*
X33281905Y-53032914D01*
X33281905Y-53032914D02*
X33234286Y-53223390D01*
X33234286Y-53223390D02*
X33234286Y-53604342D01*
X33234286Y-53604342D02*
X33281905Y-53699580D01*
X33281905Y-53699580D02*
X33329524Y-53747200D01*
X33329524Y-53747200D02*
X33424762Y-53794819D01*
X33424762Y-53794819D02*
X33615238Y-53794819D01*
X33615238Y-53794819D02*
X33710476Y-53747200D01*
X33710476Y-53747200D02*
X33758095Y-53699580D01*
X33758095Y-53699580D02*
X33805714Y-53604342D01*
X33805714Y-53604342D02*
X33805714Y-53366247D01*
X33805714Y-53366247D02*
X33758095Y-53271009D01*
X33758095Y-53271009D02*
X33710476Y-53223390D01*
X33710476Y-53223390D02*
X33615238Y-53175771D01*
X33615238Y-53175771D02*
X33424762Y-53175771D01*
X33424762Y-53175771D02*
X33329524Y-53223390D01*
X33329524Y-53223390D02*
X33281905Y-53271009D01*
X33281905Y-53271009D02*
X33234286Y-53366247D01*
X75564580Y-111767857D02*
X75612200Y-111815476D01*
X75612200Y-111815476D02*
X75659819Y-111958333D01*
X75659819Y-111958333D02*
X75659819Y-112053571D01*
X75659819Y-112053571D02*
X75612200Y-112196428D01*
X75612200Y-112196428D02*
X75516961Y-112291666D01*
X75516961Y-112291666D02*
X75421723Y-112339285D01*
X75421723Y-112339285D02*
X75231247Y-112386904D01*
X75231247Y-112386904D02*
X75088390Y-112386904D01*
X75088390Y-112386904D02*
X74897914Y-112339285D01*
X74897914Y-112339285D02*
X74802676Y-112291666D01*
X74802676Y-112291666D02*
X74707438Y-112196428D01*
X74707438Y-112196428D02*
X74659819Y-112053571D01*
X74659819Y-112053571D02*
X74659819Y-111958333D01*
X74659819Y-111958333D02*
X74707438Y-111815476D01*
X74707438Y-111815476D02*
X74755057Y-111767857D01*
X75659819Y-110815476D02*
X75659819Y-111386904D01*
X75659819Y-111101190D02*
X74659819Y-111101190D01*
X74659819Y-111101190D02*
X74802676Y-111196428D01*
X74802676Y-111196428D02*
X74897914Y-111291666D01*
X74897914Y-111291666D02*
X74945533Y-111386904D01*
X74659819Y-110482142D02*
X74659819Y-109815476D01*
X74659819Y-109815476D02*
X75659819Y-110244047D01*
X72693810Y-61619819D02*
X72693810Y-60619819D01*
X73741428Y-61524580D02*
X73693809Y-61572200D01*
X73693809Y-61572200D02*
X73550952Y-61619819D01*
X73550952Y-61619819D02*
X73455714Y-61619819D01*
X73455714Y-61619819D02*
X73312857Y-61572200D01*
X73312857Y-61572200D02*
X73217619Y-61476961D01*
X73217619Y-61476961D02*
X73170000Y-61381723D01*
X73170000Y-61381723D02*
X73122381Y-61191247D01*
X73122381Y-61191247D02*
X73122381Y-61048390D01*
X73122381Y-61048390D02*
X73170000Y-60857914D01*
X73170000Y-60857914D02*
X73217619Y-60762676D01*
X73217619Y-60762676D02*
X73312857Y-60667438D01*
X73312857Y-60667438D02*
X73455714Y-60619819D01*
X73455714Y-60619819D02*
X73550952Y-60619819D01*
X73550952Y-60619819D02*
X73693809Y-60667438D01*
X73693809Y-60667438D02*
X73741428Y-60715057D01*
X74074762Y-60619819D02*
X74693809Y-60619819D01*
X74693809Y-60619819D02*
X74360476Y-61000771D01*
X74360476Y-61000771D02*
X74503333Y-61000771D01*
X74503333Y-61000771D02*
X74598571Y-61048390D01*
X74598571Y-61048390D02*
X74646190Y-61096009D01*
X74646190Y-61096009D02*
X74693809Y-61191247D01*
X74693809Y-61191247D02*
X74693809Y-61429342D01*
X74693809Y-61429342D02*
X74646190Y-61524580D01*
X74646190Y-61524580D02*
X74598571Y-61572200D01*
X74598571Y-61572200D02*
X74503333Y-61619819D01*
X74503333Y-61619819D02*
X74217619Y-61619819D01*
X74217619Y-61619819D02*
X74122381Y-61572200D01*
X74122381Y-61572200D02*
X74074762Y-61524580D01*
X27733333Y-54109580D02*
X27685714Y-54157200D01*
X27685714Y-54157200D02*
X27542857Y-54204819D01*
X27542857Y-54204819D02*
X27447619Y-54204819D01*
X27447619Y-54204819D02*
X27304762Y-54157200D01*
X27304762Y-54157200D02*
X27209524Y-54061961D01*
X27209524Y-54061961D02*
X27161905Y-53966723D01*
X27161905Y-53966723D02*
X27114286Y-53776247D01*
X27114286Y-53776247D02*
X27114286Y-53633390D01*
X27114286Y-53633390D02*
X27161905Y-53442914D01*
X27161905Y-53442914D02*
X27209524Y-53347676D01*
X27209524Y-53347676D02*
X27304762Y-53252438D01*
X27304762Y-53252438D02*
X27447619Y-53204819D01*
X27447619Y-53204819D02*
X27542857Y-53204819D01*
X27542857Y-53204819D02*
X27685714Y-53252438D01*
X27685714Y-53252438D02*
X27733333Y-53300057D01*
X28066667Y-53204819D02*
X28685714Y-53204819D01*
X28685714Y-53204819D02*
X28352381Y-53585771D01*
X28352381Y-53585771D02*
X28495238Y-53585771D01*
X28495238Y-53585771D02*
X28590476Y-53633390D01*
X28590476Y-53633390D02*
X28638095Y-53681009D01*
X28638095Y-53681009D02*
X28685714Y-53776247D01*
X28685714Y-53776247D02*
X28685714Y-54014342D01*
X28685714Y-54014342D02*
X28638095Y-54109580D01*
X28638095Y-54109580D02*
X28590476Y-54157200D01*
X28590476Y-54157200D02*
X28495238Y-54204819D01*
X28495238Y-54204819D02*
X28209524Y-54204819D01*
X28209524Y-54204819D02*
X28114286Y-54157200D01*
X28114286Y-54157200D02*
X28066667Y-54109580D01*
D11*
X46606667Y-35142318D02*
X46606667Y-36049461D01*
X46606667Y-36049461D02*
X46546190Y-36230889D01*
X46546190Y-36230889D02*
X46425238Y-36351842D01*
X46425238Y-36351842D02*
X46243809Y-36412318D01*
X46243809Y-36412318D02*
X46122857Y-36412318D01*
X47816190Y-35142318D02*
X47211428Y-35142318D01*
X47211428Y-35142318D02*
X47150952Y-35747080D01*
X47150952Y-35747080D02*
X47211428Y-35686603D01*
X47211428Y-35686603D02*
X47332381Y-35626127D01*
X47332381Y-35626127D02*
X47634762Y-35626127D01*
X47634762Y-35626127D02*
X47755714Y-35686603D01*
X47755714Y-35686603D02*
X47816190Y-35747080D01*
X47816190Y-35747080D02*
X47876667Y-35868032D01*
X47876667Y-35868032D02*
X47876667Y-36170413D01*
X47876667Y-36170413D02*
X47816190Y-36291365D01*
X47816190Y-36291365D02*
X47755714Y-36351842D01*
X47755714Y-36351842D02*
X47634762Y-36412318D01*
X47634762Y-36412318D02*
X47332381Y-36412318D01*
X47332381Y-36412318D02*
X47211428Y-36351842D01*
X47211428Y-36351842D02*
X47150952Y-36291365D01*
D10*
X49363333Y-95884580D02*
X49315714Y-95932200D01*
X49315714Y-95932200D02*
X49172857Y-95979819D01*
X49172857Y-95979819D02*
X49077619Y-95979819D01*
X49077619Y-95979819D02*
X48934762Y-95932200D01*
X48934762Y-95932200D02*
X48839524Y-95836961D01*
X48839524Y-95836961D02*
X48791905Y-95741723D01*
X48791905Y-95741723D02*
X48744286Y-95551247D01*
X48744286Y-95551247D02*
X48744286Y-95408390D01*
X48744286Y-95408390D02*
X48791905Y-95217914D01*
X48791905Y-95217914D02*
X48839524Y-95122676D01*
X48839524Y-95122676D02*
X48934762Y-95027438D01*
X48934762Y-95027438D02*
X49077619Y-94979819D01*
X49077619Y-94979819D02*
X49172857Y-94979819D01*
X49172857Y-94979819D02*
X49315714Y-95027438D01*
X49315714Y-95027438D02*
X49363333Y-95075057D01*
X50220476Y-95313152D02*
X50220476Y-95979819D01*
X49982381Y-94932200D02*
X49744286Y-95646485D01*
X49744286Y-95646485D02*
X50363333Y-95646485D01*
X60633333Y-94809819D02*
X60300000Y-94333628D01*
X60061905Y-94809819D02*
X60061905Y-93809819D01*
X60061905Y-93809819D02*
X60442857Y-93809819D01*
X60442857Y-93809819D02*
X60538095Y-93857438D01*
X60538095Y-93857438D02*
X60585714Y-93905057D01*
X60585714Y-93905057D02*
X60633333Y-94000295D01*
X60633333Y-94000295D02*
X60633333Y-94143152D01*
X60633333Y-94143152D02*
X60585714Y-94238390D01*
X60585714Y-94238390D02*
X60538095Y-94286009D01*
X60538095Y-94286009D02*
X60442857Y-94333628D01*
X60442857Y-94333628D02*
X60061905Y-94333628D01*
X61490476Y-94143152D02*
X61490476Y-94809819D01*
X61252381Y-93762200D02*
X61014286Y-94476485D01*
X61014286Y-94476485D02*
X61633333Y-94476485D01*
D11*
X62226667Y-35142318D02*
X62226667Y-36049461D01*
X62226667Y-36049461D02*
X62166190Y-36230889D01*
X62166190Y-36230889D02*
X62045238Y-36351842D01*
X62045238Y-36351842D02*
X61863809Y-36412318D01*
X61863809Y-36412318D02*
X61742857Y-36412318D01*
X63375714Y-35142318D02*
X63133809Y-35142318D01*
X63133809Y-35142318D02*
X63012857Y-35202794D01*
X63012857Y-35202794D02*
X62952381Y-35263270D01*
X62952381Y-35263270D02*
X62831428Y-35444699D01*
X62831428Y-35444699D02*
X62770952Y-35686603D01*
X62770952Y-35686603D02*
X62770952Y-36170413D01*
X62770952Y-36170413D02*
X62831428Y-36291365D01*
X62831428Y-36291365D02*
X62891905Y-36351842D01*
X62891905Y-36351842D02*
X63012857Y-36412318D01*
X63012857Y-36412318D02*
X63254762Y-36412318D01*
X63254762Y-36412318D02*
X63375714Y-36351842D01*
X63375714Y-36351842D02*
X63436190Y-36291365D01*
X63436190Y-36291365D02*
X63496667Y-36170413D01*
X63496667Y-36170413D02*
X63496667Y-35868032D01*
X63496667Y-35868032D02*
X63436190Y-35747080D01*
X63436190Y-35747080D02*
X63375714Y-35686603D01*
X63375714Y-35686603D02*
X63254762Y-35626127D01*
X63254762Y-35626127D02*
X63012857Y-35626127D01*
X63012857Y-35626127D02*
X62891905Y-35686603D01*
X62891905Y-35686603D02*
X62831428Y-35747080D01*
X62831428Y-35747080D02*
X62770952Y-35868032D01*
X92706667Y-35142318D02*
X92706667Y-36049461D01*
X92706667Y-36049461D02*
X92646190Y-36230889D01*
X92646190Y-36230889D02*
X92525238Y-36351842D01*
X92525238Y-36351842D02*
X92343809Y-36412318D01*
X92343809Y-36412318D02*
X92222857Y-36412318D01*
X93492857Y-35686603D02*
X93371905Y-35626127D01*
X93371905Y-35626127D02*
X93311428Y-35565651D01*
X93311428Y-35565651D02*
X93250952Y-35444699D01*
X93250952Y-35444699D02*
X93250952Y-35384222D01*
X93250952Y-35384222D02*
X93311428Y-35263270D01*
X93311428Y-35263270D02*
X93371905Y-35202794D01*
X93371905Y-35202794D02*
X93492857Y-35142318D01*
X93492857Y-35142318D02*
X93734762Y-35142318D01*
X93734762Y-35142318D02*
X93855714Y-35202794D01*
X93855714Y-35202794D02*
X93916190Y-35263270D01*
X93916190Y-35263270D02*
X93976667Y-35384222D01*
X93976667Y-35384222D02*
X93976667Y-35444699D01*
X93976667Y-35444699D02*
X93916190Y-35565651D01*
X93916190Y-35565651D02*
X93855714Y-35626127D01*
X93855714Y-35626127D02*
X93734762Y-35686603D01*
X93734762Y-35686603D02*
X93492857Y-35686603D01*
X93492857Y-35686603D02*
X93371905Y-35747080D01*
X93371905Y-35747080D02*
X93311428Y-35807556D01*
X93311428Y-35807556D02*
X93250952Y-35928508D01*
X93250952Y-35928508D02*
X93250952Y-36170413D01*
X93250952Y-36170413D02*
X93311428Y-36291365D01*
X93311428Y-36291365D02*
X93371905Y-36351842D01*
X93371905Y-36351842D02*
X93492857Y-36412318D01*
X93492857Y-36412318D02*
X93734762Y-36412318D01*
X93734762Y-36412318D02*
X93855714Y-36351842D01*
X93855714Y-36351842D02*
X93916190Y-36291365D01*
X93916190Y-36291365D02*
X93976667Y-36170413D01*
X93976667Y-36170413D02*
X93976667Y-35928508D01*
X93976667Y-35928508D02*
X93916190Y-35807556D01*
X93916190Y-35807556D02*
X93855714Y-35747080D01*
X93855714Y-35747080D02*
X93734762Y-35686603D01*
D10*
X25411667Y-82227200D02*
X25554524Y-82274819D01*
X25554524Y-82274819D02*
X25792619Y-82274819D01*
X25792619Y-82274819D02*
X25887857Y-82227200D01*
X25887857Y-82227200D02*
X25935476Y-82179580D01*
X25935476Y-82179580D02*
X25983095Y-82084342D01*
X25983095Y-82084342D02*
X25983095Y-81989104D01*
X25983095Y-81989104D02*
X25935476Y-81893866D01*
X25935476Y-81893866D02*
X25887857Y-81846247D01*
X25887857Y-81846247D02*
X25792619Y-81798628D01*
X25792619Y-81798628D02*
X25602143Y-81751009D01*
X25602143Y-81751009D02*
X25506905Y-81703390D01*
X25506905Y-81703390D02*
X25459286Y-81655771D01*
X25459286Y-81655771D02*
X25411667Y-81560533D01*
X25411667Y-81560533D02*
X25411667Y-81465295D01*
X25411667Y-81465295D02*
X25459286Y-81370057D01*
X25459286Y-81370057D02*
X25506905Y-81322438D01*
X25506905Y-81322438D02*
X25602143Y-81274819D01*
X25602143Y-81274819D02*
X25840238Y-81274819D01*
X25840238Y-81274819D02*
X25983095Y-81322438D01*
X26316429Y-81274819D02*
X26554524Y-82274819D01*
X26554524Y-82274819D02*
X26745000Y-81560533D01*
X26745000Y-81560533D02*
X26935476Y-82274819D01*
X26935476Y-82274819D02*
X27173572Y-81274819D01*
X28030714Y-81274819D02*
X27554524Y-81274819D01*
X27554524Y-81274819D02*
X27506905Y-81751009D01*
X27506905Y-81751009D02*
X27554524Y-81703390D01*
X27554524Y-81703390D02*
X27649762Y-81655771D01*
X27649762Y-81655771D02*
X27887857Y-81655771D01*
X27887857Y-81655771D02*
X27983095Y-81703390D01*
X27983095Y-81703390D02*
X28030714Y-81751009D01*
X28030714Y-81751009D02*
X28078333Y-81846247D01*
X28078333Y-81846247D02*
X28078333Y-82084342D01*
X28078333Y-82084342D02*
X28030714Y-82179580D01*
X28030714Y-82179580D02*
X27983095Y-82227200D01*
X27983095Y-82227200D02*
X27887857Y-82274819D01*
X27887857Y-82274819D02*
X27649762Y-82274819D01*
X27649762Y-82274819D02*
X27554524Y-82227200D01*
X27554524Y-82227200D02*
X27506905Y-82179580D01*
X32853333Y-46079580D02*
X32805714Y-46127200D01*
X32805714Y-46127200D02*
X32662857Y-46174819D01*
X32662857Y-46174819D02*
X32567619Y-46174819D01*
X32567619Y-46174819D02*
X32424762Y-46127200D01*
X32424762Y-46127200D02*
X32329524Y-46031961D01*
X32329524Y-46031961D02*
X32281905Y-45936723D01*
X32281905Y-45936723D02*
X32234286Y-45746247D01*
X32234286Y-45746247D02*
X32234286Y-45603390D01*
X32234286Y-45603390D02*
X32281905Y-45412914D01*
X32281905Y-45412914D02*
X32329524Y-45317676D01*
X32329524Y-45317676D02*
X32424762Y-45222438D01*
X32424762Y-45222438D02*
X32567619Y-45174819D01*
X32567619Y-45174819D02*
X32662857Y-45174819D01*
X32662857Y-45174819D02*
X32805714Y-45222438D01*
X32805714Y-45222438D02*
X32853333Y-45270057D01*
X33758095Y-45174819D02*
X33281905Y-45174819D01*
X33281905Y-45174819D02*
X33234286Y-45651009D01*
X33234286Y-45651009D02*
X33281905Y-45603390D01*
X33281905Y-45603390D02*
X33377143Y-45555771D01*
X33377143Y-45555771D02*
X33615238Y-45555771D01*
X33615238Y-45555771D02*
X33710476Y-45603390D01*
X33710476Y-45603390D02*
X33758095Y-45651009D01*
X33758095Y-45651009D02*
X33805714Y-45746247D01*
X33805714Y-45746247D02*
X33805714Y-45984342D01*
X33805714Y-45984342D02*
X33758095Y-46079580D01*
X33758095Y-46079580D02*
X33710476Y-46127200D01*
X33710476Y-46127200D02*
X33615238Y-46174819D01*
X33615238Y-46174819D02*
X33377143Y-46174819D01*
X33377143Y-46174819D02*
X33281905Y-46127200D01*
X33281905Y-46127200D02*
X33234286Y-46079580D01*
X25336667Y-72647200D02*
X25479524Y-72694819D01*
X25479524Y-72694819D02*
X25717619Y-72694819D01*
X25717619Y-72694819D02*
X25812857Y-72647200D01*
X25812857Y-72647200D02*
X25860476Y-72599580D01*
X25860476Y-72599580D02*
X25908095Y-72504342D01*
X25908095Y-72504342D02*
X25908095Y-72409104D01*
X25908095Y-72409104D02*
X25860476Y-72313866D01*
X25860476Y-72313866D02*
X25812857Y-72266247D01*
X25812857Y-72266247D02*
X25717619Y-72218628D01*
X25717619Y-72218628D02*
X25527143Y-72171009D01*
X25527143Y-72171009D02*
X25431905Y-72123390D01*
X25431905Y-72123390D02*
X25384286Y-72075771D01*
X25384286Y-72075771D02*
X25336667Y-71980533D01*
X25336667Y-71980533D02*
X25336667Y-71885295D01*
X25336667Y-71885295D02*
X25384286Y-71790057D01*
X25384286Y-71790057D02*
X25431905Y-71742438D01*
X25431905Y-71742438D02*
X25527143Y-71694819D01*
X25527143Y-71694819D02*
X25765238Y-71694819D01*
X25765238Y-71694819D02*
X25908095Y-71742438D01*
X26241429Y-71694819D02*
X26479524Y-72694819D01*
X26479524Y-72694819D02*
X26670000Y-71980533D01*
X26670000Y-71980533D02*
X26860476Y-72694819D01*
X26860476Y-72694819D02*
X27098572Y-71694819D01*
X27384286Y-71694819D02*
X28003333Y-71694819D01*
X28003333Y-71694819D02*
X27670000Y-72075771D01*
X27670000Y-72075771D02*
X27812857Y-72075771D01*
X27812857Y-72075771D02*
X27908095Y-72123390D01*
X27908095Y-72123390D02*
X27955714Y-72171009D01*
X27955714Y-72171009D02*
X28003333Y-72266247D01*
X28003333Y-72266247D02*
X28003333Y-72504342D01*
X28003333Y-72504342D02*
X27955714Y-72599580D01*
X27955714Y-72599580D02*
X27908095Y-72647200D01*
X27908095Y-72647200D02*
X27812857Y-72694819D01*
X27812857Y-72694819D02*
X27527143Y-72694819D01*
X27527143Y-72694819D02*
X27431905Y-72647200D01*
X27431905Y-72647200D02*
X27384286Y-72599580D01*
X49363333Y-106044580D02*
X49315714Y-106092200D01*
X49315714Y-106092200D02*
X49172857Y-106139819D01*
X49172857Y-106139819D02*
X49077619Y-106139819D01*
X49077619Y-106139819D02*
X48934762Y-106092200D01*
X48934762Y-106092200D02*
X48839524Y-105996961D01*
X48839524Y-105996961D02*
X48791905Y-105901723D01*
X48791905Y-105901723D02*
X48744286Y-105711247D01*
X48744286Y-105711247D02*
X48744286Y-105568390D01*
X48744286Y-105568390D02*
X48791905Y-105377914D01*
X48791905Y-105377914D02*
X48839524Y-105282676D01*
X48839524Y-105282676D02*
X48934762Y-105187438D01*
X48934762Y-105187438D02*
X49077619Y-105139819D01*
X49077619Y-105139819D02*
X49172857Y-105139819D01*
X49172857Y-105139819D02*
X49315714Y-105187438D01*
X49315714Y-105187438D02*
X49363333Y-105235057D01*
X49934762Y-105568390D02*
X49839524Y-105520771D01*
X49839524Y-105520771D02*
X49791905Y-105473152D01*
X49791905Y-105473152D02*
X49744286Y-105377914D01*
X49744286Y-105377914D02*
X49744286Y-105330295D01*
X49744286Y-105330295D02*
X49791905Y-105235057D01*
X49791905Y-105235057D02*
X49839524Y-105187438D01*
X49839524Y-105187438D02*
X49934762Y-105139819D01*
X49934762Y-105139819D02*
X50125238Y-105139819D01*
X50125238Y-105139819D02*
X50220476Y-105187438D01*
X50220476Y-105187438D02*
X50268095Y-105235057D01*
X50268095Y-105235057D02*
X50315714Y-105330295D01*
X50315714Y-105330295D02*
X50315714Y-105377914D01*
X50315714Y-105377914D02*
X50268095Y-105473152D01*
X50268095Y-105473152D02*
X50220476Y-105520771D01*
X50220476Y-105520771D02*
X50125238Y-105568390D01*
X50125238Y-105568390D02*
X49934762Y-105568390D01*
X49934762Y-105568390D02*
X49839524Y-105616009D01*
X49839524Y-105616009D02*
X49791905Y-105663628D01*
X49791905Y-105663628D02*
X49744286Y-105758866D01*
X49744286Y-105758866D02*
X49744286Y-105949342D01*
X49744286Y-105949342D02*
X49791905Y-106044580D01*
X49791905Y-106044580D02*
X49839524Y-106092200D01*
X49839524Y-106092200D02*
X49934762Y-106139819D01*
X49934762Y-106139819D02*
X50125238Y-106139819D01*
X50125238Y-106139819D02*
X50220476Y-106092200D01*
X50220476Y-106092200D02*
X50268095Y-106044580D01*
X50268095Y-106044580D02*
X50315714Y-105949342D01*
X50315714Y-105949342D02*
X50315714Y-105758866D01*
X50315714Y-105758866D02*
X50268095Y-105663628D01*
X50268095Y-105663628D02*
X50220476Y-105616009D01*
X50220476Y-105616009D02*
X50125238Y-105568390D01*
X84384819Y-101242857D02*
X83908628Y-101576190D01*
X84384819Y-101814285D02*
X83384819Y-101814285D01*
X83384819Y-101814285D02*
X83384819Y-101433333D01*
X83384819Y-101433333D02*
X83432438Y-101338095D01*
X83432438Y-101338095D02*
X83480057Y-101290476D01*
X83480057Y-101290476D02*
X83575295Y-101242857D01*
X83575295Y-101242857D02*
X83718152Y-101242857D01*
X83718152Y-101242857D02*
X83813390Y-101290476D01*
X83813390Y-101290476D02*
X83861009Y-101338095D01*
X83861009Y-101338095D02*
X83908628Y-101433333D01*
X83908628Y-101433333D02*
X83908628Y-101814285D01*
X84384819Y-100290476D02*
X84384819Y-100861904D01*
X84384819Y-100576190D02*
X83384819Y-100576190D01*
X83384819Y-100576190D02*
X83527676Y-100671428D01*
X83527676Y-100671428D02*
X83622914Y-100766666D01*
X83622914Y-100766666D02*
X83670533Y-100861904D01*
X84384819Y-99338095D02*
X84384819Y-99909523D01*
X84384819Y-99623809D02*
X83384819Y-99623809D01*
X83384819Y-99623809D02*
X83527676Y-99719047D01*
X83527676Y-99719047D02*
X83622914Y-99814285D01*
X83622914Y-99814285D02*
X83670533Y-99909523D01*
D12*
X98302576Y-114179175D02*
X98302576Y-114898842D01*
X98302576Y-114898842D02*
X98344910Y-114983508D01*
X98344910Y-114983508D02*
X98387243Y-115025842D01*
X98387243Y-115025842D02*
X98471910Y-115068175D01*
X98471910Y-115068175D02*
X98641243Y-115068175D01*
X98641243Y-115068175D02*
X98725910Y-115025842D01*
X98725910Y-115025842D02*
X98768243Y-114983508D01*
X98768243Y-114983508D02*
X98810576Y-114898842D01*
X98810576Y-114898842D02*
X98810576Y-114179175D01*
X99191576Y-114263842D02*
X99233909Y-114221508D01*
X99233909Y-114221508D02*
X99318576Y-114179175D01*
X99318576Y-114179175D02*
X99530243Y-114179175D01*
X99530243Y-114179175D02*
X99614909Y-114221508D01*
X99614909Y-114221508D02*
X99657243Y-114263842D01*
X99657243Y-114263842D02*
X99699576Y-114348508D01*
X99699576Y-114348508D02*
X99699576Y-114433175D01*
X99699576Y-114433175D02*
X99657243Y-114560175D01*
X99657243Y-114560175D02*
X99149243Y-115068175D01*
X99149243Y-115068175D02*
X99699576Y-115068175D01*
D13*
X96202239Y-103925711D02*
X96289325Y-103954739D01*
X96289325Y-103954739D02*
X96434467Y-103954739D01*
X96434467Y-103954739D02*
X96492525Y-103925711D01*
X96492525Y-103925711D02*
X96521553Y-103896682D01*
X96521553Y-103896682D02*
X96550582Y-103838625D01*
X96550582Y-103838625D02*
X96550582Y-103780568D01*
X96550582Y-103780568D02*
X96521553Y-103722511D01*
X96521553Y-103722511D02*
X96492525Y-103693482D01*
X96492525Y-103693482D02*
X96434467Y-103664453D01*
X96434467Y-103664453D02*
X96318353Y-103635425D01*
X96318353Y-103635425D02*
X96260296Y-103606396D01*
X96260296Y-103606396D02*
X96231267Y-103577368D01*
X96231267Y-103577368D02*
X96202239Y-103519311D01*
X96202239Y-103519311D02*
X96202239Y-103461253D01*
X96202239Y-103461253D02*
X96231267Y-103403196D01*
X96231267Y-103403196D02*
X96260296Y-103374168D01*
X96260296Y-103374168D02*
X96318353Y-103345139D01*
X96318353Y-103345139D02*
X96463496Y-103345139D01*
X96463496Y-103345139D02*
X96550582Y-103374168D01*
X97044067Y-103925711D02*
X96986010Y-103954739D01*
X96986010Y-103954739D02*
X96869896Y-103954739D01*
X96869896Y-103954739D02*
X96811838Y-103925711D01*
X96811838Y-103925711D02*
X96782810Y-103867653D01*
X96782810Y-103867653D02*
X96782810Y-103635425D01*
X96782810Y-103635425D02*
X96811838Y-103577368D01*
X96811838Y-103577368D02*
X96869896Y-103548339D01*
X96869896Y-103548339D02*
X96986010Y-103548339D01*
X96986010Y-103548339D02*
X97044067Y-103577368D01*
X97044067Y-103577368D02*
X97073096Y-103635425D01*
X97073096Y-103635425D02*
X97073096Y-103693482D01*
X97073096Y-103693482D02*
X96782810Y-103751539D01*
X97566581Y-103925711D02*
X97508524Y-103954739D01*
X97508524Y-103954739D02*
X97392410Y-103954739D01*
X97392410Y-103954739D02*
X97334352Y-103925711D01*
X97334352Y-103925711D02*
X97305324Y-103867653D01*
X97305324Y-103867653D02*
X97305324Y-103635425D01*
X97305324Y-103635425D02*
X97334352Y-103577368D01*
X97334352Y-103577368D02*
X97392410Y-103548339D01*
X97392410Y-103548339D02*
X97508524Y-103548339D01*
X97508524Y-103548339D02*
X97566581Y-103577368D01*
X97566581Y-103577368D02*
X97595610Y-103635425D01*
X97595610Y-103635425D02*
X97595610Y-103693482D01*
X97595610Y-103693482D02*
X97305324Y-103751539D01*
X98089095Y-103925711D02*
X98031038Y-103954739D01*
X98031038Y-103954739D02*
X97914924Y-103954739D01*
X97914924Y-103954739D02*
X97856866Y-103925711D01*
X97856866Y-103925711D02*
X97827838Y-103867653D01*
X97827838Y-103867653D02*
X97827838Y-103635425D01*
X97827838Y-103635425D02*
X97856866Y-103577368D01*
X97856866Y-103577368D02*
X97914924Y-103548339D01*
X97914924Y-103548339D02*
X98031038Y-103548339D01*
X98031038Y-103548339D02*
X98089095Y-103577368D01*
X98089095Y-103577368D02*
X98118124Y-103635425D01*
X98118124Y-103635425D02*
X98118124Y-103693482D01*
X98118124Y-103693482D02*
X97827838Y-103751539D01*
X98640638Y-103954739D02*
X98640638Y-103345139D01*
X98640638Y-103925711D02*
X98582580Y-103954739D01*
X98582580Y-103954739D02*
X98466466Y-103954739D01*
X98466466Y-103954739D02*
X98408409Y-103925711D01*
X98408409Y-103925711D02*
X98379380Y-103896682D01*
X98379380Y-103896682D02*
X98350352Y-103838625D01*
X98350352Y-103838625D02*
X98350352Y-103664453D01*
X98350352Y-103664453D02*
X98379380Y-103606396D01*
X98379380Y-103606396D02*
X98408409Y-103577368D01*
X98408409Y-103577368D02*
X98466466Y-103548339D01*
X98466466Y-103548339D02*
X98582580Y-103548339D01*
X98582580Y-103548339D02*
X98640638Y-103577368D01*
X99192181Y-103548339D02*
X99192181Y-103954739D01*
X98930923Y-103548339D02*
X98930923Y-103867653D01*
X98930923Y-103867653D02*
X98959952Y-103925711D01*
X98959952Y-103925711D02*
X99018009Y-103954739D01*
X99018009Y-103954739D02*
X99105095Y-103954739D01*
X99105095Y-103954739D02*
X99163152Y-103925711D01*
X99163152Y-103925711D02*
X99192181Y-103896682D01*
X99482466Y-103954739D02*
X99482466Y-103548339D01*
X99482466Y-103345139D02*
X99453438Y-103374168D01*
X99453438Y-103374168D02*
X99482466Y-103403196D01*
X99482466Y-103403196D02*
X99511495Y-103374168D01*
X99511495Y-103374168D02*
X99482466Y-103345139D01*
X99482466Y-103345139D02*
X99482466Y-103403196D01*
X99772752Y-103548339D02*
X99772752Y-103954739D01*
X99772752Y-103606396D02*
X99801781Y-103577368D01*
X99801781Y-103577368D02*
X99859838Y-103548339D01*
X99859838Y-103548339D02*
X99946924Y-103548339D01*
X99946924Y-103548339D02*
X100004981Y-103577368D01*
X100004981Y-103577368D02*
X100034010Y-103635425D01*
X100034010Y-103635425D02*
X100034010Y-103954739D01*
X100411381Y-103954739D02*
X100353324Y-103925711D01*
X100353324Y-103925711D02*
X100324295Y-103896682D01*
X100324295Y-103896682D02*
X100295267Y-103838625D01*
X100295267Y-103838625D02*
X100295267Y-103664453D01*
X100295267Y-103664453D02*
X100324295Y-103606396D01*
X100324295Y-103606396D02*
X100353324Y-103577368D01*
X100353324Y-103577368D02*
X100411381Y-103548339D01*
X100411381Y-103548339D02*
X100498467Y-103548339D01*
X100498467Y-103548339D02*
X100556524Y-103577368D01*
X100556524Y-103577368D02*
X100585553Y-103606396D01*
X100585553Y-103606396D02*
X100614581Y-103664453D01*
X100614581Y-103664453D02*
X100614581Y-103838625D01*
X100614581Y-103838625D02*
X100585553Y-103896682D01*
X100585553Y-103896682D02*
X100556524Y-103925711D01*
X100556524Y-103925711D02*
X100498467Y-103954739D01*
X100498467Y-103954739D02*
X100411381Y-103954739D01*
X100817781Y-103345139D02*
X101224181Y-103954739D01*
X101224181Y-103345139D02*
X100817781Y-103954739D01*
X101456409Y-103954739D02*
X101456409Y-103345139D01*
X101717667Y-103780568D02*
X102007953Y-103780568D01*
X101659610Y-103954739D02*
X101862810Y-103345139D01*
X101862810Y-103345139D02*
X102066010Y-103954739D01*
X102385324Y-103345139D02*
X102501438Y-103345139D01*
X102501438Y-103345139D02*
X102559495Y-103374168D01*
X102559495Y-103374168D02*
X102617552Y-103432225D01*
X102617552Y-103432225D02*
X102646581Y-103548339D01*
X102646581Y-103548339D02*
X102646581Y-103751539D01*
X102646581Y-103751539D02*
X102617552Y-103867653D01*
X102617552Y-103867653D02*
X102559495Y-103925711D01*
X102559495Y-103925711D02*
X102501438Y-103954739D01*
X102501438Y-103954739D02*
X102385324Y-103954739D01*
X102385324Y-103954739D02*
X102327267Y-103925711D01*
X102327267Y-103925711D02*
X102269209Y-103867653D01*
X102269209Y-103867653D02*
X102240181Y-103751539D01*
X102240181Y-103751539D02*
X102240181Y-103548339D01*
X102240181Y-103548339D02*
X102269209Y-103432225D01*
X102269209Y-103432225D02*
X102327267Y-103374168D01*
X102327267Y-103374168D02*
X102385324Y-103345139D01*
D10*
X85724580Y-111727857D02*
X85772200Y-111775476D01*
X85772200Y-111775476D02*
X85819819Y-111918333D01*
X85819819Y-111918333D02*
X85819819Y-112013571D01*
X85819819Y-112013571D02*
X85772200Y-112156428D01*
X85772200Y-112156428D02*
X85676961Y-112251666D01*
X85676961Y-112251666D02*
X85581723Y-112299285D01*
X85581723Y-112299285D02*
X85391247Y-112346904D01*
X85391247Y-112346904D02*
X85248390Y-112346904D01*
X85248390Y-112346904D02*
X85057914Y-112299285D01*
X85057914Y-112299285D02*
X84962676Y-112251666D01*
X84962676Y-112251666D02*
X84867438Y-112156428D01*
X84867438Y-112156428D02*
X84819819Y-112013571D01*
X84819819Y-112013571D02*
X84819819Y-111918333D01*
X84819819Y-111918333D02*
X84867438Y-111775476D01*
X84867438Y-111775476D02*
X84915057Y-111727857D01*
X85819819Y-110775476D02*
X85819819Y-111346904D01*
X85819819Y-111061190D02*
X84819819Y-111061190D01*
X84819819Y-111061190D02*
X84962676Y-111156428D01*
X84962676Y-111156428D02*
X85057914Y-111251666D01*
X85057914Y-111251666D02*
X85105533Y-111346904D01*
X85248390Y-110204047D02*
X85200771Y-110299285D01*
X85200771Y-110299285D02*
X85153152Y-110346904D01*
X85153152Y-110346904D02*
X85057914Y-110394523D01*
X85057914Y-110394523D02*
X85010295Y-110394523D01*
X85010295Y-110394523D02*
X84915057Y-110346904D01*
X84915057Y-110346904D02*
X84867438Y-110299285D01*
X84867438Y-110299285D02*
X84819819Y-110204047D01*
X84819819Y-110204047D02*
X84819819Y-110013571D01*
X84819819Y-110013571D02*
X84867438Y-109918333D01*
X84867438Y-109918333D02*
X84915057Y-109870714D01*
X84915057Y-109870714D02*
X85010295Y-109823095D01*
X85010295Y-109823095D02*
X85057914Y-109823095D01*
X85057914Y-109823095D02*
X85153152Y-109870714D01*
X85153152Y-109870714D02*
X85200771Y-109918333D01*
X85200771Y-109918333D02*
X85248390Y-110013571D01*
X85248390Y-110013571D02*
X85248390Y-110204047D01*
X85248390Y-110204047D02*
X85296009Y-110299285D01*
X85296009Y-110299285D02*
X85343628Y-110346904D01*
X85343628Y-110346904D02*
X85438866Y-110394523D01*
X85438866Y-110394523D02*
X85629342Y-110394523D01*
X85629342Y-110394523D02*
X85724580Y-110346904D01*
X85724580Y-110346904D02*
X85772200Y-110299285D01*
X85772200Y-110299285D02*
X85819819Y-110204047D01*
X85819819Y-110204047D02*
X85819819Y-110013571D01*
X85819819Y-110013571D02*
X85772200Y-109918333D01*
X85772200Y-109918333D02*
X85724580Y-109870714D01*
X85724580Y-109870714D02*
X85629342Y-109823095D01*
X85629342Y-109823095D02*
X85438866Y-109823095D01*
X85438866Y-109823095D02*
X85343628Y-109870714D01*
X85343628Y-109870714D02*
X85296009Y-109918333D01*
X85296009Y-109918333D02*
X85248390Y-110013571D01*
X48887142Y-111124580D02*
X48839523Y-111172200D01*
X48839523Y-111172200D02*
X48696666Y-111219819D01*
X48696666Y-111219819D02*
X48601428Y-111219819D01*
X48601428Y-111219819D02*
X48458571Y-111172200D01*
X48458571Y-111172200D02*
X48363333Y-111076961D01*
X48363333Y-111076961D02*
X48315714Y-110981723D01*
X48315714Y-110981723D02*
X48268095Y-110791247D01*
X48268095Y-110791247D02*
X48268095Y-110648390D01*
X48268095Y-110648390D02*
X48315714Y-110457914D01*
X48315714Y-110457914D02*
X48363333Y-110362676D01*
X48363333Y-110362676D02*
X48458571Y-110267438D01*
X48458571Y-110267438D02*
X48601428Y-110219819D01*
X48601428Y-110219819D02*
X48696666Y-110219819D01*
X48696666Y-110219819D02*
X48839523Y-110267438D01*
X48839523Y-110267438D02*
X48887142Y-110315057D01*
X49839523Y-111219819D02*
X49268095Y-111219819D01*
X49553809Y-111219819D02*
X49553809Y-110219819D01*
X49553809Y-110219819D02*
X49458571Y-110362676D01*
X49458571Y-110362676D02*
X49363333Y-110457914D01*
X49363333Y-110457914D02*
X49268095Y-110505533D01*
X50696666Y-110553152D02*
X50696666Y-111219819D01*
X50458571Y-110172200D02*
X50220476Y-110886485D01*
X50220476Y-110886485D02*
X50839523Y-110886485D01*
X32853333Y-40364580D02*
X32805714Y-40412200D01*
X32805714Y-40412200D02*
X32662857Y-40459819D01*
X32662857Y-40459819D02*
X32567619Y-40459819D01*
X32567619Y-40459819D02*
X32424762Y-40412200D01*
X32424762Y-40412200D02*
X32329524Y-40316961D01*
X32329524Y-40316961D02*
X32281905Y-40221723D01*
X32281905Y-40221723D02*
X32234286Y-40031247D01*
X32234286Y-40031247D02*
X32234286Y-39888390D01*
X32234286Y-39888390D02*
X32281905Y-39697914D01*
X32281905Y-39697914D02*
X32329524Y-39602676D01*
X32329524Y-39602676D02*
X32424762Y-39507438D01*
X32424762Y-39507438D02*
X32567619Y-39459819D01*
X32567619Y-39459819D02*
X32662857Y-39459819D01*
X32662857Y-39459819D02*
X32805714Y-39507438D01*
X32805714Y-39507438D02*
X32853333Y-39555057D01*
X33186667Y-39459819D02*
X33853333Y-39459819D01*
X33853333Y-39459819D02*
X33424762Y-40459819D01*
X36766667Y-91407200D02*
X36909524Y-91454819D01*
X36909524Y-91454819D02*
X37147619Y-91454819D01*
X37147619Y-91454819D02*
X37242857Y-91407200D01*
X37242857Y-91407200D02*
X37290476Y-91359580D01*
X37290476Y-91359580D02*
X37338095Y-91264342D01*
X37338095Y-91264342D02*
X37338095Y-91169104D01*
X37338095Y-91169104D02*
X37290476Y-91073866D01*
X37290476Y-91073866D02*
X37242857Y-91026247D01*
X37242857Y-91026247D02*
X37147619Y-90978628D01*
X37147619Y-90978628D02*
X36957143Y-90931009D01*
X36957143Y-90931009D02*
X36861905Y-90883390D01*
X36861905Y-90883390D02*
X36814286Y-90835771D01*
X36814286Y-90835771D02*
X36766667Y-90740533D01*
X36766667Y-90740533D02*
X36766667Y-90645295D01*
X36766667Y-90645295D02*
X36814286Y-90550057D01*
X36814286Y-90550057D02*
X36861905Y-90502438D01*
X36861905Y-90502438D02*
X36957143Y-90454819D01*
X36957143Y-90454819D02*
X37195238Y-90454819D01*
X37195238Y-90454819D02*
X37338095Y-90502438D01*
X37671429Y-90454819D02*
X37909524Y-91454819D01*
X37909524Y-91454819D02*
X38100000Y-90740533D01*
X38100000Y-90740533D02*
X38290476Y-91454819D01*
X38290476Y-91454819D02*
X38528572Y-90454819D01*
X39052381Y-90883390D02*
X38957143Y-90835771D01*
X38957143Y-90835771D02*
X38909524Y-90788152D01*
X38909524Y-90788152D02*
X38861905Y-90692914D01*
X38861905Y-90692914D02*
X38861905Y-90645295D01*
X38861905Y-90645295D02*
X38909524Y-90550057D01*
X38909524Y-90550057D02*
X38957143Y-90502438D01*
X38957143Y-90502438D02*
X39052381Y-90454819D01*
X39052381Y-90454819D02*
X39242857Y-90454819D01*
X39242857Y-90454819D02*
X39338095Y-90502438D01*
X39338095Y-90502438D02*
X39385714Y-90550057D01*
X39385714Y-90550057D02*
X39433333Y-90645295D01*
X39433333Y-90645295D02*
X39433333Y-90692914D01*
X39433333Y-90692914D02*
X39385714Y-90788152D01*
X39385714Y-90788152D02*
X39338095Y-90835771D01*
X39338095Y-90835771D02*
X39242857Y-90883390D01*
X39242857Y-90883390D02*
X39052381Y-90883390D01*
X39052381Y-90883390D02*
X38957143Y-90931009D01*
X38957143Y-90931009D02*
X38909524Y-90978628D01*
X38909524Y-90978628D02*
X38861905Y-91073866D01*
X38861905Y-91073866D02*
X38861905Y-91264342D01*
X38861905Y-91264342D02*
X38909524Y-91359580D01*
X38909524Y-91359580D02*
X38957143Y-91407200D01*
X38957143Y-91407200D02*
X39052381Y-91454819D01*
X39052381Y-91454819D02*
X39242857Y-91454819D01*
X39242857Y-91454819D02*
X39338095Y-91407200D01*
X39338095Y-91407200D02*
X39385714Y-91359580D01*
X39385714Y-91359580D02*
X39433333Y-91264342D01*
X39433333Y-91264342D02*
X39433333Y-91073866D01*
X39433333Y-91073866D02*
X39385714Y-90978628D01*
X39385714Y-90978628D02*
X39338095Y-90931009D01*
X39338095Y-90931009D02*
X39242857Y-90883390D01*
X36596667Y-82227200D02*
X36739524Y-82274819D01*
X36739524Y-82274819D02*
X36977619Y-82274819D01*
X36977619Y-82274819D02*
X37072857Y-82227200D01*
X37072857Y-82227200D02*
X37120476Y-82179580D01*
X37120476Y-82179580D02*
X37168095Y-82084342D01*
X37168095Y-82084342D02*
X37168095Y-81989104D01*
X37168095Y-81989104D02*
X37120476Y-81893866D01*
X37120476Y-81893866D02*
X37072857Y-81846247D01*
X37072857Y-81846247D02*
X36977619Y-81798628D01*
X36977619Y-81798628D02*
X36787143Y-81751009D01*
X36787143Y-81751009D02*
X36691905Y-81703390D01*
X36691905Y-81703390D02*
X36644286Y-81655771D01*
X36644286Y-81655771D02*
X36596667Y-81560533D01*
X36596667Y-81560533D02*
X36596667Y-81465295D01*
X36596667Y-81465295D02*
X36644286Y-81370057D01*
X36644286Y-81370057D02*
X36691905Y-81322438D01*
X36691905Y-81322438D02*
X36787143Y-81274819D01*
X36787143Y-81274819D02*
X37025238Y-81274819D01*
X37025238Y-81274819D02*
X37168095Y-81322438D01*
X37501429Y-81274819D02*
X37739524Y-82274819D01*
X37739524Y-82274819D02*
X37930000Y-81560533D01*
X37930000Y-81560533D02*
X38120476Y-82274819D01*
X38120476Y-82274819D02*
X38358572Y-81274819D01*
X39168095Y-81274819D02*
X38977619Y-81274819D01*
X38977619Y-81274819D02*
X38882381Y-81322438D01*
X38882381Y-81322438D02*
X38834762Y-81370057D01*
X38834762Y-81370057D02*
X38739524Y-81512914D01*
X38739524Y-81512914D02*
X38691905Y-81703390D01*
X38691905Y-81703390D02*
X38691905Y-82084342D01*
X38691905Y-82084342D02*
X38739524Y-82179580D01*
X38739524Y-82179580D02*
X38787143Y-82227200D01*
X38787143Y-82227200D02*
X38882381Y-82274819D01*
X38882381Y-82274819D02*
X39072857Y-82274819D01*
X39072857Y-82274819D02*
X39168095Y-82227200D01*
X39168095Y-82227200D02*
X39215714Y-82179580D01*
X39215714Y-82179580D02*
X39263333Y-82084342D01*
X39263333Y-82084342D02*
X39263333Y-81846247D01*
X39263333Y-81846247D02*
X39215714Y-81751009D01*
X39215714Y-81751009D02*
X39168095Y-81703390D01*
X39168095Y-81703390D02*
X39072857Y-81655771D01*
X39072857Y-81655771D02*
X38882381Y-81655771D01*
X38882381Y-81655771D02*
X38787143Y-81703390D01*
X38787143Y-81703390D02*
X38739524Y-81751009D01*
X38739524Y-81751009D02*
X38691905Y-81846247D01*
X60633333Y-91634819D02*
X60300000Y-91158628D01*
X60061905Y-91634819D02*
X60061905Y-90634819D01*
X60061905Y-90634819D02*
X60442857Y-90634819D01*
X60442857Y-90634819D02*
X60538095Y-90682438D01*
X60538095Y-90682438D02*
X60585714Y-90730057D01*
X60585714Y-90730057D02*
X60633333Y-90825295D01*
X60633333Y-90825295D02*
X60633333Y-90968152D01*
X60633333Y-90968152D02*
X60585714Y-91063390D01*
X60585714Y-91063390D02*
X60538095Y-91111009D01*
X60538095Y-91111009D02*
X60442857Y-91158628D01*
X60442857Y-91158628D02*
X60061905Y-91158628D01*
X61014286Y-90730057D02*
X61061905Y-90682438D01*
X61061905Y-90682438D02*
X61157143Y-90634819D01*
X61157143Y-90634819D02*
X61395238Y-90634819D01*
X61395238Y-90634819D02*
X61490476Y-90682438D01*
X61490476Y-90682438D02*
X61538095Y-90730057D01*
X61538095Y-90730057D02*
X61585714Y-90825295D01*
X61585714Y-90825295D02*
X61585714Y-90920533D01*
X61585714Y-90920533D02*
X61538095Y-91063390D01*
X61538095Y-91063390D02*
X60966667Y-91634819D01*
X60966667Y-91634819D02*
X61585714Y-91634819D01*
X60633333Y-97984819D02*
X60300000Y-97508628D01*
X60061905Y-97984819D02*
X60061905Y-96984819D01*
X60061905Y-96984819D02*
X60442857Y-96984819D01*
X60442857Y-96984819D02*
X60538095Y-97032438D01*
X60538095Y-97032438D02*
X60585714Y-97080057D01*
X60585714Y-97080057D02*
X60633333Y-97175295D01*
X60633333Y-97175295D02*
X60633333Y-97318152D01*
X60633333Y-97318152D02*
X60585714Y-97413390D01*
X60585714Y-97413390D02*
X60538095Y-97461009D01*
X60538095Y-97461009D02*
X60442857Y-97508628D01*
X60442857Y-97508628D02*
X60061905Y-97508628D01*
X60966667Y-96984819D02*
X61585714Y-96984819D01*
X61585714Y-96984819D02*
X61252381Y-97365771D01*
X61252381Y-97365771D02*
X61395238Y-97365771D01*
X61395238Y-97365771D02*
X61490476Y-97413390D01*
X61490476Y-97413390D02*
X61538095Y-97461009D01*
X61538095Y-97461009D02*
X61585714Y-97556247D01*
X61585714Y-97556247D02*
X61585714Y-97794342D01*
X61585714Y-97794342D02*
X61538095Y-97889580D01*
X61538095Y-97889580D02*
X61490476Y-97937200D01*
X61490476Y-97937200D02*
X61395238Y-97984819D01*
X61395238Y-97984819D02*
X61109524Y-97984819D01*
X61109524Y-97984819D02*
X61014286Y-97937200D01*
X61014286Y-97937200D02*
X60966667Y-97889580D01*
X25336667Y-91407200D02*
X25479524Y-91454819D01*
X25479524Y-91454819D02*
X25717619Y-91454819D01*
X25717619Y-91454819D02*
X25812857Y-91407200D01*
X25812857Y-91407200D02*
X25860476Y-91359580D01*
X25860476Y-91359580D02*
X25908095Y-91264342D01*
X25908095Y-91264342D02*
X25908095Y-91169104D01*
X25908095Y-91169104D02*
X25860476Y-91073866D01*
X25860476Y-91073866D02*
X25812857Y-91026247D01*
X25812857Y-91026247D02*
X25717619Y-90978628D01*
X25717619Y-90978628D02*
X25527143Y-90931009D01*
X25527143Y-90931009D02*
X25431905Y-90883390D01*
X25431905Y-90883390D02*
X25384286Y-90835771D01*
X25384286Y-90835771D02*
X25336667Y-90740533D01*
X25336667Y-90740533D02*
X25336667Y-90645295D01*
X25336667Y-90645295D02*
X25384286Y-90550057D01*
X25384286Y-90550057D02*
X25431905Y-90502438D01*
X25431905Y-90502438D02*
X25527143Y-90454819D01*
X25527143Y-90454819D02*
X25765238Y-90454819D01*
X25765238Y-90454819D02*
X25908095Y-90502438D01*
X26241429Y-90454819D02*
X26479524Y-91454819D01*
X26479524Y-91454819D02*
X26670000Y-90740533D01*
X26670000Y-90740533D02*
X26860476Y-91454819D01*
X26860476Y-91454819D02*
X27098572Y-90454819D01*
X27384286Y-90454819D02*
X28050952Y-90454819D01*
X28050952Y-90454819D02*
X27622381Y-91454819D01*
X118394819Y-73826666D02*
X117918628Y-74159999D01*
X118394819Y-74398094D02*
X117394819Y-74398094D01*
X117394819Y-74398094D02*
X117394819Y-74017142D01*
X117394819Y-74017142D02*
X117442438Y-73921904D01*
X117442438Y-73921904D02*
X117490057Y-73874285D01*
X117490057Y-73874285D02*
X117585295Y-73826666D01*
X117585295Y-73826666D02*
X117728152Y-73826666D01*
X117728152Y-73826666D02*
X117823390Y-73874285D01*
X117823390Y-73874285D02*
X117871009Y-73921904D01*
X117871009Y-73921904D02*
X117918628Y-74017142D01*
X117918628Y-74017142D02*
X117918628Y-74398094D01*
X118394819Y-72874285D02*
X118394819Y-73445713D01*
X118394819Y-73159999D02*
X117394819Y-73159999D01*
X117394819Y-73159999D02*
X117537676Y-73255237D01*
X117537676Y-73255237D02*
X117632914Y-73350475D01*
X117632914Y-73350475D02*
X117680533Y-73445713D01*
D11*
X77466667Y-35142318D02*
X77466667Y-36049461D01*
X77466667Y-36049461D02*
X77406190Y-36230889D01*
X77406190Y-36230889D02*
X77285238Y-36351842D01*
X77285238Y-36351842D02*
X77103809Y-36412318D01*
X77103809Y-36412318D02*
X76982857Y-36412318D01*
X77950476Y-35142318D02*
X78797143Y-35142318D01*
X78797143Y-35142318D02*
X78252857Y-36412318D01*
D10*
X36206667Y-63122200D02*
X36349524Y-63169819D01*
X36349524Y-63169819D02*
X36587619Y-63169819D01*
X36587619Y-63169819D02*
X36682857Y-63122200D01*
X36682857Y-63122200D02*
X36730476Y-63074580D01*
X36730476Y-63074580D02*
X36778095Y-62979342D01*
X36778095Y-62979342D02*
X36778095Y-62884104D01*
X36778095Y-62884104D02*
X36730476Y-62788866D01*
X36730476Y-62788866D02*
X36682857Y-62741247D01*
X36682857Y-62741247D02*
X36587619Y-62693628D01*
X36587619Y-62693628D02*
X36397143Y-62646009D01*
X36397143Y-62646009D02*
X36301905Y-62598390D01*
X36301905Y-62598390D02*
X36254286Y-62550771D01*
X36254286Y-62550771D02*
X36206667Y-62455533D01*
X36206667Y-62455533D02*
X36206667Y-62360295D01*
X36206667Y-62360295D02*
X36254286Y-62265057D01*
X36254286Y-62265057D02*
X36301905Y-62217438D01*
X36301905Y-62217438D02*
X36397143Y-62169819D01*
X36397143Y-62169819D02*
X36635238Y-62169819D01*
X36635238Y-62169819D02*
X36778095Y-62217438D01*
X37111429Y-62169819D02*
X37349524Y-63169819D01*
X37349524Y-63169819D02*
X37540000Y-62455533D01*
X37540000Y-62455533D02*
X37730476Y-63169819D01*
X37730476Y-63169819D02*
X37968572Y-62169819D01*
X38301905Y-62265057D02*
X38349524Y-62217438D01*
X38349524Y-62217438D02*
X38444762Y-62169819D01*
X38444762Y-62169819D02*
X38682857Y-62169819D01*
X38682857Y-62169819D02*
X38778095Y-62217438D01*
X38778095Y-62217438D02*
X38825714Y-62265057D01*
X38825714Y-62265057D02*
X38873333Y-62360295D01*
X38873333Y-62360295D02*
X38873333Y-62455533D01*
X38873333Y-62455533D02*
X38825714Y-62598390D01*
X38825714Y-62598390D02*
X38254286Y-63169819D01*
X38254286Y-63169819D02*
X38873333Y-63169819D01*
D14*
%TO.C,C2*%
X112450000Y-89119000D02*
X112450000Y-90515000D01*
X112450000Y-89119000D02*
X118690000Y-89119000D01*
X112450000Y-92365000D02*
X112450000Y-93761000D01*
X112450000Y-93761000D02*
X118690000Y-93761000D01*
X118690000Y-89119000D02*
X118690000Y-90515000D01*
X118690000Y-92365000D02*
X118690000Y-93761000D01*
%TO.C,J1*%
X70690000Y-82970000D02*
X72020000Y-82970000D01*
X70690000Y-84300000D02*
X70690000Y-82970000D01*
X70690000Y-85570000D02*
X70690000Y-90710000D01*
X70690000Y-85570000D02*
X73350000Y-85570000D01*
X70690000Y-90710000D02*
X73350000Y-90710000D01*
X73350000Y-85570000D02*
X73350000Y-90710000D01*
%TO.C,D1*%
X116264000Y-103230000D02*
X116420000Y-103230000D01*
X118580000Y-103230000D02*
X118736000Y-103230000D01*
X116421392Y-99997666D02*
G75*
G03*
X116264485Y-103229999I1078608J-1672334D01*
G01*
X116420164Y-100628871D02*
G75*
G03*
X116420001Y-102710960I1079836J-1041129D01*
G01*
X118579999Y-102710960D02*
G75*
G03*
X118579836Y-100628871I-1079999J1040960D01*
G01*
X118735515Y-103229999D02*
G75*
G03*
X118578608Y-99997666I-1235515J1559999D01*
G01*
%TO.C,C11*%
X83130000Y-58836000D02*
X83130000Y-57440000D01*
X83130000Y-58836000D02*
X76890000Y-58836000D01*
X83130000Y-55590000D02*
X83130000Y-54194000D01*
X83130000Y-54194000D02*
X76890000Y-54194000D01*
X76890000Y-58836000D02*
X76890000Y-57440000D01*
X76890000Y-55590000D02*
X76890000Y-54194000D01*
%TO.C,C10*%
X64040000Y-58836000D02*
X64040000Y-57440000D01*
X64040000Y-58836000D02*
X57800000Y-58836000D01*
X64040000Y-55590000D02*
X64040000Y-54194000D01*
X64040000Y-54194000D02*
X57800000Y-54194000D01*
X57800000Y-58836000D02*
X57800000Y-57440000D01*
X57800000Y-55590000D02*
X57800000Y-54194000D01*
%TO.C,R9*%
X76775000Y-104640000D02*
X76775000Y-103870000D01*
X75405000Y-103870000D02*
X78145000Y-103870000D01*
X78145000Y-103870000D02*
X78145000Y-97330000D01*
X75405000Y-97330000D02*
X75405000Y-103870000D01*
X78145000Y-97330000D02*
X75405000Y-97330000D01*
X76775000Y-96560000D02*
X76775000Y-97330000D01*
%TO.C,U1*%
X111295000Y-84465000D02*
X111295000Y-68355000D01*
X111295000Y-84465000D02*
X100795000Y-84465000D01*
X111295000Y-68355000D02*
X100795000Y-68355000D01*
X108585000Y-68355000D02*
X108585000Y-66395000D01*
X106045000Y-68355000D02*
X106045000Y-66395000D01*
X103505000Y-68355000D02*
X103505000Y-66395000D01*
X100795000Y-84465000D02*
X100795000Y-68355000D01*
D15*
%TO.C,IC7*%
X108280000Y-50800000D02*
X108280000Y-50800000D01*
X108280000Y-50800000D02*
X108280000Y-50800000D01*
X108180000Y-50800000D02*
X108180000Y-50800000D01*
X107560000Y-52300000D02*
X90560000Y-52300000D01*
X107560000Y-49300000D02*
X90560000Y-49300000D01*
X108180000Y-50800000D02*
G75*
G03*
X108280000Y-50800000I50000J0D01*
G01*
X108280000Y-50800000D02*
G75*
G03*
X108180000Y-50800000I-50000J0D01*
G01*
X108280000Y-50800000D02*
G75*
G03*
X108180000Y-50800000I-50000J0D01*
G01*
D14*
%TO.C,C12*%
X102180000Y-58836000D02*
X102180000Y-57440000D01*
X102180000Y-58836000D02*
X95940000Y-58836000D01*
X102180000Y-55590000D02*
X102180000Y-54194000D01*
X102180000Y-54194000D02*
X95940000Y-54194000D01*
X95940000Y-58836000D02*
X95940000Y-57440000D01*
X95940000Y-55590000D02*
X95940000Y-54194000D01*
%TO.C,C1*%
X112450000Y-82769000D02*
X112450000Y-84165000D01*
X112450000Y-82769000D02*
X118690000Y-82769000D01*
X112450000Y-86015000D02*
X112450000Y-87411000D01*
X112450000Y-87411000D02*
X118690000Y-87411000D01*
X118690000Y-82769000D02*
X118690000Y-84165000D01*
X118690000Y-86015000D02*
X118690000Y-87411000D01*
%TO.C,J3*%
X80850000Y-82970000D02*
X82180000Y-82970000D01*
X80850000Y-84300000D02*
X80850000Y-82970000D01*
X80850000Y-85570000D02*
X80850000Y-90710000D01*
X80850000Y-85570000D02*
X83510000Y-85570000D01*
X80850000Y-90710000D02*
X83510000Y-90710000D01*
X83510000Y-85570000D02*
X83510000Y-90710000D01*
%TO.C,R5*%
X56760000Y-103075000D02*
X57530000Y-103075000D01*
X57530000Y-101705000D02*
X57530000Y-104445000D01*
X57530000Y-104445000D02*
X64070000Y-104445000D01*
X64070000Y-101705000D02*
X57530000Y-101705000D01*
X64070000Y-104445000D02*
X64070000Y-101705000D01*
X64840000Y-103075000D02*
X64070000Y-103075000D01*
%TO.C,IC1*%
X48785000Y-62170000D02*
X48785000Y-80070000D01*
X48785000Y-80070000D02*
X54085000Y-80070000D01*
X50435000Y-62170000D02*
X48785000Y-62170000D01*
X54085000Y-62170000D02*
X52435000Y-62170000D01*
X54085000Y-80070000D02*
X54085000Y-62170000D01*
X50435000Y-62170000D02*
G75*
G03*
X52435000Y-62170000I1000000J0D01*
G01*
%TO.C,R12*%
X112800000Y-97860000D02*
X112800000Y-98630000D01*
X114170000Y-98630000D02*
X111430000Y-98630000D01*
X111430000Y-98630000D02*
X111430000Y-105170000D01*
X114170000Y-105170000D02*
X114170000Y-98630000D01*
X111430000Y-105170000D02*
X114170000Y-105170000D01*
X112800000Y-105940000D02*
X112800000Y-105170000D01*
%TO.C,SW4*%
X34040000Y-75740000D02*
X34040000Y-77240000D01*
X35290000Y-79740000D02*
X39790000Y-79740000D01*
X39790000Y-73240000D02*
X35290000Y-73240000D01*
X41040000Y-77240000D02*
X41040000Y-75740000D01*
%TO.C,SW1*%
X23095000Y-66270000D02*
X23095000Y-67770000D01*
X24345000Y-70270000D02*
X28845000Y-70270000D01*
X28845000Y-63770000D02*
X24345000Y-63770000D01*
X30095000Y-67770000D02*
X30095000Y-66270000D01*
%TO.C,R10*%
X73600000Y-104640000D02*
X73600000Y-103870000D01*
X72230000Y-103870000D02*
X74970000Y-103870000D01*
X74970000Y-103870000D02*
X74970000Y-97330000D01*
X72230000Y-97330000D02*
X72230000Y-103870000D01*
X74970000Y-97330000D02*
X72230000Y-97330000D01*
X73600000Y-96560000D02*
X73600000Y-97330000D01*
%TO.C,C16*%
X79156000Y-108005000D02*
X77760000Y-108005000D01*
X79156000Y-108005000D02*
X79156000Y-114245000D01*
X75910000Y-108005000D02*
X74514000Y-108005000D01*
X74514000Y-108005000D02*
X74514000Y-114245000D01*
X79156000Y-114245000D02*
X77760000Y-114245000D01*
X75910000Y-114245000D02*
X74514000Y-114245000D01*
%TO.C,IC2*%
X86885000Y-62170000D02*
X86885000Y-80070000D01*
X86885000Y-80070000D02*
X92185000Y-80070000D01*
X88535000Y-62170000D02*
X86885000Y-62170000D01*
X92185000Y-62170000D02*
X90535000Y-62170000D01*
X92185000Y-80070000D02*
X92185000Y-62170000D01*
X88535000Y-62170000D02*
G75*
G03*
X90535000Y-62170000I1000000J0D01*
G01*
%TO.C,C15*%
X68996000Y-108005000D02*
X67600000Y-108005000D01*
X68996000Y-108005000D02*
X68996000Y-114245000D01*
X65750000Y-108005000D02*
X64354000Y-108005000D01*
X64354000Y-108005000D02*
X64354000Y-114245000D01*
X68996000Y-114245000D02*
X67600000Y-114245000D01*
X65750000Y-114245000D02*
X64354000Y-114245000D01*
%TO.C,R6*%
X79950000Y-104640000D02*
X79950000Y-103870000D01*
X78580000Y-103870000D02*
X81320000Y-103870000D01*
X81320000Y-103870000D02*
X81320000Y-97330000D01*
X78580000Y-97330000D02*
X78580000Y-103870000D01*
X81320000Y-97330000D02*
X78580000Y-97330000D01*
X79950000Y-96560000D02*
X79950000Y-97330000D01*
%TO.C,C13*%
X52690000Y-99476000D02*
X52690000Y-98080000D01*
X52690000Y-99476000D02*
X46450000Y-99476000D01*
X52690000Y-96230000D02*
X52690000Y-94834000D01*
X52690000Y-94834000D02*
X46450000Y-94834000D01*
X46450000Y-99476000D02*
X46450000Y-98080000D01*
X46450000Y-96230000D02*
X46450000Y-94834000D01*
%TO.C,R8*%
X70425000Y-104640000D02*
X70425000Y-103870000D01*
X69055000Y-103870000D02*
X71795000Y-103870000D01*
X71795000Y-103870000D02*
X71795000Y-97330000D01*
X69055000Y-97330000D02*
X69055000Y-103870000D01*
X71795000Y-97330000D02*
X69055000Y-97330000D01*
X70425000Y-96560000D02*
X70425000Y-97330000D01*
%TO.C,R7*%
X83125000Y-104640000D02*
X83125000Y-103870000D01*
X81755000Y-103870000D02*
X84495000Y-103870000D01*
X84495000Y-103870000D02*
X84495000Y-97330000D01*
X81755000Y-97330000D02*
X81755000Y-103870000D01*
X84495000Y-97330000D02*
X81755000Y-97330000D01*
X83125000Y-96560000D02*
X83125000Y-97330000D01*
%TO.C,C6*%
X24780000Y-49114000D02*
X24780000Y-50510000D01*
X24780000Y-49114000D02*
X31020000Y-49114000D01*
X24780000Y-52360000D02*
X24780000Y-53756000D01*
X24780000Y-53756000D02*
X31020000Y-53756000D01*
X31020000Y-49114000D02*
X31020000Y-50510000D01*
X31020000Y-52360000D02*
X31020000Y-53756000D01*
%TO.C,C17*%
X74076000Y-108005000D02*
X72680000Y-108005000D01*
X74076000Y-108005000D02*
X74076000Y-114245000D01*
X70830000Y-108005000D02*
X69434000Y-108005000D01*
X69434000Y-108005000D02*
X69434000Y-114245000D01*
X74076000Y-114245000D02*
X72680000Y-114245000D01*
X70830000Y-114245000D02*
X69434000Y-114245000D01*
%TO.C,IC3*%
X71020000Y-62165000D02*
X71020000Y-80065000D01*
X71020000Y-80065000D02*
X76320000Y-80065000D01*
X72670000Y-62165000D02*
X71020000Y-62165000D01*
X76320000Y-62165000D02*
X74670000Y-62165000D01*
X76320000Y-80065000D02*
X76320000Y-62165000D01*
X72670000Y-62165000D02*
G75*
G03*
X74670000Y-62165000I1000000J0D01*
G01*
%TO.C,C3*%
X24780000Y-54879000D02*
X24780000Y-56275000D01*
X24780000Y-54879000D02*
X31020000Y-54879000D01*
X24780000Y-58125000D02*
X24780000Y-59521000D01*
X24780000Y-59521000D02*
X31020000Y-59521000D01*
X31020000Y-54879000D02*
X31020000Y-56275000D01*
X31020000Y-58125000D02*
X31020000Y-59521000D01*
D16*
%TO.C,J5*%
X42080000Y-28651000D02*
X51980000Y-28651000D01*
X42080000Y-30601000D02*
X42080000Y-28651000D01*
X42080000Y-33101000D02*
X42080000Y-42600000D01*
X42080000Y-42600000D02*
X43030000Y-42600000D01*
X51030000Y-42600000D02*
X51980000Y-42600000D01*
X51980000Y-28651000D02*
X51980000Y-30601000D01*
X51980000Y-42600000D02*
X51980000Y-33101000D01*
D14*
%TO.C,C4*%
X52650000Y-94396000D02*
X52650000Y-93000000D01*
X52650000Y-94396000D02*
X46410000Y-94396000D01*
X52650000Y-91150000D02*
X52650000Y-89754000D01*
X52650000Y-89754000D02*
X46410000Y-89754000D01*
X46410000Y-94396000D02*
X46410000Y-93000000D01*
X46410000Y-91150000D02*
X46410000Y-89754000D01*
%TO.C,R4*%
X56760000Y-96725000D02*
X57530000Y-96725000D01*
X57530000Y-95355000D02*
X57530000Y-98095000D01*
X57530000Y-98095000D02*
X64070000Y-98095000D01*
X64070000Y-95355000D02*
X57530000Y-95355000D01*
X64070000Y-98095000D02*
X64070000Y-95355000D01*
X64840000Y-96725000D02*
X64070000Y-96725000D01*
D16*
%TO.C,J6*%
X57700000Y-28651000D02*
X67600000Y-28651000D01*
X57700000Y-30601000D02*
X57700000Y-28651000D01*
X57700000Y-33101000D02*
X57700000Y-42600000D01*
X57700000Y-42600000D02*
X58650000Y-42600000D01*
X66650000Y-42600000D02*
X67600000Y-42600000D01*
X67600000Y-28651000D02*
X67600000Y-30601000D01*
X67600000Y-42600000D02*
X67600000Y-33101000D01*
%TO.C,J8*%
X88180000Y-28651000D02*
X98080000Y-28651000D01*
X88180000Y-30601000D02*
X88180000Y-28651000D01*
X88180000Y-33101000D02*
X88180000Y-42600000D01*
X88180000Y-42600000D02*
X89130000Y-42600000D01*
X97130000Y-42600000D02*
X98080000Y-42600000D01*
X98080000Y-28651000D02*
X98080000Y-30601000D01*
X98080000Y-42600000D02*
X98080000Y-33101000D01*
D14*
%TO.C,SW5*%
X23245000Y-85320000D02*
X23245000Y-86820000D01*
X24495000Y-89320000D02*
X28995000Y-89320000D01*
X28995000Y-82820000D02*
X24495000Y-82820000D01*
X30245000Y-86820000D02*
X30245000Y-85320000D01*
%TO.C,J2*%
X75770000Y-82970000D02*
X77100000Y-82970000D01*
X75770000Y-84300000D02*
X75770000Y-82970000D01*
X75770000Y-85570000D02*
X75770000Y-90710000D01*
X75770000Y-85570000D02*
X78430000Y-85570000D01*
X75770000Y-90710000D02*
X78430000Y-90710000D01*
X78430000Y-85570000D02*
X78430000Y-90710000D01*
%TO.C,C5*%
X24740000Y-43399000D02*
X24740000Y-44795000D01*
X24740000Y-43399000D02*
X30980000Y-43399000D01*
X24740000Y-46645000D02*
X24740000Y-48041000D01*
X24740000Y-48041000D02*
X30980000Y-48041000D01*
X30980000Y-43399000D02*
X30980000Y-44795000D01*
X30980000Y-46645000D02*
X30980000Y-48041000D01*
%TO.C,SW3*%
X23170000Y-75740000D02*
X23170000Y-77240000D01*
X24420000Y-79740000D02*
X28920000Y-79740000D01*
X28920000Y-73240000D02*
X24420000Y-73240000D01*
X30170000Y-77240000D02*
X30170000Y-75740000D01*
%TO.C,J4*%
X85930000Y-82970000D02*
X87260000Y-82970000D01*
X85930000Y-84300000D02*
X85930000Y-82970000D01*
X85930000Y-85570000D02*
X85930000Y-90710000D01*
X85930000Y-85570000D02*
X88590000Y-85570000D01*
X85930000Y-90710000D02*
X88590000Y-90710000D01*
X88590000Y-85570000D02*
X88590000Y-90710000D01*
%TO.C,C8*%
X52650000Y-104556000D02*
X52650000Y-103160000D01*
X52650000Y-104556000D02*
X46410000Y-104556000D01*
X52650000Y-101310000D02*
X52650000Y-99914000D01*
X52650000Y-99914000D02*
X46410000Y-99914000D01*
X46410000Y-104556000D02*
X46410000Y-103160000D01*
X46410000Y-101310000D02*
X46410000Y-99914000D01*
%TO.C,R11*%
X86300000Y-104640000D02*
X86300000Y-103870000D01*
X84930000Y-103870000D02*
X87670000Y-103870000D01*
X87670000Y-103870000D02*
X87670000Y-97330000D01*
X84930000Y-97330000D02*
X84930000Y-103870000D01*
X87670000Y-97330000D02*
X84930000Y-97330000D01*
X86300000Y-96560000D02*
X86300000Y-97330000D01*
D17*
%TO.C,U2*%
X108314410Y-113209310D02*
X108314410Y-92881690D01*
X108314410Y-92881690D02*
X90516630Y-92881690D01*
X107643850Y-113879870D02*
X108314410Y-113209310D01*
D18*
X104631410Y-113963690D02*
X102853410Y-113963690D01*
X104631410Y-111296690D02*
X104631410Y-113963690D01*
X104631410Y-111296690D02*
X102853410Y-111296690D01*
X104631410Y-109899690D02*
X102853410Y-109899690D01*
X104631410Y-107230150D02*
X104631410Y-109899690D01*
X104631410Y-107230150D02*
X102853410Y-107230150D01*
D17*
X103920210Y-107951510D02*
X103920210Y-115304810D01*
X103915130Y-115304810D02*
X94920990Y-115304810D01*
D18*
X102853410Y-111296690D02*
X102853410Y-113963690D01*
X102853410Y-107230150D02*
X102853410Y-109899690D01*
X101964410Y-113201690D02*
X96884410Y-113201690D01*
X101964410Y-110661690D02*
X101964410Y-113201690D01*
X101964410Y-110661690D02*
X96884410Y-110661690D01*
X96884410Y-110661690D02*
X96884410Y-113201690D01*
X95995410Y-113963690D02*
X94217410Y-113963690D01*
X95995410Y-111296690D02*
X95995410Y-113963690D01*
X95995410Y-111296690D02*
X94217410Y-111296690D01*
X95995410Y-109899690D02*
X94217410Y-109899690D01*
X95995410Y-107230150D02*
X95995410Y-109899690D01*
X95995410Y-107230150D02*
X94217410Y-107230150D01*
D17*
X94920990Y-115304810D02*
X94920990Y-107951510D01*
X94920990Y-107951510D02*
X103920210Y-107951510D01*
D18*
X94217410Y-111296690D02*
X94217410Y-113963690D01*
X94217410Y-107230150D02*
X94217410Y-109899690D01*
D17*
X90516630Y-113879870D02*
X107643850Y-113879870D01*
X90516630Y-92881690D02*
X90516630Y-113879870D01*
D11*
X109330410Y-111042690D02*
G75*
G03*
X109076410Y-111042690I-127000J0D01*
G01*
X109076410Y-111042690D02*
G75*
G03*
X109330410Y-111042690I127000J0D01*
G01*
D14*
%TO.C,C18*%
X84236000Y-107965000D02*
X82840000Y-107965000D01*
X84236000Y-107965000D02*
X84236000Y-114205000D01*
X80990000Y-107965000D02*
X79594000Y-107965000D01*
X79594000Y-107965000D02*
X79594000Y-114205000D01*
X84236000Y-114205000D02*
X82840000Y-114205000D01*
X80990000Y-114205000D02*
X79594000Y-114205000D01*
D15*
%TO.C,IC5*%
X70180000Y-50800000D02*
X70180000Y-50800000D01*
X70180000Y-50800000D02*
X70180000Y-50800000D01*
X70080000Y-50800000D02*
X70080000Y-50800000D01*
X69460000Y-52300000D02*
X52460000Y-52300000D01*
X69460000Y-49300000D02*
X52460000Y-49300000D01*
X70080000Y-50800000D02*
G75*
G03*
X70180000Y-50800000I50000J0D01*
G01*
X70180000Y-50800000D02*
G75*
G03*
X70080000Y-50800000I-50000J0D01*
G01*
X70180000Y-50800000D02*
G75*
G03*
X70080000Y-50800000I-50000J0D01*
G01*
D14*
%TO.C,C14*%
X52650000Y-109636000D02*
X52650000Y-108240000D01*
X52650000Y-109636000D02*
X46410000Y-109636000D01*
X52650000Y-106390000D02*
X52650000Y-104994000D01*
X52650000Y-104994000D02*
X46410000Y-104994000D01*
X46410000Y-109636000D02*
X46410000Y-108240000D01*
X46410000Y-106390000D02*
X46410000Y-104994000D01*
%TO.C,C7*%
X24700000Y-37684000D02*
X24700000Y-39080000D01*
X24700000Y-37684000D02*
X30940000Y-37684000D01*
X24700000Y-40930000D02*
X24700000Y-42326000D01*
X24700000Y-42326000D02*
X30940000Y-42326000D01*
X30940000Y-37684000D02*
X30940000Y-39080000D01*
X30940000Y-40930000D02*
X30940000Y-42326000D01*
D15*
%TO.C,IC6*%
X89230000Y-50800000D02*
X89230000Y-50800000D01*
X89230000Y-50800000D02*
X89230000Y-50800000D01*
X89130000Y-50800000D02*
X89130000Y-50800000D01*
X88510000Y-52300000D02*
X71510000Y-52300000D01*
X88510000Y-49300000D02*
X71510000Y-49300000D01*
X89130000Y-50800000D02*
G75*
G03*
X89230000Y-50800000I50000J0D01*
G01*
X89230000Y-50800000D02*
G75*
G03*
X89130000Y-50800000I-50000J0D01*
G01*
X89230000Y-50800000D02*
G75*
G03*
X89130000Y-50800000I-50000J0D01*
G01*
D14*
%TO.C,SW8*%
X34600000Y-94500000D02*
X34600000Y-96000000D01*
X35850000Y-98500000D02*
X40350000Y-98500000D01*
X40350000Y-92000000D02*
X35850000Y-92000000D01*
X41600000Y-96000000D02*
X41600000Y-94500000D01*
%TO.C,SW6*%
X34430000Y-85320000D02*
X34430000Y-86820000D01*
X35680000Y-89320000D02*
X40180000Y-89320000D01*
X40180000Y-82820000D02*
X35680000Y-82820000D01*
X41430000Y-86820000D02*
X41430000Y-85320000D01*
%TO.C,R2*%
X56760000Y-93550000D02*
X57530000Y-93550000D01*
X57530000Y-92180000D02*
X57530000Y-94920000D01*
X57530000Y-94920000D02*
X64070000Y-94920000D01*
X64070000Y-92180000D02*
X57530000Y-92180000D01*
X64070000Y-94920000D02*
X64070000Y-92180000D01*
X64840000Y-93550000D02*
X64070000Y-93550000D01*
%TO.C,R3*%
X56760000Y-99900000D02*
X57530000Y-99900000D01*
X57530000Y-98530000D02*
X57530000Y-101270000D01*
X57530000Y-101270000D02*
X64070000Y-101270000D01*
X64070000Y-98530000D02*
X57530000Y-98530000D01*
X64070000Y-101270000D02*
X64070000Y-98530000D01*
X64840000Y-99900000D02*
X64070000Y-99900000D01*
D15*
%TO.C,IC4*%
X51130000Y-50800000D02*
X51130000Y-50800000D01*
X51130000Y-50800000D02*
X51130000Y-50800000D01*
X51030000Y-50800000D02*
X51030000Y-50800000D01*
X50410000Y-52300000D02*
X33410000Y-52300000D01*
X50410000Y-49300000D02*
X33410000Y-49300000D01*
X51030000Y-50800000D02*
G75*
G03*
X51130000Y-50800000I50000J0D01*
G01*
X51130000Y-50800000D02*
G75*
G03*
X51030000Y-50800000I-50000J0D01*
G01*
X51130000Y-50800000D02*
G75*
G03*
X51030000Y-50800000I-50000J0D01*
G01*
D14*
%TO.C,C9*%
X45030000Y-58836000D02*
X45030000Y-57440000D01*
X45030000Y-58836000D02*
X38790000Y-58836000D01*
X45030000Y-55590000D02*
X45030000Y-54194000D01*
X45030000Y-54194000D02*
X38790000Y-54194000D01*
X38790000Y-58836000D02*
X38790000Y-57440000D01*
X38790000Y-55590000D02*
X38790000Y-54194000D01*
%TO.C,SW7*%
X23170000Y-94500000D02*
X23170000Y-96000000D01*
X24420000Y-98500000D02*
X28920000Y-98500000D01*
X28920000Y-92000000D02*
X24420000Y-92000000D01*
X30170000Y-96000000D02*
X30170000Y-94500000D01*
%TO.C,R1*%
X115570000Y-69620000D02*
X115570000Y-70390000D01*
X116940000Y-70390000D02*
X114200000Y-70390000D01*
X114200000Y-70390000D02*
X114200000Y-76930000D01*
X116940000Y-76930000D02*
X116940000Y-70390000D01*
X114200000Y-76930000D02*
X116940000Y-76930000D01*
X115570000Y-77700000D02*
X115570000Y-76930000D01*
D16*
%TO.C,J7*%
X72940000Y-28651000D02*
X82840000Y-28651000D01*
X72940000Y-30601000D02*
X72940000Y-28651000D01*
X72940000Y-33101000D02*
X72940000Y-42600000D01*
X72940000Y-42600000D02*
X73890000Y-42600000D01*
X81890000Y-42600000D02*
X82840000Y-42600000D01*
X82840000Y-28651000D02*
X82840000Y-30601000D01*
X82840000Y-42600000D02*
X82840000Y-33101000D01*
D14*
%TO.C,SW2*%
X34040000Y-66215000D02*
X34040000Y-67715000D01*
X35290000Y-70215000D02*
X39790000Y-70215000D01*
X39790000Y-63715000D02*
X35290000Y-63715000D01*
X41040000Y-67715000D02*
X41040000Y-66215000D01*
%TD*%
M02*
