%TF.GenerationSoftware,KiCad,Pcbnew,8.0.3*%
%TF.CreationDate,2024-06-19T09:50:18+09:00*%
%TF.ProjectId,md2,6d64322e-6b69-4636-9164-5f7063625858,rev?*%
%TF.SameCoordinates,Original*%
%TF.FileFunction,Soldermask,Bot*%
%TF.FilePolarity,Negative*%
%FSLAX46Y46*%
G04 Gerber Fmt 4.6, Leading zero omitted, Abs format (unit mm)*
G04 Created by KiCad (PCBNEW 8.0.3) date 2024-06-19 09:50:18*
%MOMM*%
%LPD*%
G01*
G04 APERTURE LIST*
G04 Aperture macros list*
%AMFreePoly0*
4,1,6,1.000000,0.000000,0.500000,-0.750000,-0.500000,-0.750000,-0.500000,0.750000,0.500000,0.750000,1.000000,0.000000,1.000000,0.000000,$1*%
%AMFreePoly1*
4,1,6,0.500000,-0.750000,-0.650000,-0.750000,-0.150000,0.000000,-0.650000,0.750000,0.500000,0.750000,0.500000,-0.750000,0.500000,-0.750000,$1*%
G04 Aperture macros list end*
%ADD10R,1.575000X1.575000*%
%ADD11C,1.575000*%
%ADD12C,1.600000*%
%ADD13O,1.600000X1.600000*%
%ADD14C,2.000000*%
%ADD15R,1.600000X1.600000*%
%ADD16O,3.500000X3.500000*%
%ADD17R,1.905000X2.000000*%
%ADD18O,1.905000X2.000000*%
%ADD19R,1.700000X1.700000*%
%ADD20O,1.700000X1.700000*%
%ADD21C,3.500000*%
%ADD22C,2.550000*%
%ADD23C,1.500000*%
%ADD24C,1.340000*%
%ADD25R,1.000000X1.000000*%
%ADD26O,1.000000X1.000000*%
%ADD27R,1.800000X1.800000*%
%ADD28C,1.800000*%
%ADD29FreePoly0,270.000000*%
%ADD30FreePoly1,270.000000*%
%ADD31R,1.000000X1.500000*%
G04 APERTURE END LIST*
D10*
%TO.C,IC6*%
X151700000Y-83700000D03*
D11*
X151700000Y-81160000D03*
X151700000Y-78620000D03*
X151700000Y-76080000D03*
X151700000Y-73540000D03*
X151700000Y-71000000D03*
X151700000Y-68460000D03*
%TD*%
D12*
%TO.C,C15*%
X174300000Y-77400000D03*
X174300000Y-72400000D03*
%TD*%
%TO.C,R6*%
X153750000Y-103330000D03*
D13*
X153750000Y-93170000D03*
%TD*%
D12*
%TO.C,C2*%
X163499000Y-98126000D03*
X163499000Y-93126000D03*
%TD*%
D14*
%TO.C,SW7*%
X175721000Y-138552000D03*
X175721000Y-132052000D03*
X180221000Y-138552000D03*
X180221000Y-132052000D03*
%TD*%
D12*
%TO.C,C18*%
X146200000Y-84500000D03*
X146200000Y-79500000D03*
%TD*%
D15*
%TO.C,IC3*%
X140000000Y-87600000D03*
D13*
X140000000Y-90140000D03*
X140000000Y-92680000D03*
X140000000Y-95220000D03*
X140000000Y-97760000D03*
X140000000Y-100300000D03*
X140000000Y-102840000D03*
X147620000Y-102840000D03*
X147620000Y-100300000D03*
X147620000Y-97760000D03*
X147620000Y-95220000D03*
X147620000Y-92680000D03*
X147620000Y-90140000D03*
X147620000Y-87600000D03*
%TD*%
D12*
%TO.C,C1*%
X158419000Y-98126000D03*
X158419000Y-93126000D03*
%TD*%
D16*
%TO.C,U1*%
X171500000Y-110250000D03*
D17*
X174040000Y-94450000D03*
D18*
X171500000Y-94450000D03*
X168960000Y-94450000D03*
%TD*%
D19*
%TO.C,J1*%
X108750000Y-85250000D03*
D20*
X108750000Y-82710000D03*
%TD*%
D12*
%TO.C,C7*%
X158419000Y-107691000D03*
X158419000Y-112691000D03*
%TD*%
D14*
%TO.C,SW2*%
X151514800Y-128138000D03*
X151514800Y-121638000D03*
X156014800Y-128138000D03*
X156014800Y-121638000D03*
%TD*%
D21*
%TO.C,J9*%
X179250000Y-102750000D03*
X179250000Y-107830000D03*
%TD*%
D10*
%TO.C,IC7*%
X169100000Y-83740000D03*
D11*
X169100000Y-81200000D03*
X169100000Y-78660000D03*
X169100000Y-76120000D03*
X169100000Y-73580000D03*
X169100000Y-71040000D03*
X169100000Y-68500000D03*
%TD*%
D21*
%TO.C,J10*%
X179250000Y-112250000D03*
X179250000Y-117330000D03*
%TD*%
D14*
%TO.C,SW4*%
X159600000Y-128175000D03*
X159600000Y-121675000D03*
X164100000Y-128175000D03*
X164100000Y-121675000D03*
%TD*%
D12*
%TO.C,C13*%
X113500000Y-77300000D03*
X113500000Y-72300000D03*
%TD*%
%TO.C,C6*%
X163499000Y-107731000D03*
X163499000Y-112731000D03*
%TD*%
%TO.C,R12*%
X144340000Y-107750000D03*
D13*
X154500000Y-107750000D03*
%TD*%
D14*
%TO.C,SW6*%
X167720000Y-128265000D03*
X167720000Y-121765000D03*
X172220000Y-128265000D03*
X172220000Y-121765000D03*
%TD*%
D12*
%TO.C,C14*%
X113500000Y-84500000D03*
X113500000Y-79500000D03*
%TD*%
D22*
%TO.C,J8*%
X166500000Y-63800000D03*
X171500000Y-63800000D03*
D23*
X174500000Y-53800000D03*
X163500000Y-53800000D03*
%TD*%
D24*
%TO.C,RN1*%
X112380000Y-89800000D03*
X114920000Y-89800000D03*
X117460000Y-89800000D03*
X120000000Y-89800000D03*
X122540000Y-89800000D03*
X125080000Y-89800000D03*
X127620000Y-89800000D03*
X130160000Y-89800000D03*
X132700000Y-89800000D03*
%TD*%
D14*
%TO.C,SW5*%
X167720000Y-138575000D03*
X167720000Y-132075000D03*
X172220000Y-138575000D03*
X172220000Y-132075000D03*
%TD*%
D12*
%TO.C,C4*%
X141200000Y-84500000D03*
X141200000Y-79500000D03*
%TD*%
%TO.C,C8*%
X141100000Y-77100000D03*
X141100000Y-72100000D03*
%TD*%
D25*
%TO.C,J3*%
X145000000Y-120840000D03*
D26*
X143730000Y-120840000D03*
X145000000Y-122110000D03*
X143730000Y-122110000D03*
X145000000Y-123380000D03*
X143730000Y-123380000D03*
X145000000Y-124650000D03*
X143730000Y-124650000D03*
X145000000Y-125920000D03*
X143730000Y-125920000D03*
X145000000Y-127190000D03*
X143730000Y-127190000D03*
X145000000Y-128460000D03*
X143730000Y-128460000D03*
X145000000Y-129730000D03*
X143730000Y-129730000D03*
X145000000Y-131000000D03*
X143730000Y-131000000D03*
X145000000Y-132270000D03*
X143730000Y-132270000D03*
X145000000Y-133540000D03*
X143730000Y-133540000D03*
X145000000Y-134810000D03*
X143730000Y-134810000D03*
X145000000Y-136080000D03*
X143730000Y-136080000D03*
%TD*%
D12*
%TO.C,C5*%
X163499000Y-105405000D03*
X163499000Y-100405000D03*
%TD*%
%TO.C,C3*%
X158419000Y-105405000D03*
X158419000Y-100405000D03*
%TD*%
D24*
%TO.C,RN2*%
X175720000Y-89900000D03*
X173180000Y-89900000D03*
X170640000Y-89900000D03*
X168100000Y-89900000D03*
X165560000Y-89900000D03*
X163020000Y-89900000D03*
X160480000Y-89900000D03*
X157940000Y-89900000D03*
X155400000Y-89900000D03*
%TD*%
D15*
%TO.C,IC1*%
X123400000Y-70275000D03*
D13*
X123400000Y-72815000D03*
X123400000Y-75355000D03*
X123400000Y-77895000D03*
X123400000Y-80435000D03*
X123400000Y-82975000D03*
X123400000Y-85515000D03*
X131020000Y-85515000D03*
X131020000Y-82975000D03*
X131020000Y-80435000D03*
X131020000Y-77895000D03*
X131020000Y-75355000D03*
X131020000Y-72815000D03*
X131020000Y-70275000D03*
%TD*%
D10*
%TO.C,IC4*%
X118600000Y-83620000D03*
D11*
X118600000Y-81080000D03*
X118600000Y-78540000D03*
X118600000Y-76000000D03*
X118600000Y-73460000D03*
X118600000Y-70920000D03*
X118600000Y-68380000D03*
%TD*%
D12*
%TO.C,R7*%
X150500000Y-103330000D03*
D13*
X150500000Y-93170000D03*
%TD*%
D21*
%TO.C,SW9*%
X179250000Y-94830000D03*
X179250000Y-89750000D03*
%TD*%
D15*
%TO.C,IC2*%
X156500000Y-70140000D03*
D13*
X156500000Y-72680000D03*
X156500000Y-75220000D03*
X156500000Y-77760000D03*
X156500000Y-80300000D03*
X156500000Y-82840000D03*
X156500000Y-85380000D03*
X164120000Y-85380000D03*
X164120000Y-82840000D03*
X164120000Y-80300000D03*
X164120000Y-77760000D03*
X164120000Y-75220000D03*
X164120000Y-72680000D03*
X164120000Y-70140000D03*
%TD*%
D27*
%TO.C,D1*%
X151960000Y-111750000D03*
D28*
X154500000Y-111750000D03*
%TD*%
D22*
%TO.C,J7*%
X149200000Y-63800000D03*
X154200000Y-63800000D03*
D23*
X157200000Y-53800000D03*
X146200000Y-53800000D03*
%TD*%
D22*
%TO.C,J5*%
X116000000Y-63900000D03*
X121000000Y-63900000D03*
D23*
X124000000Y-53900000D03*
X113000000Y-53900000D03*
%TD*%
D10*
%TO.C,IC5*%
X135800000Y-83640000D03*
D11*
X135800000Y-81100000D03*
X135800000Y-78560000D03*
X135800000Y-76020000D03*
X135800000Y-73480000D03*
X135800000Y-70940000D03*
X135800000Y-68400000D03*
%TD*%
D14*
%TO.C,SW3*%
X159600000Y-138500000D03*
X159600000Y-132000000D03*
X164100000Y-138500000D03*
X164100000Y-132000000D03*
%TD*%
%TO.C,SW1*%
X151500000Y-138500000D03*
X151500000Y-132000000D03*
X156000000Y-138500000D03*
X156000000Y-132000000D03*
%TD*%
D22*
%TO.C,J6*%
X133700000Y-63800000D03*
X138700000Y-63800000D03*
D23*
X141700000Y-53800000D03*
X130700000Y-53800000D03*
%TD*%
D12*
%TO.C,C17*%
X146200000Y-77100000D03*
X146200000Y-72100000D03*
%TD*%
D14*
%TO.C,SW8*%
X175848000Y-128265000D03*
X175848000Y-121765000D03*
X180348000Y-128265000D03*
X180348000Y-121765000D03*
%TD*%
D12*
%TO.C,C16*%
X174300000Y-84600000D03*
X174300000Y-79600000D03*
%TD*%
D29*
%TO.C,JP1*%
X114500000Y-100275000D03*
D30*
X114500000Y-101725000D03*
%TD*%
D31*
%TO.C,JP2*%
X131050000Y-104750000D03*
X129750000Y-104750000D03*
X128450000Y-104750000D03*
%TD*%
%TO.C,JP6*%
X131050000Y-101250000D03*
X129750000Y-101250000D03*
X128450000Y-101250000D03*
%TD*%
M02*
