%TF.GenerationSoftware,KiCad,Pcbnew,7.0.10*%
%TF.CreationDate,2024-01-13T17:41:25+09:00*%
%TF.ProjectId,md2,6d64322e-6b69-4636-9164-5f7063625858,rev?*%
%TF.SameCoordinates,Original*%
%TF.FileFunction,Legend,Top*%
%TF.FilePolarity,Positive*%
%FSLAX46Y46*%
G04 Gerber Fmt 4.6, Leading zero omitted, Abs format (unit mm)*
G04 Created by KiCad (PCBNEW 7.0.10) date 2024-01-13 17:41:25*
%MOMM*%
%LPD*%
G01*
G04 APERTURE LIST*
%ADD10C,0.150000*%
%ADD11C,0.254000*%
%ADD12C,0.100000*%
%ADD13C,0.120000*%
%ADD14C,0.200000*%
G04 APERTURE END LIST*
D10*
X119500000Y-23000000D02*
G75*
G03*
X111500000Y-23000000I-4000000J0D01*
G01*
X111500000Y-23000000D02*
G75*
G03*
X119500000Y-23000000I4000000J0D01*
G01*
X29500000Y-23000000D02*
G75*
G03*
X21500000Y-23000000I-4000000J0D01*
G01*
X21500000Y-23000000D02*
G75*
G03*
X29500000Y-23000000I4000000J0D01*
G01*
X29500000Y-113000000D02*
G75*
G03*
X21500000Y-113000000I-4000000J0D01*
G01*
X21500000Y-113000000D02*
G75*
G03*
X29500000Y-113000000I4000000J0D01*
G01*
X119500000Y-113000000D02*
G75*
G03*
X111500000Y-113000000I-4000000J0D01*
G01*
X111500000Y-113000000D02*
G75*
G03*
X119500000Y-113000000I4000000J0D01*
G01*
X94992819Y-108105411D02*
X94992819Y-108676839D01*
X94992819Y-108391125D02*
X93992819Y-108391125D01*
X93992819Y-108391125D02*
X94135676Y-108486363D01*
X94135676Y-108486363D02*
X94230914Y-108581601D01*
X94230914Y-108581601D02*
X94278533Y-108676839D01*
X93992819Y-107486363D02*
X93992819Y-107391125D01*
X93992819Y-107391125D02*
X94040438Y-107295887D01*
X94040438Y-107295887D02*
X94088057Y-107248268D01*
X94088057Y-107248268D02*
X94183295Y-107200649D01*
X94183295Y-107200649D02*
X94373771Y-107153030D01*
X94373771Y-107153030D02*
X94611866Y-107153030D01*
X94611866Y-107153030D02*
X94802342Y-107200649D01*
X94802342Y-107200649D02*
X94897580Y-107248268D01*
X94897580Y-107248268D02*
X94945200Y-107295887D01*
X94945200Y-107295887D02*
X94992819Y-107391125D01*
X94992819Y-107391125D02*
X94992819Y-107486363D01*
X94992819Y-107486363D02*
X94945200Y-107581601D01*
X94945200Y-107581601D02*
X94897580Y-107629220D01*
X94897580Y-107629220D02*
X94802342Y-107676839D01*
X94802342Y-107676839D02*
X94611866Y-107724458D01*
X94611866Y-107724458D02*
X94373771Y-107724458D01*
X94373771Y-107724458D02*
X94183295Y-107676839D01*
X94183295Y-107676839D02*
X94088057Y-107629220D01*
X94088057Y-107629220D02*
X94040438Y-107581601D01*
X94040438Y-107581601D02*
X93992819Y-107486363D01*
X93992819Y-106533982D02*
X93992819Y-106438744D01*
X93992819Y-106438744D02*
X94040438Y-106343506D01*
X94040438Y-106343506D02*
X94088057Y-106295887D01*
X94088057Y-106295887D02*
X94183295Y-106248268D01*
X94183295Y-106248268D02*
X94373771Y-106200649D01*
X94373771Y-106200649D02*
X94611866Y-106200649D01*
X94611866Y-106200649D02*
X94802342Y-106248268D01*
X94802342Y-106248268D02*
X94897580Y-106295887D01*
X94897580Y-106295887D02*
X94945200Y-106343506D01*
X94945200Y-106343506D02*
X94992819Y-106438744D01*
X94992819Y-106438744D02*
X94992819Y-106533982D01*
X94992819Y-106533982D02*
X94945200Y-106629220D01*
X94945200Y-106629220D02*
X94897580Y-106676839D01*
X94897580Y-106676839D02*
X94802342Y-106724458D01*
X94802342Y-106724458D02*
X94611866Y-106772077D01*
X94611866Y-106772077D02*
X94373771Y-106772077D01*
X94373771Y-106772077D02*
X94183295Y-106724458D01*
X94183295Y-106724458D02*
X94088057Y-106676839D01*
X94088057Y-106676839D02*
X94040438Y-106629220D01*
X94040438Y-106629220D02*
X93992819Y-106533982D01*
X94992819Y-105772077D02*
X94326152Y-105772077D01*
X94421390Y-105772077D02*
X94373771Y-105724458D01*
X94373771Y-105724458D02*
X94326152Y-105629220D01*
X94326152Y-105629220D02*
X94326152Y-105486363D01*
X94326152Y-105486363D02*
X94373771Y-105391125D01*
X94373771Y-105391125D02*
X94469009Y-105343506D01*
X94469009Y-105343506D02*
X94992819Y-105343506D01*
X94469009Y-105343506D02*
X94373771Y-105295887D01*
X94373771Y-105295887D02*
X94326152Y-105200649D01*
X94326152Y-105200649D02*
X94326152Y-105057792D01*
X94326152Y-105057792D02*
X94373771Y-104962553D01*
X94373771Y-104962553D02*
X94469009Y-104914934D01*
X94469009Y-104914934D02*
X94992819Y-104914934D01*
X94992819Y-104438744D02*
X94326152Y-104438744D01*
X94421390Y-104438744D02*
X94373771Y-104391125D01*
X94373771Y-104391125D02*
X94326152Y-104295887D01*
X94326152Y-104295887D02*
X94326152Y-104153030D01*
X94326152Y-104153030D02*
X94373771Y-104057792D01*
X94373771Y-104057792D02*
X94469009Y-104010173D01*
X94469009Y-104010173D02*
X94992819Y-104010173D01*
X94469009Y-104010173D02*
X94373771Y-103962554D01*
X94373771Y-103962554D02*
X94326152Y-103867316D01*
X94326152Y-103867316D02*
X94326152Y-103724459D01*
X94326152Y-103724459D02*
X94373771Y-103629220D01*
X94373771Y-103629220D02*
X94469009Y-103581601D01*
X94469009Y-103581601D02*
X94992819Y-103581601D01*
X99031588Y-100961819D02*
X98460160Y-100961819D01*
X98745874Y-100961819D02*
X98745874Y-99961819D01*
X98745874Y-99961819D02*
X98650636Y-100104676D01*
X98650636Y-100104676D02*
X98555398Y-100199914D01*
X98555398Y-100199914D02*
X98460160Y-100247533D01*
X99650636Y-99961819D02*
X99745874Y-99961819D01*
X99745874Y-99961819D02*
X99841112Y-100009438D01*
X99841112Y-100009438D02*
X99888731Y-100057057D01*
X99888731Y-100057057D02*
X99936350Y-100152295D01*
X99936350Y-100152295D02*
X99983969Y-100342771D01*
X99983969Y-100342771D02*
X99983969Y-100580866D01*
X99983969Y-100580866D02*
X99936350Y-100771342D01*
X99936350Y-100771342D02*
X99888731Y-100866580D01*
X99888731Y-100866580D02*
X99841112Y-100914200D01*
X99841112Y-100914200D02*
X99745874Y-100961819D01*
X99745874Y-100961819D02*
X99650636Y-100961819D01*
X99650636Y-100961819D02*
X99555398Y-100914200D01*
X99555398Y-100914200D02*
X99507779Y-100866580D01*
X99507779Y-100866580D02*
X99460160Y-100771342D01*
X99460160Y-100771342D02*
X99412541Y-100580866D01*
X99412541Y-100580866D02*
X99412541Y-100342771D01*
X99412541Y-100342771D02*
X99460160Y-100152295D01*
X99460160Y-100152295D02*
X99507779Y-100057057D01*
X99507779Y-100057057D02*
X99555398Y-100009438D01*
X99555398Y-100009438D02*
X99650636Y-99961819D01*
X100603017Y-99961819D02*
X100698255Y-99961819D01*
X100698255Y-99961819D02*
X100793493Y-100009438D01*
X100793493Y-100009438D02*
X100841112Y-100057057D01*
X100841112Y-100057057D02*
X100888731Y-100152295D01*
X100888731Y-100152295D02*
X100936350Y-100342771D01*
X100936350Y-100342771D02*
X100936350Y-100580866D01*
X100936350Y-100580866D02*
X100888731Y-100771342D01*
X100888731Y-100771342D02*
X100841112Y-100866580D01*
X100841112Y-100866580D02*
X100793493Y-100914200D01*
X100793493Y-100914200D02*
X100698255Y-100961819D01*
X100698255Y-100961819D02*
X100603017Y-100961819D01*
X100603017Y-100961819D02*
X100507779Y-100914200D01*
X100507779Y-100914200D02*
X100460160Y-100866580D01*
X100460160Y-100866580D02*
X100412541Y-100771342D01*
X100412541Y-100771342D02*
X100364922Y-100580866D01*
X100364922Y-100580866D02*
X100364922Y-100342771D01*
X100364922Y-100342771D02*
X100412541Y-100152295D01*
X100412541Y-100152295D02*
X100460160Y-100057057D01*
X100460160Y-100057057D02*
X100507779Y-100009438D01*
X100507779Y-100009438D02*
X100603017Y-99961819D01*
X101364922Y-100961819D02*
X101364922Y-100295152D01*
X101364922Y-100390390D02*
X101412541Y-100342771D01*
X101412541Y-100342771D02*
X101507779Y-100295152D01*
X101507779Y-100295152D02*
X101650636Y-100295152D01*
X101650636Y-100295152D02*
X101745874Y-100342771D01*
X101745874Y-100342771D02*
X101793493Y-100438009D01*
X101793493Y-100438009D02*
X101793493Y-100961819D01*
X101793493Y-100438009D02*
X101841112Y-100342771D01*
X101841112Y-100342771D02*
X101936350Y-100295152D01*
X101936350Y-100295152D02*
X102079207Y-100295152D01*
X102079207Y-100295152D02*
X102174446Y-100342771D01*
X102174446Y-100342771D02*
X102222065Y-100438009D01*
X102222065Y-100438009D02*
X102222065Y-100961819D01*
X102698255Y-100961819D02*
X102698255Y-100295152D01*
X102698255Y-100390390D02*
X102745874Y-100342771D01*
X102745874Y-100342771D02*
X102841112Y-100295152D01*
X102841112Y-100295152D02*
X102983969Y-100295152D01*
X102983969Y-100295152D02*
X103079207Y-100342771D01*
X103079207Y-100342771D02*
X103126826Y-100438009D01*
X103126826Y-100438009D02*
X103126826Y-100961819D01*
X103126826Y-100438009D02*
X103174445Y-100342771D01*
X103174445Y-100342771D02*
X103269683Y-100295152D01*
X103269683Y-100295152D02*
X103412540Y-100295152D01*
X103412540Y-100295152D02*
X103507779Y-100342771D01*
X103507779Y-100342771D02*
X103555398Y-100438009D01*
X103555398Y-100438009D02*
X103555398Y-100961819D01*
X95885000Y-101854000D02*
X105791000Y-101854000D01*
X105791000Y-111760000D01*
X95885000Y-111760000D01*
X95885000Y-101854000D01*
X98548819Y-108454601D02*
X98548819Y-108264125D01*
X98548819Y-108264125D02*
X98501200Y-108168887D01*
X98501200Y-108168887D02*
X98453580Y-108121268D01*
X98453580Y-108121268D02*
X98310723Y-108026030D01*
X98310723Y-108026030D02*
X98120247Y-107978411D01*
X98120247Y-107978411D02*
X97739295Y-107978411D01*
X97739295Y-107978411D02*
X97644057Y-108026030D01*
X97644057Y-108026030D02*
X97596438Y-108073649D01*
X97596438Y-108073649D02*
X97548819Y-108168887D01*
X97548819Y-108168887D02*
X97548819Y-108359363D01*
X97548819Y-108359363D02*
X97596438Y-108454601D01*
X97596438Y-108454601D02*
X97644057Y-108502220D01*
X97644057Y-108502220D02*
X97739295Y-108549839D01*
X97739295Y-108549839D02*
X97977390Y-108549839D01*
X97977390Y-108549839D02*
X98072628Y-108502220D01*
X98072628Y-108502220D02*
X98120247Y-108454601D01*
X98120247Y-108454601D02*
X98167866Y-108359363D01*
X98167866Y-108359363D02*
X98167866Y-108168887D01*
X98167866Y-108168887D02*
X98120247Y-108073649D01*
X98120247Y-108073649D02*
X98072628Y-108026030D01*
X98072628Y-108026030D02*
X97977390Y-107978411D01*
X97548819Y-107359363D02*
X97548819Y-107264125D01*
X97548819Y-107264125D02*
X97596438Y-107168887D01*
X97596438Y-107168887D02*
X97644057Y-107121268D01*
X97644057Y-107121268D02*
X97739295Y-107073649D01*
X97739295Y-107073649D02*
X97929771Y-107026030D01*
X97929771Y-107026030D02*
X98167866Y-107026030D01*
X98167866Y-107026030D02*
X98358342Y-107073649D01*
X98358342Y-107073649D02*
X98453580Y-107121268D01*
X98453580Y-107121268D02*
X98501200Y-107168887D01*
X98501200Y-107168887D02*
X98548819Y-107264125D01*
X98548819Y-107264125D02*
X98548819Y-107359363D01*
X98548819Y-107359363D02*
X98501200Y-107454601D01*
X98501200Y-107454601D02*
X98453580Y-107502220D01*
X98453580Y-107502220D02*
X98358342Y-107549839D01*
X98358342Y-107549839D02*
X98167866Y-107597458D01*
X98167866Y-107597458D02*
X97929771Y-107597458D01*
X97929771Y-107597458D02*
X97739295Y-107549839D01*
X97739295Y-107549839D02*
X97644057Y-107502220D01*
X97644057Y-107502220D02*
X97596438Y-107454601D01*
X97596438Y-107454601D02*
X97548819Y-107359363D01*
X98548819Y-106597458D02*
X97882152Y-106597458D01*
X97977390Y-106597458D02*
X97929771Y-106549839D01*
X97929771Y-106549839D02*
X97882152Y-106454601D01*
X97882152Y-106454601D02*
X97882152Y-106311744D01*
X97882152Y-106311744D02*
X97929771Y-106216506D01*
X97929771Y-106216506D02*
X98025009Y-106168887D01*
X98025009Y-106168887D02*
X98548819Y-106168887D01*
X98025009Y-106168887D02*
X97929771Y-106121268D01*
X97929771Y-106121268D02*
X97882152Y-106026030D01*
X97882152Y-106026030D02*
X97882152Y-105883173D01*
X97882152Y-105883173D02*
X97929771Y-105787934D01*
X97929771Y-105787934D02*
X98025009Y-105740315D01*
X98025009Y-105740315D02*
X98548819Y-105740315D01*
X98548819Y-105264125D02*
X97882152Y-105264125D01*
X97977390Y-105264125D02*
X97929771Y-105216506D01*
X97929771Y-105216506D02*
X97882152Y-105121268D01*
X97882152Y-105121268D02*
X97882152Y-104978411D01*
X97882152Y-104978411D02*
X97929771Y-104883173D01*
X97929771Y-104883173D02*
X98025009Y-104835554D01*
X98025009Y-104835554D02*
X98548819Y-104835554D01*
X98025009Y-104835554D02*
X97929771Y-104787935D01*
X97929771Y-104787935D02*
X97882152Y-104692697D01*
X97882152Y-104692697D02*
X97882152Y-104549840D01*
X97882152Y-104549840D02*
X97929771Y-104454601D01*
X97929771Y-104454601D02*
X98025009Y-104406982D01*
X98025009Y-104406982D02*
X98548819Y-104406982D01*
X99063398Y-104263819D02*
X99253874Y-104263819D01*
X99253874Y-104263819D02*
X99349112Y-104216200D01*
X99349112Y-104216200D02*
X99396731Y-104168580D01*
X99396731Y-104168580D02*
X99491969Y-104025723D01*
X99491969Y-104025723D02*
X99539588Y-103835247D01*
X99539588Y-103835247D02*
X99539588Y-103454295D01*
X99539588Y-103454295D02*
X99491969Y-103359057D01*
X99491969Y-103359057D02*
X99444350Y-103311438D01*
X99444350Y-103311438D02*
X99349112Y-103263819D01*
X99349112Y-103263819D02*
X99158636Y-103263819D01*
X99158636Y-103263819D02*
X99063398Y-103311438D01*
X99063398Y-103311438D02*
X99015779Y-103359057D01*
X99015779Y-103359057D02*
X98968160Y-103454295D01*
X98968160Y-103454295D02*
X98968160Y-103692390D01*
X98968160Y-103692390D02*
X99015779Y-103787628D01*
X99015779Y-103787628D02*
X99063398Y-103835247D01*
X99063398Y-103835247D02*
X99158636Y-103882866D01*
X99158636Y-103882866D02*
X99349112Y-103882866D01*
X99349112Y-103882866D02*
X99444350Y-103835247D01*
X99444350Y-103835247D02*
X99491969Y-103787628D01*
X99491969Y-103787628D02*
X99539588Y-103692390D01*
X100158636Y-103263819D02*
X100253874Y-103263819D01*
X100253874Y-103263819D02*
X100349112Y-103311438D01*
X100349112Y-103311438D02*
X100396731Y-103359057D01*
X100396731Y-103359057D02*
X100444350Y-103454295D01*
X100444350Y-103454295D02*
X100491969Y-103644771D01*
X100491969Y-103644771D02*
X100491969Y-103882866D01*
X100491969Y-103882866D02*
X100444350Y-104073342D01*
X100444350Y-104073342D02*
X100396731Y-104168580D01*
X100396731Y-104168580D02*
X100349112Y-104216200D01*
X100349112Y-104216200D02*
X100253874Y-104263819D01*
X100253874Y-104263819D02*
X100158636Y-104263819D01*
X100158636Y-104263819D02*
X100063398Y-104216200D01*
X100063398Y-104216200D02*
X100015779Y-104168580D01*
X100015779Y-104168580D02*
X99968160Y-104073342D01*
X99968160Y-104073342D02*
X99920541Y-103882866D01*
X99920541Y-103882866D02*
X99920541Y-103644771D01*
X99920541Y-103644771D02*
X99968160Y-103454295D01*
X99968160Y-103454295D02*
X100015779Y-103359057D01*
X100015779Y-103359057D02*
X100063398Y-103311438D01*
X100063398Y-103311438D02*
X100158636Y-103263819D01*
X100920541Y-104263819D02*
X100920541Y-103597152D01*
X100920541Y-103692390D02*
X100968160Y-103644771D01*
X100968160Y-103644771D02*
X101063398Y-103597152D01*
X101063398Y-103597152D02*
X101206255Y-103597152D01*
X101206255Y-103597152D02*
X101301493Y-103644771D01*
X101301493Y-103644771D02*
X101349112Y-103740009D01*
X101349112Y-103740009D02*
X101349112Y-104263819D01*
X101349112Y-103740009D02*
X101396731Y-103644771D01*
X101396731Y-103644771D02*
X101491969Y-103597152D01*
X101491969Y-103597152D02*
X101634826Y-103597152D01*
X101634826Y-103597152D02*
X101730065Y-103644771D01*
X101730065Y-103644771D02*
X101777684Y-103740009D01*
X101777684Y-103740009D02*
X101777684Y-104263819D01*
X102253874Y-104263819D02*
X102253874Y-103597152D01*
X102253874Y-103692390D02*
X102301493Y-103644771D01*
X102301493Y-103644771D02*
X102396731Y-103597152D01*
X102396731Y-103597152D02*
X102539588Y-103597152D01*
X102539588Y-103597152D02*
X102634826Y-103644771D01*
X102634826Y-103644771D02*
X102682445Y-103740009D01*
X102682445Y-103740009D02*
X102682445Y-104263819D01*
X102682445Y-103740009D02*
X102730064Y-103644771D01*
X102730064Y-103644771D02*
X102825302Y-103597152D01*
X102825302Y-103597152D02*
X102968159Y-103597152D01*
X102968159Y-103597152D02*
X103063398Y-103644771D01*
X103063398Y-103644771D02*
X103111017Y-103740009D01*
X103111017Y-103740009D02*
X103111017Y-104263819D01*
X98044000Y-110109000D02*
G75*
G03*
X96774000Y-110109000I-635000J0D01*
G01*
X96774000Y-110109000D02*
G75*
G03*
X98044000Y-110109000I635000J0D01*
G01*
X105029000Y-110109000D02*
G75*
G03*
X103759000Y-110109000I-635000J0D01*
G01*
X103759000Y-110109000D02*
G75*
G03*
X105029000Y-110109000I635000J0D01*
G01*
X98044000Y-103124000D02*
G75*
G03*
X96774000Y-103124000I-635000J0D01*
G01*
X96774000Y-103124000D02*
G75*
G03*
X98044000Y-103124000I635000J0D01*
G01*
X105029000Y-103124000D02*
G75*
G03*
X103759000Y-103124000I-635000J0D01*
G01*
X103759000Y-103124000D02*
G75*
G03*
X105029000Y-103124000I635000J0D01*
G01*
X64995588Y-94167438D02*
X64900350Y-94119819D01*
X64900350Y-94119819D02*
X64757493Y-94119819D01*
X64757493Y-94119819D02*
X64614636Y-94167438D01*
X64614636Y-94167438D02*
X64519398Y-94262676D01*
X64519398Y-94262676D02*
X64471779Y-94357914D01*
X64471779Y-94357914D02*
X64424160Y-94548390D01*
X64424160Y-94548390D02*
X64424160Y-94691247D01*
X64424160Y-94691247D02*
X64471779Y-94881723D01*
X64471779Y-94881723D02*
X64519398Y-94976961D01*
X64519398Y-94976961D02*
X64614636Y-95072200D01*
X64614636Y-95072200D02*
X64757493Y-95119819D01*
X64757493Y-95119819D02*
X64852731Y-95119819D01*
X64852731Y-95119819D02*
X64995588Y-95072200D01*
X64995588Y-95072200D02*
X65043207Y-95024580D01*
X65043207Y-95024580D02*
X65043207Y-94691247D01*
X65043207Y-94691247D02*
X64852731Y-94691247D01*
X65471779Y-95119819D02*
X65471779Y-94119819D01*
X65471779Y-94119819D02*
X66043207Y-95119819D01*
X66043207Y-95119819D02*
X66043207Y-94119819D01*
X66519398Y-95119819D02*
X66519398Y-94119819D01*
X66519398Y-94119819D02*
X66757493Y-94119819D01*
X66757493Y-94119819D02*
X66900350Y-94167438D01*
X66900350Y-94167438D02*
X66995588Y-94262676D01*
X66995588Y-94262676D02*
X67043207Y-94357914D01*
X67043207Y-94357914D02*
X67090826Y-94548390D01*
X67090826Y-94548390D02*
X67090826Y-94691247D01*
X67090826Y-94691247D02*
X67043207Y-94881723D01*
X67043207Y-94881723D02*
X66995588Y-94976961D01*
X66995588Y-94976961D02*
X66900350Y-95072200D01*
X66900350Y-95072200D02*
X66757493Y-95119819D01*
X66757493Y-95119819D02*
X66519398Y-95119819D01*
X64471779Y-92579819D02*
X64471779Y-91579819D01*
X64471779Y-91579819D02*
X64852731Y-91579819D01*
X64852731Y-91579819D02*
X64947969Y-91627438D01*
X64947969Y-91627438D02*
X64995588Y-91675057D01*
X64995588Y-91675057D02*
X65043207Y-91770295D01*
X65043207Y-91770295D02*
X65043207Y-91913152D01*
X65043207Y-91913152D02*
X64995588Y-92008390D01*
X64995588Y-92008390D02*
X64947969Y-92056009D01*
X64947969Y-92056009D02*
X64852731Y-92103628D01*
X64852731Y-92103628D02*
X64471779Y-92103628D01*
X65376541Y-91579819D02*
X65614636Y-92579819D01*
X65614636Y-92579819D02*
X65805112Y-91865533D01*
X65805112Y-91865533D02*
X65995588Y-92579819D01*
X65995588Y-92579819D02*
X66233684Y-91579819D01*
X66614636Y-92579819D02*
X66614636Y-91579819D01*
X66614636Y-91579819D02*
X66947969Y-92294104D01*
X66947969Y-92294104D02*
X67281302Y-91579819D01*
X67281302Y-91579819D02*
X67281302Y-92579819D01*
X61868207Y-89944580D02*
X61820588Y-89992200D01*
X61820588Y-89992200D02*
X61677731Y-90039819D01*
X61677731Y-90039819D02*
X61582493Y-90039819D01*
X61582493Y-90039819D02*
X61439636Y-89992200D01*
X61439636Y-89992200D02*
X61344398Y-89896961D01*
X61344398Y-89896961D02*
X61296779Y-89801723D01*
X61296779Y-89801723D02*
X61249160Y-89611247D01*
X61249160Y-89611247D02*
X61249160Y-89468390D01*
X61249160Y-89468390D02*
X61296779Y-89277914D01*
X61296779Y-89277914D02*
X61344398Y-89182676D01*
X61344398Y-89182676D02*
X61439636Y-89087438D01*
X61439636Y-89087438D02*
X61582493Y-89039819D01*
X61582493Y-89039819D02*
X61677731Y-89039819D01*
X61677731Y-89039819D02*
X61820588Y-89087438D01*
X61820588Y-89087438D02*
X61868207Y-89135057D01*
X62201541Y-89039819D02*
X62439636Y-90039819D01*
X62439636Y-90039819D02*
X62630112Y-89325533D01*
X62630112Y-89325533D02*
X62820588Y-90039819D01*
X62820588Y-90039819D02*
X63058684Y-89039819D01*
X64153921Y-88992200D02*
X63296779Y-90277914D01*
X65058683Y-89944580D02*
X65011064Y-89992200D01*
X65011064Y-89992200D02*
X64868207Y-90039819D01*
X64868207Y-90039819D02*
X64772969Y-90039819D01*
X64772969Y-90039819D02*
X64630112Y-89992200D01*
X64630112Y-89992200D02*
X64534874Y-89896961D01*
X64534874Y-89896961D02*
X64487255Y-89801723D01*
X64487255Y-89801723D02*
X64439636Y-89611247D01*
X64439636Y-89611247D02*
X64439636Y-89468390D01*
X64439636Y-89468390D02*
X64487255Y-89277914D01*
X64487255Y-89277914D02*
X64534874Y-89182676D01*
X64534874Y-89182676D02*
X64630112Y-89087438D01*
X64630112Y-89087438D02*
X64772969Y-89039819D01*
X64772969Y-89039819D02*
X64868207Y-89039819D01*
X64868207Y-89039819D02*
X65011064Y-89087438D01*
X65011064Y-89087438D02*
X65058683Y-89135057D01*
X66058683Y-89944580D02*
X66011064Y-89992200D01*
X66011064Y-89992200D02*
X65868207Y-90039819D01*
X65868207Y-90039819D02*
X65772969Y-90039819D01*
X65772969Y-90039819D02*
X65630112Y-89992200D01*
X65630112Y-89992200D02*
X65534874Y-89896961D01*
X65534874Y-89896961D02*
X65487255Y-89801723D01*
X65487255Y-89801723D02*
X65439636Y-89611247D01*
X65439636Y-89611247D02*
X65439636Y-89468390D01*
X65439636Y-89468390D02*
X65487255Y-89277914D01*
X65487255Y-89277914D02*
X65534874Y-89182676D01*
X65534874Y-89182676D02*
X65630112Y-89087438D01*
X65630112Y-89087438D02*
X65772969Y-89039819D01*
X65772969Y-89039819D02*
X65868207Y-89039819D01*
X65868207Y-89039819D02*
X66011064Y-89087438D01*
X66011064Y-89087438D02*
X66058683Y-89135057D01*
X66392017Y-89039819D02*
X66630112Y-90039819D01*
X66630112Y-90039819D02*
X66820588Y-89325533D01*
X66820588Y-89325533D02*
X67011064Y-90039819D01*
X67011064Y-90039819D02*
X67249160Y-89039819D01*
X85220350Y-86198152D02*
X85220350Y-86864819D01*
X84982255Y-85817200D02*
X84744160Y-86531485D01*
X84744160Y-86531485D02*
X85363207Y-86531485D01*
X79616541Y-85864819D02*
X80235588Y-85864819D01*
X80235588Y-85864819D02*
X79902255Y-86245771D01*
X79902255Y-86245771D02*
X80045112Y-86245771D01*
X80045112Y-86245771D02*
X80140350Y-86293390D01*
X80140350Y-86293390D02*
X80187969Y-86341009D01*
X80187969Y-86341009D02*
X80235588Y-86436247D01*
X80235588Y-86436247D02*
X80235588Y-86674342D01*
X80235588Y-86674342D02*
X80187969Y-86769580D01*
X80187969Y-86769580D02*
X80140350Y-86817200D01*
X80140350Y-86817200D02*
X80045112Y-86864819D01*
X80045112Y-86864819D02*
X79759398Y-86864819D01*
X79759398Y-86864819D02*
X79664160Y-86817200D01*
X79664160Y-86817200D02*
X79616541Y-86769580D01*
X74584160Y-85960057D02*
X74631779Y-85912438D01*
X74631779Y-85912438D02*
X74727017Y-85864819D01*
X74727017Y-85864819D02*
X74965112Y-85864819D01*
X74965112Y-85864819D02*
X75060350Y-85912438D01*
X75060350Y-85912438D02*
X75107969Y-85960057D01*
X75107969Y-85960057D02*
X75155588Y-86055295D01*
X75155588Y-86055295D02*
X75155588Y-86150533D01*
X75155588Y-86150533D02*
X75107969Y-86293390D01*
X75107969Y-86293390D02*
X74536541Y-86864819D01*
X74536541Y-86864819D02*
X75155588Y-86864819D01*
X70075588Y-86864819D02*
X69504160Y-86864819D01*
X69789874Y-86864819D02*
X69789874Y-85864819D01*
X69789874Y-85864819D02*
X69694636Y-86007676D01*
X69694636Y-86007676D02*
X69599398Y-86102914D01*
X69599398Y-86102914D02*
X69504160Y-86150533D01*
X118567200Y-69560839D02*
X118614819Y-69417982D01*
X118614819Y-69417982D02*
X118614819Y-69179887D01*
X118614819Y-69179887D02*
X118567200Y-69084649D01*
X118567200Y-69084649D02*
X118519580Y-69037030D01*
X118519580Y-69037030D02*
X118424342Y-68989411D01*
X118424342Y-68989411D02*
X118329104Y-68989411D01*
X118329104Y-68989411D02*
X118233866Y-69037030D01*
X118233866Y-69037030D02*
X118186247Y-69084649D01*
X118186247Y-69084649D02*
X118138628Y-69179887D01*
X118138628Y-69179887D02*
X118091009Y-69370363D01*
X118091009Y-69370363D02*
X118043390Y-69465601D01*
X118043390Y-69465601D02*
X117995771Y-69513220D01*
X117995771Y-69513220D02*
X117900533Y-69560839D01*
X117900533Y-69560839D02*
X117805295Y-69560839D01*
X117805295Y-69560839D02*
X117710057Y-69513220D01*
X117710057Y-69513220D02*
X117662438Y-69465601D01*
X117662438Y-69465601D02*
X117614819Y-69370363D01*
X117614819Y-69370363D02*
X117614819Y-69132268D01*
X117614819Y-69132268D02*
X117662438Y-68989411D01*
X117614819Y-68656077D02*
X118614819Y-68417982D01*
X118614819Y-68417982D02*
X117900533Y-68227506D01*
X117900533Y-68227506D02*
X118614819Y-68037030D01*
X118614819Y-68037030D02*
X117614819Y-67798935D01*
X118233866Y-67417982D02*
X118233866Y-66656078D01*
X118614819Y-65703697D02*
X118614819Y-66179887D01*
X118614819Y-66179887D02*
X117614819Y-66179887D01*
X118091009Y-65370363D02*
X118091009Y-65037030D01*
X118614819Y-64894173D02*
X118614819Y-65370363D01*
X118614819Y-65370363D02*
X117614819Y-65370363D01*
X117614819Y-65370363D02*
X117614819Y-64894173D01*
X118614819Y-64465601D02*
X117614819Y-64465601D01*
X117614819Y-64465601D02*
X117614819Y-64227506D01*
X117614819Y-64227506D02*
X117662438Y-64084649D01*
X117662438Y-64084649D02*
X117757676Y-63989411D01*
X117757676Y-63989411D02*
X117852914Y-63941792D01*
X117852914Y-63941792D02*
X118043390Y-63894173D01*
X118043390Y-63894173D02*
X118186247Y-63894173D01*
X118186247Y-63894173D02*
X118376723Y-63941792D01*
X118376723Y-63941792D02*
X118471961Y-63989411D01*
X118471961Y-63989411D02*
X118567200Y-64084649D01*
X118567200Y-64084649D02*
X118614819Y-64227506D01*
X118614819Y-64227506D02*
X118614819Y-64465601D01*
X106969160Y-58242200D02*
X107112017Y-58289819D01*
X107112017Y-58289819D02*
X107350112Y-58289819D01*
X107350112Y-58289819D02*
X107445350Y-58242200D01*
X107445350Y-58242200D02*
X107492969Y-58194580D01*
X107492969Y-58194580D02*
X107540588Y-58099342D01*
X107540588Y-58099342D02*
X107540588Y-58004104D01*
X107540588Y-58004104D02*
X107492969Y-57908866D01*
X107492969Y-57908866D02*
X107445350Y-57861247D01*
X107445350Y-57861247D02*
X107350112Y-57813628D01*
X107350112Y-57813628D02*
X107159636Y-57766009D01*
X107159636Y-57766009D02*
X107064398Y-57718390D01*
X107064398Y-57718390D02*
X107016779Y-57670771D01*
X107016779Y-57670771D02*
X106969160Y-57575533D01*
X106969160Y-57575533D02*
X106969160Y-57480295D01*
X106969160Y-57480295D02*
X107016779Y-57385057D01*
X107016779Y-57385057D02*
X107064398Y-57337438D01*
X107064398Y-57337438D02*
X107159636Y-57289819D01*
X107159636Y-57289819D02*
X107397731Y-57289819D01*
X107397731Y-57289819D02*
X107540588Y-57337438D01*
X107873922Y-57289819D02*
X108112017Y-58289819D01*
X108112017Y-58289819D02*
X108302493Y-57575533D01*
X108302493Y-57575533D02*
X108492969Y-58289819D01*
X108492969Y-58289819D02*
X108731065Y-57289819D01*
X109112017Y-57908866D02*
X109873922Y-57908866D01*
X110540588Y-57289819D02*
X110731064Y-57289819D01*
X110731064Y-57289819D02*
X110826302Y-57337438D01*
X110826302Y-57337438D02*
X110921540Y-57432676D01*
X110921540Y-57432676D02*
X110969159Y-57623152D01*
X110969159Y-57623152D02*
X110969159Y-57956485D01*
X110969159Y-57956485D02*
X110921540Y-58146961D01*
X110921540Y-58146961D02*
X110826302Y-58242200D01*
X110826302Y-58242200D02*
X110731064Y-58289819D01*
X110731064Y-58289819D02*
X110540588Y-58289819D01*
X110540588Y-58289819D02*
X110445350Y-58242200D01*
X110445350Y-58242200D02*
X110350112Y-58146961D01*
X110350112Y-58146961D02*
X110302493Y-57956485D01*
X110302493Y-57956485D02*
X110302493Y-57623152D01*
X110302493Y-57623152D02*
X110350112Y-57432676D01*
X110350112Y-57432676D02*
X110445350Y-57337438D01*
X110445350Y-57337438D02*
X110540588Y-57289819D01*
X111397731Y-57289819D02*
X111397731Y-58099342D01*
X111397731Y-58099342D02*
X111445350Y-58194580D01*
X111445350Y-58194580D02*
X111492969Y-58242200D01*
X111492969Y-58242200D02*
X111588207Y-58289819D01*
X111588207Y-58289819D02*
X111778683Y-58289819D01*
X111778683Y-58289819D02*
X111873921Y-58242200D01*
X111873921Y-58242200D02*
X111921540Y-58194580D01*
X111921540Y-58194580D02*
X111969159Y-58099342D01*
X111969159Y-58099342D02*
X111969159Y-57289819D01*
X112302493Y-57289819D02*
X112873921Y-57289819D01*
X112588207Y-58289819D02*
X112588207Y-57289819D01*
X108239160Y-53162200D02*
X108382017Y-53209819D01*
X108382017Y-53209819D02*
X108620112Y-53209819D01*
X108620112Y-53209819D02*
X108715350Y-53162200D01*
X108715350Y-53162200D02*
X108762969Y-53114580D01*
X108762969Y-53114580D02*
X108810588Y-53019342D01*
X108810588Y-53019342D02*
X108810588Y-52924104D01*
X108810588Y-52924104D02*
X108762969Y-52828866D01*
X108762969Y-52828866D02*
X108715350Y-52781247D01*
X108715350Y-52781247D02*
X108620112Y-52733628D01*
X108620112Y-52733628D02*
X108429636Y-52686009D01*
X108429636Y-52686009D02*
X108334398Y-52638390D01*
X108334398Y-52638390D02*
X108286779Y-52590771D01*
X108286779Y-52590771D02*
X108239160Y-52495533D01*
X108239160Y-52495533D02*
X108239160Y-52400295D01*
X108239160Y-52400295D02*
X108286779Y-52305057D01*
X108286779Y-52305057D02*
X108334398Y-52257438D01*
X108334398Y-52257438D02*
X108429636Y-52209819D01*
X108429636Y-52209819D02*
X108667731Y-52209819D01*
X108667731Y-52209819D02*
X108810588Y-52257438D01*
X109143922Y-52209819D02*
X109382017Y-53209819D01*
X109382017Y-53209819D02*
X109572493Y-52495533D01*
X109572493Y-52495533D02*
X109762969Y-53209819D01*
X109762969Y-53209819D02*
X110001065Y-52209819D01*
X110382017Y-52828866D02*
X111143922Y-52828866D01*
X111620112Y-53209819D02*
X111620112Y-52209819D01*
X112096302Y-53209819D02*
X112096302Y-52209819D01*
X112096302Y-52209819D02*
X112667730Y-53209819D01*
X112667730Y-53209819D02*
X112667730Y-52209819D01*
X114493922Y-61099819D02*
X114827255Y-62099819D01*
X114827255Y-62099819D02*
X115160588Y-61099819D01*
X115493922Y-62099819D02*
X115493922Y-61099819D01*
X115493922Y-61099819D02*
X115732017Y-61099819D01*
X115732017Y-61099819D02*
X115874874Y-61147438D01*
X115874874Y-61147438D02*
X115970112Y-61242676D01*
X115970112Y-61242676D02*
X116017731Y-61337914D01*
X116017731Y-61337914D02*
X116065350Y-61528390D01*
X116065350Y-61528390D02*
X116065350Y-61671247D01*
X116065350Y-61671247D02*
X116017731Y-61861723D01*
X116017731Y-61861723D02*
X115970112Y-61956961D01*
X115970112Y-61956961D02*
X115874874Y-62052200D01*
X115874874Y-62052200D02*
X115732017Y-62099819D01*
X115732017Y-62099819D02*
X115493922Y-62099819D01*
X116493922Y-62099819D02*
X116493922Y-61099819D01*
X116493922Y-61099819D02*
X116732017Y-61099819D01*
X116732017Y-61099819D02*
X116874874Y-61147438D01*
X116874874Y-61147438D02*
X116970112Y-61242676D01*
X116970112Y-61242676D02*
X117017731Y-61337914D01*
X117017731Y-61337914D02*
X117065350Y-61528390D01*
X117065350Y-61528390D02*
X117065350Y-61671247D01*
X117065350Y-61671247D02*
X117017731Y-61861723D01*
X117017731Y-61861723D02*
X116970112Y-61956961D01*
X116970112Y-61956961D02*
X116874874Y-62052200D01*
X116874874Y-62052200D02*
X116732017Y-62099819D01*
X116732017Y-62099819D02*
X116493922Y-62099819D01*
X118745000Y-61595000D02*
X117475000Y-61595000D01*
X118745000Y-57785000D02*
X118745000Y-61595000D01*
X117475000Y-57785000D02*
X118745000Y-57785000D01*
X118745000Y-52705000D02*
X117475000Y-52705000D01*
X118745000Y-46990000D02*
X118745000Y-52705000D01*
X117475000Y-46990000D02*
X118745000Y-46990000D01*
X118745000Y-27305000D02*
X118110000Y-27305000D01*
X118745000Y-27940000D02*
X118745000Y-27305000D01*
X115160588Y-26857438D02*
X115065350Y-26809819D01*
X115065350Y-26809819D02*
X114922493Y-26809819D01*
X114922493Y-26809819D02*
X114779636Y-26857438D01*
X114779636Y-26857438D02*
X114684398Y-26952676D01*
X114684398Y-26952676D02*
X114636779Y-27047914D01*
X114636779Y-27047914D02*
X114589160Y-27238390D01*
X114589160Y-27238390D02*
X114589160Y-27381247D01*
X114589160Y-27381247D02*
X114636779Y-27571723D01*
X114636779Y-27571723D02*
X114684398Y-27666961D01*
X114684398Y-27666961D02*
X114779636Y-27762200D01*
X114779636Y-27762200D02*
X114922493Y-27809819D01*
X114922493Y-27809819D02*
X115017731Y-27809819D01*
X115017731Y-27809819D02*
X115160588Y-27762200D01*
X115160588Y-27762200D02*
X115208207Y-27714580D01*
X115208207Y-27714580D02*
X115208207Y-27381247D01*
X115208207Y-27381247D02*
X115017731Y-27381247D01*
X115636779Y-27809819D02*
X115636779Y-26809819D01*
X115636779Y-26809819D02*
X116208207Y-27809819D01*
X116208207Y-27809819D02*
X116208207Y-26809819D01*
X116684398Y-27809819D02*
X116684398Y-26809819D01*
X116684398Y-26809819D02*
X116922493Y-26809819D01*
X116922493Y-26809819D02*
X117065350Y-26857438D01*
X117065350Y-26857438D02*
X117160588Y-26952676D01*
X117160588Y-26952676D02*
X117208207Y-27047914D01*
X117208207Y-27047914D02*
X117255826Y-27238390D01*
X117255826Y-27238390D02*
X117255826Y-27381247D01*
X117255826Y-27381247D02*
X117208207Y-27571723D01*
X117208207Y-27571723D02*
X117160588Y-27666961D01*
X117160588Y-27666961D02*
X117065350Y-27762200D01*
X117065350Y-27762200D02*
X116922493Y-27809819D01*
X116922493Y-27809819D02*
X116684398Y-27809819D01*
X118745000Y-31115000D02*
X118745000Y-27940000D01*
X117475000Y-31115000D02*
X118745000Y-31115000D01*
X118745000Y-41910000D02*
X117475000Y-41910000D01*
X118745000Y-36195000D02*
X118745000Y-41910000D01*
X117475000Y-36195000D02*
X118745000Y-36195000D01*
X108286779Y-42033866D02*
X109048684Y-42033866D01*
X109858207Y-41891009D02*
X110001064Y-41938628D01*
X110001064Y-41938628D02*
X110048683Y-41986247D01*
X110048683Y-41986247D02*
X110096302Y-42081485D01*
X110096302Y-42081485D02*
X110096302Y-42224342D01*
X110096302Y-42224342D02*
X110048683Y-42319580D01*
X110048683Y-42319580D02*
X110001064Y-42367200D01*
X110001064Y-42367200D02*
X109905826Y-42414819D01*
X109905826Y-42414819D02*
X109524874Y-42414819D01*
X109524874Y-42414819D02*
X109524874Y-41414819D01*
X109524874Y-41414819D02*
X109858207Y-41414819D01*
X109858207Y-41414819D02*
X109953445Y-41462438D01*
X109953445Y-41462438D02*
X110001064Y-41510057D01*
X110001064Y-41510057D02*
X110048683Y-41605295D01*
X110048683Y-41605295D02*
X110048683Y-41700533D01*
X110048683Y-41700533D02*
X110001064Y-41795771D01*
X110001064Y-41795771D02*
X109953445Y-41843390D01*
X109953445Y-41843390D02*
X109858207Y-41891009D01*
X109858207Y-41891009D02*
X109524874Y-41891009D01*
X110477255Y-42129104D02*
X110953445Y-42129104D01*
X110382017Y-42414819D02*
X110715350Y-41414819D01*
X110715350Y-41414819D02*
X111048683Y-42414819D01*
X111239160Y-41414819D02*
X111810588Y-41414819D01*
X111524874Y-42414819D02*
X111524874Y-41414819D01*
X112001065Y-41414819D02*
X112572493Y-41414819D01*
X112286779Y-42414819D02*
X112286779Y-41414819D01*
X108286779Y-47113866D02*
X109048684Y-47113866D01*
X108667731Y-47494819D02*
X108667731Y-46732914D01*
X109858207Y-46971009D02*
X110001064Y-47018628D01*
X110001064Y-47018628D02*
X110048683Y-47066247D01*
X110048683Y-47066247D02*
X110096302Y-47161485D01*
X110096302Y-47161485D02*
X110096302Y-47304342D01*
X110096302Y-47304342D02*
X110048683Y-47399580D01*
X110048683Y-47399580D02*
X110001064Y-47447200D01*
X110001064Y-47447200D02*
X109905826Y-47494819D01*
X109905826Y-47494819D02*
X109524874Y-47494819D01*
X109524874Y-47494819D02*
X109524874Y-46494819D01*
X109524874Y-46494819D02*
X109858207Y-46494819D01*
X109858207Y-46494819D02*
X109953445Y-46542438D01*
X109953445Y-46542438D02*
X110001064Y-46590057D01*
X110001064Y-46590057D02*
X110048683Y-46685295D01*
X110048683Y-46685295D02*
X110048683Y-46780533D01*
X110048683Y-46780533D02*
X110001064Y-46875771D01*
X110001064Y-46875771D02*
X109953445Y-46923390D01*
X109953445Y-46923390D02*
X109858207Y-46971009D01*
X109858207Y-46971009D02*
X109524874Y-46971009D01*
X110477255Y-47209104D02*
X110953445Y-47209104D01*
X110382017Y-47494819D02*
X110715350Y-46494819D01*
X110715350Y-46494819D02*
X111048683Y-47494819D01*
X111239160Y-46494819D02*
X111810588Y-46494819D01*
X111524874Y-47494819D02*
X111524874Y-46494819D01*
X112001065Y-46494819D02*
X112572493Y-46494819D01*
X112286779Y-47494819D02*
X112286779Y-46494819D01*
X107651779Y-36318866D02*
X108413684Y-36318866D01*
X108032731Y-36699819D02*
X108032731Y-35937914D01*
X109223207Y-36176009D02*
X109366064Y-36223628D01*
X109366064Y-36223628D02*
X109413683Y-36271247D01*
X109413683Y-36271247D02*
X109461302Y-36366485D01*
X109461302Y-36366485D02*
X109461302Y-36509342D01*
X109461302Y-36509342D02*
X109413683Y-36604580D01*
X109413683Y-36604580D02*
X109366064Y-36652200D01*
X109366064Y-36652200D02*
X109270826Y-36699819D01*
X109270826Y-36699819D02*
X108889874Y-36699819D01*
X108889874Y-36699819D02*
X108889874Y-35699819D01*
X108889874Y-35699819D02*
X109223207Y-35699819D01*
X109223207Y-35699819D02*
X109318445Y-35747438D01*
X109318445Y-35747438D02*
X109366064Y-35795057D01*
X109366064Y-35795057D02*
X109413683Y-35890295D01*
X109413683Y-35890295D02*
X109413683Y-35985533D01*
X109413683Y-35985533D02*
X109366064Y-36080771D01*
X109366064Y-36080771D02*
X109318445Y-36128390D01*
X109318445Y-36128390D02*
X109223207Y-36176009D01*
X109223207Y-36176009D02*
X108889874Y-36176009D01*
X109842255Y-36414104D02*
X110318445Y-36414104D01*
X109747017Y-36699819D02*
X110080350Y-35699819D01*
X110080350Y-35699819D02*
X110413683Y-36699819D01*
X110604160Y-35699819D02*
X111175588Y-35699819D01*
X110889874Y-36699819D02*
X110889874Y-35699819D01*
X111366065Y-35699819D02*
X111937493Y-35699819D01*
X111651779Y-36699819D02*
X111651779Y-35699819D01*
X107016779Y-31238866D02*
X107778684Y-31238866D01*
X108588207Y-31096009D02*
X108731064Y-31143628D01*
X108731064Y-31143628D02*
X108778683Y-31191247D01*
X108778683Y-31191247D02*
X108826302Y-31286485D01*
X108826302Y-31286485D02*
X108826302Y-31429342D01*
X108826302Y-31429342D02*
X108778683Y-31524580D01*
X108778683Y-31524580D02*
X108731064Y-31572200D01*
X108731064Y-31572200D02*
X108635826Y-31619819D01*
X108635826Y-31619819D02*
X108254874Y-31619819D01*
X108254874Y-31619819D02*
X108254874Y-30619819D01*
X108254874Y-30619819D02*
X108588207Y-30619819D01*
X108588207Y-30619819D02*
X108683445Y-30667438D01*
X108683445Y-30667438D02*
X108731064Y-30715057D01*
X108731064Y-30715057D02*
X108778683Y-30810295D01*
X108778683Y-30810295D02*
X108778683Y-30905533D01*
X108778683Y-30905533D02*
X108731064Y-31000771D01*
X108731064Y-31000771D02*
X108683445Y-31048390D01*
X108683445Y-31048390D02*
X108588207Y-31096009D01*
X108588207Y-31096009D02*
X108254874Y-31096009D01*
X109207255Y-31334104D02*
X109683445Y-31334104D01*
X109112017Y-31619819D02*
X109445350Y-30619819D01*
X109445350Y-30619819D02*
X109778683Y-31619819D01*
X109969160Y-30619819D02*
X110540588Y-30619819D01*
X110254874Y-31619819D02*
X110254874Y-30619819D01*
X110731065Y-30619819D02*
X111302493Y-30619819D01*
X111016779Y-31619819D02*
X111016779Y-30619819D01*
X104234819Y-72212030D02*
X104234819Y-72688220D01*
X104234819Y-72688220D02*
X104711009Y-72735839D01*
X104711009Y-72735839D02*
X104663390Y-72688220D01*
X104663390Y-72688220D02*
X104615771Y-72592982D01*
X104615771Y-72592982D02*
X104615771Y-72354887D01*
X104615771Y-72354887D02*
X104663390Y-72259649D01*
X104663390Y-72259649D02*
X104711009Y-72212030D01*
X104711009Y-72212030D02*
X104806247Y-72164411D01*
X104806247Y-72164411D02*
X105044342Y-72164411D01*
X105044342Y-72164411D02*
X105139580Y-72212030D01*
X105139580Y-72212030D02*
X105187200Y-72259649D01*
X105187200Y-72259649D02*
X105234819Y-72354887D01*
X105234819Y-72354887D02*
X105234819Y-72592982D01*
X105234819Y-72592982D02*
X105187200Y-72688220D01*
X105187200Y-72688220D02*
X105139580Y-72735839D01*
X104234819Y-71878696D02*
X105234819Y-71545363D01*
X105234819Y-71545363D02*
X104234819Y-71212030D01*
X105892438Y-72164411D02*
X105844819Y-72259649D01*
X105844819Y-72259649D02*
X105844819Y-72402506D01*
X105844819Y-72402506D02*
X105892438Y-72545363D01*
X105892438Y-72545363D02*
X105987676Y-72640601D01*
X105987676Y-72640601D02*
X106082914Y-72688220D01*
X106082914Y-72688220D02*
X106273390Y-72735839D01*
X106273390Y-72735839D02*
X106416247Y-72735839D01*
X106416247Y-72735839D02*
X106606723Y-72688220D01*
X106606723Y-72688220D02*
X106701961Y-72640601D01*
X106701961Y-72640601D02*
X106797200Y-72545363D01*
X106797200Y-72545363D02*
X106844819Y-72402506D01*
X106844819Y-72402506D02*
X106844819Y-72307268D01*
X106844819Y-72307268D02*
X106797200Y-72164411D01*
X106797200Y-72164411D02*
X106749580Y-72116792D01*
X106749580Y-72116792D02*
X106416247Y-72116792D01*
X106416247Y-72116792D02*
X106416247Y-72307268D01*
X106844819Y-71688220D02*
X105844819Y-71688220D01*
X105844819Y-71688220D02*
X106844819Y-71116792D01*
X106844819Y-71116792D02*
X105844819Y-71116792D01*
X106844819Y-70640601D02*
X105844819Y-70640601D01*
X105844819Y-70640601D02*
X105844819Y-70402506D01*
X105844819Y-70402506D02*
X105892438Y-70259649D01*
X105892438Y-70259649D02*
X105987676Y-70164411D01*
X105987676Y-70164411D02*
X106082914Y-70116792D01*
X106082914Y-70116792D02*
X106273390Y-70069173D01*
X106273390Y-70069173D02*
X106416247Y-70069173D01*
X106416247Y-70069173D02*
X106606723Y-70116792D01*
X106606723Y-70116792D02*
X106701961Y-70164411D01*
X106701961Y-70164411D02*
X106797200Y-70259649D01*
X106797200Y-70259649D02*
X106844819Y-70402506D01*
X106844819Y-70402506D02*
X106844819Y-70640601D01*
X107454819Y-72831077D02*
X108454819Y-72497744D01*
X108454819Y-72497744D02*
X107454819Y-72164411D01*
X108454819Y-71831077D02*
X107454819Y-71831077D01*
X107454819Y-71831077D02*
X107454819Y-71592982D01*
X107454819Y-71592982D02*
X107502438Y-71450125D01*
X107502438Y-71450125D02*
X107597676Y-71354887D01*
X107597676Y-71354887D02*
X107692914Y-71307268D01*
X107692914Y-71307268D02*
X107883390Y-71259649D01*
X107883390Y-71259649D02*
X108026247Y-71259649D01*
X108026247Y-71259649D02*
X108216723Y-71307268D01*
X108216723Y-71307268D02*
X108311961Y-71354887D01*
X108311961Y-71354887D02*
X108407200Y-71450125D01*
X108407200Y-71450125D02*
X108454819Y-71592982D01*
X108454819Y-71592982D02*
X108454819Y-71831077D01*
X108454819Y-70831077D02*
X107454819Y-70831077D01*
X107454819Y-70831077D02*
X107454819Y-70592982D01*
X107454819Y-70592982D02*
X107502438Y-70450125D01*
X107502438Y-70450125D02*
X107597676Y-70354887D01*
X107597676Y-70354887D02*
X107692914Y-70307268D01*
X107692914Y-70307268D02*
X107883390Y-70259649D01*
X107883390Y-70259649D02*
X108026247Y-70259649D01*
X108026247Y-70259649D02*
X108216723Y-70307268D01*
X108216723Y-70307268D02*
X108311961Y-70354887D01*
X108311961Y-70354887D02*
X108407200Y-70450125D01*
X108407200Y-70450125D02*
X108454819Y-70592982D01*
X108454819Y-70592982D02*
X108454819Y-70831077D01*
X90506779Y-46224819D02*
X90506779Y-45224819D01*
X90506779Y-45224819D02*
X90840112Y-45939104D01*
X90840112Y-45939104D02*
X91173445Y-45224819D01*
X91173445Y-45224819D02*
X91173445Y-46224819D01*
X91792493Y-46224819D02*
X91697255Y-46177200D01*
X91697255Y-46177200D02*
X91649636Y-46129580D01*
X91649636Y-46129580D02*
X91602017Y-46034342D01*
X91602017Y-46034342D02*
X91602017Y-45748628D01*
X91602017Y-45748628D02*
X91649636Y-45653390D01*
X91649636Y-45653390D02*
X91697255Y-45605771D01*
X91697255Y-45605771D02*
X91792493Y-45558152D01*
X91792493Y-45558152D02*
X91935350Y-45558152D01*
X91935350Y-45558152D02*
X92030588Y-45605771D01*
X92030588Y-45605771D02*
X92078207Y-45653390D01*
X92078207Y-45653390D02*
X92125826Y-45748628D01*
X92125826Y-45748628D02*
X92125826Y-46034342D01*
X92125826Y-46034342D02*
X92078207Y-46129580D01*
X92078207Y-46129580D02*
X92030588Y-46177200D01*
X92030588Y-46177200D02*
X91935350Y-46224819D01*
X91935350Y-46224819D02*
X91792493Y-46224819D01*
X92411541Y-45558152D02*
X92792493Y-45558152D01*
X92554398Y-45224819D02*
X92554398Y-46081961D01*
X92554398Y-46081961D02*
X92602017Y-46177200D01*
X92602017Y-46177200D02*
X92697255Y-46224819D01*
X92697255Y-46224819D02*
X92792493Y-46224819D01*
X93268684Y-46224819D02*
X93173446Y-46177200D01*
X93173446Y-46177200D02*
X93125827Y-46129580D01*
X93125827Y-46129580D02*
X93078208Y-46034342D01*
X93078208Y-46034342D02*
X93078208Y-45748628D01*
X93078208Y-45748628D02*
X93125827Y-45653390D01*
X93125827Y-45653390D02*
X93173446Y-45605771D01*
X93173446Y-45605771D02*
X93268684Y-45558152D01*
X93268684Y-45558152D02*
X93411541Y-45558152D01*
X93411541Y-45558152D02*
X93506779Y-45605771D01*
X93506779Y-45605771D02*
X93554398Y-45653390D01*
X93554398Y-45653390D02*
X93602017Y-45748628D01*
X93602017Y-45748628D02*
X93602017Y-46034342D01*
X93602017Y-46034342D02*
X93554398Y-46129580D01*
X93554398Y-46129580D02*
X93506779Y-46177200D01*
X93506779Y-46177200D02*
X93411541Y-46224819D01*
X93411541Y-46224819D02*
X93268684Y-46224819D01*
X94030589Y-46224819D02*
X94030589Y-45558152D01*
X94030589Y-45748628D02*
X94078208Y-45653390D01*
X94078208Y-45653390D02*
X94125827Y-45605771D01*
X94125827Y-45605771D02*
X94221065Y-45558152D01*
X94221065Y-45558152D02*
X94316303Y-45558152D01*
X94649637Y-45843866D02*
X95411542Y-45843866D01*
X96316303Y-45558152D02*
X96316303Y-46224819D01*
X96078208Y-45177200D02*
X95840113Y-45891485D01*
X95840113Y-45891485D02*
X96459160Y-45891485D01*
X74631779Y-46224819D02*
X74631779Y-45224819D01*
X74631779Y-45224819D02*
X74965112Y-45939104D01*
X74965112Y-45939104D02*
X75298445Y-45224819D01*
X75298445Y-45224819D02*
X75298445Y-46224819D01*
X75917493Y-46224819D02*
X75822255Y-46177200D01*
X75822255Y-46177200D02*
X75774636Y-46129580D01*
X75774636Y-46129580D02*
X75727017Y-46034342D01*
X75727017Y-46034342D02*
X75727017Y-45748628D01*
X75727017Y-45748628D02*
X75774636Y-45653390D01*
X75774636Y-45653390D02*
X75822255Y-45605771D01*
X75822255Y-45605771D02*
X75917493Y-45558152D01*
X75917493Y-45558152D02*
X76060350Y-45558152D01*
X76060350Y-45558152D02*
X76155588Y-45605771D01*
X76155588Y-45605771D02*
X76203207Y-45653390D01*
X76203207Y-45653390D02*
X76250826Y-45748628D01*
X76250826Y-45748628D02*
X76250826Y-46034342D01*
X76250826Y-46034342D02*
X76203207Y-46129580D01*
X76203207Y-46129580D02*
X76155588Y-46177200D01*
X76155588Y-46177200D02*
X76060350Y-46224819D01*
X76060350Y-46224819D02*
X75917493Y-46224819D01*
X76536541Y-45558152D02*
X76917493Y-45558152D01*
X76679398Y-45224819D02*
X76679398Y-46081961D01*
X76679398Y-46081961D02*
X76727017Y-46177200D01*
X76727017Y-46177200D02*
X76822255Y-46224819D01*
X76822255Y-46224819D02*
X76917493Y-46224819D01*
X77393684Y-46224819D02*
X77298446Y-46177200D01*
X77298446Y-46177200D02*
X77250827Y-46129580D01*
X77250827Y-46129580D02*
X77203208Y-46034342D01*
X77203208Y-46034342D02*
X77203208Y-45748628D01*
X77203208Y-45748628D02*
X77250827Y-45653390D01*
X77250827Y-45653390D02*
X77298446Y-45605771D01*
X77298446Y-45605771D02*
X77393684Y-45558152D01*
X77393684Y-45558152D02*
X77536541Y-45558152D01*
X77536541Y-45558152D02*
X77631779Y-45605771D01*
X77631779Y-45605771D02*
X77679398Y-45653390D01*
X77679398Y-45653390D02*
X77727017Y-45748628D01*
X77727017Y-45748628D02*
X77727017Y-46034342D01*
X77727017Y-46034342D02*
X77679398Y-46129580D01*
X77679398Y-46129580D02*
X77631779Y-46177200D01*
X77631779Y-46177200D02*
X77536541Y-46224819D01*
X77536541Y-46224819D02*
X77393684Y-46224819D01*
X78155589Y-46224819D02*
X78155589Y-45558152D01*
X78155589Y-45748628D02*
X78203208Y-45653390D01*
X78203208Y-45653390D02*
X78250827Y-45605771D01*
X78250827Y-45605771D02*
X78346065Y-45558152D01*
X78346065Y-45558152D02*
X78441303Y-45558152D01*
X78774637Y-45843866D02*
X79536542Y-45843866D01*
X79917494Y-45224819D02*
X80536541Y-45224819D01*
X80536541Y-45224819D02*
X80203208Y-45605771D01*
X80203208Y-45605771D02*
X80346065Y-45605771D01*
X80346065Y-45605771D02*
X80441303Y-45653390D01*
X80441303Y-45653390D02*
X80488922Y-45701009D01*
X80488922Y-45701009D02*
X80536541Y-45796247D01*
X80536541Y-45796247D02*
X80536541Y-46034342D01*
X80536541Y-46034342D02*
X80488922Y-46129580D01*
X80488922Y-46129580D02*
X80441303Y-46177200D01*
X80441303Y-46177200D02*
X80346065Y-46224819D01*
X80346065Y-46224819D02*
X80060351Y-46224819D01*
X80060351Y-46224819D02*
X79965113Y-46177200D01*
X79965113Y-46177200D02*
X79917494Y-46129580D01*
X60026779Y-46224819D02*
X60026779Y-45224819D01*
X60026779Y-45224819D02*
X60360112Y-45939104D01*
X60360112Y-45939104D02*
X60693445Y-45224819D01*
X60693445Y-45224819D02*
X60693445Y-46224819D01*
X61312493Y-46224819D02*
X61217255Y-46177200D01*
X61217255Y-46177200D02*
X61169636Y-46129580D01*
X61169636Y-46129580D02*
X61122017Y-46034342D01*
X61122017Y-46034342D02*
X61122017Y-45748628D01*
X61122017Y-45748628D02*
X61169636Y-45653390D01*
X61169636Y-45653390D02*
X61217255Y-45605771D01*
X61217255Y-45605771D02*
X61312493Y-45558152D01*
X61312493Y-45558152D02*
X61455350Y-45558152D01*
X61455350Y-45558152D02*
X61550588Y-45605771D01*
X61550588Y-45605771D02*
X61598207Y-45653390D01*
X61598207Y-45653390D02*
X61645826Y-45748628D01*
X61645826Y-45748628D02*
X61645826Y-46034342D01*
X61645826Y-46034342D02*
X61598207Y-46129580D01*
X61598207Y-46129580D02*
X61550588Y-46177200D01*
X61550588Y-46177200D02*
X61455350Y-46224819D01*
X61455350Y-46224819D02*
X61312493Y-46224819D01*
X61931541Y-45558152D02*
X62312493Y-45558152D01*
X62074398Y-45224819D02*
X62074398Y-46081961D01*
X62074398Y-46081961D02*
X62122017Y-46177200D01*
X62122017Y-46177200D02*
X62217255Y-46224819D01*
X62217255Y-46224819D02*
X62312493Y-46224819D01*
X62788684Y-46224819D02*
X62693446Y-46177200D01*
X62693446Y-46177200D02*
X62645827Y-46129580D01*
X62645827Y-46129580D02*
X62598208Y-46034342D01*
X62598208Y-46034342D02*
X62598208Y-45748628D01*
X62598208Y-45748628D02*
X62645827Y-45653390D01*
X62645827Y-45653390D02*
X62693446Y-45605771D01*
X62693446Y-45605771D02*
X62788684Y-45558152D01*
X62788684Y-45558152D02*
X62931541Y-45558152D01*
X62931541Y-45558152D02*
X63026779Y-45605771D01*
X63026779Y-45605771D02*
X63074398Y-45653390D01*
X63074398Y-45653390D02*
X63122017Y-45748628D01*
X63122017Y-45748628D02*
X63122017Y-46034342D01*
X63122017Y-46034342D02*
X63074398Y-46129580D01*
X63074398Y-46129580D02*
X63026779Y-46177200D01*
X63026779Y-46177200D02*
X62931541Y-46224819D01*
X62931541Y-46224819D02*
X62788684Y-46224819D01*
X63550589Y-46224819D02*
X63550589Y-45558152D01*
X63550589Y-45748628D02*
X63598208Y-45653390D01*
X63598208Y-45653390D02*
X63645827Y-45605771D01*
X63645827Y-45605771D02*
X63741065Y-45558152D01*
X63741065Y-45558152D02*
X63836303Y-45558152D01*
X64169637Y-45843866D02*
X64931542Y-45843866D01*
X65360113Y-45320057D02*
X65407732Y-45272438D01*
X65407732Y-45272438D02*
X65502970Y-45224819D01*
X65502970Y-45224819D02*
X65741065Y-45224819D01*
X65741065Y-45224819D02*
X65836303Y-45272438D01*
X65836303Y-45272438D02*
X65883922Y-45320057D01*
X65883922Y-45320057D02*
X65931541Y-45415295D01*
X65931541Y-45415295D02*
X65931541Y-45510533D01*
X65931541Y-45510533D02*
X65883922Y-45653390D01*
X65883922Y-45653390D02*
X65312494Y-46224819D01*
X65312494Y-46224819D02*
X65931541Y-46224819D01*
X44024779Y-46097819D02*
X44024779Y-45097819D01*
X44024779Y-45097819D02*
X44358112Y-45812104D01*
X44358112Y-45812104D02*
X44691445Y-45097819D01*
X44691445Y-45097819D02*
X44691445Y-46097819D01*
X45310493Y-46097819D02*
X45215255Y-46050200D01*
X45215255Y-46050200D02*
X45167636Y-46002580D01*
X45167636Y-46002580D02*
X45120017Y-45907342D01*
X45120017Y-45907342D02*
X45120017Y-45621628D01*
X45120017Y-45621628D02*
X45167636Y-45526390D01*
X45167636Y-45526390D02*
X45215255Y-45478771D01*
X45215255Y-45478771D02*
X45310493Y-45431152D01*
X45310493Y-45431152D02*
X45453350Y-45431152D01*
X45453350Y-45431152D02*
X45548588Y-45478771D01*
X45548588Y-45478771D02*
X45596207Y-45526390D01*
X45596207Y-45526390D02*
X45643826Y-45621628D01*
X45643826Y-45621628D02*
X45643826Y-45907342D01*
X45643826Y-45907342D02*
X45596207Y-46002580D01*
X45596207Y-46002580D02*
X45548588Y-46050200D01*
X45548588Y-46050200D02*
X45453350Y-46097819D01*
X45453350Y-46097819D02*
X45310493Y-46097819D01*
X45929541Y-45431152D02*
X46310493Y-45431152D01*
X46072398Y-45097819D02*
X46072398Y-45954961D01*
X46072398Y-45954961D02*
X46120017Y-46050200D01*
X46120017Y-46050200D02*
X46215255Y-46097819D01*
X46215255Y-46097819D02*
X46310493Y-46097819D01*
X46786684Y-46097819D02*
X46691446Y-46050200D01*
X46691446Y-46050200D02*
X46643827Y-46002580D01*
X46643827Y-46002580D02*
X46596208Y-45907342D01*
X46596208Y-45907342D02*
X46596208Y-45621628D01*
X46596208Y-45621628D02*
X46643827Y-45526390D01*
X46643827Y-45526390D02*
X46691446Y-45478771D01*
X46691446Y-45478771D02*
X46786684Y-45431152D01*
X46786684Y-45431152D02*
X46929541Y-45431152D01*
X46929541Y-45431152D02*
X47024779Y-45478771D01*
X47024779Y-45478771D02*
X47072398Y-45526390D01*
X47072398Y-45526390D02*
X47120017Y-45621628D01*
X47120017Y-45621628D02*
X47120017Y-45907342D01*
X47120017Y-45907342D02*
X47072398Y-46002580D01*
X47072398Y-46002580D02*
X47024779Y-46050200D01*
X47024779Y-46050200D02*
X46929541Y-46097819D01*
X46929541Y-46097819D02*
X46786684Y-46097819D01*
X47548589Y-46097819D02*
X47548589Y-45431152D01*
X47548589Y-45621628D02*
X47596208Y-45526390D01*
X47596208Y-45526390D02*
X47643827Y-45478771D01*
X47643827Y-45478771D02*
X47739065Y-45431152D01*
X47739065Y-45431152D02*
X47834303Y-45431152D01*
X48167637Y-45716866D02*
X48929542Y-45716866D01*
X49929541Y-46097819D02*
X49358113Y-46097819D01*
X49643827Y-46097819D02*
X49643827Y-45097819D01*
X49643827Y-45097819D02*
X49548589Y-45240676D01*
X49548589Y-45240676D02*
X49453351Y-45335914D01*
X49453351Y-45335914D02*
X49358113Y-45383533D01*
X38039922Y-52717819D02*
X38611350Y-52717819D01*
X38325636Y-53717819D02*
X38325636Y-52717819D01*
X39278017Y-53194009D02*
X39420874Y-53241628D01*
X39420874Y-53241628D02*
X39468493Y-53289247D01*
X39468493Y-53289247D02*
X39516112Y-53384485D01*
X39516112Y-53384485D02*
X39516112Y-53527342D01*
X39516112Y-53527342D02*
X39468493Y-53622580D01*
X39468493Y-53622580D02*
X39420874Y-53670200D01*
X39420874Y-53670200D02*
X39325636Y-53717819D01*
X39325636Y-53717819D02*
X38944684Y-53717819D01*
X38944684Y-53717819D02*
X38944684Y-52717819D01*
X38944684Y-52717819D02*
X39278017Y-52717819D01*
X39278017Y-52717819D02*
X39373255Y-52765438D01*
X39373255Y-52765438D02*
X39420874Y-52813057D01*
X39420874Y-52813057D02*
X39468493Y-52908295D01*
X39468493Y-52908295D02*
X39468493Y-53003533D01*
X39468493Y-53003533D02*
X39420874Y-53098771D01*
X39420874Y-53098771D02*
X39373255Y-53146390D01*
X39373255Y-53146390D02*
X39278017Y-53194009D01*
X39278017Y-53194009D02*
X38944684Y-53194009D01*
X40373255Y-52717819D02*
X40182779Y-52717819D01*
X40182779Y-52717819D02*
X40087541Y-52765438D01*
X40087541Y-52765438D02*
X40039922Y-52813057D01*
X40039922Y-52813057D02*
X39944684Y-52955914D01*
X39944684Y-52955914D02*
X39897065Y-53146390D01*
X39897065Y-53146390D02*
X39897065Y-53527342D01*
X39897065Y-53527342D02*
X39944684Y-53622580D01*
X39944684Y-53622580D02*
X39992303Y-53670200D01*
X39992303Y-53670200D02*
X40087541Y-53717819D01*
X40087541Y-53717819D02*
X40278017Y-53717819D01*
X40278017Y-53717819D02*
X40373255Y-53670200D01*
X40373255Y-53670200D02*
X40420874Y-53622580D01*
X40420874Y-53622580D02*
X40468493Y-53527342D01*
X40468493Y-53527342D02*
X40468493Y-53289247D01*
X40468493Y-53289247D02*
X40420874Y-53194009D01*
X40420874Y-53194009D02*
X40373255Y-53146390D01*
X40373255Y-53146390D02*
X40278017Y-53098771D01*
X40278017Y-53098771D02*
X40087541Y-53098771D01*
X40087541Y-53098771D02*
X39992303Y-53146390D01*
X39992303Y-53146390D02*
X39944684Y-53194009D01*
X39944684Y-53194009D02*
X39897065Y-53289247D01*
X41325636Y-52717819D02*
X41135160Y-52717819D01*
X41135160Y-52717819D02*
X41039922Y-52765438D01*
X41039922Y-52765438D02*
X40992303Y-52813057D01*
X40992303Y-52813057D02*
X40897065Y-52955914D01*
X40897065Y-52955914D02*
X40849446Y-53146390D01*
X40849446Y-53146390D02*
X40849446Y-53527342D01*
X40849446Y-53527342D02*
X40897065Y-53622580D01*
X40897065Y-53622580D02*
X40944684Y-53670200D01*
X40944684Y-53670200D02*
X41039922Y-53717819D01*
X41039922Y-53717819D02*
X41230398Y-53717819D01*
X41230398Y-53717819D02*
X41325636Y-53670200D01*
X41325636Y-53670200D02*
X41373255Y-53622580D01*
X41373255Y-53622580D02*
X41420874Y-53527342D01*
X41420874Y-53527342D02*
X41420874Y-53289247D01*
X41420874Y-53289247D02*
X41373255Y-53194009D01*
X41373255Y-53194009D02*
X41325636Y-53146390D01*
X41325636Y-53146390D02*
X41230398Y-53098771D01*
X41230398Y-53098771D02*
X41039922Y-53098771D01*
X41039922Y-53098771D02*
X40944684Y-53146390D01*
X40944684Y-53146390D02*
X40897065Y-53194009D01*
X40897065Y-53194009D02*
X40849446Y-53289247D01*
X42278017Y-53051152D02*
X42278017Y-53717819D01*
X42039922Y-52670200D02*
X41801827Y-53384485D01*
X41801827Y-53384485D02*
X42420874Y-53384485D01*
X42706589Y-52717819D02*
X43325636Y-52717819D01*
X43325636Y-52717819D02*
X42992303Y-53098771D01*
X42992303Y-53098771D02*
X43135160Y-53098771D01*
X43135160Y-53098771D02*
X43230398Y-53146390D01*
X43230398Y-53146390D02*
X43278017Y-53194009D01*
X43278017Y-53194009D02*
X43325636Y-53289247D01*
X43325636Y-53289247D02*
X43325636Y-53527342D01*
X43325636Y-53527342D02*
X43278017Y-53622580D01*
X43278017Y-53622580D02*
X43230398Y-53670200D01*
X43230398Y-53670200D02*
X43135160Y-53717819D01*
X43135160Y-53717819D02*
X42849446Y-53717819D01*
X42849446Y-53717819D02*
X42754208Y-53670200D01*
X42754208Y-53670200D02*
X42706589Y-53622580D01*
X43754208Y-53717819D02*
X43754208Y-52717819D01*
X44325636Y-53717819D02*
X43897065Y-53146390D01*
X44325636Y-52717819D02*
X43754208Y-53289247D01*
X45420874Y-53813057D02*
X45325636Y-53765438D01*
X45325636Y-53765438D02*
X45230398Y-53670200D01*
X45230398Y-53670200D02*
X45087541Y-53527342D01*
X45087541Y-53527342D02*
X44992303Y-53479723D01*
X44992303Y-53479723D02*
X44897065Y-53479723D01*
X44944684Y-53717819D02*
X44849446Y-53670200D01*
X44849446Y-53670200D02*
X44754208Y-53574961D01*
X44754208Y-53574961D02*
X44706589Y-53384485D01*
X44706589Y-53384485D02*
X44706589Y-53051152D01*
X44706589Y-53051152D02*
X44754208Y-52860676D01*
X44754208Y-52860676D02*
X44849446Y-52765438D01*
X44849446Y-52765438D02*
X44944684Y-52717819D01*
X44944684Y-52717819D02*
X45135160Y-52717819D01*
X45135160Y-52717819D02*
X45230398Y-52765438D01*
X45230398Y-52765438D02*
X45325636Y-52860676D01*
X45325636Y-52860676D02*
X45373255Y-53051152D01*
X45373255Y-53051152D02*
X45373255Y-53384485D01*
X45373255Y-53384485D02*
X45325636Y-53574961D01*
X45325636Y-53574961D02*
X45230398Y-53670200D01*
X45230398Y-53670200D02*
X45135160Y-53717819D01*
X45135160Y-53717819D02*
X44944684Y-53717819D01*
X57343922Y-52717819D02*
X57915350Y-52717819D01*
X57629636Y-53717819D02*
X57629636Y-52717819D01*
X58582017Y-53194009D02*
X58724874Y-53241628D01*
X58724874Y-53241628D02*
X58772493Y-53289247D01*
X58772493Y-53289247D02*
X58820112Y-53384485D01*
X58820112Y-53384485D02*
X58820112Y-53527342D01*
X58820112Y-53527342D02*
X58772493Y-53622580D01*
X58772493Y-53622580D02*
X58724874Y-53670200D01*
X58724874Y-53670200D02*
X58629636Y-53717819D01*
X58629636Y-53717819D02*
X58248684Y-53717819D01*
X58248684Y-53717819D02*
X58248684Y-52717819D01*
X58248684Y-52717819D02*
X58582017Y-52717819D01*
X58582017Y-52717819D02*
X58677255Y-52765438D01*
X58677255Y-52765438D02*
X58724874Y-52813057D01*
X58724874Y-52813057D02*
X58772493Y-52908295D01*
X58772493Y-52908295D02*
X58772493Y-53003533D01*
X58772493Y-53003533D02*
X58724874Y-53098771D01*
X58724874Y-53098771D02*
X58677255Y-53146390D01*
X58677255Y-53146390D02*
X58582017Y-53194009D01*
X58582017Y-53194009D02*
X58248684Y-53194009D01*
X59677255Y-52717819D02*
X59486779Y-52717819D01*
X59486779Y-52717819D02*
X59391541Y-52765438D01*
X59391541Y-52765438D02*
X59343922Y-52813057D01*
X59343922Y-52813057D02*
X59248684Y-52955914D01*
X59248684Y-52955914D02*
X59201065Y-53146390D01*
X59201065Y-53146390D02*
X59201065Y-53527342D01*
X59201065Y-53527342D02*
X59248684Y-53622580D01*
X59248684Y-53622580D02*
X59296303Y-53670200D01*
X59296303Y-53670200D02*
X59391541Y-53717819D01*
X59391541Y-53717819D02*
X59582017Y-53717819D01*
X59582017Y-53717819D02*
X59677255Y-53670200D01*
X59677255Y-53670200D02*
X59724874Y-53622580D01*
X59724874Y-53622580D02*
X59772493Y-53527342D01*
X59772493Y-53527342D02*
X59772493Y-53289247D01*
X59772493Y-53289247D02*
X59724874Y-53194009D01*
X59724874Y-53194009D02*
X59677255Y-53146390D01*
X59677255Y-53146390D02*
X59582017Y-53098771D01*
X59582017Y-53098771D02*
X59391541Y-53098771D01*
X59391541Y-53098771D02*
X59296303Y-53146390D01*
X59296303Y-53146390D02*
X59248684Y-53194009D01*
X59248684Y-53194009D02*
X59201065Y-53289247D01*
X60629636Y-52717819D02*
X60439160Y-52717819D01*
X60439160Y-52717819D02*
X60343922Y-52765438D01*
X60343922Y-52765438D02*
X60296303Y-52813057D01*
X60296303Y-52813057D02*
X60201065Y-52955914D01*
X60201065Y-52955914D02*
X60153446Y-53146390D01*
X60153446Y-53146390D02*
X60153446Y-53527342D01*
X60153446Y-53527342D02*
X60201065Y-53622580D01*
X60201065Y-53622580D02*
X60248684Y-53670200D01*
X60248684Y-53670200D02*
X60343922Y-53717819D01*
X60343922Y-53717819D02*
X60534398Y-53717819D01*
X60534398Y-53717819D02*
X60629636Y-53670200D01*
X60629636Y-53670200D02*
X60677255Y-53622580D01*
X60677255Y-53622580D02*
X60724874Y-53527342D01*
X60724874Y-53527342D02*
X60724874Y-53289247D01*
X60724874Y-53289247D02*
X60677255Y-53194009D01*
X60677255Y-53194009D02*
X60629636Y-53146390D01*
X60629636Y-53146390D02*
X60534398Y-53098771D01*
X60534398Y-53098771D02*
X60343922Y-53098771D01*
X60343922Y-53098771D02*
X60248684Y-53146390D01*
X60248684Y-53146390D02*
X60201065Y-53194009D01*
X60201065Y-53194009D02*
X60153446Y-53289247D01*
X61582017Y-53051152D02*
X61582017Y-53717819D01*
X61343922Y-52670200D02*
X61105827Y-53384485D01*
X61105827Y-53384485D02*
X61724874Y-53384485D01*
X62010589Y-52717819D02*
X62629636Y-52717819D01*
X62629636Y-52717819D02*
X62296303Y-53098771D01*
X62296303Y-53098771D02*
X62439160Y-53098771D01*
X62439160Y-53098771D02*
X62534398Y-53146390D01*
X62534398Y-53146390D02*
X62582017Y-53194009D01*
X62582017Y-53194009D02*
X62629636Y-53289247D01*
X62629636Y-53289247D02*
X62629636Y-53527342D01*
X62629636Y-53527342D02*
X62582017Y-53622580D01*
X62582017Y-53622580D02*
X62534398Y-53670200D01*
X62534398Y-53670200D02*
X62439160Y-53717819D01*
X62439160Y-53717819D02*
X62153446Y-53717819D01*
X62153446Y-53717819D02*
X62058208Y-53670200D01*
X62058208Y-53670200D02*
X62010589Y-53622580D01*
X63058208Y-53717819D02*
X63058208Y-52717819D01*
X63629636Y-53717819D02*
X63201065Y-53146390D01*
X63629636Y-52717819D02*
X63058208Y-53289247D01*
X64724874Y-53813057D02*
X64629636Y-53765438D01*
X64629636Y-53765438D02*
X64534398Y-53670200D01*
X64534398Y-53670200D02*
X64391541Y-53527342D01*
X64391541Y-53527342D02*
X64296303Y-53479723D01*
X64296303Y-53479723D02*
X64201065Y-53479723D01*
X64248684Y-53717819D02*
X64153446Y-53670200D01*
X64153446Y-53670200D02*
X64058208Y-53574961D01*
X64058208Y-53574961D02*
X64010589Y-53384485D01*
X64010589Y-53384485D02*
X64010589Y-53051152D01*
X64010589Y-53051152D02*
X64058208Y-52860676D01*
X64058208Y-52860676D02*
X64153446Y-52765438D01*
X64153446Y-52765438D02*
X64248684Y-52717819D01*
X64248684Y-52717819D02*
X64439160Y-52717819D01*
X64439160Y-52717819D02*
X64534398Y-52765438D01*
X64534398Y-52765438D02*
X64629636Y-52860676D01*
X64629636Y-52860676D02*
X64677255Y-53051152D01*
X64677255Y-53051152D02*
X64677255Y-53384485D01*
X64677255Y-53384485D02*
X64629636Y-53574961D01*
X64629636Y-53574961D02*
X64534398Y-53670200D01*
X64534398Y-53670200D02*
X64439160Y-53717819D01*
X64439160Y-53717819D02*
X64248684Y-53717819D01*
X76139922Y-52717819D02*
X76711350Y-52717819D01*
X76425636Y-53717819D02*
X76425636Y-52717819D01*
X77378017Y-53194009D02*
X77520874Y-53241628D01*
X77520874Y-53241628D02*
X77568493Y-53289247D01*
X77568493Y-53289247D02*
X77616112Y-53384485D01*
X77616112Y-53384485D02*
X77616112Y-53527342D01*
X77616112Y-53527342D02*
X77568493Y-53622580D01*
X77568493Y-53622580D02*
X77520874Y-53670200D01*
X77520874Y-53670200D02*
X77425636Y-53717819D01*
X77425636Y-53717819D02*
X77044684Y-53717819D01*
X77044684Y-53717819D02*
X77044684Y-52717819D01*
X77044684Y-52717819D02*
X77378017Y-52717819D01*
X77378017Y-52717819D02*
X77473255Y-52765438D01*
X77473255Y-52765438D02*
X77520874Y-52813057D01*
X77520874Y-52813057D02*
X77568493Y-52908295D01*
X77568493Y-52908295D02*
X77568493Y-53003533D01*
X77568493Y-53003533D02*
X77520874Y-53098771D01*
X77520874Y-53098771D02*
X77473255Y-53146390D01*
X77473255Y-53146390D02*
X77378017Y-53194009D01*
X77378017Y-53194009D02*
X77044684Y-53194009D01*
X78473255Y-52717819D02*
X78282779Y-52717819D01*
X78282779Y-52717819D02*
X78187541Y-52765438D01*
X78187541Y-52765438D02*
X78139922Y-52813057D01*
X78139922Y-52813057D02*
X78044684Y-52955914D01*
X78044684Y-52955914D02*
X77997065Y-53146390D01*
X77997065Y-53146390D02*
X77997065Y-53527342D01*
X77997065Y-53527342D02*
X78044684Y-53622580D01*
X78044684Y-53622580D02*
X78092303Y-53670200D01*
X78092303Y-53670200D02*
X78187541Y-53717819D01*
X78187541Y-53717819D02*
X78378017Y-53717819D01*
X78378017Y-53717819D02*
X78473255Y-53670200D01*
X78473255Y-53670200D02*
X78520874Y-53622580D01*
X78520874Y-53622580D02*
X78568493Y-53527342D01*
X78568493Y-53527342D02*
X78568493Y-53289247D01*
X78568493Y-53289247D02*
X78520874Y-53194009D01*
X78520874Y-53194009D02*
X78473255Y-53146390D01*
X78473255Y-53146390D02*
X78378017Y-53098771D01*
X78378017Y-53098771D02*
X78187541Y-53098771D01*
X78187541Y-53098771D02*
X78092303Y-53146390D01*
X78092303Y-53146390D02*
X78044684Y-53194009D01*
X78044684Y-53194009D02*
X77997065Y-53289247D01*
X79425636Y-52717819D02*
X79235160Y-52717819D01*
X79235160Y-52717819D02*
X79139922Y-52765438D01*
X79139922Y-52765438D02*
X79092303Y-52813057D01*
X79092303Y-52813057D02*
X78997065Y-52955914D01*
X78997065Y-52955914D02*
X78949446Y-53146390D01*
X78949446Y-53146390D02*
X78949446Y-53527342D01*
X78949446Y-53527342D02*
X78997065Y-53622580D01*
X78997065Y-53622580D02*
X79044684Y-53670200D01*
X79044684Y-53670200D02*
X79139922Y-53717819D01*
X79139922Y-53717819D02*
X79330398Y-53717819D01*
X79330398Y-53717819D02*
X79425636Y-53670200D01*
X79425636Y-53670200D02*
X79473255Y-53622580D01*
X79473255Y-53622580D02*
X79520874Y-53527342D01*
X79520874Y-53527342D02*
X79520874Y-53289247D01*
X79520874Y-53289247D02*
X79473255Y-53194009D01*
X79473255Y-53194009D02*
X79425636Y-53146390D01*
X79425636Y-53146390D02*
X79330398Y-53098771D01*
X79330398Y-53098771D02*
X79139922Y-53098771D01*
X79139922Y-53098771D02*
X79044684Y-53146390D01*
X79044684Y-53146390D02*
X78997065Y-53194009D01*
X78997065Y-53194009D02*
X78949446Y-53289247D01*
X80378017Y-53051152D02*
X80378017Y-53717819D01*
X80139922Y-52670200D02*
X79901827Y-53384485D01*
X79901827Y-53384485D02*
X80520874Y-53384485D01*
X80806589Y-52717819D02*
X81425636Y-52717819D01*
X81425636Y-52717819D02*
X81092303Y-53098771D01*
X81092303Y-53098771D02*
X81235160Y-53098771D01*
X81235160Y-53098771D02*
X81330398Y-53146390D01*
X81330398Y-53146390D02*
X81378017Y-53194009D01*
X81378017Y-53194009D02*
X81425636Y-53289247D01*
X81425636Y-53289247D02*
X81425636Y-53527342D01*
X81425636Y-53527342D02*
X81378017Y-53622580D01*
X81378017Y-53622580D02*
X81330398Y-53670200D01*
X81330398Y-53670200D02*
X81235160Y-53717819D01*
X81235160Y-53717819D02*
X80949446Y-53717819D01*
X80949446Y-53717819D02*
X80854208Y-53670200D01*
X80854208Y-53670200D02*
X80806589Y-53622580D01*
X81854208Y-53717819D02*
X81854208Y-52717819D01*
X82425636Y-53717819D02*
X81997065Y-53146390D01*
X82425636Y-52717819D02*
X81854208Y-53289247D01*
X83520874Y-53813057D02*
X83425636Y-53765438D01*
X83425636Y-53765438D02*
X83330398Y-53670200D01*
X83330398Y-53670200D02*
X83187541Y-53527342D01*
X83187541Y-53527342D02*
X83092303Y-53479723D01*
X83092303Y-53479723D02*
X82997065Y-53479723D01*
X83044684Y-53717819D02*
X82949446Y-53670200D01*
X82949446Y-53670200D02*
X82854208Y-53574961D01*
X82854208Y-53574961D02*
X82806589Y-53384485D01*
X82806589Y-53384485D02*
X82806589Y-53051152D01*
X82806589Y-53051152D02*
X82854208Y-52860676D01*
X82854208Y-52860676D02*
X82949446Y-52765438D01*
X82949446Y-52765438D02*
X83044684Y-52717819D01*
X83044684Y-52717819D02*
X83235160Y-52717819D01*
X83235160Y-52717819D02*
X83330398Y-52765438D01*
X83330398Y-52765438D02*
X83425636Y-52860676D01*
X83425636Y-52860676D02*
X83473255Y-53051152D01*
X83473255Y-53051152D02*
X83473255Y-53384485D01*
X83473255Y-53384485D02*
X83425636Y-53574961D01*
X83425636Y-53574961D02*
X83330398Y-53670200D01*
X83330398Y-53670200D02*
X83235160Y-53717819D01*
X83235160Y-53717819D02*
X83044684Y-53717819D01*
X95443922Y-52717819D02*
X96015350Y-52717819D01*
X95729636Y-53717819D02*
X95729636Y-52717819D01*
X96682017Y-53194009D02*
X96824874Y-53241628D01*
X96824874Y-53241628D02*
X96872493Y-53289247D01*
X96872493Y-53289247D02*
X96920112Y-53384485D01*
X96920112Y-53384485D02*
X96920112Y-53527342D01*
X96920112Y-53527342D02*
X96872493Y-53622580D01*
X96872493Y-53622580D02*
X96824874Y-53670200D01*
X96824874Y-53670200D02*
X96729636Y-53717819D01*
X96729636Y-53717819D02*
X96348684Y-53717819D01*
X96348684Y-53717819D02*
X96348684Y-52717819D01*
X96348684Y-52717819D02*
X96682017Y-52717819D01*
X96682017Y-52717819D02*
X96777255Y-52765438D01*
X96777255Y-52765438D02*
X96824874Y-52813057D01*
X96824874Y-52813057D02*
X96872493Y-52908295D01*
X96872493Y-52908295D02*
X96872493Y-53003533D01*
X96872493Y-53003533D02*
X96824874Y-53098771D01*
X96824874Y-53098771D02*
X96777255Y-53146390D01*
X96777255Y-53146390D02*
X96682017Y-53194009D01*
X96682017Y-53194009D02*
X96348684Y-53194009D01*
X97777255Y-52717819D02*
X97586779Y-52717819D01*
X97586779Y-52717819D02*
X97491541Y-52765438D01*
X97491541Y-52765438D02*
X97443922Y-52813057D01*
X97443922Y-52813057D02*
X97348684Y-52955914D01*
X97348684Y-52955914D02*
X97301065Y-53146390D01*
X97301065Y-53146390D02*
X97301065Y-53527342D01*
X97301065Y-53527342D02*
X97348684Y-53622580D01*
X97348684Y-53622580D02*
X97396303Y-53670200D01*
X97396303Y-53670200D02*
X97491541Y-53717819D01*
X97491541Y-53717819D02*
X97682017Y-53717819D01*
X97682017Y-53717819D02*
X97777255Y-53670200D01*
X97777255Y-53670200D02*
X97824874Y-53622580D01*
X97824874Y-53622580D02*
X97872493Y-53527342D01*
X97872493Y-53527342D02*
X97872493Y-53289247D01*
X97872493Y-53289247D02*
X97824874Y-53194009D01*
X97824874Y-53194009D02*
X97777255Y-53146390D01*
X97777255Y-53146390D02*
X97682017Y-53098771D01*
X97682017Y-53098771D02*
X97491541Y-53098771D01*
X97491541Y-53098771D02*
X97396303Y-53146390D01*
X97396303Y-53146390D02*
X97348684Y-53194009D01*
X97348684Y-53194009D02*
X97301065Y-53289247D01*
X98729636Y-52717819D02*
X98539160Y-52717819D01*
X98539160Y-52717819D02*
X98443922Y-52765438D01*
X98443922Y-52765438D02*
X98396303Y-52813057D01*
X98396303Y-52813057D02*
X98301065Y-52955914D01*
X98301065Y-52955914D02*
X98253446Y-53146390D01*
X98253446Y-53146390D02*
X98253446Y-53527342D01*
X98253446Y-53527342D02*
X98301065Y-53622580D01*
X98301065Y-53622580D02*
X98348684Y-53670200D01*
X98348684Y-53670200D02*
X98443922Y-53717819D01*
X98443922Y-53717819D02*
X98634398Y-53717819D01*
X98634398Y-53717819D02*
X98729636Y-53670200D01*
X98729636Y-53670200D02*
X98777255Y-53622580D01*
X98777255Y-53622580D02*
X98824874Y-53527342D01*
X98824874Y-53527342D02*
X98824874Y-53289247D01*
X98824874Y-53289247D02*
X98777255Y-53194009D01*
X98777255Y-53194009D02*
X98729636Y-53146390D01*
X98729636Y-53146390D02*
X98634398Y-53098771D01*
X98634398Y-53098771D02*
X98443922Y-53098771D01*
X98443922Y-53098771D02*
X98348684Y-53146390D01*
X98348684Y-53146390D02*
X98301065Y-53194009D01*
X98301065Y-53194009D02*
X98253446Y-53289247D01*
X99682017Y-53051152D02*
X99682017Y-53717819D01*
X99443922Y-52670200D02*
X99205827Y-53384485D01*
X99205827Y-53384485D02*
X99824874Y-53384485D01*
X100110589Y-52717819D02*
X100729636Y-52717819D01*
X100729636Y-52717819D02*
X100396303Y-53098771D01*
X100396303Y-53098771D02*
X100539160Y-53098771D01*
X100539160Y-53098771D02*
X100634398Y-53146390D01*
X100634398Y-53146390D02*
X100682017Y-53194009D01*
X100682017Y-53194009D02*
X100729636Y-53289247D01*
X100729636Y-53289247D02*
X100729636Y-53527342D01*
X100729636Y-53527342D02*
X100682017Y-53622580D01*
X100682017Y-53622580D02*
X100634398Y-53670200D01*
X100634398Y-53670200D02*
X100539160Y-53717819D01*
X100539160Y-53717819D02*
X100253446Y-53717819D01*
X100253446Y-53717819D02*
X100158208Y-53670200D01*
X100158208Y-53670200D02*
X100110589Y-53622580D01*
X101158208Y-53717819D02*
X101158208Y-52717819D01*
X101729636Y-53717819D02*
X101301065Y-53146390D01*
X101729636Y-52717819D02*
X101158208Y-53289247D01*
X102824874Y-53813057D02*
X102729636Y-53765438D01*
X102729636Y-53765438D02*
X102634398Y-53670200D01*
X102634398Y-53670200D02*
X102491541Y-53527342D01*
X102491541Y-53527342D02*
X102396303Y-53479723D01*
X102396303Y-53479723D02*
X102301065Y-53479723D01*
X102348684Y-53717819D02*
X102253446Y-53670200D01*
X102253446Y-53670200D02*
X102158208Y-53574961D01*
X102158208Y-53574961D02*
X102110589Y-53384485D01*
X102110589Y-53384485D02*
X102110589Y-53051152D01*
X102110589Y-53051152D02*
X102158208Y-52860676D01*
X102158208Y-52860676D02*
X102253446Y-52765438D01*
X102253446Y-52765438D02*
X102348684Y-52717819D01*
X102348684Y-52717819D02*
X102539160Y-52717819D01*
X102539160Y-52717819D02*
X102634398Y-52765438D01*
X102634398Y-52765438D02*
X102729636Y-52860676D01*
X102729636Y-52860676D02*
X102777255Y-53051152D01*
X102777255Y-53051152D02*
X102777255Y-53384485D01*
X102777255Y-53384485D02*
X102729636Y-53574961D01*
X102729636Y-53574961D02*
X102634398Y-53670200D01*
X102634398Y-53670200D02*
X102539160Y-53717819D01*
X102539160Y-53717819D02*
X102348684Y-53717819D01*
X98514819Y-58157856D02*
X98514819Y-58062618D01*
X98514819Y-58062618D02*
X98562438Y-57967380D01*
X98562438Y-57967380D02*
X98610057Y-57919761D01*
X98610057Y-57919761D02*
X98705295Y-57872142D01*
X98705295Y-57872142D02*
X98895771Y-57824523D01*
X98895771Y-57824523D02*
X99133866Y-57824523D01*
X99133866Y-57824523D02*
X99324342Y-57872142D01*
X99324342Y-57872142D02*
X99419580Y-57919761D01*
X99419580Y-57919761D02*
X99467200Y-57967380D01*
X99467200Y-57967380D02*
X99514819Y-58062618D01*
X99514819Y-58062618D02*
X99514819Y-58157856D01*
X99514819Y-58157856D02*
X99467200Y-58253094D01*
X99467200Y-58253094D02*
X99419580Y-58300713D01*
X99419580Y-58300713D02*
X99324342Y-58348332D01*
X99324342Y-58348332D02*
X99133866Y-58395951D01*
X99133866Y-58395951D02*
X98895771Y-58395951D01*
X98895771Y-58395951D02*
X98705295Y-58348332D01*
X98705295Y-58348332D02*
X98610057Y-58300713D01*
X98610057Y-58300713D02*
X98562438Y-58253094D01*
X98562438Y-58253094D02*
X98514819Y-58157856D01*
X99419580Y-57395951D02*
X99467200Y-57348332D01*
X99467200Y-57348332D02*
X99514819Y-57395951D01*
X99514819Y-57395951D02*
X99467200Y-57443570D01*
X99467200Y-57443570D02*
X99419580Y-57395951D01*
X99419580Y-57395951D02*
X99514819Y-57395951D01*
X99514819Y-56395952D02*
X99514819Y-56967380D01*
X99514819Y-56681666D02*
X98514819Y-56681666D01*
X98514819Y-56681666D02*
X98657676Y-56776904D01*
X98657676Y-56776904D02*
X98752914Y-56872142D01*
X98752914Y-56872142D02*
X98800533Y-56967380D01*
X98848152Y-55538809D02*
X99514819Y-55538809D01*
X98848152Y-55967380D02*
X99371961Y-55967380D01*
X99371961Y-55967380D02*
X99467200Y-55919761D01*
X99467200Y-55919761D02*
X99514819Y-55824523D01*
X99514819Y-55824523D02*
X99514819Y-55681666D01*
X99514819Y-55681666D02*
X99467200Y-55586428D01*
X99467200Y-55586428D02*
X99419580Y-55538809D01*
X98991009Y-54729285D02*
X98991009Y-55062618D01*
X99514819Y-55062618D02*
X98514819Y-55062618D01*
X98514819Y-55062618D02*
X98514819Y-54586428D01*
X79464819Y-58157856D02*
X79464819Y-58062618D01*
X79464819Y-58062618D02*
X79512438Y-57967380D01*
X79512438Y-57967380D02*
X79560057Y-57919761D01*
X79560057Y-57919761D02*
X79655295Y-57872142D01*
X79655295Y-57872142D02*
X79845771Y-57824523D01*
X79845771Y-57824523D02*
X80083866Y-57824523D01*
X80083866Y-57824523D02*
X80274342Y-57872142D01*
X80274342Y-57872142D02*
X80369580Y-57919761D01*
X80369580Y-57919761D02*
X80417200Y-57967380D01*
X80417200Y-57967380D02*
X80464819Y-58062618D01*
X80464819Y-58062618D02*
X80464819Y-58157856D01*
X80464819Y-58157856D02*
X80417200Y-58253094D01*
X80417200Y-58253094D02*
X80369580Y-58300713D01*
X80369580Y-58300713D02*
X80274342Y-58348332D01*
X80274342Y-58348332D02*
X80083866Y-58395951D01*
X80083866Y-58395951D02*
X79845771Y-58395951D01*
X79845771Y-58395951D02*
X79655295Y-58348332D01*
X79655295Y-58348332D02*
X79560057Y-58300713D01*
X79560057Y-58300713D02*
X79512438Y-58253094D01*
X79512438Y-58253094D02*
X79464819Y-58157856D01*
X80369580Y-57395951D02*
X80417200Y-57348332D01*
X80417200Y-57348332D02*
X80464819Y-57395951D01*
X80464819Y-57395951D02*
X80417200Y-57443570D01*
X80417200Y-57443570D02*
X80369580Y-57395951D01*
X80369580Y-57395951D02*
X80464819Y-57395951D01*
X80464819Y-56395952D02*
X80464819Y-56967380D01*
X80464819Y-56681666D02*
X79464819Y-56681666D01*
X79464819Y-56681666D02*
X79607676Y-56776904D01*
X79607676Y-56776904D02*
X79702914Y-56872142D01*
X79702914Y-56872142D02*
X79750533Y-56967380D01*
X79798152Y-55538809D02*
X80464819Y-55538809D01*
X79798152Y-55967380D02*
X80321961Y-55967380D01*
X80321961Y-55967380D02*
X80417200Y-55919761D01*
X80417200Y-55919761D02*
X80464819Y-55824523D01*
X80464819Y-55824523D02*
X80464819Y-55681666D01*
X80464819Y-55681666D02*
X80417200Y-55586428D01*
X80417200Y-55586428D02*
X80369580Y-55538809D01*
X79941009Y-54729285D02*
X79941009Y-55062618D01*
X80464819Y-55062618D02*
X79464819Y-55062618D01*
X79464819Y-55062618D02*
X79464819Y-54586428D01*
X60414819Y-58157856D02*
X60414819Y-58062618D01*
X60414819Y-58062618D02*
X60462438Y-57967380D01*
X60462438Y-57967380D02*
X60510057Y-57919761D01*
X60510057Y-57919761D02*
X60605295Y-57872142D01*
X60605295Y-57872142D02*
X60795771Y-57824523D01*
X60795771Y-57824523D02*
X61033866Y-57824523D01*
X61033866Y-57824523D02*
X61224342Y-57872142D01*
X61224342Y-57872142D02*
X61319580Y-57919761D01*
X61319580Y-57919761D02*
X61367200Y-57967380D01*
X61367200Y-57967380D02*
X61414819Y-58062618D01*
X61414819Y-58062618D02*
X61414819Y-58157856D01*
X61414819Y-58157856D02*
X61367200Y-58253094D01*
X61367200Y-58253094D02*
X61319580Y-58300713D01*
X61319580Y-58300713D02*
X61224342Y-58348332D01*
X61224342Y-58348332D02*
X61033866Y-58395951D01*
X61033866Y-58395951D02*
X60795771Y-58395951D01*
X60795771Y-58395951D02*
X60605295Y-58348332D01*
X60605295Y-58348332D02*
X60510057Y-58300713D01*
X60510057Y-58300713D02*
X60462438Y-58253094D01*
X60462438Y-58253094D02*
X60414819Y-58157856D01*
X61319580Y-57395951D02*
X61367200Y-57348332D01*
X61367200Y-57348332D02*
X61414819Y-57395951D01*
X61414819Y-57395951D02*
X61367200Y-57443570D01*
X61367200Y-57443570D02*
X61319580Y-57395951D01*
X61319580Y-57395951D02*
X61414819Y-57395951D01*
X61414819Y-56395952D02*
X61414819Y-56967380D01*
X61414819Y-56681666D02*
X60414819Y-56681666D01*
X60414819Y-56681666D02*
X60557676Y-56776904D01*
X60557676Y-56776904D02*
X60652914Y-56872142D01*
X60652914Y-56872142D02*
X60700533Y-56967380D01*
X60748152Y-55538809D02*
X61414819Y-55538809D01*
X60748152Y-55967380D02*
X61271961Y-55967380D01*
X61271961Y-55967380D02*
X61367200Y-55919761D01*
X61367200Y-55919761D02*
X61414819Y-55824523D01*
X61414819Y-55824523D02*
X61414819Y-55681666D01*
X61414819Y-55681666D02*
X61367200Y-55586428D01*
X61367200Y-55586428D02*
X61319580Y-55538809D01*
X60891009Y-54729285D02*
X60891009Y-55062618D01*
X61414819Y-55062618D02*
X60414819Y-55062618D01*
X60414819Y-55062618D02*
X60414819Y-54586428D01*
X41364819Y-58157856D02*
X41364819Y-58062618D01*
X41364819Y-58062618D02*
X41412438Y-57967380D01*
X41412438Y-57967380D02*
X41460057Y-57919761D01*
X41460057Y-57919761D02*
X41555295Y-57872142D01*
X41555295Y-57872142D02*
X41745771Y-57824523D01*
X41745771Y-57824523D02*
X41983866Y-57824523D01*
X41983866Y-57824523D02*
X42174342Y-57872142D01*
X42174342Y-57872142D02*
X42269580Y-57919761D01*
X42269580Y-57919761D02*
X42317200Y-57967380D01*
X42317200Y-57967380D02*
X42364819Y-58062618D01*
X42364819Y-58062618D02*
X42364819Y-58157856D01*
X42364819Y-58157856D02*
X42317200Y-58253094D01*
X42317200Y-58253094D02*
X42269580Y-58300713D01*
X42269580Y-58300713D02*
X42174342Y-58348332D01*
X42174342Y-58348332D02*
X41983866Y-58395951D01*
X41983866Y-58395951D02*
X41745771Y-58395951D01*
X41745771Y-58395951D02*
X41555295Y-58348332D01*
X41555295Y-58348332D02*
X41460057Y-58300713D01*
X41460057Y-58300713D02*
X41412438Y-58253094D01*
X41412438Y-58253094D02*
X41364819Y-58157856D01*
X42269580Y-57395951D02*
X42317200Y-57348332D01*
X42317200Y-57348332D02*
X42364819Y-57395951D01*
X42364819Y-57395951D02*
X42317200Y-57443570D01*
X42317200Y-57443570D02*
X42269580Y-57395951D01*
X42269580Y-57395951D02*
X42364819Y-57395951D01*
X42364819Y-56395952D02*
X42364819Y-56967380D01*
X42364819Y-56681666D02*
X41364819Y-56681666D01*
X41364819Y-56681666D02*
X41507676Y-56776904D01*
X41507676Y-56776904D02*
X41602914Y-56872142D01*
X41602914Y-56872142D02*
X41650533Y-56967380D01*
X41698152Y-55538809D02*
X42364819Y-55538809D01*
X41698152Y-55967380D02*
X42221961Y-55967380D01*
X42221961Y-55967380D02*
X42317200Y-55919761D01*
X42317200Y-55919761D02*
X42364819Y-55824523D01*
X42364819Y-55824523D02*
X42364819Y-55681666D01*
X42364819Y-55681666D02*
X42317200Y-55586428D01*
X42317200Y-55586428D02*
X42269580Y-55538809D01*
X41841009Y-54729285D02*
X41841009Y-55062618D01*
X42364819Y-55062618D02*
X41364819Y-55062618D01*
X41364819Y-55062618D02*
X41364819Y-54586428D01*
X50889819Y-76080237D02*
X50889819Y-75508809D01*
X51889819Y-75794523D02*
X50889819Y-75794523D01*
X51794580Y-74604047D02*
X51842200Y-74651666D01*
X51842200Y-74651666D02*
X51889819Y-74794523D01*
X51889819Y-74794523D02*
X51889819Y-74889761D01*
X51889819Y-74889761D02*
X51842200Y-75032618D01*
X51842200Y-75032618D02*
X51746961Y-75127856D01*
X51746961Y-75127856D02*
X51651723Y-75175475D01*
X51651723Y-75175475D02*
X51461247Y-75223094D01*
X51461247Y-75223094D02*
X51318390Y-75223094D01*
X51318390Y-75223094D02*
X51127914Y-75175475D01*
X51127914Y-75175475D02*
X51032676Y-75127856D01*
X51032676Y-75127856D02*
X50937438Y-75032618D01*
X50937438Y-75032618D02*
X50889819Y-74889761D01*
X50889819Y-74889761D02*
X50889819Y-74794523D01*
X50889819Y-74794523D02*
X50937438Y-74651666D01*
X50937438Y-74651666D02*
X50985057Y-74604047D01*
X50889819Y-74270713D02*
X50889819Y-73604047D01*
X50889819Y-73604047D02*
X51889819Y-74032618D01*
X51223152Y-72794523D02*
X51889819Y-72794523D01*
X50842200Y-73032618D02*
X51556485Y-73270713D01*
X51556485Y-73270713D02*
X51556485Y-72651666D01*
X51889819Y-72270713D02*
X50889819Y-72270713D01*
X51366009Y-72270713D02*
X51366009Y-71699285D01*
X51889819Y-71699285D02*
X50889819Y-71699285D01*
X51794580Y-70651666D02*
X51842200Y-70699285D01*
X51842200Y-70699285D02*
X51889819Y-70842142D01*
X51889819Y-70842142D02*
X51889819Y-70937380D01*
X51889819Y-70937380D02*
X51842200Y-71080237D01*
X51842200Y-71080237D02*
X51746961Y-71175475D01*
X51746961Y-71175475D02*
X51651723Y-71223094D01*
X51651723Y-71223094D02*
X51461247Y-71270713D01*
X51461247Y-71270713D02*
X51318390Y-71270713D01*
X51318390Y-71270713D02*
X51127914Y-71223094D01*
X51127914Y-71223094D02*
X51032676Y-71175475D01*
X51032676Y-71175475D02*
X50937438Y-71080237D01*
X50937438Y-71080237D02*
X50889819Y-70937380D01*
X50889819Y-70937380D02*
X50889819Y-70842142D01*
X50889819Y-70842142D02*
X50937438Y-70699285D01*
X50937438Y-70699285D02*
X50985057Y-70651666D01*
X51223152Y-69794523D02*
X51889819Y-69794523D01*
X50842200Y-70032618D02*
X51556485Y-70270713D01*
X51556485Y-70270713D02*
X51556485Y-69651666D01*
X50889819Y-69080237D02*
X50889819Y-68984999D01*
X50889819Y-68984999D02*
X50937438Y-68889761D01*
X50937438Y-68889761D02*
X50985057Y-68842142D01*
X50985057Y-68842142D02*
X51080295Y-68794523D01*
X51080295Y-68794523D02*
X51270771Y-68746904D01*
X51270771Y-68746904D02*
X51508866Y-68746904D01*
X51508866Y-68746904D02*
X51699342Y-68794523D01*
X51699342Y-68794523D02*
X51794580Y-68842142D01*
X51794580Y-68842142D02*
X51842200Y-68889761D01*
X51842200Y-68889761D02*
X51889819Y-68984999D01*
X51889819Y-68984999D02*
X51889819Y-69080237D01*
X51889819Y-69080237D02*
X51842200Y-69175475D01*
X51842200Y-69175475D02*
X51794580Y-69223094D01*
X51794580Y-69223094D02*
X51699342Y-69270713D01*
X51699342Y-69270713D02*
X51508866Y-69318332D01*
X51508866Y-69318332D02*
X51270771Y-69318332D01*
X51270771Y-69318332D02*
X51080295Y-69270713D01*
X51080295Y-69270713D02*
X50985057Y-69223094D01*
X50985057Y-69223094D02*
X50937438Y-69175475D01*
X50937438Y-69175475D02*
X50889819Y-69080237D01*
X50889819Y-67889761D02*
X50889819Y-68080237D01*
X50889819Y-68080237D02*
X50937438Y-68175475D01*
X50937438Y-68175475D02*
X50985057Y-68223094D01*
X50985057Y-68223094D02*
X51127914Y-68318332D01*
X51127914Y-68318332D02*
X51318390Y-68365951D01*
X51318390Y-68365951D02*
X51699342Y-68365951D01*
X51699342Y-68365951D02*
X51794580Y-68318332D01*
X51794580Y-68318332D02*
X51842200Y-68270713D01*
X51842200Y-68270713D02*
X51889819Y-68175475D01*
X51889819Y-68175475D02*
X51889819Y-67984999D01*
X51889819Y-67984999D02*
X51842200Y-67889761D01*
X51842200Y-67889761D02*
X51794580Y-67842142D01*
X51794580Y-67842142D02*
X51699342Y-67794523D01*
X51699342Y-67794523D02*
X51461247Y-67794523D01*
X51461247Y-67794523D02*
X51366009Y-67842142D01*
X51366009Y-67842142D02*
X51318390Y-67889761D01*
X51318390Y-67889761D02*
X51270771Y-67984999D01*
X51270771Y-67984999D02*
X51270771Y-68175475D01*
X51270771Y-68175475D02*
X51318390Y-68270713D01*
X51318390Y-68270713D02*
X51366009Y-68318332D01*
X51366009Y-68318332D02*
X51461247Y-68365951D01*
X50889819Y-66937380D02*
X50889819Y-67127856D01*
X50889819Y-67127856D02*
X50937438Y-67223094D01*
X50937438Y-67223094D02*
X50985057Y-67270713D01*
X50985057Y-67270713D02*
X51127914Y-67365951D01*
X51127914Y-67365951D02*
X51318390Y-67413570D01*
X51318390Y-67413570D02*
X51699342Y-67413570D01*
X51699342Y-67413570D02*
X51794580Y-67365951D01*
X51794580Y-67365951D02*
X51842200Y-67318332D01*
X51842200Y-67318332D02*
X51889819Y-67223094D01*
X51889819Y-67223094D02*
X51889819Y-67032618D01*
X51889819Y-67032618D02*
X51842200Y-66937380D01*
X51842200Y-66937380D02*
X51794580Y-66889761D01*
X51794580Y-66889761D02*
X51699342Y-66842142D01*
X51699342Y-66842142D02*
X51461247Y-66842142D01*
X51461247Y-66842142D02*
X51366009Y-66889761D01*
X51366009Y-66889761D02*
X51318390Y-66937380D01*
X51318390Y-66937380D02*
X51270771Y-67032618D01*
X51270771Y-67032618D02*
X51270771Y-67223094D01*
X51270771Y-67223094D02*
X51318390Y-67318332D01*
X51318390Y-67318332D02*
X51366009Y-67365951D01*
X51366009Y-67365951D02*
X51461247Y-67413570D01*
X51604104Y-66461189D02*
X51604104Y-65984999D01*
X51889819Y-66556427D02*
X50889819Y-66223094D01*
X50889819Y-66223094D02*
X51889819Y-65889761D01*
X51889819Y-65556427D02*
X50889819Y-65556427D01*
X50889819Y-65556427D02*
X50889819Y-65175475D01*
X50889819Y-65175475D02*
X50937438Y-65080237D01*
X50937438Y-65080237D02*
X50985057Y-65032618D01*
X50985057Y-65032618D02*
X51080295Y-64984999D01*
X51080295Y-64984999D02*
X51223152Y-64984999D01*
X51223152Y-64984999D02*
X51318390Y-65032618D01*
X51318390Y-65032618D02*
X51366009Y-65080237D01*
X51366009Y-65080237D02*
X51413628Y-65175475D01*
X51413628Y-65175475D02*
X51413628Y-65556427D01*
X73114819Y-75127856D02*
X73114819Y-74556428D01*
X74114819Y-74842142D02*
X73114819Y-74842142D01*
X74019580Y-73651666D02*
X74067200Y-73699285D01*
X74067200Y-73699285D02*
X74114819Y-73842142D01*
X74114819Y-73842142D02*
X74114819Y-73937380D01*
X74114819Y-73937380D02*
X74067200Y-74080237D01*
X74067200Y-74080237D02*
X73971961Y-74175475D01*
X73971961Y-74175475D02*
X73876723Y-74223094D01*
X73876723Y-74223094D02*
X73686247Y-74270713D01*
X73686247Y-74270713D02*
X73543390Y-74270713D01*
X73543390Y-74270713D02*
X73352914Y-74223094D01*
X73352914Y-74223094D02*
X73257676Y-74175475D01*
X73257676Y-74175475D02*
X73162438Y-74080237D01*
X73162438Y-74080237D02*
X73114819Y-73937380D01*
X73114819Y-73937380D02*
X73114819Y-73842142D01*
X73114819Y-73842142D02*
X73162438Y-73699285D01*
X73162438Y-73699285D02*
X73210057Y-73651666D01*
X73114819Y-73318332D02*
X73114819Y-72651666D01*
X73114819Y-72651666D02*
X74114819Y-73080237D01*
X73448152Y-71842142D02*
X74114819Y-71842142D01*
X73067200Y-72080237D02*
X73781485Y-72318332D01*
X73781485Y-72318332D02*
X73781485Y-71699285D01*
X74114819Y-71318332D02*
X73114819Y-71318332D01*
X73591009Y-71318332D02*
X73591009Y-70746904D01*
X74114819Y-70746904D02*
X73114819Y-70746904D01*
X74019580Y-69699285D02*
X74067200Y-69746904D01*
X74067200Y-69746904D02*
X74114819Y-69889761D01*
X74114819Y-69889761D02*
X74114819Y-69984999D01*
X74114819Y-69984999D02*
X74067200Y-70127856D01*
X74067200Y-70127856D02*
X73971961Y-70223094D01*
X73971961Y-70223094D02*
X73876723Y-70270713D01*
X73876723Y-70270713D02*
X73686247Y-70318332D01*
X73686247Y-70318332D02*
X73543390Y-70318332D01*
X73543390Y-70318332D02*
X73352914Y-70270713D01*
X73352914Y-70270713D02*
X73257676Y-70223094D01*
X73257676Y-70223094D02*
X73162438Y-70127856D01*
X73162438Y-70127856D02*
X73114819Y-69984999D01*
X73114819Y-69984999D02*
X73114819Y-69889761D01*
X73114819Y-69889761D02*
X73162438Y-69746904D01*
X73162438Y-69746904D02*
X73210057Y-69699285D01*
X73114819Y-69080237D02*
X73114819Y-68984999D01*
X73114819Y-68984999D02*
X73162438Y-68889761D01*
X73162438Y-68889761D02*
X73210057Y-68842142D01*
X73210057Y-68842142D02*
X73305295Y-68794523D01*
X73305295Y-68794523D02*
X73495771Y-68746904D01*
X73495771Y-68746904D02*
X73733866Y-68746904D01*
X73733866Y-68746904D02*
X73924342Y-68794523D01*
X73924342Y-68794523D02*
X74019580Y-68842142D01*
X74019580Y-68842142D02*
X74067200Y-68889761D01*
X74067200Y-68889761D02*
X74114819Y-68984999D01*
X74114819Y-68984999D02*
X74114819Y-69080237D01*
X74114819Y-69080237D02*
X74067200Y-69175475D01*
X74067200Y-69175475D02*
X74019580Y-69223094D01*
X74019580Y-69223094D02*
X73924342Y-69270713D01*
X73924342Y-69270713D02*
X73733866Y-69318332D01*
X73733866Y-69318332D02*
X73495771Y-69318332D01*
X73495771Y-69318332D02*
X73305295Y-69270713D01*
X73305295Y-69270713D02*
X73210057Y-69223094D01*
X73210057Y-69223094D02*
X73162438Y-69175475D01*
X73162438Y-69175475D02*
X73114819Y-69080237D01*
X73448152Y-67889761D02*
X74114819Y-67889761D01*
X73067200Y-68127856D02*
X73781485Y-68365951D01*
X73781485Y-68365951D02*
X73781485Y-67746904D01*
X73829104Y-67413570D02*
X73829104Y-66937380D01*
X74114819Y-67508808D02*
X73114819Y-67175475D01*
X73114819Y-67175475D02*
X74114819Y-66842142D01*
X74114819Y-66508808D02*
X73114819Y-66508808D01*
X73114819Y-66508808D02*
X73114819Y-66127856D01*
X73114819Y-66127856D02*
X73162438Y-66032618D01*
X73162438Y-66032618D02*
X73210057Y-65984999D01*
X73210057Y-65984999D02*
X73305295Y-65937380D01*
X73305295Y-65937380D02*
X73448152Y-65937380D01*
X73448152Y-65937380D02*
X73543390Y-65984999D01*
X73543390Y-65984999D02*
X73591009Y-66032618D01*
X73591009Y-66032618D02*
X73638628Y-66127856D01*
X73638628Y-66127856D02*
X73638628Y-66508808D01*
X88989819Y-76715237D02*
X88989819Y-76143809D01*
X89989819Y-76429523D02*
X88989819Y-76429523D01*
X89894580Y-75239047D02*
X89942200Y-75286666D01*
X89942200Y-75286666D02*
X89989819Y-75429523D01*
X89989819Y-75429523D02*
X89989819Y-75524761D01*
X89989819Y-75524761D02*
X89942200Y-75667618D01*
X89942200Y-75667618D02*
X89846961Y-75762856D01*
X89846961Y-75762856D02*
X89751723Y-75810475D01*
X89751723Y-75810475D02*
X89561247Y-75858094D01*
X89561247Y-75858094D02*
X89418390Y-75858094D01*
X89418390Y-75858094D02*
X89227914Y-75810475D01*
X89227914Y-75810475D02*
X89132676Y-75762856D01*
X89132676Y-75762856D02*
X89037438Y-75667618D01*
X89037438Y-75667618D02*
X88989819Y-75524761D01*
X88989819Y-75524761D02*
X88989819Y-75429523D01*
X88989819Y-75429523D02*
X89037438Y-75286666D01*
X89037438Y-75286666D02*
X89085057Y-75239047D01*
X88989819Y-74905713D02*
X88989819Y-74239047D01*
X88989819Y-74239047D02*
X89989819Y-74667618D01*
X89323152Y-73429523D02*
X89989819Y-73429523D01*
X88942200Y-73667618D02*
X89656485Y-73905713D01*
X89656485Y-73905713D02*
X89656485Y-73286666D01*
X89989819Y-72905713D02*
X88989819Y-72905713D01*
X89466009Y-72905713D02*
X89466009Y-72334285D01*
X89989819Y-72334285D02*
X88989819Y-72334285D01*
X89894580Y-71286666D02*
X89942200Y-71334285D01*
X89942200Y-71334285D02*
X89989819Y-71477142D01*
X89989819Y-71477142D02*
X89989819Y-71572380D01*
X89989819Y-71572380D02*
X89942200Y-71715237D01*
X89942200Y-71715237D02*
X89846961Y-71810475D01*
X89846961Y-71810475D02*
X89751723Y-71858094D01*
X89751723Y-71858094D02*
X89561247Y-71905713D01*
X89561247Y-71905713D02*
X89418390Y-71905713D01*
X89418390Y-71905713D02*
X89227914Y-71858094D01*
X89227914Y-71858094D02*
X89132676Y-71810475D01*
X89132676Y-71810475D02*
X89037438Y-71715237D01*
X89037438Y-71715237D02*
X88989819Y-71572380D01*
X88989819Y-71572380D02*
X88989819Y-71477142D01*
X88989819Y-71477142D02*
X89037438Y-71334285D01*
X89037438Y-71334285D02*
X89085057Y-71286666D01*
X89323152Y-70429523D02*
X89989819Y-70429523D01*
X88942200Y-70667618D02*
X89656485Y-70905713D01*
X89656485Y-70905713D02*
X89656485Y-70286666D01*
X88989819Y-69715237D02*
X88989819Y-69619999D01*
X88989819Y-69619999D02*
X89037438Y-69524761D01*
X89037438Y-69524761D02*
X89085057Y-69477142D01*
X89085057Y-69477142D02*
X89180295Y-69429523D01*
X89180295Y-69429523D02*
X89370771Y-69381904D01*
X89370771Y-69381904D02*
X89608866Y-69381904D01*
X89608866Y-69381904D02*
X89799342Y-69429523D01*
X89799342Y-69429523D02*
X89894580Y-69477142D01*
X89894580Y-69477142D02*
X89942200Y-69524761D01*
X89942200Y-69524761D02*
X89989819Y-69619999D01*
X89989819Y-69619999D02*
X89989819Y-69715237D01*
X89989819Y-69715237D02*
X89942200Y-69810475D01*
X89942200Y-69810475D02*
X89894580Y-69858094D01*
X89894580Y-69858094D02*
X89799342Y-69905713D01*
X89799342Y-69905713D02*
X89608866Y-69953332D01*
X89608866Y-69953332D02*
X89370771Y-69953332D01*
X89370771Y-69953332D02*
X89180295Y-69905713D01*
X89180295Y-69905713D02*
X89085057Y-69858094D01*
X89085057Y-69858094D02*
X89037438Y-69810475D01*
X89037438Y-69810475D02*
X88989819Y-69715237D01*
X88989819Y-68524761D02*
X88989819Y-68715237D01*
X88989819Y-68715237D02*
X89037438Y-68810475D01*
X89037438Y-68810475D02*
X89085057Y-68858094D01*
X89085057Y-68858094D02*
X89227914Y-68953332D01*
X89227914Y-68953332D02*
X89418390Y-69000951D01*
X89418390Y-69000951D02*
X89799342Y-69000951D01*
X89799342Y-69000951D02*
X89894580Y-68953332D01*
X89894580Y-68953332D02*
X89942200Y-68905713D01*
X89942200Y-68905713D02*
X89989819Y-68810475D01*
X89989819Y-68810475D02*
X89989819Y-68619999D01*
X89989819Y-68619999D02*
X89942200Y-68524761D01*
X89942200Y-68524761D02*
X89894580Y-68477142D01*
X89894580Y-68477142D02*
X89799342Y-68429523D01*
X89799342Y-68429523D02*
X89561247Y-68429523D01*
X89561247Y-68429523D02*
X89466009Y-68477142D01*
X89466009Y-68477142D02*
X89418390Y-68524761D01*
X89418390Y-68524761D02*
X89370771Y-68619999D01*
X89370771Y-68619999D02*
X89370771Y-68810475D01*
X89370771Y-68810475D02*
X89418390Y-68905713D01*
X89418390Y-68905713D02*
X89466009Y-68953332D01*
X89466009Y-68953332D02*
X89561247Y-69000951D01*
X88989819Y-67572380D02*
X88989819Y-67762856D01*
X88989819Y-67762856D02*
X89037438Y-67858094D01*
X89037438Y-67858094D02*
X89085057Y-67905713D01*
X89085057Y-67905713D02*
X89227914Y-68000951D01*
X89227914Y-68000951D02*
X89418390Y-68048570D01*
X89418390Y-68048570D02*
X89799342Y-68048570D01*
X89799342Y-68048570D02*
X89894580Y-68000951D01*
X89894580Y-68000951D02*
X89942200Y-67953332D01*
X89942200Y-67953332D02*
X89989819Y-67858094D01*
X89989819Y-67858094D02*
X89989819Y-67667618D01*
X89989819Y-67667618D02*
X89942200Y-67572380D01*
X89942200Y-67572380D02*
X89894580Y-67524761D01*
X89894580Y-67524761D02*
X89799342Y-67477142D01*
X89799342Y-67477142D02*
X89561247Y-67477142D01*
X89561247Y-67477142D02*
X89466009Y-67524761D01*
X89466009Y-67524761D02*
X89418390Y-67572380D01*
X89418390Y-67572380D02*
X89370771Y-67667618D01*
X89370771Y-67667618D02*
X89370771Y-67858094D01*
X89370771Y-67858094D02*
X89418390Y-67953332D01*
X89418390Y-67953332D02*
X89466009Y-68000951D01*
X89466009Y-68000951D02*
X89561247Y-68048570D01*
X89704104Y-67096189D02*
X89704104Y-66619999D01*
X89989819Y-67191427D02*
X88989819Y-66858094D01*
X88989819Y-66858094D02*
X89989819Y-66524761D01*
X89989819Y-66191427D02*
X88989819Y-66191427D01*
X88989819Y-66191427D02*
X88989819Y-65810475D01*
X88989819Y-65810475D02*
X89037438Y-65715237D01*
X89037438Y-65715237D02*
X89085057Y-65667618D01*
X89085057Y-65667618D02*
X89180295Y-65619999D01*
X89180295Y-65619999D02*
X89323152Y-65619999D01*
X89323152Y-65619999D02*
X89418390Y-65667618D01*
X89418390Y-65667618D02*
X89466009Y-65715237D01*
X89466009Y-65715237D02*
X89513628Y-65810475D01*
X89513628Y-65810475D02*
X89513628Y-66191427D01*
D11*
X42040713Y-35142318D02*
X42887380Y-36412318D01*
X42887380Y-35142318D02*
X42040713Y-36412318D01*
X43189761Y-35142318D02*
X43915475Y-35142318D01*
X43552618Y-36412318D02*
X43552618Y-35142318D01*
X44217856Y-35142318D02*
X45004047Y-35142318D01*
X45004047Y-35142318D02*
X44580713Y-35626127D01*
X44580713Y-35626127D02*
X44762142Y-35626127D01*
X44762142Y-35626127D02*
X44883094Y-35686603D01*
X44883094Y-35686603D02*
X44943570Y-35747080D01*
X44943570Y-35747080D02*
X45004047Y-35868032D01*
X45004047Y-35868032D02*
X45004047Y-36170413D01*
X45004047Y-36170413D02*
X44943570Y-36291365D01*
X44943570Y-36291365D02*
X44883094Y-36351842D01*
X44883094Y-36351842D02*
X44762142Y-36412318D01*
X44762142Y-36412318D02*
X44399285Y-36412318D01*
X44399285Y-36412318D02*
X44278332Y-36351842D01*
X44278332Y-36351842D02*
X44217856Y-36291365D01*
X45790237Y-35142318D02*
X45911190Y-35142318D01*
X45911190Y-35142318D02*
X46032142Y-35202794D01*
X46032142Y-35202794D02*
X46092618Y-35263270D01*
X46092618Y-35263270D02*
X46153094Y-35384222D01*
X46153094Y-35384222D02*
X46213571Y-35626127D01*
X46213571Y-35626127D02*
X46213571Y-35928508D01*
X46213571Y-35928508D02*
X46153094Y-36170413D01*
X46153094Y-36170413D02*
X46092618Y-36291365D01*
X46092618Y-36291365D02*
X46032142Y-36351842D01*
X46032142Y-36351842D02*
X45911190Y-36412318D01*
X45911190Y-36412318D02*
X45790237Y-36412318D01*
X45790237Y-36412318D02*
X45669285Y-36351842D01*
X45669285Y-36351842D02*
X45608809Y-36291365D01*
X45608809Y-36291365D02*
X45548332Y-36170413D01*
X45548332Y-36170413D02*
X45487856Y-35928508D01*
X45487856Y-35928508D02*
X45487856Y-35626127D01*
X45487856Y-35626127D02*
X45548332Y-35384222D01*
X45548332Y-35384222D02*
X45608809Y-35263270D01*
X45608809Y-35263270D02*
X45669285Y-35202794D01*
X45669285Y-35202794D02*
X45790237Y-35142318D01*
X46757856Y-36412318D02*
X46757856Y-35142318D01*
X46757856Y-35142318D02*
X47241666Y-35142318D01*
X47241666Y-35142318D02*
X47362618Y-35202794D01*
X47362618Y-35202794D02*
X47423095Y-35263270D01*
X47423095Y-35263270D02*
X47483571Y-35384222D01*
X47483571Y-35384222D02*
X47483571Y-35565651D01*
X47483571Y-35565651D02*
X47423095Y-35686603D01*
X47423095Y-35686603D02*
X47362618Y-35747080D01*
X47362618Y-35747080D02*
X47241666Y-35807556D01*
X47241666Y-35807556D02*
X46757856Y-35807556D01*
X47906904Y-35142318D02*
X48209285Y-36412318D01*
X48209285Y-36412318D02*
X48451190Y-35505175D01*
X48451190Y-35505175D02*
X48693095Y-36412318D01*
X48693095Y-36412318D02*
X48995476Y-35142318D01*
X49479285Y-35928508D02*
X50446905Y-35928508D01*
X51051666Y-36412318D02*
X51051666Y-35142318D01*
X51051666Y-35142318D02*
X51475000Y-36049461D01*
X51475000Y-36049461D02*
X51898333Y-35142318D01*
X51898333Y-35142318D02*
X51898333Y-36412318D01*
D10*
X108624761Y-91894819D02*
X108053333Y-91894819D01*
X108339047Y-91894819D02*
X108339047Y-90894819D01*
X108339047Y-90894819D02*
X108243809Y-91037676D01*
X108243809Y-91037676D02*
X108148571Y-91132914D01*
X108148571Y-91132914D02*
X108053333Y-91180533D01*
X109481904Y-91228152D02*
X109481904Y-91894819D01*
X109053333Y-91228152D02*
X109053333Y-91751961D01*
X109053333Y-91751961D02*
X109100952Y-91847200D01*
X109100952Y-91847200D02*
X109196190Y-91894819D01*
X109196190Y-91894819D02*
X109339047Y-91894819D01*
X109339047Y-91894819D02*
X109434285Y-91847200D01*
X109434285Y-91847200D02*
X109481904Y-91799580D01*
X110291428Y-91371009D02*
X109958095Y-91371009D01*
X109958095Y-91894819D02*
X109958095Y-90894819D01*
X109958095Y-90894819D02*
X110434285Y-90894819D01*
X101806905Y-84919819D02*
X102140238Y-85919819D01*
X102140238Y-85919819D02*
X102473571Y-84919819D01*
X102806905Y-85919819D02*
X102806905Y-84919819D01*
X102806905Y-84919819D02*
X103045000Y-84919819D01*
X103045000Y-84919819D02*
X103187857Y-84967438D01*
X103187857Y-84967438D02*
X103283095Y-85062676D01*
X103283095Y-85062676D02*
X103330714Y-85157914D01*
X103330714Y-85157914D02*
X103378333Y-85348390D01*
X103378333Y-85348390D02*
X103378333Y-85491247D01*
X103378333Y-85491247D02*
X103330714Y-85681723D01*
X103330714Y-85681723D02*
X103283095Y-85776961D01*
X103283095Y-85776961D02*
X103187857Y-85872200D01*
X103187857Y-85872200D02*
X103045000Y-85919819D01*
X103045000Y-85919819D02*
X102806905Y-85919819D01*
X103806905Y-85919819D02*
X103806905Y-84919819D01*
X103806905Y-84919819D02*
X104045000Y-84919819D01*
X104045000Y-84919819D02*
X104187857Y-84967438D01*
X104187857Y-84967438D02*
X104283095Y-85062676D01*
X104283095Y-85062676D02*
X104330714Y-85157914D01*
X104330714Y-85157914D02*
X104378333Y-85348390D01*
X104378333Y-85348390D02*
X104378333Y-85491247D01*
X104378333Y-85491247D02*
X104330714Y-85681723D01*
X104330714Y-85681723D02*
X104283095Y-85776961D01*
X104283095Y-85776961D02*
X104187857Y-85872200D01*
X104187857Y-85872200D02*
X104045000Y-85919819D01*
X104045000Y-85919819D02*
X103806905Y-85919819D01*
X105568810Y-85538866D02*
X106330715Y-85538866D01*
X106806905Y-85253152D02*
X107568810Y-85538866D01*
X107568810Y-85538866D02*
X106806905Y-85824580D01*
X109283095Y-84919819D02*
X108806905Y-84919819D01*
X108806905Y-84919819D02*
X108759286Y-85396009D01*
X108759286Y-85396009D02*
X108806905Y-85348390D01*
X108806905Y-85348390D02*
X108902143Y-85300771D01*
X108902143Y-85300771D02*
X109140238Y-85300771D01*
X109140238Y-85300771D02*
X109235476Y-85348390D01*
X109235476Y-85348390D02*
X109283095Y-85396009D01*
X109283095Y-85396009D02*
X109330714Y-85491247D01*
X109330714Y-85491247D02*
X109330714Y-85729342D01*
X109330714Y-85729342D02*
X109283095Y-85824580D01*
X109283095Y-85824580D02*
X109235476Y-85872200D01*
X109235476Y-85872200D02*
X109140238Y-85919819D01*
X109140238Y-85919819D02*
X108902143Y-85919819D01*
X108902143Y-85919819D02*
X108806905Y-85872200D01*
X108806905Y-85872200D02*
X108759286Y-85824580D01*
X109616429Y-84919819D02*
X109949762Y-85919819D01*
X109949762Y-85919819D02*
X110283095Y-84919819D01*
X45839762Y-60624819D02*
X46411190Y-60624819D01*
X46125476Y-61624819D02*
X46125476Y-60624819D01*
X47315952Y-61529580D02*
X47268333Y-61577200D01*
X47268333Y-61577200D02*
X47125476Y-61624819D01*
X47125476Y-61624819D02*
X47030238Y-61624819D01*
X47030238Y-61624819D02*
X46887381Y-61577200D01*
X46887381Y-61577200D02*
X46792143Y-61481961D01*
X46792143Y-61481961D02*
X46744524Y-61386723D01*
X46744524Y-61386723D02*
X46696905Y-61196247D01*
X46696905Y-61196247D02*
X46696905Y-61053390D01*
X46696905Y-61053390D02*
X46744524Y-60862914D01*
X46744524Y-60862914D02*
X46792143Y-60767676D01*
X46792143Y-60767676D02*
X46887381Y-60672438D01*
X46887381Y-60672438D02*
X47030238Y-60624819D01*
X47030238Y-60624819D02*
X47125476Y-60624819D01*
X47125476Y-60624819D02*
X47268333Y-60672438D01*
X47268333Y-60672438D02*
X47315952Y-60720057D01*
X47649286Y-60624819D02*
X48315952Y-60624819D01*
X48315952Y-60624819D02*
X47887381Y-61624819D01*
X49125476Y-60958152D02*
X49125476Y-61624819D01*
X48887381Y-60577200D02*
X48649286Y-61291485D01*
X48649286Y-61291485D02*
X49268333Y-61291485D01*
X49649286Y-61624819D02*
X49649286Y-60624819D01*
X49649286Y-61101009D02*
X50220714Y-61101009D01*
X50220714Y-61624819D02*
X50220714Y-60624819D01*
X51268333Y-61529580D02*
X51220714Y-61577200D01*
X51220714Y-61577200D02*
X51077857Y-61624819D01*
X51077857Y-61624819D02*
X50982619Y-61624819D01*
X50982619Y-61624819D02*
X50839762Y-61577200D01*
X50839762Y-61577200D02*
X50744524Y-61481961D01*
X50744524Y-61481961D02*
X50696905Y-61386723D01*
X50696905Y-61386723D02*
X50649286Y-61196247D01*
X50649286Y-61196247D02*
X50649286Y-61053390D01*
X50649286Y-61053390D02*
X50696905Y-60862914D01*
X50696905Y-60862914D02*
X50744524Y-60767676D01*
X50744524Y-60767676D02*
X50839762Y-60672438D01*
X50839762Y-60672438D02*
X50982619Y-60624819D01*
X50982619Y-60624819D02*
X51077857Y-60624819D01*
X51077857Y-60624819D02*
X51220714Y-60672438D01*
X51220714Y-60672438D02*
X51268333Y-60720057D01*
X52125476Y-60958152D02*
X52125476Y-61624819D01*
X51887381Y-60577200D02*
X51649286Y-61291485D01*
X51649286Y-61291485D02*
X52268333Y-61291485D01*
X52839762Y-60624819D02*
X52935000Y-60624819D01*
X52935000Y-60624819D02*
X53030238Y-60672438D01*
X53030238Y-60672438D02*
X53077857Y-60720057D01*
X53077857Y-60720057D02*
X53125476Y-60815295D01*
X53125476Y-60815295D02*
X53173095Y-61005771D01*
X53173095Y-61005771D02*
X53173095Y-61243866D01*
X53173095Y-61243866D02*
X53125476Y-61434342D01*
X53125476Y-61434342D02*
X53077857Y-61529580D01*
X53077857Y-61529580D02*
X53030238Y-61577200D01*
X53030238Y-61577200D02*
X52935000Y-61624819D01*
X52935000Y-61624819D02*
X52839762Y-61624819D01*
X52839762Y-61624819D02*
X52744524Y-61577200D01*
X52744524Y-61577200D02*
X52696905Y-61529580D01*
X52696905Y-61529580D02*
X52649286Y-61434342D01*
X52649286Y-61434342D02*
X52601667Y-61243866D01*
X52601667Y-61243866D02*
X52601667Y-61005771D01*
X52601667Y-61005771D02*
X52649286Y-60815295D01*
X52649286Y-60815295D02*
X52696905Y-60720057D01*
X52696905Y-60720057D02*
X52744524Y-60672438D01*
X52744524Y-60672438D02*
X52839762Y-60624819D01*
X54030238Y-60624819D02*
X53839762Y-60624819D01*
X53839762Y-60624819D02*
X53744524Y-60672438D01*
X53744524Y-60672438D02*
X53696905Y-60720057D01*
X53696905Y-60720057D02*
X53601667Y-60862914D01*
X53601667Y-60862914D02*
X53554048Y-61053390D01*
X53554048Y-61053390D02*
X53554048Y-61434342D01*
X53554048Y-61434342D02*
X53601667Y-61529580D01*
X53601667Y-61529580D02*
X53649286Y-61577200D01*
X53649286Y-61577200D02*
X53744524Y-61624819D01*
X53744524Y-61624819D02*
X53935000Y-61624819D01*
X53935000Y-61624819D02*
X54030238Y-61577200D01*
X54030238Y-61577200D02*
X54077857Y-61529580D01*
X54077857Y-61529580D02*
X54125476Y-61434342D01*
X54125476Y-61434342D02*
X54125476Y-61196247D01*
X54125476Y-61196247D02*
X54077857Y-61101009D01*
X54077857Y-61101009D02*
X54030238Y-61053390D01*
X54030238Y-61053390D02*
X53935000Y-61005771D01*
X53935000Y-61005771D02*
X53744524Y-61005771D01*
X53744524Y-61005771D02*
X53649286Y-61053390D01*
X53649286Y-61053390D02*
X53601667Y-61101009D01*
X53601667Y-61101009D02*
X53554048Y-61196247D01*
X54982619Y-60624819D02*
X54792143Y-60624819D01*
X54792143Y-60624819D02*
X54696905Y-60672438D01*
X54696905Y-60672438D02*
X54649286Y-60720057D01*
X54649286Y-60720057D02*
X54554048Y-60862914D01*
X54554048Y-60862914D02*
X54506429Y-61053390D01*
X54506429Y-61053390D02*
X54506429Y-61434342D01*
X54506429Y-61434342D02*
X54554048Y-61529580D01*
X54554048Y-61529580D02*
X54601667Y-61577200D01*
X54601667Y-61577200D02*
X54696905Y-61624819D01*
X54696905Y-61624819D02*
X54887381Y-61624819D01*
X54887381Y-61624819D02*
X54982619Y-61577200D01*
X54982619Y-61577200D02*
X55030238Y-61529580D01*
X55030238Y-61529580D02*
X55077857Y-61434342D01*
X55077857Y-61434342D02*
X55077857Y-61196247D01*
X55077857Y-61196247D02*
X55030238Y-61101009D01*
X55030238Y-61101009D02*
X54982619Y-61053390D01*
X54982619Y-61053390D02*
X54887381Y-61005771D01*
X54887381Y-61005771D02*
X54696905Y-61005771D01*
X54696905Y-61005771D02*
X54601667Y-61053390D01*
X54601667Y-61053390D02*
X54554048Y-61101009D01*
X54554048Y-61101009D02*
X54506429Y-61196247D01*
X55458810Y-61339104D02*
X55935000Y-61339104D01*
X55363572Y-61624819D02*
X55696905Y-60624819D01*
X55696905Y-60624819D02*
X56030238Y-61624819D01*
X56363572Y-61624819D02*
X56363572Y-60624819D01*
X56363572Y-60624819D02*
X56744524Y-60624819D01*
X56744524Y-60624819D02*
X56839762Y-60672438D01*
X56839762Y-60672438D02*
X56887381Y-60720057D01*
X56887381Y-60720057D02*
X56935000Y-60815295D01*
X56935000Y-60815295D02*
X56935000Y-60958152D01*
X56935000Y-60958152D02*
X56887381Y-61053390D01*
X56887381Y-61053390D02*
X56839762Y-61101009D01*
X56839762Y-61101009D02*
X56744524Y-61148628D01*
X56744524Y-61148628D02*
X56363572Y-61148628D01*
X36135238Y-71790057D02*
X36182857Y-71742438D01*
X36182857Y-71742438D02*
X36278095Y-71694819D01*
X36278095Y-71694819D02*
X36516190Y-71694819D01*
X36516190Y-71694819D02*
X36611428Y-71742438D01*
X36611428Y-71742438D02*
X36659047Y-71790057D01*
X36659047Y-71790057D02*
X36706666Y-71885295D01*
X36706666Y-71885295D02*
X36706666Y-71980533D01*
X36706666Y-71980533D02*
X36659047Y-72123390D01*
X36659047Y-72123390D02*
X36087619Y-72694819D01*
X36087619Y-72694819D02*
X36706666Y-72694819D01*
X37135238Y-72313866D02*
X37897143Y-72313866D01*
X38706666Y-72171009D02*
X38849523Y-72218628D01*
X38849523Y-72218628D02*
X38897142Y-72266247D01*
X38897142Y-72266247D02*
X38944761Y-72361485D01*
X38944761Y-72361485D02*
X38944761Y-72504342D01*
X38944761Y-72504342D02*
X38897142Y-72599580D01*
X38897142Y-72599580D02*
X38849523Y-72647200D01*
X38849523Y-72647200D02*
X38754285Y-72694819D01*
X38754285Y-72694819D02*
X38373333Y-72694819D01*
X38373333Y-72694819D02*
X38373333Y-71694819D01*
X38373333Y-71694819D02*
X38706666Y-71694819D01*
X38706666Y-71694819D02*
X38801904Y-71742438D01*
X38801904Y-71742438D02*
X38849523Y-71790057D01*
X38849523Y-71790057D02*
X38897142Y-71885295D01*
X38897142Y-71885295D02*
X38897142Y-71980533D01*
X38897142Y-71980533D02*
X38849523Y-72075771D01*
X38849523Y-72075771D02*
X38801904Y-72123390D01*
X38801904Y-72123390D02*
X38706666Y-72171009D01*
X38706666Y-72171009D02*
X38373333Y-72171009D01*
X25833095Y-63224819D02*
X25261667Y-63224819D01*
X25547381Y-63224819D02*
X25547381Y-62224819D01*
X25547381Y-62224819D02*
X25452143Y-62367676D01*
X25452143Y-62367676D02*
X25356905Y-62462914D01*
X25356905Y-62462914D02*
X25261667Y-62510533D01*
X26261667Y-62843866D02*
X27023572Y-62843866D01*
X27452143Y-62939104D02*
X27928333Y-62939104D01*
X27356905Y-63224819D02*
X27690238Y-62224819D01*
X27690238Y-62224819D02*
X28023571Y-63224819D01*
X83588534Y-60555708D02*
X84159962Y-60555708D01*
X83874248Y-61555708D02*
X83874248Y-60555708D01*
X85064724Y-61460469D02*
X85017105Y-61508089D01*
X85017105Y-61508089D02*
X84874248Y-61555708D01*
X84874248Y-61555708D02*
X84779010Y-61555708D01*
X84779010Y-61555708D02*
X84636153Y-61508089D01*
X84636153Y-61508089D02*
X84540915Y-61412850D01*
X84540915Y-61412850D02*
X84493296Y-61317612D01*
X84493296Y-61317612D02*
X84445677Y-61127136D01*
X84445677Y-61127136D02*
X84445677Y-60984279D01*
X84445677Y-60984279D02*
X84493296Y-60793803D01*
X84493296Y-60793803D02*
X84540915Y-60698565D01*
X84540915Y-60698565D02*
X84636153Y-60603327D01*
X84636153Y-60603327D02*
X84779010Y-60555708D01*
X84779010Y-60555708D02*
X84874248Y-60555708D01*
X84874248Y-60555708D02*
X85017105Y-60603327D01*
X85017105Y-60603327D02*
X85064724Y-60650946D01*
X85398058Y-60555708D02*
X86064724Y-60555708D01*
X86064724Y-60555708D02*
X85636153Y-61555708D01*
X86874248Y-60889041D02*
X86874248Y-61555708D01*
X86636153Y-60508089D02*
X86398058Y-61222374D01*
X86398058Y-61222374D02*
X87017105Y-61222374D01*
X87398058Y-61555708D02*
X87398058Y-60555708D01*
X87398058Y-61031898D02*
X87969486Y-61031898D01*
X87969486Y-61555708D02*
X87969486Y-60555708D01*
X89017105Y-61460469D02*
X88969486Y-61508089D01*
X88969486Y-61508089D02*
X88826629Y-61555708D01*
X88826629Y-61555708D02*
X88731391Y-61555708D01*
X88731391Y-61555708D02*
X88588534Y-61508089D01*
X88588534Y-61508089D02*
X88493296Y-61412850D01*
X88493296Y-61412850D02*
X88445677Y-61317612D01*
X88445677Y-61317612D02*
X88398058Y-61127136D01*
X88398058Y-61127136D02*
X88398058Y-60984279D01*
X88398058Y-60984279D02*
X88445677Y-60793803D01*
X88445677Y-60793803D02*
X88493296Y-60698565D01*
X88493296Y-60698565D02*
X88588534Y-60603327D01*
X88588534Y-60603327D02*
X88731391Y-60555708D01*
X88731391Y-60555708D02*
X88826629Y-60555708D01*
X88826629Y-60555708D02*
X88969486Y-60603327D01*
X88969486Y-60603327D02*
X89017105Y-60650946D01*
X89874248Y-60889041D02*
X89874248Y-61555708D01*
X89636153Y-60508089D02*
X89398058Y-61222374D01*
X89398058Y-61222374D02*
X90017105Y-61222374D01*
X90588534Y-60555708D02*
X90683772Y-60555708D01*
X90683772Y-60555708D02*
X90779010Y-60603327D01*
X90779010Y-60603327D02*
X90826629Y-60650946D01*
X90826629Y-60650946D02*
X90874248Y-60746184D01*
X90874248Y-60746184D02*
X90921867Y-60936660D01*
X90921867Y-60936660D02*
X90921867Y-61174755D01*
X90921867Y-61174755D02*
X90874248Y-61365231D01*
X90874248Y-61365231D02*
X90826629Y-61460469D01*
X90826629Y-61460469D02*
X90779010Y-61508089D01*
X90779010Y-61508089D02*
X90683772Y-61555708D01*
X90683772Y-61555708D02*
X90588534Y-61555708D01*
X90588534Y-61555708D02*
X90493296Y-61508089D01*
X90493296Y-61508089D02*
X90445677Y-61460469D01*
X90445677Y-61460469D02*
X90398058Y-61365231D01*
X90398058Y-61365231D02*
X90350439Y-61174755D01*
X90350439Y-61174755D02*
X90350439Y-60936660D01*
X90350439Y-60936660D02*
X90398058Y-60746184D01*
X90398058Y-60746184D02*
X90445677Y-60650946D01*
X90445677Y-60650946D02*
X90493296Y-60603327D01*
X90493296Y-60603327D02*
X90588534Y-60555708D01*
X91779010Y-60555708D02*
X91588534Y-60555708D01*
X91588534Y-60555708D02*
X91493296Y-60603327D01*
X91493296Y-60603327D02*
X91445677Y-60650946D01*
X91445677Y-60650946D02*
X91350439Y-60793803D01*
X91350439Y-60793803D02*
X91302820Y-60984279D01*
X91302820Y-60984279D02*
X91302820Y-61365231D01*
X91302820Y-61365231D02*
X91350439Y-61460469D01*
X91350439Y-61460469D02*
X91398058Y-61508089D01*
X91398058Y-61508089D02*
X91493296Y-61555708D01*
X91493296Y-61555708D02*
X91683772Y-61555708D01*
X91683772Y-61555708D02*
X91779010Y-61508089D01*
X91779010Y-61508089D02*
X91826629Y-61460469D01*
X91826629Y-61460469D02*
X91874248Y-61365231D01*
X91874248Y-61365231D02*
X91874248Y-61127136D01*
X91874248Y-61127136D02*
X91826629Y-61031898D01*
X91826629Y-61031898D02*
X91779010Y-60984279D01*
X91779010Y-60984279D02*
X91683772Y-60936660D01*
X91683772Y-60936660D02*
X91493296Y-60936660D01*
X91493296Y-60936660D02*
X91398058Y-60984279D01*
X91398058Y-60984279D02*
X91350439Y-61031898D01*
X91350439Y-61031898D02*
X91302820Y-61127136D01*
X92731391Y-60555708D02*
X92540915Y-60555708D01*
X92540915Y-60555708D02*
X92445677Y-60603327D01*
X92445677Y-60603327D02*
X92398058Y-60650946D01*
X92398058Y-60650946D02*
X92302820Y-60793803D01*
X92302820Y-60793803D02*
X92255201Y-60984279D01*
X92255201Y-60984279D02*
X92255201Y-61365231D01*
X92255201Y-61365231D02*
X92302820Y-61460469D01*
X92302820Y-61460469D02*
X92350439Y-61508089D01*
X92350439Y-61508089D02*
X92445677Y-61555708D01*
X92445677Y-61555708D02*
X92636153Y-61555708D01*
X92636153Y-61555708D02*
X92731391Y-61508089D01*
X92731391Y-61508089D02*
X92779010Y-61460469D01*
X92779010Y-61460469D02*
X92826629Y-61365231D01*
X92826629Y-61365231D02*
X92826629Y-61127136D01*
X92826629Y-61127136D02*
X92779010Y-61031898D01*
X92779010Y-61031898D02*
X92731391Y-60984279D01*
X92731391Y-60984279D02*
X92636153Y-60936660D01*
X92636153Y-60936660D02*
X92445677Y-60936660D01*
X92445677Y-60936660D02*
X92350439Y-60984279D01*
X92350439Y-60984279D02*
X92302820Y-61031898D01*
X92302820Y-61031898D02*
X92255201Y-61127136D01*
X93207582Y-61269993D02*
X93683772Y-61269993D01*
X93112344Y-61555708D02*
X93445677Y-60555708D01*
X93445677Y-60555708D02*
X93779010Y-61555708D01*
X94112344Y-61555708D02*
X94112344Y-60555708D01*
X94112344Y-60555708D02*
X94493296Y-60555708D01*
X94493296Y-60555708D02*
X94588534Y-60603327D01*
X94588534Y-60603327D02*
X94636153Y-60650946D01*
X94636153Y-60650946D02*
X94683772Y-60746184D01*
X94683772Y-60746184D02*
X94683772Y-60889041D01*
X94683772Y-60889041D02*
X94636153Y-60984279D01*
X94636153Y-60984279D02*
X94588534Y-61031898D01*
X94588534Y-61031898D02*
X94493296Y-61079517D01*
X94493296Y-61079517D02*
X94112344Y-61079517D01*
X30363301Y-26685057D02*
X30410920Y-26637438D01*
X30410920Y-26637438D02*
X30506158Y-26589819D01*
X30506158Y-26589819D02*
X30744253Y-26589819D01*
X30744253Y-26589819D02*
X30839491Y-26637438D01*
X30839491Y-26637438D02*
X30887110Y-26685057D01*
X30887110Y-26685057D02*
X30934729Y-26780295D01*
X30934729Y-26780295D02*
X30934729Y-26875533D01*
X30934729Y-26875533D02*
X30887110Y-27018390D01*
X30887110Y-27018390D02*
X30315682Y-27589819D01*
X30315682Y-27589819D02*
X30934729Y-27589819D01*
X31315682Y-26685057D02*
X31363301Y-26637438D01*
X31363301Y-26637438D02*
X31458539Y-26589819D01*
X31458539Y-26589819D02*
X31696634Y-26589819D01*
X31696634Y-26589819D02*
X31791872Y-26637438D01*
X31791872Y-26637438D02*
X31839491Y-26685057D01*
X31839491Y-26685057D02*
X31887110Y-26780295D01*
X31887110Y-26780295D02*
X31887110Y-26875533D01*
X31887110Y-26875533D02*
X31839491Y-27018390D01*
X31839491Y-27018390D02*
X31268063Y-27589819D01*
X31268063Y-27589819D02*
X31887110Y-27589819D01*
X32506158Y-26589819D02*
X32601396Y-26589819D01*
X32601396Y-26589819D02*
X32696634Y-26637438D01*
X32696634Y-26637438D02*
X32744253Y-26685057D01*
X32744253Y-26685057D02*
X32791872Y-26780295D01*
X32791872Y-26780295D02*
X32839491Y-26970771D01*
X32839491Y-26970771D02*
X32839491Y-27208866D01*
X32839491Y-27208866D02*
X32791872Y-27399342D01*
X32791872Y-27399342D02*
X32744253Y-27494580D01*
X32744253Y-27494580D02*
X32696634Y-27542200D01*
X32696634Y-27542200D02*
X32601396Y-27589819D01*
X32601396Y-27589819D02*
X32506158Y-27589819D01*
X32506158Y-27589819D02*
X32410920Y-27542200D01*
X32410920Y-27542200D02*
X32363301Y-27494580D01*
X32363301Y-27494580D02*
X32315682Y-27399342D01*
X32315682Y-27399342D02*
X32268063Y-27208866D01*
X32268063Y-27208866D02*
X32268063Y-26970771D01*
X32268063Y-26970771D02*
X32315682Y-26780295D01*
X32315682Y-26780295D02*
X32363301Y-26685057D01*
X32363301Y-26685057D02*
X32410920Y-26637438D01*
X32410920Y-26637438D02*
X32506158Y-26589819D01*
X33696634Y-26923152D02*
X33696634Y-27589819D01*
X33268063Y-26923152D02*
X33268063Y-27446961D01*
X33268063Y-27446961D02*
X33315682Y-27542200D01*
X33315682Y-27542200D02*
X33410920Y-27589819D01*
X33410920Y-27589819D02*
X33553777Y-27589819D01*
X33553777Y-27589819D02*
X33649015Y-27542200D01*
X33649015Y-27542200D02*
X33696634Y-27494580D01*
X34506158Y-27066009D02*
X34172825Y-27066009D01*
X34172825Y-27589819D02*
X34172825Y-26589819D01*
X34172825Y-26589819D02*
X34649015Y-26589819D01*
X32424761Y-53794819D02*
X31853333Y-53794819D01*
X32139047Y-53794819D02*
X32139047Y-52794819D01*
X32139047Y-52794819D02*
X32043809Y-52937676D01*
X32043809Y-52937676D02*
X31948571Y-53032914D01*
X31948571Y-53032914D02*
X31853333Y-53080533D01*
X33281904Y-53128152D02*
X33281904Y-53794819D01*
X32853333Y-53128152D02*
X32853333Y-53651961D01*
X32853333Y-53651961D02*
X32900952Y-53747200D01*
X32900952Y-53747200D02*
X32996190Y-53794819D01*
X32996190Y-53794819D02*
X33139047Y-53794819D01*
X33139047Y-53794819D02*
X33234285Y-53747200D01*
X33234285Y-53747200D02*
X33281904Y-53699580D01*
X34091428Y-53271009D02*
X33758095Y-53271009D01*
X33758095Y-53794819D02*
X33758095Y-52794819D01*
X33758095Y-52794819D02*
X34234285Y-52794819D01*
X69027143Y-60619819D02*
X69598571Y-60619819D01*
X69312857Y-61619819D02*
X69312857Y-60619819D01*
X70503333Y-61524580D02*
X70455714Y-61572200D01*
X70455714Y-61572200D02*
X70312857Y-61619819D01*
X70312857Y-61619819D02*
X70217619Y-61619819D01*
X70217619Y-61619819D02*
X70074762Y-61572200D01*
X70074762Y-61572200D02*
X69979524Y-61476961D01*
X69979524Y-61476961D02*
X69931905Y-61381723D01*
X69931905Y-61381723D02*
X69884286Y-61191247D01*
X69884286Y-61191247D02*
X69884286Y-61048390D01*
X69884286Y-61048390D02*
X69931905Y-60857914D01*
X69931905Y-60857914D02*
X69979524Y-60762676D01*
X69979524Y-60762676D02*
X70074762Y-60667438D01*
X70074762Y-60667438D02*
X70217619Y-60619819D01*
X70217619Y-60619819D02*
X70312857Y-60619819D01*
X70312857Y-60619819D02*
X70455714Y-60667438D01*
X70455714Y-60667438D02*
X70503333Y-60715057D01*
X70836667Y-60619819D02*
X71503333Y-60619819D01*
X71503333Y-60619819D02*
X71074762Y-61619819D01*
X72312857Y-60953152D02*
X72312857Y-61619819D01*
X72074762Y-60572200D02*
X71836667Y-61286485D01*
X71836667Y-61286485D02*
X72455714Y-61286485D01*
X72836667Y-61619819D02*
X72836667Y-60619819D01*
X72836667Y-61096009D02*
X73408095Y-61096009D01*
X73408095Y-61619819D02*
X73408095Y-60619819D01*
X74455714Y-61524580D02*
X74408095Y-61572200D01*
X74408095Y-61572200D02*
X74265238Y-61619819D01*
X74265238Y-61619819D02*
X74170000Y-61619819D01*
X74170000Y-61619819D02*
X74027143Y-61572200D01*
X74027143Y-61572200D02*
X73931905Y-61476961D01*
X73931905Y-61476961D02*
X73884286Y-61381723D01*
X73884286Y-61381723D02*
X73836667Y-61191247D01*
X73836667Y-61191247D02*
X73836667Y-61048390D01*
X73836667Y-61048390D02*
X73884286Y-60857914D01*
X73884286Y-60857914D02*
X73931905Y-60762676D01*
X73931905Y-60762676D02*
X74027143Y-60667438D01*
X74027143Y-60667438D02*
X74170000Y-60619819D01*
X74170000Y-60619819D02*
X74265238Y-60619819D01*
X74265238Y-60619819D02*
X74408095Y-60667438D01*
X74408095Y-60667438D02*
X74455714Y-60715057D01*
X75074762Y-60619819D02*
X75170000Y-60619819D01*
X75170000Y-60619819D02*
X75265238Y-60667438D01*
X75265238Y-60667438D02*
X75312857Y-60715057D01*
X75312857Y-60715057D02*
X75360476Y-60810295D01*
X75360476Y-60810295D02*
X75408095Y-61000771D01*
X75408095Y-61000771D02*
X75408095Y-61238866D01*
X75408095Y-61238866D02*
X75360476Y-61429342D01*
X75360476Y-61429342D02*
X75312857Y-61524580D01*
X75312857Y-61524580D02*
X75265238Y-61572200D01*
X75265238Y-61572200D02*
X75170000Y-61619819D01*
X75170000Y-61619819D02*
X75074762Y-61619819D01*
X75074762Y-61619819D02*
X74979524Y-61572200D01*
X74979524Y-61572200D02*
X74931905Y-61524580D01*
X74931905Y-61524580D02*
X74884286Y-61429342D01*
X74884286Y-61429342D02*
X74836667Y-61238866D01*
X74836667Y-61238866D02*
X74836667Y-61000771D01*
X74836667Y-61000771D02*
X74884286Y-60810295D01*
X74884286Y-60810295D02*
X74931905Y-60715057D01*
X74931905Y-60715057D02*
X74979524Y-60667438D01*
X74979524Y-60667438D02*
X75074762Y-60619819D01*
X76265238Y-60953152D02*
X76265238Y-61619819D01*
X76027143Y-60572200D02*
X75789048Y-61286485D01*
X75789048Y-61286485D02*
X76408095Y-61286485D01*
X76741429Y-61334104D02*
X77217619Y-61334104D01*
X76646191Y-61619819D02*
X76979524Y-60619819D01*
X76979524Y-60619819D02*
X77312857Y-61619819D01*
X77646191Y-61619819D02*
X77646191Y-60619819D01*
X77646191Y-60619819D02*
X78027143Y-60619819D01*
X78027143Y-60619819D02*
X78122381Y-60667438D01*
X78122381Y-60667438D02*
X78170000Y-60715057D01*
X78170000Y-60715057D02*
X78217619Y-60810295D01*
X78217619Y-60810295D02*
X78217619Y-60953152D01*
X78217619Y-60953152D02*
X78170000Y-61048390D01*
X78170000Y-61048390D02*
X78122381Y-61096009D01*
X78122381Y-61096009D02*
X78027143Y-61143628D01*
X78027143Y-61143628D02*
X77646191Y-61143628D01*
D11*
X57660713Y-35142318D02*
X58507380Y-36412318D01*
X58507380Y-35142318D02*
X57660713Y-36412318D01*
X58809761Y-35142318D02*
X59535475Y-35142318D01*
X59172618Y-36412318D02*
X59172618Y-35142318D01*
X59837856Y-35142318D02*
X60624047Y-35142318D01*
X60624047Y-35142318D02*
X60200713Y-35626127D01*
X60200713Y-35626127D02*
X60382142Y-35626127D01*
X60382142Y-35626127D02*
X60503094Y-35686603D01*
X60503094Y-35686603D02*
X60563570Y-35747080D01*
X60563570Y-35747080D02*
X60624047Y-35868032D01*
X60624047Y-35868032D02*
X60624047Y-36170413D01*
X60624047Y-36170413D02*
X60563570Y-36291365D01*
X60563570Y-36291365D02*
X60503094Y-36351842D01*
X60503094Y-36351842D02*
X60382142Y-36412318D01*
X60382142Y-36412318D02*
X60019285Y-36412318D01*
X60019285Y-36412318D02*
X59898332Y-36351842D01*
X59898332Y-36351842D02*
X59837856Y-36291365D01*
X61410237Y-35142318D02*
X61531190Y-35142318D01*
X61531190Y-35142318D02*
X61652142Y-35202794D01*
X61652142Y-35202794D02*
X61712618Y-35263270D01*
X61712618Y-35263270D02*
X61773094Y-35384222D01*
X61773094Y-35384222D02*
X61833571Y-35626127D01*
X61833571Y-35626127D02*
X61833571Y-35928508D01*
X61833571Y-35928508D02*
X61773094Y-36170413D01*
X61773094Y-36170413D02*
X61712618Y-36291365D01*
X61712618Y-36291365D02*
X61652142Y-36351842D01*
X61652142Y-36351842D02*
X61531190Y-36412318D01*
X61531190Y-36412318D02*
X61410237Y-36412318D01*
X61410237Y-36412318D02*
X61289285Y-36351842D01*
X61289285Y-36351842D02*
X61228809Y-36291365D01*
X61228809Y-36291365D02*
X61168332Y-36170413D01*
X61168332Y-36170413D02*
X61107856Y-35928508D01*
X61107856Y-35928508D02*
X61107856Y-35626127D01*
X61107856Y-35626127D02*
X61168332Y-35384222D01*
X61168332Y-35384222D02*
X61228809Y-35263270D01*
X61228809Y-35263270D02*
X61289285Y-35202794D01*
X61289285Y-35202794D02*
X61410237Y-35142318D01*
X62377856Y-36412318D02*
X62377856Y-35142318D01*
X62377856Y-35142318D02*
X62861666Y-35142318D01*
X62861666Y-35142318D02*
X62982618Y-35202794D01*
X62982618Y-35202794D02*
X63043095Y-35263270D01*
X63043095Y-35263270D02*
X63103571Y-35384222D01*
X63103571Y-35384222D02*
X63103571Y-35565651D01*
X63103571Y-35565651D02*
X63043095Y-35686603D01*
X63043095Y-35686603D02*
X62982618Y-35747080D01*
X62982618Y-35747080D02*
X62861666Y-35807556D01*
X62861666Y-35807556D02*
X62377856Y-35807556D01*
X63526904Y-35142318D02*
X63829285Y-36412318D01*
X63829285Y-36412318D02*
X64071190Y-35505175D01*
X64071190Y-35505175D02*
X64313095Y-36412318D01*
X64313095Y-36412318D02*
X64615476Y-35142318D01*
X65099285Y-35928508D02*
X66066905Y-35928508D01*
X66671666Y-36412318D02*
X66671666Y-35142318D01*
X66671666Y-35142318D02*
X67095000Y-36049461D01*
X67095000Y-36049461D02*
X67518333Y-35142318D01*
X67518333Y-35142318D02*
X67518333Y-36412318D01*
X88140713Y-35142318D02*
X88987380Y-36412318D01*
X88987380Y-35142318D02*
X88140713Y-36412318D01*
X89289761Y-35142318D02*
X90015475Y-35142318D01*
X89652618Y-36412318D02*
X89652618Y-35142318D01*
X90317856Y-35142318D02*
X91104047Y-35142318D01*
X91104047Y-35142318D02*
X90680713Y-35626127D01*
X90680713Y-35626127D02*
X90862142Y-35626127D01*
X90862142Y-35626127D02*
X90983094Y-35686603D01*
X90983094Y-35686603D02*
X91043570Y-35747080D01*
X91043570Y-35747080D02*
X91104047Y-35868032D01*
X91104047Y-35868032D02*
X91104047Y-36170413D01*
X91104047Y-36170413D02*
X91043570Y-36291365D01*
X91043570Y-36291365D02*
X90983094Y-36351842D01*
X90983094Y-36351842D02*
X90862142Y-36412318D01*
X90862142Y-36412318D02*
X90499285Y-36412318D01*
X90499285Y-36412318D02*
X90378332Y-36351842D01*
X90378332Y-36351842D02*
X90317856Y-36291365D01*
X91890237Y-35142318D02*
X92011190Y-35142318D01*
X92011190Y-35142318D02*
X92132142Y-35202794D01*
X92132142Y-35202794D02*
X92192618Y-35263270D01*
X92192618Y-35263270D02*
X92253094Y-35384222D01*
X92253094Y-35384222D02*
X92313571Y-35626127D01*
X92313571Y-35626127D02*
X92313571Y-35928508D01*
X92313571Y-35928508D02*
X92253094Y-36170413D01*
X92253094Y-36170413D02*
X92192618Y-36291365D01*
X92192618Y-36291365D02*
X92132142Y-36351842D01*
X92132142Y-36351842D02*
X92011190Y-36412318D01*
X92011190Y-36412318D02*
X91890237Y-36412318D01*
X91890237Y-36412318D02*
X91769285Y-36351842D01*
X91769285Y-36351842D02*
X91708809Y-36291365D01*
X91708809Y-36291365D02*
X91648332Y-36170413D01*
X91648332Y-36170413D02*
X91587856Y-35928508D01*
X91587856Y-35928508D02*
X91587856Y-35626127D01*
X91587856Y-35626127D02*
X91648332Y-35384222D01*
X91648332Y-35384222D02*
X91708809Y-35263270D01*
X91708809Y-35263270D02*
X91769285Y-35202794D01*
X91769285Y-35202794D02*
X91890237Y-35142318D01*
X92857856Y-36412318D02*
X92857856Y-35142318D01*
X92857856Y-35142318D02*
X93341666Y-35142318D01*
X93341666Y-35142318D02*
X93462618Y-35202794D01*
X93462618Y-35202794D02*
X93523095Y-35263270D01*
X93523095Y-35263270D02*
X93583571Y-35384222D01*
X93583571Y-35384222D02*
X93583571Y-35565651D01*
X93583571Y-35565651D02*
X93523095Y-35686603D01*
X93523095Y-35686603D02*
X93462618Y-35747080D01*
X93462618Y-35747080D02*
X93341666Y-35807556D01*
X93341666Y-35807556D02*
X92857856Y-35807556D01*
X94006904Y-35142318D02*
X94309285Y-36412318D01*
X94309285Y-36412318D02*
X94551190Y-35505175D01*
X94551190Y-35505175D02*
X94793095Y-36412318D01*
X94793095Y-36412318D02*
X95095476Y-35142318D01*
X95579285Y-35928508D02*
X96546905Y-35928508D01*
X97151666Y-36412318D02*
X97151666Y-35142318D01*
X97151666Y-35142318D02*
X97575000Y-36049461D01*
X97575000Y-36049461D02*
X97998333Y-35142318D01*
X97998333Y-35142318D02*
X97998333Y-36412318D01*
D10*
X25364048Y-81274819D02*
X25983095Y-81274819D01*
X25983095Y-81274819D02*
X25649762Y-81655771D01*
X25649762Y-81655771D02*
X25792619Y-81655771D01*
X25792619Y-81655771D02*
X25887857Y-81703390D01*
X25887857Y-81703390D02*
X25935476Y-81751009D01*
X25935476Y-81751009D02*
X25983095Y-81846247D01*
X25983095Y-81846247D02*
X25983095Y-82084342D01*
X25983095Y-82084342D02*
X25935476Y-82179580D01*
X25935476Y-82179580D02*
X25887857Y-82227200D01*
X25887857Y-82227200D02*
X25792619Y-82274819D01*
X25792619Y-82274819D02*
X25506905Y-82274819D01*
X25506905Y-82274819D02*
X25411667Y-82227200D01*
X25411667Y-82227200D02*
X25364048Y-82179580D01*
X26411667Y-81893866D02*
X27173572Y-81893866D01*
X27602143Y-81989104D02*
X28078333Y-81989104D01*
X27506905Y-82274819D02*
X27840238Y-81274819D01*
X27840238Y-81274819D02*
X28173571Y-82274819D01*
X32424761Y-46174819D02*
X31853333Y-46174819D01*
X32139047Y-46174819D02*
X32139047Y-45174819D01*
X32139047Y-45174819D02*
X32043809Y-45317676D01*
X32043809Y-45317676D02*
X31948571Y-45412914D01*
X31948571Y-45412914D02*
X31853333Y-45460533D01*
X33281904Y-45508152D02*
X33281904Y-46174819D01*
X32853333Y-45508152D02*
X32853333Y-46031961D01*
X32853333Y-46031961D02*
X32900952Y-46127200D01*
X32900952Y-46127200D02*
X32996190Y-46174819D01*
X32996190Y-46174819D02*
X33139047Y-46174819D01*
X33139047Y-46174819D02*
X33234285Y-46127200D01*
X33234285Y-46127200D02*
X33281904Y-46079580D01*
X34091428Y-45651009D02*
X33758095Y-45651009D01*
X33758095Y-46174819D02*
X33758095Y-45174819D01*
X33758095Y-45174819D02*
X34234285Y-45174819D01*
X25336667Y-71790057D02*
X25384286Y-71742438D01*
X25384286Y-71742438D02*
X25479524Y-71694819D01*
X25479524Y-71694819D02*
X25717619Y-71694819D01*
X25717619Y-71694819D02*
X25812857Y-71742438D01*
X25812857Y-71742438D02*
X25860476Y-71790057D01*
X25860476Y-71790057D02*
X25908095Y-71885295D01*
X25908095Y-71885295D02*
X25908095Y-71980533D01*
X25908095Y-71980533D02*
X25860476Y-72123390D01*
X25860476Y-72123390D02*
X25289048Y-72694819D01*
X25289048Y-72694819D02*
X25908095Y-72694819D01*
X26336667Y-72313866D02*
X27098572Y-72313866D01*
X27527143Y-72409104D02*
X28003333Y-72409104D01*
X27431905Y-72694819D02*
X27765238Y-71694819D01*
X27765238Y-71694819D02*
X28098571Y-72694819D01*
X32424761Y-40459819D02*
X31853333Y-40459819D01*
X32139047Y-40459819D02*
X32139047Y-39459819D01*
X32139047Y-39459819D02*
X32043809Y-39602676D01*
X32043809Y-39602676D02*
X31948571Y-39697914D01*
X31948571Y-39697914D02*
X31853333Y-39745533D01*
X33281904Y-39793152D02*
X33281904Y-40459819D01*
X32853333Y-39793152D02*
X32853333Y-40316961D01*
X32853333Y-40316961D02*
X32900952Y-40412200D01*
X32900952Y-40412200D02*
X32996190Y-40459819D01*
X32996190Y-40459819D02*
X33139047Y-40459819D01*
X33139047Y-40459819D02*
X33234285Y-40412200D01*
X33234285Y-40412200D02*
X33281904Y-40364580D01*
X34091428Y-39936009D02*
X33758095Y-39936009D01*
X33758095Y-40459819D02*
X33758095Y-39459819D01*
X33758095Y-39459819D02*
X34234285Y-39459819D01*
X37171428Y-90788152D02*
X37171428Y-91454819D01*
X36933333Y-90407200D02*
X36695238Y-91121485D01*
X36695238Y-91121485D02*
X37314285Y-91121485D01*
X37695238Y-91073866D02*
X38457143Y-91073866D01*
X39266666Y-90931009D02*
X39409523Y-90978628D01*
X39409523Y-90978628D02*
X39457142Y-91026247D01*
X39457142Y-91026247D02*
X39504761Y-91121485D01*
X39504761Y-91121485D02*
X39504761Y-91264342D01*
X39504761Y-91264342D02*
X39457142Y-91359580D01*
X39457142Y-91359580D02*
X39409523Y-91407200D01*
X39409523Y-91407200D02*
X39314285Y-91454819D01*
X39314285Y-91454819D02*
X38933333Y-91454819D01*
X38933333Y-91454819D02*
X38933333Y-90454819D01*
X38933333Y-90454819D02*
X39266666Y-90454819D01*
X39266666Y-90454819D02*
X39361904Y-90502438D01*
X39361904Y-90502438D02*
X39409523Y-90550057D01*
X39409523Y-90550057D02*
X39457142Y-90645295D01*
X39457142Y-90645295D02*
X39457142Y-90740533D01*
X39457142Y-90740533D02*
X39409523Y-90835771D01*
X39409523Y-90835771D02*
X39361904Y-90883390D01*
X39361904Y-90883390D02*
X39266666Y-90931009D01*
X39266666Y-90931009D02*
X38933333Y-90931009D01*
X112593571Y-81734819D02*
X112022143Y-81734819D01*
X112307857Y-81734819D02*
X112307857Y-80734819D01*
X112307857Y-80734819D02*
X112212619Y-80877676D01*
X112212619Y-80877676D02*
X112117381Y-80972914D01*
X112117381Y-80972914D02*
X112022143Y-81020533D01*
X113212619Y-80734819D02*
X113307857Y-80734819D01*
X113307857Y-80734819D02*
X113403095Y-80782438D01*
X113403095Y-80782438D02*
X113450714Y-80830057D01*
X113450714Y-80830057D02*
X113498333Y-80925295D01*
X113498333Y-80925295D02*
X113545952Y-81115771D01*
X113545952Y-81115771D02*
X113545952Y-81353866D01*
X113545952Y-81353866D02*
X113498333Y-81544342D01*
X113498333Y-81544342D02*
X113450714Y-81639580D01*
X113450714Y-81639580D02*
X113403095Y-81687200D01*
X113403095Y-81687200D02*
X113307857Y-81734819D01*
X113307857Y-81734819D02*
X113212619Y-81734819D01*
X113212619Y-81734819D02*
X113117381Y-81687200D01*
X113117381Y-81687200D02*
X113069762Y-81639580D01*
X113069762Y-81639580D02*
X113022143Y-81544342D01*
X113022143Y-81544342D02*
X112974524Y-81353866D01*
X112974524Y-81353866D02*
X112974524Y-81115771D01*
X112974524Y-81115771D02*
X113022143Y-80925295D01*
X113022143Y-80925295D02*
X113069762Y-80830057D01*
X113069762Y-80830057D02*
X113117381Y-80782438D01*
X113117381Y-80782438D02*
X113212619Y-80734819D01*
X114403095Y-81068152D02*
X114403095Y-81734819D01*
X113974524Y-81068152D02*
X113974524Y-81591961D01*
X113974524Y-81591961D02*
X114022143Y-81687200D01*
X114022143Y-81687200D02*
X114117381Y-81734819D01*
X114117381Y-81734819D02*
X114260238Y-81734819D01*
X114260238Y-81734819D02*
X114355476Y-81687200D01*
X114355476Y-81687200D02*
X114403095Y-81639580D01*
X115212619Y-81211009D02*
X114879286Y-81211009D01*
X114879286Y-81734819D02*
X114879286Y-80734819D01*
X114879286Y-80734819D02*
X115355476Y-80734819D01*
X36477619Y-81274819D02*
X37096666Y-81274819D01*
X37096666Y-81274819D02*
X36763333Y-81655771D01*
X36763333Y-81655771D02*
X36906190Y-81655771D01*
X36906190Y-81655771D02*
X37001428Y-81703390D01*
X37001428Y-81703390D02*
X37049047Y-81751009D01*
X37049047Y-81751009D02*
X37096666Y-81846247D01*
X37096666Y-81846247D02*
X37096666Y-82084342D01*
X37096666Y-82084342D02*
X37049047Y-82179580D01*
X37049047Y-82179580D02*
X37001428Y-82227200D01*
X37001428Y-82227200D02*
X36906190Y-82274819D01*
X36906190Y-82274819D02*
X36620476Y-82274819D01*
X36620476Y-82274819D02*
X36525238Y-82227200D01*
X36525238Y-82227200D02*
X36477619Y-82179580D01*
X37525238Y-81893866D02*
X38287143Y-81893866D01*
X39096666Y-81751009D02*
X39239523Y-81798628D01*
X39239523Y-81798628D02*
X39287142Y-81846247D01*
X39287142Y-81846247D02*
X39334761Y-81941485D01*
X39334761Y-81941485D02*
X39334761Y-82084342D01*
X39334761Y-82084342D02*
X39287142Y-82179580D01*
X39287142Y-82179580D02*
X39239523Y-82227200D01*
X39239523Y-82227200D02*
X39144285Y-82274819D01*
X39144285Y-82274819D02*
X38763333Y-82274819D01*
X38763333Y-82274819D02*
X38763333Y-81274819D01*
X38763333Y-81274819D02*
X39096666Y-81274819D01*
X39096666Y-81274819D02*
X39191904Y-81322438D01*
X39191904Y-81322438D02*
X39239523Y-81370057D01*
X39239523Y-81370057D02*
X39287142Y-81465295D01*
X39287142Y-81465295D02*
X39287142Y-81560533D01*
X39287142Y-81560533D02*
X39239523Y-81655771D01*
X39239523Y-81655771D02*
X39191904Y-81703390D01*
X39191904Y-81703390D02*
X39096666Y-81751009D01*
X39096666Y-81751009D02*
X38763333Y-81751009D01*
X25812857Y-90788152D02*
X25812857Y-91454819D01*
X25574762Y-90407200D02*
X25336667Y-91121485D01*
X25336667Y-91121485D02*
X25955714Y-91121485D01*
X26336667Y-91073866D02*
X27098572Y-91073866D01*
X27527143Y-91169104D02*
X28003333Y-91169104D01*
X27431905Y-91454819D02*
X27765238Y-90454819D01*
X27765238Y-90454819D02*
X28098571Y-91454819D01*
X118394819Y-73826666D02*
X117918628Y-74159999D01*
X118394819Y-74398094D02*
X117394819Y-74398094D01*
X117394819Y-74398094D02*
X117394819Y-74017142D01*
X117394819Y-74017142D02*
X117442438Y-73921904D01*
X117442438Y-73921904D02*
X117490057Y-73874285D01*
X117490057Y-73874285D02*
X117585295Y-73826666D01*
X117585295Y-73826666D02*
X117728152Y-73826666D01*
X117728152Y-73826666D02*
X117823390Y-73874285D01*
X117823390Y-73874285D02*
X117871009Y-73921904D01*
X117871009Y-73921904D02*
X117918628Y-74017142D01*
X117918628Y-74017142D02*
X117918628Y-74398094D01*
X118394819Y-72874285D02*
X118394819Y-73445713D01*
X118394819Y-73159999D02*
X117394819Y-73159999D01*
X117394819Y-73159999D02*
X117537676Y-73255237D01*
X117537676Y-73255237D02*
X117632914Y-73350475D01*
X117632914Y-73350475D02*
X117680533Y-73445713D01*
D11*
X72900713Y-35142318D02*
X73747380Y-36412318D01*
X73747380Y-35142318D02*
X72900713Y-36412318D01*
X74049761Y-35142318D02*
X74775475Y-35142318D01*
X74412618Y-36412318D02*
X74412618Y-35142318D01*
X75077856Y-35142318D02*
X75864047Y-35142318D01*
X75864047Y-35142318D02*
X75440713Y-35626127D01*
X75440713Y-35626127D02*
X75622142Y-35626127D01*
X75622142Y-35626127D02*
X75743094Y-35686603D01*
X75743094Y-35686603D02*
X75803570Y-35747080D01*
X75803570Y-35747080D02*
X75864047Y-35868032D01*
X75864047Y-35868032D02*
X75864047Y-36170413D01*
X75864047Y-36170413D02*
X75803570Y-36291365D01*
X75803570Y-36291365D02*
X75743094Y-36351842D01*
X75743094Y-36351842D02*
X75622142Y-36412318D01*
X75622142Y-36412318D02*
X75259285Y-36412318D01*
X75259285Y-36412318D02*
X75138332Y-36351842D01*
X75138332Y-36351842D02*
X75077856Y-36291365D01*
X76650237Y-35142318D02*
X76771190Y-35142318D01*
X76771190Y-35142318D02*
X76892142Y-35202794D01*
X76892142Y-35202794D02*
X76952618Y-35263270D01*
X76952618Y-35263270D02*
X77013094Y-35384222D01*
X77013094Y-35384222D02*
X77073571Y-35626127D01*
X77073571Y-35626127D02*
X77073571Y-35928508D01*
X77073571Y-35928508D02*
X77013094Y-36170413D01*
X77013094Y-36170413D02*
X76952618Y-36291365D01*
X76952618Y-36291365D02*
X76892142Y-36351842D01*
X76892142Y-36351842D02*
X76771190Y-36412318D01*
X76771190Y-36412318D02*
X76650237Y-36412318D01*
X76650237Y-36412318D02*
X76529285Y-36351842D01*
X76529285Y-36351842D02*
X76468809Y-36291365D01*
X76468809Y-36291365D02*
X76408332Y-36170413D01*
X76408332Y-36170413D02*
X76347856Y-35928508D01*
X76347856Y-35928508D02*
X76347856Y-35626127D01*
X76347856Y-35626127D02*
X76408332Y-35384222D01*
X76408332Y-35384222D02*
X76468809Y-35263270D01*
X76468809Y-35263270D02*
X76529285Y-35202794D01*
X76529285Y-35202794D02*
X76650237Y-35142318D01*
X77617856Y-36412318D02*
X77617856Y-35142318D01*
X77617856Y-35142318D02*
X78101666Y-35142318D01*
X78101666Y-35142318D02*
X78222618Y-35202794D01*
X78222618Y-35202794D02*
X78283095Y-35263270D01*
X78283095Y-35263270D02*
X78343571Y-35384222D01*
X78343571Y-35384222D02*
X78343571Y-35565651D01*
X78343571Y-35565651D02*
X78283095Y-35686603D01*
X78283095Y-35686603D02*
X78222618Y-35747080D01*
X78222618Y-35747080D02*
X78101666Y-35807556D01*
X78101666Y-35807556D02*
X77617856Y-35807556D01*
X78766904Y-35142318D02*
X79069285Y-36412318D01*
X79069285Y-36412318D02*
X79311190Y-35505175D01*
X79311190Y-35505175D02*
X79553095Y-36412318D01*
X79553095Y-36412318D02*
X79855476Y-35142318D01*
X80339285Y-35928508D02*
X81306905Y-35928508D01*
X81911666Y-36412318D02*
X81911666Y-35142318D01*
X81911666Y-35142318D02*
X82335000Y-36049461D01*
X82335000Y-36049461D02*
X82758333Y-35142318D01*
X82758333Y-35142318D02*
X82758333Y-36412318D01*
D10*
X36706666Y-63169819D02*
X36135238Y-63169819D01*
X36420952Y-63169819D02*
X36420952Y-62169819D01*
X36420952Y-62169819D02*
X36325714Y-62312676D01*
X36325714Y-62312676D02*
X36230476Y-62407914D01*
X36230476Y-62407914D02*
X36135238Y-62455533D01*
X37135238Y-62788866D02*
X37897143Y-62788866D01*
X38706666Y-62646009D02*
X38849523Y-62693628D01*
X38849523Y-62693628D02*
X38897142Y-62741247D01*
X38897142Y-62741247D02*
X38944761Y-62836485D01*
X38944761Y-62836485D02*
X38944761Y-62979342D01*
X38944761Y-62979342D02*
X38897142Y-63074580D01*
X38897142Y-63074580D02*
X38849523Y-63122200D01*
X38849523Y-63122200D02*
X38754285Y-63169819D01*
X38754285Y-63169819D02*
X38373333Y-63169819D01*
X38373333Y-63169819D02*
X38373333Y-62169819D01*
X38373333Y-62169819D02*
X38706666Y-62169819D01*
X38706666Y-62169819D02*
X38801904Y-62217438D01*
X38801904Y-62217438D02*
X38849523Y-62265057D01*
X38849523Y-62265057D02*
X38897142Y-62360295D01*
X38897142Y-62360295D02*
X38897142Y-62455533D01*
X38897142Y-62455533D02*
X38849523Y-62550771D01*
X38849523Y-62550771D02*
X38801904Y-62598390D01*
X38801904Y-62598390D02*
X38706666Y-62646009D01*
X38706666Y-62646009D02*
X38373333Y-62646009D01*
D12*
%TO.C,XT30PW-M*%
X51980000Y-42600000D02*
X51980000Y-33101000D01*
X51980000Y-28651000D02*
X51980000Y-30601000D01*
X51030000Y-42600000D02*
X51980000Y-42600000D01*
X42080000Y-42600000D02*
X43030000Y-42600000D01*
X42080000Y-33101000D02*
X42080000Y-42600000D01*
X42080000Y-30601000D02*
X42080000Y-28651000D01*
X42080000Y-28651000D02*
X51980000Y-28651000D01*
D13*
%TO.C,1uF*%
X111855000Y-89119000D02*
X111855000Y-90515000D01*
X111855000Y-89119000D02*
X118095000Y-89119000D01*
X111855000Y-92365000D02*
X111855000Y-93761000D01*
X111855000Y-93761000D02*
X118095000Y-93761000D01*
X118095000Y-89119000D02*
X118095000Y-90515000D01*
X118095000Y-92365000D02*
X118095000Y-93761000D01*
%TO.C,J1*%
X68520000Y-88205000D02*
X69850000Y-88205000D01*
X68520000Y-89535000D02*
X68520000Y-88205000D01*
X68520000Y-90805000D02*
X68520000Y-95945000D01*
X68520000Y-90805000D02*
X71180000Y-90805000D01*
X68520000Y-95945000D02*
X71180000Y-95945000D01*
X71180000Y-90805000D02*
X71180000Y-95945000D01*
%TO.C,0.1uF*%
X83130000Y-58836000D02*
X83130000Y-57440000D01*
X83130000Y-58836000D02*
X76890000Y-58836000D01*
X83130000Y-55590000D02*
X83130000Y-54194000D01*
X83130000Y-54194000D02*
X76890000Y-54194000D01*
X76890000Y-58836000D02*
X76890000Y-57440000D01*
X76890000Y-55590000D02*
X76890000Y-54194000D01*
X64040000Y-58836000D02*
X64040000Y-57440000D01*
X64040000Y-58836000D02*
X57800000Y-58836000D01*
X64040000Y-55590000D02*
X64040000Y-54194000D01*
X64040000Y-54194000D02*
X57800000Y-54194000D01*
X57800000Y-58836000D02*
X57800000Y-57440000D01*
X57800000Y-55590000D02*
X57800000Y-54194000D01*
%TO.C,VDD -> 5V*%
X111295000Y-84465000D02*
X111295000Y-68355000D01*
X111295000Y-84465000D02*
X100795000Y-84465000D01*
X111295000Y-68355000D02*
X100795000Y-68355000D01*
X108585000Y-68355000D02*
X108585000Y-66395000D01*
X106045000Y-68355000D02*
X106045000Y-66395000D01*
X103505000Y-68355000D02*
X103505000Y-66395000D01*
X100795000Y-84465000D02*
X100795000Y-68355000D01*
D14*
%TO.C,TB6643KQ*%
X108280000Y-50800000D02*
X108280000Y-50800000D01*
X108280000Y-50800000D02*
X108280000Y-50800000D01*
X108180000Y-50800000D02*
X108180000Y-50800000D01*
X107560000Y-52300000D02*
X90560000Y-52300000D01*
X107560000Y-49300000D02*
X90560000Y-49300000D01*
X108180000Y-50800000D02*
G75*
G03*
X108280000Y-50800000I50000J0D01*
G01*
X108280000Y-50800000D02*
G75*
G03*
X108180000Y-50800000I-50000J0D01*
G01*
X108280000Y-50800000D02*
G75*
G03*
X108180000Y-50800000I-50000J0D01*
G01*
D13*
%TO.C,0.1uF*%
X102180000Y-58836000D02*
X102180000Y-57440000D01*
X102180000Y-58836000D02*
X95940000Y-58836000D01*
X102180000Y-55590000D02*
X102180000Y-54194000D01*
X102180000Y-54194000D02*
X95940000Y-54194000D01*
X95940000Y-58836000D02*
X95940000Y-57440000D01*
X95940000Y-55590000D02*
X95940000Y-54194000D01*
%TO.C,J3*%
X78680000Y-88205000D02*
X80010000Y-88205000D01*
X78680000Y-89535000D02*
X78680000Y-88205000D01*
X78680000Y-90805000D02*
X78680000Y-95945000D01*
X78680000Y-90805000D02*
X81340000Y-90805000D01*
X78680000Y-95945000D02*
X81340000Y-95945000D01*
X81340000Y-90805000D02*
X81340000Y-95945000D01*
%TO.C,TC74HC4066AP*%
X48785000Y-62170000D02*
X48785000Y-80070000D01*
X48785000Y-80070000D02*
X54085000Y-80070000D01*
X50435000Y-62170000D02*
X48785000Y-62170000D01*
X54085000Y-62170000D02*
X52435000Y-62170000D01*
X54085000Y-80070000D02*
X54085000Y-62170000D01*
X50435000Y-62170000D02*
G75*
G03*
X52435000Y-62170000I1000000J0D01*
G01*
%TO.C,2-B*%
X34040000Y-75740000D02*
X34040000Y-77240000D01*
X35290000Y-79740000D02*
X39790000Y-79740000D01*
X39790000Y-73240000D02*
X35290000Y-73240000D01*
X41040000Y-77240000D02*
X41040000Y-75740000D01*
%TO.C,1-A*%
X30095000Y-67770000D02*
X30095000Y-66270000D01*
X28845000Y-63770000D02*
X24345000Y-63770000D01*
X24345000Y-70270000D02*
X28845000Y-70270000D01*
X23095000Y-66270000D02*
X23095000Y-67770000D01*
%TO.C,TC74HC4066AP*%
X86885000Y-62170000D02*
X86885000Y-80070000D01*
X86885000Y-80070000D02*
X92185000Y-80070000D01*
X88535000Y-62170000D02*
X86885000Y-62170000D01*
X92185000Y-62170000D02*
X90535000Y-62170000D01*
X92185000Y-80070000D02*
X92185000Y-62170000D01*
X88535000Y-62170000D02*
G75*
G03*
X90535000Y-62170000I1000000J0D01*
G01*
%TO.C,220uF*%
X28072651Y-30070000D02*
X28872651Y-30070000D01*
X28472651Y-29670000D02*
X28472651Y-30470000D01*
X32482349Y-28305000D02*
X32482349Y-36465000D01*
X32522349Y-28305000D02*
X32522349Y-36465000D01*
X32562349Y-28305000D02*
X32562349Y-36465000D01*
X32602349Y-28306000D02*
X32602349Y-36464000D01*
X32642349Y-28308000D02*
X32642349Y-36462000D01*
X32682349Y-28309000D02*
X32682349Y-36461000D01*
X32722349Y-28311000D02*
X32722349Y-36459000D01*
X32762349Y-28314000D02*
X32762349Y-36456000D01*
X32802349Y-28317000D02*
X32802349Y-36453000D01*
X32842349Y-28320000D02*
X32842349Y-36450000D01*
X32882349Y-28324000D02*
X32882349Y-36446000D01*
X32922349Y-28328000D02*
X32922349Y-36442000D01*
X32962349Y-28333000D02*
X32962349Y-36437000D01*
X33002349Y-28337000D02*
X33002349Y-36433000D01*
X33042349Y-28343000D02*
X33042349Y-36427000D01*
X33082349Y-28348000D02*
X33082349Y-36422000D01*
X33122349Y-28355000D02*
X33122349Y-36415000D01*
X33162349Y-28361000D02*
X33162349Y-36409000D01*
X33203349Y-28368000D02*
X33203349Y-31345000D01*
X33203349Y-33425000D02*
X33203349Y-36402000D01*
X33243349Y-28375000D02*
X33243349Y-31345000D01*
X33243349Y-33425000D02*
X33243349Y-36395000D01*
X33283349Y-28383000D02*
X33283349Y-31345000D01*
X33283349Y-33425000D02*
X33283349Y-36387000D01*
X33323349Y-28391000D02*
X33323349Y-31345000D01*
X33323349Y-33425000D02*
X33323349Y-36379000D01*
X33363349Y-28400000D02*
X33363349Y-31345000D01*
X33363349Y-33425000D02*
X33363349Y-36370000D01*
X33403349Y-28409000D02*
X33403349Y-31345000D01*
X33403349Y-33425000D02*
X33403349Y-36361000D01*
X33443349Y-28418000D02*
X33443349Y-31345000D01*
X33443349Y-33425000D02*
X33443349Y-36352000D01*
X33483349Y-28428000D02*
X33483349Y-31345000D01*
X33483349Y-33425000D02*
X33483349Y-36342000D01*
X33523349Y-28438000D02*
X33523349Y-31345000D01*
X33523349Y-33425000D02*
X33523349Y-36332000D01*
X33563349Y-28449000D02*
X33563349Y-31345000D01*
X33563349Y-33425000D02*
X33563349Y-36321000D01*
X33603349Y-28460000D02*
X33603349Y-31345000D01*
X33603349Y-33425000D02*
X33603349Y-36310000D01*
X33643349Y-28471000D02*
X33643349Y-31345000D01*
X33643349Y-33425000D02*
X33643349Y-36299000D01*
X33683349Y-28483000D02*
X33683349Y-31345000D01*
X33683349Y-33425000D02*
X33683349Y-36287000D01*
X33723349Y-28496000D02*
X33723349Y-31345000D01*
X33723349Y-33425000D02*
X33723349Y-36274000D01*
X33763349Y-28508000D02*
X33763349Y-31345000D01*
X33763349Y-33425000D02*
X33763349Y-36262000D01*
X33803349Y-28522000D02*
X33803349Y-31345000D01*
X33803349Y-33425000D02*
X33803349Y-36248000D01*
X33843349Y-28535000D02*
X33843349Y-31345000D01*
X33843349Y-33425000D02*
X33843349Y-36235000D01*
X33883349Y-28550000D02*
X33883349Y-31345000D01*
X33883349Y-33425000D02*
X33883349Y-36220000D01*
X33923349Y-28564000D02*
X33923349Y-31345000D01*
X33923349Y-33425000D02*
X33923349Y-36206000D01*
X33963349Y-28580000D02*
X33963349Y-31345000D01*
X33963349Y-33425000D02*
X33963349Y-36190000D01*
X34003349Y-28595000D02*
X34003349Y-31345000D01*
X34003349Y-33425000D02*
X34003349Y-36175000D01*
X34043349Y-28611000D02*
X34043349Y-31345000D01*
X34043349Y-33425000D02*
X34043349Y-36159000D01*
X34083349Y-28628000D02*
X34083349Y-31345000D01*
X34083349Y-33425000D02*
X34083349Y-36142000D01*
X34123349Y-28645000D02*
X34123349Y-31345000D01*
X34123349Y-33425000D02*
X34123349Y-36125000D01*
X34163349Y-28663000D02*
X34163349Y-31345000D01*
X34163349Y-33425000D02*
X34163349Y-36107000D01*
X34203349Y-28681000D02*
X34203349Y-31345000D01*
X34203349Y-33425000D02*
X34203349Y-36089000D01*
X34243349Y-28699000D02*
X34243349Y-31345000D01*
X34243349Y-33425000D02*
X34243349Y-36071000D01*
X34283349Y-28719000D02*
X34283349Y-31345000D01*
X34283349Y-33425000D02*
X34283349Y-36051000D01*
X34323349Y-28738000D02*
X34323349Y-31345000D01*
X34323349Y-33425000D02*
X34323349Y-36032000D01*
X34363349Y-28758000D02*
X34363349Y-31345000D01*
X34363349Y-33425000D02*
X34363349Y-36012000D01*
X34403349Y-28779000D02*
X34403349Y-31345000D01*
X34403349Y-33425000D02*
X34403349Y-35991000D01*
X34443349Y-28801000D02*
X34443349Y-31345000D01*
X34443349Y-33425000D02*
X34443349Y-35969000D01*
X34483349Y-28823000D02*
X34483349Y-31345000D01*
X34483349Y-33425000D02*
X34483349Y-35947000D01*
X34523349Y-28845000D02*
X34523349Y-31345000D01*
X34523349Y-33425000D02*
X34523349Y-35925000D01*
X34563349Y-28868000D02*
X34563349Y-31345000D01*
X34563349Y-33425000D02*
X34563349Y-35902000D01*
X34603349Y-28892000D02*
X34603349Y-31345000D01*
X34603349Y-33425000D02*
X34603349Y-35878000D01*
X34643349Y-28916000D02*
X34643349Y-31345000D01*
X34643349Y-33425000D02*
X34643349Y-35854000D01*
X34683349Y-28941000D02*
X34683349Y-31345000D01*
X34683349Y-33425000D02*
X34683349Y-35829000D01*
X34723349Y-28967000D02*
X34723349Y-31345000D01*
X34723349Y-33425000D02*
X34723349Y-35803000D01*
X34763349Y-28993000D02*
X34763349Y-31345000D01*
X34763349Y-33425000D02*
X34763349Y-35777000D01*
X34803349Y-29020000D02*
X34803349Y-31345000D01*
X34803349Y-33425000D02*
X34803349Y-35750000D01*
X34843349Y-29047000D02*
X34843349Y-31345000D01*
X34843349Y-33425000D02*
X34843349Y-35723000D01*
X34883349Y-29076000D02*
X34883349Y-31345000D01*
X34883349Y-33425000D02*
X34883349Y-35694000D01*
X34923349Y-29105000D02*
X34923349Y-31345000D01*
X34923349Y-33425000D02*
X34923349Y-35665000D01*
X34963349Y-29135000D02*
X34963349Y-31345000D01*
X34963349Y-33425000D02*
X34963349Y-35635000D01*
X35003349Y-29165000D02*
X35003349Y-31345000D01*
X35003349Y-33425000D02*
X35003349Y-35605000D01*
X35043349Y-29196000D02*
X35043349Y-31345000D01*
X35043349Y-33425000D02*
X35043349Y-35574000D01*
X35083349Y-29229000D02*
X35083349Y-31345000D01*
X35083349Y-33425000D02*
X35083349Y-35541000D01*
X35123349Y-29261000D02*
X35123349Y-31345000D01*
X35123349Y-33425000D02*
X35123349Y-35509000D01*
X35163349Y-29295000D02*
X35163349Y-31345000D01*
X35163349Y-33425000D02*
X35163349Y-35475000D01*
X35203349Y-29330000D02*
X35203349Y-31345000D01*
X35203349Y-33425000D02*
X35203349Y-35440000D01*
X35243349Y-29366000D02*
X35243349Y-31345000D01*
X35243349Y-33425000D02*
X35243349Y-35404000D01*
X35283349Y-29402000D02*
X35283349Y-35368000D01*
X35323349Y-29440000D02*
X35323349Y-35330000D01*
X35363349Y-29478000D02*
X35363349Y-35292000D01*
X35403349Y-29518000D02*
X35403349Y-35252000D01*
X35443349Y-29559000D02*
X35443349Y-35211000D01*
X35483349Y-29601000D02*
X35483349Y-35169000D01*
X35523349Y-29644000D02*
X35523349Y-35126000D01*
X35563349Y-29688000D02*
X35563349Y-35082000D01*
X35603349Y-29734000D02*
X35603349Y-35036000D01*
X35643349Y-29781000D02*
X35643349Y-34989000D01*
X35683349Y-29829000D02*
X35683349Y-34941000D01*
X35723349Y-29880000D02*
X35723349Y-34890000D01*
X35763349Y-29931000D02*
X35763349Y-34839000D01*
X35803349Y-29985000D02*
X35803349Y-34785000D01*
X35843349Y-30040000D02*
X35843349Y-34730000D01*
X35883349Y-30098000D02*
X35883349Y-34672000D01*
X35923349Y-30157000D02*
X35923349Y-34613000D01*
X35963349Y-30219000D02*
X35963349Y-34551000D01*
X36003349Y-30283000D02*
X36003349Y-34487000D01*
X36043349Y-30351000D02*
X36043349Y-34419000D01*
X36083349Y-30421000D02*
X36083349Y-34349000D01*
X36123349Y-30495000D02*
X36123349Y-34275000D01*
X36163349Y-30572000D02*
X36163349Y-34198000D01*
X36203349Y-30654000D02*
X36203349Y-34116000D01*
X36243349Y-30740000D02*
X36243349Y-34030000D01*
X36283349Y-30833000D02*
X36283349Y-33937000D01*
X36323349Y-30932000D02*
X36323349Y-33838000D01*
X36363349Y-31039000D02*
X36363349Y-33731000D01*
X36403349Y-31156000D02*
X36403349Y-33614000D01*
X36443349Y-31287000D02*
X36443349Y-33483000D01*
X36483349Y-31437000D02*
X36483349Y-33333000D01*
X36523349Y-31617000D02*
X36523349Y-33153000D01*
X36563349Y-31852000D02*
X36563349Y-32918000D01*
X36602349Y-32385000D02*
G75*
G03*
X28362349Y-32385000I-4120000J0D01*
G01*
X28362349Y-32385000D02*
G75*
G03*
X36602349Y-32385000I4120000J0D01*
G01*
%TO.C,1uF*%
X24780000Y-49114000D02*
X24780000Y-50510000D01*
X24780000Y-49114000D02*
X31020000Y-49114000D01*
X24780000Y-52360000D02*
X24780000Y-53756000D01*
X24780000Y-53756000D02*
X31020000Y-53756000D01*
X31020000Y-49114000D02*
X31020000Y-50510000D01*
X31020000Y-52360000D02*
X31020000Y-53756000D01*
%TO.C,TC74HC04AP*%
X71020000Y-62165000D02*
X71020000Y-80065000D01*
X71020000Y-80065000D02*
X76320000Y-80065000D01*
X72670000Y-62165000D02*
X71020000Y-62165000D01*
X76320000Y-62165000D02*
X74670000Y-62165000D01*
X76320000Y-80065000D02*
X76320000Y-62165000D01*
X72670000Y-62165000D02*
G75*
G03*
X74670000Y-62165000I1000000J0D01*
G01*
D12*
%TO.C,XT30PW-M*%
X67600000Y-42600000D02*
X67600000Y-33101000D01*
X67600000Y-28651000D02*
X67600000Y-30601000D01*
X66650000Y-42600000D02*
X67600000Y-42600000D01*
X57700000Y-42600000D02*
X58650000Y-42600000D01*
X57700000Y-33101000D02*
X57700000Y-42600000D01*
X57700000Y-30601000D02*
X57700000Y-28651000D01*
X57700000Y-28651000D02*
X67600000Y-28651000D01*
X88180000Y-28651000D02*
X98080000Y-28651000D01*
X88180000Y-30601000D02*
X88180000Y-28651000D01*
X88180000Y-33101000D02*
X88180000Y-42600000D01*
X88180000Y-42600000D02*
X89130000Y-42600000D01*
X97130000Y-42600000D02*
X98080000Y-42600000D01*
X98080000Y-28651000D02*
X98080000Y-30601000D01*
X98080000Y-42600000D02*
X98080000Y-33101000D01*
D13*
%TO.C,3-A*%
X23245000Y-85320000D02*
X23245000Y-86820000D01*
X24495000Y-89320000D02*
X28995000Y-89320000D01*
X28995000Y-82820000D02*
X24495000Y-82820000D01*
X30245000Y-86820000D02*
X30245000Y-85320000D01*
%TO.C,J2*%
X73600000Y-88205000D02*
X74930000Y-88205000D01*
X73600000Y-89535000D02*
X73600000Y-88205000D01*
X73600000Y-90805000D02*
X73600000Y-95945000D01*
X73600000Y-90805000D02*
X76260000Y-90805000D01*
X73600000Y-95945000D02*
X76260000Y-95945000D01*
X76260000Y-90805000D02*
X76260000Y-95945000D01*
%TO.C,1uF*%
X24740000Y-43399000D02*
X24740000Y-44795000D01*
X24740000Y-43399000D02*
X30980000Y-43399000D01*
X24740000Y-46645000D02*
X24740000Y-48041000D01*
X24740000Y-48041000D02*
X30980000Y-48041000D01*
X30980000Y-43399000D02*
X30980000Y-44795000D01*
X30980000Y-46645000D02*
X30980000Y-48041000D01*
%TO.C,2-A*%
X23170000Y-75740000D02*
X23170000Y-77240000D01*
X24420000Y-79740000D02*
X28920000Y-79740000D01*
X28920000Y-73240000D02*
X24420000Y-73240000D01*
X30170000Y-77240000D02*
X30170000Y-75740000D01*
%TO.C,J4*%
X83760000Y-88205000D02*
X85090000Y-88205000D01*
X83760000Y-89535000D02*
X83760000Y-88205000D01*
X83760000Y-90805000D02*
X83760000Y-95945000D01*
X83760000Y-90805000D02*
X86420000Y-90805000D01*
X83760000Y-95945000D02*
X86420000Y-95945000D01*
X86420000Y-90805000D02*
X86420000Y-95945000D01*
D14*
%TO.C,IC5*%
X70180000Y-50800000D02*
G75*
G03*
X70080000Y-50800000I-50000J0D01*
G01*
X70180000Y-50800000D02*
G75*
G03*
X70080000Y-50800000I-50000J0D01*
G01*
X70080000Y-50800000D02*
G75*
G03*
X70180000Y-50800000I50000J0D01*
G01*
X69460000Y-49300000D02*
X52460000Y-49300000D01*
X69460000Y-52300000D02*
X52460000Y-52300000D01*
X70080000Y-50800000D02*
X70080000Y-50800000D01*
X70180000Y-50800000D02*
X70180000Y-50800000D01*
X70180000Y-50800000D02*
X70180000Y-50800000D01*
D13*
%TO.C,1uF*%
X24700000Y-37684000D02*
X24700000Y-39080000D01*
X24700000Y-37684000D02*
X30940000Y-37684000D01*
X24700000Y-40930000D02*
X24700000Y-42326000D01*
X24700000Y-42326000D02*
X30940000Y-42326000D01*
X30940000Y-37684000D02*
X30940000Y-39080000D01*
X30940000Y-40930000D02*
X30940000Y-42326000D01*
D14*
%TO.C,IC6*%
X89230000Y-50800000D02*
G75*
G03*
X89130000Y-50800000I-50000J0D01*
G01*
X89230000Y-50800000D02*
G75*
G03*
X89130000Y-50800000I-50000J0D01*
G01*
X89130000Y-50800000D02*
G75*
G03*
X89230000Y-50800000I50000J0D01*
G01*
X88510000Y-49300000D02*
X71510000Y-49300000D01*
X88510000Y-52300000D02*
X71510000Y-52300000D01*
X89130000Y-50800000D02*
X89130000Y-50800000D01*
X89230000Y-50800000D02*
X89230000Y-50800000D01*
X89230000Y-50800000D02*
X89230000Y-50800000D01*
D13*
%TO.C,4-B*%
X34600000Y-94500000D02*
X34600000Y-96000000D01*
X35850000Y-98500000D02*
X40350000Y-98500000D01*
X40350000Y-92000000D02*
X35850000Y-92000000D01*
X41600000Y-96000000D02*
X41600000Y-94500000D01*
%TO.C,10uF*%
X113445113Y-82980000D02*
X113945113Y-82980000D01*
X113695113Y-82730000D02*
X113695113Y-83230000D01*
X116249888Y-81875000D02*
X116249888Y-83415000D01*
X116249888Y-85495000D02*
X116249888Y-87035000D01*
X116289888Y-81875000D02*
X116289888Y-83415000D01*
X116289888Y-85495000D02*
X116289888Y-87035000D01*
X116329888Y-81876000D02*
X116329888Y-83415000D01*
X116329888Y-85495000D02*
X116329888Y-87034000D01*
X116369888Y-81877000D02*
X116369888Y-83415000D01*
X116369888Y-85495000D02*
X116369888Y-87033000D01*
X116409888Y-81879000D02*
X116409888Y-83415000D01*
X116409888Y-85495000D02*
X116409888Y-87031000D01*
X116449888Y-81882000D02*
X116449888Y-83415000D01*
X116449888Y-85495000D02*
X116449888Y-87028000D01*
X116489888Y-81886000D02*
X116489888Y-83415000D01*
X116489888Y-85495000D02*
X116489888Y-87024000D01*
X116529888Y-81890000D02*
X116529888Y-83415000D01*
X116529888Y-85495000D02*
X116529888Y-87020000D01*
X116569888Y-81894000D02*
X116569888Y-83415000D01*
X116569888Y-85495000D02*
X116569888Y-87016000D01*
X116609888Y-81899000D02*
X116609888Y-83415000D01*
X116609888Y-85495000D02*
X116609888Y-87011000D01*
X116649888Y-81905000D02*
X116649888Y-83415000D01*
X116649888Y-85495000D02*
X116649888Y-87005000D01*
X116689888Y-81912000D02*
X116689888Y-83415000D01*
X116689888Y-85495000D02*
X116689888Y-86998000D01*
X116729888Y-81919000D02*
X116729888Y-83415000D01*
X116729888Y-85495000D02*
X116729888Y-86991000D01*
X116769888Y-81927000D02*
X116769888Y-83415000D01*
X116769888Y-85495000D02*
X116769888Y-86983000D01*
X116809888Y-81935000D02*
X116809888Y-83415000D01*
X116809888Y-85495000D02*
X116809888Y-86975000D01*
X116849888Y-81944000D02*
X116849888Y-83415000D01*
X116849888Y-85495000D02*
X116849888Y-86966000D01*
X116889888Y-81954000D02*
X116889888Y-83415000D01*
X116889888Y-85495000D02*
X116889888Y-86956000D01*
X116929888Y-81964000D02*
X116929888Y-83415000D01*
X116929888Y-85495000D02*
X116929888Y-86946000D01*
X116970888Y-81975000D02*
X116970888Y-83415000D01*
X116970888Y-85495000D02*
X116970888Y-86935000D01*
X117010888Y-81987000D02*
X117010888Y-83415000D01*
X117010888Y-85495000D02*
X117010888Y-86923000D01*
X117050888Y-82000000D02*
X117050888Y-83415000D01*
X117050888Y-85495000D02*
X117050888Y-86910000D01*
X117090888Y-82013000D02*
X117090888Y-83415000D01*
X117090888Y-85495000D02*
X117090888Y-86897000D01*
X117130888Y-82027000D02*
X117130888Y-83415000D01*
X117130888Y-85495000D02*
X117130888Y-86883000D01*
X117170888Y-82041000D02*
X117170888Y-83415000D01*
X117170888Y-85495000D02*
X117170888Y-86869000D01*
X117210888Y-82057000D02*
X117210888Y-83415000D01*
X117210888Y-85495000D02*
X117210888Y-86853000D01*
X117250888Y-82073000D02*
X117250888Y-83415000D01*
X117250888Y-85495000D02*
X117250888Y-86837000D01*
X117290888Y-82090000D02*
X117290888Y-83415000D01*
X117290888Y-85495000D02*
X117290888Y-86820000D01*
X117330888Y-82107000D02*
X117330888Y-83415000D01*
X117330888Y-85495000D02*
X117330888Y-86803000D01*
X117370888Y-82126000D02*
X117370888Y-83415000D01*
X117370888Y-85495000D02*
X117370888Y-86784000D01*
X117410888Y-82145000D02*
X117410888Y-83415000D01*
X117410888Y-85495000D02*
X117410888Y-86765000D01*
X117450888Y-82165000D02*
X117450888Y-83415000D01*
X117450888Y-85495000D02*
X117450888Y-86745000D01*
X117490888Y-82187000D02*
X117490888Y-83415000D01*
X117490888Y-85495000D02*
X117490888Y-86723000D01*
X117530888Y-82208000D02*
X117530888Y-83415000D01*
X117530888Y-85495000D02*
X117530888Y-86702000D01*
X117570888Y-82231000D02*
X117570888Y-83415000D01*
X117570888Y-85495000D02*
X117570888Y-86679000D01*
X117610888Y-82255000D02*
X117610888Y-83415000D01*
X117610888Y-85495000D02*
X117610888Y-86655000D01*
X117650888Y-82280000D02*
X117650888Y-83415000D01*
X117650888Y-85495000D02*
X117650888Y-86630000D01*
X117690888Y-82306000D02*
X117690888Y-83415000D01*
X117690888Y-85495000D02*
X117690888Y-86604000D01*
X117730888Y-82333000D02*
X117730888Y-83415000D01*
X117730888Y-85495000D02*
X117730888Y-86577000D01*
X117770888Y-82360000D02*
X117770888Y-83415000D01*
X117770888Y-85495000D02*
X117770888Y-86550000D01*
X117810888Y-82390000D02*
X117810888Y-83415000D01*
X117810888Y-85495000D02*
X117810888Y-86520000D01*
X117850888Y-82420000D02*
X117850888Y-83415000D01*
X117850888Y-85495000D02*
X117850888Y-86490000D01*
X117890888Y-82451000D02*
X117890888Y-83415000D01*
X117890888Y-85495000D02*
X117890888Y-86459000D01*
X117930888Y-82484000D02*
X117930888Y-83415000D01*
X117930888Y-85495000D02*
X117930888Y-86426000D01*
X117970888Y-82518000D02*
X117970888Y-83415000D01*
X117970888Y-85495000D02*
X117970888Y-86392000D01*
X118010888Y-82554000D02*
X118010888Y-83415000D01*
X118010888Y-85495000D02*
X118010888Y-86356000D01*
X118050888Y-82591000D02*
X118050888Y-83415000D01*
X118050888Y-85495000D02*
X118050888Y-86319000D01*
X118090888Y-82629000D02*
X118090888Y-83415000D01*
X118090888Y-85495000D02*
X118090888Y-86281000D01*
X118130888Y-82670000D02*
X118130888Y-83415000D01*
X118130888Y-85495000D02*
X118130888Y-86240000D01*
X118170888Y-82712000D02*
X118170888Y-83415000D01*
X118170888Y-85495000D02*
X118170888Y-86198000D01*
X118210888Y-82756000D02*
X118210888Y-83415000D01*
X118210888Y-85495000D02*
X118210888Y-86154000D01*
X118250888Y-82802000D02*
X118250888Y-83415000D01*
X118250888Y-85495000D02*
X118250888Y-86108000D01*
X118290888Y-82850000D02*
X118290888Y-86060000D01*
X118330888Y-82901000D02*
X118330888Y-86009000D01*
X118370888Y-82955000D02*
X118370888Y-85955000D01*
X118410888Y-83012000D02*
X118410888Y-85898000D01*
X118450888Y-83072000D02*
X118450888Y-85838000D01*
X118490888Y-83136000D02*
X118490888Y-85774000D01*
X118530888Y-83204000D02*
X118530888Y-85706000D01*
X118570888Y-83277000D02*
X118570888Y-85633000D01*
X118610888Y-83357000D02*
X118610888Y-85553000D01*
X118650888Y-83444000D02*
X118650888Y-85466000D01*
X118690888Y-83540000D02*
X118690888Y-85370000D01*
X118730888Y-83650000D02*
X118730888Y-85260000D01*
X118770888Y-83778000D02*
X118770888Y-85132000D01*
X118810888Y-83937000D02*
X118810888Y-84973000D01*
X118850888Y-84171000D02*
X118850888Y-84739000D01*
X118869888Y-84455000D02*
G75*
G03*
X113629888Y-84455000I-2620000J0D01*
G01*
X113629888Y-84455000D02*
G75*
G03*
X118869888Y-84455000I2620000J0D01*
G01*
%TO.C,3-B*%
X34430000Y-85320000D02*
X34430000Y-86820000D01*
X35680000Y-89320000D02*
X40180000Y-89320000D01*
X40180000Y-82820000D02*
X35680000Y-82820000D01*
X41430000Y-86820000D02*
X41430000Y-85320000D01*
D14*
%TO.C,IC4*%
X51130000Y-50800000D02*
G75*
G03*
X51030000Y-50800000I-50000J0D01*
G01*
X51130000Y-50800000D02*
G75*
G03*
X51030000Y-50800000I-50000J0D01*
G01*
X51030000Y-50800000D02*
G75*
G03*
X51130000Y-50800000I50000J0D01*
G01*
X50410000Y-49300000D02*
X33410000Y-49300000D01*
X50410000Y-52300000D02*
X33410000Y-52300000D01*
X51030000Y-50800000D02*
X51030000Y-50800000D01*
X51130000Y-50800000D02*
X51130000Y-50800000D01*
X51130000Y-50800000D02*
X51130000Y-50800000D01*
D13*
%TO.C,0.1uF*%
X45030000Y-58836000D02*
X45030000Y-57440000D01*
X45030000Y-58836000D02*
X38790000Y-58836000D01*
X45030000Y-55590000D02*
X45030000Y-54194000D01*
X45030000Y-54194000D02*
X38790000Y-54194000D01*
X38790000Y-58836000D02*
X38790000Y-57440000D01*
X38790000Y-55590000D02*
X38790000Y-54194000D01*
%TO.C,4-A*%
X23170000Y-94500000D02*
X23170000Y-96000000D01*
X24420000Y-98500000D02*
X28920000Y-98500000D01*
X28920000Y-92000000D02*
X24420000Y-92000000D01*
X30170000Y-96000000D02*
X30170000Y-94500000D01*
%TO.C,R1*%
X115570000Y-69620000D02*
X115570000Y-70390000D01*
X116940000Y-70390000D02*
X114200000Y-70390000D01*
X114200000Y-70390000D02*
X114200000Y-76930000D01*
X116940000Y-76930000D02*
X116940000Y-70390000D01*
X114200000Y-76930000D02*
X116940000Y-76930000D01*
X115570000Y-77700000D02*
X115570000Y-76930000D01*
D12*
%TO.C,XT30PW-M*%
X72940000Y-28651000D02*
X82840000Y-28651000D01*
X72940000Y-30601000D02*
X72940000Y-28651000D01*
X72940000Y-33101000D02*
X72940000Y-42600000D01*
X72940000Y-42600000D02*
X73890000Y-42600000D01*
X81890000Y-42600000D02*
X82840000Y-42600000D01*
X82840000Y-28651000D02*
X82840000Y-30601000D01*
X82840000Y-42600000D02*
X82840000Y-33101000D01*
D13*
%TO.C,1-B*%
X41040000Y-67715000D02*
X41040000Y-66215000D01*
X39790000Y-63715000D02*
X35290000Y-63715000D01*
X35290000Y-70215000D02*
X39790000Y-70215000D01*
X34040000Y-66215000D02*
X34040000Y-67715000D01*
%TD*%
M02*
