%TF.GenerationSoftware,KiCad,Pcbnew,8.0.3*%
%TF.CreationDate,2024-06-19T10:23:03+09:00*%
%TF.ProjectId,md2,6d64322e-6b69-4636-9164-5f7063625858,rev?*%
%TF.SameCoordinates,Original*%
%TF.FileFunction,Drillmap*%
%TF.FilePolarity,Positive*%
%FSLAX45Y45*%
G04 Gerber Fmt 4.5, Leading zero omitted, Abs format (unit mm)*
G04 Created by KiCad (PCBNEW 8.0.3) date 2024-06-19 10:23:03*
%MOMM*%
%LPD*%
G01*
G04 APERTURE LIST*
%ADD10C,0.100000*%
%ADD11C,0.150000*%
%ADD12C,0.200000*%
%ADD13C,0.105000*%
%ADD14C,0.110000*%
%ADD15C,0.120000*%
%ADD16C,0.170000*%
G04 APERTURE END LIST*
D10*
X18150000Y-5200000D02*
G75*
G02*
X17850000Y-5200000I-150000J0D01*
G01*
X17850000Y-5200000D02*
G75*
G02*
X18150000Y-5200000I150000J0D01*
G01*
X18150000Y-14600000D02*
G75*
G02*
X17850000Y-14600000I-150000J0D01*
G01*
X17850000Y-14600000D02*
G75*
G02*
X18150000Y-14600000I150000J0D01*
G01*
X18300000Y-14600000D02*
X18300000Y-5200000D01*
X10300000Y-11100000D02*
G75*
G02*
X10400000Y-11000000I100000J0D01*
G01*
X14588900Y-14352220D02*
G75*
G02*
X14284100Y-14352220I-152400J0D01*
G01*
X14284100Y-14352220D02*
G75*
G02*
X14588900Y-14352220I152400J0D01*
G01*
X10300000Y-11100000D02*
X10300000Y-14600000D01*
X10850000Y-9600000D02*
G75*
G02*
X10950000Y-9700000I0J-100000D01*
G01*
X10600000Y-14900000D02*
X18000000Y-14900000D01*
X10600000Y-14900000D02*
G75*
G02*
X10300000Y-14600000I0J300000D01*
G01*
X18300000Y-14600000D02*
G75*
G02*
X18000000Y-14900000I-300000J0D01*
G01*
X10950000Y-10900000D02*
X10950000Y-9700000D01*
X10850000Y-11000000D02*
X10400000Y-11000000D01*
X10950000Y-10900000D02*
G75*
G02*
X10850000Y-11000000I-100000J0D01*
G01*
X14588900Y-11342320D02*
G75*
G02*
X14284100Y-11342320I-152400J0D01*
G01*
X14284100Y-11342320D02*
G75*
G02*
X14588900Y-11342320I152400J0D01*
G01*
X10300000Y-5200000D02*
G75*
G02*
X10600000Y-4900000I300000J0D01*
G01*
X10750000Y-5200000D02*
G75*
G02*
X10450000Y-5200000I-150000J0D01*
G01*
X10450000Y-5200000D02*
G75*
G02*
X10750000Y-5200000I150000J0D01*
G01*
X10850000Y-9600000D02*
X10400000Y-9600000D01*
X18000000Y-4900000D02*
X10600000Y-4900000D01*
X10750000Y-14600000D02*
G75*
G02*
X10450000Y-14600000I-150000J0D01*
G01*
X10450000Y-14600000D02*
G75*
G02*
X10750000Y-14600000I150000J0D01*
G01*
X18000000Y-4900000D02*
G75*
G02*
X18300000Y-5200000I0J-300000D01*
G01*
D11*
X11088785Y-12847270D02*
G75*
G02*
X10783975Y-12847270I-152405J0D01*
G01*
X10783975Y-12847270D02*
G75*
G02*
X11088785Y-12847270I152405J0D01*
G01*
D10*
X10400000Y-9600000D02*
G75*
G02*
X10300000Y-9500000I0J100000D01*
G01*
X10300000Y-5200000D02*
X10300000Y-9500000D01*
D12*
D10*
X11430000Y-9830000D02*
X11470000Y-9870000D01*
X11470000Y-9830000D02*
X11430000Y-9870000D01*
X12000000Y-9810000D02*
X12040000Y-9850000D01*
X12040000Y-9810000D02*
X12000000Y-9850000D01*
X12570000Y-9789951D02*
X12610000Y-9829951D01*
X12610000Y-9789951D02*
X12570000Y-9829951D01*
X12705000Y-6180000D02*
X12745000Y-6220000D01*
X12745000Y-6180000D02*
X12705000Y-6220000D01*
X12705000Y-6330000D02*
X12745000Y-6370000D01*
X12745000Y-6330000D02*
X12705000Y-6370000D01*
X12705000Y-6480000D02*
X12745000Y-6520000D01*
X12745000Y-6480000D02*
X12705000Y-6520000D01*
X12855000Y-6180000D02*
X12895000Y-6220000D01*
X12895000Y-6180000D02*
X12855000Y-6220000D01*
X12855000Y-6330000D02*
X12895000Y-6370000D01*
X12895000Y-6330000D02*
X12855000Y-6370000D01*
X12855000Y-6480000D02*
X12895000Y-6520000D01*
X12895000Y-6480000D02*
X12855000Y-6520000D01*
X12955000Y-10715000D02*
X12995000Y-10755000D01*
X12995000Y-10715000D02*
X12955000Y-10755000D01*
X13265000Y-9720000D02*
X13305000Y-9760000D01*
X13305000Y-9720000D02*
X13265000Y-9760000D01*
X13265000Y-9845000D02*
X13305000Y-9885000D01*
X13305000Y-9845000D02*
X13265000Y-9885000D01*
X13265000Y-9970000D02*
X13305000Y-10010000D01*
X13305000Y-9970000D02*
X13265000Y-10010000D01*
X13360000Y-9466673D02*
X13400000Y-9506673D01*
X13400000Y-9466673D02*
X13360000Y-9506673D01*
X13390000Y-9720000D02*
X13430000Y-9760000D01*
X13430000Y-9720000D02*
X13390000Y-9760000D01*
X13390000Y-9845000D02*
X13430000Y-9885000D01*
X13430000Y-9845000D02*
X13390000Y-9885000D01*
X13390000Y-9970000D02*
X13430000Y-10010000D01*
X13430000Y-9970000D02*
X13390000Y-10010000D01*
X13460000Y-11950000D02*
X13500000Y-11990000D01*
X13500000Y-11950000D02*
X13460000Y-11990000D01*
X14255000Y-6230000D02*
X14295000Y-6270000D01*
X14295000Y-6230000D02*
X14255000Y-6270000D01*
X14255000Y-6380000D02*
X14295000Y-6420000D01*
X14295000Y-6380000D02*
X14255000Y-6420000D01*
X14255000Y-6530000D02*
X14295000Y-6570000D01*
X14295000Y-6530000D02*
X14255000Y-6570000D01*
X14405000Y-6230000D02*
X14445000Y-6270000D01*
X14445000Y-6230000D02*
X14405000Y-6270000D01*
X14405000Y-6380000D02*
X14445000Y-6420000D01*
X14445000Y-6380000D02*
X14405000Y-6420000D01*
X14405000Y-6530000D02*
X14445000Y-6570000D01*
X14445000Y-6530000D02*
X14405000Y-6570000D01*
X14555000Y-6230000D02*
X14595000Y-6270000D01*
X14595000Y-6230000D02*
X14555000Y-6270000D01*
X14555000Y-6380000D02*
X14595000Y-6420000D01*
X14595000Y-6380000D02*
X14555000Y-6420000D01*
X14555000Y-6530000D02*
X14595000Y-6570000D01*
X14595000Y-6530000D02*
X14555000Y-6570000D01*
X15680000Y-6280000D02*
X15720000Y-6320000D01*
X15720000Y-6280000D02*
X15680000Y-6320000D01*
X15680000Y-6430000D02*
X15720000Y-6470000D01*
X15720000Y-6430000D02*
X15680000Y-6470000D01*
X15680000Y-6580000D02*
X15720000Y-6620000D01*
X15720000Y-6580000D02*
X15680000Y-6620000D01*
X15830000Y-6280000D02*
X15870000Y-6320000D01*
X15870000Y-6280000D02*
X15830000Y-6320000D01*
X15830000Y-6430000D02*
X15870000Y-6470000D01*
X15870000Y-6430000D02*
X15830000Y-6470000D01*
X15830000Y-6580000D02*
X15870000Y-6620000D01*
X15870000Y-6580000D02*
X15830000Y-6620000D01*
X15980000Y-6280000D02*
X16020000Y-6320000D01*
X16020000Y-6280000D02*
X15980000Y-6320000D01*
X15980000Y-6430000D02*
X16020000Y-6470000D01*
X16020000Y-6430000D02*
X15980000Y-6470000D01*
X15980000Y-6580000D02*
X16020000Y-6620000D01*
X16020000Y-6580000D02*
X15980000Y-6620000D01*
X17305000Y-8655000D02*
X17345000Y-8695000D01*
X17345000Y-8655000D02*
X17305000Y-8695000D01*
X17380000Y-7455000D02*
X17420000Y-7495000D01*
X17420000Y-7455000D02*
X17380000Y-7495000D01*
X17380000Y-8205000D02*
X17420000Y-8245000D01*
X17420000Y-8205000D02*
X17380000Y-8245000D01*
X17455000Y-8655000D02*
X17495000Y-8695000D01*
X17495000Y-8655000D02*
X17455000Y-8695000D01*
X17530000Y-7455000D02*
X17570000Y-7495000D01*
X17570000Y-7455000D02*
X17530000Y-7495000D01*
X17530000Y-8205000D02*
X17570000Y-8245000D01*
X17570000Y-8205000D02*
X17530000Y-8245000D01*
X17605000Y-8655000D02*
X17645000Y-8695000D01*
X17645000Y-8655000D02*
X17605000Y-8695000D01*
X17680000Y-7455000D02*
X17720000Y-7495000D01*
X17720000Y-7455000D02*
X17680000Y-7495000D01*
X17680000Y-8205000D02*
X17720000Y-8245000D01*
X17720000Y-8205000D02*
X17680000Y-8245000D01*
X14408000Y-12084000D02*
G75*
G02*
X14338000Y-12084000I-35000J0D01*
G01*
X14338000Y-12084000D02*
G75*
G02*
X14408000Y-12084000I35000J0D01*
G01*
X14408000Y-12211000D02*
G75*
G02*
X14338000Y-12211000I-35000J0D01*
G01*
X14338000Y-12211000D02*
G75*
G02*
X14408000Y-12211000I35000J0D01*
G01*
X14408000Y-12338000D02*
G75*
G02*
X14338000Y-12338000I-35000J0D01*
G01*
X14338000Y-12338000D02*
G75*
G02*
X14408000Y-12338000I35000J0D01*
G01*
X14408000Y-12465000D02*
G75*
G02*
X14338000Y-12465000I-35000J0D01*
G01*
X14338000Y-12465000D02*
G75*
G02*
X14408000Y-12465000I35000J0D01*
G01*
X14408000Y-12592000D02*
G75*
G02*
X14338000Y-12592000I-35000J0D01*
G01*
X14338000Y-12592000D02*
G75*
G02*
X14408000Y-12592000I35000J0D01*
G01*
X14408000Y-12719000D02*
G75*
G02*
X14338000Y-12719000I-35000J0D01*
G01*
X14338000Y-12719000D02*
G75*
G02*
X14408000Y-12719000I35000J0D01*
G01*
X14408000Y-12846000D02*
G75*
G02*
X14338000Y-12846000I-35000J0D01*
G01*
X14338000Y-12846000D02*
G75*
G02*
X14408000Y-12846000I35000J0D01*
G01*
X14408000Y-12973000D02*
G75*
G02*
X14338000Y-12973000I-35000J0D01*
G01*
X14338000Y-12973000D02*
G75*
G02*
X14408000Y-12973000I35000J0D01*
G01*
X14408000Y-13100000D02*
G75*
G02*
X14338000Y-13100000I-35000J0D01*
G01*
X14338000Y-13100000D02*
G75*
G02*
X14408000Y-13100000I35000J0D01*
G01*
X14408000Y-13227000D02*
G75*
G02*
X14338000Y-13227000I-35000J0D01*
G01*
X14338000Y-13227000D02*
G75*
G02*
X14408000Y-13227000I35000J0D01*
G01*
X14408000Y-13354000D02*
G75*
G02*
X14338000Y-13354000I-35000J0D01*
G01*
X14338000Y-13354000D02*
G75*
G02*
X14408000Y-13354000I35000J0D01*
G01*
X14408000Y-13481000D02*
G75*
G02*
X14338000Y-13481000I-35000J0D01*
G01*
X14338000Y-13481000D02*
G75*
G02*
X14408000Y-13481000I35000J0D01*
G01*
X14408000Y-13608000D02*
G75*
G02*
X14338000Y-13608000I-35000J0D01*
G01*
X14338000Y-13608000D02*
G75*
G02*
X14408000Y-13608000I35000J0D01*
G01*
X14535000Y-12084000D02*
G75*
G02*
X14465000Y-12084000I-35000J0D01*
G01*
X14465000Y-12084000D02*
G75*
G02*
X14535000Y-12084000I35000J0D01*
G01*
X14535000Y-12211000D02*
G75*
G02*
X14465000Y-12211000I-35000J0D01*
G01*
X14465000Y-12211000D02*
G75*
G02*
X14535000Y-12211000I35000J0D01*
G01*
X14535000Y-12338000D02*
G75*
G02*
X14465000Y-12338000I-35000J0D01*
G01*
X14465000Y-12338000D02*
G75*
G02*
X14535000Y-12338000I35000J0D01*
G01*
X14535000Y-12465000D02*
G75*
G02*
X14465000Y-12465000I-35000J0D01*
G01*
X14465000Y-12465000D02*
G75*
G02*
X14535000Y-12465000I35000J0D01*
G01*
X14535000Y-12592000D02*
G75*
G02*
X14465000Y-12592000I-35000J0D01*
G01*
X14465000Y-12592000D02*
G75*
G02*
X14535000Y-12592000I35000J0D01*
G01*
X14535000Y-12719000D02*
G75*
G02*
X14465000Y-12719000I-35000J0D01*
G01*
X14465000Y-12719000D02*
G75*
G02*
X14535000Y-12719000I35000J0D01*
G01*
X14535000Y-12846000D02*
G75*
G02*
X14465000Y-12846000I-35000J0D01*
G01*
X14465000Y-12846000D02*
G75*
G02*
X14535000Y-12846000I35000J0D01*
G01*
X14535000Y-12973000D02*
G75*
G02*
X14465000Y-12973000I-35000J0D01*
G01*
X14465000Y-12973000D02*
G75*
G02*
X14535000Y-12973000I35000J0D01*
G01*
X14535000Y-13100000D02*
G75*
G02*
X14465000Y-13100000I-35000J0D01*
G01*
X14465000Y-13100000D02*
G75*
G02*
X14535000Y-13100000I35000J0D01*
G01*
X14535000Y-13227000D02*
G75*
G02*
X14465000Y-13227000I-35000J0D01*
G01*
X14465000Y-13227000D02*
G75*
G02*
X14535000Y-13227000I35000J0D01*
G01*
X14535000Y-13354000D02*
G75*
G02*
X14465000Y-13354000I-35000J0D01*
G01*
X14465000Y-13354000D02*
G75*
G02*
X14535000Y-13354000I35000J0D01*
G01*
X14535000Y-13481000D02*
G75*
G02*
X14465000Y-13481000I-35000J0D01*
G01*
X14465000Y-13481000D02*
G75*
G02*
X14535000Y-13481000I35000J0D01*
G01*
X14535000Y-13608000D02*
G75*
G02*
X14465000Y-13608000I-35000J0D01*
G01*
X14465000Y-13608000D02*
G75*
G02*
X14535000Y-13608000I35000J0D01*
G01*
X11350000Y-7190000D02*
X11350000Y-7270000D01*
X11310000Y-7230000D02*
X11390000Y-7230000D01*
X11350000Y-7690000D02*
X11350000Y-7770000D01*
X11310000Y-7730000D02*
X11390000Y-7730000D01*
X11350000Y-7910000D02*
X11350000Y-7990000D01*
X11310000Y-7950000D02*
X11390000Y-7950000D01*
X11350000Y-8410000D02*
X11350000Y-8490000D01*
X11310000Y-8450000D02*
X11390000Y-8450000D01*
X12340000Y-6987500D02*
X12340000Y-7067500D01*
X12300000Y-7027500D02*
X12380000Y-7027500D01*
X12340000Y-7241500D02*
X12340000Y-7321500D01*
X12300000Y-7281500D02*
X12380000Y-7281500D01*
X12340000Y-7495500D02*
X12340000Y-7575500D01*
X12300000Y-7535500D02*
X12380000Y-7535500D01*
X12340000Y-7749500D02*
X12340000Y-7829500D01*
X12300000Y-7789500D02*
X12380000Y-7789500D01*
X12340000Y-8003500D02*
X12340000Y-8083500D01*
X12300000Y-8043500D02*
X12380000Y-8043500D01*
X12340000Y-8257500D02*
X12340000Y-8337500D01*
X12300000Y-8297500D02*
X12380000Y-8297500D01*
X12340000Y-8511500D02*
X12340000Y-8591500D01*
X12300000Y-8551500D02*
X12380000Y-8551500D01*
X13102000Y-6987500D02*
X13102000Y-7067500D01*
X13062000Y-7027500D02*
X13142000Y-7027500D01*
X13102000Y-7241500D02*
X13102000Y-7321500D01*
X13062000Y-7281500D02*
X13142000Y-7281500D01*
X13102000Y-7495500D02*
X13102000Y-7575500D01*
X13062000Y-7535500D02*
X13142000Y-7535500D01*
X13102000Y-7749500D02*
X13102000Y-7829500D01*
X13062000Y-7789500D02*
X13142000Y-7789500D01*
X13102000Y-8003500D02*
X13102000Y-8083500D01*
X13062000Y-8043500D02*
X13142000Y-8043500D01*
X13102000Y-8257500D02*
X13102000Y-8337500D01*
X13062000Y-8297500D02*
X13142000Y-8297500D01*
X13102000Y-8511500D02*
X13102000Y-8591500D01*
X13062000Y-8551500D02*
X13142000Y-8551500D01*
X14000000Y-8720000D02*
X14000000Y-8800000D01*
X13960000Y-8760000D02*
X14040000Y-8760000D01*
X14000000Y-8974000D02*
X14000000Y-9054000D01*
X13960000Y-9014000D02*
X14040000Y-9014000D01*
X14000000Y-9228000D02*
X14000000Y-9308000D01*
X13960000Y-9268000D02*
X14040000Y-9268000D01*
X14000000Y-9482000D02*
X14000000Y-9562000D01*
X13960000Y-9522000D02*
X14040000Y-9522000D01*
X14000000Y-9736000D02*
X14000000Y-9816000D01*
X13960000Y-9776000D02*
X14040000Y-9776000D01*
X14000000Y-9990000D02*
X14000000Y-10070000D01*
X13960000Y-10030000D02*
X14040000Y-10030000D01*
X14000000Y-10244000D02*
X14000000Y-10324000D01*
X13960000Y-10284000D02*
X14040000Y-10284000D01*
X14110000Y-7170000D02*
X14110000Y-7250000D01*
X14070000Y-7210000D02*
X14150000Y-7210000D01*
X14110000Y-7670000D02*
X14110000Y-7750000D01*
X14070000Y-7710000D02*
X14150000Y-7710000D01*
X14120000Y-7910000D02*
X14120000Y-7990000D01*
X14080000Y-7950000D02*
X14160000Y-7950000D01*
X14120000Y-8410000D02*
X14120000Y-8490000D01*
X14080000Y-8450000D02*
X14160000Y-8450000D01*
X14434000Y-10735000D02*
X14434000Y-10815000D01*
X14394000Y-10775000D02*
X14474000Y-10775000D01*
X14620000Y-7170000D02*
X14620000Y-7250000D01*
X14580000Y-7210000D02*
X14660000Y-7210000D01*
X14620000Y-7670000D02*
X14620000Y-7750000D01*
X14580000Y-7710000D02*
X14660000Y-7710000D01*
X14620000Y-7910000D02*
X14620000Y-7990000D01*
X14580000Y-7950000D02*
X14660000Y-7950000D01*
X14620000Y-8410000D02*
X14620000Y-8490000D01*
X14580000Y-8450000D02*
X14660000Y-8450000D01*
X14762000Y-8720000D02*
X14762000Y-8800000D01*
X14722000Y-8760000D02*
X14802000Y-8760000D01*
X14762000Y-8974000D02*
X14762000Y-9054000D01*
X14722000Y-9014000D02*
X14802000Y-9014000D01*
X14762000Y-9228000D02*
X14762000Y-9308000D01*
X14722000Y-9268000D02*
X14802000Y-9268000D01*
X14762000Y-9482000D02*
X14762000Y-9562000D01*
X14722000Y-9522000D02*
X14802000Y-9522000D01*
X14762000Y-9736000D02*
X14762000Y-9816000D01*
X14722000Y-9776000D02*
X14802000Y-9776000D01*
X14762000Y-9990000D02*
X14762000Y-10070000D01*
X14722000Y-10030000D02*
X14802000Y-10030000D01*
X14762000Y-10244000D02*
X14762000Y-10324000D01*
X14722000Y-10284000D02*
X14802000Y-10284000D01*
X15050000Y-9277000D02*
X15050000Y-9357000D01*
X15010000Y-9317000D02*
X15090000Y-9317000D01*
X15050000Y-10293000D02*
X15050000Y-10373000D01*
X15010000Y-10333000D02*
X15090000Y-10333000D01*
X15375000Y-9277000D02*
X15375000Y-9357000D01*
X15335000Y-9317000D02*
X15415000Y-9317000D01*
X15375000Y-10293000D02*
X15375000Y-10373000D01*
X15335000Y-10333000D02*
X15415000Y-10333000D01*
X15450000Y-10735000D02*
X15450000Y-10815000D01*
X15410000Y-10775000D02*
X15490000Y-10775000D01*
X15650000Y-6974000D02*
X15650000Y-7054000D01*
X15610000Y-7014000D02*
X15690000Y-7014000D01*
X15650000Y-7228000D02*
X15650000Y-7308000D01*
X15610000Y-7268000D02*
X15690000Y-7268000D01*
X15650000Y-7482000D02*
X15650000Y-7562000D01*
X15610000Y-7522000D02*
X15690000Y-7522000D01*
X15650000Y-7736000D02*
X15650000Y-7816000D01*
X15610000Y-7776000D02*
X15690000Y-7776000D01*
X15650000Y-7990000D02*
X15650000Y-8070000D01*
X15610000Y-8030000D02*
X15690000Y-8030000D01*
X15650000Y-8244000D02*
X15650000Y-8324000D01*
X15610000Y-8284000D02*
X15690000Y-8284000D01*
X15650000Y-8498000D02*
X15650000Y-8578000D01*
X15610000Y-8538000D02*
X15690000Y-8538000D01*
X15841900Y-9272600D02*
X15841900Y-9352600D01*
X15801900Y-9312600D02*
X15881900Y-9312600D01*
X15841900Y-9772600D02*
X15841900Y-9852600D01*
X15801900Y-9812600D02*
X15881900Y-9812600D01*
X15841900Y-10000500D02*
X15841900Y-10080500D01*
X15801900Y-10040500D02*
X15881900Y-10040500D01*
X15841900Y-10500500D02*
X15841900Y-10580500D01*
X15801900Y-10540500D02*
X15881900Y-10540500D01*
X15841900Y-10729100D02*
X15841900Y-10809100D01*
X15801900Y-10769100D02*
X15881900Y-10769100D01*
X15841900Y-11229100D02*
X15841900Y-11309100D01*
X15801900Y-11269100D02*
X15881900Y-11269100D01*
X16349900Y-9272600D02*
X16349900Y-9352600D01*
X16309900Y-9312600D02*
X16389900Y-9312600D01*
X16349900Y-9772600D02*
X16349900Y-9852600D01*
X16309900Y-9812600D02*
X16389900Y-9812600D01*
X16349900Y-10000500D02*
X16349900Y-10080500D01*
X16309900Y-10040500D02*
X16389900Y-10040500D01*
X16349900Y-10500500D02*
X16349900Y-10580500D01*
X16309900Y-10540500D02*
X16389900Y-10540500D01*
X16349900Y-10733100D02*
X16349900Y-10813100D01*
X16309900Y-10773100D02*
X16389900Y-10773100D01*
X16349900Y-11233100D02*
X16349900Y-11313100D01*
X16309900Y-11273100D02*
X16389900Y-11273100D01*
X16412000Y-6974000D02*
X16412000Y-7054000D01*
X16372000Y-7014000D02*
X16452000Y-7014000D01*
X16412000Y-7228000D02*
X16412000Y-7308000D01*
X16372000Y-7268000D02*
X16452000Y-7268000D01*
X16412000Y-7482000D02*
X16412000Y-7562000D01*
X16372000Y-7522000D02*
X16452000Y-7522000D01*
X16412000Y-7736000D02*
X16412000Y-7816000D01*
X16372000Y-7776000D02*
X16452000Y-7776000D01*
X16412000Y-7990000D02*
X16412000Y-8070000D01*
X16372000Y-8030000D02*
X16452000Y-8030000D01*
X16412000Y-8244000D02*
X16412000Y-8324000D01*
X16372000Y-8284000D02*
X16452000Y-8284000D01*
X16412000Y-8498000D02*
X16412000Y-8578000D01*
X16372000Y-8538000D02*
X16452000Y-8538000D01*
X17430000Y-7200000D02*
X17430000Y-7280000D01*
X17390000Y-7240000D02*
X17470000Y-7240000D01*
X17430000Y-7700000D02*
X17430000Y-7780000D01*
X17390000Y-7740000D02*
X17470000Y-7740000D01*
X17430000Y-7920000D02*
X17430000Y-8000000D01*
X17390000Y-7960000D02*
X17470000Y-7960000D01*
X17430000Y-8420000D02*
X17430000Y-8500000D01*
X17390000Y-8460000D02*
X17470000Y-8460000D01*
X11267699Y-9009699D02*
X11267699Y-8950301D01*
X11208301Y-8950301D01*
X11208301Y-9009699D01*
X11267699Y-9009699D01*
X11521699Y-9009699D02*
X11521699Y-8950301D01*
X11462301Y-8950301D01*
X11462301Y-9009699D01*
X11521699Y-9009699D01*
X11775699Y-9009699D02*
X11775699Y-8950301D01*
X11716301Y-8950301D01*
X11716301Y-9009699D01*
X11775699Y-9009699D01*
X12029699Y-9009699D02*
X12029699Y-8950301D01*
X11970301Y-8950301D01*
X11970301Y-9009699D01*
X12029699Y-9009699D01*
X12283699Y-9009699D02*
X12283699Y-8950301D01*
X12224301Y-8950301D01*
X12224301Y-9009699D01*
X12283699Y-9009699D01*
X12537699Y-9009699D02*
X12537699Y-8950301D01*
X12478301Y-8950301D01*
X12478301Y-9009699D01*
X12537699Y-9009699D01*
X12791699Y-9009699D02*
X12791699Y-8950301D01*
X12732301Y-8950301D01*
X12732301Y-9009699D01*
X12791699Y-9009699D01*
X13045699Y-9009699D02*
X13045699Y-8950301D01*
X12986301Y-8950301D01*
X12986301Y-9009699D01*
X13045699Y-9009699D01*
X13299699Y-9009699D02*
X13299699Y-8950301D01*
X13240301Y-8950301D01*
X13240301Y-9009699D01*
X13299699Y-9009699D01*
X15569699Y-9019699D02*
X15569699Y-8960301D01*
X15510301Y-8960301D01*
X15510301Y-9019699D01*
X15569699Y-9019699D01*
X15823699Y-9019699D02*
X15823699Y-8960301D01*
X15764301Y-8960301D01*
X15764301Y-9019699D01*
X15823699Y-9019699D01*
X16077699Y-9019699D02*
X16077699Y-8960301D01*
X16018301Y-8960301D01*
X16018301Y-9019699D01*
X16077699Y-9019699D01*
X16331699Y-9019699D02*
X16331699Y-8960301D01*
X16272301Y-8960301D01*
X16272301Y-9019699D01*
X16331699Y-9019699D01*
X16585699Y-9019699D02*
X16585699Y-8960301D01*
X16526301Y-8960301D01*
X16526301Y-9019699D01*
X16585699Y-9019699D01*
X16839699Y-9019699D02*
X16839699Y-8960301D01*
X16780301Y-8960301D01*
X16780301Y-9019699D01*
X16839699Y-9019699D01*
X17093699Y-9019699D02*
X17093699Y-8960301D01*
X17034301Y-8960301D01*
X17034301Y-9019699D01*
X17093699Y-9019699D01*
X17347699Y-9019699D02*
X17347699Y-8960301D01*
X17288301Y-8960301D01*
X17288301Y-9019699D01*
X17347699Y-9019699D01*
X17601699Y-9019699D02*
X17601699Y-8960301D01*
X17542301Y-8960301D01*
X17542301Y-9019699D01*
X17601699Y-9019699D01*
X15196000Y-11220000D02*
X15241000Y-11175000D01*
X15196000Y-11130000D01*
X15151000Y-11175000D01*
X15196000Y-11220000D01*
X15450000Y-11220000D02*
X15495000Y-11175000D01*
X15450000Y-11130000D01*
X15405000Y-11175000D01*
X15450000Y-11220000D01*
X10825000Y-8221000D02*
X10925000Y-8321000D01*
X10925000Y-8221000D02*
X10825000Y-8321000D01*
X10925000Y-8271000D02*
G75*
G02*
X10825000Y-8271000I-50000J0D01*
G01*
X10825000Y-8271000D02*
G75*
G02*
X10925000Y-8271000I50000J0D01*
G01*
X10825000Y-8475000D02*
X10925000Y-8575000D01*
X10925000Y-8475000D02*
X10825000Y-8575000D01*
X10925000Y-8525000D02*
G75*
G02*
X10825000Y-8525000I-50000J0D01*
G01*
X10825000Y-8525000D02*
G75*
G02*
X10925000Y-8525000I50000J0D01*
G01*
X11250000Y-5340000D02*
X11350000Y-5440000D01*
X11350000Y-5340000D02*
X11250000Y-5440000D01*
X11350000Y-5390000D02*
G75*
G02*
X11250000Y-5390000I-50000J0D01*
G01*
X11250000Y-5390000D02*
G75*
G02*
X11350000Y-5390000I50000J0D01*
G01*
X12350000Y-5340000D02*
X12450000Y-5440000D01*
X12450000Y-5340000D02*
X12350000Y-5440000D01*
X12450000Y-5390000D02*
G75*
G02*
X12350000Y-5390000I-50000J0D01*
G01*
X12350000Y-5390000D02*
G75*
G02*
X12450000Y-5390000I50000J0D01*
G01*
X13020000Y-5330000D02*
X13120000Y-5430000D01*
X13120000Y-5330000D02*
X13020000Y-5430000D01*
X13120000Y-5380000D02*
G75*
G02*
X13020000Y-5380000I-50000J0D01*
G01*
X13020000Y-5380000D02*
G75*
G02*
X13120000Y-5380000I50000J0D01*
G01*
X14120000Y-5330000D02*
X14220000Y-5430000D01*
X14220000Y-5330000D02*
X14120000Y-5430000D01*
X14220000Y-5380000D02*
G75*
G02*
X14120000Y-5380000I-50000J0D01*
G01*
X14120000Y-5380000D02*
G75*
G02*
X14220000Y-5380000I50000J0D01*
G01*
X14570000Y-5330000D02*
X14670000Y-5430000D01*
X14670000Y-5330000D02*
X14570000Y-5430000D01*
X14670000Y-5380000D02*
G75*
G02*
X14570000Y-5380000I-50000J0D01*
G01*
X14570000Y-5380000D02*
G75*
G02*
X14670000Y-5380000I50000J0D01*
G01*
X15670000Y-5330000D02*
X15770000Y-5430000D01*
X15770000Y-5330000D02*
X15670000Y-5430000D01*
X15770000Y-5380000D02*
G75*
G02*
X15670000Y-5380000I-50000J0D01*
G01*
X15670000Y-5380000D02*
G75*
G02*
X15770000Y-5380000I50000J0D01*
G01*
X16300000Y-5330000D02*
X16400000Y-5430000D01*
X16400000Y-5330000D02*
X16300000Y-5430000D01*
X16400000Y-5380000D02*
G75*
G02*
X16300000Y-5380000I-50000J0D01*
G01*
X16300000Y-5380000D02*
G75*
G02*
X16400000Y-5380000I50000J0D01*
G01*
X17400000Y-5330000D02*
X17500000Y-5430000D01*
X17500000Y-5330000D02*
X17400000Y-5430000D01*
X17500000Y-5380000D02*
G75*
G02*
X17400000Y-5380000I-50000J0D01*
G01*
X17400000Y-5380000D02*
G75*
G02*
X17500000Y-5380000I50000J0D01*
G01*
D13*
X11807500Y-6785500D02*
X11912500Y-6890500D01*
X11912500Y-6785500D02*
X11807500Y-6890500D01*
X11860000Y-6785500D02*
X11860000Y-6890500D01*
X11807500Y-6838000D02*
X11912500Y-6838000D01*
X11807500Y-7039500D02*
X11912500Y-7144500D01*
X11912500Y-7039500D02*
X11807500Y-7144500D01*
X11860000Y-7039500D02*
X11860000Y-7144500D01*
X11807500Y-7092000D02*
X11912500Y-7092000D01*
X11807500Y-7293500D02*
X11912500Y-7398500D01*
X11912500Y-7293500D02*
X11807500Y-7398500D01*
X11860000Y-7293500D02*
X11860000Y-7398500D01*
X11807500Y-7346000D02*
X11912500Y-7346000D01*
X11807500Y-7547500D02*
X11912500Y-7652500D01*
X11912500Y-7547500D02*
X11807500Y-7652500D01*
X11860000Y-7547500D02*
X11860000Y-7652500D01*
X11807500Y-7600000D02*
X11912500Y-7600000D01*
X11807500Y-7801500D02*
X11912500Y-7906500D01*
X11912500Y-7801500D02*
X11807500Y-7906500D01*
X11860000Y-7801500D02*
X11860000Y-7906500D01*
X11807500Y-7854000D02*
X11912500Y-7854000D01*
X11807500Y-8055500D02*
X11912500Y-8160500D01*
X11912500Y-8055500D02*
X11807500Y-8160500D01*
X11860000Y-8055500D02*
X11860000Y-8160500D01*
X11807500Y-8108000D02*
X11912500Y-8108000D01*
X11807500Y-8309500D02*
X11912500Y-8414500D01*
X11912500Y-8309500D02*
X11807500Y-8414500D01*
X11860000Y-8309500D02*
X11860000Y-8414500D01*
X11807500Y-8362000D02*
X11912500Y-8362000D01*
X13527500Y-6787500D02*
X13632500Y-6892500D01*
X13632500Y-6787500D02*
X13527500Y-6892500D01*
X13580000Y-6787500D02*
X13580000Y-6892500D01*
X13527500Y-6840000D02*
X13632500Y-6840000D01*
X13527500Y-7041500D02*
X13632500Y-7146500D01*
X13632500Y-7041500D02*
X13527500Y-7146500D01*
X13580000Y-7041500D02*
X13580000Y-7146500D01*
X13527500Y-7094000D02*
X13632500Y-7094000D01*
X13527500Y-7295500D02*
X13632500Y-7400500D01*
X13632500Y-7295500D02*
X13527500Y-7400500D01*
X13580000Y-7295500D02*
X13580000Y-7400500D01*
X13527500Y-7348000D02*
X13632500Y-7348000D01*
X13527500Y-7549500D02*
X13632500Y-7654500D01*
X13632500Y-7549500D02*
X13527500Y-7654500D01*
X13580000Y-7549500D02*
X13580000Y-7654500D01*
X13527500Y-7602000D02*
X13632500Y-7602000D01*
X13527500Y-7803500D02*
X13632500Y-7908500D01*
X13632500Y-7803500D02*
X13527500Y-7908500D01*
X13580000Y-7803500D02*
X13580000Y-7908500D01*
X13527500Y-7856000D02*
X13632500Y-7856000D01*
X13527500Y-8057500D02*
X13632500Y-8162500D01*
X13632500Y-8057500D02*
X13527500Y-8162500D01*
X13580000Y-8057500D02*
X13580000Y-8162500D01*
X13527500Y-8110000D02*
X13632500Y-8110000D01*
X13527500Y-8311500D02*
X13632500Y-8416500D01*
X13632500Y-8311500D02*
X13527500Y-8416500D01*
X13580000Y-8311500D02*
X13580000Y-8416500D01*
X13527500Y-8364000D02*
X13632500Y-8364000D01*
X15117500Y-6793500D02*
X15222500Y-6898500D01*
X15222500Y-6793500D02*
X15117500Y-6898500D01*
X15170000Y-6793500D02*
X15170000Y-6898500D01*
X15117500Y-6846000D02*
X15222500Y-6846000D01*
X15117500Y-7047500D02*
X15222500Y-7152500D01*
X15222500Y-7047500D02*
X15117500Y-7152500D01*
X15170000Y-7047500D02*
X15170000Y-7152500D01*
X15117500Y-7100000D02*
X15222500Y-7100000D01*
X15117500Y-7301500D02*
X15222500Y-7406500D01*
X15222500Y-7301500D02*
X15117500Y-7406500D01*
X15170000Y-7301500D02*
X15170000Y-7406500D01*
X15117500Y-7354000D02*
X15222500Y-7354000D01*
X15117500Y-7555500D02*
X15222500Y-7660500D01*
X15222500Y-7555500D02*
X15117500Y-7660500D01*
X15170000Y-7555500D02*
X15170000Y-7660500D01*
X15117500Y-7608000D02*
X15222500Y-7608000D01*
X15117500Y-7809500D02*
X15222500Y-7914500D01*
X15222500Y-7809500D02*
X15117500Y-7914500D01*
X15170000Y-7809500D02*
X15170000Y-7914500D01*
X15117500Y-7862000D02*
X15222500Y-7862000D01*
X15117500Y-8063500D02*
X15222500Y-8168500D01*
X15222500Y-8063500D02*
X15117500Y-8168500D01*
X15170000Y-8063500D02*
X15170000Y-8168500D01*
X15117500Y-8116000D02*
X15222500Y-8116000D01*
X15117500Y-8317500D02*
X15222500Y-8422500D01*
X15222500Y-8317500D02*
X15117500Y-8422500D01*
X15170000Y-8317500D02*
X15170000Y-8422500D01*
X15117500Y-8370000D02*
X15222500Y-8370000D01*
X16857500Y-6797500D02*
X16962500Y-6902500D01*
X16962500Y-6797500D02*
X16857500Y-6902500D01*
X16910000Y-6797500D02*
X16910000Y-6902500D01*
X16857500Y-6850000D02*
X16962500Y-6850000D01*
X16857500Y-7051500D02*
X16962500Y-7156500D01*
X16962500Y-7051500D02*
X16857500Y-7156500D01*
X16910000Y-7051500D02*
X16910000Y-7156500D01*
X16857500Y-7104000D02*
X16962500Y-7104000D01*
X16857500Y-7305500D02*
X16962500Y-7410500D01*
X16962500Y-7305500D02*
X16857500Y-7410500D01*
X16910000Y-7305500D02*
X16910000Y-7410500D01*
X16857500Y-7358000D02*
X16962500Y-7358000D01*
X16857500Y-7559500D02*
X16962500Y-7664500D01*
X16962500Y-7559500D02*
X16857500Y-7664500D01*
X16910000Y-7559500D02*
X16910000Y-7664500D01*
X16857500Y-7612000D02*
X16962500Y-7612000D01*
X16857500Y-7813500D02*
X16962500Y-7918500D01*
X16962500Y-7813500D02*
X16857500Y-7918500D01*
X16910000Y-7813500D02*
X16910000Y-7918500D01*
X16857500Y-7866000D02*
X16962500Y-7866000D01*
X16857500Y-8067500D02*
X16962500Y-8172500D01*
X16962500Y-8067500D02*
X16857500Y-8172500D01*
X16910000Y-8067500D02*
X16910000Y-8172500D01*
X16857500Y-8120000D02*
X16962500Y-8120000D01*
X16857500Y-8321500D02*
X16962500Y-8426500D01*
X16962500Y-8321500D02*
X16857500Y-8426500D01*
X16910000Y-8321500D02*
X16910000Y-8426500D01*
X16857500Y-8374000D02*
X16962500Y-8374000D01*
D14*
X15095000Y-13145000D02*
X15205000Y-13255000D01*
X15205000Y-13145000D02*
X15095000Y-13255000D01*
X15188891Y-13238891D02*
X15188891Y-13161109D01*
X15111109Y-13161109D01*
X15111109Y-13238891D01*
X15188891Y-13238891D01*
X15095000Y-13795000D02*
X15205000Y-13905000D01*
X15205000Y-13795000D02*
X15095000Y-13905000D01*
X15188891Y-13888891D02*
X15188891Y-13811109D01*
X15111109Y-13811109D01*
X15111109Y-13888891D01*
X15188891Y-13888891D01*
X15096480Y-12108800D02*
X15206480Y-12218800D01*
X15206480Y-12108800D02*
X15096480Y-12218800D01*
X15190371Y-12202691D02*
X15190371Y-12124909D01*
X15112589Y-12124909D01*
X15112589Y-12202691D01*
X15190371Y-12202691D01*
X15096480Y-12758800D02*
X15206480Y-12868800D01*
X15206480Y-12758800D02*
X15096480Y-12868800D01*
X15190371Y-12852691D02*
X15190371Y-12774909D01*
X15112589Y-12774909D01*
X15112589Y-12852691D01*
X15190371Y-12852691D01*
X15545000Y-13145000D02*
X15655000Y-13255000D01*
X15655000Y-13145000D02*
X15545000Y-13255000D01*
X15638891Y-13238891D02*
X15638891Y-13161109D01*
X15561109Y-13161109D01*
X15561109Y-13238891D01*
X15638891Y-13238891D01*
X15545000Y-13795000D02*
X15655000Y-13905000D01*
X15655000Y-13795000D02*
X15545000Y-13905000D01*
X15638891Y-13888891D02*
X15638891Y-13811109D01*
X15561109Y-13811109D01*
X15561109Y-13888891D01*
X15638891Y-13888891D01*
X15546480Y-12108800D02*
X15656480Y-12218800D01*
X15656480Y-12108800D02*
X15546480Y-12218800D01*
X15640371Y-12202691D02*
X15640371Y-12124909D01*
X15562589Y-12124909D01*
X15562589Y-12202691D01*
X15640371Y-12202691D01*
X15546480Y-12758800D02*
X15656480Y-12868800D01*
X15656480Y-12758800D02*
X15546480Y-12868800D01*
X15640371Y-12852691D02*
X15640371Y-12774909D01*
X15562589Y-12774909D01*
X15562589Y-12852691D01*
X15640371Y-12852691D01*
X15905000Y-12112500D02*
X16015000Y-12222500D01*
X16015000Y-12112500D02*
X15905000Y-12222500D01*
X15998891Y-12206391D02*
X15998891Y-12128609D01*
X15921109Y-12128609D01*
X15921109Y-12206391D01*
X15998891Y-12206391D01*
X15905000Y-12762500D02*
X16015000Y-12872500D01*
X16015000Y-12762500D02*
X15905000Y-12872500D01*
X15998891Y-12856391D02*
X15998891Y-12778609D01*
X15921109Y-12778609D01*
X15921109Y-12856391D01*
X15998891Y-12856391D01*
X15905000Y-13145000D02*
X16015000Y-13255000D01*
X16015000Y-13145000D02*
X15905000Y-13255000D01*
X15998891Y-13238891D02*
X15998891Y-13161109D01*
X15921109Y-13161109D01*
X15921109Y-13238891D01*
X15998891Y-13238891D01*
X15905000Y-13795000D02*
X16015000Y-13905000D01*
X16015000Y-13795000D02*
X15905000Y-13905000D01*
X15998891Y-13888891D02*
X15998891Y-13811109D01*
X15921109Y-13811109D01*
X15921109Y-13888891D01*
X15998891Y-13888891D01*
X16355000Y-12112500D02*
X16465000Y-12222500D01*
X16465000Y-12112500D02*
X16355000Y-12222500D01*
X16448891Y-12206391D02*
X16448891Y-12128609D01*
X16371109Y-12128609D01*
X16371109Y-12206391D01*
X16448891Y-12206391D01*
X16355000Y-12762500D02*
X16465000Y-12872500D01*
X16465000Y-12762500D02*
X16355000Y-12872500D01*
X16448891Y-12856391D02*
X16448891Y-12778609D01*
X16371109Y-12778609D01*
X16371109Y-12856391D01*
X16448891Y-12856391D01*
X16355000Y-13145000D02*
X16465000Y-13255000D01*
X16465000Y-13145000D02*
X16355000Y-13255000D01*
X16448891Y-13238891D02*
X16448891Y-13161109D01*
X16371109Y-13161109D01*
X16371109Y-13238891D01*
X16448891Y-13238891D01*
X16355000Y-13795000D02*
X16465000Y-13905000D01*
X16465000Y-13795000D02*
X16355000Y-13905000D01*
X16448891Y-13888891D02*
X16448891Y-13811109D01*
X16371109Y-13811109D01*
X16371109Y-13888891D01*
X16448891Y-13888891D01*
X16717000Y-12121500D02*
X16827000Y-12231500D01*
X16827000Y-12121500D02*
X16717000Y-12231500D01*
X16810891Y-12215391D02*
X16810891Y-12137609D01*
X16733109Y-12137609D01*
X16733109Y-12215391D01*
X16810891Y-12215391D01*
X16717000Y-12771500D02*
X16827000Y-12881500D01*
X16827000Y-12771500D02*
X16717000Y-12881500D01*
X16810891Y-12865391D02*
X16810891Y-12787609D01*
X16733109Y-12787609D01*
X16733109Y-12865391D01*
X16810891Y-12865391D01*
X16717000Y-13152500D02*
X16827000Y-13262500D01*
X16827000Y-13152500D02*
X16717000Y-13262500D01*
X16810891Y-13246391D02*
X16810891Y-13168609D01*
X16733109Y-13168609D01*
X16733109Y-13246391D01*
X16810891Y-13246391D01*
X16717000Y-13802500D02*
X16827000Y-13912500D01*
X16827000Y-13802500D02*
X16717000Y-13912500D01*
X16810891Y-13896391D02*
X16810891Y-13818609D01*
X16733109Y-13818609D01*
X16733109Y-13896391D01*
X16810891Y-13896391D01*
X17167000Y-12121500D02*
X17277000Y-12231500D01*
X17277000Y-12121500D02*
X17167000Y-12231500D01*
X17260891Y-12215391D02*
X17260891Y-12137609D01*
X17183109Y-12137609D01*
X17183109Y-12215391D01*
X17260891Y-12215391D01*
X17167000Y-12771500D02*
X17277000Y-12881500D01*
X17277000Y-12771500D02*
X17167000Y-12881500D01*
X17260891Y-12865391D02*
X17260891Y-12787609D01*
X17183109Y-12787609D01*
X17183109Y-12865391D01*
X17260891Y-12865391D01*
X17167000Y-13152500D02*
X17277000Y-13262500D01*
X17277000Y-13152500D02*
X17167000Y-13262500D01*
X17260891Y-13246391D02*
X17260891Y-13168609D01*
X17183109Y-13168609D01*
X17183109Y-13246391D01*
X17260891Y-13246391D01*
X17167000Y-13802500D02*
X17277000Y-13912500D01*
X17277000Y-13802500D02*
X17167000Y-13912500D01*
X17260891Y-13896391D02*
X17260891Y-13818609D01*
X17183109Y-13818609D01*
X17183109Y-13896391D01*
X17260891Y-13896391D01*
X17517100Y-13150200D02*
X17627100Y-13260200D01*
X17627100Y-13150200D02*
X17517100Y-13260200D01*
X17610991Y-13244091D02*
X17610991Y-13166309D01*
X17533209Y-13166309D01*
X17533209Y-13244091D01*
X17610991Y-13244091D01*
X17517100Y-13800200D02*
X17627100Y-13910200D01*
X17627100Y-13800200D02*
X17517100Y-13910200D01*
X17610991Y-13894091D02*
X17610991Y-13816309D01*
X17533209Y-13816309D01*
X17533209Y-13894091D01*
X17610991Y-13894091D01*
X17529800Y-12121500D02*
X17639800Y-12231500D01*
X17639800Y-12121500D02*
X17529800Y-12231500D01*
X17623691Y-12215391D02*
X17623691Y-12137609D01*
X17545909Y-12137609D01*
X17545909Y-12215391D01*
X17623691Y-12215391D01*
X17529800Y-12771500D02*
X17639800Y-12881500D01*
X17639800Y-12771500D02*
X17529800Y-12881500D01*
X17623691Y-12865391D02*
X17623691Y-12787609D01*
X17545909Y-12787609D01*
X17545909Y-12865391D01*
X17623691Y-12865391D01*
X17967100Y-13150200D02*
X18077100Y-13260200D01*
X18077100Y-13150200D02*
X17967100Y-13260200D01*
X18060991Y-13244091D02*
X18060991Y-13166309D01*
X17983209Y-13166309D01*
X17983209Y-13244091D01*
X18060991Y-13244091D01*
X17967100Y-13800200D02*
X18077100Y-13910200D01*
X18077100Y-13800200D02*
X17967100Y-13910200D01*
X18060991Y-13894091D02*
X18060991Y-13816309D01*
X17983209Y-13816309D01*
X17983209Y-13894091D01*
X18060991Y-13894091D01*
X17979800Y-12121500D02*
X18089800Y-12231500D01*
X18089800Y-12121500D02*
X17979800Y-12231500D01*
X18073691Y-12215391D02*
X18073691Y-12137609D01*
X17995909Y-12137609D01*
X17995909Y-12215391D01*
X18073691Y-12215391D01*
X17979800Y-12771500D02*
X18089800Y-12881500D01*
X18089800Y-12771500D02*
X17979800Y-12881500D01*
X18073691Y-12865391D02*
X18073691Y-12787609D01*
X17995909Y-12787609D01*
X17995909Y-12865391D01*
X18073691Y-12865391D01*
D15*
X16836000Y-9385000D02*
X16956000Y-9505000D01*
X16956000Y-9385000D02*
X16836000Y-9505000D01*
X16896000Y-9505000D02*
X16956000Y-9445000D01*
X16896000Y-9385000D01*
X16836000Y-9445000D01*
X16896000Y-9505000D01*
X17090000Y-9385000D02*
X17210000Y-9505000D01*
X17210000Y-9385000D02*
X17090000Y-9505000D01*
X17150000Y-9505000D02*
X17210000Y-9445000D01*
X17150000Y-9385000D01*
X17090000Y-9445000D01*
X17150000Y-9505000D01*
X17344000Y-9385000D02*
X17464000Y-9505000D01*
X17464000Y-9385000D02*
X17344000Y-9505000D01*
X17404000Y-9505000D02*
X17464000Y-9445000D01*
X17404000Y-9385000D01*
X17344000Y-9445000D01*
X17404000Y-9505000D01*
D16*
X11600000Y-6305000D02*
X11600000Y-6475000D01*
X11515000Y-6390000D02*
X11685000Y-6390000D01*
X11685000Y-6390000D02*
G75*
G02*
X11515000Y-6390000I-85000J0D01*
G01*
X11515000Y-6390000D02*
G75*
G02*
X11685000Y-6390000I85000J0D01*
G01*
X12100000Y-6305000D02*
X12100000Y-6475000D01*
X12015000Y-6390000D02*
X12185000Y-6390000D01*
X12185000Y-6390000D02*
G75*
G02*
X12015000Y-6390000I-85000J0D01*
G01*
X12015000Y-6390000D02*
G75*
G02*
X12185000Y-6390000I85000J0D01*
G01*
X13370000Y-6295000D02*
X13370000Y-6465000D01*
X13285000Y-6380000D02*
X13455000Y-6380000D01*
X13455000Y-6380000D02*
G75*
G02*
X13285000Y-6380000I-85000J0D01*
G01*
X13285000Y-6380000D02*
G75*
G02*
X13455000Y-6380000I85000J0D01*
G01*
X13870000Y-6295000D02*
X13870000Y-6465000D01*
X13785000Y-6380000D02*
X13955000Y-6380000D01*
X13955000Y-6380000D02*
G75*
G02*
X13785000Y-6380000I-85000J0D01*
G01*
X13785000Y-6380000D02*
G75*
G02*
X13955000Y-6380000I85000J0D01*
G01*
X14920000Y-6295000D02*
X14920000Y-6465000D01*
X14835000Y-6380000D02*
X15005000Y-6380000D01*
X15005000Y-6380000D02*
G75*
G02*
X14835000Y-6380000I-85000J0D01*
G01*
X14835000Y-6380000D02*
G75*
G02*
X15005000Y-6380000I85000J0D01*
G01*
X15420000Y-6295000D02*
X15420000Y-6465000D01*
X15335000Y-6380000D02*
X15505000Y-6380000D01*
X15505000Y-6380000D02*
G75*
G02*
X15335000Y-6380000I-85000J0D01*
G01*
X15335000Y-6380000D02*
G75*
G02*
X15505000Y-6380000I85000J0D01*
G01*
X16650000Y-6295000D02*
X16650000Y-6465000D01*
X16565000Y-6380000D02*
X16735000Y-6380000D01*
X16735000Y-6380000D02*
G75*
G02*
X16565000Y-6380000I-85000J0D01*
G01*
X16565000Y-6380000D02*
G75*
G02*
X16735000Y-6380000I85000J0D01*
G01*
X17150000Y-6295000D02*
X17150000Y-6465000D01*
X17065000Y-6380000D02*
X17235000Y-6380000D01*
X17235000Y-6380000D02*
G75*
G02*
X17065000Y-6380000I-85000J0D01*
G01*
X17065000Y-6380000D02*
G75*
G02*
X17235000Y-6380000I85000J0D01*
G01*
D12*
X17995711Y-9045711D02*
X17995711Y-8904289D01*
X17854289Y-8904289D01*
X17854289Y-9045711D01*
X17995711Y-9045711D01*
X18025000Y-8975000D02*
G75*
G02*
X17825000Y-8975000I-100000J0D01*
G01*
X17825000Y-8975000D02*
G75*
G02*
X18025000Y-8975000I100000J0D01*
G01*
X17995711Y-9553711D02*
X17995711Y-9412289D01*
X17854289Y-9412289D01*
X17854289Y-9553711D01*
X17995711Y-9553711D01*
X18025000Y-9483000D02*
G75*
G02*
X17825000Y-9483000I-100000J0D01*
G01*
X17825000Y-9483000D02*
G75*
G02*
X18025000Y-9483000I100000J0D01*
G01*
X17995711Y-10345711D02*
X17995711Y-10204289D01*
X17854289Y-10204289D01*
X17854289Y-10345711D01*
X17995711Y-10345711D01*
X18025000Y-10275000D02*
G75*
G02*
X17825000Y-10275000I-100000J0D01*
G01*
X17825000Y-10275000D02*
G75*
G02*
X18025000Y-10275000I100000J0D01*
G01*
X17995711Y-10853711D02*
X17995711Y-10712289D01*
X17854289Y-10712289D01*
X17854289Y-10853711D01*
X17995711Y-10853711D01*
X18025000Y-10783000D02*
G75*
G02*
X17825000Y-10783000I-100000J0D01*
G01*
X17825000Y-10783000D02*
G75*
G02*
X18025000Y-10783000I100000J0D01*
G01*
X17995711Y-11295711D02*
X17995711Y-11154289D01*
X17854289Y-11154289D01*
X17854289Y-11295711D01*
X17995711Y-11295711D01*
X18025000Y-11225000D02*
G75*
G02*
X17825000Y-11225000I-100000J0D01*
G01*
X17825000Y-11225000D02*
G75*
G02*
X18025000Y-11225000I100000J0D01*
G01*
X17995711Y-11803711D02*
X17995711Y-11662289D01*
X17854289Y-11662289D01*
X17854289Y-11803711D01*
X17995711Y-11803711D01*
X18025000Y-11733000D02*
G75*
G02*
X17825000Y-11733000I-100000J0D01*
G01*
X17825000Y-11733000D02*
G75*
G02*
X18025000Y-11733000I100000J0D01*
G01*
X10555777Y-15216484D02*
X10555777Y-15016484D01*
X10555777Y-15016484D02*
X10603396Y-15016484D01*
X10603396Y-15016484D02*
X10631967Y-15026008D01*
X10631967Y-15026008D02*
X10651015Y-15045055D01*
X10651015Y-15045055D02*
X10660539Y-15064103D01*
X10660539Y-15064103D02*
X10670063Y-15102198D01*
X10670063Y-15102198D02*
X10670063Y-15130769D01*
X10670063Y-15130769D02*
X10660539Y-15168865D01*
X10660539Y-15168865D02*
X10651015Y-15187912D01*
X10651015Y-15187912D02*
X10631967Y-15206960D01*
X10631967Y-15206960D02*
X10603396Y-15216484D01*
X10603396Y-15216484D02*
X10555777Y-15216484D01*
X10755777Y-15216484D02*
X10755777Y-15083150D01*
X10755777Y-15121246D02*
X10765301Y-15102198D01*
X10765301Y-15102198D02*
X10774824Y-15092674D01*
X10774824Y-15092674D02*
X10793872Y-15083150D01*
X10793872Y-15083150D02*
X10812920Y-15083150D01*
X10879586Y-15216484D02*
X10879586Y-15083150D01*
X10879586Y-15016484D02*
X10870063Y-15026008D01*
X10870063Y-15026008D02*
X10879586Y-15035531D01*
X10879586Y-15035531D02*
X10889110Y-15026008D01*
X10889110Y-15026008D02*
X10879586Y-15016484D01*
X10879586Y-15016484D02*
X10879586Y-15035531D01*
X11003396Y-15216484D02*
X10984348Y-15206960D01*
X10984348Y-15206960D02*
X10974824Y-15187912D01*
X10974824Y-15187912D02*
X10974824Y-15016484D01*
X11108158Y-15216484D02*
X11089110Y-15206960D01*
X11089110Y-15206960D02*
X11079586Y-15187912D01*
X11079586Y-15187912D02*
X11079586Y-15016484D01*
X11336729Y-15216484D02*
X11336729Y-15016484D01*
X11336729Y-15016484D02*
X11403396Y-15159341D01*
X11403396Y-15159341D02*
X11470062Y-15016484D01*
X11470062Y-15016484D02*
X11470062Y-15216484D01*
X11651015Y-15216484D02*
X11651015Y-15111722D01*
X11651015Y-15111722D02*
X11641491Y-15092674D01*
X11641491Y-15092674D02*
X11622443Y-15083150D01*
X11622443Y-15083150D02*
X11584348Y-15083150D01*
X11584348Y-15083150D02*
X11565301Y-15092674D01*
X11651015Y-15206960D02*
X11631967Y-15216484D01*
X11631967Y-15216484D02*
X11584348Y-15216484D01*
X11584348Y-15216484D02*
X11565301Y-15206960D01*
X11565301Y-15206960D02*
X11555777Y-15187912D01*
X11555777Y-15187912D02*
X11555777Y-15168865D01*
X11555777Y-15168865D02*
X11565301Y-15149817D01*
X11565301Y-15149817D02*
X11584348Y-15140293D01*
X11584348Y-15140293D02*
X11631967Y-15140293D01*
X11631967Y-15140293D02*
X11651015Y-15130769D01*
X11746253Y-15083150D02*
X11746253Y-15283150D01*
X11746253Y-15092674D02*
X11765301Y-15083150D01*
X11765301Y-15083150D02*
X11803396Y-15083150D01*
X11803396Y-15083150D02*
X11822443Y-15092674D01*
X11822443Y-15092674D02*
X11831967Y-15102198D01*
X11831967Y-15102198D02*
X11841491Y-15121246D01*
X11841491Y-15121246D02*
X11841491Y-15178388D01*
X11841491Y-15178388D02*
X11831967Y-15197436D01*
X11831967Y-15197436D02*
X11822443Y-15206960D01*
X11822443Y-15206960D02*
X11803396Y-15216484D01*
X11803396Y-15216484D02*
X11765301Y-15216484D01*
X11765301Y-15216484D02*
X11746253Y-15206960D01*
X11927205Y-15197436D02*
X11936729Y-15206960D01*
X11936729Y-15206960D02*
X11927205Y-15216484D01*
X11927205Y-15216484D02*
X11917682Y-15206960D01*
X11917682Y-15206960D02*
X11927205Y-15197436D01*
X11927205Y-15197436D02*
X11927205Y-15216484D01*
X11927205Y-15092674D02*
X11936729Y-15102198D01*
X11936729Y-15102198D02*
X11927205Y-15111722D01*
X11927205Y-15111722D02*
X11917682Y-15102198D01*
X11917682Y-15102198D02*
X11927205Y-15092674D01*
X11927205Y-15092674D02*
X11927205Y-15111722D01*
D10*
X10255000Y-15525000D02*
X10295000Y-15565000D01*
X10295000Y-15525000D02*
X10255000Y-15565000D01*
D12*
X10593872Y-15436484D02*
X10612920Y-15436484D01*
X10612920Y-15436484D02*
X10631967Y-15446008D01*
X10631967Y-15446008D02*
X10641491Y-15455531D01*
X10641491Y-15455531D02*
X10651015Y-15474579D01*
X10651015Y-15474579D02*
X10660539Y-15512674D01*
X10660539Y-15512674D02*
X10660539Y-15560293D01*
X10660539Y-15560293D02*
X10651015Y-15598388D01*
X10651015Y-15598388D02*
X10641491Y-15617436D01*
X10641491Y-15617436D02*
X10631967Y-15626960D01*
X10631967Y-15626960D02*
X10612920Y-15636484D01*
X10612920Y-15636484D02*
X10593872Y-15636484D01*
X10593872Y-15636484D02*
X10574824Y-15626960D01*
X10574824Y-15626960D02*
X10565301Y-15617436D01*
X10565301Y-15617436D02*
X10555777Y-15598388D01*
X10555777Y-15598388D02*
X10546253Y-15560293D01*
X10546253Y-15560293D02*
X10546253Y-15512674D01*
X10546253Y-15512674D02*
X10555777Y-15474579D01*
X10555777Y-15474579D02*
X10565301Y-15455531D01*
X10565301Y-15455531D02*
X10574824Y-15446008D01*
X10574824Y-15446008D02*
X10593872Y-15436484D01*
X10746253Y-15617436D02*
X10755777Y-15626960D01*
X10755777Y-15626960D02*
X10746253Y-15636484D01*
X10746253Y-15636484D02*
X10736729Y-15626960D01*
X10736729Y-15626960D02*
X10746253Y-15617436D01*
X10746253Y-15617436D02*
X10746253Y-15636484D01*
X10927205Y-15503150D02*
X10927205Y-15636484D01*
X10879586Y-15426960D02*
X10831967Y-15569817D01*
X10831967Y-15569817D02*
X10955777Y-15569817D01*
X11070063Y-15436484D02*
X11089110Y-15436484D01*
X11089110Y-15436484D02*
X11108158Y-15446008D01*
X11108158Y-15446008D02*
X11117682Y-15455531D01*
X11117682Y-15455531D02*
X11127205Y-15474579D01*
X11127205Y-15474579D02*
X11136729Y-15512674D01*
X11136729Y-15512674D02*
X11136729Y-15560293D01*
X11136729Y-15560293D02*
X11127205Y-15598388D01*
X11127205Y-15598388D02*
X11117682Y-15617436D01*
X11117682Y-15617436D02*
X11108158Y-15626960D01*
X11108158Y-15626960D02*
X11089110Y-15636484D01*
X11089110Y-15636484D02*
X11070063Y-15636484D01*
X11070063Y-15636484D02*
X11051015Y-15626960D01*
X11051015Y-15626960D02*
X11041491Y-15617436D01*
X11041491Y-15617436D02*
X11031967Y-15598388D01*
X11031967Y-15598388D02*
X11022444Y-15560293D01*
X11022444Y-15560293D02*
X11022444Y-15512674D01*
X11022444Y-15512674D02*
X11031967Y-15474579D01*
X11031967Y-15474579D02*
X11041491Y-15455531D01*
X11041491Y-15455531D02*
X11051015Y-15446008D01*
X11051015Y-15446008D02*
X11070063Y-15436484D01*
X11260539Y-15436484D02*
X11279586Y-15436484D01*
X11279586Y-15436484D02*
X11298634Y-15446008D01*
X11298634Y-15446008D02*
X11308158Y-15455531D01*
X11308158Y-15455531D02*
X11317682Y-15474579D01*
X11317682Y-15474579D02*
X11327205Y-15512674D01*
X11327205Y-15512674D02*
X11327205Y-15560293D01*
X11327205Y-15560293D02*
X11317682Y-15598388D01*
X11317682Y-15598388D02*
X11308158Y-15617436D01*
X11308158Y-15617436D02*
X11298634Y-15626960D01*
X11298634Y-15626960D02*
X11279586Y-15636484D01*
X11279586Y-15636484D02*
X11260539Y-15636484D01*
X11260539Y-15636484D02*
X11241491Y-15626960D01*
X11241491Y-15626960D02*
X11231967Y-15617436D01*
X11231967Y-15617436D02*
X11222443Y-15598388D01*
X11222443Y-15598388D02*
X11212920Y-15560293D01*
X11212920Y-15560293D02*
X11212920Y-15512674D01*
X11212920Y-15512674D02*
X11222443Y-15474579D01*
X11222443Y-15474579D02*
X11231967Y-15455531D01*
X11231967Y-15455531D02*
X11241491Y-15446008D01*
X11241491Y-15446008D02*
X11260539Y-15436484D01*
X11412920Y-15636484D02*
X11412920Y-15503150D01*
X11412920Y-15522198D02*
X11422443Y-15512674D01*
X11422443Y-15512674D02*
X11441491Y-15503150D01*
X11441491Y-15503150D02*
X11470063Y-15503150D01*
X11470063Y-15503150D02*
X11489110Y-15512674D01*
X11489110Y-15512674D02*
X11498634Y-15531722D01*
X11498634Y-15531722D02*
X11498634Y-15636484D01*
X11498634Y-15531722D02*
X11508158Y-15512674D01*
X11508158Y-15512674D02*
X11527205Y-15503150D01*
X11527205Y-15503150D02*
X11555777Y-15503150D01*
X11555777Y-15503150D02*
X11574824Y-15512674D01*
X11574824Y-15512674D02*
X11584348Y-15531722D01*
X11584348Y-15531722D02*
X11584348Y-15636484D01*
X11679586Y-15636484D02*
X11679586Y-15503150D01*
X11679586Y-15522198D02*
X11689110Y-15512674D01*
X11689110Y-15512674D02*
X11708158Y-15503150D01*
X11708158Y-15503150D02*
X11736729Y-15503150D01*
X11736729Y-15503150D02*
X11755777Y-15512674D01*
X11755777Y-15512674D02*
X11765301Y-15531722D01*
X11765301Y-15531722D02*
X11765301Y-15636484D01*
X11765301Y-15531722D02*
X11774824Y-15512674D01*
X11774824Y-15512674D02*
X11793872Y-15503150D01*
X11793872Y-15503150D02*
X11822443Y-15503150D01*
X11822443Y-15503150D02*
X11841491Y-15512674D01*
X11841491Y-15512674D02*
X11851015Y-15531722D01*
X11851015Y-15531722D02*
X11851015Y-15636484D01*
X12241491Y-15426960D02*
X12070063Y-15684103D01*
X12498634Y-15436484D02*
X12517682Y-15436484D01*
X12517682Y-15436484D02*
X12536729Y-15446008D01*
X12536729Y-15446008D02*
X12546253Y-15455531D01*
X12546253Y-15455531D02*
X12555777Y-15474579D01*
X12555777Y-15474579D02*
X12565301Y-15512674D01*
X12565301Y-15512674D02*
X12565301Y-15560293D01*
X12565301Y-15560293D02*
X12555777Y-15598388D01*
X12555777Y-15598388D02*
X12546253Y-15617436D01*
X12546253Y-15617436D02*
X12536729Y-15626960D01*
X12536729Y-15626960D02*
X12517682Y-15636484D01*
X12517682Y-15636484D02*
X12498634Y-15636484D01*
X12498634Y-15636484D02*
X12479586Y-15626960D01*
X12479586Y-15626960D02*
X12470063Y-15617436D01*
X12470063Y-15617436D02*
X12460539Y-15598388D01*
X12460539Y-15598388D02*
X12451015Y-15560293D01*
X12451015Y-15560293D02*
X12451015Y-15512674D01*
X12451015Y-15512674D02*
X12460539Y-15474579D01*
X12460539Y-15474579D02*
X12470063Y-15455531D01*
X12470063Y-15455531D02*
X12479586Y-15446008D01*
X12479586Y-15446008D02*
X12498634Y-15436484D01*
X12651015Y-15617436D02*
X12660539Y-15626960D01*
X12660539Y-15626960D02*
X12651015Y-15636484D01*
X12651015Y-15636484D02*
X12641491Y-15626960D01*
X12641491Y-15626960D02*
X12651015Y-15617436D01*
X12651015Y-15617436D02*
X12651015Y-15636484D01*
X12784348Y-15436484D02*
X12803396Y-15436484D01*
X12803396Y-15436484D02*
X12822444Y-15446008D01*
X12822444Y-15446008D02*
X12831967Y-15455531D01*
X12831967Y-15455531D02*
X12841491Y-15474579D01*
X12841491Y-15474579D02*
X12851015Y-15512674D01*
X12851015Y-15512674D02*
X12851015Y-15560293D01*
X12851015Y-15560293D02*
X12841491Y-15598388D01*
X12841491Y-15598388D02*
X12831967Y-15617436D01*
X12831967Y-15617436D02*
X12822444Y-15626960D01*
X12822444Y-15626960D02*
X12803396Y-15636484D01*
X12803396Y-15636484D02*
X12784348Y-15636484D01*
X12784348Y-15636484D02*
X12765301Y-15626960D01*
X12765301Y-15626960D02*
X12755777Y-15617436D01*
X12755777Y-15617436D02*
X12746253Y-15598388D01*
X12746253Y-15598388D02*
X12736729Y-15560293D01*
X12736729Y-15560293D02*
X12736729Y-15512674D01*
X12736729Y-15512674D02*
X12746253Y-15474579D01*
X12746253Y-15474579D02*
X12755777Y-15455531D01*
X12755777Y-15455531D02*
X12765301Y-15446008D01*
X12765301Y-15446008D02*
X12784348Y-15436484D01*
X13041491Y-15636484D02*
X12927206Y-15636484D01*
X12984348Y-15636484D02*
X12984348Y-15436484D01*
X12984348Y-15436484D02*
X12965301Y-15465055D01*
X12965301Y-15465055D02*
X12946253Y-15484103D01*
X12946253Y-15484103D02*
X12927206Y-15493627D01*
X13222444Y-15436484D02*
X13127206Y-15436484D01*
X13127206Y-15436484D02*
X13117682Y-15531722D01*
X13117682Y-15531722D02*
X13127206Y-15522198D01*
X13127206Y-15522198D02*
X13146253Y-15512674D01*
X13146253Y-15512674D02*
X13193872Y-15512674D01*
X13193872Y-15512674D02*
X13212920Y-15522198D01*
X13212920Y-15522198D02*
X13222444Y-15531722D01*
X13222444Y-15531722D02*
X13231967Y-15550769D01*
X13231967Y-15550769D02*
X13231967Y-15598388D01*
X13231967Y-15598388D02*
X13222444Y-15617436D01*
X13222444Y-15617436D02*
X13212920Y-15626960D01*
X13212920Y-15626960D02*
X13193872Y-15636484D01*
X13193872Y-15636484D02*
X13146253Y-15636484D01*
X13146253Y-15636484D02*
X13127206Y-15626960D01*
X13127206Y-15626960D02*
X13117682Y-15617436D01*
X13298634Y-15436484D02*
X13431967Y-15436484D01*
X13431967Y-15436484D02*
X13346253Y-15636484D01*
X13498634Y-15436484D02*
X13498634Y-15474579D01*
X13574825Y-15436484D02*
X13574825Y-15474579D01*
X13870063Y-15712674D02*
X13860539Y-15703150D01*
X13860539Y-15703150D02*
X13841491Y-15674579D01*
X13841491Y-15674579D02*
X13831968Y-15655531D01*
X13831968Y-15655531D02*
X13822444Y-15626960D01*
X13822444Y-15626960D02*
X13812920Y-15579341D01*
X13812920Y-15579341D02*
X13812920Y-15541246D01*
X13812920Y-15541246D02*
X13822444Y-15493627D01*
X13822444Y-15493627D02*
X13831968Y-15465055D01*
X13831968Y-15465055D02*
X13841491Y-15446008D01*
X13841491Y-15446008D02*
X13860539Y-15417436D01*
X13860539Y-15417436D02*
X13870063Y-15407912D01*
X14031968Y-15503150D02*
X14031968Y-15636484D01*
X13984348Y-15426960D02*
X13936729Y-15569817D01*
X13936729Y-15569817D02*
X14060539Y-15569817D01*
X14231968Y-15436484D02*
X14136729Y-15436484D01*
X14136729Y-15436484D02*
X14127206Y-15531722D01*
X14127206Y-15531722D02*
X14136729Y-15522198D01*
X14136729Y-15522198D02*
X14155777Y-15512674D01*
X14155777Y-15512674D02*
X14203396Y-15512674D01*
X14203396Y-15512674D02*
X14222444Y-15522198D01*
X14222444Y-15522198D02*
X14231968Y-15531722D01*
X14231968Y-15531722D02*
X14241491Y-15550769D01*
X14241491Y-15550769D02*
X14241491Y-15598388D01*
X14241491Y-15598388D02*
X14231968Y-15617436D01*
X14231968Y-15617436D02*
X14222444Y-15626960D01*
X14222444Y-15626960D02*
X14203396Y-15636484D01*
X14203396Y-15636484D02*
X14155777Y-15636484D01*
X14155777Y-15636484D02*
X14136729Y-15626960D01*
X14136729Y-15626960D02*
X14127206Y-15617436D01*
X14479587Y-15636484D02*
X14479587Y-15436484D01*
X14565301Y-15636484D02*
X14565301Y-15531722D01*
X14565301Y-15531722D02*
X14555777Y-15512674D01*
X14555777Y-15512674D02*
X14536730Y-15503150D01*
X14536730Y-15503150D02*
X14508158Y-15503150D01*
X14508158Y-15503150D02*
X14489110Y-15512674D01*
X14489110Y-15512674D02*
X14479587Y-15522198D01*
X14689110Y-15636484D02*
X14670063Y-15626960D01*
X14670063Y-15626960D02*
X14660539Y-15617436D01*
X14660539Y-15617436D02*
X14651015Y-15598388D01*
X14651015Y-15598388D02*
X14651015Y-15541246D01*
X14651015Y-15541246D02*
X14660539Y-15522198D01*
X14660539Y-15522198D02*
X14670063Y-15512674D01*
X14670063Y-15512674D02*
X14689110Y-15503150D01*
X14689110Y-15503150D02*
X14717682Y-15503150D01*
X14717682Y-15503150D02*
X14736730Y-15512674D01*
X14736730Y-15512674D02*
X14746253Y-15522198D01*
X14746253Y-15522198D02*
X14755777Y-15541246D01*
X14755777Y-15541246D02*
X14755777Y-15598388D01*
X14755777Y-15598388D02*
X14746253Y-15617436D01*
X14746253Y-15617436D02*
X14736730Y-15626960D01*
X14736730Y-15626960D02*
X14717682Y-15636484D01*
X14717682Y-15636484D02*
X14689110Y-15636484D01*
X14870063Y-15636484D02*
X14851015Y-15626960D01*
X14851015Y-15626960D02*
X14841491Y-15607912D01*
X14841491Y-15607912D02*
X14841491Y-15436484D01*
X15022444Y-15626960D02*
X15003396Y-15636484D01*
X15003396Y-15636484D02*
X14965301Y-15636484D01*
X14965301Y-15636484D02*
X14946253Y-15626960D01*
X14946253Y-15626960D02*
X14936730Y-15607912D01*
X14936730Y-15607912D02*
X14936730Y-15531722D01*
X14936730Y-15531722D02*
X14946253Y-15512674D01*
X14946253Y-15512674D02*
X14965301Y-15503150D01*
X14965301Y-15503150D02*
X15003396Y-15503150D01*
X15003396Y-15503150D02*
X15022444Y-15512674D01*
X15022444Y-15512674D02*
X15031968Y-15531722D01*
X15031968Y-15531722D02*
X15031968Y-15550769D01*
X15031968Y-15550769D02*
X14936730Y-15569817D01*
X15108158Y-15626960D02*
X15127206Y-15636484D01*
X15127206Y-15636484D02*
X15165301Y-15636484D01*
X15165301Y-15636484D02*
X15184349Y-15626960D01*
X15184349Y-15626960D02*
X15193872Y-15607912D01*
X15193872Y-15607912D02*
X15193872Y-15598388D01*
X15193872Y-15598388D02*
X15184349Y-15579341D01*
X15184349Y-15579341D02*
X15165301Y-15569817D01*
X15165301Y-15569817D02*
X15136730Y-15569817D01*
X15136730Y-15569817D02*
X15117682Y-15560293D01*
X15117682Y-15560293D02*
X15108158Y-15541246D01*
X15108158Y-15541246D02*
X15108158Y-15531722D01*
X15108158Y-15531722D02*
X15117682Y-15512674D01*
X15117682Y-15512674D02*
X15136730Y-15503150D01*
X15136730Y-15503150D02*
X15165301Y-15503150D01*
X15165301Y-15503150D02*
X15184349Y-15512674D01*
X15260539Y-15712674D02*
X15270063Y-15703150D01*
X15270063Y-15703150D02*
X15289111Y-15674579D01*
X15289111Y-15674579D02*
X15298634Y-15655531D01*
X15298634Y-15655531D02*
X15308158Y-15626960D01*
X15308158Y-15626960D02*
X15317682Y-15579341D01*
X15317682Y-15579341D02*
X15317682Y-15541246D01*
X15317682Y-15541246D02*
X15308158Y-15493627D01*
X15308158Y-15493627D02*
X15298634Y-15465055D01*
X15298634Y-15465055D02*
X15289111Y-15446008D01*
X15289111Y-15446008D02*
X15270063Y-15417436D01*
X15270063Y-15417436D02*
X15260539Y-15407912D01*
D10*
X10295000Y-15809000D02*
G75*
G02*
X10225000Y-15809000I-35000J0D01*
G01*
X10225000Y-15809000D02*
G75*
G02*
X10295000Y-15809000I35000J0D01*
G01*
D12*
X10593872Y-15700484D02*
X10612920Y-15700484D01*
X10612920Y-15700484D02*
X10631967Y-15710008D01*
X10631967Y-15710008D02*
X10641491Y-15719531D01*
X10641491Y-15719531D02*
X10651015Y-15738579D01*
X10651015Y-15738579D02*
X10660539Y-15776674D01*
X10660539Y-15776674D02*
X10660539Y-15824293D01*
X10660539Y-15824293D02*
X10651015Y-15862388D01*
X10651015Y-15862388D02*
X10641491Y-15881436D01*
X10641491Y-15881436D02*
X10631967Y-15890960D01*
X10631967Y-15890960D02*
X10612920Y-15900484D01*
X10612920Y-15900484D02*
X10593872Y-15900484D01*
X10593872Y-15900484D02*
X10574824Y-15890960D01*
X10574824Y-15890960D02*
X10565301Y-15881436D01*
X10565301Y-15881436D02*
X10555777Y-15862388D01*
X10555777Y-15862388D02*
X10546253Y-15824293D01*
X10546253Y-15824293D02*
X10546253Y-15776674D01*
X10546253Y-15776674D02*
X10555777Y-15738579D01*
X10555777Y-15738579D02*
X10565301Y-15719531D01*
X10565301Y-15719531D02*
X10574824Y-15710008D01*
X10574824Y-15710008D02*
X10593872Y-15700484D01*
X10746253Y-15881436D02*
X10755777Y-15890960D01*
X10755777Y-15890960D02*
X10746253Y-15900484D01*
X10746253Y-15900484D02*
X10736729Y-15890960D01*
X10736729Y-15890960D02*
X10746253Y-15881436D01*
X10746253Y-15881436D02*
X10746253Y-15900484D01*
X10822444Y-15700484D02*
X10955777Y-15700484D01*
X10955777Y-15700484D02*
X10870063Y-15900484D01*
X11070063Y-15700484D02*
X11089110Y-15700484D01*
X11089110Y-15700484D02*
X11108158Y-15710008D01*
X11108158Y-15710008D02*
X11117682Y-15719531D01*
X11117682Y-15719531D02*
X11127205Y-15738579D01*
X11127205Y-15738579D02*
X11136729Y-15776674D01*
X11136729Y-15776674D02*
X11136729Y-15824293D01*
X11136729Y-15824293D02*
X11127205Y-15862388D01*
X11127205Y-15862388D02*
X11117682Y-15881436D01*
X11117682Y-15881436D02*
X11108158Y-15890960D01*
X11108158Y-15890960D02*
X11089110Y-15900484D01*
X11089110Y-15900484D02*
X11070063Y-15900484D01*
X11070063Y-15900484D02*
X11051015Y-15890960D01*
X11051015Y-15890960D02*
X11041491Y-15881436D01*
X11041491Y-15881436D02*
X11031967Y-15862388D01*
X11031967Y-15862388D02*
X11022444Y-15824293D01*
X11022444Y-15824293D02*
X11022444Y-15776674D01*
X11022444Y-15776674D02*
X11031967Y-15738579D01*
X11031967Y-15738579D02*
X11041491Y-15719531D01*
X11041491Y-15719531D02*
X11051015Y-15710008D01*
X11051015Y-15710008D02*
X11070063Y-15700484D01*
X11260539Y-15700484D02*
X11279586Y-15700484D01*
X11279586Y-15700484D02*
X11298634Y-15710008D01*
X11298634Y-15710008D02*
X11308158Y-15719531D01*
X11308158Y-15719531D02*
X11317682Y-15738579D01*
X11317682Y-15738579D02*
X11327205Y-15776674D01*
X11327205Y-15776674D02*
X11327205Y-15824293D01*
X11327205Y-15824293D02*
X11317682Y-15862388D01*
X11317682Y-15862388D02*
X11308158Y-15881436D01*
X11308158Y-15881436D02*
X11298634Y-15890960D01*
X11298634Y-15890960D02*
X11279586Y-15900484D01*
X11279586Y-15900484D02*
X11260539Y-15900484D01*
X11260539Y-15900484D02*
X11241491Y-15890960D01*
X11241491Y-15890960D02*
X11231967Y-15881436D01*
X11231967Y-15881436D02*
X11222443Y-15862388D01*
X11222443Y-15862388D02*
X11212920Y-15824293D01*
X11212920Y-15824293D02*
X11212920Y-15776674D01*
X11212920Y-15776674D02*
X11222443Y-15738579D01*
X11222443Y-15738579D02*
X11231967Y-15719531D01*
X11231967Y-15719531D02*
X11241491Y-15710008D01*
X11241491Y-15710008D02*
X11260539Y-15700484D01*
X11412920Y-15900484D02*
X11412920Y-15767150D01*
X11412920Y-15786198D02*
X11422443Y-15776674D01*
X11422443Y-15776674D02*
X11441491Y-15767150D01*
X11441491Y-15767150D02*
X11470063Y-15767150D01*
X11470063Y-15767150D02*
X11489110Y-15776674D01*
X11489110Y-15776674D02*
X11498634Y-15795722D01*
X11498634Y-15795722D02*
X11498634Y-15900484D01*
X11498634Y-15795722D02*
X11508158Y-15776674D01*
X11508158Y-15776674D02*
X11527205Y-15767150D01*
X11527205Y-15767150D02*
X11555777Y-15767150D01*
X11555777Y-15767150D02*
X11574824Y-15776674D01*
X11574824Y-15776674D02*
X11584348Y-15795722D01*
X11584348Y-15795722D02*
X11584348Y-15900484D01*
X11679586Y-15900484D02*
X11679586Y-15767150D01*
X11679586Y-15786198D02*
X11689110Y-15776674D01*
X11689110Y-15776674D02*
X11708158Y-15767150D01*
X11708158Y-15767150D02*
X11736729Y-15767150D01*
X11736729Y-15767150D02*
X11755777Y-15776674D01*
X11755777Y-15776674D02*
X11765301Y-15795722D01*
X11765301Y-15795722D02*
X11765301Y-15900484D01*
X11765301Y-15795722D02*
X11774824Y-15776674D01*
X11774824Y-15776674D02*
X11793872Y-15767150D01*
X11793872Y-15767150D02*
X11822443Y-15767150D01*
X11822443Y-15767150D02*
X11841491Y-15776674D01*
X11841491Y-15776674D02*
X11851015Y-15795722D01*
X11851015Y-15795722D02*
X11851015Y-15900484D01*
X12241491Y-15690960D02*
X12070063Y-15948103D01*
X12498634Y-15700484D02*
X12517682Y-15700484D01*
X12517682Y-15700484D02*
X12536729Y-15710008D01*
X12536729Y-15710008D02*
X12546253Y-15719531D01*
X12546253Y-15719531D02*
X12555777Y-15738579D01*
X12555777Y-15738579D02*
X12565301Y-15776674D01*
X12565301Y-15776674D02*
X12565301Y-15824293D01*
X12565301Y-15824293D02*
X12555777Y-15862388D01*
X12555777Y-15862388D02*
X12546253Y-15881436D01*
X12546253Y-15881436D02*
X12536729Y-15890960D01*
X12536729Y-15890960D02*
X12517682Y-15900484D01*
X12517682Y-15900484D02*
X12498634Y-15900484D01*
X12498634Y-15900484D02*
X12479586Y-15890960D01*
X12479586Y-15890960D02*
X12470063Y-15881436D01*
X12470063Y-15881436D02*
X12460539Y-15862388D01*
X12460539Y-15862388D02*
X12451015Y-15824293D01*
X12451015Y-15824293D02*
X12451015Y-15776674D01*
X12451015Y-15776674D02*
X12460539Y-15738579D01*
X12460539Y-15738579D02*
X12470063Y-15719531D01*
X12470063Y-15719531D02*
X12479586Y-15710008D01*
X12479586Y-15710008D02*
X12498634Y-15700484D01*
X12651015Y-15881436D02*
X12660539Y-15890960D01*
X12660539Y-15890960D02*
X12651015Y-15900484D01*
X12651015Y-15900484D02*
X12641491Y-15890960D01*
X12641491Y-15890960D02*
X12651015Y-15881436D01*
X12651015Y-15881436D02*
X12651015Y-15900484D01*
X12784348Y-15700484D02*
X12803396Y-15700484D01*
X12803396Y-15700484D02*
X12822444Y-15710008D01*
X12822444Y-15710008D02*
X12831967Y-15719531D01*
X12831967Y-15719531D02*
X12841491Y-15738579D01*
X12841491Y-15738579D02*
X12851015Y-15776674D01*
X12851015Y-15776674D02*
X12851015Y-15824293D01*
X12851015Y-15824293D02*
X12841491Y-15862388D01*
X12841491Y-15862388D02*
X12831967Y-15881436D01*
X12831967Y-15881436D02*
X12822444Y-15890960D01*
X12822444Y-15890960D02*
X12803396Y-15900484D01*
X12803396Y-15900484D02*
X12784348Y-15900484D01*
X12784348Y-15900484D02*
X12765301Y-15890960D01*
X12765301Y-15890960D02*
X12755777Y-15881436D01*
X12755777Y-15881436D02*
X12746253Y-15862388D01*
X12746253Y-15862388D02*
X12736729Y-15824293D01*
X12736729Y-15824293D02*
X12736729Y-15776674D01*
X12736729Y-15776674D02*
X12746253Y-15738579D01*
X12746253Y-15738579D02*
X12755777Y-15719531D01*
X12755777Y-15719531D02*
X12765301Y-15710008D01*
X12765301Y-15710008D02*
X12784348Y-15700484D01*
X12927206Y-15719531D02*
X12936729Y-15710008D01*
X12936729Y-15710008D02*
X12955777Y-15700484D01*
X12955777Y-15700484D02*
X13003396Y-15700484D01*
X13003396Y-15700484D02*
X13022444Y-15710008D01*
X13022444Y-15710008D02*
X13031967Y-15719531D01*
X13031967Y-15719531D02*
X13041491Y-15738579D01*
X13041491Y-15738579D02*
X13041491Y-15757627D01*
X13041491Y-15757627D02*
X13031967Y-15786198D01*
X13031967Y-15786198D02*
X12917682Y-15900484D01*
X12917682Y-15900484D02*
X13041491Y-15900484D01*
X13108158Y-15700484D02*
X13241491Y-15700484D01*
X13241491Y-15700484D02*
X13155777Y-15900484D01*
X13403396Y-15700484D02*
X13365301Y-15700484D01*
X13365301Y-15700484D02*
X13346253Y-15710008D01*
X13346253Y-15710008D02*
X13336729Y-15719531D01*
X13336729Y-15719531D02*
X13317682Y-15748103D01*
X13317682Y-15748103D02*
X13308158Y-15786198D01*
X13308158Y-15786198D02*
X13308158Y-15862388D01*
X13308158Y-15862388D02*
X13317682Y-15881436D01*
X13317682Y-15881436D02*
X13327206Y-15890960D01*
X13327206Y-15890960D02*
X13346253Y-15900484D01*
X13346253Y-15900484D02*
X13384348Y-15900484D01*
X13384348Y-15900484D02*
X13403396Y-15890960D01*
X13403396Y-15890960D02*
X13412920Y-15881436D01*
X13412920Y-15881436D02*
X13422444Y-15862388D01*
X13422444Y-15862388D02*
X13422444Y-15814769D01*
X13422444Y-15814769D02*
X13412920Y-15795722D01*
X13412920Y-15795722D02*
X13403396Y-15786198D01*
X13403396Y-15786198D02*
X13384348Y-15776674D01*
X13384348Y-15776674D02*
X13346253Y-15776674D01*
X13346253Y-15776674D02*
X13327206Y-15786198D01*
X13327206Y-15786198D02*
X13317682Y-15795722D01*
X13317682Y-15795722D02*
X13308158Y-15814769D01*
X13498634Y-15700484D02*
X13498634Y-15738579D01*
X13574825Y-15700484D02*
X13574825Y-15738579D01*
X13870063Y-15976674D02*
X13860539Y-15967150D01*
X13860539Y-15967150D02*
X13841491Y-15938579D01*
X13841491Y-15938579D02*
X13831968Y-15919531D01*
X13831968Y-15919531D02*
X13822444Y-15890960D01*
X13822444Y-15890960D02*
X13812920Y-15843341D01*
X13812920Y-15843341D02*
X13812920Y-15805246D01*
X13812920Y-15805246D02*
X13822444Y-15757627D01*
X13822444Y-15757627D02*
X13831968Y-15729055D01*
X13831968Y-15729055D02*
X13841491Y-15710008D01*
X13841491Y-15710008D02*
X13860539Y-15681436D01*
X13860539Y-15681436D02*
X13870063Y-15671912D01*
X13936729Y-15719531D02*
X13946253Y-15710008D01*
X13946253Y-15710008D02*
X13965301Y-15700484D01*
X13965301Y-15700484D02*
X14012920Y-15700484D01*
X14012920Y-15700484D02*
X14031968Y-15710008D01*
X14031968Y-15710008D02*
X14041491Y-15719531D01*
X14041491Y-15719531D02*
X14051015Y-15738579D01*
X14051015Y-15738579D02*
X14051015Y-15757627D01*
X14051015Y-15757627D02*
X14041491Y-15786198D01*
X14041491Y-15786198D02*
X13927206Y-15900484D01*
X13927206Y-15900484D02*
X14051015Y-15900484D01*
X14222444Y-15700484D02*
X14184348Y-15700484D01*
X14184348Y-15700484D02*
X14165301Y-15710008D01*
X14165301Y-15710008D02*
X14155777Y-15719531D01*
X14155777Y-15719531D02*
X14136729Y-15748103D01*
X14136729Y-15748103D02*
X14127206Y-15786198D01*
X14127206Y-15786198D02*
X14127206Y-15862388D01*
X14127206Y-15862388D02*
X14136729Y-15881436D01*
X14136729Y-15881436D02*
X14146253Y-15890960D01*
X14146253Y-15890960D02*
X14165301Y-15900484D01*
X14165301Y-15900484D02*
X14203396Y-15900484D01*
X14203396Y-15900484D02*
X14222444Y-15890960D01*
X14222444Y-15890960D02*
X14231968Y-15881436D01*
X14231968Y-15881436D02*
X14241491Y-15862388D01*
X14241491Y-15862388D02*
X14241491Y-15814769D01*
X14241491Y-15814769D02*
X14231968Y-15795722D01*
X14231968Y-15795722D02*
X14222444Y-15786198D01*
X14222444Y-15786198D02*
X14203396Y-15776674D01*
X14203396Y-15776674D02*
X14165301Y-15776674D01*
X14165301Y-15776674D02*
X14146253Y-15786198D01*
X14146253Y-15786198D02*
X14136729Y-15795722D01*
X14136729Y-15795722D02*
X14127206Y-15814769D01*
X14479587Y-15900484D02*
X14479587Y-15700484D01*
X14565301Y-15900484D02*
X14565301Y-15795722D01*
X14565301Y-15795722D02*
X14555777Y-15776674D01*
X14555777Y-15776674D02*
X14536730Y-15767150D01*
X14536730Y-15767150D02*
X14508158Y-15767150D01*
X14508158Y-15767150D02*
X14489110Y-15776674D01*
X14489110Y-15776674D02*
X14479587Y-15786198D01*
X14689110Y-15900484D02*
X14670063Y-15890960D01*
X14670063Y-15890960D02*
X14660539Y-15881436D01*
X14660539Y-15881436D02*
X14651015Y-15862388D01*
X14651015Y-15862388D02*
X14651015Y-15805246D01*
X14651015Y-15805246D02*
X14660539Y-15786198D01*
X14660539Y-15786198D02*
X14670063Y-15776674D01*
X14670063Y-15776674D02*
X14689110Y-15767150D01*
X14689110Y-15767150D02*
X14717682Y-15767150D01*
X14717682Y-15767150D02*
X14736730Y-15776674D01*
X14736730Y-15776674D02*
X14746253Y-15786198D01*
X14746253Y-15786198D02*
X14755777Y-15805246D01*
X14755777Y-15805246D02*
X14755777Y-15862388D01*
X14755777Y-15862388D02*
X14746253Y-15881436D01*
X14746253Y-15881436D02*
X14736730Y-15890960D01*
X14736730Y-15890960D02*
X14717682Y-15900484D01*
X14717682Y-15900484D02*
X14689110Y-15900484D01*
X14870063Y-15900484D02*
X14851015Y-15890960D01*
X14851015Y-15890960D02*
X14841491Y-15871912D01*
X14841491Y-15871912D02*
X14841491Y-15700484D01*
X15022444Y-15890960D02*
X15003396Y-15900484D01*
X15003396Y-15900484D02*
X14965301Y-15900484D01*
X14965301Y-15900484D02*
X14946253Y-15890960D01*
X14946253Y-15890960D02*
X14936730Y-15871912D01*
X14936730Y-15871912D02*
X14936730Y-15795722D01*
X14936730Y-15795722D02*
X14946253Y-15776674D01*
X14946253Y-15776674D02*
X14965301Y-15767150D01*
X14965301Y-15767150D02*
X15003396Y-15767150D01*
X15003396Y-15767150D02*
X15022444Y-15776674D01*
X15022444Y-15776674D02*
X15031968Y-15795722D01*
X15031968Y-15795722D02*
X15031968Y-15814769D01*
X15031968Y-15814769D02*
X14936730Y-15833817D01*
X15108158Y-15890960D02*
X15127206Y-15900484D01*
X15127206Y-15900484D02*
X15165301Y-15900484D01*
X15165301Y-15900484D02*
X15184349Y-15890960D01*
X15184349Y-15890960D02*
X15193872Y-15871912D01*
X15193872Y-15871912D02*
X15193872Y-15862388D01*
X15193872Y-15862388D02*
X15184349Y-15843341D01*
X15184349Y-15843341D02*
X15165301Y-15833817D01*
X15165301Y-15833817D02*
X15136730Y-15833817D01*
X15136730Y-15833817D02*
X15117682Y-15824293D01*
X15117682Y-15824293D02*
X15108158Y-15805246D01*
X15108158Y-15805246D02*
X15108158Y-15795722D01*
X15108158Y-15795722D02*
X15117682Y-15776674D01*
X15117682Y-15776674D02*
X15136730Y-15767150D01*
X15136730Y-15767150D02*
X15165301Y-15767150D01*
X15165301Y-15767150D02*
X15184349Y-15776674D01*
X15260539Y-15976674D02*
X15270063Y-15967150D01*
X15270063Y-15967150D02*
X15289111Y-15938579D01*
X15289111Y-15938579D02*
X15298634Y-15919531D01*
X15298634Y-15919531D02*
X15308158Y-15890960D01*
X15308158Y-15890960D02*
X15317682Y-15843341D01*
X15317682Y-15843341D02*
X15317682Y-15805246D01*
X15317682Y-15805246D02*
X15308158Y-15757627D01*
X15308158Y-15757627D02*
X15298634Y-15729055D01*
X15298634Y-15729055D02*
X15289111Y-15710008D01*
X15289111Y-15710008D02*
X15270063Y-15681436D01*
X15270063Y-15681436D02*
X15260539Y-15671912D01*
D10*
X10255000Y-16033000D02*
X10255000Y-16113000D01*
X10215000Y-16073000D02*
X10295000Y-16073000D01*
D12*
X10593872Y-15964484D02*
X10612920Y-15964484D01*
X10612920Y-15964484D02*
X10631967Y-15974008D01*
X10631967Y-15974008D02*
X10641491Y-15983531D01*
X10641491Y-15983531D02*
X10651015Y-16002579D01*
X10651015Y-16002579D02*
X10660539Y-16040674D01*
X10660539Y-16040674D02*
X10660539Y-16088293D01*
X10660539Y-16088293D02*
X10651015Y-16126388D01*
X10651015Y-16126388D02*
X10641491Y-16145436D01*
X10641491Y-16145436D02*
X10631967Y-16154960D01*
X10631967Y-16154960D02*
X10612920Y-16164484D01*
X10612920Y-16164484D02*
X10593872Y-16164484D01*
X10593872Y-16164484D02*
X10574824Y-16154960D01*
X10574824Y-16154960D02*
X10565301Y-16145436D01*
X10565301Y-16145436D02*
X10555777Y-16126388D01*
X10555777Y-16126388D02*
X10546253Y-16088293D01*
X10546253Y-16088293D02*
X10546253Y-16040674D01*
X10546253Y-16040674D02*
X10555777Y-16002579D01*
X10555777Y-16002579D02*
X10565301Y-15983531D01*
X10565301Y-15983531D02*
X10574824Y-15974008D01*
X10574824Y-15974008D02*
X10593872Y-15964484D01*
X10746253Y-16145436D02*
X10755777Y-16154960D01*
X10755777Y-16154960D02*
X10746253Y-16164484D01*
X10746253Y-16164484D02*
X10736729Y-16154960D01*
X10736729Y-16154960D02*
X10746253Y-16145436D01*
X10746253Y-16145436D02*
X10746253Y-16164484D01*
X10870063Y-16050198D02*
X10851015Y-16040674D01*
X10851015Y-16040674D02*
X10841491Y-16031150D01*
X10841491Y-16031150D02*
X10831967Y-16012103D01*
X10831967Y-16012103D02*
X10831967Y-16002579D01*
X10831967Y-16002579D02*
X10841491Y-15983531D01*
X10841491Y-15983531D02*
X10851015Y-15974008D01*
X10851015Y-15974008D02*
X10870063Y-15964484D01*
X10870063Y-15964484D02*
X10908158Y-15964484D01*
X10908158Y-15964484D02*
X10927205Y-15974008D01*
X10927205Y-15974008D02*
X10936729Y-15983531D01*
X10936729Y-15983531D02*
X10946253Y-16002579D01*
X10946253Y-16002579D02*
X10946253Y-16012103D01*
X10946253Y-16012103D02*
X10936729Y-16031150D01*
X10936729Y-16031150D02*
X10927205Y-16040674D01*
X10927205Y-16040674D02*
X10908158Y-16050198D01*
X10908158Y-16050198D02*
X10870063Y-16050198D01*
X10870063Y-16050198D02*
X10851015Y-16059722D01*
X10851015Y-16059722D02*
X10841491Y-16069246D01*
X10841491Y-16069246D02*
X10831967Y-16088293D01*
X10831967Y-16088293D02*
X10831967Y-16126388D01*
X10831967Y-16126388D02*
X10841491Y-16145436D01*
X10841491Y-16145436D02*
X10851015Y-16154960D01*
X10851015Y-16154960D02*
X10870063Y-16164484D01*
X10870063Y-16164484D02*
X10908158Y-16164484D01*
X10908158Y-16164484D02*
X10927205Y-16154960D01*
X10927205Y-16154960D02*
X10936729Y-16145436D01*
X10936729Y-16145436D02*
X10946253Y-16126388D01*
X10946253Y-16126388D02*
X10946253Y-16088293D01*
X10946253Y-16088293D02*
X10936729Y-16069246D01*
X10936729Y-16069246D02*
X10927205Y-16059722D01*
X10927205Y-16059722D02*
X10908158Y-16050198D01*
X11070063Y-15964484D02*
X11089110Y-15964484D01*
X11089110Y-15964484D02*
X11108158Y-15974008D01*
X11108158Y-15974008D02*
X11117682Y-15983531D01*
X11117682Y-15983531D02*
X11127205Y-16002579D01*
X11127205Y-16002579D02*
X11136729Y-16040674D01*
X11136729Y-16040674D02*
X11136729Y-16088293D01*
X11136729Y-16088293D02*
X11127205Y-16126388D01*
X11127205Y-16126388D02*
X11117682Y-16145436D01*
X11117682Y-16145436D02*
X11108158Y-16154960D01*
X11108158Y-16154960D02*
X11089110Y-16164484D01*
X11089110Y-16164484D02*
X11070063Y-16164484D01*
X11070063Y-16164484D02*
X11051015Y-16154960D01*
X11051015Y-16154960D02*
X11041491Y-16145436D01*
X11041491Y-16145436D02*
X11031967Y-16126388D01*
X11031967Y-16126388D02*
X11022444Y-16088293D01*
X11022444Y-16088293D02*
X11022444Y-16040674D01*
X11022444Y-16040674D02*
X11031967Y-16002579D01*
X11031967Y-16002579D02*
X11041491Y-15983531D01*
X11041491Y-15983531D02*
X11051015Y-15974008D01*
X11051015Y-15974008D02*
X11070063Y-15964484D01*
X11260539Y-15964484D02*
X11279586Y-15964484D01*
X11279586Y-15964484D02*
X11298634Y-15974008D01*
X11298634Y-15974008D02*
X11308158Y-15983531D01*
X11308158Y-15983531D02*
X11317682Y-16002579D01*
X11317682Y-16002579D02*
X11327205Y-16040674D01*
X11327205Y-16040674D02*
X11327205Y-16088293D01*
X11327205Y-16088293D02*
X11317682Y-16126388D01*
X11317682Y-16126388D02*
X11308158Y-16145436D01*
X11308158Y-16145436D02*
X11298634Y-16154960D01*
X11298634Y-16154960D02*
X11279586Y-16164484D01*
X11279586Y-16164484D02*
X11260539Y-16164484D01*
X11260539Y-16164484D02*
X11241491Y-16154960D01*
X11241491Y-16154960D02*
X11231967Y-16145436D01*
X11231967Y-16145436D02*
X11222443Y-16126388D01*
X11222443Y-16126388D02*
X11212920Y-16088293D01*
X11212920Y-16088293D02*
X11212920Y-16040674D01*
X11212920Y-16040674D02*
X11222443Y-16002579D01*
X11222443Y-16002579D02*
X11231967Y-15983531D01*
X11231967Y-15983531D02*
X11241491Y-15974008D01*
X11241491Y-15974008D02*
X11260539Y-15964484D01*
X11412920Y-16164484D02*
X11412920Y-16031150D01*
X11412920Y-16050198D02*
X11422443Y-16040674D01*
X11422443Y-16040674D02*
X11441491Y-16031150D01*
X11441491Y-16031150D02*
X11470063Y-16031150D01*
X11470063Y-16031150D02*
X11489110Y-16040674D01*
X11489110Y-16040674D02*
X11498634Y-16059722D01*
X11498634Y-16059722D02*
X11498634Y-16164484D01*
X11498634Y-16059722D02*
X11508158Y-16040674D01*
X11508158Y-16040674D02*
X11527205Y-16031150D01*
X11527205Y-16031150D02*
X11555777Y-16031150D01*
X11555777Y-16031150D02*
X11574824Y-16040674D01*
X11574824Y-16040674D02*
X11584348Y-16059722D01*
X11584348Y-16059722D02*
X11584348Y-16164484D01*
X11679586Y-16164484D02*
X11679586Y-16031150D01*
X11679586Y-16050198D02*
X11689110Y-16040674D01*
X11689110Y-16040674D02*
X11708158Y-16031150D01*
X11708158Y-16031150D02*
X11736729Y-16031150D01*
X11736729Y-16031150D02*
X11755777Y-16040674D01*
X11755777Y-16040674D02*
X11765301Y-16059722D01*
X11765301Y-16059722D02*
X11765301Y-16164484D01*
X11765301Y-16059722D02*
X11774824Y-16040674D01*
X11774824Y-16040674D02*
X11793872Y-16031150D01*
X11793872Y-16031150D02*
X11822443Y-16031150D01*
X11822443Y-16031150D02*
X11841491Y-16040674D01*
X11841491Y-16040674D02*
X11851015Y-16059722D01*
X11851015Y-16059722D02*
X11851015Y-16164484D01*
X12241491Y-15954960D02*
X12070063Y-16212103D01*
X12498634Y-15964484D02*
X12517682Y-15964484D01*
X12517682Y-15964484D02*
X12536729Y-15974008D01*
X12536729Y-15974008D02*
X12546253Y-15983531D01*
X12546253Y-15983531D02*
X12555777Y-16002579D01*
X12555777Y-16002579D02*
X12565301Y-16040674D01*
X12565301Y-16040674D02*
X12565301Y-16088293D01*
X12565301Y-16088293D02*
X12555777Y-16126388D01*
X12555777Y-16126388D02*
X12546253Y-16145436D01*
X12546253Y-16145436D02*
X12536729Y-16154960D01*
X12536729Y-16154960D02*
X12517682Y-16164484D01*
X12517682Y-16164484D02*
X12498634Y-16164484D01*
X12498634Y-16164484D02*
X12479586Y-16154960D01*
X12479586Y-16154960D02*
X12470063Y-16145436D01*
X12470063Y-16145436D02*
X12460539Y-16126388D01*
X12460539Y-16126388D02*
X12451015Y-16088293D01*
X12451015Y-16088293D02*
X12451015Y-16040674D01*
X12451015Y-16040674D02*
X12460539Y-16002579D01*
X12460539Y-16002579D02*
X12470063Y-15983531D01*
X12470063Y-15983531D02*
X12479586Y-15974008D01*
X12479586Y-15974008D02*
X12498634Y-15964484D01*
X12651015Y-16145436D02*
X12660539Y-16154960D01*
X12660539Y-16154960D02*
X12651015Y-16164484D01*
X12651015Y-16164484D02*
X12641491Y-16154960D01*
X12641491Y-16154960D02*
X12651015Y-16145436D01*
X12651015Y-16145436D02*
X12651015Y-16164484D01*
X12784348Y-15964484D02*
X12803396Y-15964484D01*
X12803396Y-15964484D02*
X12822444Y-15974008D01*
X12822444Y-15974008D02*
X12831967Y-15983531D01*
X12831967Y-15983531D02*
X12841491Y-16002579D01*
X12841491Y-16002579D02*
X12851015Y-16040674D01*
X12851015Y-16040674D02*
X12851015Y-16088293D01*
X12851015Y-16088293D02*
X12841491Y-16126388D01*
X12841491Y-16126388D02*
X12831967Y-16145436D01*
X12831967Y-16145436D02*
X12822444Y-16154960D01*
X12822444Y-16154960D02*
X12803396Y-16164484D01*
X12803396Y-16164484D02*
X12784348Y-16164484D01*
X12784348Y-16164484D02*
X12765301Y-16154960D01*
X12765301Y-16154960D02*
X12755777Y-16145436D01*
X12755777Y-16145436D02*
X12746253Y-16126388D01*
X12746253Y-16126388D02*
X12736729Y-16088293D01*
X12736729Y-16088293D02*
X12736729Y-16040674D01*
X12736729Y-16040674D02*
X12746253Y-16002579D01*
X12746253Y-16002579D02*
X12755777Y-15983531D01*
X12755777Y-15983531D02*
X12765301Y-15974008D01*
X12765301Y-15974008D02*
X12784348Y-15964484D01*
X12917682Y-15964484D02*
X13041491Y-15964484D01*
X13041491Y-15964484D02*
X12974825Y-16040674D01*
X12974825Y-16040674D02*
X13003396Y-16040674D01*
X13003396Y-16040674D02*
X13022444Y-16050198D01*
X13022444Y-16050198D02*
X13031967Y-16059722D01*
X13031967Y-16059722D02*
X13041491Y-16078769D01*
X13041491Y-16078769D02*
X13041491Y-16126388D01*
X13041491Y-16126388D02*
X13031967Y-16145436D01*
X13031967Y-16145436D02*
X13022444Y-16154960D01*
X13022444Y-16154960D02*
X13003396Y-16164484D01*
X13003396Y-16164484D02*
X12946253Y-16164484D01*
X12946253Y-16164484D02*
X12927206Y-16154960D01*
X12927206Y-16154960D02*
X12917682Y-16145436D01*
X13231967Y-16164484D02*
X13117682Y-16164484D01*
X13174825Y-16164484D02*
X13174825Y-15964484D01*
X13174825Y-15964484D02*
X13155777Y-15993055D01*
X13155777Y-15993055D02*
X13136729Y-16012103D01*
X13136729Y-16012103D02*
X13117682Y-16021627D01*
X13412920Y-15964484D02*
X13317682Y-15964484D01*
X13317682Y-15964484D02*
X13308158Y-16059722D01*
X13308158Y-16059722D02*
X13317682Y-16050198D01*
X13317682Y-16050198D02*
X13336729Y-16040674D01*
X13336729Y-16040674D02*
X13384348Y-16040674D01*
X13384348Y-16040674D02*
X13403396Y-16050198D01*
X13403396Y-16050198D02*
X13412920Y-16059722D01*
X13412920Y-16059722D02*
X13422444Y-16078769D01*
X13422444Y-16078769D02*
X13422444Y-16126388D01*
X13422444Y-16126388D02*
X13412920Y-16145436D01*
X13412920Y-16145436D02*
X13403396Y-16154960D01*
X13403396Y-16154960D02*
X13384348Y-16164484D01*
X13384348Y-16164484D02*
X13336729Y-16164484D01*
X13336729Y-16164484D02*
X13317682Y-16154960D01*
X13317682Y-16154960D02*
X13308158Y-16145436D01*
X13498634Y-15964484D02*
X13498634Y-16002579D01*
X13574825Y-15964484D02*
X13574825Y-16002579D01*
X13870063Y-16240674D02*
X13860539Y-16231150D01*
X13860539Y-16231150D02*
X13841491Y-16202579D01*
X13841491Y-16202579D02*
X13831968Y-16183531D01*
X13831968Y-16183531D02*
X13822444Y-16154960D01*
X13822444Y-16154960D02*
X13812920Y-16107341D01*
X13812920Y-16107341D02*
X13812920Y-16069246D01*
X13812920Y-16069246D02*
X13822444Y-16021627D01*
X13822444Y-16021627D02*
X13831968Y-15993055D01*
X13831968Y-15993055D02*
X13841491Y-15974008D01*
X13841491Y-15974008D02*
X13860539Y-15945436D01*
X13860539Y-15945436D02*
X13870063Y-15935912D01*
X13927206Y-15964484D02*
X14060539Y-15964484D01*
X14060539Y-15964484D02*
X13974825Y-16164484D01*
X14222444Y-15964484D02*
X14184348Y-15964484D01*
X14184348Y-15964484D02*
X14165301Y-15974008D01*
X14165301Y-15974008D02*
X14155777Y-15983531D01*
X14155777Y-15983531D02*
X14136729Y-16012103D01*
X14136729Y-16012103D02*
X14127206Y-16050198D01*
X14127206Y-16050198D02*
X14127206Y-16126388D01*
X14127206Y-16126388D02*
X14136729Y-16145436D01*
X14136729Y-16145436D02*
X14146253Y-16154960D01*
X14146253Y-16154960D02*
X14165301Y-16164484D01*
X14165301Y-16164484D02*
X14203396Y-16164484D01*
X14203396Y-16164484D02*
X14222444Y-16154960D01*
X14222444Y-16154960D02*
X14231968Y-16145436D01*
X14231968Y-16145436D02*
X14241491Y-16126388D01*
X14241491Y-16126388D02*
X14241491Y-16078769D01*
X14241491Y-16078769D02*
X14231968Y-16059722D01*
X14231968Y-16059722D02*
X14222444Y-16050198D01*
X14222444Y-16050198D02*
X14203396Y-16040674D01*
X14203396Y-16040674D02*
X14165301Y-16040674D01*
X14165301Y-16040674D02*
X14146253Y-16050198D01*
X14146253Y-16050198D02*
X14136729Y-16059722D01*
X14136729Y-16059722D02*
X14127206Y-16078769D01*
X14479587Y-16164484D02*
X14479587Y-15964484D01*
X14565301Y-16164484D02*
X14565301Y-16059722D01*
X14565301Y-16059722D02*
X14555777Y-16040674D01*
X14555777Y-16040674D02*
X14536730Y-16031150D01*
X14536730Y-16031150D02*
X14508158Y-16031150D01*
X14508158Y-16031150D02*
X14489110Y-16040674D01*
X14489110Y-16040674D02*
X14479587Y-16050198D01*
X14689110Y-16164484D02*
X14670063Y-16154960D01*
X14670063Y-16154960D02*
X14660539Y-16145436D01*
X14660539Y-16145436D02*
X14651015Y-16126388D01*
X14651015Y-16126388D02*
X14651015Y-16069246D01*
X14651015Y-16069246D02*
X14660539Y-16050198D01*
X14660539Y-16050198D02*
X14670063Y-16040674D01*
X14670063Y-16040674D02*
X14689110Y-16031150D01*
X14689110Y-16031150D02*
X14717682Y-16031150D01*
X14717682Y-16031150D02*
X14736730Y-16040674D01*
X14736730Y-16040674D02*
X14746253Y-16050198D01*
X14746253Y-16050198D02*
X14755777Y-16069246D01*
X14755777Y-16069246D02*
X14755777Y-16126388D01*
X14755777Y-16126388D02*
X14746253Y-16145436D01*
X14746253Y-16145436D02*
X14736730Y-16154960D01*
X14736730Y-16154960D02*
X14717682Y-16164484D01*
X14717682Y-16164484D02*
X14689110Y-16164484D01*
X14870063Y-16164484D02*
X14851015Y-16154960D01*
X14851015Y-16154960D02*
X14841491Y-16135912D01*
X14841491Y-16135912D02*
X14841491Y-15964484D01*
X15022444Y-16154960D02*
X15003396Y-16164484D01*
X15003396Y-16164484D02*
X14965301Y-16164484D01*
X14965301Y-16164484D02*
X14946253Y-16154960D01*
X14946253Y-16154960D02*
X14936730Y-16135912D01*
X14936730Y-16135912D02*
X14936730Y-16059722D01*
X14936730Y-16059722D02*
X14946253Y-16040674D01*
X14946253Y-16040674D02*
X14965301Y-16031150D01*
X14965301Y-16031150D02*
X15003396Y-16031150D01*
X15003396Y-16031150D02*
X15022444Y-16040674D01*
X15022444Y-16040674D02*
X15031968Y-16059722D01*
X15031968Y-16059722D02*
X15031968Y-16078769D01*
X15031968Y-16078769D02*
X14936730Y-16097817D01*
X15108158Y-16154960D02*
X15127206Y-16164484D01*
X15127206Y-16164484D02*
X15165301Y-16164484D01*
X15165301Y-16164484D02*
X15184349Y-16154960D01*
X15184349Y-16154960D02*
X15193872Y-16135912D01*
X15193872Y-16135912D02*
X15193872Y-16126388D01*
X15193872Y-16126388D02*
X15184349Y-16107341D01*
X15184349Y-16107341D02*
X15165301Y-16097817D01*
X15165301Y-16097817D02*
X15136730Y-16097817D01*
X15136730Y-16097817D02*
X15117682Y-16088293D01*
X15117682Y-16088293D02*
X15108158Y-16069246D01*
X15108158Y-16069246D02*
X15108158Y-16059722D01*
X15108158Y-16059722D02*
X15117682Y-16040674D01*
X15117682Y-16040674D02*
X15136730Y-16031150D01*
X15136730Y-16031150D02*
X15165301Y-16031150D01*
X15165301Y-16031150D02*
X15184349Y-16040674D01*
X15260539Y-16240674D02*
X15270063Y-16231150D01*
X15270063Y-16231150D02*
X15289111Y-16202579D01*
X15289111Y-16202579D02*
X15298634Y-16183531D01*
X15298634Y-16183531D02*
X15308158Y-16154960D01*
X15308158Y-16154960D02*
X15317682Y-16107341D01*
X15317682Y-16107341D02*
X15317682Y-16069246D01*
X15317682Y-16069246D02*
X15308158Y-16021627D01*
X15308158Y-16021627D02*
X15298634Y-15993055D01*
X15298634Y-15993055D02*
X15289111Y-15974008D01*
X15289111Y-15974008D02*
X15270063Y-15945436D01*
X15270063Y-15945436D02*
X15260539Y-15935912D01*
D10*
X10282699Y-16366699D02*
X10282699Y-16307301D01*
X10223301Y-16307301D01*
X10223301Y-16366699D01*
X10282699Y-16366699D01*
D12*
X10593872Y-16228484D02*
X10612920Y-16228484D01*
X10612920Y-16228484D02*
X10631967Y-16238008D01*
X10631967Y-16238008D02*
X10641491Y-16247531D01*
X10641491Y-16247531D02*
X10651015Y-16266579D01*
X10651015Y-16266579D02*
X10660539Y-16304674D01*
X10660539Y-16304674D02*
X10660539Y-16352293D01*
X10660539Y-16352293D02*
X10651015Y-16390388D01*
X10651015Y-16390388D02*
X10641491Y-16409436D01*
X10641491Y-16409436D02*
X10631967Y-16418960D01*
X10631967Y-16418960D02*
X10612920Y-16428484D01*
X10612920Y-16428484D02*
X10593872Y-16428484D01*
X10593872Y-16428484D02*
X10574824Y-16418960D01*
X10574824Y-16418960D02*
X10565301Y-16409436D01*
X10565301Y-16409436D02*
X10555777Y-16390388D01*
X10555777Y-16390388D02*
X10546253Y-16352293D01*
X10546253Y-16352293D02*
X10546253Y-16304674D01*
X10546253Y-16304674D02*
X10555777Y-16266579D01*
X10555777Y-16266579D02*
X10565301Y-16247531D01*
X10565301Y-16247531D02*
X10574824Y-16238008D01*
X10574824Y-16238008D02*
X10593872Y-16228484D01*
X10746253Y-16409436D02*
X10755777Y-16418960D01*
X10755777Y-16418960D02*
X10746253Y-16428484D01*
X10746253Y-16428484D02*
X10736729Y-16418960D01*
X10736729Y-16418960D02*
X10746253Y-16409436D01*
X10746253Y-16409436D02*
X10746253Y-16428484D01*
X10870063Y-16314198D02*
X10851015Y-16304674D01*
X10851015Y-16304674D02*
X10841491Y-16295150D01*
X10841491Y-16295150D02*
X10831967Y-16276103D01*
X10831967Y-16276103D02*
X10831967Y-16266579D01*
X10831967Y-16266579D02*
X10841491Y-16247531D01*
X10841491Y-16247531D02*
X10851015Y-16238008D01*
X10851015Y-16238008D02*
X10870063Y-16228484D01*
X10870063Y-16228484D02*
X10908158Y-16228484D01*
X10908158Y-16228484D02*
X10927205Y-16238008D01*
X10927205Y-16238008D02*
X10936729Y-16247531D01*
X10936729Y-16247531D02*
X10946253Y-16266579D01*
X10946253Y-16266579D02*
X10946253Y-16276103D01*
X10946253Y-16276103D02*
X10936729Y-16295150D01*
X10936729Y-16295150D02*
X10927205Y-16304674D01*
X10927205Y-16304674D02*
X10908158Y-16314198D01*
X10908158Y-16314198D02*
X10870063Y-16314198D01*
X10870063Y-16314198D02*
X10851015Y-16323722D01*
X10851015Y-16323722D02*
X10841491Y-16333246D01*
X10841491Y-16333246D02*
X10831967Y-16352293D01*
X10831967Y-16352293D02*
X10831967Y-16390388D01*
X10831967Y-16390388D02*
X10841491Y-16409436D01*
X10841491Y-16409436D02*
X10851015Y-16418960D01*
X10851015Y-16418960D02*
X10870063Y-16428484D01*
X10870063Y-16428484D02*
X10908158Y-16428484D01*
X10908158Y-16428484D02*
X10927205Y-16418960D01*
X10927205Y-16418960D02*
X10936729Y-16409436D01*
X10936729Y-16409436D02*
X10946253Y-16390388D01*
X10946253Y-16390388D02*
X10946253Y-16352293D01*
X10946253Y-16352293D02*
X10936729Y-16333246D01*
X10936729Y-16333246D02*
X10927205Y-16323722D01*
X10927205Y-16323722D02*
X10908158Y-16314198D01*
X11117682Y-16295150D02*
X11117682Y-16428484D01*
X11070063Y-16218960D02*
X11022444Y-16361817D01*
X11022444Y-16361817D02*
X11146253Y-16361817D01*
X11260539Y-16228484D02*
X11279586Y-16228484D01*
X11279586Y-16228484D02*
X11298634Y-16238008D01*
X11298634Y-16238008D02*
X11308158Y-16247531D01*
X11308158Y-16247531D02*
X11317682Y-16266579D01*
X11317682Y-16266579D02*
X11327205Y-16304674D01*
X11327205Y-16304674D02*
X11327205Y-16352293D01*
X11327205Y-16352293D02*
X11317682Y-16390388D01*
X11317682Y-16390388D02*
X11308158Y-16409436D01*
X11308158Y-16409436D02*
X11298634Y-16418960D01*
X11298634Y-16418960D02*
X11279586Y-16428484D01*
X11279586Y-16428484D02*
X11260539Y-16428484D01*
X11260539Y-16428484D02*
X11241491Y-16418960D01*
X11241491Y-16418960D02*
X11231967Y-16409436D01*
X11231967Y-16409436D02*
X11222443Y-16390388D01*
X11222443Y-16390388D02*
X11212920Y-16352293D01*
X11212920Y-16352293D02*
X11212920Y-16304674D01*
X11212920Y-16304674D02*
X11222443Y-16266579D01*
X11222443Y-16266579D02*
X11231967Y-16247531D01*
X11231967Y-16247531D02*
X11241491Y-16238008D01*
X11241491Y-16238008D02*
X11260539Y-16228484D01*
X11412920Y-16428484D02*
X11412920Y-16295150D01*
X11412920Y-16314198D02*
X11422443Y-16304674D01*
X11422443Y-16304674D02*
X11441491Y-16295150D01*
X11441491Y-16295150D02*
X11470063Y-16295150D01*
X11470063Y-16295150D02*
X11489110Y-16304674D01*
X11489110Y-16304674D02*
X11498634Y-16323722D01*
X11498634Y-16323722D02*
X11498634Y-16428484D01*
X11498634Y-16323722D02*
X11508158Y-16304674D01*
X11508158Y-16304674D02*
X11527205Y-16295150D01*
X11527205Y-16295150D02*
X11555777Y-16295150D01*
X11555777Y-16295150D02*
X11574824Y-16304674D01*
X11574824Y-16304674D02*
X11584348Y-16323722D01*
X11584348Y-16323722D02*
X11584348Y-16428484D01*
X11679586Y-16428484D02*
X11679586Y-16295150D01*
X11679586Y-16314198D02*
X11689110Y-16304674D01*
X11689110Y-16304674D02*
X11708158Y-16295150D01*
X11708158Y-16295150D02*
X11736729Y-16295150D01*
X11736729Y-16295150D02*
X11755777Y-16304674D01*
X11755777Y-16304674D02*
X11765301Y-16323722D01*
X11765301Y-16323722D02*
X11765301Y-16428484D01*
X11765301Y-16323722D02*
X11774824Y-16304674D01*
X11774824Y-16304674D02*
X11793872Y-16295150D01*
X11793872Y-16295150D02*
X11822443Y-16295150D01*
X11822443Y-16295150D02*
X11841491Y-16304674D01*
X11841491Y-16304674D02*
X11851015Y-16323722D01*
X11851015Y-16323722D02*
X11851015Y-16428484D01*
X12241491Y-16218960D02*
X12070063Y-16476103D01*
X12498634Y-16228484D02*
X12517682Y-16228484D01*
X12517682Y-16228484D02*
X12536729Y-16238008D01*
X12536729Y-16238008D02*
X12546253Y-16247531D01*
X12546253Y-16247531D02*
X12555777Y-16266579D01*
X12555777Y-16266579D02*
X12565301Y-16304674D01*
X12565301Y-16304674D02*
X12565301Y-16352293D01*
X12565301Y-16352293D02*
X12555777Y-16390388D01*
X12555777Y-16390388D02*
X12546253Y-16409436D01*
X12546253Y-16409436D02*
X12536729Y-16418960D01*
X12536729Y-16418960D02*
X12517682Y-16428484D01*
X12517682Y-16428484D02*
X12498634Y-16428484D01*
X12498634Y-16428484D02*
X12479586Y-16418960D01*
X12479586Y-16418960D02*
X12470063Y-16409436D01*
X12470063Y-16409436D02*
X12460539Y-16390388D01*
X12460539Y-16390388D02*
X12451015Y-16352293D01*
X12451015Y-16352293D02*
X12451015Y-16304674D01*
X12451015Y-16304674D02*
X12460539Y-16266579D01*
X12460539Y-16266579D02*
X12470063Y-16247531D01*
X12470063Y-16247531D02*
X12479586Y-16238008D01*
X12479586Y-16238008D02*
X12498634Y-16228484D01*
X12651015Y-16409436D02*
X12660539Y-16418960D01*
X12660539Y-16418960D02*
X12651015Y-16428484D01*
X12651015Y-16428484D02*
X12641491Y-16418960D01*
X12641491Y-16418960D02*
X12651015Y-16409436D01*
X12651015Y-16409436D02*
X12651015Y-16428484D01*
X12784348Y-16228484D02*
X12803396Y-16228484D01*
X12803396Y-16228484D02*
X12822444Y-16238008D01*
X12822444Y-16238008D02*
X12831967Y-16247531D01*
X12831967Y-16247531D02*
X12841491Y-16266579D01*
X12841491Y-16266579D02*
X12851015Y-16304674D01*
X12851015Y-16304674D02*
X12851015Y-16352293D01*
X12851015Y-16352293D02*
X12841491Y-16390388D01*
X12841491Y-16390388D02*
X12831967Y-16409436D01*
X12831967Y-16409436D02*
X12822444Y-16418960D01*
X12822444Y-16418960D02*
X12803396Y-16428484D01*
X12803396Y-16428484D02*
X12784348Y-16428484D01*
X12784348Y-16428484D02*
X12765301Y-16418960D01*
X12765301Y-16418960D02*
X12755777Y-16409436D01*
X12755777Y-16409436D02*
X12746253Y-16390388D01*
X12746253Y-16390388D02*
X12736729Y-16352293D01*
X12736729Y-16352293D02*
X12736729Y-16304674D01*
X12736729Y-16304674D02*
X12746253Y-16266579D01*
X12746253Y-16266579D02*
X12755777Y-16247531D01*
X12755777Y-16247531D02*
X12765301Y-16238008D01*
X12765301Y-16238008D02*
X12784348Y-16228484D01*
X12917682Y-16228484D02*
X13041491Y-16228484D01*
X13041491Y-16228484D02*
X12974825Y-16304674D01*
X12974825Y-16304674D02*
X13003396Y-16304674D01*
X13003396Y-16304674D02*
X13022444Y-16314198D01*
X13022444Y-16314198D02*
X13031967Y-16323722D01*
X13031967Y-16323722D02*
X13041491Y-16342769D01*
X13041491Y-16342769D02*
X13041491Y-16390388D01*
X13041491Y-16390388D02*
X13031967Y-16409436D01*
X13031967Y-16409436D02*
X13022444Y-16418960D01*
X13022444Y-16418960D02*
X13003396Y-16428484D01*
X13003396Y-16428484D02*
X12946253Y-16428484D01*
X12946253Y-16428484D02*
X12927206Y-16418960D01*
X12927206Y-16418960D02*
X12917682Y-16409436D01*
X13108158Y-16228484D02*
X13231967Y-16228484D01*
X13231967Y-16228484D02*
X13165301Y-16304674D01*
X13165301Y-16304674D02*
X13193872Y-16304674D01*
X13193872Y-16304674D02*
X13212920Y-16314198D01*
X13212920Y-16314198D02*
X13222444Y-16323722D01*
X13222444Y-16323722D02*
X13231967Y-16342769D01*
X13231967Y-16342769D02*
X13231967Y-16390388D01*
X13231967Y-16390388D02*
X13222444Y-16409436D01*
X13222444Y-16409436D02*
X13212920Y-16418960D01*
X13212920Y-16418960D02*
X13193872Y-16428484D01*
X13193872Y-16428484D02*
X13136729Y-16428484D01*
X13136729Y-16428484D02*
X13117682Y-16418960D01*
X13117682Y-16418960D02*
X13108158Y-16409436D01*
X13422444Y-16428484D02*
X13308158Y-16428484D01*
X13365301Y-16428484D02*
X13365301Y-16228484D01*
X13365301Y-16228484D02*
X13346253Y-16257055D01*
X13346253Y-16257055D02*
X13327206Y-16276103D01*
X13327206Y-16276103D02*
X13308158Y-16285627D01*
X13498634Y-16228484D02*
X13498634Y-16266579D01*
X13574825Y-16228484D02*
X13574825Y-16266579D01*
X13870063Y-16504674D02*
X13860539Y-16495150D01*
X13860539Y-16495150D02*
X13841491Y-16466579D01*
X13841491Y-16466579D02*
X13831968Y-16447531D01*
X13831968Y-16447531D02*
X13822444Y-16418960D01*
X13822444Y-16418960D02*
X13812920Y-16371341D01*
X13812920Y-16371341D02*
X13812920Y-16333246D01*
X13812920Y-16333246D02*
X13822444Y-16285627D01*
X13822444Y-16285627D02*
X13831968Y-16257055D01*
X13831968Y-16257055D02*
X13841491Y-16238008D01*
X13841491Y-16238008D02*
X13860539Y-16209436D01*
X13860539Y-16209436D02*
X13870063Y-16199912D01*
X14051015Y-16428484D02*
X13936729Y-16428484D01*
X13993872Y-16428484D02*
X13993872Y-16228484D01*
X13993872Y-16228484D02*
X13974825Y-16257055D01*
X13974825Y-16257055D02*
X13955777Y-16276103D01*
X13955777Y-16276103D02*
X13936729Y-16285627D01*
X14165301Y-16314198D02*
X14146253Y-16304674D01*
X14146253Y-16304674D02*
X14136729Y-16295150D01*
X14136729Y-16295150D02*
X14127206Y-16276103D01*
X14127206Y-16276103D02*
X14127206Y-16266579D01*
X14127206Y-16266579D02*
X14136729Y-16247531D01*
X14136729Y-16247531D02*
X14146253Y-16238008D01*
X14146253Y-16238008D02*
X14165301Y-16228484D01*
X14165301Y-16228484D02*
X14203396Y-16228484D01*
X14203396Y-16228484D02*
X14222444Y-16238008D01*
X14222444Y-16238008D02*
X14231968Y-16247531D01*
X14231968Y-16247531D02*
X14241491Y-16266579D01*
X14241491Y-16266579D02*
X14241491Y-16276103D01*
X14241491Y-16276103D02*
X14231968Y-16295150D01*
X14231968Y-16295150D02*
X14222444Y-16304674D01*
X14222444Y-16304674D02*
X14203396Y-16314198D01*
X14203396Y-16314198D02*
X14165301Y-16314198D01*
X14165301Y-16314198D02*
X14146253Y-16323722D01*
X14146253Y-16323722D02*
X14136729Y-16333246D01*
X14136729Y-16333246D02*
X14127206Y-16352293D01*
X14127206Y-16352293D02*
X14127206Y-16390388D01*
X14127206Y-16390388D02*
X14136729Y-16409436D01*
X14136729Y-16409436D02*
X14146253Y-16418960D01*
X14146253Y-16418960D02*
X14165301Y-16428484D01*
X14165301Y-16428484D02*
X14203396Y-16428484D01*
X14203396Y-16428484D02*
X14222444Y-16418960D01*
X14222444Y-16418960D02*
X14231968Y-16409436D01*
X14231968Y-16409436D02*
X14241491Y-16390388D01*
X14241491Y-16390388D02*
X14241491Y-16352293D01*
X14241491Y-16352293D02*
X14231968Y-16333246D01*
X14231968Y-16333246D02*
X14222444Y-16323722D01*
X14222444Y-16323722D02*
X14203396Y-16314198D01*
X14479587Y-16428484D02*
X14479587Y-16228484D01*
X14565301Y-16428484D02*
X14565301Y-16323722D01*
X14565301Y-16323722D02*
X14555777Y-16304674D01*
X14555777Y-16304674D02*
X14536730Y-16295150D01*
X14536730Y-16295150D02*
X14508158Y-16295150D01*
X14508158Y-16295150D02*
X14489110Y-16304674D01*
X14489110Y-16304674D02*
X14479587Y-16314198D01*
X14689110Y-16428484D02*
X14670063Y-16418960D01*
X14670063Y-16418960D02*
X14660539Y-16409436D01*
X14660539Y-16409436D02*
X14651015Y-16390388D01*
X14651015Y-16390388D02*
X14651015Y-16333246D01*
X14651015Y-16333246D02*
X14660539Y-16314198D01*
X14660539Y-16314198D02*
X14670063Y-16304674D01*
X14670063Y-16304674D02*
X14689110Y-16295150D01*
X14689110Y-16295150D02*
X14717682Y-16295150D01*
X14717682Y-16295150D02*
X14736730Y-16304674D01*
X14736730Y-16304674D02*
X14746253Y-16314198D01*
X14746253Y-16314198D02*
X14755777Y-16333246D01*
X14755777Y-16333246D02*
X14755777Y-16390388D01*
X14755777Y-16390388D02*
X14746253Y-16409436D01*
X14746253Y-16409436D02*
X14736730Y-16418960D01*
X14736730Y-16418960D02*
X14717682Y-16428484D01*
X14717682Y-16428484D02*
X14689110Y-16428484D01*
X14870063Y-16428484D02*
X14851015Y-16418960D01*
X14851015Y-16418960D02*
X14841491Y-16399912D01*
X14841491Y-16399912D02*
X14841491Y-16228484D01*
X15022444Y-16418960D02*
X15003396Y-16428484D01*
X15003396Y-16428484D02*
X14965301Y-16428484D01*
X14965301Y-16428484D02*
X14946253Y-16418960D01*
X14946253Y-16418960D02*
X14936730Y-16399912D01*
X14936730Y-16399912D02*
X14936730Y-16323722D01*
X14936730Y-16323722D02*
X14946253Y-16304674D01*
X14946253Y-16304674D02*
X14965301Y-16295150D01*
X14965301Y-16295150D02*
X15003396Y-16295150D01*
X15003396Y-16295150D02*
X15022444Y-16304674D01*
X15022444Y-16304674D02*
X15031968Y-16323722D01*
X15031968Y-16323722D02*
X15031968Y-16342769D01*
X15031968Y-16342769D02*
X14936730Y-16361817D01*
X15108158Y-16418960D02*
X15127206Y-16428484D01*
X15127206Y-16428484D02*
X15165301Y-16428484D01*
X15165301Y-16428484D02*
X15184349Y-16418960D01*
X15184349Y-16418960D02*
X15193872Y-16399912D01*
X15193872Y-16399912D02*
X15193872Y-16390388D01*
X15193872Y-16390388D02*
X15184349Y-16371341D01*
X15184349Y-16371341D02*
X15165301Y-16361817D01*
X15165301Y-16361817D02*
X15136730Y-16361817D01*
X15136730Y-16361817D02*
X15117682Y-16352293D01*
X15117682Y-16352293D02*
X15108158Y-16333246D01*
X15108158Y-16333246D02*
X15108158Y-16323722D01*
X15108158Y-16323722D02*
X15117682Y-16304674D01*
X15117682Y-16304674D02*
X15136730Y-16295150D01*
X15136730Y-16295150D02*
X15165301Y-16295150D01*
X15165301Y-16295150D02*
X15184349Y-16304674D01*
X15260539Y-16504674D02*
X15270063Y-16495150D01*
X15270063Y-16495150D02*
X15289111Y-16466579D01*
X15289111Y-16466579D02*
X15298634Y-16447531D01*
X15298634Y-16447531D02*
X15308158Y-16418960D01*
X15308158Y-16418960D02*
X15317682Y-16371341D01*
X15317682Y-16371341D02*
X15317682Y-16333246D01*
X15317682Y-16333246D02*
X15308158Y-16285627D01*
X15308158Y-16285627D02*
X15298634Y-16257055D01*
X15298634Y-16257055D02*
X15289111Y-16238008D01*
X15289111Y-16238008D02*
X15270063Y-16209436D01*
X15270063Y-16209436D02*
X15260539Y-16199912D01*
D10*
X10250000Y-16646000D02*
X10295000Y-16601000D01*
X10250000Y-16556000D01*
X10205000Y-16601000D01*
X10250000Y-16646000D01*
D12*
X10593872Y-16492484D02*
X10612920Y-16492484D01*
X10612920Y-16492484D02*
X10631967Y-16502008D01*
X10631967Y-16502008D02*
X10641491Y-16511531D01*
X10641491Y-16511531D02*
X10651015Y-16530579D01*
X10651015Y-16530579D02*
X10660539Y-16568674D01*
X10660539Y-16568674D02*
X10660539Y-16616293D01*
X10660539Y-16616293D02*
X10651015Y-16654388D01*
X10651015Y-16654388D02*
X10641491Y-16673436D01*
X10641491Y-16673436D02*
X10631967Y-16682960D01*
X10631967Y-16682960D02*
X10612920Y-16692484D01*
X10612920Y-16692484D02*
X10593872Y-16692484D01*
X10593872Y-16692484D02*
X10574824Y-16682960D01*
X10574824Y-16682960D02*
X10565301Y-16673436D01*
X10565301Y-16673436D02*
X10555777Y-16654388D01*
X10555777Y-16654388D02*
X10546253Y-16616293D01*
X10546253Y-16616293D02*
X10546253Y-16568674D01*
X10546253Y-16568674D02*
X10555777Y-16530579D01*
X10555777Y-16530579D02*
X10565301Y-16511531D01*
X10565301Y-16511531D02*
X10574824Y-16502008D01*
X10574824Y-16502008D02*
X10593872Y-16492484D01*
X10746253Y-16673436D02*
X10755777Y-16682960D01*
X10755777Y-16682960D02*
X10746253Y-16692484D01*
X10746253Y-16692484D02*
X10736729Y-16682960D01*
X10736729Y-16682960D02*
X10746253Y-16673436D01*
X10746253Y-16673436D02*
X10746253Y-16692484D01*
X10851015Y-16692484D02*
X10889110Y-16692484D01*
X10889110Y-16692484D02*
X10908158Y-16682960D01*
X10908158Y-16682960D02*
X10917682Y-16673436D01*
X10917682Y-16673436D02*
X10936729Y-16644865D01*
X10936729Y-16644865D02*
X10946253Y-16606769D01*
X10946253Y-16606769D02*
X10946253Y-16530579D01*
X10946253Y-16530579D02*
X10936729Y-16511531D01*
X10936729Y-16511531D02*
X10927205Y-16502008D01*
X10927205Y-16502008D02*
X10908158Y-16492484D01*
X10908158Y-16492484D02*
X10870063Y-16492484D01*
X10870063Y-16492484D02*
X10851015Y-16502008D01*
X10851015Y-16502008D02*
X10841491Y-16511531D01*
X10841491Y-16511531D02*
X10831967Y-16530579D01*
X10831967Y-16530579D02*
X10831967Y-16578198D01*
X10831967Y-16578198D02*
X10841491Y-16597246D01*
X10841491Y-16597246D02*
X10851015Y-16606769D01*
X10851015Y-16606769D02*
X10870063Y-16616293D01*
X10870063Y-16616293D02*
X10908158Y-16616293D01*
X10908158Y-16616293D02*
X10927205Y-16606769D01*
X10927205Y-16606769D02*
X10936729Y-16597246D01*
X10936729Y-16597246D02*
X10946253Y-16578198D01*
X11070063Y-16492484D02*
X11089110Y-16492484D01*
X11089110Y-16492484D02*
X11108158Y-16502008D01*
X11108158Y-16502008D02*
X11117682Y-16511531D01*
X11117682Y-16511531D02*
X11127205Y-16530579D01*
X11127205Y-16530579D02*
X11136729Y-16568674D01*
X11136729Y-16568674D02*
X11136729Y-16616293D01*
X11136729Y-16616293D02*
X11127205Y-16654388D01*
X11127205Y-16654388D02*
X11117682Y-16673436D01*
X11117682Y-16673436D02*
X11108158Y-16682960D01*
X11108158Y-16682960D02*
X11089110Y-16692484D01*
X11089110Y-16692484D02*
X11070063Y-16692484D01*
X11070063Y-16692484D02*
X11051015Y-16682960D01*
X11051015Y-16682960D02*
X11041491Y-16673436D01*
X11041491Y-16673436D02*
X11031967Y-16654388D01*
X11031967Y-16654388D02*
X11022444Y-16616293D01*
X11022444Y-16616293D02*
X11022444Y-16568674D01*
X11022444Y-16568674D02*
X11031967Y-16530579D01*
X11031967Y-16530579D02*
X11041491Y-16511531D01*
X11041491Y-16511531D02*
X11051015Y-16502008D01*
X11051015Y-16502008D02*
X11070063Y-16492484D01*
X11260539Y-16492484D02*
X11279586Y-16492484D01*
X11279586Y-16492484D02*
X11298634Y-16502008D01*
X11298634Y-16502008D02*
X11308158Y-16511531D01*
X11308158Y-16511531D02*
X11317682Y-16530579D01*
X11317682Y-16530579D02*
X11327205Y-16568674D01*
X11327205Y-16568674D02*
X11327205Y-16616293D01*
X11327205Y-16616293D02*
X11317682Y-16654388D01*
X11317682Y-16654388D02*
X11308158Y-16673436D01*
X11308158Y-16673436D02*
X11298634Y-16682960D01*
X11298634Y-16682960D02*
X11279586Y-16692484D01*
X11279586Y-16692484D02*
X11260539Y-16692484D01*
X11260539Y-16692484D02*
X11241491Y-16682960D01*
X11241491Y-16682960D02*
X11231967Y-16673436D01*
X11231967Y-16673436D02*
X11222443Y-16654388D01*
X11222443Y-16654388D02*
X11212920Y-16616293D01*
X11212920Y-16616293D02*
X11212920Y-16568674D01*
X11212920Y-16568674D02*
X11222443Y-16530579D01*
X11222443Y-16530579D02*
X11231967Y-16511531D01*
X11231967Y-16511531D02*
X11241491Y-16502008D01*
X11241491Y-16502008D02*
X11260539Y-16492484D01*
X11412920Y-16692484D02*
X11412920Y-16559150D01*
X11412920Y-16578198D02*
X11422443Y-16568674D01*
X11422443Y-16568674D02*
X11441491Y-16559150D01*
X11441491Y-16559150D02*
X11470063Y-16559150D01*
X11470063Y-16559150D02*
X11489110Y-16568674D01*
X11489110Y-16568674D02*
X11498634Y-16587722D01*
X11498634Y-16587722D02*
X11498634Y-16692484D01*
X11498634Y-16587722D02*
X11508158Y-16568674D01*
X11508158Y-16568674D02*
X11527205Y-16559150D01*
X11527205Y-16559150D02*
X11555777Y-16559150D01*
X11555777Y-16559150D02*
X11574824Y-16568674D01*
X11574824Y-16568674D02*
X11584348Y-16587722D01*
X11584348Y-16587722D02*
X11584348Y-16692484D01*
X11679586Y-16692484D02*
X11679586Y-16559150D01*
X11679586Y-16578198D02*
X11689110Y-16568674D01*
X11689110Y-16568674D02*
X11708158Y-16559150D01*
X11708158Y-16559150D02*
X11736729Y-16559150D01*
X11736729Y-16559150D02*
X11755777Y-16568674D01*
X11755777Y-16568674D02*
X11765301Y-16587722D01*
X11765301Y-16587722D02*
X11765301Y-16692484D01*
X11765301Y-16587722D02*
X11774824Y-16568674D01*
X11774824Y-16568674D02*
X11793872Y-16559150D01*
X11793872Y-16559150D02*
X11822443Y-16559150D01*
X11822443Y-16559150D02*
X11841491Y-16568674D01*
X11841491Y-16568674D02*
X11851015Y-16587722D01*
X11851015Y-16587722D02*
X11851015Y-16692484D01*
X12241491Y-16482960D02*
X12070063Y-16740103D01*
X12498634Y-16492484D02*
X12517682Y-16492484D01*
X12517682Y-16492484D02*
X12536729Y-16502008D01*
X12536729Y-16502008D02*
X12546253Y-16511531D01*
X12546253Y-16511531D02*
X12555777Y-16530579D01*
X12555777Y-16530579D02*
X12565301Y-16568674D01*
X12565301Y-16568674D02*
X12565301Y-16616293D01*
X12565301Y-16616293D02*
X12555777Y-16654388D01*
X12555777Y-16654388D02*
X12546253Y-16673436D01*
X12546253Y-16673436D02*
X12536729Y-16682960D01*
X12536729Y-16682960D02*
X12517682Y-16692484D01*
X12517682Y-16692484D02*
X12498634Y-16692484D01*
X12498634Y-16692484D02*
X12479586Y-16682960D01*
X12479586Y-16682960D02*
X12470063Y-16673436D01*
X12470063Y-16673436D02*
X12460539Y-16654388D01*
X12460539Y-16654388D02*
X12451015Y-16616293D01*
X12451015Y-16616293D02*
X12451015Y-16568674D01*
X12451015Y-16568674D02*
X12460539Y-16530579D01*
X12460539Y-16530579D02*
X12470063Y-16511531D01*
X12470063Y-16511531D02*
X12479586Y-16502008D01*
X12479586Y-16502008D02*
X12498634Y-16492484D01*
X12651015Y-16673436D02*
X12660539Y-16682960D01*
X12660539Y-16682960D02*
X12651015Y-16692484D01*
X12651015Y-16692484D02*
X12641491Y-16682960D01*
X12641491Y-16682960D02*
X12651015Y-16673436D01*
X12651015Y-16673436D02*
X12651015Y-16692484D01*
X12784348Y-16492484D02*
X12803396Y-16492484D01*
X12803396Y-16492484D02*
X12822444Y-16502008D01*
X12822444Y-16502008D02*
X12831967Y-16511531D01*
X12831967Y-16511531D02*
X12841491Y-16530579D01*
X12841491Y-16530579D02*
X12851015Y-16568674D01*
X12851015Y-16568674D02*
X12851015Y-16616293D01*
X12851015Y-16616293D02*
X12841491Y-16654388D01*
X12841491Y-16654388D02*
X12831967Y-16673436D01*
X12831967Y-16673436D02*
X12822444Y-16682960D01*
X12822444Y-16682960D02*
X12803396Y-16692484D01*
X12803396Y-16692484D02*
X12784348Y-16692484D01*
X12784348Y-16692484D02*
X12765301Y-16682960D01*
X12765301Y-16682960D02*
X12755777Y-16673436D01*
X12755777Y-16673436D02*
X12746253Y-16654388D01*
X12746253Y-16654388D02*
X12736729Y-16616293D01*
X12736729Y-16616293D02*
X12736729Y-16568674D01*
X12736729Y-16568674D02*
X12746253Y-16530579D01*
X12746253Y-16530579D02*
X12755777Y-16511531D01*
X12755777Y-16511531D02*
X12765301Y-16502008D01*
X12765301Y-16502008D02*
X12784348Y-16492484D01*
X12917682Y-16492484D02*
X13041491Y-16492484D01*
X13041491Y-16492484D02*
X12974825Y-16568674D01*
X12974825Y-16568674D02*
X13003396Y-16568674D01*
X13003396Y-16568674D02*
X13022444Y-16578198D01*
X13022444Y-16578198D02*
X13031967Y-16587722D01*
X13031967Y-16587722D02*
X13041491Y-16606769D01*
X13041491Y-16606769D02*
X13041491Y-16654388D01*
X13041491Y-16654388D02*
X13031967Y-16673436D01*
X13031967Y-16673436D02*
X13022444Y-16682960D01*
X13022444Y-16682960D02*
X13003396Y-16692484D01*
X13003396Y-16692484D02*
X12946253Y-16692484D01*
X12946253Y-16692484D02*
X12927206Y-16682960D01*
X12927206Y-16682960D02*
X12917682Y-16673436D01*
X13222444Y-16492484D02*
X13127206Y-16492484D01*
X13127206Y-16492484D02*
X13117682Y-16587722D01*
X13117682Y-16587722D02*
X13127206Y-16578198D01*
X13127206Y-16578198D02*
X13146253Y-16568674D01*
X13146253Y-16568674D02*
X13193872Y-16568674D01*
X13193872Y-16568674D02*
X13212920Y-16578198D01*
X13212920Y-16578198D02*
X13222444Y-16587722D01*
X13222444Y-16587722D02*
X13231967Y-16606769D01*
X13231967Y-16606769D02*
X13231967Y-16654388D01*
X13231967Y-16654388D02*
X13222444Y-16673436D01*
X13222444Y-16673436D02*
X13212920Y-16682960D01*
X13212920Y-16682960D02*
X13193872Y-16692484D01*
X13193872Y-16692484D02*
X13146253Y-16692484D01*
X13146253Y-16692484D02*
X13127206Y-16682960D01*
X13127206Y-16682960D02*
X13117682Y-16673436D01*
X13403396Y-16559150D02*
X13403396Y-16692484D01*
X13355777Y-16482960D02*
X13308158Y-16625817D01*
X13308158Y-16625817D02*
X13431967Y-16625817D01*
X13498634Y-16492484D02*
X13498634Y-16530579D01*
X13574825Y-16492484D02*
X13574825Y-16530579D01*
X13870063Y-16768674D02*
X13860539Y-16759150D01*
X13860539Y-16759150D02*
X13841491Y-16730579D01*
X13841491Y-16730579D02*
X13831968Y-16711531D01*
X13831968Y-16711531D02*
X13822444Y-16682960D01*
X13822444Y-16682960D02*
X13812920Y-16635341D01*
X13812920Y-16635341D02*
X13812920Y-16597246D01*
X13812920Y-16597246D02*
X13822444Y-16549627D01*
X13822444Y-16549627D02*
X13831968Y-16521055D01*
X13831968Y-16521055D02*
X13841491Y-16502008D01*
X13841491Y-16502008D02*
X13860539Y-16473436D01*
X13860539Y-16473436D02*
X13870063Y-16463912D01*
X13936729Y-16511531D02*
X13946253Y-16502008D01*
X13946253Y-16502008D02*
X13965301Y-16492484D01*
X13965301Y-16492484D02*
X14012920Y-16492484D01*
X14012920Y-16492484D02*
X14031968Y-16502008D01*
X14031968Y-16502008D02*
X14041491Y-16511531D01*
X14041491Y-16511531D02*
X14051015Y-16530579D01*
X14051015Y-16530579D02*
X14051015Y-16549627D01*
X14051015Y-16549627D02*
X14041491Y-16578198D01*
X14041491Y-16578198D02*
X13927206Y-16692484D01*
X13927206Y-16692484D02*
X14051015Y-16692484D01*
X14289110Y-16692484D02*
X14289110Y-16492484D01*
X14374825Y-16692484D02*
X14374825Y-16587722D01*
X14374825Y-16587722D02*
X14365301Y-16568674D01*
X14365301Y-16568674D02*
X14346253Y-16559150D01*
X14346253Y-16559150D02*
X14317682Y-16559150D01*
X14317682Y-16559150D02*
X14298634Y-16568674D01*
X14298634Y-16568674D02*
X14289110Y-16578198D01*
X14498634Y-16692484D02*
X14479587Y-16682960D01*
X14479587Y-16682960D02*
X14470063Y-16673436D01*
X14470063Y-16673436D02*
X14460539Y-16654388D01*
X14460539Y-16654388D02*
X14460539Y-16597246D01*
X14460539Y-16597246D02*
X14470063Y-16578198D01*
X14470063Y-16578198D02*
X14479587Y-16568674D01*
X14479587Y-16568674D02*
X14498634Y-16559150D01*
X14498634Y-16559150D02*
X14527206Y-16559150D01*
X14527206Y-16559150D02*
X14546253Y-16568674D01*
X14546253Y-16568674D02*
X14555777Y-16578198D01*
X14555777Y-16578198D02*
X14565301Y-16597246D01*
X14565301Y-16597246D02*
X14565301Y-16654388D01*
X14565301Y-16654388D02*
X14555777Y-16673436D01*
X14555777Y-16673436D02*
X14546253Y-16682960D01*
X14546253Y-16682960D02*
X14527206Y-16692484D01*
X14527206Y-16692484D02*
X14498634Y-16692484D01*
X14679587Y-16692484D02*
X14660539Y-16682960D01*
X14660539Y-16682960D02*
X14651015Y-16663912D01*
X14651015Y-16663912D02*
X14651015Y-16492484D01*
X14831968Y-16682960D02*
X14812920Y-16692484D01*
X14812920Y-16692484D02*
X14774825Y-16692484D01*
X14774825Y-16692484D02*
X14755777Y-16682960D01*
X14755777Y-16682960D02*
X14746253Y-16663912D01*
X14746253Y-16663912D02*
X14746253Y-16587722D01*
X14746253Y-16587722D02*
X14755777Y-16568674D01*
X14755777Y-16568674D02*
X14774825Y-16559150D01*
X14774825Y-16559150D02*
X14812920Y-16559150D01*
X14812920Y-16559150D02*
X14831968Y-16568674D01*
X14831968Y-16568674D02*
X14841491Y-16587722D01*
X14841491Y-16587722D02*
X14841491Y-16606769D01*
X14841491Y-16606769D02*
X14746253Y-16625817D01*
X14917682Y-16682960D02*
X14936730Y-16692484D01*
X14936730Y-16692484D02*
X14974825Y-16692484D01*
X14974825Y-16692484D02*
X14993872Y-16682960D01*
X14993872Y-16682960D02*
X15003396Y-16663912D01*
X15003396Y-16663912D02*
X15003396Y-16654388D01*
X15003396Y-16654388D02*
X14993872Y-16635341D01*
X14993872Y-16635341D02*
X14974825Y-16625817D01*
X14974825Y-16625817D02*
X14946253Y-16625817D01*
X14946253Y-16625817D02*
X14927206Y-16616293D01*
X14927206Y-16616293D02*
X14917682Y-16597246D01*
X14917682Y-16597246D02*
X14917682Y-16587722D01*
X14917682Y-16587722D02*
X14927206Y-16568674D01*
X14927206Y-16568674D02*
X14946253Y-16559150D01*
X14946253Y-16559150D02*
X14974825Y-16559150D01*
X14974825Y-16559150D02*
X14993872Y-16568674D01*
X15070063Y-16768674D02*
X15079587Y-16759150D01*
X15079587Y-16759150D02*
X15098634Y-16730579D01*
X15098634Y-16730579D02*
X15108158Y-16711531D01*
X15108158Y-16711531D02*
X15117682Y-16682960D01*
X15117682Y-16682960D02*
X15127206Y-16635341D01*
X15127206Y-16635341D02*
X15127206Y-16597246D01*
X15127206Y-16597246D02*
X15117682Y-16549627D01*
X15117682Y-16549627D02*
X15108158Y-16521055D01*
X15108158Y-16521055D02*
X15098634Y-16502008D01*
X15098634Y-16502008D02*
X15079587Y-16473436D01*
X15079587Y-16473436D02*
X15070063Y-16463912D01*
D10*
X10195000Y-16815000D02*
X10295000Y-16915000D01*
X10295000Y-16815000D02*
X10195000Y-16915000D01*
X10295000Y-16865000D02*
G75*
G02*
X10195000Y-16865000I-50000J0D01*
G01*
X10195000Y-16865000D02*
G75*
G02*
X10295000Y-16865000I50000J0D01*
G01*
D12*
X10660539Y-16956484D02*
X10546253Y-16956484D01*
X10603396Y-16956484D02*
X10603396Y-16756484D01*
X10603396Y-16756484D02*
X10584348Y-16785055D01*
X10584348Y-16785055D02*
X10565301Y-16804103D01*
X10565301Y-16804103D02*
X10546253Y-16813627D01*
X10746253Y-16937436D02*
X10755777Y-16946960D01*
X10755777Y-16946960D02*
X10746253Y-16956484D01*
X10746253Y-16956484D02*
X10736729Y-16946960D01*
X10736729Y-16946960D02*
X10746253Y-16937436D01*
X10746253Y-16937436D02*
X10746253Y-16956484D01*
X10879586Y-16756484D02*
X10898634Y-16756484D01*
X10898634Y-16756484D02*
X10917682Y-16766008D01*
X10917682Y-16766008D02*
X10927205Y-16775531D01*
X10927205Y-16775531D02*
X10936729Y-16794579D01*
X10936729Y-16794579D02*
X10946253Y-16832674D01*
X10946253Y-16832674D02*
X10946253Y-16880293D01*
X10946253Y-16880293D02*
X10936729Y-16918389D01*
X10936729Y-16918389D02*
X10927205Y-16937436D01*
X10927205Y-16937436D02*
X10917682Y-16946960D01*
X10917682Y-16946960D02*
X10898634Y-16956484D01*
X10898634Y-16956484D02*
X10879586Y-16956484D01*
X10879586Y-16956484D02*
X10860539Y-16946960D01*
X10860539Y-16946960D02*
X10851015Y-16937436D01*
X10851015Y-16937436D02*
X10841491Y-16918389D01*
X10841491Y-16918389D02*
X10831967Y-16880293D01*
X10831967Y-16880293D02*
X10831967Y-16832674D01*
X10831967Y-16832674D02*
X10841491Y-16794579D01*
X10841491Y-16794579D02*
X10851015Y-16775531D01*
X10851015Y-16775531D02*
X10860539Y-16766008D01*
X10860539Y-16766008D02*
X10879586Y-16756484D01*
X11070063Y-16756484D02*
X11089110Y-16756484D01*
X11089110Y-16756484D02*
X11108158Y-16766008D01*
X11108158Y-16766008D02*
X11117682Y-16775531D01*
X11117682Y-16775531D02*
X11127205Y-16794579D01*
X11127205Y-16794579D02*
X11136729Y-16832674D01*
X11136729Y-16832674D02*
X11136729Y-16880293D01*
X11136729Y-16880293D02*
X11127205Y-16918389D01*
X11127205Y-16918389D02*
X11117682Y-16937436D01*
X11117682Y-16937436D02*
X11108158Y-16946960D01*
X11108158Y-16946960D02*
X11089110Y-16956484D01*
X11089110Y-16956484D02*
X11070063Y-16956484D01*
X11070063Y-16956484D02*
X11051015Y-16946960D01*
X11051015Y-16946960D02*
X11041491Y-16937436D01*
X11041491Y-16937436D02*
X11031967Y-16918389D01*
X11031967Y-16918389D02*
X11022444Y-16880293D01*
X11022444Y-16880293D02*
X11022444Y-16832674D01*
X11022444Y-16832674D02*
X11031967Y-16794579D01*
X11031967Y-16794579D02*
X11041491Y-16775531D01*
X11041491Y-16775531D02*
X11051015Y-16766008D01*
X11051015Y-16766008D02*
X11070063Y-16756484D01*
X11260539Y-16756484D02*
X11279586Y-16756484D01*
X11279586Y-16756484D02*
X11298634Y-16766008D01*
X11298634Y-16766008D02*
X11308158Y-16775531D01*
X11308158Y-16775531D02*
X11317682Y-16794579D01*
X11317682Y-16794579D02*
X11327205Y-16832674D01*
X11327205Y-16832674D02*
X11327205Y-16880293D01*
X11327205Y-16880293D02*
X11317682Y-16918389D01*
X11317682Y-16918389D02*
X11308158Y-16937436D01*
X11308158Y-16937436D02*
X11298634Y-16946960D01*
X11298634Y-16946960D02*
X11279586Y-16956484D01*
X11279586Y-16956484D02*
X11260539Y-16956484D01*
X11260539Y-16956484D02*
X11241491Y-16946960D01*
X11241491Y-16946960D02*
X11231967Y-16937436D01*
X11231967Y-16937436D02*
X11222443Y-16918389D01*
X11222443Y-16918389D02*
X11212920Y-16880293D01*
X11212920Y-16880293D02*
X11212920Y-16832674D01*
X11212920Y-16832674D02*
X11222443Y-16794579D01*
X11222443Y-16794579D02*
X11231967Y-16775531D01*
X11231967Y-16775531D02*
X11241491Y-16766008D01*
X11241491Y-16766008D02*
X11260539Y-16756484D01*
X11412920Y-16956484D02*
X11412920Y-16823150D01*
X11412920Y-16842198D02*
X11422443Y-16832674D01*
X11422443Y-16832674D02*
X11441491Y-16823150D01*
X11441491Y-16823150D02*
X11470063Y-16823150D01*
X11470063Y-16823150D02*
X11489110Y-16832674D01*
X11489110Y-16832674D02*
X11498634Y-16851722D01*
X11498634Y-16851722D02*
X11498634Y-16956484D01*
X11498634Y-16851722D02*
X11508158Y-16832674D01*
X11508158Y-16832674D02*
X11527205Y-16823150D01*
X11527205Y-16823150D02*
X11555777Y-16823150D01*
X11555777Y-16823150D02*
X11574824Y-16832674D01*
X11574824Y-16832674D02*
X11584348Y-16851722D01*
X11584348Y-16851722D02*
X11584348Y-16956484D01*
X11679586Y-16956484D02*
X11679586Y-16823150D01*
X11679586Y-16842198D02*
X11689110Y-16832674D01*
X11689110Y-16832674D02*
X11708158Y-16823150D01*
X11708158Y-16823150D02*
X11736729Y-16823150D01*
X11736729Y-16823150D02*
X11755777Y-16832674D01*
X11755777Y-16832674D02*
X11765301Y-16851722D01*
X11765301Y-16851722D02*
X11765301Y-16956484D01*
X11765301Y-16851722D02*
X11774824Y-16832674D01*
X11774824Y-16832674D02*
X11793872Y-16823150D01*
X11793872Y-16823150D02*
X11822443Y-16823150D01*
X11822443Y-16823150D02*
X11841491Y-16832674D01*
X11841491Y-16832674D02*
X11851015Y-16851722D01*
X11851015Y-16851722D02*
X11851015Y-16956484D01*
X12241491Y-16746960D02*
X12070063Y-17004103D01*
X12498634Y-16756484D02*
X12517682Y-16756484D01*
X12517682Y-16756484D02*
X12536729Y-16766008D01*
X12536729Y-16766008D02*
X12546253Y-16775531D01*
X12546253Y-16775531D02*
X12555777Y-16794579D01*
X12555777Y-16794579D02*
X12565301Y-16832674D01*
X12565301Y-16832674D02*
X12565301Y-16880293D01*
X12565301Y-16880293D02*
X12555777Y-16918389D01*
X12555777Y-16918389D02*
X12546253Y-16937436D01*
X12546253Y-16937436D02*
X12536729Y-16946960D01*
X12536729Y-16946960D02*
X12517682Y-16956484D01*
X12517682Y-16956484D02*
X12498634Y-16956484D01*
X12498634Y-16956484D02*
X12479586Y-16946960D01*
X12479586Y-16946960D02*
X12470063Y-16937436D01*
X12470063Y-16937436D02*
X12460539Y-16918389D01*
X12460539Y-16918389D02*
X12451015Y-16880293D01*
X12451015Y-16880293D02*
X12451015Y-16832674D01*
X12451015Y-16832674D02*
X12460539Y-16794579D01*
X12460539Y-16794579D02*
X12470063Y-16775531D01*
X12470063Y-16775531D02*
X12479586Y-16766008D01*
X12479586Y-16766008D02*
X12498634Y-16756484D01*
X12651015Y-16937436D02*
X12660539Y-16946960D01*
X12660539Y-16946960D02*
X12651015Y-16956484D01*
X12651015Y-16956484D02*
X12641491Y-16946960D01*
X12641491Y-16946960D02*
X12651015Y-16937436D01*
X12651015Y-16937436D02*
X12651015Y-16956484D01*
X12784348Y-16756484D02*
X12803396Y-16756484D01*
X12803396Y-16756484D02*
X12822444Y-16766008D01*
X12822444Y-16766008D02*
X12831967Y-16775531D01*
X12831967Y-16775531D02*
X12841491Y-16794579D01*
X12841491Y-16794579D02*
X12851015Y-16832674D01*
X12851015Y-16832674D02*
X12851015Y-16880293D01*
X12851015Y-16880293D02*
X12841491Y-16918389D01*
X12841491Y-16918389D02*
X12831967Y-16937436D01*
X12831967Y-16937436D02*
X12822444Y-16946960D01*
X12822444Y-16946960D02*
X12803396Y-16956484D01*
X12803396Y-16956484D02*
X12784348Y-16956484D01*
X12784348Y-16956484D02*
X12765301Y-16946960D01*
X12765301Y-16946960D02*
X12755777Y-16937436D01*
X12755777Y-16937436D02*
X12746253Y-16918389D01*
X12746253Y-16918389D02*
X12736729Y-16880293D01*
X12736729Y-16880293D02*
X12736729Y-16832674D01*
X12736729Y-16832674D02*
X12746253Y-16794579D01*
X12746253Y-16794579D02*
X12755777Y-16775531D01*
X12755777Y-16775531D02*
X12765301Y-16766008D01*
X12765301Y-16766008D02*
X12784348Y-16756484D01*
X12917682Y-16756484D02*
X13041491Y-16756484D01*
X13041491Y-16756484D02*
X12974825Y-16832674D01*
X12974825Y-16832674D02*
X13003396Y-16832674D01*
X13003396Y-16832674D02*
X13022444Y-16842198D01*
X13022444Y-16842198D02*
X13031967Y-16851722D01*
X13031967Y-16851722D02*
X13041491Y-16870770D01*
X13041491Y-16870770D02*
X13041491Y-16918389D01*
X13041491Y-16918389D02*
X13031967Y-16937436D01*
X13031967Y-16937436D02*
X13022444Y-16946960D01*
X13022444Y-16946960D02*
X13003396Y-16956484D01*
X13003396Y-16956484D02*
X12946253Y-16956484D01*
X12946253Y-16956484D02*
X12927206Y-16946960D01*
X12927206Y-16946960D02*
X12917682Y-16937436D01*
X13136729Y-16956484D02*
X13174825Y-16956484D01*
X13174825Y-16956484D02*
X13193872Y-16946960D01*
X13193872Y-16946960D02*
X13203396Y-16937436D01*
X13203396Y-16937436D02*
X13222444Y-16908865D01*
X13222444Y-16908865D02*
X13231967Y-16870770D01*
X13231967Y-16870770D02*
X13231967Y-16794579D01*
X13231967Y-16794579D02*
X13222444Y-16775531D01*
X13222444Y-16775531D02*
X13212920Y-16766008D01*
X13212920Y-16766008D02*
X13193872Y-16756484D01*
X13193872Y-16756484D02*
X13155777Y-16756484D01*
X13155777Y-16756484D02*
X13136729Y-16766008D01*
X13136729Y-16766008D02*
X13127206Y-16775531D01*
X13127206Y-16775531D02*
X13117682Y-16794579D01*
X13117682Y-16794579D02*
X13117682Y-16842198D01*
X13117682Y-16842198D02*
X13127206Y-16861246D01*
X13127206Y-16861246D02*
X13136729Y-16870770D01*
X13136729Y-16870770D02*
X13155777Y-16880293D01*
X13155777Y-16880293D02*
X13193872Y-16880293D01*
X13193872Y-16880293D02*
X13212920Y-16870770D01*
X13212920Y-16870770D02*
X13222444Y-16861246D01*
X13222444Y-16861246D02*
X13231967Y-16842198D01*
X13403396Y-16823150D02*
X13403396Y-16956484D01*
X13355777Y-16746960D02*
X13308158Y-16889817D01*
X13308158Y-16889817D02*
X13431967Y-16889817D01*
X13498634Y-16756484D02*
X13498634Y-16794579D01*
X13574825Y-16756484D02*
X13574825Y-16794579D01*
X13870063Y-17032674D02*
X13860539Y-17023150D01*
X13860539Y-17023150D02*
X13841491Y-16994579D01*
X13841491Y-16994579D02*
X13831968Y-16975531D01*
X13831968Y-16975531D02*
X13822444Y-16946960D01*
X13822444Y-16946960D02*
X13812920Y-16899341D01*
X13812920Y-16899341D02*
X13812920Y-16861246D01*
X13812920Y-16861246D02*
X13822444Y-16813627D01*
X13822444Y-16813627D02*
X13831968Y-16785055D01*
X13831968Y-16785055D02*
X13841491Y-16766008D01*
X13841491Y-16766008D02*
X13860539Y-16737436D01*
X13860539Y-16737436D02*
X13870063Y-16727912D01*
X14051015Y-16956484D02*
X13936729Y-16956484D01*
X13993872Y-16956484D02*
X13993872Y-16756484D01*
X13993872Y-16756484D02*
X13974825Y-16785055D01*
X13974825Y-16785055D02*
X13955777Y-16804103D01*
X13955777Y-16804103D02*
X13936729Y-16813627D01*
X14174825Y-16756484D02*
X14193872Y-16756484D01*
X14193872Y-16756484D02*
X14212920Y-16766008D01*
X14212920Y-16766008D02*
X14222444Y-16775531D01*
X14222444Y-16775531D02*
X14231968Y-16794579D01*
X14231968Y-16794579D02*
X14241491Y-16832674D01*
X14241491Y-16832674D02*
X14241491Y-16880293D01*
X14241491Y-16880293D02*
X14231968Y-16918389D01*
X14231968Y-16918389D02*
X14222444Y-16937436D01*
X14222444Y-16937436D02*
X14212920Y-16946960D01*
X14212920Y-16946960D02*
X14193872Y-16956484D01*
X14193872Y-16956484D02*
X14174825Y-16956484D01*
X14174825Y-16956484D02*
X14155777Y-16946960D01*
X14155777Y-16946960D02*
X14146253Y-16937436D01*
X14146253Y-16937436D02*
X14136729Y-16918389D01*
X14136729Y-16918389D02*
X14127206Y-16880293D01*
X14127206Y-16880293D02*
X14127206Y-16832674D01*
X14127206Y-16832674D02*
X14136729Y-16794579D01*
X14136729Y-16794579D02*
X14146253Y-16775531D01*
X14146253Y-16775531D02*
X14155777Y-16766008D01*
X14155777Y-16766008D02*
X14174825Y-16756484D01*
X14479587Y-16956484D02*
X14479587Y-16756484D01*
X14565301Y-16956484D02*
X14565301Y-16851722D01*
X14565301Y-16851722D02*
X14555777Y-16832674D01*
X14555777Y-16832674D02*
X14536730Y-16823150D01*
X14536730Y-16823150D02*
X14508158Y-16823150D01*
X14508158Y-16823150D02*
X14489110Y-16832674D01*
X14489110Y-16832674D02*
X14479587Y-16842198D01*
X14689110Y-16956484D02*
X14670063Y-16946960D01*
X14670063Y-16946960D02*
X14660539Y-16937436D01*
X14660539Y-16937436D02*
X14651015Y-16918389D01*
X14651015Y-16918389D02*
X14651015Y-16861246D01*
X14651015Y-16861246D02*
X14660539Y-16842198D01*
X14660539Y-16842198D02*
X14670063Y-16832674D01*
X14670063Y-16832674D02*
X14689110Y-16823150D01*
X14689110Y-16823150D02*
X14717682Y-16823150D01*
X14717682Y-16823150D02*
X14736730Y-16832674D01*
X14736730Y-16832674D02*
X14746253Y-16842198D01*
X14746253Y-16842198D02*
X14755777Y-16861246D01*
X14755777Y-16861246D02*
X14755777Y-16918389D01*
X14755777Y-16918389D02*
X14746253Y-16937436D01*
X14746253Y-16937436D02*
X14736730Y-16946960D01*
X14736730Y-16946960D02*
X14717682Y-16956484D01*
X14717682Y-16956484D02*
X14689110Y-16956484D01*
X14870063Y-16956484D02*
X14851015Y-16946960D01*
X14851015Y-16946960D02*
X14841491Y-16927912D01*
X14841491Y-16927912D02*
X14841491Y-16756484D01*
X15022444Y-16946960D02*
X15003396Y-16956484D01*
X15003396Y-16956484D02*
X14965301Y-16956484D01*
X14965301Y-16956484D02*
X14946253Y-16946960D01*
X14946253Y-16946960D02*
X14936730Y-16927912D01*
X14936730Y-16927912D02*
X14936730Y-16851722D01*
X14936730Y-16851722D02*
X14946253Y-16832674D01*
X14946253Y-16832674D02*
X14965301Y-16823150D01*
X14965301Y-16823150D02*
X15003396Y-16823150D01*
X15003396Y-16823150D02*
X15022444Y-16832674D01*
X15022444Y-16832674D02*
X15031968Y-16851722D01*
X15031968Y-16851722D02*
X15031968Y-16870770D01*
X15031968Y-16870770D02*
X14936730Y-16889817D01*
X15108158Y-16946960D02*
X15127206Y-16956484D01*
X15127206Y-16956484D02*
X15165301Y-16956484D01*
X15165301Y-16956484D02*
X15184349Y-16946960D01*
X15184349Y-16946960D02*
X15193872Y-16927912D01*
X15193872Y-16927912D02*
X15193872Y-16918389D01*
X15193872Y-16918389D02*
X15184349Y-16899341D01*
X15184349Y-16899341D02*
X15165301Y-16889817D01*
X15165301Y-16889817D02*
X15136730Y-16889817D01*
X15136730Y-16889817D02*
X15117682Y-16880293D01*
X15117682Y-16880293D02*
X15108158Y-16861246D01*
X15108158Y-16861246D02*
X15108158Y-16851722D01*
X15108158Y-16851722D02*
X15117682Y-16832674D01*
X15117682Y-16832674D02*
X15136730Y-16823150D01*
X15136730Y-16823150D02*
X15165301Y-16823150D01*
X15165301Y-16823150D02*
X15184349Y-16832674D01*
X15260539Y-17032674D02*
X15270063Y-17023150D01*
X15270063Y-17023150D02*
X15289111Y-16994579D01*
X15289111Y-16994579D02*
X15298634Y-16975531D01*
X15298634Y-16975531D02*
X15308158Y-16946960D01*
X15308158Y-16946960D02*
X15317682Y-16899341D01*
X15317682Y-16899341D02*
X15317682Y-16861246D01*
X15317682Y-16861246D02*
X15308158Y-16813627D01*
X15308158Y-16813627D02*
X15298634Y-16785055D01*
X15298634Y-16785055D02*
X15289111Y-16766008D01*
X15289111Y-16766008D02*
X15270063Y-16737436D01*
X15270063Y-16737436D02*
X15260539Y-16727912D01*
D13*
X10190000Y-17076500D02*
X10295000Y-17181500D01*
X10295000Y-17076500D02*
X10190000Y-17181500D01*
X10242500Y-17076500D02*
X10242500Y-17181500D01*
X10190000Y-17129000D02*
X10295000Y-17129000D01*
D12*
X10660539Y-17220484D02*
X10546253Y-17220484D01*
X10603396Y-17220484D02*
X10603396Y-17020484D01*
X10603396Y-17020484D02*
X10584348Y-17049055D01*
X10584348Y-17049055D02*
X10565301Y-17068103D01*
X10565301Y-17068103D02*
X10546253Y-17077627D01*
X10746253Y-17201436D02*
X10755777Y-17210960D01*
X10755777Y-17210960D02*
X10746253Y-17220484D01*
X10746253Y-17220484D02*
X10736729Y-17210960D01*
X10736729Y-17210960D02*
X10746253Y-17201436D01*
X10746253Y-17201436D02*
X10746253Y-17220484D01*
X10879586Y-17020484D02*
X10898634Y-17020484D01*
X10898634Y-17020484D02*
X10917682Y-17030008D01*
X10917682Y-17030008D02*
X10927205Y-17039531D01*
X10927205Y-17039531D02*
X10936729Y-17058579D01*
X10936729Y-17058579D02*
X10946253Y-17096674D01*
X10946253Y-17096674D02*
X10946253Y-17144293D01*
X10946253Y-17144293D02*
X10936729Y-17182389D01*
X10936729Y-17182389D02*
X10927205Y-17201436D01*
X10927205Y-17201436D02*
X10917682Y-17210960D01*
X10917682Y-17210960D02*
X10898634Y-17220484D01*
X10898634Y-17220484D02*
X10879586Y-17220484D01*
X10879586Y-17220484D02*
X10860539Y-17210960D01*
X10860539Y-17210960D02*
X10851015Y-17201436D01*
X10851015Y-17201436D02*
X10841491Y-17182389D01*
X10841491Y-17182389D02*
X10831967Y-17144293D01*
X10831967Y-17144293D02*
X10831967Y-17096674D01*
X10831967Y-17096674D02*
X10841491Y-17058579D01*
X10841491Y-17058579D02*
X10851015Y-17039531D01*
X10851015Y-17039531D02*
X10860539Y-17030008D01*
X10860539Y-17030008D02*
X10879586Y-17020484D01*
X11127205Y-17020484D02*
X11031967Y-17020484D01*
X11031967Y-17020484D02*
X11022444Y-17115722D01*
X11022444Y-17115722D02*
X11031967Y-17106198D01*
X11031967Y-17106198D02*
X11051015Y-17096674D01*
X11051015Y-17096674D02*
X11098634Y-17096674D01*
X11098634Y-17096674D02*
X11117682Y-17106198D01*
X11117682Y-17106198D02*
X11127205Y-17115722D01*
X11127205Y-17115722D02*
X11136729Y-17134770D01*
X11136729Y-17134770D02*
X11136729Y-17182389D01*
X11136729Y-17182389D02*
X11127205Y-17201436D01*
X11127205Y-17201436D02*
X11117682Y-17210960D01*
X11117682Y-17210960D02*
X11098634Y-17220484D01*
X11098634Y-17220484D02*
X11051015Y-17220484D01*
X11051015Y-17220484D02*
X11031967Y-17210960D01*
X11031967Y-17210960D02*
X11022444Y-17201436D01*
X11260539Y-17020484D02*
X11279586Y-17020484D01*
X11279586Y-17020484D02*
X11298634Y-17030008D01*
X11298634Y-17030008D02*
X11308158Y-17039531D01*
X11308158Y-17039531D02*
X11317682Y-17058579D01*
X11317682Y-17058579D02*
X11327205Y-17096674D01*
X11327205Y-17096674D02*
X11327205Y-17144293D01*
X11327205Y-17144293D02*
X11317682Y-17182389D01*
X11317682Y-17182389D02*
X11308158Y-17201436D01*
X11308158Y-17201436D02*
X11298634Y-17210960D01*
X11298634Y-17210960D02*
X11279586Y-17220484D01*
X11279586Y-17220484D02*
X11260539Y-17220484D01*
X11260539Y-17220484D02*
X11241491Y-17210960D01*
X11241491Y-17210960D02*
X11231967Y-17201436D01*
X11231967Y-17201436D02*
X11222443Y-17182389D01*
X11222443Y-17182389D02*
X11212920Y-17144293D01*
X11212920Y-17144293D02*
X11212920Y-17096674D01*
X11212920Y-17096674D02*
X11222443Y-17058579D01*
X11222443Y-17058579D02*
X11231967Y-17039531D01*
X11231967Y-17039531D02*
X11241491Y-17030008D01*
X11241491Y-17030008D02*
X11260539Y-17020484D01*
X11412920Y-17220484D02*
X11412920Y-17087150D01*
X11412920Y-17106198D02*
X11422443Y-17096674D01*
X11422443Y-17096674D02*
X11441491Y-17087150D01*
X11441491Y-17087150D02*
X11470063Y-17087150D01*
X11470063Y-17087150D02*
X11489110Y-17096674D01*
X11489110Y-17096674D02*
X11498634Y-17115722D01*
X11498634Y-17115722D02*
X11498634Y-17220484D01*
X11498634Y-17115722D02*
X11508158Y-17096674D01*
X11508158Y-17096674D02*
X11527205Y-17087150D01*
X11527205Y-17087150D02*
X11555777Y-17087150D01*
X11555777Y-17087150D02*
X11574824Y-17096674D01*
X11574824Y-17096674D02*
X11584348Y-17115722D01*
X11584348Y-17115722D02*
X11584348Y-17220484D01*
X11679586Y-17220484D02*
X11679586Y-17087150D01*
X11679586Y-17106198D02*
X11689110Y-17096674D01*
X11689110Y-17096674D02*
X11708158Y-17087150D01*
X11708158Y-17087150D02*
X11736729Y-17087150D01*
X11736729Y-17087150D02*
X11755777Y-17096674D01*
X11755777Y-17096674D02*
X11765301Y-17115722D01*
X11765301Y-17115722D02*
X11765301Y-17220484D01*
X11765301Y-17115722D02*
X11774824Y-17096674D01*
X11774824Y-17096674D02*
X11793872Y-17087150D01*
X11793872Y-17087150D02*
X11822443Y-17087150D01*
X11822443Y-17087150D02*
X11841491Y-17096674D01*
X11841491Y-17096674D02*
X11851015Y-17115722D01*
X11851015Y-17115722D02*
X11851015Y-17220484D01*
X12241491Y-17010960D02*
X12070063Y-17268103D01*
X12498634Y-17020484D02*
X12517682Y-17020484D01*
X12517682Y-17020484D02*
X12536729Y-17030008D01*
X12536729Y-17030008D02*
X12546253Y-17039531D01*
X12546253Y-17039531D02*
X12555777Y-17058579D01*
X12555777Y-17058579D02*
X12565301Y-17096674D01*
X12565301Y-17096674D02*
X12565301Y-17144293D01*
X12565301Y-17144293D02*
X12555777Y-17182389D01*
X12555777Y-17182389D02*
X12546253Y-17201436D01*
X12546253Y-17201436D02*
X12536729Y-17210960D01*
X12536729Y-17210960D02*
X12517682Y-17220484D01*
X12517682Y-17220484D02*
X12498634Y-17220484D01*
X12498634Y-17220484D02*
X12479586Y-17210960D01*
X12479586Y-17210960D02*
X12470063Y-17201436D01*
X12470063Y-17201436D02*
X12460539Y-17182389D01*
X12460539Y-17182389D02*
X12451015Y-17144293D01*
X12451015Y-17144293D02*
X12451015Y-17096674D01*
X12451015Y-17096674D02*
X12460539Y-17058579D01*
X12460539Y-17058579D02*
X12470063Y-17039531D01*
X12470063Y-17039531D02*
X12479586Y-17030008D01*
X12479586Y-17030008D02*
X12498634Y-17020484D01*
X12651015Y-17201436D02*
X12660539Y-17210960D01*
X12660539Y-17210960D02*
X12651015Y-17220484D01*
X12651015Y-17220484D02*
X12641491Y-17210960D01*
X12641491Y-17210960D02*
X12651015Y-17201436D01*
X12651015Y-17201436D02*
X12651015Y-17220484D01*
X12784348Y-17020484D02*
X12803396Y-17020484D01*
X12803396Y-17020484D02*
X12822444Y-17030008D01*
X12822444Y-17030008D02*
X12831967Y-17039531D01*
X12831967Y-17039531D02*
X12841491Y-17058579D01*
X12841491Y-17058579D02*
X12851015Y-17096674D01*
X12851015Y-17096674D02*
X12851015Y-17144293D01*
X12851015Y-17144293D02*
X12841491Y-17182389D01*
X12841491Y-17182389D02*
X12831967Y-17201436D01*
X12831967Y-17201436D02*
X12822444Y-17210960D01*
X12822444Y-17210960D02*
X12803396Y-17220484D01*
X12803396Y-17220484D02*
X12784348Y-17220484D01*
X12784348Y-17220484D02*
X12765301Y-17210960D01*
X12765301Y-17210960D02*
X12755777Y-17201436D01*
X12755777Y-17201436D02*
X12746253Y-17182389D01*
X12746253Y-17182389D02*
X12736729Y-17144293D01*
X12736729Y-17144293D02*
X12736729Y-17096674D01*
X12736729Y-17096674D02*
X12746253Y-17058579D01*
X12746253Y-17058579D02*
X12755777Y-17039531D01*
X12755777Y-17039531D02*
X12765301Y-17030008D01*
X12765301Y-17030008D02*
X12784348Y-17020484D01*
X13022444Y-17087150D02*
X13022444Y-17220484D01*
X12974825Y-17010960D02*
X12927206Y-17153817D01*
X12927206Y-17153817D02*
X13051015Y-17153817D01*
X13231967Y-17220484D02*
X13117682Y-17220484D01*
X13174825Y-17220484D02*
X13174825Y-17020484D01*
X13174825Y-17020484D02*
X13155777Y-17049055D01*
X13155777Y-17049055D02*
X13136729Y-17068103D01*
X13136729Y-17068103D02*
X13117682Y-17077627D01*
X13298634Y-17020484D02*
X13422444Y-17020484D01*
X13422444Y-17020484D02*
X13355777Y-17096674D01*
X13355777Y-17096674D02*
X13384348Y-17096674D01*
X13384348Y-17096674D02*
X13403396Y-17106198D01*
X13403396Y-17106198D02*
X13412920Y-17115722D01*
X13412920Y-17115722D02*
X13422444Y-17134770D01*
X13422444Y-17134770D02*
X13422444Y-17182389D01*
X13422444Y-17182389D02*
X13412920Y-17201436D01*
X13412920Y-17201436D02*
X13403396Y-17210960D01*
X13403396Y-17210960D02*
X13384348Y-17220484D01*
X13384348Y-17220484D02*
X13327206Y-17220484D01*
X13327206Y-17220484D02*
X13308158Y-17210960D01*
X13308158Y-17210960D02*
X13298634Y-17201436D01*
X13498634Y-17020484D02*
X13498634Y-17058579D01*
X13574825Y-17020484D02*
X13574825Y-17058579D01*
X13870063Y-17296674D02*
X13860539Y-17287150D01*
X13860539Y-17287150D02*
X13841491Y-17258579D01*
X13841491Y-17258579D02*
X13831968Y-17239531D01*
X13831968Y-17239531D02*
X13822444Y-17210960D01*
X13822444Y-17210960D02*
X13812920Y-17163341D01*
X13812920Y-17163341D02*
X13812920Y-17125246D01*
X13812920Y-17125246D02*
X13822444Y-17077627D01*
X13822444Y-17077627D02*
X13831968Y-17049055D01*
X13831968Y-17049055D02*
X13841491Y-17030008D01*
X13841491Y-17030008D02*
X13860539Y-17001436D01*
X13860539Y-17001436D02*
X13870063Y-16991912D01*
X13936729Y-17039531D02*
X13946253Y-17030008D01*
X13946253Y-17030008D02*
X13965301Y-17020484D01*
X13965301Y-17020484D02*
X14012920Y-17020484D01*
X14012920Y-17020484D02*
X14031968Y-17030008D01*
X14031968Y-17030008D02*
X14041491Y-17039531D01*
X14041491Y-17039531D02*
X14051015Y-17058579D01*
X14051015Y-17058579D02*
X14051015Y-17077627D01*
X14051015Y-17077627D02*
X14041491Y-17106198D01*
X14041491Y-17106198D02*
X13927206Y-17220484D01*
X13927206Y-17220484D02*
X14051015Y-17220484D01*
X14165301Y-17106198D02*
X14146253Y-17096674D01*
X14146253Y-17096674D02*
X14136729Y-17087150D01*
X14136729Y-17087150D02*
X14127206Y-17068103D01*
X14127206Y-17068103D02*
X14127206Y-17058579D01*
X14127206Y-17058579D02*
X14136729Y-17039531D01*
X14136729Y-17039531D02*
X14146253Y-17030008D01*
X14146253Y-17030008D02*
X14165301Y-17020484D01*
X14165301Y-17020484D02*
X14203396Y-17020484D01*
X14203396Y-17020484D02*
X14222444Y-17030008D01*
X14222444Y-17030008D02*
X14231968Y-17039531D01*
X14231968Y-17039531D02*
X14241491Y-17058579D01*
X14241491Y-17058579D02*
X14241491Y-17068103D01*
X14241491Y-17068103D02*
X14231968Y-17087150D01*
X14231968Y-17087150D02*
X14222444Y-17096674D01*
X14222444Y-17096674D02*
X14203396Y-17106198D01*
X14203396Y-17106198D02*
X14165301Y-17106198D01*
X14165301Y-17106198D02*
X14146253Y-17115722D01*
X14146253Y-17115722D02*
X14136729Y-17125246D01*
X14136729Y-17125246D02*
X14127206Y-17144293D01*
X14127206Y-17144293D02*
X14127206Y-17182389D01*
X14127206Y-17182389D02*
X14136729Y-17201436D01*
X14136729Y-17201436D02*
X14146253Y-17210960D01*
X14146253Y-17210960D02*
X14165301Y-17220484D01*
X14165301Y-17220484D02*
X14203396Y-17220484D01*
X14203396Y-17220484D02*
X14222444Y-17210960D01*
X14222444Y-17210960D02*
X14231968Y-17201436D01*
X14231968Y-17201436D02*
X14241491Y-17182389D01*
X14241491Y-17182389D02*
X14241491Y-17144293D01*
X14241491Y-17144293D02*
X14231968Y-17125246D01*
X14231968Y-17125246D02*
X14222444Y-17115722D01*
X14222444Y-17115722D02*
X14203396Y-17106198D01*
X14479587Y-17220484D02*
X14479587Y-17020484D01*
X14565301Y-17220484D02*
X14565301Y-17115722D01*
X14565301Y-17115722D02*
X14555777Y-17096674D01*
X14555777Y-17096674D02*
X14536730Y-17087150D01*
X14536730Y-17087150D02*
X14508158Y-17087150D01*
X14508158Y-17087150D02*
X14489110Y-17096674D01*
X14489110Y-17096674D02*
X14479587Y-17106198D01*
X14689110Y-17220484D02*
X14670063Y-17210960D01*
X14670063Y-17210960D02*
X14660539Y-17201436D01*
X14660539Y-17201436D02*
X14651015Y-17182389D01*
X14651015Y-17182389D02*
X14651015Y-17125246D01*
X14651015Y-17125246D02*
X14660539Y-17106198D01*
X14660539Y-17106198D02*
X14670063Y-17096674D01*
X14670063Y-17096674D02*
X14689110Y-17087150D01*
X14689110Y-17087150D02*
X14717682Y-17087150D01*
X14717682Y-17087150D02*
X14736730Y-17096674D01*
X14736730Y-17096674D02*
X14746253Y-17106198D01*
X14746253Y-17106198D02*
X14755777Y-17125246D01*
X14755777Y-17125246D02*
X14755777Y-17182389D01*
X14755777Y-17182389D02*
X14746253Y-17201436D01*
X14746253Y-17201436D02*
X14736730Y-17210960D01*
X14736730Y-17210960D02*
X14717682Y-17220484D01*
X14717682Y-17220484D02*
X14689110Y-17220484D01*
X14870063Y-17220484D02*
X14851015Y-17210960D01*
X14851015Y-17210960D02*
X14841491Y-17191912D01*
X14841491Y-17191912D02*
X14841491Y-17020484D01*
X15022444Y-17210960D02*
X15003396Y-17220484D01*
X15003396Y-17220484D02*
X14965301Y-17220484D01*
X14965301Y-17220484D02*
X14946253Y-17210960D01*
X14946253Y-17210960D02*
X14936730Y-17191912D01*
X14936730Y-17191912D02*
X14936730Y-17115722D01*
X14936730Y-17115722D02*
X14946253Y-17096674D01*
X14946253Y-17096674D02*
X14965301Y-17087150D01*
X14965301Y-17087150D02*
X15003396Y-17087150D01*
X15003396Y-17087150D02*
X15022444Y-17096674D01*
X15022444Y-17096674D02*
X15031968Y-17115722D01*
X15031968Y-17115722D02*
X15031968Y-17134770D01*
X15031968Y-17134770D02*
X14936730Y-17153817D01*
X15108158Y-17210960D02*
X15127206Y-17220484D01*
X15127206Y-17220484D02*
X15165301Y-17220484D01*
X15165301Y-17220484D02*
X15184349Y-17210960D01*
X15184349Y-17210960D02*
X15193872Y-17191912D01*
X15193872Y-17191912D02*
X15193872Y-17182389D01*
X15193872Y-17182389D02*
X15184349Y-17163341D01*
X15184349Y-17163341D02*
X15165301Y-17153817D01*
X15165301Y-17153817D02*
X15136730Y-17153817D01*
X15136730Y-17153817D02*
X15117682Y-17144293D01*
X15117682Y-17144293D02*
X15108158Y-17125246D01*
X15108158Y-17125246D02*
X15108158Y-17115722D01*
X15108158Y-17115722D02*
X15117682Y-17096674D01*
X15117682Y-17096674D02*
X15136730Y-17087150D01*
X15136730Y-17087150D02*
X15165301Y-17087150D01*
X15165301Y-17087150D02*
X15184349Y-17096674D01*
X15260539Y-17296674D02*
X15270063Y-17287150D01*
X15270063Y-17287150D02*
X15289111Y-17258579D01*
X15289111Y-17258579D02*
X15298634Y-17239531D01*
X15298634Y-17239531D02*
X15308158Y-17210960D01*
X15308158Y-17210960D02*
X15317682Y-17163341D01*
X15317682Y-17163341D02*
X15317682Y-17125246D01*
X15317682Y-17125246D02*
X15308158Y-17077627D01*
X15308158Y-17077627D02*
X15298634Y-17049055D01*
X15298634Y-17049055D02*
X15289111Y-17030008D01*
X15289111Y-17030008D02*
X15270063Y-17001436D01*
X15270063Y-17001436D02*
X15260539Y-16991912D01*
D14*
X10185000Y-17338000D02*
X10295000Y-17448000D01*
X10295000Y-17338000D02*
X10185000Y-17448000D01*
X10278891Y-17431891D02*
X10278891Y-17354109D01*
X10201109Y-17354109D01*
X10201109Y-17431891D01*
X10278891Y-17431891D01*
D12*
X10660539Y-17484484D02*
X10546253Y-17484484D01*
X10603396Y-17484484D02*
X10603396Y-17284484D01*
X10603396Y-17284484D02*
X10584348Y-17313055D01*
X10584348Y-17313055D02*
X10565301Y-17332103D01*
X10565301Y-17332103D02*
X10546253Y-17341627D01*
X10746253Y-17465436D02*
X10755777Y-17474960D01*
X10755777Y-17474960D02*
X10746253Y-17484484D01*
X10746253Y-17484484D02*
X10736729Y-17474960D01*
X10736729Y-17474960D02*
X10746253Y-17465436D01*
X10746253Y-17465436D02*
X10746253Y-17484484D01*
X10946253Y-17484484D02*
X10831967Y-17484484D01*
X10889110Y-17484484D02*
X10889110Y-17284484D01*
X10889110Y-17284484D02*
X10870063Y-17313055D01*
X10870063Y-17313055D02*
X10851015Y-17332103D01*
X10851015Y-17332103D02*
X10831967Y-17341627D01*
X11070063Y-17284484D02*
X11089110Y-17284484D01*
X11089110Y-17284484D02*
X11108158Y-17294008D01*
X11108158Y-17294008D02*
X11117682Y-17303531D01*
X11117682Y-17303531D02*
X11127205Y-17322579D01*
X11127205Y-17322579D02*
X11136729Y-17360674D01*
X11136729Y-17360674D02*
X11136729Y-17408293D01*
X11136729Y-17408293D02*
X11127205Y-17446389D01*
X11127205Y-17446389D02*
X11117682Y-17465436D01*
X11117682Y-17465436D02*
X11108158Y-17474960D01*
X11108158Y-17474960D02*
X11089110Y-17484484D01*
X11089110Y-17484484D02*
X11070063Y-17484484D01*
X11070063Y-17484484D02*
X11051015Y-17474960D01*
X11051015Y-17474960D02*
X11041491Y-17465436D01*
X11041491Y-17465436D02*
X11031967Y-17446389D01*
X11031967Y-17446389D02*
X11022444Y-17408293D01*
X11022444Y-17408293D02*
X11022444Y-17360674D01*
X11022444Y-17360674D02*
X11031967Y-17322579D01*
X11031967Y-17322579D02*
X11041491Y-17303531D01*
X11041491Y-17303531D02*
X11051015Y-17294008D01*
X11051015Y-17294008D02*
X11070063Y-17284484D01*
X11260539Y-17284484D02*
X11279586Y-17284484D01*
X11279586Y-17284484D02*
X11298634Y-17294008D01*
X11298634Y-17294008D02*
X11308158Y-17303531D01*
X11308158Y-17303531D02*
X11317682Y-17322579D01*
X11317682Y-17322579D02*
X11327205Y-17360674D01*
X11327205Y-17360674D02*
X11327205Y-17408293D01*
X11327205Y-17408293D02*
X11317682Y-17446389D01*
X11317682Y-17446389D02*
X11308158Y-17465436D01*
X11308158Y-17465436D02*
X11298634Y-17474960D01*
X11298634Y-17474960D02*
X11279586Y-17484484D01*
X11279586Y-17484484D02*
X11260539Y-17484484D01*
X11260539Y-17484484D02*
X11241491Y-17474960D01*
X11241491Y-17474960D02*
X11231967Y-17465436D01*
X11231967Y-17465436D02*
X11222443Y-17446389D01*
X11222443Y-17446389D02*
X11212920Y-17408293D01*
X11212920Y-17408293D02*
X11212920Y-17360674D01*
X11212920Y-17360674D02*
X11222443Y-17322579D01*
X11222443Y-17322579D02*
X11231967Y-17303531D01*
X11231967Y-17303531D02*
X11241491Y-17294008D01*
X11241491Y-17294008D02*
X11260539Y-17284484D01*
X11412920Y-17484484D02*
X11412920Y-17351150D01*
X11412920Y-17370198D02*
X11422443Y-17360674D01*
X11422443Y-17360674D02*
X11441491Y-17351150D01*
X11441491Y-17351150D02*
X11470063Y-17351150D01*
X11470063Y-17351150D02*
X11489110Y-17360674D01*
X11489110Y-17360674D02*
X11498634Y-17379722D01*
X11498634Y-17379722D02*
X11498634Y-17484484D01*
X11498634Y-17379722D02*
X11508158Y-17360674D01*
X11508158Y-17360674D02*
X11527205Y-17351150D01*
X11527205Y-17351150D02*
X11555777Y-17351150D01*
X11555777Y-17351150D02*
X11574824Y-17360674D01*
X11574824Y-17360674D02*
X11584348Y-17379722D01*
X11584348Y-17379722D02*
X11584348Y-17484484D01*
X11679586Y-17484484D02*
X11679586Y-17351150D01*
X11679586Y-17370198D02*
X11689110Y-17360674D01*
X11689110Y-17360674D02*
X11708158Y-17351150D01*
X11708158Y-17351150D02*
X11736729Y-17351150D01*
X11736729Y-17351150D02*
X11755777Y-17360674D01*
X11755777Y-17360674D02*
X11765301Y-17379722D01*
X11765301Y-17379722D02*
X11765301Y-17484484D01*
X11765301Y-17379722D02*
X11774824Y-17360674D01*
X11774824Y-17360674D02*
X11793872Y-17351150D01*
X11793872Y-17351150D02*
X11822443Y-17351150D01*
X11822443Y-17351150D02*
X11841491Y-17360674D01*
X11841491Y-17360674D02*
X11851015Y-17379722D01*
X11851015Y-17379722D02*
X11851015Y-17484484D01*
X12241491Y-17274960D02*
X12070063Y-17532103D01*
X12498634Y-17284484D02*
X12517682Y-17284484D01*
X12517682Y-17284484D02*
X12536729Y-17294008D01*
X12536729Y-17294008D02*
X12546253Y-17303531D01*
X12546253Y-17303531D02*
X12555777Y-17322579D01*
X12555777Y-17322579D02*
X12565301Y-17360674D01*
X12565301Y-17360674D02*
X12565301Y-17408293D01*
X12565301Y-17408293D02*
X12555777Y-17446389D01*
X12555777Y-17446389D02*
X12546253Y-17465436D01*
X12546253Y-17465436D02*
X12536729Y-17474960D01*
X12536729Y-17474960D02*
X12517682Y-17484484D01*
X12517682Y-17484484D02*
X12498634Y-17484484D01*
X12498634Y-17484484D02*
X12479586Y-17474960D01*
X12479586Y-17474960D02*
X12470063Y-17465436D01*
X12470063Y-17465436D02*
X12460539Y-17446389D01*
X12460539Y-17446389D02*
X12451015Y-17408293D01*
X12451015Y-17408293D02*
X12451015Y-17360674D01*
X12451015Y-17360674D02*
X12460539Y-17322579D01*
X12460539Y-17322579D02*
X12470063Y-17303531D01*
X12470063Y-17303531D02*
X12479586Y-17294008D01*
X12479586Y-17294008D02*
X12498634Y-17284484D01*
X12651015Y-17465436D02*
X12660539Y-17474960D01*
X12660539Y-17474960D02*
X12651015Y-17484484D01*
X12651015Y-17484484D02*
X12641491Y-17474960D01*
X12641491Y-17474960D02*
X12651015Y-17465436D01*
X12651015Y-17465436D02*
X12651015Y-17484484D01*
X12784348Y-17284484D02*
X12803396Y-17284484D01*
X12803396Y-17284484D02*
X12822444Y-17294008D01*
X12822444Y-17294008D02*
X12831967Y-17303531D01*
X12831967Y-17303531D02*
X12841491Y-17322579D01*
X12841491Y-17322579D02*
X12851015Y-17360674D01*
X12851015Y-17360674D02*
X12851015Y-17408293D01*
X12851015Y-17408293D02*
X12841491Y-17446389D01*
X12841491Y-17446389D02*
X12831967Y-17465436D01*
X12831967Y-17465436D02*
X12822444Y-17474960D01*
X12822444Y-17474960D02*
X12803396Y-17484484D01*
X12803396Y-17484484D02*
X12784348Y-17484484D01*
X12784348Y-17484484D02*
X12765301Y-17474960D01*
X12765301Y-17474960D02*
X12755777Y-17465436D01*
X12755777Y-17465436D02*
X12746253Y-17446389D01*
X12746253Y-17446389D02*
X12736729Y-17408293D01*
X12736729Y-17408293D02*
X12736729Y-17360674D01*
X12736729Y-17360674D02*
X12746253Y-17322579D01*
X12746253Y-17322579D02*
X12755777Y-17303531D01*
X12755777Y-17303531D02*
X12765301Y-17294008D01*
X12765301Y-17294008D02*
X12784348Y-17284484D01*
X13022444Y-17351150D02*
X13022444Y-17484484D01*
X12974825Y-17274960D02*
X12927206Y-17417817D01*
X12927206Y-17417817D02*
X13051015Y-17417817D01*
X13108158Y-17284484D02*
X13231967Y-17284484D01*
X13231967Y-17284484D02*
X13165301Y-17360674D01*
X13165301Y-17360674D02*
X13193872Y-17360674D01*
X13193872Y-17360674D02*
X13212920Y-17370198D01*
X13212920Y-17370198D02*
X13222444Y-17379722D01*
X13222444Y-17379722D02*
X13231967Y-17398770D01*
X13231967Y-17398770D02*
X13231967Y-17446389D01*
X13231967Y-17446389D02*
X13222444Y-17465436D01*
X13222444Y-17465436D02*
X13212920Y-17474960D01*
X13212920Y-17474960D02*
X13193872Y-17484484D01*
X13193872Y-17484484D02*
X13136729Y-17484484D01*
X13136729Y-17484484D02*
X13117682Y-17474960D01*
X13117682Y-17474960D02*
X13108158Y-17465436D01*
X13298634Y-17284484D02*
X13422444Y-17284484D01*
X13422444Y-17284484D02*
X13355777Y-17360674D01*
X13355777Y-17360674D02*
X13384348Y-17360674D01*
X13384348Y-17360674D02*
X13403396Y-17370198D01*
X13403396Y-17370198D02*
X13412920Y-17379722D01*
X13412920Y-17379722D02*
X13422444Y-17398770D01*
X13422444Y-17398770D02*
X13422444Y-17446389D01*
X13422444Y-17446389D02*
X13412920Y-17465436D01*
X13412920Y-17465436D02*
X13403396Y-17474960D01*
X13403396Y-17474960D02*
X13384348Y-17484484D01*
X13384348Y-17484484D02*
X13327206Y-17484484D01*
X13327206Y-17484484D02*
X13308158Y-17474960D01*
X13308158Y-17474960D02*
X13298634Y-17465436D01*
X13498634Y-17284484D02*
X13498634Y-17322579D01*
X13574825Y-17284484D02*
X13574825Y-17322579D01*
X13870063Y-17560674D02*
X13860539Y-17551150D01*
X13860539Y-17551150D02*
X13841491Y-17522579D01*
X13841491Y-17522579D02*
X13831968Y-17503531D01*
X13831968Y-17503531D02*
X13822444Y-17474960D01*
X13822444Y-17474960D02*
X13812920Y-17427341D01*
X13812920Y-17427341D02*
X13812920Y-17389246D01*
X13812920Y-17389246D02*
X13822444Y-17341627D01*
X13822444Y-17341627D02*
X13831968Y-17313055D01*
X13831968Y-17313055D02*
X13841491Y-17294008D01*
X13841491Y-17294008D02*
X13860539Y-17265436D01*
X13860539Y-17265436D02*
X13870063Y-17255912D01*
X13927206Y-17284484D02*
X14051015Y-17284484D01*
X14051015Y-17284484D02*
X13984348Y-17360674D01*
X13984348Y-17360674D02*
X14012920Y-17360674D01*
X14012920Y-17360674D02*
X14031968Y-17370198D01*
X14031968Y-17370198D02*
X14041491Y-17379722D01*
X14041491Y-17379722D02*
X14051015Y-17398770D01*
X14051015Y-17398770D02*
X14051015Y-17446389D01*
X14051015Y-17446389D02*
X14041491Y-17465436D01*
X14041491Y-17465436D02*
X14031968Y-17474960D01*
X14031968Y-17474960D02*
X14012920Y-17484484D01*
X14012920Y-17484484D02*
X13955777Y-17484484D01*
X13955777Y-17484484D02*
X13936729Y-17474960D01*
X13936729Y-17474960D02*
X13927206Y-17465436D01*
X14127206Y-17303531D02*
X14136729Y-17294008D01*
X14136729Y-17294008D02*
X14155777Y-17284484D01*
X14155777Y-17284484D02*
X14203396Y-17284484D01*
X14203396Y-17284484D02*
X14222444Y-17294008D01*
X14222444Y-17294008D02*
X14231968Y-17303531D01*
X14231968Y-17303531D02*
X14241491Y-17322579D01*
X14241491Y-17322579D02*
X14241491Y-17341627D01*
X14241491Y-17341627D02*
X14231968Y-17370198D01*
X14231968Y-17370198D02*
X14117682Y-17484484D01*
X14117682Y-17484484D02*
X14241491Y-17484484D01*
X14479587Y-17484484D02*
X14479587Y-17284484D01*
X14565301Y-17484484D02*
X14565301Y-17379722D01*
X14565301Y-17379722D02*
X14555777Y-17360674D01*
X14555777Y-17360674D02*
X14536730Y-17351150D01*
X14536730Y-17351150D02*
X14508158Y-17351150D01*
X14508158Y-17351150D02*
X14489110Y-17360674D01*
X14489110Y-17360674D02*
X14479587Y-17370198D01*
X14689110Y-17484484D02*
X14670063Y-17474960D01*
X14670063Y-17474960D02*
X14660539Y-17465436D01*
X14660539Y-17465436D02*
X14651015Y-17446389D01*
X14651015Y-17446389D02*
X14651015Y-17389246D01*
X14651015Y-17389246D02*
X14660539Y-17370198D01*
X14660539Y-17370198D02*
X14670063Y-17360674D01*
X14670063Y-17360674D02*
X14689110Y-17351150D01*
X14689110Y-17351150D02*
X14717682Y-17351150D01*
X14717682Y-17351150D02*
X14736730Y-17360674D01*
X14736730Y-17360674D02*
X14746253Y-17370198D01*
X14746253Y-17370198D02*
X14755777Y-17389246D01*
X14755777Y-17389246D02*
X14755777Y-17446389D01*
X14755777Y-17446389D02*
X14746253Y-17465436D01*
X14746253Y-17465436D02*
X14736730Y-17474960D01*
X14736730Y-17474960D02*
X14717682Y-17484484D01*
X14717682Y-17484484D02*
X14689110Y-17484484D01*
X14870063Y-17484484D02*
X14851015Y-17474960D01*
X14851015Y-17474960D02*
X14841491Y-17455912D01*
X14841491Y-17455912D02*
X14841491Y-17284484D01*
X15022444Y-17474960D02*
X15003396Y-17484484D01*
X15003396Y-17484484D02*
X14965301Y-17484484D01*
X14965301Y-17484484D02*
X14946253Y-17474960D01*
X14946253Y-17474960D02*
X14936730Y-17455912D01*
X14936730Y-17455912D02*
X14936730Y-17379722D01*
X14936730Y-17379722D02*
X14946253Y-17360674D01*
X14946253Y-17360674D02*
X14965301Y-17351150D01*
X14965301Y-17351150D02*
X15003396Y-17351150D01*
X15003396Y-17351150D02*
X15022444Y-17360674D01*
X15022444Y-17360674D02*
X15031968Y-17379722D01*
X15031968Y-17379722D02*
X15031968Y-17398770D01*
X15031968Y-17398770D02*
X14936730Y-17417817D01*
X15108158Y-17474960D02*
X15127206Y-17484484D01*
X15127206Y-17484484D02*
X15165301Y-17484484D01*
X15165301Y-17484484D02*
X15184349Y-17474960D01*
X15184349Y-17474960D02*
X15193872Y-17455912D01*
X15193872Y-17455912D02*
X15193872Y-17446389D01*
X15193872Y-17446389D02*
X15184349Y-17427341D01*
X15184349Y-17427341D02*
X15165301Y-17417817D01*
X15165301Y-17417817D02*
X15136730Y-17417817D01*
X15136730Y-17417817D02*
X15117682Y-17408293D01*
X15117682Y-17408293D02*
X15108158Y-17389246D01*
X15108158Y-17389246D02*
X15108158Y-17379722D01*
X15108158Y-17379722D02*
X15117682Y-17360674D01*
X15117682Y-17360674D02*
X15136730Y-17351150D01*
X15136730Y-17351150D02*
X15165301Y-17351150D01*
X15165301Y-17351150D02*
X15184349Y-17360674D01*
X15260539Y-17560674D02*
X15270063Y-17551150D01*
X15270063Y-17551150D02*
X15289111Y-17522579D01*
X15289111Y-17522579D02*
X15298634Y-17503531D01*
X15298634Y-17503531D02*
X15308158Y-17474960D01*
X15308158Y-17474960D02*
X15317682Y-17427341D01*
X15317682Y-17427341D02*
X15317682Y-17389246D01*
X15317682Y-17389246D02*
X15308158Y-17341627D01*
X15308158Y-17341627D02*
X15298634Y-17313055D01*
X15298634Y-17313055D02*
X15289111Y-17294008D01*
X15289111Y-17294008D02*
X15270063Y-17265436D01*
X15270063Y-17265436D02*
X15260539Y-17255912D01*
D15*
X10175000Y-17597000D02*
X10295000Y-17717000D01*
X10295000Y-17597000D02*
X10175000Y-17717000D01*
X10235000Y-17717000D02*
X10295000Y-17657000D01*
X10235000Y-17597000D01*
X10175000Y-17657000D01*
X10235000Y-17717000D01*
D12*
X10660539Y-17748484D02*
X10546253Y-17748484D01*
X10603396Y-17748484D02*
X10603396Y-17548484D01*
X10603396Y-17548484D02*
X10584348Y-17577055D01*
X10584348Y-17577055D02*
X10565301Y-17596103D01*
X10565301Y-17596103D02*
X10546253Y-17605627D01*
X10746253Y-17729436D02*
X10755777Y-17738960D01*
X10755777Y-17738960D02*
X10746253Y-17748484D01*
X10746253Y-17748484D02*
X10736729Y-17738960D01*
X10736729Y-17738960D02*
X10746253Y-17729436D01*
X10746253Y-17729436D02*
X10746253Y-17748484D01*
X10831967Y-17567531D02*
X10841491Y-17558008D01*
X10841491Y-17558008D02*
X10860539Y-17548484D01*
X10860539Y-17548484D02*
X10908158Y-17548484D01*
X10908158Y-17548484D02*
X10927205Y-17558008D01*
X10927205Y-17558008D02*
X10936729Y-17567531D01*
X10936729Y-17567531D02*
X10946253Y-17586579D01*
X10946253Y-17586579D02*
X10946253Y-17605627D01*
X10946253Y-17605627D02*
X10936729Y-17634198D01*
X10936729Y-17634198D02*
X10822444Y-17748484D01*
X10822444Y-17748484D02*
X10946253Y-17748484D01*
X11070063Y-17548484D02*
X11089110Y-17548484D01*
X11089110Y-17548484D02*
X11108158Y-17558008D01*
X11108158Y-17558008D02*
X11117682Y-17567531D01*
X11117682Y-17567531D02*
X11127205Y-17586579D01*
X11127205Y-17586579D02*
X11136729Y-17624674D01*
X11136729Y-17624674D02*
X11136729Y-17672293D01*
X11136729Y-17672293D02*
X11127205Y-17710389D01*
X11127205Y-17710389D02*
X11117682Y-17729436D01*
X11117682Y-17729436D02*
X11108158Y-17738960D01*
X11108158Y-17738960D02*
X11089110Y-17748484D01*
X11089110Y-17748484D02*
X11070063Y-17748484D01*
X11070063Y-17748484D02*
X11051015Y-17738960D01*
X11051015Y-17738960D02*
X11041491Y-17729436D01*
X11041491Y-17729436D02*
X11031967Y-17710389D01*
X11031967Y-17710389D02*
X11022444Y-17672293D01*
X11022444Y-17672293D02*
X11022444Y-17624674D01*
X11022444Y-17624674D02*
X11031967Y-17586579D01*
X11031967Y-17586579D02*
X11041491Y-17567531D01*
X11041491Y-17567531D02*
X11051015Y-17558008D01*
X11051015Y-17558008D02*
X11070063Y-17548484D01*
X11260539Y-17548484D02*
X11279586Y-17548484D01*
X11279586Y-17548484D02*
X11298634Y-17558008D01*
X11298634Y-17558008D02*
X11308158Y-17567531D01*
X11308158Y-17567531D02*
X11317682Y-17586579D01*
X11317682Y-17586579D02*
X11327205Y-17624674D01*
X11327205Y-17624674D02*
X11327205Y-17672293D01*
X11327205Y-17672293D02*
X11317682Y-17710389D01*
X11317682Y-17710389D02*
X11308158Y-17729436D01*
X11308158Y-17729436D02*
X11298634Y-17738960D01*
X11298634Y-17738960D02*
X11279586Y-17748484D01*
X11279586Y-17748484D02*
X11260539Y-17748484D01*
X11260539Y-17748484D02*
X11241491Y-17738960D01*
X11241491Y-17738960D02*
X11231967Y-17729436D01*
X11231967Y-17729436D02*
X11222443Y-17710389D01*
X11222443Y-17710389D02*
X11212920Y-17672293D01*
X11212920Y-17672293D02*
X11212920Y-17624674D01*
X11212920Y-17624674D02*
X11222443Y-17586579D01*
X11222443Y-17586579D02*
X11231967Y-17567531D01*
X11231967Y-17567531D02*
X11241491Y-17558008D01*
X11241491Y-17558008D02*
X11260539Y-17548484D01*
X11412920Y-17748484D02*
X11412920Y-17615150D01*
X11412920Y-17634198D02*
X11422443Y-17624674D01*
X11422443Y-17624674D02*
X11441491Y-17615150D01*
X11441491Y-17615150D02*
X11470063Y-17615150D01*
X11470063Y-17615150D02*
X11489110Y-17624674D01*
X11489110Y-17624674D02*
X11498634Y-17643722D01*
X11498634Y-17643722D02*
X11498634Y-17748484D01*
X11498634Y-17643722D02*
X11508158Y-17624674D01*
X11508158Y-17624674D02*
X11527205Y-17615150D01*
X11527205Y-17615150D02*
X11555777Y-17615150D01*
X11555777Y-17615150D02*
X11574824Y-17624674D01*
X11574824Y-17624674D02*
X11584348Y-17643722D01*
X11584348Y-17643722D02*
X11584348Y-17748484D01*
X11679586Y-17748484D02*
X11679586Y-17615150D01*
X11679586Y-17634198D02*
X11689110Y-17624674D01*
X11689110Y-17624674D02*
X11708158Y-17615150D01*
X11708158Y-17615150D02*
X11736729Y-17615150D01*
X11736729Y-17615150D02*
X11755777Y-17624674D01*
X11755777Y-17624674D02*
X11765301Y-17643722D01*
X11765301Y-17643722D02*
X11765301Y-17748484D01*
X11765301Y-17643722D02*
X11774824Y-17624674D01*
X11774824Y-17624674D02*
X11793872Y-17615150D01*
X11793872Y-17615150D02*
X11822443Y-17615150D01*
X11822443Y-17615150D02*
X11841491Y-17624674D01*
X11841491Y-17624674D02*
X11851015Y-17643722D01*
X11851015Y-17643722D02*
X11851015Y-17748484D01*
X12241491Y-17538960D02*
X12070063Y-17796103D01*
X12498634Y-17548484D02*
X12517682Y-17548484D01*
X12517682Y-17548484D02*
X12536729Y-17558008D01*
X12536729Y-17558008D02*
X12546253Y-17567531D01*
X12546253Y-17567531D02*
X12555777Y-17586579D01*
X12555777Y-17586579D02*
X12565301Y-17624674D01*
X12565301Y-17624674D02*
X12565301Y-17672293D01*
X12565301Y-17672293D02*
X12555777Y-17710389D01*
X12555777Y-17710389D02*
X12546253Y-17729436D01*
X12546253Y-17729436D02*
X12536729Y-17738960D01*
X12536729Y-17738960D02*
X12517682Y-17748484D01*
X12517682Y-17748484D02*
X12498634Y-17748484D01*
X12498634Y-17748484D02*
X12479586Y-17738960D01*
X12479586Y-17738960D02*
X12470063Y-17729436D01*
X12470063Y-17729436D02*
X12460539Y-17710389D01*
X12460539Y-17710389D02*
X12451015Y-17672293D01*
X12451015Y-17672293D02*
X12451015Y-17624674D01*
X12451015Y-17624674D02*
X12460539Y-17586579D01*
X12460539Y-17586579D02*
X12470063Y-17567531D01*
X12470063Y-17567531D02*
X12479586Y-17558008D01*
X12479586Y-17558008D02*
X12498634Y-17548484D01*
X12651015Y-17729436D02*
X12660539Y-17738960D01*
X12660539Y-17738960D02*
X12651015Y-17748484D01*
X12651015Y-17748484D02*
X12641491Y-17738960D01*
X12641491Y-17738960D02*
X12651015Y-17729436D01*
X12651015Y-17729436D02*
X12651015Y-17748484D01*
X12784348Y-17548484D02*
X12803396Y-17548484D01*
X12803396Y-17548484D02*
X12822444Y-17558008D01*
X12822444Y-17558008D02*
X12831967Y-17567531D01*
X12831967Y-17567531D02*
X12841491Y-17586579D01*
X12841491Y-17586579D02*
X12851015Y-17624674D01*
X12851015Y-17624674D02*
X12851015Y-17672293D01*
X12851015Y-17672293D02*
X12841491Y-17710389D01*
X12841491Y-17710389D02*
X12831967Y-17729436D01*
X12831967Y-17729436D02*
X12822444Y-17738960D01*
X12822444Y-17738960D02*
X12803396Y-17748484D01*
X12803396Y-17748484D02*
X12784348Y-17748484D01*
X12784348Y-17748484D02*
X12765301Y-17738960D01*
X12765301Y-17738960D02*
X12755777Y-17729436D01*
X12755777Y-17729436D02*
X12746253Y-17710389D01*
X12746253Y-17710389D02*
X12736729Y-17672293D01*
X12736729Y-17672293D02*
X12736729Y-17624674D01*
X12736729Y-17624674D02*
X12746253Y-17586579D01*
X12746253Y-17586579D02*
X12755777Y-17567531D01*
X12755777Y-17567531D02*
X12765301Y-17558008D01*
X12765301Y-17558008D02*
X12784348Y-17548484D01*
X13022444Y-17615150D02*
X13022444Y-17748484D01*
X12974825Y-17538960D02*
X12927206Y-17681817D01*
X12927206Y-17681817D02*
X13051015Y-17681817D01*
X13108158Y-17548484D02*
X13241491Y-17548484D01*
X13241491Y-17548484D02*
X13155777Y-17748484D01*
X13308158Y-17567531D02*
X13317682Y-17558008D01*
X13317682Y-17558008D02*
X13336729Y-17548484D01*
X13336729Y-17548484D02*
X13384348Y-17548484D01*
X13384348Y-17548484D02*
X13403396Y-17558008D01*
X13403396Y-17558008D02*
X13412920Y-17567531D01*
X13412920Y-17567531D02*
X13422444Y-17586579D01*
X13422444Y-17586579D02*
X13422444Y-17605627D01*
X13422444Y-17605627D02*
X13412920Y-17634198D01*
X13412920Y-17634198D02*
X13298634Y-17748484D01*
X13298634Y-17748484D02*
X13422444Y-17748484D01*
X13498634Y-17548484D02*
X13498634Y-17586579D01*
X13574825Y-17548484D02*
X13574825Y-17586579D01*
X13870063Y-17824674D02*
X13860539Y-17815150D01*
X13860539Y-17815150D02*
X13841491Y-17786579D01*
X13841491Y-17786579D02*
X13831968Y-17767531D01*
X13831968Y-17767531D02*
X13822444Y-17738960D01*
X13822444Y-17738960D02*
X13812920Y-17691341D01*
X13812920Y-17691341D02*
X13812920Y-17653246D01*
X13812920Y-17653246D02*
X13822444Y-17605627D01*
X13822444Y-17605627D02*
X13831968Y-17577055D01*
X13831968Y-17577055D02*
X13841491Y-17558008D01*
X13841491Y-17558008D02*
X13860539Y-17529436D01*
X13860539Y-17529436D02*
X13870063Y-17519912D01*
X13927206Y-17548484D02*
X14051015Y-17548484D01*
X14051015Y-17548484D02*
X13984348Y-17624674D01*
X13984348Y-17624674D02*
X14012920Y-17624674D01*
X14012920Y-17624674D02*
X14031968Y-17634198D01*
X14031968Y-17634198D02*
X14041491Y-17643722D01*
X14041491Y-17643722D02*
X14051015Y-17662770D01*
X14051015Y-17662770D02*
X14051015Y-17710389D01*
X14051015Y-17710389D02*
X14041491Y-17729436D01*
X14041491Y-17729436D02*
X14031968Y-17738960D01*
X14031968Y-17738960D02*
X14012920Y-17748484D01*
X14012920Y-17748484D02*
X13955777Y-17748484D01*
X13955777Y-17748484D02*
X13936729Y-17738960D01*
X13936729Y-17738960D02*
X13927206Y-17729436D01*
X14289110Y-17748484D02*
X14289110Y-17548484D01*
X14374825Y-17748484D02*
X14374825Y-17643722D01*
X14374825Y-17643722D02*
X14365301Y-17624674D01*
X14365301Y-17624674D02*
X14346253Y-17615150D01*
X14346253Y-17615150D02*
X14317682Y-17615150D01*
X14317682Y-17615150D02*
X14298634Y-17624674D01*
X14298634Y-17624674D02*
X14289110Y-17634198D01*
X14498634Y-17748484D02*
X14479587Y-17738960D01*
X14479587Y-17738960D02*
X14470063Y-17729436D01*
X14470063Y-17729436D02*
X14460539Y-17710389D01*
X14460539Y-17710389D02*
X14460539Y-17653246D01*
X14460539Y-17653246D02*
X14470063Y-17634198D01*
X14470063Y-17634198D02*
X14479587Y-17624674D01*
X14479587Y-17624674D02*
X14498634Y-17615150D01*
X14498634Y-17615150D02*
X14527206Y-17615150D01*
X14527206Y-17615150D02*
X14546253Y-17624674D01*
X14546253Y-17624674D02*
X14555777Y-17634198D01*
X14555777Y-17634198D02*
X14565301Y-17653246D01*
X14565301Y-17653246D02*
X14565301Y-17710389D01*
X14565301Y-17710389D02*
X14555777Y-17729436D01*
X14555777Y-17729436D02*
X14546253Y-17738960D01*
X14546253Y-17738960D02*
X14527206Y-17748484D01*
X14527206Y-17748484D02*
X14498634Y-17748484D01*
X14679587Y-17748484D02*
X14660539Y-17738960D01*
X14660539Y-17738960D02*
X14651015Y-17719912D01*
X14651015Y-17719912D02*
X14651015Y-17548484D01*
X14831968Y-17738960D02*
X14812920Y-17748484D01*
X14812920Y-17748484D02*
X14774825Y-17748484D01*
X14774825Y-17748484D02*
X14755777Y-17738960D01*
X14755777Y-17738960D02*
X14746253Y-17719912D01*
X14746253Y-17719912D02*
X14746253Y-17643722D01*
X14746253Y-17643722D02*
X14755777Y-17624674D01*
X14755777Y-17624674D02*
X14774825Y-17615150D01*
X14774825Y-17615150D02*
X14812920Y-17615150D01*
X14812920Y-17615150D02*
X14831968Y-17624674D01*
X14831968Y-17624674D02*
X14841491Y-17643722D01*
X14841491Y-17643722D02*
X14841491Y-17662770D01*
X14841491Y-17662770D02*
X14746253Y-17681817D01*
X14917682Y-17738960D02*
X14936730Y-17748484D01*
X14936730Y-17748484D02*
X14974825Y-17748484D01*
X14974825Y-17748484D02*
X14993872Y-17738960D01*
X14993872Y-17738960D02*
X15003396Y-17719912D01*
X15003396Y-17719912D02*
X15003396Y-17710389D01*
X15003396Y-17710389D02*
X14993872Y-17691341D01*
X14993872Y-17691341D02*
X14974825Y-17681817D01*
X14974825Y-17681817D02*
X14946253Y-17681817D01*
X14946253Y-17681817D02*
X14927206Y-17672293D01*
X14927206Y-17672293D02*
X14917682Y-17653246D01*
X14917682Y-17653246D02*
X14917682Y-17643722D01*
X14917682Y-17643722D02*
X14927206Y-17624674D01*
X14927206Y-17624674D02*
X14946253Y-17615150D01*
X14946253Y-17615150D02*
X14974825Y-17615150D01*
X14974825Y-17615150D02*
X14993872Y-17624674D01*
X15070063Y-17824674D02*
X15079587Y-17815150D01*
X15079587Y-17815150D02*
X15098634Y-17786579D01*
X15098634Y-17786579D02*
X15108158Y-17767531D01*
X15108158Y-17767531D02*
X15117682Y-17738960D01*
X15117682Y-17738960D02*
X15127206Y-17691341D01*
X15127206Y-17691341D02*
X15127206Y-17653246D01*
X15127206Y-17653246D02*
X15117682Y-17605627D01*
X15117682Y-17605627D02*
X15108158Y-17577055D01*
X15108158Y-17577055D02*
X15098634Y-17558008D01*
X15098634Y-17558008D02*
X15079587Y-17529436D01*
X15079587Y-17529436D02*
X15070063Y-17519912D01*
D16*
X10210000Y-17836000D02*
X10210000Y-18006000D01*
X10125000Y-17921000D02*
X10295000Y-17921000D01*
X10295000Y-17921000D02*
G75*
G02*
X10125000Y-17921000I-85000J0D01*
G01*
X10125000Y-17921000D02*
G75*
G02*
X10295000Y-17921000I85000J0D01*
G01*
D12*
X10660539Y-18012484D02*
X10546253Y-18012484D01*
X10603396Y-18012484D02*
X10603396Y-17812484D01*
X10603396Y-17812484D02*
X10584348Y-17841055D01*
X10584348Y-17841055D02*
X10565301Y-17860103D01*
X10565301Y-17860103D02*
X10546253Y-17869627D01*
X10746253Y-17993436D02*
X10755777Y-18002960D01*
X10755777Y-18002960D02*
X10746253Y-18012484D01*
X10746253Y-18012484D02*
X10736729Y-18002960D01*
X10736729Y-18002960D02*
X10746253Y-17993436D01*
X10746253Y-17993436D02*
X10746253Y-18012484D01*
X10822444Y-17812484D02*
X10955777Y-17812484D01*
X10955777Y-17812484D02*
X10870063Y-18012484D01*
X11070063Y-17812484D02*
X11089110Y-17812484D01*
X11089110Y-17812484D02*
X11108158Y-17822008D01*
X11108158Y-17822008D02*
X11117682Y-17831531D01*
X11117682Y-17831531D02*
X11127205Y-17850579D01*
X11127205Y-17850579D02*
X11136729Y-17888674D01*
X11136729Y-17888674D02*
X11136729Y-17936293D01*
X11136729Y-17936293D02*
X11127205Y-17974389D01*
X11127205Y-17974389D02*
X11117682Y-17993436D01*
X11117682Y-17993436D02*
X11108158Y-18002960D01*
X11108158Y-18002960D02*
X11089110Y-18012484D01*
X11089110Y-18012484D02*
X11070063Y-18012484D01*
X11070063Y-18012484D02*
X11051015Y-18002960D01*
X11051015Y-18002960D02*
X11041491Y-17993436D01*
X11041491Y-17993436D02*
X11031967Y-17974389D01*
X11031967Y-17974389D02*
X11022444Y-17936293D01*
X11022444Y-17936293D02*
X11022444Y-17888674D01*
X11022444Y-17888674D02*
X11031967Y-17850579D01*
X11031967Y-17850579D02*
X11041491Y-17831531D01*
X11041491Y-17831531D02*
X11051015Y-17822008D01*
X11051015Y-17822008D02*
X11070063Y-17812484D01*
X11260539Y-17812484D02*
X11279586Y-17812484D01*
X11279586Y-17812484D02*
X11298634Y-17822008D01*
X11298634Y-17822008D02*
X11308158Y-17831531D01*
X11308158Y-17831531D02*
X11317682Y-17850579D01*
X11317682Y-17850579D02*
X11327205Y-17888674D01*
X11327205Y-17888674D02*
X11327205Y-17936293D01*
X11327205Y-17936293D02*
X11317682Y-17974389D01*
X11317682Y-17974389D02*
X11308158Y-17993436D01*
X11308158Y-17993436D02*
X11298634Y-18002960D01*
X11298634Y-18002960D02*
X11279586Y-18012484D01*
X11279586Y-18012484D02*
X11260539Y-18012484D01*
X11260539Y-18012484D02*
X11241491Y-18002960D01*
X11241491Y-18002960D02*
X11231967Y-17993436D01*
X11231967Y-17993436D02*
X11222443Y-17974389D01*
X11222443Y-17974389D02*
X11212920Y-17936293D01*
X11212920Y-17936293D02*
X11212920Y-17888674D01*
X11212920Y-17888674D02*
X11222443Y-17850579D01*
X11222443Y-17850579D02*
X11231967Y-17831531D01*
X11231967Y-17831531D02*
X11241491Y-17822008D01*
X11241491Y-17822008D02*
X11260539Y-17812484D01*
X11412920Y-18012484D02*
X11412920Y-17879150D01*
X11412920Y-17898198D02*
X11422443Y-17888674D01*
X11422443Y-17888674D02*
X11441491Y-17879150D01*
X11441491Y-17879150D02*
X11470063Y-17879150D01*
X11470063Y-17879150D02*
X11489110Y-17888674D01*
X11489110Y-17888674D02*
X11498634Y-17907722D01*
X11498634Y-17907722D02*
X11498634Y-18012484D01*
X11498634Y-17907722D02*
X11508158Y-17888674D01*
X11508158Y-17888674D02*
X11527205Y-17879150D01*
X11527205Y-17879150D02*
X11555777Y-17879150D01*
X11555777Y-17879150D02*
X11574824Y-17888674D01*
X11574824Y-17888674D02*
X11584348Y-17907722D01*
X11584348Y-17907722D02*
X11584348Y-18012484D01*
X11679586Y-18012484D02*
X11679586Y-17879150D01*
X11679586Y-17898198D02*
X11689110Y-17888674D01*
X11689110Y-17888674D02*
X11708158Y-17879150D01*
X11708158Y-17879150D02*
X11736729Y-17879150D01*
X11736729Y-17879150D02*
X11755777Y-17888674D01*
X11755777Y-17888674D02*
X11765301Y-17907722D01*
X11765301Y-17907722D02*
X11765301Y-18012484D01*
X11765301Y-17907722D02*
X11774824Y-17888674D01*
X11774824Y-17888674D02*
X11793872Y-17879150D01*
X11793872Y-17879150D02*
X11822443Y-17879150D01*
X11822443Y-17879150D02*
X11841491Y-17888674D01*
X11841491Y-17888674D02*
X11851015Y-17907722D01*
X11851015Y-17907722D02*
X11851015Y-18012484D01*
X12241491Y-17802960D02*
X12070063Y-18060103D01*
X12498634Y-17812484D02*
X12517682Y-17812484D01*
X12517682Y-17812484D02*
X12536729Y-17822008D01*
X12536729Y-17822008D02*
X12546253Y-17831531D01*
X12546253Y-17831531D02*
X12555777Y-17850579D01*
X12555777Y-17850579D02*
X12565301Y-17888674D01*
X12565301Y-17888674D02*
X12565301Y-17936293D01*
X12565301Y-17936293D02*
X12555777Y-17974389D01*
X12555777Y-17974389D02*
X12546253Y-17993436D01*
X12546253Y-17993436D02*
X12536729Y-18002960D01*
X12536729Y-18002960D02*
X12517682Y-18012484D01*
X12517682Y-18012484D02*
X12498634Y-18012484D01*
X12498634Y-18012484D02*
X12479586Y-18002960D01*
X12479586Y-18002960D02*
X12470063Y-17993436D01*
X12470063Y-17993436D02*
X12460539Y-17974389D01*
X12460539Y-17974389D02*
X12451015Y-17936293D01*
X12451015Y-17936293D02*
X12451015Y-17888674D01*
X12451015Y-17888674D02*
X12460539Y-17850579D01*
X12460539Y-17850579D02*
X12470063Y-17831531D01*
X12470063Y-17831531D02*
X12479586Y-17822008D01*
X12479586Y-17822008D02*
X12498634Y-17812484D01*
X12651015Y-17993436D02*
X12660539Y-18002960D01*
X12660539Y-18002960D02*
X12651015Y-18012484D01*
X12651015Y-18012484D02*
X12641491Y-18002960D01*
X12641491Y-18002960D02*
X12651015Y-17993436D01*
X12651015Y-17993436D02*
X12651015Y-18012484D01*
X12784348Y-17812484D02*
X12803396Y-17812484D01*
X12803396Y-17812484D02*
X12822444Y-17822008D01*
X12822444Y-17822008D02*
X12831967Y-17831531D01*
X12831967Y-17831531D02*
X12841491Y-17850579D01*
X12841491Y-17850579D02*
X12851015Y-17888674D01*
X12851015Y-17888674D02*
X12851015Y-17936293D01*
X12851015Y-17936293D02*
X12841491Y-17974389D01*
X12841491Y-17974389D02*
X12831967Y-17993436D01*
X12831967Y-17993436D02*
X12822444Y-18002960D01*
X12822444Y-18002960D02*
X12803396Y-18012484D01*
X12803396Y-18012484D02*
X12784348Y-18012484D01*
X12784348Y-18012484D02*
X12765301Y-18002960D01*
X12765301Y-18002960D02*
X12755777Y-17993436D01*
X12755777Y-17993436D02*
X12746253Y-17974389D01*
X12746253Y-17974389D02*
X12736729Y-17936293D01*
X12736729Y-17936293D02*
X12736729Y-17888674D01*
X12736729Y-17888674D02*
X12746253Y-17850579D01*
X12746253Y-17850579D02*
X12755777Y-17831531D01*
X12755777Y-17831531D02*
X12765301Y-17822008D01*
X12765301Y-17822008D02*
X12784348Y-17812484D01*
X13022444Y-17812484D02*
X12984348Y-17812484D01*
X12984348Y-17812484D02*
X12965301Y-17822008D01*
X12965301Y-17822008D02*
X12955777Y-17831531D01*
X12955777Y-17831531D02*
X12936729Y-17860103D01*
X12936729Y-17860103D02*
X12927206Y-17898198D01*
X12927206Y-17898198D02*
X12927206Y-17974389D01*
X12927206Y-17974389D02*
X12936729Y-17993436D01*
X12936729Y-17993436D02*
X12946253Y-18002960D01*
X12946253Y-18002960D02*
X12965301Y-18012484D01*
X12965301Y-18012484D02*
X13003396Y-18012484D01*
X13003396Y-18012484D02*
X13022444Y-18002960D01*
X13022444Y-18002960D02*
X13031967Y-17993436D01*
X13031967Y-17993436D02*
X13041491Y-17974389D01*
X13041491Y-17974389D02*
X13041491Y-17926770D01*
X13041491Y-17926770D02*
X13031967Y-17907722D01*
X13031967Y-17907722D02*
X13022444Y-17898198D01*
X13022444Y-17898198D02*
X13003396Y-17888674D01*
X13003396Y-17888674D02*
X12965301Y-17888674D01*
X12965301Y-17888674D02*
X12946253Y-17898198D01*
X12946253Y-17898198D02*
X12936729Y-17907722D01*
X12936729Y-17907722D02*
X12927206Y-17926770D01*
X13212920Y-17812484D02*
X13174825Y-17812484D01*
X13174825Y-17812484D02*
X13155777Y-17822008D01*
X13155777Y-17822008D02*
X13146253Y-17831531D01*
X13146253Y-17831531D02*
X13127206Y-17860103D01*
X13127206Y-17860103D02*
X13117682Y-17898198D01*
X13117682Y-17898198D02*
X13117682Y-17974389D01*
X13117682Y-17974389D02*
X13127206Y-17993436D01*
X13127206Y-17993436D02*
X13136729Y-18002960D01*
X13136729Y-18002960D02*
X13155777Y-18012484D01*
X13155777Y-18012484D02*
X13193872Y-18012484D01*
X13193872Y-18012484D02*
X13212920Y-18002960D01*
X13212920Y-18002960D02*
X13222444Y-17993436D01*
X13222444Y-17993436D02*
X13231967Y-17974389D01*
X13231967Y-17974389D02*
X13231967Y-17926770D01*
X13231967Y-17926770D02*
X13222444Y-17907722D01*
X13222444Y-17907722D02*
X13212920Y-17898198D01*
X13212920Y-17898198D02*
X13193872Y-17888674D01*
X13193872Y-17888674D02*
X13155777Y-17888674D01*
X13155777Y-17888674D02*
X13136729Y-17898198D01*
X13136729Y-17898198D02*
X13127206Y-17907722D01*
X13127206Y-17907722D02*
X13117682Y-17926770D01*
X13327206Y-18012484D02*
X13365301Y-18012484D01*
X13365301Y-18012484D02*
X13384348Y-18002960D01*
X13384348Y-18002960D02*
X13393872Y-17993436D01*
X13393872Y-17993436D02*
X13412920Y-17964865D01*
X13412920Y-17964865D02*
X13422444Y-17926770D01*
X13422444Y-17926770D02*
X13422444Y-17850579D01*
X13422444Y-17850579D02*
X13412920Y-17831531D01*
X13412920Y-17831531D02*
X13403396Y-17822008D01*
X13403396Y-17822008D02*
X13384348Y-17812484D01*
X13384348Y-17812484D02*
X13346253Y-17812484D01*
X13346253Y-17812484D02*
X13327206Y-17822008D01*
X13327206Y-17822008D02*
X13317682Y-17831531D01*
X13317682Y-17831531D02*
X13308158Y-17850579D01*
X13308158Y-17850579D02*
X13308158Y-17898198D01*
X13308158Y-17898198D02*
X13317682Y-17917246D01*
X13317682Y-17917246D02*
X13327206Y-17926770D01*
X13327206Y-17926770D02*
X13346253Y-17936293D01*
X13346253Y-17936293D02*
X13384348Y-17936293D01*
X13384348Y-17936293D02*
X13403396Y-17926770D01*
X13403396Y-17926770D02*
X13412920Y-17917246D01*
X13412920Y-17917246D02*
X13422444Y-17898198D01*
X13498634Y-17812484D02*
X13498634Y-17850579D01*
X13574825Y-17812484D02*
X13574825Y-17850579D01*
X13870063Y-18088674D02*
X13860539Y-18079150D01*
X13860539Y-18079150D02*
X13841491Y-18050579D01*
X13841491Y-18050579D02*
X13831968Y-18031531D01*
X13831968Y-18031531D02*
X13822444Y-18002960D01*
X13822444Y-18002960D02*
X13812920Y-17955341D01*
X13812920Y-17955341D02*
X13812920Y-17917246D01*
X13812920Y-17917246D02*
X13822444Y-17869627D01*
X13822444Y-17869627D02*
X13831968Y-17841055D01*
X13831968Y-17841055D02*
X13841491Y-17822008D01*
X13841491Y-17822008D02*
X13860539Y-17793436D01*
X13860539Y-17793436D02*
X13870063Y-17783912D01*
X13974825Y-17898198D02*
X13955777Y-17888674D01*
X13955777Y-17888674D02*
X13946253Y-17879150D01*
X13946253Y-17879150D02*
X13936729Y-17860103D01*
X13936729Y-17860103D02*
X13936729Y-17850579D01*
X13936729Y-17850579D02*
X13946253Y-17831531D01*
X13946253Y-17831531D02*
X13955777Y-17822008D01*
X13955777Y-17822008D02*
X13974825Y-17812484D01*
X13974825Y-17812484D02*
X14012920Y-17812484D01*
X14012920Y-17812484D02*
X14031968Y-17822008D01*
X14031968Y-17822008D02*
X14041491Y-17831531D01*
X14041491Y-17831531D02*
X14051015Y-17850579D01*
X14051015Y-17850579D02*
X14051015Y-17860103D01*
X14051015Y-17860103D02*
X14041491Y-17879150D01*
X14041491Y-17879150D02*
X14031968Y-17888674D01*
X14031968Y-17888674D02*
X14012920Y-17898198D01*
X14012920Y-17898198D02*
X13974825Y-17898198D01*
X13974825Y-17898198D02*
X13955777Y-17907722D01*
X13955777Y-17907722D02*
X13946253Y-17917246D01*
X13946253Y-17917246D02*
X13936729Y-17936293D01*
X13936729Y-17936293D02*
X13936729Y-17974389D01*
X13936729Y-17974389D02*
X13946253Y-17993436D01*
X13946253Y-17993436D02*
X13955777Y-18002960D01*
X13955777Y-18002960D02*
X13974825Y-18012484D01*
X13974825Y-18012484D02*
X14012920Y-18012484D01*
X14012920Y-18012484D02*
X14031968Y-18002960D01*
X14031968Y-18002960D02*
X14041491Y-17993436D01*
X14041491Y-17993436D02*
X14051015Y-17974389D01*
X14051015Y-17974389D02*
X14051015Y-17936293D01*
X14051015Y-17936293D02*
X14041491Y-17917246D01*
X14041491Y-17917246D02*
X14031968Y-17907722D01*
X14031968Y-17907722D02*
X14012920Y-17898198D01*
X14289110Y-18012484D02*
X14289110Y-17812484D01*
X14374825Y-18012484D02*
X14374825Y-17907722D01*
X14374825Y-17907722D02*
X14365301Y-17888674D01*
X14365301Y-17888674D02*
X14346253Y-17879150D01*
X14346253Y-17879150D02*
X14317682Y-17879150D01*
X14317682Y-17879150D02*
X14298634Y-17888674D01*
X14298634Y-17888674D02*
X14289110Y-17898198D01*
X14498634Y-18012484D02*
X14479587Y-18002960D01*
X14479587Y-18002960D02*
X14470063Y-17993436D01*
X14470063Y-17993436D02*
X14460539Y-17974389D01*
X14460539Y-17974389D02*
X14460539Y-17917246D01*
X14460539Y-17917246D02*
X14470063Y-17898198D01*
X14470063Y-17898198D02*
X14479587Y-17888674D01*
X14479587Y-17888674D02*
X14498634Y-17879150D01*
X14498634Y-17879150D02*
X14527206Y-17879150D01*
X14527206Y-17879150D02*
X14546253Y-17888674D01*
X14546253Y-17888674D02*
X14555777Y-17898198D01*
X14555777Y-17898198D02*
X14565301Y-17917246D01*
X14565301Y-17917246D02*
X14565301Y-17974389D01*
X14565301Y-17974389D02*
X14555777Y-17993436D01*
X14555777Y-17993436D02*
X14546253Y-18002960D01*
X14546253Y-18002960D02*
X14527206Y-18012484D01*
X14527206Y-18012484D02*
X14498634Y-18012484D01*
X14679587Y-18012484D02*
X14660539Y-18002960D01*
X14660539Y-18002960D02*
X14651015Y-17983912D01*
X14651015Y-17983912D02*
X14651015Y-17812484D01*
X14831968Y-18002960D02*
X14812920Y-18012484D01*
X14812920Y-18012484D02*
X14774825Y-18012484D01*
X14774825Y-18012484D02*
X14755777Y-18002960D01*
X14755777Y-18002960D02*
X14746253Y-17983912D01*
X14746253Y-17983912D02*
X14746253Y-17907722D01*
X14746253Y-17907722D02*
X14755777Y-17888674D01*
X14755777Y-17888674D02*
X14774825Y-17879150D01*
X14774825Y-17879150D02*
X14812920Y-17879150D01*
X14812920Y-17879150D02*
X14831968Y-17888674D01*
X14831968Y-17888674D02*
X14841491Y-17907722D01*
X14841491Y-17907722D02*
X14841491Y-17926770D01*
X14841491Y-17926770D02*
X14746253Y-17945817D01*
X14917682Y-18002960D02*
X14936730Y-18012484D01*
X14936730Y-18012484D02*
X14974825Y-18012484D01*
X14974825Y-18012484D02*
X14993872Y-18002960D01*
X14993872Y-18002960D02*
X15003396Y-17983912D01*
X15003396Y-17983912D02*
X15003396Y-17974389D01*
X15003396Y-17974389D02*
X14993872Y-17955341D01*
X14993872Y-17955341D02*
X14974825Y-17945817D01*
X14974825Y-17945817D02*
X14946253Y-17945817D01*
X14946253Y-17945817D02*
X14927206Y-17936293D01*
X14927206Y-17936293D02*
X14917682Y-17917246D01*
X14917682Y-17917246D02*
X14917682Y-17907722D01*
X14917682Y-17907722D02*
X14927206Y-17888674D01*
X14927206Y-17888674D02*
X14946253Y-17879150D01*
X14946253Y-17879150D02*
X14974825Y-17879150D01*
X14974825Y-17879150D02*
X14993872Y-17888674D01*
X15070063Y-18088674D02*
X15079587Y-18079150D01*
X15079587Y-18079150D02*
X15098634Y-18050579D01*
X15098634Y-18050579D02*
X15108158Y-18031531D01*
X15108158Y-18031531D02*
X15117682Y-18002960D01*
X15117682Y-18002960D02*
X15127206Y-17955341D01*
X15127206Y-17955341D02*
X15127206Y-17917246D01*
X15127206Y-17917246D02*
X15117682Y-17869627D01*
X15117682Y-17869627D02*
X15108158Y-17841055D01*
X15108158Y-17841055D02*
X15098634Y-17822008D01*
X15098634Y-17822008D02*
X15079587Y-17793436D01*
X15079587Y-17793436D02*
X15070063Y-17783912D01*
X10265711Y-18281711D02*
X10265711Y-18140289D01*
X10124289Y-18140289D01*
X10124289Y-18281711D01*
X10265711Y-18281711D01*
X10295000Y-18211000D02*
G75*
G02*
X10095000Y-18211000I-100000J0D01*
G01*
X10095000Y-18211000D02*
G75*
G02*
X10295000Y-18211000I100000J0D01*
G01*
X10546253Y-18121531D02*
X10555777Y-18112008D01*
X10555777Y-18112008D02*
X10574824Y-18102484D01*
X10574824Y-18102484D02*
X10622444Y-18102484D01*
X10622444Y-18102484D02*
X10641491Y-18112008D01*
X10641491Y-18112008D02*
X10651015Y-18121531D01*
X10651015Y-18121531D02*
X10660539Y-18140579D01*
X10660539Y-18140579D02*
X10660539Y-18159627D01*
X10660539Y-18159627D02*
X10651015Y-18188198D01*
X10651015Y-18188198D02*
X10536729Y-18302484D01*
X10536729Y-18302484D02*
X10660539Y-18302484D01*
X10746253Y-18283436D02*
X10755777Y-18292960D01*
X10755777Y-18292960D02*
X10746253Y-18302484D01*
X10746253Y-18302484D02*
X10736729Y-18292960D01*
X10736729Y-18292960D02*
X10746253Y-18283436D01*
X10746253Y-18283436D02*
X10746253Y-18302484D01*
X10879586Y-18102484D02*
X10898634Y-18102484D01*
X10898634Y-18102484D02*
X10917682Y-18112008D01*
X10917682Y-18112008D02*
X10927205Y-18121531D01*
X10927205Y-18121531D02*
X10936729Y-18140579D01*
X10936729Y-18140579D02*
X10946253Y-18178674D01*
X10946253Y-18178674D02*
X10946253Y-18226293D01*
X10946253Y-18226293D02*
X10936729Y-18264389D01*
X10936729Y-18264389D02*
X10927205Y-18283436D01*
X10927205Y-18283436D02*
X10917682Y-18292960D01*
X10917682Y-18292960D02*
X10898634Y-18302484D01*
X10898634Y-18302484D02*
X10879586Y-18302484D01*
X10879586Y-18302484D02*
X10860539Y-18292960D01*
X10860539Y-18292960D02*
X10851015Y-18283436D01*
X10851015Y-18283436D02*
X10841491Y-18264389D01*
X10841491Y-18264389D02*
X10831967Y-18226293D01*
X10831967Y-18226293D02*
X10831967Y-18178674D01*
X10831967Y-18178674D02*
X10841491Y-18140579D01*
X10841491Y-18140579D02*
X10851015Y-18121531D01*
X10851015Y-18121531D02*
X10860539Y-18112008D01*
X10860539Y-18112008D02*
X10879586Y-18102484D01*
X11070063Y-18102484D02*
X11089110Y-18102484D01*
X11089110Y-18102484D02*
X11108158Y-18112008D01*
X11108158Y-18112008D02*
X11117682Y-18121531D01*
X11117682Y-18121531D02*
X11127205Y-18140579D01*
X11127205Y-18140579D02*
X11136729Y-18178674D01*
X11136729Y-18178674D02*
X11136729Y-18226293D01*
X11136729Y-18226293D02*
X11127205Y-18264389D01*
X11127205Y-18264389D02*
X11117682Y-18283436D01*
X11117682Y-18283436D02*
X11108158Y-18292960D01*
X11108158Y-18292960D02*
X11089110Y-18302484D01*
X11089110Y-18302484D02*
X11070063Y-18302484D01*
X11070063Y-18302484D02*
X11051015Y-18292960D01*
X11051015Y-18292960D02*
X11041491Y-18283436D01*
X11041491Y-18283436D02*
X11031967Y-18264389D01*
X11031967Y-18264389D02*
X11022444Y-18226293D01*
X11022444Y-18226293D02*
X11022444Y-18178674D01*
X11022444Y-18178674D02*
X11031967Y-18140579D01*
X11031967Y-18140579D02*
X11041491Y-18121531D01*
X11041491Y-18121531D02*
X11051015Y-18112008D01*
X11051015Y-18112008D02*
X11070063Y-18102484D01*
X11260539Y-18102484D02*
X11279586Y-18102484D01*
X11279586Y-18102484D02*
X11298634Y-18112008D01*
X11298634Y-18112008D02*
X11308158Y-18121531D01*
X11308158Y-18121531D02*
X11317682Y-18140579D01*
X11317682Y-18140579D02*
X11327205Y-18178674D01*
X11327205Y-18178674D02*
X11327205Y-18226293D01*
X11327205Y-18226293D02*
X11317682Y-18264389D01*
X11317682Y-18264389D02*
X11308158Y-18283436D01*
X11308158Y-18283436D02*
X11298634Y-18292960D01*
X11298634Y-18292960D02*
X11279586Y-18302484D01*
X11279586Y-18302484D02*
X11260539Y-18302484D01*
X11260539Y-18302484D02*
X11241491Y-18292960D01*
X11241491Y-18292960D02*
X11231967Y-18283436D01*
X11231967Y-18283436D02*
X11222443Y-18264389D01*
X11222443Y-18264389D02*
X11212920Y-18226293D01*
X11212920Y-18226293D02*
X11212920Y-18178674D01*
X11212920Y-18178674D02*
X11222443Y-18140579D01*
X11222443Y-18140579D02*
X11231967Y-18121531D01*
X11231967Y-18121531D02*
X11241491Y-18112008D01*
X11241491Y-18112008D02*
X11260539Y-18102484D01*
X11412920Y-18302484D02*
X11412920Y-18169150D01*
X11412920Y-18188198D02*
X11422443Y-18178674D01*
X11422443Y-18178674D02*
X11441491Y-18169150D01*
X11441491Y-18169150D02*
X11470063Y-18169150D01*
X11470063Y-18169150D02*
X11489110Y-18178674D01*
X11489110Y-18178674D02*
X11498634Y-18197722D01*
X11498634Y-18197722D02*
X11498634Y-18302484D01*
X11498634Y-18197722D02*
X11508158Y-18178674D01*
X11508158Y-18178674D02*
X11527205Y-18169150D01*
X11527205Y-18169150D02*
X11555777Y-18169150D01*
X11555777Y-18169150D02*
X11574824Y-18178674D01*
X11574824Y-18178674D02*
X11584348Y-18197722D01*
X11584348Y-18197722D02*
X11584348Y-18302484D01*
X11679586Y-18302484D02*
X11679586Y-18169150D01*
X11679586Y-18188198D02*
X11689110Y-18178674D01*
X11689110Y-18178674D02*
X11708158Y-18169150D01*
X11708158Y-18169150D02*
X11736729Y-18169150D01*
X11736729Y-18169150D02*
X11755777Y-18178674D01*
X11755777Y-18178674D02*
X11765301Y-18197722D01*
X11765301Y-18197722D02*
X11765301Y-18302484D01*
X11765301Y-18197722D02*
X11774824Y-18178674D01*
X11774824Y-18178674D02*
X11793872Y-18169150D01*
X11793872Y-18169150D02*
X11822443Y-18169150D01*
X11822443Y-18169150D02*
X11841491Y-18178674D01*
X11841491Y-18178674D02*
X11851015Y-18197722D01*
X11851015Y-18197722D02*
X11851015Y-18302484D01*
X12241491Y-18092960D02*
X12070063Y-18350103D01*
X12498634Y-18102484D02*
X12517682Y-18102484D01*
X12517682Y-18102484D02*
X12536729Y-18112008D01*
X12536729Y-18112008D02*
X12546253Y-18121531D01*
X12546253Y-18121531D02*
X12555777Y-18140579D01*
X12555777Y-18140579D02*
X12565301Y-18178674D01*
X12565301Y-18178674D02*
X12565301Y-18226293D01*
X12565301Y-18226293D02*
X12555777Y-18264389D01*
X12555777Y-18264389D02*
X12546253Y-18283436D01*
X12546253Y-18283436D02*
X12536729Y-18292960D01*
X12536729Y-18292960D02*
X12517682Y-18302484D01*
X12517682Y-18302484D02*
X12498634Y-18302484D01*
X12498634Y-18302484D02*
X12479586Y-18292960D01*
X12479586Y-18292960D02*
X12470063Y-18283436D01*
X12470063Y-18283436D02*
X12460539Y-18264389D01*
X12460539Y-18264389D02*
X12451015Y-18226293D01*
X12451015Y-18226293D02*
X12451015Y-18178674D01*
X12451015Y-18178674D02*
X12460539Y-18140579D01*
X12460539Y-18140579D02*
X12470063Y-18121531D01*
X12470063Y-18121531D02*
X12479586Y-18112008D01*
X12479586Y-18112008D02*
X12498634Y-18102484D01*
X12651015Y-18283436D02*
X12660539Y-18292960D01*
X12660539Y-18292960D02*
X12651015Y-18302484D01*
X12651015Y-18302484D02*
X12641491Y-18292960D01*
X12641491Y-18292960D02*
X12651015Y-18283436D01*
X12651015Y-18283436D02*
X12651015Y-18302484D01*
X12784348Y-18102484D02*
X12803396Y-18102484D01*
X12803396Y-18102484D02*
X12822444Y-18112008D01*
X12822444Y-18112008D02*
X12831967Y-18121531D01*
X12831967Y-18121531D02*
X12841491Y-18140579D01*
X12841491Y-18140579D02*
X12851015Y-18178674D01*
X12851015Y-18178674D02*
X12851015Y-18226293D01*
X12851015Y-18226293D02*
X12841491Y-18264389D01*
X12841491Y-18264389D02*
X12831967Y-18283436D01*
X12831967Y-18283436D02*
X12822444Y-18292960D01*
X12822444Y-18292960D02*
X12803396Y-18302484D01*
X12803396Y-18302484D02*
X12784348Y-18302484D01*
X12784348Y-18302484D02*
X12765301Y-18292960D01*
X12765301Y-18292960D02*
X12755777Y-18283436D01*
X12755777Y-18283436D02*
X12746253Y-18264389D01*
X12746253Y-18264389D02*
X12736729Y-18226293D01*
X12736729Y-18226293D02*
X12736729Y-18178674D01*
X12736729Y-18178674D02*
X12746253Y-18140579D01*
X12746253Y-18140579D02*
X12755777Y-18121531D01*
X12755777Y-18121531D02*
X12765301Y-18112008D01*
X12765301Y-18112008D02*
X12784348Y-18102484D01*
X12917682Y-18102484D02*
X13051015Y-18102484D01*
X13051015Y-18102484D02*
X12965301Y-18302484D01*
X13155777Y-18188198D02*
X13136729Y-18178674D01*
X13136729Y-18178674D02*
X13127206Y-18169150D01*
X13127206Y-18169150D02*
X13117682Y-18150103D01*
X13117682Y-18150103D02*
X13117682Y-18140579D01*
X13117682Y-18140579D02*
X13127206Y-18121531D01*
X13127206Y-18121531D02*
X13136729Y-18112008D01*
X13136729Y-18112008D02*
X13155777Y-18102484D01*
X13155777Y-18102484D02*
X13193872Y-18102484D01*
X13193872Y-18102484D02*
X13212920Y-18112008D01*
X13212920Y-18112008D02*
X13222444Y-18121531D01*
X13222444Y-18121531D02*
X13231967Y-18140579D01*
X13231967Y-18140579D02*
X13231967Y-18150103D01*
X13231967Y-18150103D02*
X13222444Y-18169150D01*
X13222444Y-18169150D02*
X13212920Y-18178674D01*
X13212920Y-18178674D02*
X13193872Y-18188198D01*
X13193872Y-18188198D02*
X13155777Y-18188198D01*
X13155777Y-18188198D02*
X13136729Y-18197722D01*
X13136729Y-18197722D02*
X13127206Y-18207246D01*
X13127206Y-18207246D02*
X13117682Y-18226293D01*
X13117682Y-18226293D02*
X13117682Y-18264389D01*
X13117682Y-18264389D02*
X13127206Y-18283436D01*
X13127206Y-18283436D02*
X13136729Y-18292960D01*
X13136729Y-18292960D02*
X13155777Y-18302484D01*
X13155777Y-18302484D02*
X13193872Y-18302484D01*
X13193872Y-18302484D02*
X13212920Y-18292960D01*
X13212920Y-18292960D02*
X13222444Y-18283436D01*
X13222444Y-18283436D02*
X13231967Y-18264389D01*
X13231967Y-18264389D02*
X13231967Y-18226293D01*
X13231967Y-18226293D02*
X13222444Y-18207246D01*
X13222444Y-18207246D02*
X13212920Y-18197722D01*
X13212920Y-18197722D02*
X13193872Y-18188198D01*
X13298634Y-18102484D02*
X13431967Y-18102484D01*
X13431967Y-18102484D02*
X13346253Y-18302484D01*
X13498634Y-18102484D02*
X13498634Y-18140579D01*
X13574825Y-18102484D02*
X13574825Y-18140579D01*
X13870063Y-18378674D02*
X13860539Y-18369150D01*
X13860539Y-18369150D02*
X13841491Y-18340579D01*
X13841491Y-18340579D02*
X13831968Y-18321531D01*
X13831968Y-18321531D02*
X13822444Y-18292960D01*
X13822444Y-18292960D02*
X13812920Y-18245341D01*
X13812920Y-18245341D02*
X13812920Y-18207246D01*
X13812920Y-18207246D02*
X13822444Y-18159627D01*
X13822444Y-18159627D02*
X13831968Y-18131055D01*
X13831968Y-18131055D02*
X13841491Y-18112008D01*
X13841491Y-18112008D02*
X13860539Y-18083436D01*
X13860539Y-18083436D02*
X13870063Y-18073912D01*
X14031968Y-18102484D02*
X13993872Y-18102484D01*
X13993872Y-18102484D02*
X13974825Y-18112008D01*
X13974825Y-18112008D02*
X13965301Y-18121531D01*
X13965301Y-18121531D02*
X13946253Y-18150103D01*
X13946253Y-18150103D02*
X13936729Y-18188198D01*
X13936729Y-18188198D02*
X13936729Y-18264389D01*
X13936729Y-18264389D02*
X13946253Y-18283436D01*
X13946253Y-18283436D02*
X13955777Y-18292960D01*
X13955777Y-18292960D02*
X13974825Y-18302484D01*
X13974825Y-18302484D02*
X14012920Y-18302484D01*
X14012920Y-18302484D02*
X14031968Y-18292960D01*
X14031968Y-18292960D02*
X14041491Y-18283436D01*
X14041491Y-18283436D02*
X14051015Y-18264389D01*
X14051015Y-18264389D02*
X14051015Y-18216770D01*
X14051015Y-18216770D02*
X14041491Y-18197722D01*
X14041491Y-18197722D02*
X14031968Y-18188198D01*
X14031968Y-18188198D02*
X14012920Y-18178674D01*
X14012920Y-18178674D02*
X13974825Y-18178674D01*
X13974825Y-18178674D02*
X13955777Y-18188198D01*
X13955777Y-18188198D02*
X13946253Y-18197722D01*
X13946253Y-18197722D02*
X13936729Y-18216770D01*
X14289110Y-18302484D02*
X14289110Y-18102484D01*
X14374825Y-18302484D02*
X14374825Y-18197722D01*
X14374825Y-18197722D02*
X14365301Y-18178674D01*
X14365301Y-18178674D02*
X14346253Y-18169150D01*
X14346253Y-18169150D02*
X14317682Y-18169150D01*
X14317682Y-18169150D02*
X14298634Y-18178674D01*
X14298634Y-18178674D02*
X14289110Y-18188198D01*
X14498634Y-18302484D02*
X14479587Y-18292960D01*
X14479587Y-18292960D02*
X14470063Y-18283436D01*
X14470063Y-18283436D02*
X14460539Y-18264389D01*
X14460539Y-18264389D02*
X14460539Y-18207246D01*
X14460539Y-18207246D02*
X14470063Y-18188198D01*
X14470063Y-18188198D02*
X14479587Y-18178674D01*
X14479587Y-18178674D02*
X14498634Y-18169150D01*
X14498634Y-18169150D02*
X14527206Y-18169150D01*
X14527206Y-18169150D02*
X14546253Y-18178674D01*
X14546253Y-18178674D02*
X14555777Y-18188198D01*
X14555777Y-18188198D02*
X14565301Y-18207246D01*
X14565301Y-18207246D02*
X14565301Y-18264389D01*
X14565301Y-18264389D02*
X14555777Y-18283436D01*
X14555777Y-18283436D02*
X14546253Y-18292960D01*
X14546253Y-18292960D02*
X14527206Y-18302484D01*
X14527206Y-18302484D02*
X14498634Y-18302484D01*
X14679587Y-18302484D02*
X14660539Y-18292960D01*
X14660539Y-18292960D02*
X14651015Y-18273912D01*
X14651015Y-18273912D02*
X14651015Y-18102484D01*
X14831968Y-18292960D02*
X14812920Y-18302484D01*
X14812920Y-18302484D02*
X14774825Y-18302484D01*
X14774825Y-18302484D02*
X14755777Y-18292960D01*
X14755777Y-18292960D02*
X14746253Y-18273912D01*
X14746253Y-18273912D02*
X14746253Y-18197722D01*
X14746253Y-18197722D02*
X14755777Y-18178674D01*
X14755777Y-18178674D02*
X14774825Y-18169150D01*
X14774825Y-18169150D02*
X14812920Y-18169150D01*
X14812920Y-18169150D02*
X14831968Y-18178674D01*
X14831968Y-18178674D02*
X14841491Y-18197722D01*
X14841491Y-18197722D02*
X14841491Y-18216770D01*
X14841491Y-18216770D02*
X14746253Y-18235817D01*
X14917682Y-18292960D02*
X14936730Y-18302484D01*
X14936730Y-18302484D02*
X14974825Y-18302484D01*
X14974825Y-18302484D02*
X14993872Y-18292960D01*
X14993872Y-18292960D02*
X15003396Y-18273912D01*
X15003396Y-18273912D02*
X15003396Y-18264389D01*
X15003396Y-18264389D02*
X14993872Y-18245341D01*
X14993872Y-18245341D02*
X14974825Y-18235817D01*
X14974825Y-18235817D02*
X14946253Y-18235817D01*
X14946253Y-18235817D02*
X14927206Y-18226293D01*
X14927206Y-18226293D02*
X14917682Y-18207246D01*
X14917682Y-18207246D02*
X14917682Y-18197722D01*
X14917682Y-18197722D02*
X14927206Y-18178674D01*
X14927206Y-18178674D02*
X14946253Y-18169150D01*
X14946253Y-18169150D02*
X14974825Y-18169150D01*
X14974825Y-18169150D02*
X14993872Y-18178674D01*
X15070063Y-18378674D02*
X15079587Y-18369150D01*
X15079587Y-18369150D02*
X15098634Y-18340579D01*
X15098634Y-18340579D02*
X15108158Y-18321531D01*
X15108158Y-18321531D02*
X15117682Y-18292960D01*
X15117682Y-18292960D02*
X15127206Y-18245341D01*
X15127206Y-18245341D02*
X15127206Y-18207246D01*
X15127206Y-18207246D02*
X15117682Y-18159627D01*
X15117682Y-18159627D02*
X15108158Y-18131055D01*
X15108158Y-18131055D02*
X15098634Y-18112008D01*
X15098634Y-18112008D02*
X15079587Y-18083436D01*
X15079587Y-18083436D02*
X15070063Y-18073912D01*
M02*
