%TF.GenerationSoftware,KiCad,Pcbnew,8.0.3*%
%TF.CreationDate,2024-06-19T09:50:18+09:00*%
%TF.ProjectId,md2,6d64322e-6b69-4636-9164-5f7063625858,rev?*%
%TF.SameCoordinates,Original*%
%TF.FileFunction,Legend,Top*%
%TF.FilePolarity,Positive*%
%FSLAX46Y46*%
G04 Gerber Fmt 4.6, Leading zero omitted, Abs format (unit mm)*
G04 Created by KiCad (PCBNEW 8.0.3) date 2024-06-19 09:50:18*
%MOMM*%
%LPD*%
G01*
G04 APERTURE LIST*
%ADD10C,0.150000*%
%ADD11C,0.254000*%
%ADD12C,0.100000*%
%ADD13C,0.101600*%
%ADD14C,0.076200*%
%ADD15C,0.200000*%
%ADD16C,0.120000*%
%ADD17C,0.127000*%
%ADD18C,0.066040*%
G04 APERTURE END LIST*
D10*
X109363800Y-113397800D02*
X149368800Y-113397800D01*
X149368800Y-143547600D01*
X109363800Y-143547600D01*
X109363800Y-113397800D01*
D11*
X152274318Y-77319762D02*
X151004318Y-77319762D01*
X152153365Y-75989285D02*
X152213842Y-76049761D01*
X152213842Y-76049761D02*
X152274318Y-76231190D01*
X152274318Y-76231190D02*
X152274318Y-76352142D01*
X152274318Y-76352142D02*
X152213842Y-76533571D01*
X152213842Y-76533571D02*
X152092889Y-76654523D01*
X152092889Y-76654523D02*
X151971937Y-76715000D01*
X151971937Y-76715000D02*
X151730032Y-76775476D01*
X151730032Y-76775476D02*
X151548603Y-76775476D01*
X151548603Y-76775476D02*
X151306699Y-76715000D01*
X151306699Y-76715000D02*
X151185746Y-76654523D01*
X151185746Y-76654523D02*
X151064794Y-76533571D01*
X151064794Y-76533571D02*
X151004318Y-76352142D01*
X151004318Y-76352142D02*
X151004318Y-76231190D01*
X151004318Y-76231190D02*
X151064794Y-76049761D01*
X151064794Y-76049761D02*
X151125270Y-75989285D01*
X151004318Y-74900714D02*
X151004318Y-75142619D01*
X151004318Y-75142619D02*
X151064794Y-75263571D01*
X151064794Y-75263571D02*
X151125270Y-75324047D01*
X151125270Y-75324047D02*
X151306699Y-75445000D01*
X151306699Y-75445000D02*
X151548603Y-75505476D01*
X151548603Y-75505476D02*
X152032413Y-75505476D01*
X152032413Y-75505476D02*
X152153365Y-75445000D01*
X152153365Y-75445000D02*
X152213842Y-75384523D01*
X152213842Y-75384523D02*
X152274318Y-75263571D01*
X152274318Y-75263571D02*
X152274318Y-75021666D01*
X152274318Y-75021666D02*
X152213842Y-74900714D01*
X152213842Y-74900714D02*
X152153365Y-74840238D01*
X152153365Y-74840238D02*
X152032413Y-74779761D01*
X152032413Y-74779761D02*
X151730032Y-74779761D01*
X151730032Y-74779761D02*
X151609080Y-74840238D01*
X151609080Y-74840238D02*
X151548603Y-74900714D01*
X151548603Y-74900714D02*
X151488127Y-75021666D01*
X151488127Y-75021666D02*
X151488127Y-75263571D01*
X151488127Y-75263571D02*
X151548603Y-75384523D01*
X151548603Y-75384523D02*
X151609080Y-75445000D01*
X151609080Y-75445000D02*
X151730032Y-75505476D01*
D10*
X171209580Y-75542857D02*
X171257200Y-75590476D01*
X171257200Y-75590476D02*
X171304819Y-75733333D01*
X171304819Y-75733333D02*
X171304819Y-75828571D01*
X171304819Y-75828571D02*
X171257200Y-75971428D01*
X171257200Y-75971428D02*
X171161961Y-76066666D01*
X171161961Y-76066666D02*
X171066723Y-76114285D01*
X171066723Y-76114285D02*
X170876247Y-76161904D01*
X170876247Y-76161904D02*
X170733390Y-76161904D01*
X170733390Y-76161904D02*
X170542914Y-76114285D01*
X170542914Y-76114285D02*
X170447676Y-76066666D01*
X170447676Y-76066666D02*
X170352438Y-75971428D01*
X170352438Y-75971428D02*
X170304819Y-75828571D01*
X170304819Y-75828571D02*
X170304819Y-75733333D01*
X170304819Y-75733333D02*
X170352438Y-75590476D01*
X170352438Y-75590476D02*
X170400057Y-75542857D01*
X171304819Y-74590476D02*
X171304819Y-75161904D01*
X171304819Y-74876190D02*
X170304819Y-74876190D01*
X170304819Y-74876190D02*
X170447676Y-74971428D01*
X170447676Y-74971428D02*
X170542914Y-75066666D01*
X170542914Y-75066666D02*
X170590533Y-75161904D01*
X170304819Y-73685714D02*
X170304819Y-74161904D01*
X170304819Y-74161904D02*
X170781009Y-74209523D01*
X170781009Y-74209523D02*
X170733390Y-74161904D01*
X170733390Y-74161904D02*
X170685771Y-74066666D01*
X170685771Y-74066666D02*
X170685771Y-73828571D01*
X170685771Y-73828571D02*
X170733390Y-73733333D01*
X170733390Y-73733333D02*
X170781009Y-73685714D01*
X170781009Y-73685714D02*
X170876247Y-73638095D01*
X170876247Y-73638095D02*
X171114342Y-73638095D01*
X171114342Y-73638095D02*
X171209580Y-73685714D01*
X171209580Y-73685714D02*
X171257200Y-73733333D01*
X171257200Y-73733333D02*
X171304819Y-73828571D01*
X171304819Y-73828571D02*
X171304819Y-74066666D01*
X171304819Y-74066666D02*
X171257200Y-74161904D01*
X171257200Y-74161904D02*
X171209580Y-74209523D01*
X151834819Y-98416666D02*
X151358628Y-98749999D01*
X151834819Y-98988094D02*
X150834819Y-98988094D01*
X150834819Y-98988094D02*
X150834819Y-98607142D01*
X150834819Y-98607142D02*
X150882438Y-98511904D01*
X150882438Y-98511904D02*
X150930057Y-98464285D01*
X150930057Y-98464285D02*
X151025295Y-98416666D01*
X151025295Y-98416666D02*
X151168152Y-98416666D01*
X151168152Y-98416666D02*
X151263390Y-98464285D01*
X151263390Y-98464285D02*
X151311009Y-98511904D01*
X151311009Y-98511904D02*
X151358628Y-98607142D01*
X151358628Y-98607142D02*
X151358628Y-98988094D01*
X150834819Y-97559523D02*
X150834819Y-97749999D01*
X150834819Y-97749999D02*
X150882438Y-97845237D01*
X150882438Y-97845237D02*
X150930057Y-97892856D01*
X150930057Y-97892856D02*
X151072914Y-97988094D01*
X151072914Y-97988094D02*
X151263390Y-98035713D01*
X151263390Y-98035713D02*
X151644342Y-98035713D01*
X151644342Y-98035713D02*
X151739580Y-97988094D01*
X151739580Y-97988094D02*
X151787200Y-97940475D01*
X151787200Y-97940475D02*
X151834819Y-97845237D01*
X151834819Y-97845237D02*
X151834819Y-97654761D01*
X151834819Y-97654761D02*
X151787200Y-97559523D01*
X151787200Y-97559523D02*
X151739580Y-97511904D01*
X151739580Y-97511904D02*
X151644342Y-97464285D01*
X151644342Y-97464285D02*
X151406247Y-97464285D01*
X151406247Y-97464285D02*
X151311009Y-97511904D01*
X151311009Y-97511904D02*
X151263390Y-97559523D01*
X151263390Y-97559523D02*
X151215771Y-97654761D01*
X151215771Y-97654761D02*
X151215771Y-97845237D01*
X151215771Y-97845237D02*
X151263390Y-97940475D01*
X151263390Y-97940475D02*
X151311009Y-97988094D01*
X151311009Y-97988094D02*
X151406247Y-98035713D01*
X160408580Y-95792666D02*
X160456200Y-95840285D01*
X160456200Y-95840285D02*
X160503819Y-95983142D01*
X160503819Y-95983142D02*
X160503819Y-96078380D01*
X160503819Y-96078380D02*
X160456200Y-96221237D01*
X160456200Y-96221237D02*
X160360961Y-96316475D01*
X160360961Y-96316475D02*
X160265723Y-96364094D01*
X160265723Y-96364094D02*
X160075247Y-96411713D01*
X160075247Y-96411713D02*
X159932390Y-96411713D01*
X159932390Y-96411713D02*
X159741914Y-96364094D01*
X159741914Y-96364094D02*
X159646676Y-96316475D01*
X159646676Y-96316475D02*
X159551438Y-96221237D01*
X159551438Y-96221237D02*
X159503819Y-96078380D01*
X159503819Y-96078380D02*
X159503819Y-95983142D01*
X159503819Y-95983142D02*
X159551438Y-95840285D01*
X159551438Y-95840285D02*
X159599057Y-95792666D01*
X159599057Y-95411713D02*
X159551438Y-95364094D01*
X159551438Y-95364094D02*
X159503819Y-95268856D01*
X159503819Y-95268856D02*
X159503819Y-95030761D01*
X159503819Y-95030761D02*
X159551438Y-94935523D01*
X159551438Y-94935523D02*
X159599057Y-94887904D01*
X159599057Y-94887904D02*
X159694295Y-94840285D01*
X159694295Y-94840285D02*
X159789533Y-94840285D01*
X159789533Y-94840285D02*
X159932390Y-94887904D01*
X159932390Y-94887904D02*
X160503819Y-95459332D01*
X160503819Y-95459332D02*
X160503819Y-94840285D01*
X174128200Y-136635332D02*
X174175819Y-136492475D01*
X174175819Y-136492475D02*
X174175819Y-136254380D01*
X174175819Y-136254380D02*
X174128200Y-136159142D01*
X174128200Y-136159142D02*
X174080580Y-136111523D01*
X174080580Y-136111523D02*
X173985342Y-136063904D01*
X173985342Y-136063904D02*
X173890104Y-136063904D01*
X173890104Y-136063904D02*
X173794866Y-136111523D01*
X173794866Y-136111523D02*
X173747247Y-136159142D01*
X173747247Y-136159142D02*
X173699628Y-136254380D01*
X173699628Y-136254380D02*
X173652009Y-136444856D01*
X173652009Y-136444856D02*
X173604390Y-136540094D01*
X173604390Y-136540094D02*
X173556771Y-136587713D01*
X173556771Y-136587713D02*
X173461533Y-136635332D01*
X173461533Y-136635332D02*
X173366295Y-136635332D01*
X173366295Y-136635332D02*
X173271057Y-136587713D01*
X173271057Y-136587713D02*
X173223438Y-136540094D01*
X173223438Y-136540094D02*
X173175819Y-136444856D01*
X173175819Y-136444856D02*
X173175819Y-136206761D01*
X173175819Y-136206761D02*
X173223438Y-136063904D01*
X173175819Y-135730570D02*
X174175819Y-135492475D01*
X174175819Y-135492475D02*
X173461533Y-135301999D01*
X173461533Y-135301999D02*
X174175819Y-135111523D01*
X174175819Y-135111523D02*
X173175819Y-134873428D01*
X173175819Y-134587713D02*
X173175819Y-133921047D01*
X173175819Y-133921047D02*
X174175819Y-134349618D01*
X143109580Y-82642857D02*
X143157200Y-82690476D01*
X143157200Y-82690476D02*
X143204819Y-82833333D01*
X143204819Y-82833333D02*
X143204819Y-82928571D01*
X143204819Y-82928571D02*
X143157200Y-83071428D01*
X143157200Y-83071428D02*
X143061961Y-83166666D01*
X143061961Y-83166666D02*
X142966723Y-83214285D01*
X142966723Y-83214285D02*
X142776247Y-83261904D01*
X142776247Y-83261904D02*
X142633390Y-83261904D01*
X142633390Y-83261904D02*
X142442914Y-83214285D01*
X142442914Y-83214285D02*
X142347676Y-83166666D01*
X142347676Y-83166666D02*
X142252438Y-83071428D01*
X142252438Y-83071428D02*
X142204819Y-82928571D01*
X142204819Y-82928571D02*
X142204819Y-82833333D01*
X142204819Y-82833333D02*
X142252438Y-82690476D01*
X142252438Y-82690476D02*
X142300057Y-82642857D01*
X143204819Y-81690476D02*
X143204819Y-82261904D01*
X143204819Y-81976190D02*
X142204819Y-81976190D01*
X142204819Y-81976190D02*
X142347676Y-82071428D01*
X142347676Y-82071428D02*
X142442914Y-82166666D01*
X142442914Y-82166666D02*
X142490533Y-82261904D01*
X142633390Y-81119047D02*
X142585771Y-81214285D01*
X142585771Y-81214285D02*
X142538152Y-81261904D01*
X142538152Y-81261904D02*
X142442914Y-81309523D01*
X142442914Y-81309523D02*
X142395295Y-81309523D01*
X142395295Y-81309523D02*
X142300057Y-81261904D01*
X142300057Y-81261904D02*
X142252438Y-81214285D01*
X142252438Y-81214285D02*
X142204819Y-81119047D01*
X142204819Y-81119047D02*
X142204819Y-80928571D01*
X142204819Y-80928571D02*
X142252438Y-80833333D01*
X142252438Y-80833333D02*
X142300057Y-80785714D01*
X142300057Y-80785714D02*
X142395295Y-80738095D01*
X142395295Y-80738095D02*
X142442914Y-80738095D01*
X142442914Y-80738095D02*
X142538152Y-80785714D01*
X142538152Y-80785714D02*
X142585771Y-80833333D01*
X142585771Y-80833333D02*
X142633390Y-80928571D01*
X142633390Y-80928571D02*
X142633390Y-81119047D01*
X142633390Y-81119047D02*
X142681009Y-81214285D01*
X142681009Y-81214285D02*
X142728628Y-81261904D01*
X142728628Y-81261904D02*
X142823866Y-81309523D01*
X142823866Y-81309523D02*
X143014342Y-81309523D01*
X143014342Y-81309523D02*
X143109580Y-81261904D01*
X143109580Y-81261904D02*
X143157200Y-81214285D01*
X143157200Y-81214285D02*
X143204819Y-81119047D01*
X143204819Y-81119047D02*
X143204819Y-80928571D01*
X143204819Y-80928571D02*
X143157200Y-80833333D01*
X143157200Y-80833333D02*
X143109580Y-80785714D01*
X143109580Y-80785714D02*
X143014342Y-80738095D01*
X143014342Y-80738095D02*
X142823866Y-80738095D01*
X142823866Y-80738095D02*
X142728628Y-80785714D01*
X142728628Y-80785714D02*
X142681009Y-80833333D01*
X142681009Y-80833333D02*
X142633390Y-80928571D01*
X142833810Y-85724819D02*
X142833810Y-84724819D01*
X143881428Y-85629580D02*
X143833809Y-85677200D01*
X143833809Y-85677200D02*
X143690952Y-85724819D01*
X143690952Y-85724819D02*
X143595714Y-85724819D01*
X143595714Y-85724819D02*
X143452857Y-85677200D01*
X143452857Y-85677200D02*
X143357619Y-85581961D01*
X143357619Y-85581961D02*
X143310000Y-85486723D01*
X143310000Y-85486723D02*
X143262381Y-85296247D01*
X143262381Y-85296247D02*
X143262381Y-85153390D01*
X143262381Y-85153390D02*
X143310000Y-84962914D01*
X143310000Y-84962914D02*
X143357619Y-84867676D01*
X143357619Y-84867676D02*
X143452857Y-84772438D01*
X143452857Y-84772438D02*
X143595714Y-84724819D01*
X143595714Y-84724819D02*
X143690952Y-84724819D01*
X143690952Y-84724819D02*
X143833809Y-84772438D01*
X143833809Y-84772438D02*
X143881428Y-84820057D01*
X144214762Y-84724819D02*
X144833809Y-84724819D01*
X144833809Y-84724819D02*
X144500476Y-85105771D01*
X144500476Y-85105771D02*
X144643333Y-85105771D01*
X144643333Y-85105771D02*
X144738571Y-85153390D01*
X144738571Y-85153390D02*
X144786190Y-85201009D01*
X144786190Y-85201009D02*
X144833809Y-85296247D01*
X144833809Y-85296247D02*
X144833809Y-85534342D01*
X144833809Y-85534342D02*
X144786190Y-85629580D01*
X144786190Y-85629580D02*
X144738571Y-85677200D01*
X144738571Y-85677200D02*
X144643333Y-85724819D01*
X144643333Y-85724819D02*
X144357619Y-85724819D01*
X144357619Y-85724819D02*
X144262381Y-85677200D01*
X144262381Y-85677200D02*
X144214762Y-85629580D01*
X155328580Y-95792666D02*
X155376200Y-95840285D01*
X155376200Y-95840285D02*
X155423819Y-95983142D01*
X155423819Y-95983142D02*
X155423819Y-96078380D01*
X155423819Y-96078380D02*
X155376200Y-96221237D01*
X155376200Y-96221237D02*
X155280961Y-96316475D01*
X155280961Y-96316475D02*
X155185723Y-96364094D01*
X155185723Y-96364094D02*
X154995247Y-96411713D01*
X154995247Y-96411713D02*
X154852390Y-96411713D01*
X154852390Y-96411713D02*
X154661914Y-96364094D01*
X154661914Y-96364094D02*
X154566676Y-96316475D01*
X154566676Y-96316475D02*
X154471438Y-96221237D01*
X154471438Y-96221237D02*
X154423819Y-96078380D01*
X154423819Y-96078380D02*
X154423819Y-95983142D01*
X154423819Y-95983142D02*
X154471438Y-95840285D01*
X154471438Y-95840285D02*
X154519057Y-95792666D01*
X155423819Y-94840285D02*
X155423819Y-95411713D01*
X155423819Y-95125999D02*
X154423819Y-95125999D01*
X154423819Y-95125999D02*
X154566676Y-95221237D01*
X154566676Y-95221237D02*
X154661914Y-95316475D01*
X154661914Y-95316475D02*
X154709533Y-95411713D01*
X170738095Y-114124819D02*
X170738095Y-114934342D01*
X170738095Y-114934342D02*
X170785714Y-115029580D01*
X170785714Y-115029580D02*
X170833333Y-115077200D01*
X170833333Y-115077200D02*
X170928571Y-115124819D01*
X170928571Y-115124819D02*
X171119047Y-115124819D01*
X171119047Y-115124819D02*
X171214285Y-115077200D01*
X171214285Y-115077200D02*
X171261904Y-115029580D01*
X171261904Y-115029580D02*
X171309523Y-114934342D01*
X171309523Y-114934342D02*
X171309523Y-114124819D01*
X172309523Y-115124819D02*
X171738095Y-115124819D01*
X172023809Y-115124819D02*
X172023809Y-114124819D01*
X172023809Y-114124819D02*
X171928571Y-114267676D01*
X171928571Y-114267676D02*
X171833333Y-114362914D01*
X171833333Y-114362914D02*
X171738095Y-114410533D01*
X108416666Y-87034819D02*
X108416666Y-87749104D01*
X108416666Y-87749104D02*
X108369047Y-87891961D01*
X108369047Y-87891961D02*
X108273809Y-87987200D01*
X108273809Y-87987200D02*
X108130952Y-88034819D01*
X108130952Y-88034819D02*
X108035714Y-88034819D01*
X109416666Y-88034819D02*
X108845238Y-88034819D01*
X109130952Y-88034819D02*
X109130952Y-87034819D01*
X109130952Y-87034819D02*
X109035714Y-87177676D01*
X109035714Y-87177676D02*
X108940476Y-87272914D01*
X108940476Y-87272914D02*
X108845238Y-87320533D01*
X162228580Y-110357666D02*
X162276200Y-110405285D01*
X162276200Y-110405285D02*
X162323819Y-110548142D01*
X162323819Y-110548142D02*
X162323819Y-110643380D01*
X162323819Y-110643380D02*
X162276200Y-110786237D01*
X162276200Y-110786237D02*
X162180961Y-110881475D01*
X162180961Y-110881475D02*
X162085723Y-110929094D01*
X162085723Y-110929094D02*
X161895247Y-110976713D01*
X161895247Y-110976713D02*
X161752390Y-110976713D01*
X161752390Y-110976713D02*
X161561914Y-110929094D01*
X161561914Y-110929094D02*
X161466676Y-110881475D01*
X161466676Y-110881475D02*
X161371438Y-110786237D01*
X161371438Y-110786237D02*
X161323819Y-110643380D01*
X161323819Y-110643380D02*
X161323819Y-110548142D01*
X161323819Y-110548142D02*
X161371438Y-110405285D01*
X161371438Y-110405285D02*
X161419057Y-110357666D01*
X161323819Y-110024332D02*
X161323819Y-109357666D01*
X161323819Y-109357666D02*
X162323819Y-109786237D01*
X149922000Y-126221332D02*
X149969619Y-126078475D01*
X149969619Y-126078475D02*
X149969619Y-125840380D01*
X149969619Y-125840380D02*
X149922000Y-125745142D01*
X149922000Y-125745142D02*
X149874380Y-125697523D01*
X149874380Y-125697523D02*
X149779142Y-125649904D01*
X149779142Y-125649904D02*
X149683904Y-125649904D01*
X149683904Y-125649904D02*
X149588666Y-125697523D01*
X149588666Y-125697523D02*
X149541047Y-125745142D01*
X149541047Y-125745142D02*
X149493428Y-125840380D01*
X149493428Y-125840380D02*
X149445809Y-126030856D01*
X149445809Y-126030856D02*
X149398190Y-126126094D01*
X149398190Y-126126094D02*
X149350571Y-126173713D01*
X149350571Y-126173713D02*
X149255333Y-126221332D01*
X149255333Y-126221332D02*
X149160095Y-126221332D01*
X149160095Y-126221332D02*
X149064857Y-126173713D01*
X149064857Y-126173713D02*
X149017238Y-126126094D01*
X149017238Y-126126094D02*
X148969619Y-126030856D01*
X148969619Y-126030856D02*
X148969619Y-125792761D01*
X148969619Y-125792761D02*
X149017238Y-125649904D01*
X148969619Y-125316570D02*
X149969619Y-125078475D01*
X149969619Y-125078475D02*
X149255333Y-124887999D01*
X149255333Y-124887999D02*
X149969619Y-124697523D01*
X149969619Y-124697523D02*
X148969619Y-124459428D01*
X149064857Y-124126094D02*
X149017238Y-124078475D01*
X149017238Y-124078475D02*
X148969619Y-123983237D01*
X148969619Y-123983237D02*
X148969619Y-123745142D01*
X148969619Y-123745142D02*
X149017238Y-123649904D01*
X149017238Y-123649904D02*
X149064857Y-123602285D01*
X149064857Y-123602285D02*
X149160095Y-123554666D01*
X149160095Y-123554666D02*
X149255333Y-123554666D01*
X149255333Y-123554666D02*
X149398190Y-123602285D01*
X149398190Y-123602285D02*
X149969619Y-124173713D01*
X149969619Y-124173713D02*
X149969619Y-123554666D01*
D12*
X182332580Y-104956666D02*
X181618295Y-104956666D01*
X181618295Y-104956666D02*
X181475438Y-104909047D01*
X181475438Y-104909047D02*
X181380200Y-104813809D01*
X181380200Y-104813809D02*
X181332580Y-104670952D01*
X181332580Y-104670952D02*
X181332580Y-104575714D01*
X181332580Y-105480476D02*
X181332580Y-105670952D01*
X181332580Y-105670952D02*
X181380200Y-105766190D01*
X181380200Y-105766190D02*
X181427819Y-105813809D01*
X181427819Y-105813809D02*
X181570676Y-105909047D01*
X181570676Y-105909047D02*
X181761152Y-105956666D01*
X181761152Y-105956666D02*
X182142104Y-105956666D01*
X182142104Y-105956666D02*
X182237342Y-105909047D01*
X182237342Y-105909047D02*
X182284961Y-105861428D01*
X182284961Y-105861428D02*
X182332580Y-105766190D01*
X182332580Y-105766190D02*
X182332580Y-105575714D01*
X182332580Y-105575714D02*
X182284961Y-105480476D01*
X182284961Y-105480476D02*
X182237342Y-105432857D01*
X182237342Y-105432857D02*
X182142104Y-105385238D01*
X182142104Y-105385238D02*
X181904009Y-105385238D01*
X181904009Y-105385238D02*
X181808771Y-105432857D01*
X181808771Y-105432857D02*
X181761152Y-105480476D01*
X181761152Y-105480476D02*
X181713533Y-105575714D01*
X181713533Y-105575714D02*
X181713533Y-105766190D01*
X181713533Y-105766190D02*
X181761152Y-105861428D01*
X181761152Y-105861428D02*
X181808771Y-105909047D01*
X181808771Y-105909047D02*
X181904009Y-105956666D01*
D11*
X169674318Y-77359762D02*
X168404318Y-77359762D01*
X169553365Y-76029285D02*
X169613842Y-76089761D01*
X169613842Y-76089761D02*
X169674318Y-76271190D01*
X169674318Y-76271190D02*
X169674318Y-76392142D01*
X169674318Y-76392142D02*
X169613842Y-76573571D01*
X169613842Y-76573571D02*
X169492889Y-76694523D01*
X169492889Y-76694523D02*
X169371937Y-76755000D01*
X169371937Y-76755000D02*
X169130032Y-76815476D01*
X169130032Y-76815476D02*
X168948603Y-76815476D01*
X168948603Y-76815476D02*
X168706699Y-76755000D01*
X168706699Y-76755000D02*
X168585746Y-76694523D01*
X168585746Y-76694523D02*
X168464794Y-76573571D01*
X168464794Y-76573571D02*
X168404318Y-76392142D01*
X168404318Y-76392142D02*
X168404318Y-76271190D01*
X168404318Y-76271190D02*
X168464794Y-76089761D01*
X168464794Y-76089761D02*
X168525270Y-76029285D01*
X168404318Y-75605952D02*
X168404318Y-74759285D01*
X168404318Y-74759285D02*
X169674318Y-75303571D01*
D12*
X182332580Y-113980476D02*
X181618295Y-113980476D01*
X181618295Y-113980476D02*
X181475438Y-113932857D01*
X181475438Y-113932857D02*
X181380200Y-113837619D01*
X181380200Y-113837619D02*
X181332580Y-113694762D01*
X181332580Y-113694762D02*
X181332580Y-113599524D01*
X181332580Y-114980476D02*
X181332580Y-114409048D01*
X181332580Y-114694762D02*
X182332580Y-114694762D01*
X182332580Y-114694762D02*
X182189723Y-114599524D01*
X182189723Y-114599524D02*
X182094485Y-114504286D01*
X182094485Y-114504286D02*
X182046866Y-114409048D01*
X182332580Y-115599524D02*
X182332580Y-115694762D01*
X182332580Y-115694762D02*
X182284961Y-115790000D01*
X182284961Y-115790000D02*
X182237342Y-115837619D01*
X182237342Y-115837619D02*
X182142104Y-115885238D01*
X182142104Y-115885238D02*
X181951628Y-115932857D01*
X181951628Y-115932857D02*
X181713533Y-115932857D01*
X181713533Y-115932857D02*
X181523057Y-115885238D01*
X181523057Y-115885238D02*
X181427819Y-115837619D01*
X181427819Y-115837619D02*
X181380200Y-115790000D01*
X181380200Y-115790000D02*
X181332580Y-115694762D01*
X181332580Y-115694762D02*
X181332580Y-115599524D01*
X181332580Y-115599524D02*
X181380200Y-115504286D01*
X181380200Y-115504286D02*
X181427819Y-115456667D01*
X181427819Y-115456667D02*
X181523057Y-115409048D01*
X181523057Y-115409048D02*
X181713533Y-115361429D01*
X181713533Y-115361429D02*
X181951628Y-115361429D01*
X181951628Y-115361429D02*
X182142104Y-115409048D01*
X182142104Y-115409048D02*
X182237342Y-115456667D01*
X182237342Y-115456667D02*
X182284961Y-115504286D01*
X182284961Y-115504286D02*
X182332580Y-115599524D01*
D10*
X158007200Y-126258332D02*
X158054819Y-126115475D01*
X158054819Y-126115475D02*
X158054819Y-125877380D01*
X158054819Y-125877380D02*
X158007200Y-125782142D01*
X158007200Y-125782142D02*
X157959580Y-125734523D01*
X157959580Y-125734523D02*
X157864342Y-125686904D01*
X157864342Y-125686904D02*
X157769104Y-125686904D01*
X157769104Y-125686904D02*
X157673866Y-125734523D01*
X157673866Y-125734523D02*
X157626247Y-125782142D01*
X157626247Y-125782142D02*
X157578628Y-125877380D01*
X157578628Y-125877380D02*
X157531009Y-126067856D01*
X157531009Y-126067856D02*
X157483390Y-126163094D01*
X157483390Y-126163094D02*
X157435771Y-126210713D01*
X157435771Y-126210713D02*
X157340533Y-126258332D01*
X157340533Y-126258332D02*
X157245295Y-126258332D01*
X157245295Y-126258332D02*
X157150057Y-126210713D01*
X157150057Y-126210713D02*
X157102438Y-126163094D01*
X157102438Y-126163094D02*
X157054819Y-126067856D01*
X157054819Y-126067856D02*
X157054819Y-125829761D01*
X157054819Y-125829761D02*
X157102438Y-125686904D01*
X157054819Y-125353570D02*
X158054819Y-125115475D01*
X158054819Y-125115475D02*
X157340533Y-124924999D01*
X157340533Y-124924999D02*
X158054819Y-124734523D01*
X158054819Y-124734523D02*
X157054819Y-124496428D01*
X157388152Y-123686904D02*
X158054819Y-123686904D01*
X157007200Y-123924999D02*
X157721485Y-124163094D01*
X157721485Y-124163094D02*
X157721485Y-123544047D01*
X110409580Y-75442857D02*
X110457200Y-75490476D01*
X110457200Y-75490476D02*
X110504819Y-75633333D01*
X110504819Y-75633333D02*
X110504819Y-75728571D01*
X110504819Y-75728571D02*
X110457200Y-75871428D01*
X110457200Y-75871428D02*
X110361961Y-75966666D01*
X110361961Y-75966666D02*
X110266723Y-76014285D01*
X110266723Y-76014285D02*
X110076247Y-76061904D01*
X110076247Y-76061904D02*
X109933390Y-76061904D01*
X109933390Y-76061904D02*
X109742914Y-76014285D01*
X109742914Y-76014285D02*
X109647676Y-75966666D01*
X109647676Y-75966666D02*
X109552438Y-75871428D01*
X109552438Y-75871428D02*
X109504819Y-75728571D01*
X109504819Y-75728571D02*
X109504819Y-75633333D01*
X109504819Y-75633333D02*
X109552438Y-75490476D01*
X109552438Y-75490476D02*
X109600057Y-75442857D01*
X110504819Y-74490476D02*
X110504819Y-75061904D01*
X110504819Y-74776190D02*
X109504819Y-74776190D01*
X109504819Y-74776190D02*
X109647676Y-74871428D01*
X109647676Y-74871428D02*
X109742914Y-74966666D01*
X109742914Y-74966666D02*
X109790533Y-75061904D01*
X109504819Y-74157142D02*
X109504819Y-73538095D01*
X109504819Y-73538095D02*
X109885771Y-73871428D01*
X109885771Y-73871428D02*
X109885771Y-73728571D01*
X109885771Y-73728571D02*
X109933390Y-73633333D01*
X109933390Y-73633333D02*
X109981009Y-73585714D01*
X109981009Y-73585714D02*
X110076247Y-73538095D01*
X110076247Y-73538095D02*
X110314342Y-73538095D01*
X110314342Y-73538095D02*
X110409580Y-73585714D01*
X110409580Y-73585714D02*
X110457200Y-73633333D01*
X110457200Y-73633333D02*
X110504819Y-73728571D01*
X110504819Y-73728571D02*
X110504819Y-74014285D01*
X110504819Y-74014285D02*
X110457200Y-74109523D01*
X110457200Y-74109523D02*
X110409580Y-74157142D01*
X167308580Y-110397666D02*
X167356200Y-110445285D01*
X167356200Y-110445285D02*
X167403819Y-110588142D01*
X167403819Y-110588142D02*
X167403819Y-110683380D01*
X167403819Y-110683380D02*
X167356200Y-110826237D01*
X167356200Y-110826237D02*
X167260961Y-110921475D01*
X167260961Y-110921475D02*
X167165723Y-110969094D01*
X167165723Y-110969094D02*
X166975247Y-111016713D01*
X166975247Y-111016713D02*
X166832390Y-111016713D01*
X166832390Y-111016713D02*
X166641914Y-110969094D01*
X166641914Y-110969094D02*
X166546676Y-110921475D01*
X166546676Y-110921475D02*
X166451438Y-110826237D01*
X166451438Y-110826237D02*
X166403819Y-110683380D01*
X166403819Y-110683380D02*
X166403819Y-110588142D01*
X166403819Y-110588142D02*
X166451438Y-110445285D01*
X166451438Y-110445285D02*
X166499057Y-110397666D01*
X166403819Y-109540523D02*
X166403819Y-109730999D01*
X166403819Y-109730999D02*
X166451438Y-109826237D01*
X166451438Y-109826237D02*
X166499057Y-109873856D01*
X166499057Y-109873856D02*
X166641914Y-109969094D01*
X166641914Y-109969094D02*
X166832390Y-110016713D01*
X166832390Y-110016713D02*
X167213342Y-110016713D01*
X167213342Y-110016713D02*
X167308580Y-109969094D01*
X167308580Y-109969094D02*
X167356200Y-109921475D01*
X167356200Y-109921475D02*
X167403819Y-109826237D01*
X167403819Y-109826237D02*
X167403819Y-109635761D01*
X167403819Y-109635761D02*
X167356200Y-109540523D01*
X167356200Y-109540523D02*
X167308580Y-109492904D01*
X167308580Y-109492904D02*
X167213342Y-109445285D01*
X167213342Y-109445285D02*
X166975247Y-109445285D01*
X166975247Y-109445285D02*
X166880009Y-109492904D01*
X166880009Y-109492904D02*
X166832390Y-109540523D01*
X166832390Y-109540523D02*
X166784771Y-109635761D01*
X166784771Y-109635761D02*
X166784771Y-109826237D01*
X166784771Y-109826237D02*
X166832390Y-109921475D01*
X166832390Y-109921475D02*
X166880009Y-109969094D01*
X166880009Y-109969094D02*
X166975247Y-110016713D01*
X148777142Y-105834819D02*
X148443809Y-105358628D01*
X148205714Y-105834819D02*
X148205714Y-104834819D01*
X148205714Y-104834819D02*
X148586666Y-104834819D01*
X148586666Y-104834819D02*
X148681904Y-104882438D01*
X148681904Y-104882438D02*
X148729523Y-104930057D01*
X148729523Y-104930057D02*
X148777142Y-105025295D01*
X148777142Y-105025295D02*
X148777142Y-105168152D01*
X148777142Y-105168152D02*
X148729523Y-105263390D01*
X148729523Y-105263390D02*
X148681904Y-105311009D01*
X148681904Y-105311009D02*
X148586666Y-105358628D01*
X148586666Y-105358628D02*
X148205714Y-105358628D01*
X149729523Y-105834819D02*
X149158095Y-105834819D01*
X149443809Y-105834819D02*
X149443809Y-104834819D01*
X149443809Y-104834819D02*
X149348571Y-104977676D01*
X149348571Y-104977676D02*
X149253333Y-105072914D01*
X149253333Y-105072914D02*
X149158095Y-105120533D01*
X150110476Y-104930057D02*
X150158095Y-104882438D01*
X150158095Y-104882438D02*
X150253333Y-104834819D01*
X150253333Y-104834819D02*
X150491428Y-104834819D01*
X150491428Y-104834819D02*
X150586666Y-104882438D01*
X150586666Y-104882438D02*
X150634285Y-104930057D01*
X150634285Y-104930057D02*
X150681904Y-105025295D01*
X150681904Y-105025295D02*
X150681904Y-105120533D01*
X150681904Y-105120533D02*
X150634285Y-105263390D01*
X150634285Y-105263390D02*
X150062857Y-105834819D01*
X150062857Y-105834819D02*
X150681904Y-105834819D01*
X166127200Y-126348332D02*
X166174819Y-126205475D01*
X166174819Y-126205475D02*
X166174819Y-125967380D01*
X166174819Y-125967380D02*
X166127200Y-125872142D01*
X166127200Y-125872142D02*
X166079580Y-125824523D01*
X166079580Y-125824523D02*
X165984342Y-125776904D01*
X165984342Y-125776904D02*
X165889104Y-125776904D01*
X165889104Y-125776904D02*
X165793866Y-125824523D01*
X165793866Y-125824523D02*
X165746247Y-125872142D01*
X165746247Y-125872142D02*
X165698628Y-125967380D01*
X165698628Y-125967380D02*
X165651009Y-126157856D01*
X165651009Y-126157856D02*
X165603390Y-126253094D01*
X165603390Y-126253094D02*
X165555771Y-126300713D01*
X165555771Y-126300713D02*
X165460533Y-126348332D01*
X165460533Y-126348332D02*
X165365295Y-126348332D01*
X165365295Y-126348332D02*
X165270057Y-126300713D01*
X165270057Y-126300713D02*
X165222438Y-126253094D01*
X165222438Y-126253094D02*
X165174819Y-126157856D01*
X165174819Y-126157856D02*
X165174819Y-125919761D01*
X165174819Y-125919761D02*
X165222438Y-125776904D01*
X165174819Y-125443570D02*
X166174819Y-125205475D01*
X166174819Y-125205475D02*
X165460533Y-125014999D01*
X165460533Y-125014999D02*
X166174819Y-124824523D01*
X166174819Y-124824523D02*
X165174819Y-124586428D01*
X165174819Y-123776904D02*
X165174819Y-123967380D01*
X165174819Y-123967380D02*
X165222438Y-124062618D01*
X165222438Y-124062618D02*
X165270057Y-124110237D01*
X165270057Y-124110237D02*
X165412914Y-124205475D01*
X165412914Y-124205475D02*
X165603390Y-124253094D01*
X165603390Y-124253094D02*
X165984342Y-124253094D01*
X165984342Y-124253094D02*
X166079580Y-124205475D01*
X166079580Y-124205475D02*
X166127200Y-124157856D01*
X166127200Y-124157856D02*
X166174819Y-124062618D01*
X166174819Y-124062618D02*
X166174819Y-123872142D01*
X166174819Y-123872142D02*
X166127200Y-123776904D01*
X166127200Y-123776904D02*
X166079580Y-123729285D01*
X166079580Y-123729285D02*
X165984342Y-123681666D01*
X165984342Y-123681666D02*
X165746247Y-123681666D01*
X165746247Y-123681666D02*
X165651009Y-123729285D01*
X165651009Y-123729285D02*
X165603390Y-123776904D01*
X165603390Y-123776904D02*
X165555771Y-123872142D01*
X165555771Y-123872142D02*
X165555771Y-124062618D01*
X165555771Y-124062618D02*
X165603390Y-124157856D01*
X165603390Y-124157856D02*
X165651009Y-124205475D01*
X165651009Y-124205475D02*
X165746247Y-124253094D01*
X110409580Y-82642857D02*
X110457200Y-82690476D01*
X110457200Y-82690476D02*
X110504819Y-82833333D01*
X110504819Y-82833333D02*
X110504819Y-82928571D01*
X110504819Y-82928571D02*
X110457200Y-83071428D01*
X110457200Y-83071428D02*
X110361961Y-83166666D01*
X110361961Y-83166666D02*
X110266723Y-83214285D01*
X110266723Y-83214285D02*
X110076247Y-83261904D01*
X110076247Y-83261904D02*
X109933390Y-83261904D01*
X109933390Y-83261904D02*
X109742914Y-83214285D01*
X109742914Y-83214285D02*
X109647676Y-83166666D01*
X109647676Y-83166666D02*
X109552438Y-83071428D01*
X109552438Y-83071428D02*
X109504819Y-82928571D01*
X109504819Y-82928571D02*
X109504819Y-82833333D01*
X109504819Y-82833333D02*
X109552438Y-82690476D01*
X109552438Y-82690476D02*
X109600057Y-82642857D01*
X110504819Y-81690476D02*
X110504819Y-82261904D01*
X110504819Y-81976190D02*
X109504819Y-81976190D01*
X109504819Y-81976190D02*
X109647676Y-82071428D01*
X109647676Y-82071428D02*
X109742914Y-82166666D01*
X109742914Y-82166666D02*
X109790533Y-82261904D01*
X109838152Y-80833333D02*
X110504819Y-80833333D01*
X109457200Y-81071428D02*
X110171485Y-81309523D01*
X110171485Y-81309523D02*
X110171485Y-80690476D01*
D11*
X168576667Y-57192318D02*
X168576667Y-58099461D01*
X168576667Y-58099461D02*
X168516190Y-58280889D01*
X168516190Y-58280889D02*
X168395238Y-58401842D01*
X168395238Y-58401842D02*
X168213809Y-58462318D01*
X168213809Y-58462318D02*
X168092857Y-58462318D01*
X169362857Y-57736603D02*
X169241905Y-57676127D01*
X169241905Y-57676127D02*
X169181428Y-57615651D01*
X169181428Y-57615651D02*
X169120952Y-57494699D01*
X169120952Y-57494699D02*
X169120952Y-57434222D01*
X169120952Y-57434222D02*
X169181428Y-57313270D01*
X169181428Y-57313270D02*
X169241905Y-57252794D01*
X169241905Y-57252794D02*
X169362857Y-57192318D01*
X169362857Y-57192318D02*
X169604762Y-57192318D01*
X169604762Y-57192318D02*
X169725714Y-57252794D01*
X169725714Y-57252794D02*
X169786190Y-57313270D01*
X169786190Y-57313270D02*
X169846667Y-57434222D01*
X169846667Y-57434222D02*
X169846667Y-57494699D01*
X169846667Y-57494699D02*
X169786190Y-57615651D01*
X169786190Y-57615651D02*
X169725714Y-57676127D01*
X169725714Y-57676127D02*
X169604762Y-57736603D01*
X169604762Y-57736603D02*
X169362857Y-57736603D01*
X169362857Y-57736603D02*
X169241905Y-57797080D01*
X169241905Y-57797080D02*
X169181428Y-57857556D01*
X169181428Y-57857556D02*
X169120952Y-57978508D01*
X169120952Y-57978508D02*
X169120952Y-58220413D01*
X169120952Y-58220413D02*
X169181428Y-58341365D01*
X169181428Y-58341365D02*
X169241905Y-58401842D01*
X169241905Y-58401842D02*
X169362857Y-58462318D01*
X169362857Y-58462318D02*
X169604762Y-58462318D01*
X169604762Y-58462318D02*
X169725714Y-58401842D01*
X169725714Y-58401842D02*
X169786190Y-58341365D01*
X169786190Y-58341365D02*
X169846667Y-58220413D01*
X169846667Y-58220413D02*
X169846667Y-57978508D01*
X169846667Y-57978508D02*
X169786190Y-57857556D01*
X169786190Y-57857556D02*
X169725714Y-57797080D01*
X169725714Y-57797080D02*
X169604762Y-57736603D01*
X121257425Y-90538648D02*
X120834091Y-89933886D01*
X120531710Y-90538648D02*
X120531710Y-89268648D01*
X120531710Y-89268648D02*
X121015520Y-89268648D01*
X121015520Y-89268648D02*
X121136472Y-89329124D01*
X121136472Y-89329124D02*
X121196949Y-89389600D01*
X121196949Y-89389600D02*
X121257425Y-89510552D01*
X121257425Y-89510552D02*
X121257425Y-89691981D01*
X121257425Y-89691981D02*
X121196949Y-89812933D01*
X121196949Y-89812933D02*
X121136472Y-89873410D01*
X121136472Y-89873410D02*
X121015520Y-89933886D01*
X121015520Y-89933886D02*
X120531710Y-89933886D01*
X121801710Y-90538648D02*
X121801710Y-89268648D01*
X121801710Y-89268648D02*
X122527425Y-90538648D01*
X122527425Y-90538648D02*
X122527425Y-89268648D01*
X123797425Y-90538648D02*
X123071710Y-90538648D01*
X123434567Y-90538648D02*
X123434567Y-89268648D01*
X123434567Y-89268648D02*
X123313615Y-89450076D01*
X123313615Y-89450076D02*
X123192663Y-89571029D01*
X123192663Y-89571029D02*
X123071710Y-89631505D01*
D10*
X168327200Y-136708332D02*
X168374819Y-136565475D01*
X168374819Y-136565475D02*
X168374819Y-136327380D01*
X168374819Y-136327380D02*
X168327200Y-136232142D01*
X168327200Y-136232142D02*
X168279580Y-136184523D01*
X168279580Y-136184523D02*
X168184342Y-136136904D01*
X168184342Y-136136904D02*
X168089104Y-136136904D01*
X168089104Y-136136904D02*
X167993866Y-136184523D01*
X167993866Y-136184523D02*
X167946247Y-136232142D01*
X167946247Y-136232142D02*
X167898628Y-136327380D01*
X167898628Y-136327380D02*
X167851009Y-136517856D01*
X167851009Y-136517856D02*
X167803390Y-136613094D01*
X167803390Y-136613094D02*
X167755771Y-136660713D01*
X167755771Y-136660713D02*
X167660533Y-136708332D01*
X167660533Y-136708332D02*
X167565295Y-136708332D01*
X167565295Y-136708332D02*
X167470057Y-136660713D01*
X167470057Y-136660713D02*
X167422438Y-136613094D01*
X167422438Y-136613094D02*
X167374819Y-136517856D01*
X167374819Y-136517856D02*
X167374819Y-136279761D01*
X167374819Y-136279761D02*
X167422438Y-136136904D01*
X167374819Y-135803570D02*
X168374819Y-135565475D01*
X168374819Y-135565475D02*
X167660533Y-135374999D01*
X167660533Y-135374999D02*
X168374819Y-135184523D01*
X168374819Y-135184523D02*
X167374819Y-134946428D01*
X167374819Y-134089285D02*
X167374819Y-134565475D01*
X167374819Y-134565475D02*
X167851009Y-134613094D01*
X167851009Y-134613094D02*
X167803390Y-134565475D01*
X167803390Y-134565475D02*
X167755771Y-134470237D01*
X167755771Y-134470237D02*
X167755771Y-134232142D01*
X167755771Y-134232142D02*
X167803390Y-134136904D01*
X167803390Y-134136904D02*
X167851009Y-134089285D01*
X167851009Y-134089285D02*
X167946247Y-134041666D01*
X167946247Y-134041666D02*
X168184342Y-134041666D01*
X168184342Y-134041666D02*
X168279580Y-134089285D01*
X168279580Y-134089285D02*
X168327200Y-134136904D01*
X168327200Y-134136904D02*
X168374819Y-134232142D01*
X168374819Y-134232142D02*
X168374819Y-134470237D01*
X168374819Y-134470237D02*
X168327200Y-134565475D01*
X168327200Y-134565475D02*
X168279580Y-134613094D01*
X138109580Y-82166666D02*
X138157200Y-82214285D01*
X138157200Y-82214285D02*
X138204819Y-82357142D01*
X138204819Y-82357142D02*
X138204819Y-82452380D01*
X138204819Y-82452380D02*
X138157200Y-82595237D01*
X138157200Y-82595237D02*
X138061961Y-82690475D01*
X138061961Y-82690475D02*
X137966723Y-82738094D01*
X137966723Y-82738094D02*
X137776247Y-82785713D01*
X137776247Y-82785713D02*
X137633390Y-82785713D01*
X137633390Y-82785713D02*
X137442914Y-82738094D01*
X137442914Y-82738094D02*
X137347676Y-82690475D01*
X137347676Y-82690475D02*
X137252438Y-82595237D01*
X137252438Y-82595237D02*
X137204819Y-82452380D01*
X137204819Y-82452380D02*
X137204819Y-82357142D01*
X137204819Y-82357142D02*
X137252438Y-82214285D01*
X137252438Y-82214285D02*
X137300057Y-82166666D01*
X137538152Y-81309523D02*
X138204819Y-81309523D01*
X137157200Y-81547618D02*
X137871485Y-81785713D01*
X137871485Y-81785713D02*
X137871485Y-81166666D01*
X138009580Y-74766666D02*
X138057200Y-74814285D01*
X138057200Y-74814285D02*
X138104819Y-74957142D01*
X138104819Y-74957142D02*
X138104819Y-75052380D01*
X138104819Y-75052380D02*
X138057200Y-75195237D01*
X138057200Y-75195237D02*
X137961961Y-75290475D01*
X137961961Y-75290475D02*
X137866723Y-75338094D01*
X137866723Y-75338094D02*
X137676247Y-75385713D01*
X137676247Y-75385713D02*
X137533390Y-75385713D01*
X137533390Y-75385713D02*
X137342914Y-75338094D01*
X137342914Y-75338094D02*
X137247676Y-75290475D01*
X137247676Y-75290475D02*
X137152438Y-75195237D01*
X137152438Y-75195237D02*
X137104819Y-75052380D01*
X137104819Y-75052380D02*
X137104819Y-74957142D01*
X137104819Y-74957142D02*
X137152438Y-74814285D01*
X137152438Y-74814285D02*
X137200057Y-74766666D01*
X137533390Y-74195237D02*
X137485771Y-74290475D01*
X137485771Y-74290475D02*
X137438152Y-74338094D01*
X137438152Y-74338094D02*
X137342914Y-74385713D01*
X137342914Y-74385713D02*
X137295295Y-74385713D01*
X137295295Y-74385713D02*
X137200057Y-74338094D01*
X137200057Y-74338094D02*
X137152438Y-74290475D01*
X137152438Y-74290475D02*
X137104819Y-74195237D01*
X137104819Y-74195237D02*
X137104819Y-74004761D01*
X137104819Y-74004761D02*
X137152438Y-73909523D01*
X137152438Y-73909523D02*
X137200057Y-73861904D01*
X137200057Y-73861904D02*
X137295295Y-73814285D01*
X137295295Y-73814285D02*
X137342914Y-73814285D01*
X137342914Y-73814285D02*
X137438152Y-73861904D01*
X137438152Y-73861904D02*
X137485771Y-73909523D01*
X137485771Y-73909523D02*
X137533390Y-74004761D01*
X137533390Y-74004761D02*
X137533390Y-74195237D01*
X137533390Y-74195237D02*
X137581009Y-74290475D01*
X137581009Y-74290475D02*
X137628628Y-74338094D01*
X137628628Y-74338094D02*
X137723866Y-74385713D01*
X137723866Y-74385713D02*
X137914342Y-74385713D01*
X137914342Y-74385713D02*
X138009580Y-74338094D01*
X138009580Y-74338094D02*
X138057200Y-74290475D01*
X138057200Y-74290475D02*
X138104819Y-74195237D01*
X138104819Y-74195237D02*
X138104819Y-74004761D01*
X138104819Y-74004761D02*
X138057200Y-73909523D01*
X138057200Y-73909523D02*
X138009580Y-73861904D01*
X138009580Y-73861904D02*
X137914342Y-73814285D01*
X137914342Y-73814285D02*
X137723866Y-73814285D01*
X137723866Y-73814285D02*
X137628628Y-73861904D01*
X137628628Y-73861904D02*
X137581009Y-73909523D01*
X137581009Y-73909523D02*
X137533390Y-74004761D01*
X144031666Y-118159819D02*
X144031666Y-118874104D01*
X144031666Y-118874104D02*
X143984047Y-119016961D01*
X143984047Y-119016961D02*
X143888809Y-119112200D01*
X143888809Y-119112200D02*
X143745952Y-119159819D01*
X143745952Y-119159819D02*
X143650714Y-119159819D01*
X144412619Y-118159819D02*
X145031666Y-118159819D01*
X145031666Y-118159819D02*
X144698333Y-118540771D01*
X144698333Y-118540771D02*
X144841190Y-118540771D01*
X144841190Y-118540771D02*
X144936428Y-118588390D01*
X144936428Y-118588390D02*
X144984047Y-118636009D01*
X144984047Y-118636009D02*
X145031666Y-118731247D01*
X145031666Y-118731247D02*
X145031666Y-118969342D01*
X145031666Y-118969342D02*
X144984047Y-119064580D01*
X144984047Y-119064580D02*
X144936428Y-119112200D01*
X144936428Y-119112200D02*
X144841190Y-119159819D01*
X144841190Y-119159819D02*
X144555476Y-119159819D01*
X144555476Y-119159819D02*
X144460238Y-119112200D01*
X144460238Y-119112200D02*
X144412619Y-119064580D01*
X160408580Y-103071666D02*
X160456200Y-103119285D01*
X160456200Y-103119285D02*
X160503819Y-103262142D01*
X160503819Y-103262142D02*
X160503819Y-103357380D01*
X160503819Y-103357380D02*
X160456200Y-103500237D01*
X160456200Y-103500237D02*
X160360961Y-103595475D01*
X160360961Y-103595475D02*
X160265723Y-103643094D01*
X160265723Y-103643094D02*
X160075247Y-103690713D01*
X160075247Y-103690713D02*
X159932390Y-103690713D01*
X159932390Y-103690713D02*
X159741914Y-103643094D01*
X159741914Y-103643094D02*
X159646676Y-103595475D01*
X159646676Y-103595475D02*
X159551438Y-103500237D01*
X159551438Y-103500237D02*
X159503819Y-103357380D01*
X159503819Y-103357380D02*
X159503819Y-103262142D01*
X159503819Y-103262142D02*
X159551438Y-103119285D01*
X159551438Y-103119285D02*
X159599057Y-103071666D01*
X159503819Y-102166904D02*
X159503819Y-102643094D01*
X159503819Y-102643094D02*
X159980009Y-102690713D01*
X159980009Y-102690713D02*
X159932390Y-102643094D01*
X159932390Y-102643094D02*
X159884771Y-102547856D01*
X159884771Y-102547856D02*
X159884771Y-102309761D01*
X159884771Y-102309761D02*
X159932390Y-102214523D01*
X159932390Y-102214523D02*
X159980009Y-102166904D01*
X159980009Y-102166904D02*
X160075247Y-102119285D01*
X160075247Y-102119285D02*
X160313342Y-102119285D01*
X160313342Y-102119285D02*
X160408580Y-102166904D01*
X160408580Y-102166904D02*
X160456200Y-102214523D01*
X160456200Y-102214523D02*
X160503819Y-102309761D01*
X160503819Y-102309761D02*
X160503819Y-102547856D01*
X160503819Y-102547856D02*
X160456200Y-102643094D01*
X160456200Y-102643094D02*
X160408580Y-102690713D01*
X155328580Y-103071666D02*
X155376200Y-103119285D01*
X155376200Y-103119285D02*
X155423819Y-103262142D01*
X155423819Y-103262142D02*
X155423819Y-103357380D01*
X155423819Y-103357380D02*
X155376200Y-103500237D01*
X155376200Y-103500237D02*
X155280961Y-103595475D01*
X155280961Y-103595475D02*
X155185723Y-103643094D01*
X155185723Y-103643094D02*
X154995247Y-103690713D01*
X154995247Y-103690713D02*
X154852390Y-103690713D01*
X154852390Y-103690713D02*
X154661914Y-103643094D01*
X154661914Y-103643094D02*
X154566676Y-103595475D01*
X154566676Y-103595475D02*
X154471438Y-103500237D01*
X154471438Y-103500237D02*
X154423819Y-103357380D01*
X154423819Y-103357380D02*
X154423819Y-103262142D01*
X154423819Y-103262142D02*
X154471438Y-103119285D01*
X154471438Y-103119285D02*
X154519057Y-103071666D01*
X154423819Y-102738332D02*
X154423819Y-102119285D01*
X154423819Y-102119285D02*
X154804771Y-102452618D01*
X154804771Y-102452618D02*
X154804771Y-102309761D01*
X154804771Y-102309761D02*
X154852390Y-102214523D01*
X154852390Y-102214523D02*
X154900009Y-102166904D01*
X154900009Y-102166904D02*
X154995247Y-102119285D01*
X154995247Y-102119285D02*
X155233342Y-102119285D01*
X155233342Y-102119285D02*
X155328580Y-102166904D01*
X155328580Y-102166904D02*
X155376200Y-102214523D01*
X155376200Y-102214523D02*
X155423819Y-102309761D01*
X155423819Y-102309761D02*
X155423819Y-102595475D01*
X155423819Y-102595475D02*
X155376200Y-102690713D01*
X155376200Y-102690713D02*
X155328580Y-102738332D01*
D11*
X165088765Y-90309988D02*
X164665431Y-89705226D01*
X164363050Y-90309988D02*
X164363050Y-89039988D01*
X164363050Y-89039988D02*
X164846860Y-89039988D01*
X164846860Y-89039988D02*
X164967812Y-89100464D01*
X164967812Y-89100464D02*
X165028289Y-89160940D01*
X165028289Y-89160940D02*
X165088765Y-89281892D01*
X165088765Y-89281892D02*
X165088765Y-89463321D01*
X165088765Y-89463321D02*
X165028289Y-89584273D01*
X165028289Y-89584273D02*
X164967812Y-89644750D01*
X164967812Y-89644750D02*
X164846860Y-89705226D01*
X164846860Y-89705226D02*
X164363050Y-89705226D01*
X165633050Y-90309988D02*
X165633050Y-89039988D01*
X165633050Y-89039988D02*
X166358765Y-90309988D01*
X166358765Y-90309988D02*
X166358765Y-89039988D01*
X166903050Y-89160940D02*
X166963526Y-89100464D01*
X166963526Y-89100464D02*
X167084479Y-89039988D01*
X167084479Y-89039988D02*
X167386860Y-89039988D01*
X167386860Y-89039988D02*
X167507812Y-89100464D01*
X167507812Y-89100464D02*
X167568288Y-89160940D01*
X167568288Y-89160940D02*
X167628765Y-89281892D01*
X167628765Y-89281892D02*
X167628765Y-89402845D01*
X167628765Y-89402845D02*
X167568288Y-89584273D01*
X167568288Y-89584273D02*
X166842574Y-90309988D01*
X166842574Y-90309988D02*
X167628765Y-90309988D01*
D10*
X126233810Y-68399819D02*
X126233810Y-67399819D01*
X127281428Y-68304580D02*
X127233809Y-68352200D01*
X127233809Y-68352200D02*
X127090952Y-68399819D01*
X127090952Y-68399819D02*
X126995714Y-68399819D01*
X126995714Y-68399819D02*
X126852857Y-68352200D01*
X126852857Y-68352200D02*
X126757619Y-68256961D01*
X126757619Y-68256961D02*
X126710000Y-68161723D01*
X126710000Y-68161723D02*
X126662381Y-67971247D01*
X126662381Y-67971247D02*
X126662381Y-67828390D01*
X126662381Y-67828390D02*
X126710000Y-67637914D01*
X126710000Y-67637914D02*
X126757619Y-67542676D01*
X126757619Y-67542676D02*
X126852857Y-67447438D01*
X126852857Y-67447438D02*
X126995714Y-67399819D01*
X126995714Y-67399819D02*
X127090952Y-67399819D01*
X127090952Y-67399819D02*
X127233809Y-67447438D01*
X127233809Y-67447438D02*
X127281428Y-67495057D01*
X128233809Y-68399819D02*
X127662381Y-68399819D01*
X127948095Y-68399819D02*
X127948095Y-67399819D01*
X127948095Y-67399819D02*
X127852857Y-67542676D01*
X127852857Y-67542676D02*
X127757619Y-67637914D01*
X127757619Y-67637914D02*
X127662381Y-67685533D01*
D11*
X119174318Y-77239762D02*
X117904318Y-77239762D01*
X119053365Y-75909285D02*
X119113842Y-75969761D01*
X119113842Y-75969761D02*
X119174318Y-76151190D01*
X119174318Y-76151190D02*
X119174318Y-76272142D01*
X119174318Y-76272142D02*
X119113842Y-76453571D01*
X119113842Y-76453571D02*
X118992889Y-76574523D01*
X118992889Y-76574523D02*
X118871937Y-76635000D01*
X118871937Y-76635000D02*
X118630032Y-76695476D01*
X118630032Y-76695476D02*
X118448603Y-76695476D01*
X118448603Y-76695476D02*
X118206699Y-76635000D01*
X118206699Y-76635000D02*
X118085746Y-76574523D01*
X118085746Y-76574523D02*
X117964794Y-76453571D01*
X117964794Y-76453571D02*
X117904318Y-76272142D01*
X117904318Y-76272142D02*
X117904318Y-76151190D01*
X117904318Y-76151190D02*
X117964794Y-75969761D01*
X117964794Y-75969761D02*
X118025270Y-75909285D01*
X118327651Y-74820714D02*
X119174318Y-74820714D01*
X117843842Y-75123095D02*
X118750984Y-75425476D01*
X118750984Y-75425476D02*
X118750984Y-74639285D01*
D10*
X148584819Y-98416666D02*
X148108628Y-98749999D01*
X148584819Y-98988094D02*
X147584819Y-98988094D01*
X147584819Y-98988094D02*
X147584819Y-98607142D01*
X147584819Y-98607142D02*
X147632438Y-98511904D01*
X147632438Y-98511904D02*
X147680057Y-98464285D01*
X147680057Y-98464285D02*
X147775295Y-98416666D01*
X147775295Y-98416666D02*
X147918152Y-98416666D01*
X147918152Y-98416666D02*
X148013390Y-98464285D01*
X148013390Y-98464285D02*
X148061009Y-98511904D01*
X148061009Y-98511904D02*
X148108628Y-98607142D01*
X148108628Y-98607142D02*
X148108628Y-98988094D01*
X147584819Y-98083332D02*
X147584819Y-97416666D01*
X147584819Y-97416666D02*
X148584819Y-97845237D01*
D13*
X110354795Y-103207243D02*
X111074462Y-103207243D01*
X111074462Y-103207243D02*
X111159128Y-103164910D01*
X111159128Y-103164910D02*
X111201462Y-103122576D01*
X111201462Y-103122576D02*
X111243795Y-103037910D01*
X111243795Y-103037910D02*
X111243795Y-102868576D01*
X111243795Y-102868576D02*
X111201462Y-102783910D01*
X111201462Y-102783910D02*
X111159128Y-102741576D01*
X111159128Y-102741576D02*
X111074462Y-102699243D01*
X111074462Y-102699243D02*
X110354795Y-102699243D01*
X110439462Y-102318243D02*
X110397128Y-102275910D01*
X110397128Y-102275910D02*
X110354795Y-102191243D01*
X110354795Y-102191243D02*
X110354795Y-101979577D01*
X110354795Y-101979577D02*
X110397128Y-101894910D01*
X110397128Y-101894910D02*
X110439462Y-101852577D01*
X110439462Y-101852577D02*
X110524128Y-101810243D01*
X110524128Y-101810243D02*
X110608795Y-101810243D01*
X110608795Y-101810243D02*
X110735795Y-101852577D01*
X110735795Y-101852577D02*
X111243795Y-102360577D01*
X111243795Y-102360577D02*
X111243795Y-101810243D01*
D14*
X122072331Y-106196580D02*
X122101359Y-106109495D01*
X122101359Y-106109495D02*
X122101359Y-105964352D01*
X122101359Y-105964352D02*
X122072331Y-105906295D01*
X122072331Y-105906295D02*
X122043302Y-105877266D01*
X122043302Y-105877266D02*
X121985245Y-105848237D01*
X121985245Y-105848237D02*
X121927188Y-105848237D01*
X121927188Y-105848237D02*
X121869131Y-105877266D01*
X121869131Y-105877266D02*
X121840102Y-105906295D01*
X121840102Y-105906295D02*
X121811073Y-105964352D01*
X121811073Y-105964352D02*
X121782045Y-106080466D01*
X121782045Y-106080466D02*
X121753016Y-106138523D01*
X121753016Y-106138523D02*
X121723988Y-106167552D01*
X121723988Y-106167552D02*
X121665931Y-106196580D01*
X121665931Y-106196580D02*
X121607873Y-106196580D01*
X121607873Y-106196580D02*
X121549816Y-106167552D01*
X121549816Y-106167552D02*
X121520788Y-106138523D01*
X121520788Y-106138523D02*
X121491759Y-106080466D01*
X121491759Y-106080466D02*
X121491759Y-105935323D01*
X121491759Y-105935323D02*
X121520788Y-105848237D01*
X122072331Y-105354752D02*
X122101359Y-105412809D01*
X122101359Y-105412809D02*
X122101359Y-105528924D01*
X122101359Y-105528924D02*
X122072331Y-105586981D01*
X122072331Y-105586981D02*
X122014273Y-105616009D01*
X122014273Y-105616009D02*
X121782045Y-105616009D01*
X121782045Y-105616009D02*
X121723988Y-105586981D01*
X121723988Y-105586981D02*
X121694959Y-105528924D01*
X121694959Y-105528924D02*
X121694959Y-105412809D01*
X121694959Y-105412809D02*
X121723988Y-105354752D01*
X121723988Y-105354752D02*
X121782045Y-105325724D01*
X121782045Y-105325724D02*
X121840102Y-105325724D01*
X121840102Y-105325724D02*
X121898159Y-105616009D01*
X122072331Y-104832238D02*
X122101359Y-104890295D01*
X122101359Y-104890295D02*
X122101359Y-105006410D01*
X122101359Y-105006410D02*
X122072331Y-105064467D01*
X122072331Y-105064467D02*
X122014273Y-105093495D01*
X122014273Y-105093495D02*
X121782045Y-105093495D01*
X121782045Y-105093495D02*
X121723988Y-105064467D01*
X121723988Y-105064467D02*
X121694959Y-105006410D01*
X121694959Y-105006410D02*
X121694959Y-104890295D01*
X121694959Y-104890295D02*
X121723988Y-104832238D01*
X121723988Y-104832238D02*
X121782045Y-104803210D01*
X121782045Y-104803210D02*
X121840102Y-104803210D01*
X121840102Y-104803210D02*
X121898159Y-105093495D01*
X122072331Y-104309724D02*
X122101359Y-104367781D01*
X122101359Y-104367781D02*
X122101359Y-104483896D01*
X122101359Y-104483896D02*
X122072331Y-104541953D01*
X122072331Y-104541953D02*
X122014273Y-104570981D01*
X122014273Y-104570981D02*
X121782045Y-104570981D01*
X121782045Y-104570981D02*
X121723988Y-104541953D01*
X121723988Y-104541953D02*
X121694959Y-104483896D01*
X121694959Y-104483896D02*
X121694959Y-104367781D01*
X121694959Y-104367781D02*
X121723988Y-104309724D01*
X121723988Y-104309724D02*
X121782045Y-104280696D01*
X121782045Y-104280696D02*
X121840102Y-104280696D01*
X121840102Y-104280696D02*
X121898159Y-104570981D01*
X122101359Y-103758182D02*
X121491759Y-103758182D01*
X122072331Y-103758182D02*
X122101359Y-103816239D01*
X122101359Y-103816239D02*
X122101359Y-103932353D01*
X122101359Y-103932353D02*
X122072331Y-103990410D01*
X122072331Y-103990410D02*
X122043302Y-104019439D01*
X122043302Y-104019439D02*
X121985245Y-104048467D01*
X121985245Y-104048467D02*
X121811073Y-104048467D01*
X121811073Y-104048467D02*
X121753016Y-104019439D01*
X121753016Y-104019439D02*
X121723988Y-103990410D01*
X121723988Y-103990410D02*
X121694959Y-103932353D01*
X121694959Y-103932353D02*
X121694959Y-103816239D01*
X121694959Y-103816239D02*
X121723988Y-103758182D01*
X121694959Y-103206639D02*
X122101359Y-103206639D01*
X121694959Y-103467896D02*
X122014273Y-103467896D01*
X122014273Y-103467896D02*
X122072331Y-103438867D01*
X122072331Y-103438867D02*
X122101359Y-103380810D01*
X122101359Y-103380810D02*
X122101359Y-103293724D01*
X122101359Y-103293724D02*
X122072331Y-103235667D01*
X122072331Y-103235667D02*
X122043302Y-103206639D01*
X122101359Y-102916353D02*
X121694959Y-102916353D01*
X121491759Y-102916353D02*
X121520788Y-102945381D01*
X121520788Y-102945381D02*
X121549816Y-102916353D01*
X121549816Y-102916353D02*
X121520788Y-102887324D01*
X121520788Y-102887324D02*
X121491759Y-102916353D01*
X121491759Y-102916353D02*
X121549816Y-102916353D01*
X121694959Y-102626067D02*
X122101359Y-102626067D01*
X121753016Y-102626067D02*
X121723988Y-102597038D01*
X121723988Y-102597038D02*
X121694959Y-102538981D01*
X121694959Y-102538981D02*
X121694959Y-102451895D01*
X121694959Y-102451895D02*
X121723988Y-102393838D01*
X121723988Y-102393838D02*
X121782045Y-102364810D01*
X121782045Y-102364810D02*
X122101359Y-102364810D01*
X122101359Y-101987438D02*
X122072331Y-102045495D01*
X122072331Y-102045495D02*
X122043302Y-102074524D01*
X122043302Y-102074524D02*
X121985245Y-102103552D01*
X121985245Y-102103552D02*
X121811073Y-102103552D01*
X121811073Y-102103552D02*
X121753016Y-102074524D01*
X121753016Y-102074524D02*
X121723988Y-102045495D01*
X121723988Y-102045495D02*
X121694959Y-101987438D01*
X121694959Y-101987438D02*
X121694959Y-101900352D01*
X121694959Y-101900352D02*
X121723988Y-101842295D01*
X121723988Y-101842295D02*
X121753016Y-101813267D01*
X121753016Y-101813267D02*
X121811073Y-101784238D01*
X121811073Y-101784238D02*
X121985245Y-101784238D01*
X121985245Y-101784238D02*
X122043302Y-101813267D01*
X122043302Y-101813267D02*
X122072331Y-101842295D01*
X122072331Y-101842295D02*
X122101359Y-101900352D01*
X122101359Y-101900352D02*
X122101359Y-101987438D01*
X121491759Y-101581038D02*
X122101359Y-101174638D01*
X121491759Y-101174638D02*
X122101359Y-101581038D01*
X122101359Y-100942410D02*
X121491759Y-100942410D01*
X121927188Y-100681152D02*
X121927188Y-100390867D01*
X122101359Y-100739209D02*
X121491759Y-100536009D01*
X121491759Y-100536009D02*
X122101359Y-100332809D01*
X121491759Y-100013495D02*
X121491759Y-99897381D01*
X121491759Y-99897381D02*
X121520788Y-99839324D01*
X121520788Y-99839324D02*
X121578845Y-99781267D01*
X121578845Y-99781267D02*
X121694959Y-99752238D01*
X121694959Y-99752238D02*
X121898159Y-99752238D01*
X121898159Y-99752238D02*
X122014273Y-99781267D01*
X122014273Y-99781267D02*
X122072331Y-99839324D01*
X122072331Y-99839324D02*
X122101359Y-99897381D01*
X122101359Y-99897381D02*
X122101359Y-100013495D01*
X122101359Y-100013495D02*
X122072331Y-100071553D01*
X122072331Y-100071553D02*
X122014273Y-100129610D01*
X122014273Y-100129610D02*
X121898159Y-100158638D01*
X121898159Y-100158638D02*
X121694959Y-100158638D01*
X121694959Y-100158638D02*
X121578845Y-100129610D01*
X121578845Y-100129610D02*
X121520788Y-100071553D01*
X121520788Y-100071553D02*
X121491759Y-100013495D01*
D12*
X177119800Y-93623332D02*
X177167419Y-93480475D01*
X177167419Y-93480475D02*
X177167419Y-93242380D01*
X177167419Y-93242380D02*
X177119800Y-93147142D01*
X177119800Y-93147142D02*
X177072180Y-93099523D01*
X177072180Y-93099523D02*
X176976942Y-93051904D01*
X176976942Y-93051904D02*
X176881704Y-93051904D01*
X176881704Y-93051904D02*
X176786466Y-93099523D01*
X176786466Y-93099523D02*
X176738847Y-93147142D01*
X176738847Y-93147142D02*
X176691228Y-93242380D01*
X176691228Y-93242380D02*
X176643609Y-93432856D01*
X176643609Y-93432856D02*
X176595990Y-93528094D01*
X176595990Y-93528094D02*
X176548371Y-93575713D01*
X176548371Y-93575713D02*
X176453133Y-93623332D01*
X176453133Y-93623332D02*
X176357895Y-93623332D01*
X176357895Y-93623332D02*
X176262657Y-93575713D01*
X176262657Y-93575713D02*
X176215038Y-93528094D01*
X176215038Y-93528094D02*
X176167419Y-93432856D01*
X176167419Y-93432856D02*
X176167419Y-93194761D01*
X176167419Y-93194761D02*
X176215038Y-93051904D01*
X176167419Y-92718570D02*
X177167419Y-92480475D01*
X177167419Y-92480475D02*
X176453133Y-92289999D01*
X176453133Y-92289999D02*
X177167419Y-92099523D01*
X177167419Y-92099523D02*
X176167419Y-91861428D01*
X177167419Y-91432856D02*
X177167419Y-91242380D01*
X177167419Y-91242380D02*
X177119800Y-91147142D01*
X177119800Y-91147142D02*
X177072180Y-91099523D01*
X177072180Y-91099523D02*
X176929323Y-91004285D01*
X176929323Y-91004285D02*
X176738847Y-90956666D01*
X176738847Y-90956666D02*
X176357895Y-90956666D01*
X176357895Y-90956666D02*
X176262657Y-91004285D01*
X176262657Y-91004285D02*
X176215038Y-91051904D01*
X176215038Y-91051904D02*
X176167419Y-91147142D01*
X176167419Y-91147142D02*
X176167419Y-91337618D01*
X176167419Y-91337618D02*
X176215038Y-91432856D01*
X176215038Y-91432856D02*
X176262657Y-91480475D01*
X176262657Y-91480475D02*
X176357895Y-91528094D01*
X176357895Y-91528094D02*
X176595990Y-91528094D01*
X176595990Y-91528094D02*
X176691228Y-91480475D01*
X176691228Y-91480475D02*
X176738847Y-91432856D01*
X176738847Y-91432856D02*
X176786466Y-91337618D01*
X176786466Y-91337618D02*
X176786466Y-91147142D01*
X176786466Y-91147142D02*
X176738847Y-91051904D01*
X176738847Y-91051904D02*
X176691228Y-91004285D01*
X176691228Y-91004285D02*
X176595990Y-90956666D01*
D10*
X159333810Y-68264819D02*
X159333810Y-67264819D01*
X160381428Y-68169580D02*
X160333809Y-68217200D01*
X160333809Y-68217200D02*
X160190952Y-68264819D01*
X160190952Y-68264819D02*
X160095714Y-68264819D01*
X160095714Y-68264819D02*
X159952857Y-68217200D01*
X159952857Y-68217200D02*
X159857619Y-68121961D01*
X159857619Y-68121961D02*
X159810000Y-68026723D01*
X159810000Y-68026723D02*
X159762381Y-67836247D01*
X159762381Y-67836247D02*
X159762381Y-67693390D01*
X159762381Y-67693390D02*
X159810000Y-67502914D01*
X159810000Y-67502914D02*
X159857619Y-67407676D01*
X159857619Y-67407676D02*
X159952857Y-67312438D01*
X159952857Y-67312438D02*
X160095714Y-67264819D01*
X160095714Y-67264819D02*
X160190952Y-67264819D01*
X160190952Y-67264819D02*
X160333809Y-67312438D01*
X160333809Y-67312438D02*
X160381428Y-67360057D01*
X160762381Y-67360057D02*
X160810000Y-67312438D01*
X160810000Y-67312438D02*
X160905238Y-67264819D01*
X160905238Y-67264819D02*
X161143333Y-67264819D01*
X161143333Y-67264819D02*
X161238571Y-67312438D01*
X161238571Y-67312438D02*
X161286190Y-67360057D01*
X161286190Y-67360057D02*
X161333809Y-67455295D01*
X161333809Y-67455295D02*
X161333809Y-67550533D01*
X161333809Y-67550533D02*
X161286190Y-67693390D01*
X161286190Y-67693390D02*
X160714762Y-68264819D01*
X160714762Y-68264819D02*
X161333809Y-68264819D01*
X152491905Y-109244819D02*
X152491905Y-108244819D01*
X152491905Y-108244819D02*
X152730000Y-108244819D01*
X152730000Y-108244819D02*
X152872857Y-108292438D01*
X152872857Y-108292438D02*
X152968095Y-108387676D01*
X152968095Y-108387676D02*
X153015714Y-108482914D01*
X153015714Y-108482914D02*
X153063333Y-108673390D01*
X153063333Y-108673390D02*
X153063333Y-108816247D01*
X153063333Y-108816247D02*
X153015714Y-109006723D01*
X153015714Y-109006723D02*
X152968095Y-109101961D01*
X152968095Y-109101961D02*
X152872857Y-109197200D01*
X152872857Y-109197200D02*
X152730000Y-109244819D01*
X152730000Y-109244819D02*
X152491905Y-109244819D01*
X154015714Y-109244819D02*
X153444286Y-109244819D01*
X153730000Y-109244819D02*
X153730000Y-108244819D01*
X153730000Y-108244819D02*
X153634762Y-108387676D01*
X153634762Y-108387676D02*
X153539524Y-108482914D01*
X153539524Y-108482914D02*
X153444286Y-108530533D01*
D11*
X151276667Y-57192318D02*
X151276667Y-58099461D01*
X151276667Y-58099461D02*
X151216190Y-58280889D01*
X151216190Y-58280889D02*
X151095238Y-58401842D01*
X151095238Y-58401842D02*
X150913809Y-58462318D01*
X150913809Y-58462318D02*
X150792857Y-58462318D01*
X151760476Y-57192318D02*
X152607143Y-57192318D01*
X152607143Y-57192318D02*
X152062857Y-58462318D01*
X136374318Y-77259762D02*
X135104318Y-77259762D01*
X136253365Y-75929285D02*
X136313842Y-75989761D01*
X136313842Y-75989761D02*
X136374318Y-76171190D01*
X136374318Y-76171190D02*
X136374318Y-76292142D01*
X136374318Y-76292142D02*
X136313842Y-76473571D01*
X136313842Y-76473571D02*
X136192889Y-76594523D01*
X136192889Y-76594523D02*
X136071937Y-76655000D01*
X136071937Y-76655000D02*
X135830032Y-76715476D01*
X135830032Y-76715476D02*
X135648603Y-76715476D01*
X135648603Y-76715476D02*
X135406699Y-76655000D01*
X135406699Y-76655000D02*
X135285746Y-76594523D01*
X135285746Y-76594523D02*
X135164794Y-76473571D01*
X135164794Y-76473571D02*
X135104318Y-76292142D01*
X135104318Y-76292142D02*
X135104318Y-76171190D01*
X135104318Y-76171190D02*
X135164794Y-75989761D01*
X135164794Y-75989761D02*
X135225270Y-75929285D01*
X135104318Y-74780238D02*
X135104318Y-75385000D01*
X135104318Y-75385000D02*
X135709080Y-75445476D01*
X135709080Y-75445476D02*
X135648603Y-75385000D01*
X135648603Y-75385000D02*
X135588127Y-75264047D01*
X135588127Y-75264047D02*
X135588127Y-74961666D01*
X135588127Y-74961666D02*
X135648603Y-74840714D01*
X135648603Y-74840714D02*
X135709080Y-74780238D01*
X135709080Y-74780238D02*
X135830032Y-74719761D01*
X135830032Y-74719761D02*
X136132413Y-74719761D01*
X136132413Y-74719761D02*
X136253365Y-74780238D01*
X136253365Y-74780238D02*
X136313842Y-74840714D01*
X136313842Y-74840714D02*
X136374318Y-74961666D01*
X136374318Y-74961666D02*
X136374318Y-75264047D01*
X136374318Y-75264047D02*
X136313842Y-75385000D01*
X136313842Y-75385000D02*
X136253365Y-75445476D01*
D10*
X158007200Y-136583332D02*
X158054819Y-136440475D01*
X158054819Y-136440475D02*
X158054819Y-136202380D01*
X158054819Y-136202380D02*
X158007200Y-136107142D01*
X158007200Y-136107142D02*
X157959580Y-136059523D01*
X157959580Y-136059523D02*
X157864342Y-136011904D01*
X157864342Y-136011904D02*
X157769104Y-136011904D01*
X157769104Y-136011904D02*
X157673866Y-136059523D01*
X157673866Y-136059523D02*
X157626247Y-136107142D01*
X157626247Y-136107142D02*
X157578628Y-136202380D01*
X157578628Y-136202380D02*
X157531009Y-136392856D01*
X157531009Y-136392856D02*
X157483390Y-136488094D01*
X157483390Y-136488094D02*
X157435771Y-136535713D01*
X157435771Y-136535713D02*
X157340533Y-136583332D01*
X157340533Y-136583332D02*
X157245295Y-136583332D01*
X157245295Y-136583332D02*
X157150057Y-136535713D01*
X157150057Y-136535713D02*
X157102438Y-136488094D01*
X157102438Y-136488094D02*
X157054819Y-136392856D01*
X157054819Y-136392856D02*
X157054819Y-136154761D01*
X157054819Y-136154761D02*
X157102438Y-136011904D01*
X157054819Y-135678570D02*
X158054819Y-135440475D01*
X158054819Y-135440475D02*
X157340533Y-135249999D01*
X157340533Y-135249999D02*
X158054819Y-135059523D01*
X158054819Y-135059523D02*
X157054819Y-134821428D01*
X157054819Y-134535713D02*
X157054819Y-133916666D01*
X157054819Y-133916666D02*
X157435771Y-134249999D01*
X157435771Y-134249999D02*
X157435771Y-134107142D01*
X157435771Y-134107142D02*
X157483390Y-134011904D01*
X157483390Y-134011904D02*
X157531009Y-133964285D01*
X157531009Y-133964285D02*
X157626247Y-133916666D01*
X157626247Y-133916666D02*
X157864342Y-133916666D01*
X157864342Y-133916666D02*
X157959580Y-133964285D01*
X157959580Y-133964285D02*
X158007200Y-134011904D01*
X158007200Y-134011904D02*
X158054819Y-134107142D01*
X158054819Y-134107142D02*
X158054819Y-134392856D01*
X158054819Y-134392856D02*
X158007200Y-134488094D01*
X158007200Y-134488094D02*
X157959580Y-134535713D01*
X149907200Y-136583332D02*
X149954819Y-136440475D01*
X149954819Y-136440475D02*
X149954819Y-136202380D01*
X149954819Y-136202380D02*
X149907200Y-136107142D01*
X149907200Y-136107142D02*
X149859580Y-136059523D01*
X149859580Y-136059523D02*
X149764342Y-136011904D01*
X149764342Y-136011904D02*
X149669104Y-136011904D01*
X149669104Y-136011904D02*
X149573866Y-136059523D01*
X149573866Y-136059523D02*
X149526247Y-136107142D01*
X149526247Y-136107142D02*
X149478628Y-136202380D01*
X149478628Y-136202380D02*
X149431009Y-136392856D01*
X149431009Y-136392856D02*
X149383390Y-136488094D01*
X149383390Y-136488094D02*
X149335771Y-136535713D01*
X149335771Y-136535713D02*
X149240533Y-136583332D01*
X149240533Y-136583332D02*
X149145295Y-136583332D01*
X149145295Y-136583332D02*
X149050057Y-136535713D01*
X149050057Y-136535713D02*
X149002438Y-136488094D01*
X149002438Y-136488094D02*
X148954819Y-136392856D01*
X148954819Y-136392856D02*
X148954819Y-136154761D01*
X148954819Y-136154761D02*
X149002438Y-136011904D01*
X148954819Y-135678570D02*
X149954819Y-135440475D01*
X149954819Y-135440475D02*
X149240533Y-135249999D01*
X149240533Y-135249999D02*
X149954819Y-135059523D01*
X149954819Y-135059523D02*
X148954819Y-134821428D01*
X149954819Y-133916666D02*
X149954819Y-134488094D01*
X149954819Y-134202380D02*
X148954819Y-134202380D01*
X148954819Y-134202380D02*
X149097676Y-134297618D01*
X149097676Y-134297618D02*
X149192914Y-134392856D01*
X149192914Y-134392856D02*
X149240533Y-134488094D01*
D11*
X135776667Y-57192318D02*
X135776667Y-58099461D01*
X135776667Y-58099461D02*
X135716190Y-58280889D01*
X135716190Y-58280889D02*
X135595238Y-58401842D01*
X135595238Y-58401842D02*
X135413809Y-58462318D01*
X135413809Y-58462318D02*
X135292857Y-58462318D01*
X136925714Y-57192318D02*
X136683809Y-57192318D01*
X136683809Y-57192318D02*
X136562857Y-57252794D01*
X136562857Y-57252794D02*
X136502381Y-57313270D01*
X136502381Y-57313270D02*
X136381428Y-57494699D01*
X136381428Y-57494699D02*
X136320952Y-57736603D01*
X136320952Y-57736603D02*
X136320952Y-58220413D01*
X136320952Y-58220413D02*
X136381428Y-58341365D01*
X136381428Y-58341365D02*
X136441905Y-58401842D01*
X136441905Y-58401842D02*
X136562857Y-58462318D01*
X136562857Y-58462318D02*
X136804762Y-58462318D01*
X136804762Y-58462318D02*
X136925714Y-58401842D01*
X136925714Y-58401842D02*
X136986190Y-58341365D01*
X136986190Y-58341365D02*
X137046667Y-58220413D01*
X137046667Y-58220413D02*
X137046667Y-57918032D01*
X137046667Y-57918032D02*
X136986190Y-57797080D01*
X136986190Y-57797080D02*
X136925714Y-57736603D01*
X136925714Y-57736603D02*
X136804762Y-57676127D01*
X136804762Y-57676127D02*
X136562857Y-57676127D01*
X136562857Y-57676127D02*
X136441905Y-57736603D01*
X136441905Y-57736603D02*
X136381428Y-57797080D01*
X136381428Y-57797080D02*
X136320952Y-57918032D01*
D10*
X143109580Y-75242857D02*
X143157200Y-75290476D01*
X143157200Y-75290476D02*
X143204819Y-75433333D01*
X143204819Y-75433333D02*
X143204819Y-75528571D01*
X143204819Y-75528571D02*
X143157200Y-75671428D01*
X143157200Y-75671428D02*
X143061961Y-75766666D01*
X143061961Y-75766666D02*
X142966723Y-75814285D01*
X142966723Y-75814285D02*
X142776247Y-75861904D01*
X142776247Y-75861904D02*
X142633390Y-75861904D01*
X142633390Y-75861904D02*
X142442914Y-75814285D01*
X142442914Y-75814285D02*
X142347676Y-75766666D01*
X142347676Y-75766666D02*
X142252438Y-75671428D01*
X142252438Y-75671428D02*
X142204819Y-75528571D01*
X142204819Y-75528571D02*
X142204819Y-75433333D01*
X142204819Y-75433333D02*
X142252438Y-75290476D01*
X142252438Y-75290476D02*
X142300057Y-75242857D01*
X143204819Y-74290476D02*
X143204819Y-74861904D01*
X143204819Y-74576190D02*
X142204819Y-74576190D01*
X142204819Y-74576190D02*
X142347676Y-74671428D01*
X142347676Y-74671428D02*
X142442914Y-74766666D01*
X142442914Y-74766666D02*
X142490533Y-74861904D01*
X142204819Y-73957142D02*
X142204819Y-73290476D01*
X142204819Y-73290476D02*
X143204819Y-73719047D01*
X174255200Y-126348332D02*
X174302819Y-126205475D01*
X174302819Y-126205475D02*
X174302819Y-125967380D01*
X174302819Y-125967380D02*
X174255200Y-125872142D01*
X174255200Y-125872142D02*
X174207580Y-125824523D01*
X174207580Y-125824523D02*
X174112342Y-125776904D01*
X174112342Y-125776904D02*
X174017104Y-125776904D01*
X174017104Y-125776904D02*
X173921866Y-125824523D01*
X173921866Y-125824523D02*
X173874247Y-125872142D01*
X173874247Y-125872142D02*
X173826628Y-125967380D01*
X173826628Y-125967380D02*
X173779009Y-126157856D01*
X173779009Y-126157856D02*
X173731390Y-126253094D01*
X173731390Y-126253094D02*
X173683771Y-126300713D01*
X173683771Y-126300713D02*
X173588533Y-126348332D01*
X173588533Y-126348332D02*
X173493295Y-126348332D01*
X173493295Y-126348332D02*
X173398057Y-126300713D01*
X173398057Y-126300713D02*
X173350438Y-126253094D01*
X173350438Y-126253094D02*
X173302819Y-126157856D01*
X173302819Y-126157856D02*
X173302819Y-125919761D01*
X173302819Y-125919761D02*
X173350438Y-125776904D01*
X173302819Y-125443570D02*
X174302819Y-125205475D01*
X174302819Y-125205475D02*
X173588533Y-125014999D01*
X173588533Y-125014999D02*
X174302819Y-124824523D01*
X174302819Y-124824523D02*
X173302819Y-124586428D01*
X173731390Y-124062618D02*
X173683771Y-124157856D01*
X173683771Y-124157856D02*
X173636152Y-124205475D01*
X173636152Y-124205475D02*
X173540914Y-124253094D01*
X173540914Y-124253094D02*
X173493295Y-124253094D01*
X173493295Y-124253094D02*
X173398057Y-124205475D01*
X173398057Y-124205475D02*
X173350438Y-124157856D01*
X173350438Y-124157856D02*
X173302819Y-124062618D01*
X173302819Y-124062618D02*
X173302819Y-123872142D01*
X173302819Y-123872142D02*
X173350438Y-123776904D01*
X173350438Y-123776904D02*
X173398057Y-123729285D01*
X173398057Y-123729285D02*
X173493295Y-123681666D01*
X173493295Y-123681666D02*
X173540914Y-123681666D01*
X173540914Y-123681666D02*
X173636152Y-123729285D01*
X173636152Y-123729285D02*
X173683771Y-123776904D01*
X173683771Y-123776904D02*
X173731390Y-123872142D01*
X173731390Y-123872142D02*
X173731390Y-124062618D01*
X173731390Y-124062618D02*
X173779009Y-124157856D01*
X173779009Y-124157856D02*
X173826628Y-124205475D01*
X173826628Y-124205475D02*
X173921866Y-124253094D01*
X173921866Y-124253094D02*
X174112342Y-124253094D01*
X174112342Y-124253094D02*
X174207580Y-124205475D01*
X174207580Y-124205475D02*
X174255200Y-124157856D01*
X174255200Y-124157856D02*
X174302819Y-124062618D01*
X174302819Y-124062618D02*
X174302819Y-123872142D01*
X174302819Y-123872142D02*
X174255200Y-123776904D01*
X174255200Y-123776904D02*
X174207580Y-123729285D01*
X174207580Y-123729285D02*
X174112342Y-123681666D01*
X174112342Y-123681666D02*
X173921866Y-123681666D01*
X173921866Y-123681666D02*
X173826628Y-123729285D01*
X173826628Y-123729285D02*
X173779009Y-123776904D01*
X173779009Y-123776904D02*
X173731390Y-123872142D01*
X171209580Y-82742857D02*
X171257200Y-82790476D01*
X171257200Y-82790476D02*
X171304819Y-82933333D01*
X171304819Y-82933333D02*
X171304819Y-83028571D01*
X171304819Y-83028571D02*
X171257200Y-83171428D01*
X171257200Y-83171428D02*
X171161961Y-83266666D01*
X171161961Y-83266666D02*
X171066723Y-83314285D01*
X171066723Y-83314285D02*
X170876247Y-83361904D01*
X170876247Y-83361904D02*
X170733390Y-83361904D01*
X170733390Y-83361904D02*
X170542914Y-83314285D01*
X170542914Y-83314285D02*
X170447676Y-83266666D01*
X170447676Y-83266666D02*
X170352438Y-83171428D01*
X170352438Y-83171428D02*
X170304819Y-83028571D01*
X170304819Y-83028571D02*
X170304819Y-82933333D01*
X170304819Y-82933333D02*
X170352438Y-82790476D01*
X170352438Y-82790476D02*
X170400057Y-82742857D01*
X171304819Y-81790476D02*
X171304819Y-82361904D01*
X171304819Y-82076190D02*
X170304819Y-82076190D01*
X170304819Y-82076190D02*
X170447676Y-82171428D01*
X170447676Y-82171428D02*
X170542914Y-82266666D01*
X170542914Y-82266666D02*
X170590533Y-82361904D01*
X170304819Y-80933333D02*
X170304819Y-81123809D01*
X170304819Y-81123809D02*
X170352438Y-81219047D01*
X170352438Y-81219047D02*
X170400057Y-81266666D01*
X170400057Y-81266666D02*
X170542914Y-81361904D01*
X170542914Y-81361904D02*
X170733390Y-81409523D01*
X170733390Y-81409523D02*
X171114342Y-81409523D01*
X171114342Y-81409523D02*
X171209580Y-81361904D01*
X171209580Y-81361904D02*
X171257200Y-81314285D01*
X171257200Y-81314285D02*
X171304819Y-81219047D01*
X171304819Y-81219047D02*
X171304819Y-81028571D01*
X171304819Y-81028571D02*
X171257200Y-80933333D01*
X171257200Y-80933333D02*
X171209580Y-80885714D01*
X171209580Y-80885714D02*
X171114342Y-80838095D01*
X171114342Y-80838095D02*
X170876247Y-80838095D01*
X170876247Y-80838095D02*
X170781009Y-80885714D01*
X170781009Y-80885714D02*
X170733390Y-80933333D01*
X170733390Y-80933333D02*
X170685771Y-81028571D01*
X170685771Y-81028571D02*
X170685771Y-81219047D01*
X170685771Y-81219047D02*
X170733390Y-81314285D01*
X170733390Y-81314285D02*
X170781009Y-81361904D01*
X170781009Y-81361904D02*
X170876247Y-81409523D01*
D15*
%TO.C,IC6*%
X150200000Y-84580000D02*
X150200000Y-67580000D01*
X151700000Y-85200000D02*
X151700000Y-85200000D01*
X151700000Y-85300000D02*
X151700000Y-85300000D01*
X151700000Y-85300000D02*
X151700000Y-85300000D01*
X153200000Y-84580000D02*
X153200000Y-67580000D01*
X151700000Y-85200000D02*
G75*
G02*
X151700000Y-85300000I0J-50000D01*
G01*
X151700000Y-85200000D02*
G75*
G02*
X151700000Y-85300000I0J-50000D01*
G01*
X151700000Y-85300000D02*
G75*
G02*
X151700000Y-85200000I0J50000D01*
G01*
D16*
%TO.C,C15*%
X171979000Y-71780000D02*
X173375000Y-71780000D01*
X171979000Y-78020000D02*
X171979000Y-71780000D01*
X171979000Y-78020000D02*
X173375000Y-78020000D01*
X175225000Y-71780000D02*
X176621000Y-71780000D01*
X175225000Y-78020000D02*
X176621000Y-78020000D01*
X176621000Y-78020000D02*
X176621000Y-71780000D01*
%TO.C,R6*%
X152380000Y-94980000D02*
X152380000Y-101520000D01*
X152380000Y-101520000D02*
X155120000Y-101520000D01*
X153750000Y-94210000D02*
X153750000Y-94980000D01*
X153750000Y-102290000D02*
X153750000Y-101520000D01*
X155120000Y-94980000D02*
X152380000Y-94980000D01*
X155120000Y-101520000D02*
X155120000Y-94980000D01*
%TO.C,C2*%
X161178000Y-92506000D02*
X162574000Y-92506000D01*
X161178000Y-98746000D02*
X161178000Y-92506000D01*
X161178000Y-98746000D02*
X162574000Y-98746000D01*
X164424000Y-92506000D02*
X165820000Y-92506000D01*
X164424000Y-98746000D02*
X165820000Y-98746000D01*
X165820000Y-98746000D02*
X165820000Y-92506000D01*
%TO.C,SW7*%
X174721000Y-133052000D02*
X174721000Y-137552000D01*
X177221000Y-138802000D02*
X178721000Y-138802000D01*
X178721000Y-131802000D02*
X177221000Y-131802000D01*
X181221000Y-137552000D02*
X181221000Y-133052000D01*
%TO.C,C18*%
X143879000Y-78880000D02*
X145275000Y-78880000D01*
X143879000Y-85120000D02*
X143879000Y-78880000D01*
X143879000Y-85120000D02*
X145275000Y-85120000D01*
X147125000Y-78880000D02*
X148521000Y-78880000D01*
X147125000Y-85120000D02*
X148521000Y-85120000D01*
X148521000Y-85120000D02*
X148521000Y-78880000D01*
%TO.C,IC3*%
X141160000Y-86270000D02*
X141160000Y-104170000D01*
X141160000Y-104170000D02*
X146460000Y-104170000D01*
X142810000Y-86270000D02*
X141160000Y-86270000D01*
X146460000Y-86270000D02*
X144810000Y-86270000D01*
X146460000Y-104170000D02*
X146460000Y-86270000D01*
X144810000Y-86270000D02*
G75*
G02*
X142810000Y-86270000I-1000000J0D01*
G01*
%TO.C,C1*%
X156098000Y-92506000D02*
X157494000Y-92506000D01*
X156098000Y-98746000D02*
X156098000Y-92506000D01*
X156098000Y-98746000D02*
X157494000Y-98746000D01*
X159344000Y-92506000D02*
X160740000Y-92506000D01*
X159344000Y-98746000D02*
X160740000Y-98746000D01*
X160740000Y-98746000D02*
X160740000Y-92506000D01*
%TO.C,U1*%
X166250000Y-113670000D02*
X166250000Y-97560000D01*
X168960000Y-97560000D02*
X168960000Y-95600000D01*
X171500000Y-97560000D02*
X171500000Y-95600000D01*
X174040000Y-97560000D02*
X174040000Y-95600000D01*
X176750000Y-97560000D02*
X166250000Y-97560000D01*
X176750000Y-113670000D02*
X166250000Y-113670000D01*
X176750000Y-113670000D02*
X176750000Y-97560000D01*
%TO.C,J1*%
X107420000Y-83980000D02*
X107420000Y-81380000D01*
X110080000Y-81380000D02*
X107420000Y-81380000D01*
X110080000Y-83980000D02*
X107420000Y-83980000D01*
X110080000Y-83980000D02*
X110080000Y-81380000D01*
X110080000Y-85250000D02*
X110080000Y-86580000D01*
X110080000Y-86580000D02*
X108750000Y-86580000D01*
%TO.C,C7*%
X156098000Y-107071000D02*
X156098000Y-113311000D01*
X157494000Y-107071000D02*
X156098000Y-107071000D01*
X157494000Y-113311000D02*
X156098000Y-113311000D01*
X160740000Y-107071000D02*
X159344000Y-107071000D01*
X160740000Y-107071000D02*
X160740000Y-113311000D01*
X160740000Y-113311000D02*
X159344000Y-113311000D01*
%TO.C,SW2*%
X150514800Y-122638000D02*
X150514800Y-127138000D01*
X153014800Y-128388000D02*
X154514800Y-128388000D01*
X154514800Y-121388000D02*
X153014800Y-121388000D01*
X157014800Y-127138000D02*
X157014800Y-122638000D01*
D15*
%TO.C,IC7*%
X167600000Y-84620000D02*
X167600000Y-67620000D01*
X169100000Y-85240000D02*
X169100000Y-85240000D01*
X169100000Y-85340000D02*
X169100000Y-85340000D01*
X169100000Y-85340000D02*
X169100000Y-85340000D01*
X170600000Y-84620000D02*
X170600000Y-67620000D01*
X169100000Y-85240000D02*
G75*
G02*
X169100000Y-85340000I0J-50000D01*
G01*
X169100000Y-85240000D02*
G75*
G02*
X169100000Y-85340000I0J-50000D01*
G01*
X169100000Y-85340000D02*
G75*
G02*
X169100000Y-85240000I0J50000D01*
G01*
D16*
%TO.C,SW4*%
X158600000Y-122675000D02*
X158600000Y-127175000D01*
X161100000Y-128425000D02*
X162600000Y-128425000D01*
X162600000Y-121425000D02*
X161100000Y-121425000D01*
X165100000Y-127175000D02*
X165100000Y-122675000D01*
%TO.C,C13*%
X111179000Y-71680000D02*
X112575000Y-71680000D01*
X111179000Y-77920000D02*
X111179000Y-71680000D01*
X111179000Y-77920000D02*
X112575000Y-77920000D01*
X114425000Y-71680000D02*
X115821000Y-71680000D01*
X114425000Y-77920000D02*
X115821000Y-77920000D01*
X115821000Y-77920000D02*
X115821000Y-71680000D01*
%TO.C,C6*%
X161178000Y-107111000D02*
X161178000Y-113351000D01*
X162574000Y-107111000D02*
X161178000Y-107111000D01*
X162574000Y-113351000D02*
X161178000Y-113351000D01*
X165820000Y-107111000D02*
X164424000Y-107111000D01*
X165820000Y-107111000D02*
X165820000Y-113351000D01*
X165820000Y-113351000D02*
X164424000Y-113351000D01*
%TO.C,R12*%
X145380000Y-107750000D02*
X146150000Y-107750000D01*
X146150000Y-106380000D02*
X146150000Y-109120000D01*
X146150000Y-109120000D02*
X152690000Y-109120000D01*
X152690000Y-106380000D02*
X146150000Y-106380000D01*
X152690000Y-109120000D02*
X152690000Y-106380000D01*
X153460000Y-107750000D02*
X152690000Y-107750000D01*
%TO.C,SW6*%
X166720000Y-122765000D02*
X166720000Y-127265000D01*
X169220000Y-128515000D02*
X170720000Y-128515000D01*
X170720000Y-121515000D02*
X169220000Y-121515000D01*
X173220000Y-127265000D02*
X173220000Y-122765000D01*
%TO.C,C14*%
X111179000Y-78880000D02*
X112575000Y-78880000D01*
X111179000Y-85120000D02*
X111179000Y-78880000D01*
X111179000Y-85120000D02*
X112575000Y-85120000D01*
X114425000Y-78880000D02*
X115821000Y-78880000D01*
X114425000Y-85120000D02*
X115821000Y-85120000D01*
X115821000Y-85120000D02*
X115821000Y-78880000D01*
D12*
%TO.C,J8*%
X164050000Y-50701000D02*
X173950000Y-50701000D01*
X164050000Y-52651000D02*
X164050000Y-50701000D01*
X164050000Y-55151000D02*
X164050000Y-64650000D01*
X164050000Y-64650000D02*
X165000000Y-64650000D01*
X173000000Y-64650000D02*
X173950000Y-64650000D01*
X173950000Y-50701000D02*
X173950000Y-52651000D01*
X173950000Y-64650000D02*
X173950000Y-55151000D01*
D11*
%TO.C,RN1*%
X111135000Y-88555000D02*
X133945000Y-88555000D01*
X111135000Y-91045000D02*
X111135000Y-88555000D01*
X133945000Y-88555000D02*
X133945000Y-91045000D01*
X133945000Y-91045000D02*
X111135000Y-91045000D01*
X112008900Y-92101330D02*
G75*
G02*
X111764430Y-92101330I-122235J0D01*
G01*
X111764430Y-92101330D02*
G75*
G02*
X112008900Y-92101330I122235J0D01*
G01*
D16*
%TO.C,SW5*%
X166720000Y-133075000D02*
X166720000Y-137575000D01*
X169220000Y-138825000D02*
X170720000Y-138825000D01*
X170720000Y-131825000D02*
X169220000Y-131825000D01*
X173220000Y-137575000D02*
X173220000Y-133075000D01*
%TO.C,C4*%
X138879000Y-78880000D02*
X140275000Y-78880000D01*
X138879000Y-85120000D02*
X138879000Y-78880000D01*
X138879000Y-85120000D02*
X140275000Y-85120000D01*
X142125000Y-78880000D02*
X143521000Y-78880000D01*
X142125000Y-85120000D02*
X143521000Y-85120000D01*
X143521000Y-85120000D02*
X143521000Y-78880000D01*
%TO.C,C8*%
X138779000Y-71480000D02*
X140175000Y-71480000D01*
X138779000Y-77720000D02*
X138779000Y-71480000D01*
X138779000Y-77720000D02*
X140175000Y-77720000D01*
X142025000Y-71480000D02*
X143421000Y-71480000D01*
X142025000Y-77720000D02*
X143421000Y-77720000D01*
X143421000Y-77720000D02*
X143421000Y-71480000D01*
%TO.C,J3*%
X142780000Y-120145000D02*
X142780000Y-136775000D01*
X142780000Y-120145000D02*
X143422470Y-120145000D01*
X142780000Y-136775000D02*
X143422470Y-136775000D01*
X144037530Y-120145000D02*
X144240000Y-120145000D01*
X144037530Y-136775000D02*
X144692470Y-136775000D01*
X145000000Y-120080000D02*
X145950000Y-120080000D01*
X145307530Y-136775000D02*
X145950000Y-136775000D01*
X145760000Y-121475000D02*
X145950000Y-121475000D01*
X145950000Y-120080000D02*
X145950000Y-120840000D01*
X145950000Y-121475000D02*
X145950000Y-136775000D01*
%TO.C,C5*%
X161178000Y-99785000D02*
X162574000Y-99785000D01*
X161178000Y-106025000D02*
X161178000Y-99785000D01*
X161178000Y-106025000D02*
X162574000Y-106025000D01*
X164424000Y-99785000D02*
X165820000Y-99785000D01*
X164424000Y-106025000D02*
X165820000Y-106025000D01*
X165820000Y-106025000D02*
X165820000Y-99785000D01*
%TO.C,C3*%
X156098000Y-99785000D02*
X157494000Y-99785000D01*
X156098000Y-106025000D02*
X156098000Y-99785000D01*
X156098000Y-106025000D02*
X157494000Y-106025000D01*
X159344000Y-99785000D02*
X160740000Y-99785000D01*
X159344000Y-106025000D02*
X160740000Y-106025000D01*
X160740000Y-106025000D02*
X160740000Y-99785000D01*
D11*
%TO.C,RN2*%
X154155000Y-88655000D02*
X176965000Y-88655000D01*
X154155000Y-91145000D02*
X154155000Y-88655000D01*
X176965000Y-88655000D02*
X176965000Y-91145000D01*
X176965000Y-91145000D02*
X154155000Y-91145000D01*
X176335570Y-87598670D02*
G75*
G02*
X176091100Y-87598670I-122235J0D01*
G01*
X176091100Y-87598670D02*
G75*
G02*
X176335570Y-87598670I122235J0D01*
G01*
D16*
%TO.C,IC1*%
X124560000Y-68945000D02*
X124560000Y-86845000D01*
X124560000Y-86845000D02*
X129860000Y-86845000D01*
X126210000Y-68945000D02*
X124560000Y-68945000D01*
X129860000Y-68945000D02*
X128210000Y-68945000D01*
X129860000Y-86845000D02*
X129860000Y-68945000D01*
X128210000Y-68945000D02*
G75*
G02*
X126210000Y-68945000I-1000000J0D01*
G01*
D15*
%TO.C,IC4*%
X117100000Y-84500000D02*
X117100000Y-67500000D01*
X118600000Y-85120000D02*
X118600000Y-85120000D01*
X118600000Y-85220000D02*
X118600000Y-85220000D01*
X118600000Y-85220000D02*
X118600000Y-85220000D01*
X120100000Y-84500000D02*
X120100000Y-67500000D01*
X118600000Y-85120000D02*
G75*
G02*
X118600000Y-85220000I0J-50000D01*
G01*
X118600000Y-85120000D02*
G75*
G02*
X118600000Y-85220000I0J-50000D01*
G01*
X118600000Y-85220000D02*
G75*
G02*
X118600000Y-85120000I0J50000D01*
G01*
D16*
%TO.C,R7*%
X149130000Y-94980000D02*
X149130000Y-101520000D01*
X149130000Y-101520000D02*
X151870000Y-101520000D01*
X150500000Y-94210000D02*
X150500000Y-94980000D01*
X150500000Y-102290000D02*
X150500000Y-101520000D01*
X151870000Y-94980000D02*
X149130000Y-94980000D01*
X151870000Y-101520000D02*
X151870000Y-94980000D01*
D17*
%TO.C,U2*%
X110195190Y-98470990D02*
X117548490Y-98470990D01*
X110195190Y-107465130D02*
X110195190Y-98470990D01*
D18*
X111536310Y-99545410D02*
X111536310Y-97767410D01*
X111536310Y-108181410D02*
X111536310Y-106403410D01*
D17*
X111620130Y-94066630D02*
X111620130Y-111193850D01*
X111620130Y-111193850D02*
X112290690Y-111864410D01*
X112290690Y-111864410D02*
X132618310Y-111864410D01*
D18*
X112298310Y-105514410D02*
X112298310Y-100434410D01*
X114203310Y-97767410D02*
X111536310Y-97767410D01*
X114203310Y-99545410D02*
X111536310Y-99545410D01*
X114203310Y-99545410D02*
X114203310Y-97767410D01*
X114203310Y-106403410D02*
X111536310Y-106403410D01*
X114203310Y-108181410D02*
X111536310Y-108181410D01*
X114203310Y-108181410D02*
X114203310Y-106403410D01*
X114838310Y-100434410D02*
X112298310Y-100434410D01*
X114838310Y-105514410D02*
X112298310Y-105514410D01*
X114838310Y-105514410D02*
X114838310Y-100434410D01*
X115600310Y-99545410D02*
X115600310Y-97767410D01*
X115600310Y-108181410D02*
X115600310Y-106403410D01*
D17*
X117548490Y-98470990D02*
X117548490Y-107470210D01*
X117548490Y-107470210D02*
X110195190Y-107470210D01*
D18*
X118269850Y-97767410D02*
X115600310Y-97767410D01*
X118269850Y-99545410D02*
X115600310Y-99545410D01*
X118269850Y-99545410D02*
X118269850Y-97767410D01*
X118269850Y-106403410D02*
X115600310Y-106403410D01*
X118269850Y-108181410D02*
X115600310Y-108181410D01*
X118269850Y-108181410D02*
X118269850Y-106403410D01*
D17*
X132618310Y-94066630D02*
X111620130Y-94066630D01*
X132618310Y-111864410D02*
X132618310Y-94066630D01*
D11*
X114584310Y-112753410D02*
G75*
G02*
X114330310Y-112753410I-127000J0D01*
G01*
X114330310Y-112753410D02*
G75*
G02*
X114584310Y-112753410I127000J0D01*
G01*
D16*
%TO.C,IC2*%
X157660000Y-68810000D02*
X157660000Y-86710000D01*
X157660000Y-86710000D02*
X162960000Y-86710000D01*
X159310000Y-68810000D02*
X157660000Y-68810000D01*
X162960000Y-68810000D02*
X161310000Y-68810000D01*
X162960000Y-86710000D02*
X162960000Y-68810000D01*
X161310000Y-68810000D02*
G75*
G02*
X159310000Y-68810000I-1000000J0D01*
G01*
%TO.C,D1*%
X151670000Y-110514000D02*
X151670000Y-110670000D01*
X151670000Y-112830000D02*
X151670000Y-112986000D01*
X151670000Y-110514484D02*
G75*
G02*
X154902335Y-110671392I1560000J-1235516D01*
G01*
X152189039Y-110670000D02*
G75*
G02*
X154271130Y-110670163I1040961J-1080000D01*
G01*
X154271130Y-112829837D02*
G75*
G02*
X152189039Y-112830000I-1041130J1079837D01*
G01*
X154902335Y-112828608D02*
G75*
G02*
X151670000Y-112985516I-1672335J1078608D01*
G01*
D12*
%TO.C,J7*%
X146750000Y-50701000D02*
X156650000Y-50701000D01*
X146750000Y-52651000D02*
X146750000Y-50701000D01*
X146750000Y-55151000D02*
X146750000Y-64650000D01*
X146750000Y-64650000D02*
X147700000Y-64650000D01*
X155700000Y-64650000D02*
X156650000Y-64650000D01*
X156650000Y-50701000D02*
X156650000Y-52651000D01*
X156650000Y-64650000D02*
X156650000Y-55151000D01*
%TO.C,J5*%
X113550000Y-50801000D02*
X123450000Y-50801000D01*
X113550000Y-52751000D02*
X113550000Y-50801000D01*
X113550000Y-55251000D02*
X113550000Y-64750000D01*
X113550000Y-64750000D02*
X114500000Y-64750000D01*
X122500000Y-64750000D02*
X123450000Y-64750000D01*
X123450000Y-50801000D02*
X123450000Y-52751000D01*
X123450000Y-64750000D02*
X123450000Y-55251000D01*
D15*
%TO.C,IC5*%
X134300000Y-84520000D02*
X134300000Y-67520000D01*
X135800000Y-85140000D02*
X135800000Y-85140000D01*
X135800000Y-85240000D02*
X135800000Y-85240000D01*
X135800000Y-85240000D02*
X135800000Y-85240000D01*
X137300000Y-84520000D02*
X137300000Y-67520000D01*
X135800000Y-85140000D02*
G75*
G02*
X135800000Y-85240000I0J-50000D01*
G01*
X135800000Y-85140000D02*
G75*
G02*
X135800000Y-85240000I0J-50000D01*
G01*
X135800000Y-85240000D02*
G75*
G02*
X135800000Y-85140000I0J50000D01*
G01*
D16*
%TO.C,SW3*%
X158600000Y-133000000D02*
X158600000Y-137500000D01*
X161100000Y-138750000D02*
X162600000Y-138750000D01*
X162600000Y-131750000D02*
X161100000Y-131750000D01*
X165100000Y-137500000D02*
X165100000Y-133000000D01*
%TO.C,SW1*%
X150500000Y-133000000D02*
X150500000Y-137500000D01*
X153000000Y-138750000D02*
X154500000Y-138750000D01*
X154500000Y-131750000D02*
X153000000Y-131750000D01*
X157000000Y-137500000D02*
X157000000Y-133000000D01*
D12*
%TO.C,J6*%
X131250000Y-50701000D02*
X141150000Y-50701000D01*
X131250000Y-52651000D02*
X131250000Y-50701000D01*
X131250000Y-55151000D02*
X131250000Y-64650000D01*
X131250000Y-64650000D02*
X132200000Y-64650000D01*
X140200000Y-64650000D02*
X141150000Y-64650000D01*
X141150000Y-50701000D02*
X141150000Y-52651000D01*
X141150000Y-64650000D02*
X141150000Y-55151000D01*
D16*
%TO.C,C17*%
X143879000Y-71480000D02*
X145275000Y-71480000D01*
X143879000Y-77720000D02*
X143879000Y-71480000D01*
X143879000Y-77720000D02*
X145275000Y-77720000D01*
X147125000Y-71480000D02*
X148521000Y-71480000D01*
X147125000Y-77720000D02*
X148521000Y-77720000D01*
X148521000Y-77720000D02*
X148521000Y-71480000D01*
%TO.C,SW8*%
X174848000Y-122765000D02*
X174848000Y-127265000D01*
X177348000Y-128515000D02*
X178848000Y-128515000D01*
X178848000Y-121515000D02*
X177348000Y-121515000D01*
X181348000Y-127265000D02*
X181348000Y-122765000D01*
%TO.C,C16*%
X171979000Y-78980000D02*
X173375000Y-78980000D01*
X171979000Y-85220000D02*
X171979000Y-78980000D01*
X171979000Y-85220000D02*
X173375000Y-85220000D01*
X175225000Y-78980000D02*
X176621000Y-78980000D01*
X175225000Y-85220000D02*
X176621000Y-85220000D01*
X176621000Y-85220000D02*
X176621000Y-78980000D01*
%TD*%
M02*
