%TF.GenerationSoftware,KiCad,Pcbnew,8.0.3*%
%TF.CreationDate,2024-06-19T10:23:01+09:00*%
%TF.ProjectId,md2,6d64322e-6b69-4636-9164-5f7063625858,rev?*%
%TF.SameCoordinates,Original*%
%TF.FileFunction,Profile,NP*%
%FSLAX46Y46*%
G04 Gerber Fmt 4.6, Leading zero omitted, Abs format (unit mm)*
G04 Created by KiCad (PCBNEW 8.0.3) date 2024-06-19 10:23:01*
%MOMM*%
%LPD*%
G01*
G04 APERTURE LIST*
%TA.AperFunction,Profile*%
%ADD10C,0.100000*%
%TD*%
%TA.AperFunction,Profile*%
%ADD11C,0.150000*%
%TD*%
G04 APERTURE END LIST*
D10*
X181500000Y-52000000D02*
G75*
G02*
X178500000Y-52000000I-1500000J0D01*
G01*
X178500000Y-52000000D02*
G75*
G02*
X181500000Y-52000000I1500000J0D01*
G01*
X181500000Y-146000000D02*
G75*
G02*
X178500000Y-146000000I-1500000J0D01*
G01*
X178500000Y-146000000D02*
G75*
G02*
X181500000Y-146000000I1500000J0D01*
G01*
X183000000Y-146000000D02*
X183000000Y-52000000D01*
X103000000Y-111000000D02*
G75*
G02*
X104000000Y-110000000I1000000J0D01*
G01*
X145889000Y-143522200D02*
G75*
G02*
X142841000Y-143522200I-1524000J0D01*
G01*
X142841000Y-143522200D02*
G75*
G02*
X145889000Y-143522200I1524000J0D01*
G01*
X103000000Y-111000000D02*
X103000000Y-146000000D01*
X108500000Y-96000000D02*
G75*
G02*
X109500000Y-97000000I0J-1000000D01*
G01*
X106000000Y-149000000D02*
X180000000Y-149000000D01*
X106000000Y-149000000D02*
G75*
G02*
X103000000Y-146000000I0J3000000D01*
G01*
X183000000Y-146000000D02*
G75*
G02*
X180000000Y-149000000I-3000000J0D01*
G01*
X109500000Y-109000000D02*
X109500000Y-97000000D01*
X108500000Y-110000000D02*
X104000000Y-110000000D01*
X109500000Y-109000000D02*
G75*
G02*
X108500000Y-110000000I-1000000J0D01*
G01*
X145889000Y-113423200D02*
G75*
G02*
X142841000Y-113423200I-1524000J0D01*
G01*
X142841000Y-113423200D02*
G75*
G02*
X145889000Y-113423200I1524000J0D01*
G01*
X103000000Y-52000000D02*
G75*
G02*
X106000000Y-49000000I3000000J0D01*
G01*
X107500000Y-52000000D02*
G75*
G02*
X104500000Y-52000000I-1500000J0D01*
G01*
X104500000Y-52000000D02*
G75*
G02*
X107500000Y-52000000I1500000J0D01*
G01*
X108500000Y-96000000D02*
X104000000Y-96000000D01*
X180000000Y-49000000D02*
X106000000Y-49000000D01*
X107500000Y-146000000D02*
G75*
G02*
X104500000Y-146000000I-1500000J0D01*
G01*
X104500000Y-146000000D02*
G75*
G02*
X107500000Y-146000000I1500000J0D01*
G01*
X180000000Y-49000000D02*
G75*
G02*
X183000000Y-52000000I0J-3000000D01*
G01*
D11*
X110887853Y-128472700D02*
G75*
G02*
X107839747Y-128472700I-1524053J0D01*
G01*
X107839747Y-128472700D02*
G75*
G02*
X110887853Y-128472700I1524053J0D01*
G01*
D10*
X104000000Y-96000000D02*
G75*
G02*
X103000000Y-95000000I0J1000000D01*
G01*
X103000000Y-52000000D02*
X103000000Y-95000000D01*
M02*
