%TF.GenerationSoftware,KiCad,Pcbnew,8.0.3*%
%TF.CreationDate,2024-06-19T09:50:18+09:00*%
%TF.ProjectId,md2,6d64322e-6b69-4636-9164-5f7063625858,rev?*%
%TF.SameCoordinates,Original*%
%TF.FileFunction,Legend,Bot*%
%TF.FilePolarity,Positive*%
%FSLAX46Y46*%
G04 Gerber Fmt 4.6, Leading zero omitted, Abs format (unit mm)*
G04 Created by KiCad (PCBNEW 8.0.3) date 2024-06-19 09:50:18*
%MOMM*%
%LPD*%
G01*
G04 APERTURE LIST*
%ADD10C,0.150000*%
%ADD11C,0.120000*%
G04 APERTURE END LIST*
D10*
X112154819Y-100166666D02*
X112869104Y-100166666D01*
X112869104Y-100166666D02*
X113011961Y-100119047D01*
X113011961Y-100119047D02*
X113107200Y-100023809D01*
X113107200Y-100023809D02*
X113154819Y-99880952D01*
X113154819Y-99880952D02*
X113154819Y-99785714D01*
X113154819Y-100642857D02*
X112154819Y-100642857D01*
X112154819Y-100642857D02*
X112154819Y-101023809D01*
X112154819Y-101023809D02*
X112202438Y-101119047D01*
X112202438Y-101119047D02*
X112250057Y-101166666D01*
X112250057Y-101166666D02*
X112345295Y-101214285D01*
X112345295Y-101214285D02*
X112488152Y-101214285D01*
X112488152Y-101214285D02*
X112583390Y-101166666D01*
X112583390Y-101166666D02*
X112631009Y-101119047D01*
X112631009Y-101119047D02*
X112678628Y-101023809D01*
X112678628Y-101023809D02*
X112678628Y-100642857D01*
X113154819Y-102166666D02*
X113154819Y-101595238D01*
X113154819Y-101880952D02*
X112154819Y-101880952D01*
X112154819Y-101880952D02*
X112297676Y-101785714D01*
X112297676Y-101785714D02*
X112392914Y-101690476D01*
X112392914Y-101690476D02*
X112440533Y-101595238D01*
X130583333Y-102404819D02*
X130583333Y-103119104D01*
X130583333Y-103119104D02*
X130630952Y-103261961D01*
X130630952Y-103261961D02*
X130726190Y-103357200D01*
X130726190Y-103357200D02*
X130869047Y-103404819D01*
X130869047Y-103404819D02*
X130964285Y-103404819D01*
X130107142Y-103404819D02*
X130107142Y-102404819D01*
X130107142Y-102404819D02*
X129726190Y-102404819D01*
X129726190Y-102404819D02*
X129630952Y-102452438D01*
X129630952Y-102452438D02*
X129583333Y-102500057D01*
X129583333Y-102500057D02*
X129535714Y-102595295D01*
X129535714Y-102595295D02*
X129535714Y-102738152D01*
X129535714Y-102738152D02*
X129583333Y-102833390D01*
X129583333Y-102833390D02*
X129630952Y-102881009D01*
X129630952Y-102881009D02*
X129726190Y-102928628D01*
X129726190Y-102928628D02*
X130107142Y-102928628D01*
X129154761Y-102500057D02*
X129107142Y-102452438D01*
X129107142Y-102452438D02*
X129011904Y-102404819D01*
X129011904Y-102404819D02*
X128773809Y-102404819D01*
X128773809Y-102404819D02*
X128678571Y-102452438D01*
X128678571Y-102452438D02*
X128630952Y-102500057D01*
X128630952Y-102500057D02*
X128583333Y-102595295D01*
X128583333Y-102595295D02*
X128583333Y-102690533D01*
X128583333Y-102690533D02*
X128630952Y-102833390D01*
X128630952Y-102833390D02*
X129202380Y-103404819D01*
X129202380Y-103404819D02*
X128583333Y-103404819D01*
X130583333Y-98904819D02*
X130583333Y-99619104D01*
X130583333Y-99619104D02*
X130630952Y-99761961D01*
X130630952Y-99761961D02*
X130726190Y-99857200D01*
X130726190Y-99857200D02*
X130869047Y-99904819D01*
X130869047Y-99904819D02*
X130964285Y-99904819D01*
X130107142Y-99904819D02*
X130107142Y-98904819D01*
X130107142Y-98904819D02*
X129726190Y-98904819D01*
X129726190Y-98904819D02*
X129630952Y-98952438D01*
X129630952Y-98952438D02*
X129583333Y-99000057D01*
X129583333Y-99000057D02*
X129535714Y-99095295D01*
X129535714Y-99095295D02*
X129535714Y-99238152D01*
X129535714Y-99238152D02*
X129583333Y-99333390D01*
X129583333Y-99333390D02*
X129630952Y-99381009D01*
X129630952Y-99381009D02*
X129726190Y-99428628D01*
X129726190Y-99428628D02*
X130107142Y-99428628D01*
X128678571Y-98904819D02*
X128869047Y-98904819D01*
X128869047Y-98904819D02*
X128964285Y-98952438D01*
X128964285Y-98952438D02*
X129011904Y-99000057D01*
X129011904Y-99000057D02*
X129107142Y-99142914D01*
X129107142Y-99142914D02*
X129154761Y-99333390D01*
X129154761Y-99333390D02*
X129154761Y-99714342D01*
X129154761Y-99714342D02*
X129107142Y-99809580D01*
X129107142Y-99809580D02*
X129059523Y-99857200D01*
X129059523Y-99857200D02*
X128964285Y-99904819D01*
X128964285Y-99904819D02*
X128773809Y-99904819D01*
X128773809Y-99904819D02*
X128678571Y-99857200D01*
X128678571Y-99857200D02*
X128630952Y-99809580D01*
X128630952Y-99809580D02*
X128583333Y-99714342D01*
X128583333Y-99714342D02*
X128583333Y-99476247D01*
X128583333Y-99476247D02*
X128630952Y-99381009D01*
X128630952Y-99381009D02*
X128678571Y-99333390D01*
X128678571Y-99333390D02*
X128773809Y-99285771D01*
X128773809Y-99285771D02*
X128964285Y-99285771D01*
X128964285Y-99285771D02*
X129059523Y-99333390D01*
X129059523Y-99333390D02*
X129107142Y-99381009D01*
X129107142Y-99381009D02*
X129154761Y-99476247D01*
D11*
%TO.C,JP1*%
X113500000Y-99600000D02*
X115500000Y-99600000D01*
X113500000Y-102400000D02*
X113500000Y-99600000D01*
X115500000Y-99600000D02*
X115500000Y-102400000D01*
X115500000Y-102400000D02*
X113500000Y-102400000D01*
%TO.C,JP2*%
X127700000Y-103750000D02*
X131800000Y-103750000D01*
X127700000Y-105750000D02*
X127700000Y-103750000D01*
X130750000Y-106250000D02*
X131050000Y-105950000D01*
X130750000Y-106250000D02*
X131350000Y-106250000D01*
X131350000Y-106250000D02*
X131050000Y-105950000D01*
X131800000Y-103750000D02*
X131800000Y-105750000D01*
X131800000Y-105750000D02*
X127700000Y-105750000D01*
%TO.C,JP6*%
X127700000Y-100250000D02*
X131800000Y-100250000D01*
X127700000Y-102250000D02*
X127700000Y-100250000D01*
X130750000Y-102750000D02*
X131050000Y-102450000D01*
X130750000Y-102750000D02*
X131350000Y-102750000D01*
X131350000Y-102750000D02*
X131050000Y-102450000D01*
X131800000Y-100250000D02*
X131800000Y-102250000D01*
X131800000Y-102250000D02*
X127700000Y-102250000D01*
%TD*%
M02*
