M48
; DRILL file {KiCad 8.0.3} date 2024-06-19T09:50:21+0900
; FORMAT={-:-/ absolute / inch / decimal}
; #@! TF.CreationDate,2024-06-19T09:50:21+09:00
; #@! TF.GenerationSoftware,Kicad,Pcbnew,8.0.3
; #@! TF.FileFunction,Plated,1,2,PTH
FMAT,2
INCH
; #@! TA.AperFunction,Plated,PTH,ViaDrill
T1C0.0157
; #@! TA.AperFunction,Plated,PTH,ComponentDrill
T2C0.0276
; #@! TA.AperFunction,Plated,PTH,ComponentDrill
T3C0.0315
; #@! TA.AperFunction,Plated,PTH,ComponentDrill
T4C0.0331
; #@! TA.AperFunction,Plated,PTH,ComponentDrill
T5C0.0354
; #@! TA.AperFunction,Plated,PTH,ComponentDrill
T6C0.0394
; #@! TA.AperFunction,Plated,PTH,ComponentDrill
T7C0.0413
; #@! TA.AperFunction,Plated,PTH,ComponentDrill
T8C0.0433
; #@! TA.AperFunction,Plated,PTH,ComponentDrill
T9C0.0472
; #@! TA.AperFunction,Plated,PTH,ComponentDrill
T10C0.0669
; #@! TA.AperFunction,Plated,PTH,ComponentDrill
T11C0.0787
%
G90
G05
T1
X4.5079Y-3.878
X4.7323Y-3.8701
X5.0079Y-3.8622
X5.0098Y-2.4409
X5.0098Y-2.5
X5.0098Y-2.5591
X5.0689Y-2.4409
X5.0689Y-2.5
X5.0689Y-2.5591
X5.1079Y-4.2819
X5.1969Y-3.7349
X5.2303Y-3.8346
X5.2303Y-3.8839
X5.2303Y-3.9331
X5.2795Y-3.8346
X5.2795Y-3.8839
X5.2795Y-3.9331
X5.3071Y-4.7126
X5.6201Y-2.4606
X5.6201Y-2.5197
X5.6201Y-2.5787
X5.6791Y-2.4606
X5.6791Y-2.5197
X5.6791Y-2.5787
X5.7382Y-2.4606
X5.7382Y-2.5197
X5.7382Y-2.5787
X6.1811Y-2.4803
X6.1811Y-2.5394
X6.1811Y-2.5984
X6.2402Y-2.4803
X6.2402Y-2.5394
X6.2402Y-2.5984
X6.2992Y-2.4803
X6.2992Y-2.5394
X6.2992Y-2.5984
X6.8209Y-3.4154
X6.8504Y-2.9429
X6.8504Y-3.2382
X6.8799Y-3.4154
X6.9094Y-2.9429
X6.9094Y-3.2382
X6.939Y-3.4154
X6.9685Y-2.9429
X6.9685Y-3.2382
T2
X5.6587Y-4.7575
X5.6587Y-4.8075
X5.6587Y-4.8575
X5.6587Y-4.9075
X5.6587Y-4.9575
X5.6587Y-5.0075
X5.6587Y-5.0575
X5.6587Y-5.1075
X5.6587Y-5.1575
X5.6587Y-5.2075
X5.6587Y-5.2575
X5.6587Y-5.3075
X5.6587Y-5.3575
X5.7087Y-4.7575
X5.7087Y-4.8075
X5.7087Y-4.8575
X5.7087Y-4.9075
X5.7087Y-4.9575
X5.7087Y-5.0075
X5.7087Y-5.0575
X5.7087Y-5.1075
X5.7087Y-5.1575
X5.7087Y-5.2075
X5.7087Y-5.2575
X5.7087Y-5.3075
X5.7087Y-5.3575
T3
X4.4685Y-2.8465
X4.4685Y-3.0433
X4.4685Y-3.1299
X4.4685Y-3.3268
X4.8583Y-2.7667
X4.8583Y-2.8667
X4.8583Y-2.9667
X4.8583Y-3.0667
X4.8583Y-3.1667
X4.8583Y-3.2667
X4.8583Y-3.3667
X5.1583Y-2.7667
X5.1583Y-2.8667
X5.1583Y-2.9667
X5.1583Y-3.0667
X5.1583Y-3.1667
X5.1583Y-3.2667
X5.1583Y-3.3667
X5.5118Y-3.4488
X5.5118Y-3.5488
X5.5118Y-3.6488
X5.5118Y-3.7488
X5.5118Y-3.8488
X5.5118Y-3.9488
X5.5118Y-4.0488
X5.5551Y-2.8386
X5.5551Y-3.0354
X5.5591Y-3.1299
X5.5591Y-3.3268
X5.6827Y-4.2421
X5.7559Y-2.8386
X5.7559Y-3.0354
X5.7559Y-3.1299
X5.7559Y-3.3268
X5.8118Y-3.4488
X5.8118Y-3.5488
X5.8118Y-3.6488
X5.8118Y-3.7488
X5.8118Y-3.8488
X5.8118Y-3.9488
X5.8118Y-4.0488
X5.9252Y-3.6681
X5.9252Y-4.0681
X6.0531Y-3.6681
X6.0531Y-4.0681
X6.0827Y-4.2421
X6.1614Y-2.7614
X6.1614Y-2.8614
X6.1614Y-2.9614
X6.1614Y-3.0614
X6.1614Y-3.1614
X6.1614Y-3.2614
X6.1614Y-3.3614
X6.237Y-3.6664
X6.237Y-3.8632
X6.237Y-3.953
X6.237Y-4.1498
X6.237Y-4.2398
X6.237Y-4.4367
X6.437Y-3.6664
X6.437Y-3.8632
X6.437Y-3.953
X6.437Y-4.1498
X6.437Y-4.2414
X6.437Y-4.4382
X6.4614Y-2.7614
X6.4614Y-2.8614
X6.4614Y-2.9614
X6.4614Y-3.0614
X6.4614Y-3.1614
X6.4614Y-3.2614
X6.4614Y-3.3614
X6.8622Y-2.8504
X6.8622Y-3.0472
X6.8622Y-3.1339
X6.8622Y-3.3307
T4
X4.4244Y-3.5354
X4.5244Y-3.5354
X4.6244Y-3.5354
X4.7244Y-3.5354
X4.8244Y-3.5354
X4.9244Y-3.5354
X5.0244Y-3.5354
X5.1244Y-3.5354
X5.2244Y-3.5354
X6.1181Y-3.5394
X6.2181Y-3.5394
X6.3181Y-3.5394
X6.4181Y-3.5394
X6.5181Y-3.5394
X6.6181Y-3.5394
X6.7181Y-3.5394
X6.8181Y-3.5394
X6.9181Y-3.5394
T5
X5.9827Y-4.3996
X6.0827Y-4.3996
T6
X4.2815Y-3.2563
X4.2815Y-3.3563
X4.4488Y-2.122
X4.8819Y-2.122
X5.1457Y-2.1181
X5.5787Y-2.1181
X5.7559Y-2.1181
X6.189Y-2.1181
X6.437Y-2.1181
X6.8701Y-2.1181
T7
X4.6693Y-2.6921
X4.6693Y-2.7921
X4.6693Y-2.8921
X4.6693Y-2.9921
X4.6693Y-3.0921
X4.6693Y-3.1921
X4.6693Y-3.2921
X5.3465Y-2.6929
X5.3465Y-2.7929
X5.3465Y-2.8929
X5.3465Y-2.9929
X5.3465Y-3.0929
X5.3465Y-3.1929
X5.3465Y-3.2929
X5.9724Y-2.6953
X5.9724Y-2.7953
X5.9724Y-2.8953
X5.9724Y-2.9953
X5.9724Y-3.0953
X5.9724Y-3.1953
X5.9724Y-3.2953
X6.6575Y-2.6969
X6.6575Y-2.7969
X6.6575Y-2.8969
X6.6575Y-2.9969
X6.6575Y-3.0969
X6.6575Y-3.1969
X6.6575Y-3.2969
T8
X5.9646Y-5.1969
X5.9646Y-5.4528
X5.9651Y-4.7889
X5.9651Y-5.0448
X6.1417Y-5.1969
X6.1417Y-5.4528
X6.1423Y-4.7889
X6.1423Y-5.0448
X6.2835Y-4.7904
X6.2835Y-5.0463
X6.2835Y-5.1969
X6.2835Y-5.4528
X6.4606Y-4.7904
X6.4606Y-5.0463
X6.4606Y-5.1969
X6.4606Y-5.4528
X6.6031Y-4.7939
X6.6031Y-5.0498
X6.6031Y-5.1998
X6.6031Y-5.4557
X6.7803Y-4.7939
X6.7803Y-5.0498
X6.7803Y-5.1998
X6.7803Y-5.4557
X6.9181Y-5.1989
X6.9181Y-5.4548
X6.9231Y-4.7939
X6.9231Y-5.0498
X7.0953Y-5.1989
X7.0953Y-5.4548
X7.1003Y-4.7939
X7.1003Y-5.0498
T9
X6.652Y-3.7185
X6.752Y-3.7185
X6.852Y-3.7185
T10
X4.5669Y-2.5157
X4.7638Y-2.5157
X5.2638Y-2.5118
X5.4606Y-2.5118
X5.874Y-2.5118
X6.0709Y-2.5118
X6.5551Y-2.5118
X6.752Y-2.5118
T11
X7.0571Y-3.5335
X7.0571Y-3.7335
X7.0571Y-4.0453
X7.0571Y-4.2453
X7.0571Y-4.4193
X7.0571Y-4.6193
M30
