%TF.GenerationSoftware,KiCad,Pcbnew,8.0.3*%
%TF.CreationDate,2024-07-10T22:12:47+09:00*%
%TF.ProjectId,md2,6d64322e-6b69-4636-9164-5f7063625858,rev?*%
%TF.SameCoordinates,Original*%
%TF.FileFunction,Drillmap*%
%TF.FilePolarity,Positive*%
%FSLAX45Y45*%
G04 Gerber Fmt 4.5, Leading zero omitted, Abs format (unit mm)*
G04 Created by KiCad (PCBNEW 8.0.3) date 2024-07-10 22:12:47*
%MOMM*%
%LPD*%
G01*
G04 APERTURE LIST*
%ADD10C,0.100000*%
%ADD11C,0.200000*%
%ADD12C,0.350000*%
G04 APERTURE END LIST*
D10*
X18150000Y-5200000D02*
G75*
G02*
X17850000Y-5200000I-150000J0D01*
G01*
X17850000Y-5200000D02*
G75*
G02*
X18150000Y-5200000I150000J0D01*
G01*
X18150000Y-14600000D02*
G75*
G02*
X17850000Y-14600000I-150000J0D01*
G01*
X17850000Y-14600000D02*
G75*
G02*
X18150000Y-14600000I150000J0D01*
G01*
X18300000Y-14600000D02*
X18300000Y-5200000D01*
X10300000Y-11100000D02*
G75*
G02*
X10400000Y-11000000I100000J0D01*
G01*
X10300000Y-11100000D02*
X10300000Y-14600000D01*
X10850000Y-9600000D02*
G75*
G02*
X10950000Y-9700000I0J-100000D01*
G01*
X10600000Y-14900000D02*
X18000000Y-14900000D01*
X10600000Y-14900000D02*
G75*
G02*
X10300000Y-14600000I0J300000D01*
G01*
X11054034Y-12847270D02*
G75*
G02*
X10818726Y-12847270I-117654J0D01*
G01*
X10818726Y-12847270D02*
G75*
G02*
X11054034Y-12847270I117654J0D01*
G01*
X18300000Y-14600000D02*
G75*
G02*
X18000000Y-14900000I-300000J0D01*
G01*
X10950000Y-10900000D02*
X10950000Y-9700000D01*
X10850000Y-11000000D02*
X10400000Y-11000000D01*
X10950000Y-10900000D02*
G75*
G02*
X10850000Y-11000000I-100000J0D01*
G01*
X10300000Y-5200000D02*
G75*
G02*
X10600000Y-4900000I300000J0D01*
G01*
X10750000Y-5200000D02*
G75*
G02*
X10450000Y-5200000I-150000J0D01*
G01*
X10450000Y-5200000D02*
G75*
G02*
X10750000Y-5200000I150000J0D01*
G01*
X14554154Y-14352220D02*
G75*
G02*
X14318846Y-14352220I-117654J0D01*
G01*
X14318846Y-14352220D02*
G75*
G02*
X14554154Y-14352220I117654J0D01*
G01*
X10850000Y-9600000D02*
X10400000Y-9600000D01*
X18000000Y-4900000D02*
X10600000Y-4900000D01*
X10750000Y-14600000D02*
G75*
G02*
X10450000Y-14600000I-150000J0D01*
G01*
X10450000Y-14600000D02*
G75*
G02*
X10750000Y-14600000I150000J0D01*
G01*
X18000000Y-4900000D02*
G75*
G02*
X18300000Y-5200000I0J-300000D01*
G01*
X14554154Y-11342320D02*
G75*
G02*
X14318846Y-11342320I-117654J0D01*
G01*
X14318846Y-11342320D02*
G75*
G02*
X14554154Y-11342320I117654J0D01*
G01*
X10400000Y-9600000D02*
G75*
G02*
X10300000Y-9500000I0J100000D01*
G01*
X10300000Y-5200000D02*
X10300000Y-9500000D01*
D11*
D12*
X16975000Y-10850000D02*
X17325000Y-11200000D01*
X17325000Y-10850000D02*
X16975000Y-11200000D01*
D11*
X10555777Y-15216484D02*
X10555777Y-15016484D01*
X10555777Y-15016484D02*
X10603396Y-15016484D01*
X10603396Y-15016484D02*
X10631967Y-15026008D01*
X10631967Y-15026008D02*
X10651015Y-15045055D01*
X10651015Y-15045055D02*
X10660539Y-15064103D01*
X10660539Y-15064103D02*
X10670063Y-15102198D01*
X10670063Y-15102198D02*
X10670063Y-15130769D01*
X10670063Y-15130769D02*
X10660539Y-15168865D01*
X10660539Y-15168865D02*
X10651015Y-15187912D01*
X10651015Y-15187912D02*
X10631967Y-15206960D01*
X10631967Y-15206960D02*
X10603396Y-15216484D01*
X10603396Y-15216484D02*
X10555777Y-15216484D01*
X10755777Y-15216484D02*
X10755777Y-15083150D01*
X10755777Y-15121246D02*
X10765301Y-15102198D01*
X10765301Y-15102198D02*
X10774824Y-15092674D01*
X10774824Y-15092674D02*
X10793872Y-15083150D01*
X10793872Y-15083150D02*
X10812920Y-15083150D01*
X10879586Y-15216484D02*
X10879586Y-15083150D01*
X10879586Y-15016484D02*
X10870063Y-15026008D01*
X10870063Y-15026008D02*
X10879586Y-15035531D01*
X10879586Y-15035531D02*
X10889110Y-15026008D01*
X10889110Y-15026008D02*
X10879586Y-15016484D01*
X10879586Y-15016484D02*
X10879586Y-15035531D01*
X11003396Y-15216484D02*
X10984348Y-15206960D01*
X10984348Y-15206960D02*
X10974824Y-15187912D01*
X10974824Y-15187912D02*
X10974824Y-15016484D01*
X11108158Y-15216484D02*
X11089110Y-15206960D01*
X11089110Y-15206960D02*
X11079586Y-15187912D01*
X11079586Y-15187912D02*
X11079586Y-15016484D01*
X11336729Y-15216484D02*
X11336729Y-15016484D01*
X11336729Y-15016484D02*
X11403396Y-15159341D01*
X11403396Y-15159341D02*
X11470062Y-15016484D01*
X11470062Y-15016484D02*
X11470062Y-15216484D01*
X11651015Y-15216484D02*
X11651015Y-15111722D01*
X11651015Y-15111722D02*
X11641491Y-15092674D01*
X11641491Y-15092674D02*
X11622443Y-15083150D01*
X11622443Y-15083150D02*
X11584348Y-15083150D01*
X11584348Y-15083150D02*
X11565301Y-15092674D01*
X11651015Y-15206960D02*
X11631967Y-15216484D01*
X11631967Y-15216484D02*
X11584348Y-15216484D01*
X11584348Y-15216484D02*
X11565301Y-15206960D01*
X11565301Y-15206960D02*
X11555777Y-15187912D01*
X11555777Y-15187912D02*
X11555777Y-15168865D01*
X11555777Y-15168865D02*
X11565301Y-15149817D01*
X11565301Y-15149817D02*
X11584348Y-15140293D01*
X11584348Y-15140293D02*
X11631967Y-15140293D01*
X11631967Y-15140293D02*
X11651015Y-15130769D01*
X11746253Y-15083150D02*
X11746253Y-15283150D01*
X11746253Y-15092674D02*
X11765301Y-15083150D01*
X11765301Y-15083150D02*
X11803396Y-15083150D01*
X11803396Y-15083150D02*
X11822443Y-15092674D01*
X11822443Y-15092674D02*
X11831967Y-15102198D01*
X11831967Y-15102198D02*
X11841491Y-15121246D01*
X11841491Y-15121246D02*
X11841491Y-15178388D01*
X11841491Y-15178388D02*
X11831967Y-15197436D01*
X11831967Y-15197436D02*
X11822443Y-15206960D01*
X11822443Y-15206960D02*
X11803396Y-15216484D01*
X11803396Y-15216484D02*
X11765301Y-15216484D01*
X11765301Y-15216484D02*
X11746253Y-15206960D01*
X11927205Y-15197436D02*
X11936729Y-15206960D01*
X11936729Y-15206960D02*
X11927205Y-15216484D01*
X11927205Y-15216484D02*
X11917682Y-15206960D01*
X11917682Y-15206960D02*
X11927205Y-15197436D01*
X11927205Y-15197436D02*
X11927205Y-15216484D01*
X11927205Y-15092674D02*
X11936729Y-15102198D01*
X11936729Y-15102198D02*
X11927205Y-15111722D01*
X11927205Y-15111722D02*
X11917682Y-15102198D01*
X11917682Y-15102198D02*
X11927205Y-15092674D01*
X11927205Y-15092674D02*
X11927205Y-15111722D01*
X10095000Y-15445000D02*
X10295000Y-15645000D01*
X10295000Y-15445000D02*
X10095000Y-15645000D01*
X10536729Y-15436484D02*
X10660539Y-15436484D01*
X10660539Y-15436484D02*
X10593872Y-15512674D01*
X10593872Y-15512674D02*
X10622444Y-15512674D01*
X10622444Y-15512674D02*
X10641491Y-15522198D01*
X10641491Y-15522198D02*
X10651015Y-15531722D01*
X10651015Y-15531722D02*
X10660539Y-15550769D01*
X10660539Y-15550769D02*
X10660539Y-15598388D01*
X10660539Y-15598388D02*
X10651015Y-15617436D01*
X10651015Y-15617436D02*
X10641491Y-15626960D01*
X10641491Y-15626960D02*
X10622444Y-15636484D01*
X10622444Y-15636484D02*
X10565301Y-15636484D01*
X10565301Y-15636484D02*
X10546253Y-15626960D01*
X10546253Y-15626960D02*
X10536729Y-15617436D01*
X10746253Y-15617436D02*
X10755777Y-15626960D01*
X10755777Y-15626960D02*
X10746253Y-15636484D01*
X10746253Y-15636484D02*
X10736729Y-15626960D01*
X10736729Y-15626960D02*
X10746253Y-15617436D01*
X10746253Y-15617436D02*
X10746253Y-15636484D01*
X10936729Y-15436484D02*
X10841491Y-15436484D01*
X10841491Y-15436484D02*
X10831967Y-15531722D01*
X10831967Y-15531722D02*
X10841491Y-15522198D01*
X10841491Y-15522198D02*
X10860539Y-15512674D01*
X10860539Y-15512674D02*
X10908158Y-15512674D01*
X10908158Y-15512674D02*
X10927205Y-15522198D01*
X10927205Y-15522198D02*
X10936729Y-15531722D01*
X10936729Y-15531722D02*
X10946253Y-15550769D01*
X10946253Y-15550769D02*
X10946253Y-15598388D01*
X10946253Y-15598388D02*
X10936729Y-15617436D01*
X10936729Y-15617436D02*
X10927205Y-15626960D01*
X10927205Y-15626960D02*
X10908158Y-15636484D01*
X10908158Y-15636484D02*
X10860539Y-15636484D01*
X10860539Y-15636484D02*
X10841491Y-15626960D01*
X10841491Y-15626960D02*
X10831967Y-15617436D01*
X11070063Y-15436484D02*
X11089110Y-15436484D01*
X11089110Y-15436484D02*
X11108158Y-15446008D01*
X11108158Y-15446008D02*
X11117682Y-15455531D01*
X11117682Y-15455531D02*
X11127205Y-15474579D01*
X11127205Y-15474579D02*
X11136729Y-15512674D01*
X11136729Y-15512674D02*
X11136729Y-15560293D01*
X11136729Y-15560293D02*
X11127205Y-15598388D01*
X11127205Y-15598388D02*
X11117682Y-15617436D01*
X11117682Y-15617436D02*
X11108158Y-15626960D01*
X11108158Y-15626960D02*
X11089110Y-15636484D01*
X11089110Y-15636484D02*
X11070063Y-15636484D01*
X11070063Y-15636484D02*
X11051015Y-15626960D01*
X11051015Y-15626960D02*
X11041491Y-15617436D01*
X11041491Y-15617436D02*
X11031967Y-15598388D01*
X11031967Y-15598388D02*
X11022444Y-15560293D01*
X11022444Y-15560293D02*
X11022444Y-15512674D01*
X11022444Y-15512674D02*
X11031967Y-15474579D01*
X11031967Y-15474579D02*
X11041491Y-15455531D01*
X11041491Y-15455531D02*
X11051015Y-15446008D01*
X11051015Y-15446008D02*
X11070063Y-15436484D01*
X11260539Y-15436484D02*
X11279586Y-15436484D01*
X11279586Y-15436484D02*
X11298634Y-15446008D01*
X11298634Y-15446008D02*
X11308158Y-15455531D01*
X11308158Y-15455531D02*
X11317682Y-15474579D01*
X11317682Y-15474579D02*
X11327205Y-15512674D01*
X11327205Y-15512674D02*
X11327205Y-15560293D01*
X11327205Y-15560293D02*
X11317682Y-15598388D01*
X11317682Y-15598388D02*
X11308158Y-15617436D01*
X11308158Y-15617436D02*
X11298634Y-15626960D01*
X11298634Y-15626960D02*
X11279586Y-15636484D01*
X11279586Y-15636484D02*
X11260539Y-15636484D01*
X11260539Y-15636484D02*
X11241491Y-15626960D01*
X11241491Y-15626960D02*
X11231967Y-15617436D01*
X11231967Y-15617436D02*
X11222443Y-15598388D01*
X11222443Y-15598388D02*
X11212920Y-15560293D01*
X11212920Y-15560293D02*
X11212920Y-15512674D01*
X11212920Y-15512674D02*
X11222443Y-15474579D01*
X11222443Y-15474579D02*
X11231967Y-15455531D01*
X11231967Y-15455531D02*
X11241491Y-15446008D01*
X11241491Y-15446008D02*
X11260539Y-15436484D01*
X11412920Y-15636484D02*
X11412920Y-15503150D01*
X11412920Y-15522198D02*
X11422443Y-15512674D01*
X11422443Y-15512674D02*
X11441491Y-15503150D01*
X11441491Y-15503150D02*
X11470063Y-15503150D01*
X11470063Y-15503150D02*
X11489110Y-15512674D01*
X11489110Y-15512674D02*
X11498634Y-15531722D01*
X11498634Y-15531722D02*
X11498634Y-15636484D01*
X11498634Y-15531722D02*
X11508158Y-15512674D01*
X11508158Y-15512674D02*
X11527205Y-15503150D01*
X11527205Y-15503150D02*
X11555777Y-15503150D01*
X11555777Y-15503150D02*
X11574824Y-15512674D01*
X11574824Y-15512674D02*
X11584348Y-15531722D01*
X11584348Y-15531722D02*
X11584348Y-15636484D01*
X11679586Y-15636484D02*
X11679586Y-15503150D01*
X11679586Y-15522198D02*
X11689110Y-15512674D01*
X11689110Y-15512674D02*
X11708158Y-15503150D01*
X11708158Y-15503150D02*
X11736729Y-15503150D01*
X11736729Y-15503150D02*
X11755777Y-15512674D01*
X11755777Y-15512674D02*
X11765301Y-15531722D01*
X11765301Y-15531722D02*
X11765301Y-15636484D01*
X11765301Y-15531722D02*
X11774824Y-15512674D01*
X11774824Y-15512674D02*
X11793872Y-15503150D01*
X11793872Y-15503150D02*
X11822443Y-15503150D01*
X11822443Y-15503150D02*
X11841491Y-15512674D01*
X11841491Y-15512674D02*
X11851015Y-15531722D01*
X11851015Y-15531722D02*
X11851015Y-15636484D01*
X12241491Y-15426960D02*
X12070063Y-15684103D01*
X12498634Y-15436484D02*
X12517682Y-15436484D01*
X12517682Y-15436484D02*
X12536729Y-15446008D01*
X12536729Y-15446008D02*
X12546253Y-15455531D01*
X12546253Y-15455531D02*
X12555777Y-15474579D01*
X12555777Y-15474579D02*
X12565301Y-15512674D01*
X12565301Y-15512674D02*
X12565301Y-15560293D01*
X12565301Y-15560293D02*
X12555777Y-15598388D01*
X12555777Y-15598388D02*
X12546253Y-15617436D01*
X12546253Y-15617436D02*
X12536729Y-15626960D01*
X12536729Y-15626960D02*
X12517682Y-15636484D01*
X12517682Y-15636484D02*
X12498634Y-15636484D01*
X12498634Y-15636484D02*
X12479586Y-15626960D01*
X12479586Y-15626960D02*
X12470063Y-15617436D01*
X12470063Y-15617436D02*
X12460539Y-15598388D01*
X12460539Y-15598388D02*
X12451015Y-15560293D01*
X12451015Y-15560293D02*
X12451015Y-15512674D01*
X12451015Y-15512674D02*
X12460539Y-15474579D01*
X12460539Y-15474579D02*
X12470063Y-15455531D01*
X12470063Y-15455531D02*
X12479586Y-15446008D01*
X12479586Y-15446008D02*
X12498634Y-15436484D01*
X12651015Y-15617436D02*
X12660539Y-15626960D01*
X12660539Y-15626960D02*
X12651015Y-15636484D01*
X12651015Y-15636484D02*
X12641491Y-15626960D01*
X12641491Y-15626960D02*
X12651015Y-15617436D01*
X12651015Y-15617436D02*
X12651015Y-15636484D01*
X12851015Y-15636484D02*
X12736729Y-15636484D01*
X12793872Y-15636484D02*
X12793872Y-15436484D01*
X12793872Y-15436484D02*
X12774825Y-15465055D01*
X12774825Y-15465055D02*
X12755777Y-15484103D01*
X12755777Y-15484103D02*
X12736729Y-15493627D01*
X12917682Y-15436484D02*
X13041491Y-15436484D01*
X13041491Y-15436484D02*
X12974825Y-15512674D01*
X12974825Y-15512674D02*
X13003396Y-15512674D01*
X13003396Y-15512674D02*
X13022444Y-15522198D01*
X13022444Y-15522198D02*
X13031967Y-15531722D01*
X13031967Y-15531722D02*
X13041491Y-15550769D01*
X13041491Y-15550769D02*
X13041491Y-15598388D01*
X13041491Y-15598388D02*
X13031967Y-15617436D01*
X13031967Y-15617436D02*
X13022444Y-15626960D01*
X13022444Y-15626960D02*
X13003396Y-15636484D01*
X13003396Y-15636484D02*
X12946253Y-15636484D01*
X12946253Y-15636484D02*
X12927206Y-15626960D01*
X12927206Y-15626960D02*
X12917682Y-15617436D01*
X13108158Y-15436484D02*
X13241491Y-15436484D01*
X13241491Y-15436484D02*
X13155777Y-15636484D01*
X13346253Y-15522198D02*
X13327206Y-15512674D01*
X13327206Y-15512674D02*
X13317682Y-15503150D01*
X13317682Y-15503150D02*
X13308158Y-15484103D01*
X13308158Y-15484103D02*
X13308158Y-15474579D01*
X13308158Y-15474579D02*
X13317682Y-15455531D01*
X13317682Y-15455531D02*
X13327206Y-15446008D01*
X13327206Y-15446008D02*
X13346253Y-15436484D01*
X13346253Y-15436484D02*
X13384348Y-15436484D01*
X13384348Y-15436484D02*
X13403396Y-15446008D01*
X13403396Y-15446008D02*
X13412920Y-15455531D01*
X13412920Y-15455531D02*
X13422444Y-15474579D01*
X13422444Y-15474579D02*
X13422444Y-15484103D01*
X13422444Y-15484103D02*
X13412920Y-15503150D01*
X13412920Y-15503150D02*
X13403396Y-15512674D01*
X13403396Y-15512674D02*
X13384348Y-15522198D01*
X13384348Y-15522198D02*
X13346253Y-15522198D01*
X13346253Y-15522198D02*
X13327206Y-15531722D01*
X13327206Y-15531722D02*
X13317682Y-15541246D01*
X13317682Y-15541246D02*
X13308158Y-15560293D01*
X13308158Y-15560293D02*
X13308158Y-15598388D01*
X13308158Y-15598388D02*
X13317682Y-15617436D01*
X13317682Y-15617436D02*
X13327206Y-15626960D01*
X13327206Y-15626960D02*
X13346253Y-15636484D01*
X13346253Y-15636484D02*
X13384348Y-15636484D01*
X13384348Y-15636484D02*
X13403396Y-15626960D01*
X13403396Y-15626960D02*
X13412920Y-15617436D01*
X13412920Y-15617436D02*
X13422444Y-15598388D01*
X13422444Y-15598388D02*
X13422444Y-15560293D01*
X13422444Y-15560293D02*
X13412920Y-15541246D01*
X13412920Y-15541246D02*
X13403396Y-15531722D01*
X13403396Y-15531722D02*
X13384348Y-15522198D01*
X13498634Y-15436484D02*
X13498634Y-15474579D01*
X13574825Y-15436484D02*
X13574825Y-15474579D01*
X13870063Y-15712674D02*
X13860539Y-15703150D01*
X13860539Y-15703150D02*
X13841491Y-15674579D01*
X13841491Y-15674579D02*
X13831968Y-15655531D01*
X13831968Y-15655531D02*
X13822444Y-15626960D01*
X13822444Y-15626960D02*
X13812920Y-15579341D01*
X13812920Y-15579341D02*
X13812920Y-15541246D01*
X13812920Y-15541246D02*
X13822444Y-15493627D01*
X13822444Y-15493627D02*
X13831968Y-15465055D01*
X13831968Y-15465055D02*
X13841491Y-15446008D01*
X13841491Y-15446008D02*
X13860539Y-15417436D01*
X13860539Y-15417436D02*
X13870063Y-15407912D01*
X14051015Y-15636484D02*
X13936729Y-15636484D01*
X13993872Y-15636484D02*
X13993872Y-15436484D01*
X13993872Y-15436484D02*
X13974825Y-15465055D01*
X13974825Y-15465055D02*
X13955777Y-15484103D01*
X13955777Y-15484103D02*
X13936729Y-15493627D01*
X14289110Y-15636484D02*
X14289110Y-15436484D01*
X14374825Y-15636484D02*
X14374825Y-15531722D01*
X14374825Y-15531722D02*
X14365301Y-15512674D01*
X14365301Y-15512674D02*
X14346253Y-15503150D01*
X14346253Y-15503150D02*
X14317682Y-15503150D01*
X14317682Y-15503150D02*
X14298634Y-15512674D01*
X14298634Y-15512674D02*
X14289110Y-15522198D01*
X14498634Y-15636484D02*
X14479587Y-15626960D01*
X14479587Y-15626960D02*
X14470063Y-15617436D01*
X14470063Y-15617436D02*
X14460539Y-15598388D01*
X14460539Y-15598388D02*
X14460539Y-15541246D01*
X14460539Y-15541246D02*
X14470063Y-15522198D01*
X14470063Y-15522198D02*
X14479587Y-15512674D01*
X14479587Y-15512674D02*
X14498634Y-15503150D01*
X14498634Y-15503150D02*
X14527206Y-15503150D01*
X14527206Y-15503150D02*
X14546253Y-15512674D01*
X14546253Y-15512674D02*
X14555777Y-15522198D01*
X14555777Y-15522198D02*
X14565301Y-15541246D01*
X14565301Y-15541246D02*
X14565301Y-15598388D01*
X14565301Y-15598388D02*
X14555777Y-15617436D01*
X14555777Y-15617436D02*
X14546253Y-15626960D01*
X14546253Y-15626960D02*
X14527206Y-15636484D01*
X14527206Y-15636484D02*
X14498634Y-15636484D01*
X14679587Y-15636484D02*
X14660539Y-15626960D01*
X14660539Y-15626960D02*
X14651015Y-15607912D01*
X14651015Y-15607912D02*
X14651015Y-15436484D01*
X14831968Y-15626960D02*
X14812920Y-15636484D01*
X14812920Y-15636484D02*
X14774825Y-15636484D01*
X14774825Y-15636484D02*
X14755777Y-15626960D01*
X14755777Y-15626960D02*
X14746253Y-15607912D01*
X14746253Y-15607912D02*
X14746253Y-15531722D01*
X14746253Y-15531722D02*
X14755777Y-15512674D01*
X14755777Y-15512674D02*
X14774825Y-15503150D01*
X14774825Y-15503150D02*
X14812920Y-15503150D01*
X14812920Y-15503150D02*
X14831968Y-15512674D01*
X14831968Y-15512674D02*
X14841491Y-15531722D01*
X14841491Y-15531722D02*
X14841491Y-15550769D01*
X14841491Y-15550769D02*
X14746253Y-15569817D01*
X14908158Y-15712674D02*
X14917682Y-15703150D01*
X14917682Y-15703150D02*
X14936730Y-15674579D01*
X14936730Y-15674579D02*
X14946253Y-15655531D01*
X14946253Y-15655531D02*
X14955777Y-15626960D01*
X14955777Y-15626960D02*
X14965301Y-15579341D01*
X14965301Y-15579341D02*
X14965301Y-15541246D01*
X14965301Y-15541246D02*
X14955777Y-15493627D01*
X14955777Y-15493627D02*
X14946253Y-15465055D01*
X14946253Y-15465055D02*
X14936730Y-15446008D01*
X14936730Y-15446008D02*
X14917682Y-15417436D01*
X14917682Y-15417436D02*
X14908158Y-15407912D01*
X15270063Y-15712674D02*
X15260539Y-15703150D01*
X15260539Y-15703150D02*
X15241491Y-15674579D01*
X15241491Y-15674579D02*
X15231968Y-15655531D01*
X15231968Y-15655531D02*
X15222444Y-15626960D01*
X15222444Y-15626960D02*
X15212920Y-15579341D01*
X15212920Y-15579341D02*
X15212920Y-15541246D01*
X15212920Y-15541246D02*
X15222444Y-15493627D01*
X15222444Y-15493627D02*
X15231968Y-15465055D01*
X15231968Y-15465055D02*
X15241491Y-15446008D01*
X15241491Y-15446008D02*
X15260539Y-15417436D01*
X15260539Y-15417436D02*
X15270063Y-15407912D01*
X15346253Y-15503150D02*
X15346253Y-15636484D01*
X15346253Y-15522198D02*
X15355777Y-15512674D01*
X15355777Y-15512674D02*
X15374825Y-15503150D01*
X15374825Y-15503150D02*
X15403396Y-15503150D01*
X15403396Y-15503150D02*
X15422444Y-15512674D01*
X15422444Y-15512674D02*
X15431968Y-15531722D01*
X15431968Y-15531722D02*
X15431968Y-15636484D01*
X15555777Y-15636484D02*
X15536730Y-15626960D01*
X15536730Y-15626960D02*
X15527206Y-15617436D01*
X15527206Y-15617436D02*
X15517682Y-15598388D01*
X15517682Y-15598388D02*
X15517682Y-15541246D01*
X15517682Y-15541246D02*
X15527206Y-15522198D01*
X15527206Y-15522198D02*
X15536730Y-15512674D01*
X15536730Y-15512674D02*
X15555777Y-15503150D01*
X15555777Y-15503150D02*
X15584349Y-15503150D01*
X15584349Y-15503150D02*
X15603396Y-15512674D01*
X15603396Y-15512674D02*
X15612920Y-15522198D01*
X15612920Y-15522198D02*
X15622444Y-15541246D01*
X15622444Y-15541246D02*
X15622444Y-15598388D01*
X15622444Y-15598388D02*
X15612920Y-15617436D01*
X15612920Y-15617436D02*
X15603396Y-15626960D01*
X15603396Y-15626960D02*
X15584349Y-15636484D01*
X15584349Y-15636484D02*
X15555777Y-15636484D01*
X15679587Y-15503150D02*
X15755777Y-15503150D01*
X15708158Y-15436484D02*
X15708158Y-15607912D01*
X15708158Y-15607912D02*
X15717682Y-15626960D01*
X15717682Y-15626960D02*
X15736730Y-15636484D01*
X15736730Y-15636484D02*
X15755777Y-15636484D01*
X15974825Y-15503150D02*
X15974825Y-15703150D01*
X15974825Y-15512674D02*
X15993872Y-15503150D01*
X15993872Y-15503150D02*
X16031968Y-15503150D01*
X16031968Y-15503150D02*
X16051015Y-15512674D01*
X16051015Y-15512674D02*
X16060539Y-15522198D01*
X16060539Y-15522198D02*
X16070063Y-15541246D01*
X16070063Y-15541246D02*
X16070063Y-15598388D01*
X16070063Y-15598388D02*
X16060539Y-15617436D01*
X16060539Y-15617436D02*
X16051015Y-15626960D01*
X16051015Y-15626960D02*
X16031968Y-15636484D01*
X16031968Y-15636484D02*
X15993872Y-15636484D01*
X15993872Y-15636484D02*
X15974825Y-15626960D01*
X16184349Y-15636484D02*
X16165301Y-15626960D01*
X16165301Y-15626960D02*
X16155777Y-15607912D01*
X16155777Y-15607912D02*
X16155777Y-15436484D01*
X16346253Y-15636484D02*
X16346253Y-15531722D01*
X16346253Y-15531722D02*
X16336730Y-15512674D01*
X16336730Y-15512674D02*
X16317682Y-15503150D01*
X16317682Y-15503150D02*
X16279587Y-15503150D01*
X16279587Y-15503150D02*
X16260539Y-15512674D01*
X16346253Y-15626960D02*
X16327206Y-15636484D01*
X16327206Y-15636484D02*
X16279587Y-15636484D01*
X16279587Y-15636484D02*
X16260539Y-15626960D01*
X16260539Y-15626960D02*
X16251015Y-15607912D01*
X16251015Y-15607912D02*
X16251015Y-15588865D01*
X16251015Y-15588865D02*
X16260539Y-15569817D01*
X16260539Y-15569817D02*
X16279587Y-15560293D01*
X16279587Y-15560293D02*
X16327206Y-15560293D01*
X16327206Y-15560293D02*
X16346253Y-15550769D01*
X16412920Y-15503150D02*
X16489111Y-15503150D01*
X16441492Y-15436484D02*
X16441492Y-15607912D01*
X16441492Y-15607912D02*
X16451015Y-15626960D01*
X16451015Y-15626960D02*
X16470063Y-15636484D01*
X16470063Y-15636484D02*
X16489111Y-15636484D01*
X16631968Y-15626960D02*
X16612920Y-15636484D01*
X16612920Y-15636484D02*
X16574825Y-15636484D01*
X16574825Y-15636484D02*
X16555777Y-15626960D01*
X16555777Y-15626960D02*
X16546253Y-15607912D01*
X16546253Y-15607912D02*
X16546253Y-15531722D01*
X16546253Y-15531722D02*
X16555777Y-15512674D01*
X16555777Y-15512674D02*
X16574825Y-15503150D01*
X16574825Y-15503150D02*
X16612920Y-15503150D01*
X16612920Y-15503150D02*
X16631968Y-15512674D01*
X16631968Y-15512674D02*
X16641492Y-15531722D01*
X16641492Y-15531722D02*
X16641492Y-15550769D01*
X16641492Y-15550769D02*
X16546253Y-15569817D01*
X16812920Y-15636484D02*
X16812920Y-15436484D01*
X16812920Y-15626960D02*
X16793873Y-15636484D01*
X16793873Y-15636484D02*
X16755777Y-15636484D01*
X16755777Y-15636484D02*
X16736730Y-15626960D01*
X16736730Y-15626960D02*
X16727206Y-15617436D01*
X16727206Y-15617436D02*
X16717682Y-15598388D01*
X16717682Y-15598388D02*
X16717682Y-15541246D01*
X16717682Y-15541246D02*
X16727206Y-15522198D01*
X16727206Y-15522198D02*
X16736730Y-15512674D01*
X16736730Y-15512674D02*
X16755777Y-15503150D01*
X16755777Y-15503150D02*
X16793873Y-15503150D01*
X16793873Y-15503150D02*
X16812920Y-15512674D01*
X16889111Y-15712674D02*
X16898635Y-15703150D01*
X16898635Y-15703150D02*
X16917682Y-15674579D01*
X16917682Y-15674579D02*
X16927206Y-15655531D01*
X16927206Y-15655531D02*
X16936730Y-15626960D01*
X16936730Y-15626960D02*
X16946254Y-15579341D01*
X16946254Y-15579341D02*
X16946254Y-15541246D01*
X16946254Y-15541246D02*
X16936730Y-15493627D01*
X16936730Y-15493627D02*
X16927206Y-15465055D01*
X16927206Y-15465055D02*
X16917682Y-15446008D01*
X16917682Y-15446008D02*
X16898635Y-15417436D01*
X16898635Y-15417436D02*
X16889111Y-15407912D01*
M02*
