%TF.GenerationSoftware,KiCad,Pcbnew,7.0.10*%
%TF.CreationDate,2024-01-13T17:41:25+09:00*%
%TF.ProjectId,md2,6d64322e-6b69-4636-9164-5f7063625858,rev?*%
%TF.SameCoordinates,Original*%
%TF.FileFunction,Soldermask,Top*%
%TF.FilePolarity,Negative*%
%FSLAX46Y46*%
G04 Gerber Fmt 4.6, Leading zero omitted, Abs format (unit mm)*
G04 Created by KiCad (PCBNEW 7.0.10) date 2024-01-13 17:41:25*
%MOMM*%
%LPD*%
G01*
G04 APERTURE LIST*
%ADD10C,1.500000*%
%ADD11C,2.550000*%
%ADD12C,1.600000*%
%ADD13R,1.700000X1.700000*%
%ADD14O,1.700000X1.700000*%
%ADD15O,3.500000X3.500000*%
%ADD16R,1.905000X2.000000*%
%ADD17O,1.905000X2.000000*%
%ADD18R,1.575000X1.575000*%
%ADD19C,1.575000*%
%ADD20R,1.600000X1.600000*%
%ADD21O,1.600000X1.600000*%
%ADD22C,2.000000*%
%ADD23C,3.500000*%
G04 APERTURE END LIST*
D10*
%TO.C,XT30PW-M*%
X41530000Y-31750000D03*
X52530000Y-31750000D03*
D11*
X49530000Y-41750000D03*
X44530000Y-41750000D03*
%TD*%
D12*
%TO.C,1uF*%
X112475000Y-91440000D03*
X117475000Y-91440000D03*
%TD*%
D13*
%TO.C,J1*%
X69850000Y-89535000D03*
D14*
X69850000Y-92075000D03*
X69850000Y-94615000D03*
%TD*%
D12*
%TO.C,0.1uF*%
X82510000Y-56515000D03*
X77510000Y-56515000D03*
%TD*%
%TO.C,0.1uF*%
X63420000Y-56515000D03*
X58420000Y-56515000D03*
%TD*%
D15*
%TO.C,VDD -> 5V*%
X106045000Y-81045000D03*
D16*
X108585000Y-65245000D03*
D17*
X106045000Y-65245000D03*
X103505000Y-65245000D03*
%TD*%
D18*
%TO.C,TB6643KQ*%
X106680000Y-50800000D03*
D19*
X104140000Y-50800000D03*
X101600000Y-50800000D03*
X99060000Y-50800000D03*
X96520000Y-50800000D03*
X93980000Y-50800000D03*
X91440000Y-50800000D03*
%TD*%
D12*
%TO.C,0.1uF*%
X101560000Y-56515000D03*
X96560000Y-56515000D03*
%TD*%
D13*
%TO.C,J3*%
X80010000Y-89535000D03*
D14*
X80010000Y-92075000D03*
X80010000Y-94615000D03*
%TD*%
D20*
%TO.C,TC74HC4066AP*%
X47625000Y-63500000D03*
D21*
X47625000Y-66040000D03*
X47625000Y-68580000D03*
X47625000Y-71120000D03*
X47625000Y-73660000D03*
X47625000Y-76200000D03*
X47625000Y-78740000D03*
X55245000Y-78740000D03*
X55245000Y-76200000D03*
X55245000Y-73660000D03*
X55245000Y-71120000D03*
X55245000Y-68580000D03*
X55245000Y-66040000D03*
X55245000Y-63500000D03*
%TD*%
D22*
%TO.C,2-B*%
X34290000Y-74240000D03*
X40790000Y-74240000D03*
X34290000Y-78740000D03*
X40790000Y-78740000D03*
%TD*%
%TO.C,1-A*%
X29845000Y-69270000D03*
X23345000Y-69270000D03*
X29845000Y-64770000D03*
X23345000Y-64770000D03*
%TD*%
D20*
%TO.C,TC74HC4066AP*%
X85725000Y-63500000D03*
D21*
X85725000Y-66040000D03*
X85725000Y-68580000D03*
X85725000Y-71120000D03*
X85725000Y-73660000D03*
X85725000Y-76200000D03*
X85725000Y-78740000D03*
X93345000Y-78740000D03*
X93345000Y-76200000D03*
X93345000Y-73660000D03*
X93345000Y-71120000D03*
X93345000Y-68580000D03*
X93345000Y-66040000D03*
X93345000Y-63500000D03*
%TD*%
D23*
%TO.C,J9*%
X114935000Y-46990000D03*
X114935000Y-41910000D03*
%TD*%
D20*
%TO.C,220uF*%
X30732349Y-32385000D03*
D12*
X34232349Y-32385000D03*
%TD*%
%TO.C,1uF*%
X25400000Y-51435000D03*
X30400000Y-51435000D03*
%TD*%
D20*
%TO.C,TC74HC04AP*%
X69860000Y-63495000D03*
D21*
X69860000Y-66035000D03*
X69860000Y-68575000D03*
X69860000Y-71115000D03*
X69860000Y-73655000D03*
X69860000Y-76195000D03*
X69860000Y-78735000D03*
X77480000Y-78735000D03*
X77480000Y-76195000D03*
X77480000Y-73655000D03*
X77480000Y-71115000D03*
X77480000Y-68575000D03*
X77480000Y-66035000D03*
X77480000Y-63495000D03*
%TD*%
D22*
%TO.C,J11*%
X115570000Y-65405000D03*
%TD*%
D10*
%TO.C,XT30PW-M*%
X57150000Y-31750000D03*
X68150000Y-31750000D03*
D11*
X65150000Y-41750000D03*
X60150000Y-41750000D03*
%TD*%
%TO.C,XT30PW-M*%
X90630000Y-41750000D03*
X95630000Y-41750000D03*
D10*
X98630000Y-31750000D03*
X87630000Y-31750000D03*
%TD*%
D22*
%TO.C,3-A*%
X23495000Y-83820000D03*
X29995000Y-83820000D03*
X23495000Y-88320000D03*
X29995000Y-88320000D03*
%TD*%
D13*
%TO.C,J2*%
X74930000Y-89535000D03*
D14*
X74930000Y-92075000D03*
X74930000Y-94615000D03*
%TD*%
D12*
%TO.C,1uF*%
X25360000Y-45720000D03*
X30360000Y-45720000D03*
%TD*%
D22*
%TO.C,2-A*%
X23420000Y-74240000D03*
X29920000Y-74240000D03*
X23420000Y-78740000D03*
X29920000Y-78740000D03*
%TD*%
D13*
%TO.C,J4*%
X85090000Y-89535000D03*
D14*
X85090000Y-92075000D03*
X85090000Y-94615000D03*
%TD*%
D23*
%TO.C,J10*%
X114935000Y-36195000D03*
X114935000Y-31115000D03*
%TD*%
D19*
%TO.C,IC5*%
X53340000Y-50800000D03*
X55880000Y-50800000D03*
X58420000Y-50800000D03*
X60960000Y-50800000D03*
X63500000Y-50800000D03*
X66040000Y-50800000D03*
D18*
X68580000Y-50800000D03*
%TD*%
D12*
%TO.C,1uF*%
X25320000Y-40005000D03*
X30320000Y-40005000D03*
%TD*%
D19*
%TO.C,IC6*%
X72390000Y-50800000D03*
X74930000Y-50800000D03*
X77470000Y-50800000D03*
X80010000Y-50800000D03*
X82550000Y-50800000D03*
X85090000Y-50800000D03*
D18*
X87630000Y-50800000D03*
%TD*%
D22*
%TO.C,4-B*%
X34850000Y-93000000D03*
X41350000Y-93000000D03*
X34850000Y-97500000D03*
X41350000Y-97500000D03*
%TD*%
D20*
%TO.C,10uF*%
X115249888Y-84455000D03*
D12*
X117249888Y-84455000D03*
%TD*%
D22*
%TO.C,3-B*%
X34680000Y-83820000D03*
X41180000Y-83820000D03*
X34680000Y-88320000D03*
X41180000Y-88320000D03*
%TD*%
D19*
%TO.C,IC4*%
X34290000Y-50800000D03*
X36830000Y-50800000D03*
X39370000Y-50800000D03*
X41910000Y-50800000D03*
X44450000Y-50800000D03*
X46990000Y-50800000D03*
D18*
X49530000Y-50800000D03*
%TD*%
D12*
%TO.C,0.1uF*%
X44410000Y-56515000D03*
X39410000Y-56515000D03*
%TD*%
D23*
%TO.C,SW9*%
X114935000Y-52705000D03*
X114935000Y-57785000D03*
%TD*%
D22*
%TO.C,4-A*%
X23420000Y-93000000D03*
X29920000Y-93000000D03*
X23420000Y-97500000D03*
X29920000Y-97500000D03*
%TD*%
D12*
%TO.C,R1*%
X115570000Y-68580000D03*
D21*
X115570000Y-78740000D03*
%TD*%
D11*
%TO.C,XT30PW-M*%
X75390000Y-41750000D03*
X80390000Y-41750000D03*
D10*
X83390000Y-31750000D03*
X72390000Y-31750000D03*
%TD*%
D22*
%TO.C,1-B*%
X40790000Y-69215000D03*
X34290000Y-69215000D03*
X40790000Y-64715000D03*
X34290000Y-64715000D03*
%TD*%
M02*
